<?xml version="1.0" standalone="no"?>
<!DOCTYPE svg PUBLIC "-//W3C//DTD SVG 1.1//EN" "http://www.w3.org/Graphics/SVG/1.1/DTD/svg11.dtd" >
<svg xmlns="http://www.w3.org/2000/svg" xmlns:xlink="http://www.w3.org/1999/xlink" version="1.1">
<metadata>
Created by FontForge 20201107 at Mon Sep 14 22:51:32 2020
 By www-data
Copyright (c) Beijing Tsanger Character Technology Co., Ltd.. All rights reserved.
</metadata>
<defs>
<font id="TsangerYuMo-W01" horiz-adv-x="1000" vert-adv-y="1000" >
  <font-face 
    font-family="TsangerYuMo W01"
    font-weight="400"
    font-stretch="normal"
    units-per-em="1000"
    panose-1="2 2 4 0 0 0 0 0 0 0"
    ascent="880"
    descent="-120"
    x-height="534"
    cap-height="808"
    bbox="-8 -229 1002 887"
    underline-thickness="50"
    underline-position="-100"
    unicode-range="U+0001-FFE5"
  />
<missing-glyph horiz-adv-x="500" 
 />
    <glyph glyph-name=".notdef" horiz-adv-x="500" 
 />
    <glyph glyph-name="uni0001" horiz-adv-x="250" 
 />
    <glyph glyph-name="uni0001" unicode=" " horiz-adv-x="250" 
 />
    <glyph glyph-name="uni0001" horiz-adv-x="250" 
 />
    <glyph glyph-name="uni0001" horiz-adv-x="250" 
 />
    <glyph glyph-name="uni0001" horiz-adv-x="250" 
 />
    <glyph glyph-name="uni0001" horiz-adv-x="250" 
 />
    <glyph glyph-name="uni0001" horiz-adv-x="250" 
 />
    <glyph glyph-name="uni0001" horiz-adv-x="250" 
 />
    <glyph glyph-name="uni0001" horiz-adv-x="250" 
 />
    <glyph glyph-name="uni0001" horiz-adv-x="250" 
 />
    <glyph glyph-name="uni0001" horiz-adv-x="250" 
 />
    <glyph glyph-name="uni0001" horiz-adv-x="250" 
 />
    <glyph glyph-name="uni0001" horiz-adv-x="250" 
 />
    <glyph glyph-name="uni0001" horiz-adv-x="250" 
 />
    <glyph glyph-name="uni0001" horiz-adv-x="250" 
 />
    <glyph glyph-name="uni0001" horiz-adv-x="250" 
 />
    <glyph glyph-name="uni0001" horiz-adv-x="250" 
 />
    <glyph glyph-name="uni0001" horiz-adv-x="250" 
 />
    <glyph glyph-name="uni0001" horiz-adv-x="250" 
 />
    <glyph glyph-name="uni0001" horiz-adv-x="250" 
 />
    <glyph glyph-name="uni0001" unicode="&#xd;" horiz-adv-x="250" 
 />
    <glyph glyph-name="uni0001" horiz-adv-x="250" 
 />
    <glyph glyph-name="uni0001" horiz-adv-x="250" 
 />
    <glyph glyph-name="uni0001" unicode="&#xa;" horiz-adv-x="250" 
 />
    <glyph glyph-name="uni0001" unicode="&#x9;" horiz-adv-x="250" 
 />
    <glyph glyph-name="uni0001" horiz-adv-x="250" 
 />
    <glyph glyph-name="uni0001" horiz-adv-x="250" 
 />
    <glyph glyph-name="uni0001" horiz-adv-x="250" 
 />
    <glyph glyph-name="uni0001" horiz-adv-x="250" 
 />
    <glyph glyph-name="uni0001" horiz-adv-x="250" 
 />
    <glyph glyph-name="uni0001" horiz-adv-x="250" 
 />
    <glyph glyph-name="uni0001" horiz-adv-x="250" 
 />
    <glyph glyph-name="uni0001" horiz-adv-x="250" 
 />
    <glyph glyph-name="exclam" unicode="!" horiz-adv-x="230" 
d="M122 808l11 -575h23l12 575h-46zM113 83q-13 -14 -13 -32q0 -19 13 -32t32 -13q18 0 31 13q12 13 12 32q0 18 -12 32q-13 13 -31 13q-19 0 -32 -13z" />
    <glyph glyph-name="quotedbl" unicode="&#x22;" horiz-adv-x="298" 
d="M71 805l12 -218h23l11 218h-46zM178 805l12 -218h23l11 218h-46z" />
    <glyph glyph-name="numbersign" unicode="#" horiz-adv-x="474" 
d="M370 474l-27 -183h100v-34h-105l-38 -258h-35l38 258h-167l-37 -258h-35l38 258h-95v34h100l27 183h-107v35h112l33 228h34l-33 -228h167l34 228h34l-33 -228h88v-35h-93zM335 474h-167l-27 -183h167z" />
    <glyph glyph-name="dollar" unicode="$" horiz-adv-x="571" 
d="M314 385q124 -23 173 -65q48 -41 48 -119q0 -196 -229 -196v-95h-35v96q-114 5 -163 56q-47 48 -67 173l36 4q20 -109 59 -149q40 -43 135 -48v314q-119 25 -165 71q-42 41 -42 122q0 83 45 120q48 40 162 45v48q0 41 -2 63q19 -9 37 -5v-105h4q119 0 161 -35
q46 -40 55 -165l-36 -8q-7 109 -41 141q-33 31 -139 31h-4v-293zM134 453q39 -37 137 -59v284q-97 -4 -136 -36q-36 -29 -36 -93q0 -62 35 -96zM306 41q194 0 194 160q0 59 -40 92q-44 36 -154 56v-308z" />
    <glyph glyph-name="percent" unicode="%" horiz-adv-x="792" 
d="M587 743l-427 -752h35l426 752h-34zM72 663q31 40 103 40q71 0 103 -39q35 -44 35 -147q0 -105 -34 -149q-32 -40 -104 -40q-73 0 -105 43q-33 44 -33 146q0 103 35 146zM94 391q20 -28 81 -28q58 0 80 31q23 32 23 123q0 89 -23 121q-21 30 -80 30q-58 0 -80 -30
q-23 -32 -23 -121q0 -96 22 -126zM514 374q31 40 103 40q70 0 102 -39q35 -43 35 -146q0 -106 -34 -149q-31 -40 -103 -40q-74 0 -105 42q-33 44 -33 147q0 102 35 145zM536 103q20 -28 81 -28q58 0 80 30q22 32 22 124q0 89 -22 120q-21 30 -80 30q-58 0 -80 -30
q-23 -32 -23 -120q0 -96 22 -126z" />
    <glyph glyph-name="ampersand" unicode="&#x26;" horiz-adv-x="601" 
d="M561 -14q-65 48 -117 97q-67 -83 -198 -83q-95 0 -154 55q-60 55 -60 145q0 117 145 199q-63 94 -63 185q0 66 42 112q41 46 100 46q62 0 101 -42t39 -109q0 -63 -32 -104q-36 -46 -136 -101q106 -148 209 -247q49 85 49 245l35 -4q0 -174 -56 -268q61 -56 121 -101z
M183 669q-34 -38 -34 -85q0 -81 59 -168q154 82 154 175q0 46 -34 82q-33 34 -72 34t-73 -38zM416 109q-105 103 -218 261q-131 -72 -131 -170q0 -73 55 -119q52 -45 125 -45q111 0 169 73z" />
    <glyph glyph-name="quotesingle" unicode="'" horiz-adv-x="157" 
d="M67 802l12 -218h23l12 218h-47z" />
    <glyph glyph-name="parenleft" unicode="(" horiz-adv-x="335" 
d="M274 -116l24 20q-202 218 -202 481q0 272 201 482l-23 20q-213 -199 -213 -502q0 -295 213 -501z" />
    <glyph glyph-name="parenright" unicode=")" horiz-adv-x="332" 
d="M39 -96l24 -20q213 205 213 501q0 144 -61 283q-57 131 -152 219l-23 -20q201 -208 201 -482q0 -263 -202 -481z" />
    <glyph glyph-name="asterisk" unicode="*" horiz-adv-x="411" 
d="M230 647l74 -91l-38 -29l-64 99l-64 -99l-39 28l75 91l-115 30l15 46l110 -42l-7 117h48l-6 -117l110 43l14 -46z" />
    <glyph glyph-name="plus" unicode="+" horiz-adv-x="533" 
d="M257 357v-224h39v224h218v35h-218v227h-39v-227h-219v-35h219z" />
    <glyph glyph-name="comma" unicode="," horiz-adv-x="244" 
d="M176 116q0 -152 -134 -188q68 54 76 142q-22 0 -38 16q-16 17 -16 40t16 39q17 16 39 16h1q39 0 52 -36q2 -6 2 -10q2 -12 2 -19z" />
    <glyph glyph-name="hyphen" unicode="-" horiz-adv-x="543" 
d="M27 414v-37h486v37h-486z" />
    <glyph glyph-name="period" unicode="." horiz-adv-x="238" 
d="M82 122q-14 -14 -14 -34q0 -21 14 -35t34 -14t34 14t14 35q0 20 -14 34t-34 14q-19 0 -34 -14z" />
    <glyph glyph-name="slash" unicode="/" horiz-adv-x="366" 
d="M323 799l-319 -798h36l320 798h-37z" />
    <glyph glyph-name="zero" unicode="0" horiz-adv-x="597" 
d="M110 701q71 105 189 105q113 0 186 -101q78 -109 78 -302q0 -188 -72 -299q-71 -112 -192 -112q-117 0 -188 108q-75 112 -75 303q0 190 74 298zM137 126q61 -97 162 -97t163 98q64 101 64 275q0 168 -68 271q-65 97 -159 97q-96 0 -159 -97q-67 -102 -67 -271
q0 -175 64 -276z" />
    <glyph glyph-name="one" unicode="1" horiz-adv-x="576" 
d="M304 794q-17 -3 -39 5q2 -24 2 -68v-730h37v793z" />
    <glyph glyph-name="two" unicode="2" horiz-adv-x="579" 
d="M110 736q-62 -71 -62 -195l37 -4q0 110 51 170q53 62 150 62q86 0 138 -46q51 -44 51 -116q0 -74 -32 -133q-31 -58 -116 -142q-128 -124 -270 -290q-15 -18 -12 -30q4 -12 22 -12h458l12 43h-421q114 137 242 262q94 90 128 156q33 63 33 146q0 88 -65 145
q-66 58 -168 58q-113 0 -176 -74z" />
    <glyph glyph-name="three" unicode="3" horiz-adv-x="561" 
d="M147 425l6 -40q159 19 245 -30q81 -47 81 -146q0 -83 -57 -132q-55 -47 -143 -47q-124 0 -218 84l-24 -28q95 -94 245 -94q107 0 172 56q68 58 68 161q0 82 -51 141q-53 60 -135 68q150 50 150 199q0 81 -62 135q-63 54 -160 54q-134 0 -210 -97l30 -29q60 86 181 86
q79 0 128 -41q50 -42 50 -107q0 -193 -296 -193z" />
    <glyph glyph-name="four" unicode="4" horiz-adv-x="549" 
d="M430 274v543h-38q-168 -242 -363 -531q-17 -26 -10 -40q6 -12 26 -12l347 2v-240h38v240h103v38h-103zM70 274l322 474v-474h-322z" />
    <glyph glyph-name="five" unicode="5" horiz-adv-x="574" 
d="M129 435l28 327h332l14 39h-384l-33 -417l33 -6q73 64 195 64q74 0 122 -52q50 -55 50 -148q0 -208 -211 -208q-145 0 -211 144l-30 -18q72 -168 244 -168q120 0 186 66q66 65 66 184q0 108 -61 175q-60 65 -155 65q-117 0 -185 -47z" />
    <glyph glyph-name="six" unicode="6" horiz-adv-x="616" 
d="M82 356q0 197 67 308q63 104 162 104q175 0 197 -156h45q-30 198 -242 198q-117 0 -190 -105q-83 -121 -83 -349q0 -367 281 -367q114 0 181 72q65 70 65 188q0 121 -67 191q-66 69 -179 69q-170 0 -237 -153zM467 408q54 -59 54 -159q0 -101 -54 -161q-54 -59 -148 -59
q-97 0 -159 59q-64 61 -64 161q0 87 64 151q66 67 159 67q94 0 148 -59z" />
    <glyph glyph-name="seven" unicode="7" horiz-adv-x="576" 
d="M214 -1l318 771q12 30 -18 30h-480l4 -16l-4 -23h447l-310 -762h43z" />
    <glyph glyph-name="eight" unicode="8" horiz-adv-x="577" 
d="M366 428q79 -25 126 -82q48 -58 48 -129q0 -103 -67 -164q-69 -62 -188 -62q-116 0 -183 62q-65 61 -65 164q0 66 44 123q45 60 124 90q-61 22 -98 74q-36 49 -36 105q0 86 56 141q59 58 158 58t157 -57q55 -55 55 -142q0 -129 -131 -181zM164 720q-46 -45 -46 -111
q0 -117 167 -166q169 48 169 166q0 67 -46 112q-48 46 -123 46q-73 0 -121 -47zM137 78q53 -49 148 -49q96 0 150 49q56 49 56 139q0 69 -49 119q-55 55 -157 71q-98 -15 -152 -68q-50 -50 -50 -122q0 -90 54 -139z" />
    <glyph glyph-name="nine" unicode="9" horiz-adv-x="551" 
d="M460 409q0 -379 -189 -379q-172 0 -188 154h-44q12 -103 68 -149q55 -45 164 -45q118 0 173 99q59 106 59 348q0 195 -50 279q-53 89 -186 89q-100 0 -165 -76q-65 -75 -65 -187q0 -121 61 -191q61 -71 169 -71q140 0 193 129zM131 382q-51 59 -51 160q0 96 52 159
q53 65 135 65q178 0 178 -224q0 -95 -41 -153q-47 -66 -137 -66q-85 0 -136 59z" />
    <glyph glyph-name="colon" unicode=":" horiz-adv-x="240" 
d="M104 576q-15 -15 -15 -36t15 -36q14 -15 36 -15q20 0 35 15t15 36t-15 36q-15 14 -35 14q-22 0 -36 -14zM104 93q-15 -14 -15 -35q0 -22 15 -36q14 -15 36 -15q21 0 35 15q15 15 15 36q0 20 -15 35t-35 15q-21 0 -36 -15z" />
    <glyph glyph-name="semicolon" unicode=";" horiz-adv-x="260" 
d="M111 513q-15 15 -15 36q0 20 15 35t35 15q21 0 36 -15t15 -35q0 -22 -15 -36q-15 -15 -36 -15q-20 0 -35 15zM215 88q0 -158 -140 -197q71 57 80 149q-24 0 -40 17q-17 16 -17 41q0 24 17 41t41 17h1q40 0 53 -38q3 -4 3 -10q2 -12 2 -20z" />
    <glyph glyph-name="less" unicode="&#x3c;" horiz-adv-x="536" 
d="M529 605l-504 -206q-20 -8 -20 -21q0 -14 20 -22l504 -204v37l-465 189l465 188v39z" />
    <glyph glyph-name="equal" unicode="=" horiz-adv-x="590" 
d="M35 526v-38h506v38h-506zM35 290v-38h506v38h-506z" />
    <glyph glyph-name="greater" unicode="&#x3e;" horiz-adv-x="533" 
d="M521 380q0 16 -14 21l-504 205v-37l464 -189l-464 -189v-38q487 198 504 206q15 6 14 21z" />
    <glyph glyph-name="question" unicode="?" horiz-adv-x="487" 
d="M318 432q-96 -103 -96 -245h40q0 132 96 229q50 51 65 77q30 49 30 117q0 85 -59 143q-58 57 -139 57q-86 0 -142 -60q-55 -59 -55 -150h38q0 79 47 128q45 46 112 46q66 0 111 -43q47 -46 47 -121t-95 -178zM203 74q-14 -15 -14 -35t14 -35q14 -14 34 -14t35 14
q14 15 14 35t-14 35q-15 14 -35 14t-34 -14z" />
    <glyph glyph-name="at" unicode="@" horiz-adv-x="893" 
d="M675 613h-28l-37 -69q-30 90 -151 90q-144 0 -218 -183q-51 -124 -18 -210q29 -79 110 -90q116 -16 170 59q6 -60 82 -60q108 0 175 85q69 87 69 234q0 140 -115 238q-111 93 -258 93q-169 0 -285 -122q-113 -119 -113 -285q0 -173 118 -289q116 -116 285 -116
q109 0 205 56q94 54 146 146l-37 1q-121 -167 -314 -167q-149 0 -257 103q-112 107 -112 266q0 157 105 264q105 108 259 108q129 0 232 -92q105 -94 105 -215q0 -127 -64 -203q-57 -68 -135 -68q-45 0 -51 14q-8 14 13 73q98 277 119 339zM461 598q78 0 104 -51
q29 -55 -7 -165q-40 -122 -95 -166q-51 -41 -131 -29q-59 8 -80 69q-24 69 18 175q66 167 191 167z" />
    <glyph glyph-name="A" unicode="A" horiz-adv-x="730" 
d="M569 268h-390l-115 -265l-11 6l-28 -7l346 800h36q5 0 8 -7l293 -793h-43zM555 307l-163 455l-197 -455h360z" />
    <glyph glyph-name="B" unicode="B" horiz-adv-x="718" 
d="M650 226q0 -123 -45 -176q-46 -54 -151 -54h-376v738q0 46 -2 71q5 -2 13 -4h321q106 0 142 -39t36 -158q0 -128 -47 -168q109 -33 109 -210zM118 764v-318h306q71 0 97 33q28 33 28 125q0 98 -26 128q-26 32 -110 32h-295zM452 35q85 0 120 41q37 43 37 150t-36 144
q-34 35 -132 35h-323v-370h334z" />
    <glyph glyph-name="C" unicode="C" horiz-adv-x="776" 
d="M727 296q-23 -145 -106 -223q-85 -79 -222 -79q-154 0 -255 116q-102 117 -102 298q0 175 99 290q101 116 258 116q132 0 217 -74q82 -72 103 -197l-42 -11q-47 243 -278 243q-141 0 -227 -100q-87 -101 -87 -267t90 -269q88 -102 224 -102q237 0 292 267z" />
    <glyph glyph-name="D" unicode="D" horiz-adv-x="735" 
d="M328 799q158 0 256 -106q102 -110 102 -297q0 -397 -358 -397h-252v676q0 47 -3 134q14 -6 27 -10h228zM328 40q152 0 233 92q80 91 80 264q0 166 -91 267q-88 97 -222 97h-210v-720h210z" />
    <glyph glyph-name="E" unicode="E" horiz-adv-x="608" 
d="M588 40l-12 -42h-499v734q0 55 -7 77q26 -8 39 -10h472l-4 -39q-249 2 -456 -1v-339h415l-4 -38q-199 3 -411 0v-342h467z" />
    <glyph glyph-name="F" unicode="F" horiz-adv-x="588" 
d="M568 755q-216 3 -446 0v-345h424l-9 -42q-201 3 -415 0v-367h-44v732q0 54 -7 77q31 -11 51 -11h450z" />
    <glyph glyph-name="G" unicode="G" horiz-adv-x="774" 
d="M658 60q-65 -75 -251 -75q-204 0 -285 94q-77 90 -77 313q0 227 85 322q82 93 277 93q136 0 203 -53q68 -53 98 -185l-37 -16q-26 119 -86 168q-59 47 -178 47q-174 0 -245 -81q-75 -85 -75 -295q0 -208 71 -288q69 -78 249 -78q163 0 220 67t57 257h-320l4 30l-6 12h346
q20 0 20 -22q0 -231 -70 -310z" />
    <glyph glyph-name="H" unicode="H" horiz-adv-x="670" 
d="M588 793v-794h-45v392q-206 3 -421 0v-391h-44v728q0 54 -7 77q31 -13 51 -11v-362h421v295q0 54 -7 77q32 -11 52 -11z" />
    <glyph glyph-name="I" unicode="I" horiz-adv-x="198" 
d="M120 -5v802q-18 -2 -47 11q6 -24 6 -77v-736h41z" />
    <glyph glyph-name="J" unicode="J" horiz-adv-x="495" 
d="M371 711q0 66 -7 100q40 -12 50 -9v-562q0 -152 -53 -209q-45 -49 -156 -49q-78 0 -127 44q-54 47 -65 136l36 11q10 -73 54 -113q40 -37 102 -37q89 0 125 41q41 48 41 176v471z" />
    <glyph glyph-name="K" unicode="K" horiz-adv-x="682" 
d="M674 5l-42 5l-9 -7l-313 463l-191 -190v-277h-42v721q0 80 -2 95q27 -13 44 -5v-480l477 473h52l-313 -312z" />
    <glyph glyph-name="L" unicode="L" horiz-adv-x="535" 
d="M513 -1l10 37h-405v771q-13 -1 -43 6q3 -9 3 -26v-772q0 -16 15 -16h420z" />
    <glyph glyph-name="M" unicode="M" horiz-adv-x="878" 
d="M715 796q14 0 16 -15q28 -170 126 -779h-45l-121 734l-225 -689h-30q-13 0 -17 13l-224 676l-135 -738l-33 7l-11 -7l148 798h41q16 0 20 -13q47 -141 218 -667l217 680h55z" />
    <glyph glyph-name="N" unicode="N" horiz-adv-x="717" 
d="M118 737v-740l-31 7l-10 -7v805h34q14 0 18 -6q170 -272 462 -743v749h45v-805h-57q-9 0 -15 8q-147 243 -446 732z" />
    <glyph glyph-name="O" unicode="O" horiz-adv-x="785" 
d="M660 73q-77 -87 -272 -87t-273 96q-74 91 -74 311q0 229 75 320q76 94 272 94q186 0 267 -94q83 -96 83 -320q0 -231 -78 -320zM624 685q-69 82 -236 82q-169 0 -236 -75q-73 -82 -73 -299q0 -204 70 -286q68 -80 239 -80q174 0 238 74q68 78 68 292q0 208 -70 292z" />
    <glyph glyph-name="P" unicode="P" horiz-adv-x="652" 
d="M428 802q91 0 132 -55q44 -59 44 -197q0 -253 -173 -253h-309v-298h-44v781q0 9 -3 27l25 -5h328zM431 343q128 0 128 207t-131 207h-306v-414h309z" />
    <glyph glyph-name="Q" unicode="Q" horiz-adv-x="749" 
d="M704 -22l-13 -4l-17 -23l-82 95q-73 -53 -222 -53q-185 0 -259 95q-70 90 -70 308q0 226 71 317q73 93 258 93q176 0 253 -93q78 -95 78 -317q0 -237 -80 -324zM561 82l-121 141l27 24l121 -138q62 79 62 287q0 204 -67 289q-64 81 -213 81q-158 0 -218 -74
q-64 -79 -64 -296q0 -201 66 -283q64 -80 216 -80q131 0 191 49z" />
    <glyph glyph-name="R" unicode="R" horiz-adv-x="632" 
d="M624 2l-33 5l-23 -7l-296 360h-151v-361h-43v781q0 16 -4 26l25 -5h329q86 0 121 -47q38 -50 38 -177q0 -122 -34 -169q-35 -48 -123 -48h-102zM121 403h309q67 0 90 35t23 139q0 107 -26 145q-24 37 -89 37h-307v-356z" />
    <glyph glyph-name="S" unicode="S" horiz-adv-x="708" 
d="M586 347q41 -45 41 -130q0 -128 -50 -175q-52 -50 -195 -50q-195 0 -260 53q-58 48 -83 211l41 5q25 -137 79 -181q59 -46 223 -46q115 0 157 39q43 38 43 144q0 76 -38 108q-45 37 -190 60q-181 29 -243 85q-52 46 -52 147q0 106 53 146q61 46 236 46q164 0 215 -40
q54 -43 64 -191l-42 -9q-6 121 -49 158q-46 40 -188 40q-153 0 -202 -33q-43 -29 -43 -117q0 -90 48 -123q55 -38 251 -70q132 -22 184 -77z" />
    <glyph glyph-name="T" unicode="T" horiz-adv-x="628" 
d="M604 756q-68 1 -269 1v-756h-45v711q0 34 -2 45q-204 0 -275 -1l3 30l-4 14h596z" />
    <glyph glyph-name="U" unicode="U" horiz-adv-x="718" 
d="M117 802v-563q0 -111 54 -161q57 -54 190 -54q124 0 180 52q53 51 53 163v563h41v-563q0 -129 -61 -188q-65 -62 -213 -62q-162 0 -227 62q-59 56 -59 188v563h42z" />
    <glyph glyph-name="V" unicode="V" horiz-adv-x="693" 
d="M344 -2q-14 0 -22 19l-307 783h44l289 -746l290 746h44l-315 -802h-23z" />
    <glyph glyph-name="W" unicode="W" horiz-adv-x="863" 
d="M200 0q-17 0 -21 18q-12 60 -167 783h46l151 -741l190 700h44q13 0 17 -13q5 -23 197 -687l149 741h45l-165 -801h-41q-16 0 -20 19q-5 22 -195 693l-202 -712h-28z" />
    <glyph glyph-name="X" unicode="X" horiz-adv-x="616" 
d="M603 1l-40 5l-11 -6l-246 382l-247 -381l-10 6l-39 -5l271 417l-245 381h49l222 -342l222 342h47l-245 -379z" />
    <glyph glyph-name="Y" unicode="Y" horiz-adv-x="599" 
d="M589 800l-267 -505v-294h-40v295l-267 504h47l240 -465l240 465h47z" />
    <glyph glyph-name="Z" unicode="Z" horiz-adv-x="716" 
d="M655 2h-601q-12 0 -17 9q-4 8 3 17q224 294 560 732h-520l7 27l-7 13h561q14 0 19 -9q5 -10 -4 -22q-276 -363 -552 -728h560z" />
    <glyph glyph-name="bracketleft" unicode="[" horiz-adv-x="255" 
d="M65 864v-971h182v37h-146v898h146v36h-182z" />
    <glyph glyph-name="backslash" unicode="\" horiz-adv-x="361" 
d="M359 -97l-321 946h-36l321 -946h36z" />
    <glyph glyph-name="bracketright" unicode="]" horiz-adv-x="276" 
d="M36 -71v-37h182v972h-182v-36h146v-899h-146z" />
    <glyph glyph-name="asciicircum" unicode="^" horiz-adv-x="463" 
d="M459 461q-175 353 -189 383q-9 17 -20 17q-12 0 -20 -17l-193 -383h36l176 353l175 -353h35z" />
    <glyph glyph-name="underscore" unicode="_" horiz-adv-x="552" 
d="M0 -59v-36h552v36h-552z" />
    <glyph glyph-name="grave" unicode="`" horiz-adv-x="230" 
d="M7 797l160 -166l21 23l-154 168z" />
    <glyph glyph-name="a" unicode="a" horiz-adv-x="585" 
d="M523 509v-506h-34l-3 9v59q-45 -75 -203 -75q-116 0 -182 71q-66 70 -66 190q0 129 70 203q67 71 178 71q151 0 203 -55v25l4 8h33zM486 159v236q-17 57 -67 79q-45 21 -136 21q-93 0 -149 -60q-60 -64 -60 -178q0 -111 58 -169q54 -56 151 -56q168 0 203 127z" />
    <glyph glyph-name="b" unicode="b" horiz-adv-x="602" 
d="M495 460q69 -73 69 -204q0 -122 -68 -194q-67 -71 -179 -71q-152 0 -212 66v-55h-44v767q0 20 -3 29q32 -8 47 -6v-315q54 55 210 55q114 0 180 -72zM465 90q56 60 56 166q0 114 -57 177q-55 60 -149 60q-93 0 -137 -17q-47 -18 -73 -68v-291q34 -49 79 -67
q46 -19 133 -19q93 0 148 59z" />
    <glyph glyph-name="c" unicode="c" horiz-adv-x="555" 
d="M517 215q-21 -117 -81 -169q-57 -50 -160 -50q-126 0 -185 65q-56 64 -56 197q0 277 241 277q104 0 158 -38q58 -41 79 -139l-36 -10q-19 82 -65 118q-47 35 -136 35q-103 0 -152 -55q-50 -59 -50 -188q0 -125 50 -177q47 -48 152 -48q173 0 204 190z" />
    <glyph glyph-name="d" unicode="d" horiz-adv-x="607" 
d="M545 809v-804h-46v59q-60 -66 -215 -66q-113 0 -180 71q-69 73 -69 196q0 131 69 205q68 72 183 72q158 0 212 -55v297q0 21 -3 31q34 -9 49 -6zM419 57q45 19 80 68v292q-26 51 -74 69q-44 17 -138 17q-96 0 -151 -61q-57 -63 -57 -177q0 -107 56 -167q55 -60 149 -60
q88 0 135 19z" />
    <glyph glyph-name="e" unicode="e" horiz-adv-x="586" 
d="M508 176l30 -6q-38 -172 -236 -172q-127 0 -196 67q-69 68 -69 195q0 276 260 276q228 0 248 -255q2 -25 -16 -25h-456q0 -221 229 -221q172 0 206 141zM508 294q-25 206 -211 206q-210 0 -223 -206h434z" />
    <glyph glyph-name="f" unicode="f" horiz-adv-x="331" 
d="M162 747q-12 -18 -12 -61v-138h142l-4 -35l-138 1v-521h-39v521l-102 -1l3 22l-4 13h103v138q0 72 30 98q30 27 116 28q36 0 68 -5l-8 -37q-59 8 -113 0q-31 -5 -42 -23z" />
    <glyph glyph-name="g" unicode="g" horiz-adv-x="589" 
d="M528 530v-448q0 -181 -52 -247q-51 -64 -190 -64q-199 0 -253 166l31 15q76 -141 222 -141q108 0 151 51q48 57 48 214q-44 -84 -190 -84q-148 0 -206 68q-56 66 -56 229q0 133 65 193q63 57 197 57q142 0 191 -70l7 61h35zM125 87q46 -54 170 -54q106 0 147 51
q44 55 44 205q0 123 -44 168q-41 41 -147 41q-118 0 -168 -50q-49 -49 -49 -159q0 -147 47 -202z" />
    <glyph glyph-name="h" unicode="h" horiz-adv-x="538" 
d="M103 461q31 78 174 78q197 0 197 -157v-382h-40v382q0 56 -41 88q-42 31 -116 31q-81 0 -127 -39q-47 -41 -47 -112v-350h-41v698q0 58 -3 112q27 -7 44 -2v-347z" />
    <glyph glyph-name="i" unicode="i" horiz-adv-x="170" 
d="M115 773q0 33 -33 33t-33 -33q0 -34 33 -34t33 34zM102 1v605q-16 -1 -46 9q6 -19 6 -61v-553h40z" />
    <glyph glyph-name="j" unicode="j" horiz-adv-x="267" 
d="M215 773q0 34 -33 34q-34 0 -34 -34t34 -34q33 0 33 34zM164 596q0 11 -2 19q29 -8 41 -5v-589q0 -197 -211 -145l8 37q79 -24 122 5q42 29 42 103v575z" />
    <glyph glyph-name="k" unicode="k" horiz-adv-x="484" 
d="M483 0l-35 4l-7 -5l-204 323l-140 -151v-172h-37v732q0 15 -3 24q29 -8 40 -5v-524l298 322h52l-184 -198z" />
    <glyph glyph-name="l" unicode="l" horiz-adv-x="161" 
d="M98 -1v795q-16 -2 -42 11q5 -25 5 -79v-727h37z" />
    <glyph glyph-name="m" unicode="m" horiz-adv-x="837" 
d="M456 522q39 19 134 19q106 0 146 -27q36 -25 36 -87v-427h-39v427q0 44 -26 60q-30 17 -117 17q-101 0 -127 -23q-28 -25 -28 -120v-361h-38v361q0 98 -25 122q-24 22 -122 22q-152 0 -152 -106v-399h-38v518q0 17 -3 24q25 -5 41 -1v-58q27 59 152 59q94 0 127 -15
q34 -16 40 -63q5 42 39 58z" />
    <glyph glyph-name="n" unicode="n" horiz-adv-x="522" 
d="M97 478q35 63 174 63q189 0 189 -170v-373h-39v373q0 66 -41 102q-39 34 -109 34q-174 0 -174 -120v-389h-37v432q0 71 -7 113q29 -8 44 -5v-60z" />
    <glyph glyph-name="o" unicode="o" horiz-adv-x="598" 
d="M96 474q61 63 202 63q139 0 201 -64q62 -63 62 -204q0 -145 -61 -208q-61 -64 -202 -64q-140 0 -201 63q-62 63 -62 209q0 142 61 205zM126 84q50 -51 172 -51t173 51q52 53 52 185q0 127 -57 182q-53 51 -168 51q-126 0 -175 -49q-50 -51 -50 -184q0 -132 53 -185z" />
    <glyph glyph-name="p" unicode="p" horiz-adv-x="581" 
d="M487 476q57 -67 57 -225q0 -136 -57 -199q-56 -63 -177 -63q-147 0 -207 64v-260h-43v720q0 18 -3 27q31 -6 43 -3l2 -60q69 63 208 63q122 0 177 -64zM459 79q47 51 47 172q0 138 -47 196q-44 54 -149 54q-161 0 -207 -86v-290q44 -94 207 -94q104 0 149 48z" />
    <glyph glyph-name="q" unicode="q" horiz-adv-x="581" 
d="M478 536q16 -3 44 3q-4 -12 -4 -27v-720h-42v260q-60 -63 -207 -63q-122 0 -178 63q-57 62 -57 198q0 158 58 225q55 64 177 64q138 0 208 -62zM476 124v290q-46 86 -207 86q-105 0 -149 -54q-47 -58 -47 -196q0 -122 47 -172q44 -48 149 -48q163 0 207 94z" />
    <glyph glyph-name="r" unicode="r" horiz-adv-x="393" 
d="M378 540l-6 -37q-182 13 -222 -25q-41 -40 -41 -230v-248h-47v529q0 11 -3 18q30 -5 47 -3v-58q21 54 167 54h105z" />
    <glyph glyph-name="s" unicode="s" horiz-adv-x="508" 
d="M421 232q47 -36 47 -107q0 -73 -45 -106q-49 -35 -159 -35q-129 0 -180 41q-47 38 -55 139l37 7q16 -96 47 -122q37 -31 154 -31q90 0 128 27q34 25 34 80q0 56 -39 84q-40 29 -142 42q-122 16 -171 54q-43 35 -43 102q0 70 47 102q51 34 170 34q116 0 160 -34
q46 -35 53 -136l-37 -6q-5 82 -42 113q-38 31 -134 31q-99 0 -140 -26q-39 -24 -39 -78q0 -55 37 -82q41 -30 148 -42q115 -13 164 -51z" />
    <glyph glyph-name="t" unicode="t" horiz-adv-x="376" 
d="M187 136q0 -66 32 -84q36 -21 144 -4l-4 -42q-122 -16 -166 13q-42 27 -42 117v365l-138 -1l2 21l-3 11h139v152q0 12 -3 21q27 -6 39 -5v-168h164l-4 -32l-160 1v-365z" />
    <glyph glyph-name="u" unicode="u" horiz-adv-x="515" 
d="M451 536v-539h-34l-4 47v14q-57 -68 -160 -68q-102 0 -147 42q-45 41 -45 132v372h37v-372q0 -139 155 -139q69 0 115 40q45 40 45 99v372h38z" />
    <glyph glyph-name="v" unicode="v" horiz-adv-x="451" 
d="M214 0q-10 0 -15 12l-198 522h42l183 -494l180 494h40l-197 -534h-35z" />
    <glyph glyph-name="w" unicode="w" horiz-adv-x="712" 
d="M174 0q-14 0 -18 13q-74 244 -157 521h44l139 -497l149 467h32q12 0 14 -8l151 -460l138 498h40l-156 -534h-38q-11 0 -16 15l-143 454l-146 -469h-33z" />
    <glyph glyph-name="x" unicode="x" horiz-adv-x="425" 
d="M420 1l-30 3l-10 -4l-169 258l-170 -258l-8 4l-33 -3l190 288l-160 245h41l140 -214l141 214h40l-161 -245z" />
    <glyph glyph-name="y" unicode="y" horiz-adv-x="451" 
d="M447 534q-79 -243 -213 -617q-24 -67 -65 -87q-45 -21 -151 -8v34q90 -11 130 6q36 15 52 62q6 16 34 98l-235 512h40l212 -463q90 263 155 463h41z" />
    <glyph glyph-name="z" unicode="z" horiz-adv-x="489" 
d="M440 2h-388q-12 0 -15 9q-2 7 4 17q211 302 327 471h-301l6 20l-6 15h334q33 0 15 -28q-208 -298 -324 -468h357z" />
    <glyph glyph-name="braceleft" unicode="{" horiz-adv-x="252" 
d="M228 -21v25h-37q-78 0 -78 84v230q0 75 -45 85q45 11 45 90v224q0 86 71 86h44v26h-44q-100 0 -100 -112v-224q0 -77 -81 -77v-25q80 0 80 -73v-230q0 -109 108 -109h37z" />
    <glyph glyph-name="bar" unicode="|" horiz-adv-x="167" 
d="M59 843v-912h32v912h-32z" />
    <glyph glyph-name="braceright" unicode="}" horiz-adv-x="244" 
d="M12 -4v-25h37q107 0 107 109v231q0 73 81 73v25q-81 0 -81 76v225q0 112 -100 112h-44v-26h44q71 0 71 -86v-225q0 -80 45 -89q-45 -10 -45 -85v-231q0 -84 -78 -84h-37z" />
    <glyph glyph-name="asciitilde" unicode="~" horiz-adv-x="464" 
d="M457 802l-30 16q-37 -51 -90 -51q-31 0 -98 34q-66 33 -113 33q-76 0 -122 -61l22 -16q39 49 97 49q30 0 98 -34t115 -34q76 0 121 64z" />
    <glyph glyph-name="exclamdown" unicode="&#xa1;" horiz-adv-x="198" 
d="M60 502q0 -33 35 -33q34 0 34 33q0 35 -34 35q-35 0 -35 -35zM105 351h-20l-6 -464h32z" />
    <glyph glyph-name="cent" unicode="&#xa2;" horiz-adv-x="589" 
d="M554 291q-15 -95 -83 -155q-68 -61 -161 -61q-62 0 -114 23l-56 -131l-30 14l57 133q-127 79 -127 256q0 126 73 207q75 83 197 83q44 0 84 -14l48 113l30 -15l-47 -111q100 -52 122 -166l-33 -8q-24 96 -103 143l-201 -472q45 -20 100 -20q73 0 132 50q62 52 79 136z
M180 145l201 471q-33 13 -71 13q-104 0 -169 -69q-67 -72 -67 -190q0 -156 106 -225z" />
    <glyph glyph-name="sterling" unicode="&#xa3;" horiz-adv-x="664" 
d="M615 231q-4 -156 -116 -156q-52 0 -248 120q-4 -75 -34 -106q-25 -25 -75 -25q-43 0 -72 30q-28 29 -28 71q0 47 26 77q27 30 71 30q34 0 81 -21q-2 55 -13 131l-138 -1l3 21l-3 12h134l-16 93q-15 83 27 131q44 50 138 50q122 0 178 -96l-29 -18q-48 84 -149 84
q-78 0 -113 -40q-34 -40 -21 -111q13 -72 16 -93h215l-4 -33q-49 1 -206 1q13 -85 13 -148q26 -14 67 -39l67 -41q75 -44 112 -44q83 0 86 124zM220 213q-51 27 -81 27t-48 -21q-17 -21 -17 -54q0 -28 21 -48t47 -20q74 0 78 116z" />
    <glyph glyph-name="currency" unicode="&#xa4;" horiz-adv-x="597" 
d="M484 214l42 -42l-22 -23l-43 43q-72 -62 -165 -62q-95 0 -166 63l-44 -44l-23 23l44 43q-64 72 -64 168q0 93 61 164l-44 44l23 23l43 -44q72 66 170 66q96 0 169 -65l43 43l22 -23l-43 -43q61 -72 61 -165q0 -97 -64 -169zM140 227q65 -65 156 -65t156 65q64 64 64 156
t-64 156q-65 65 -156 65t-156 -65q-65 -64 -65 -156q0 -91 65 -156z" />
    <glyph glyph-name="yen" unicode="&#xa5;" horiz-adv-x="497" 
d="M265 256h191v-32h-191v-225h-33v225h-186v32h186v125h-178v32h171l-190 304h39l174 -278l173 278h38l-187 -304h180v-32h-187v-125z" />
    <glyph glyph-name="brokenbar" unicode="&#xa6;" horiz-adv-x="163" 
d="M67 804v-418h29v418h-29zM67 333v-418h29v418h-29z" />
    <glyph glyph-name="section" unicode="&#xa7;" horiz-adv-x="411" 
d="M293 259q35 -33 35 -85q0 -105 -125 -105q-118 0 -124 130h32q4 -54 25 -75q20 -22 67 -22q92 0 92 72q0 56 -105 114q-147 81 -147 149q0 74 78 112q-36 36 -36 77q0 105 125 105q118 0 124 -130h-32q-4 54 -25 76q-20 21 -67 21q-92 0 -92 -72q0 -29 19 -49
q21 -23 87 -59q89 -50 118 -79t29 -70q0 -68 -78 -110zM338 369q0 49 -130 120q-37 21 -63 39q-70 -29 -70 -92q0 -48 130 -119q36 -19 63 -38q70 32 70 90z" />
    <glyph glyph-name="dieresis" unicode="&#xa8;" horiz-adv-x="306" 
d="M233 692q-31 0 -31 -30q0 -33 30 -33q31 0 31 32q0 31 -30 31zM71 686q-30 0 -30 -29q0 -34 30 -34t30 33q0 30 -30 30z" />
    <glyph glyph-name="copyright" unicode="&#xa9;" horiz-adv-x="868" 
d="M149 679q117 116 281 116t280 -116t116 -280t-116 -281q-116 -116 -280 -116t-281 116q-116 117 -116 281t116 280zM172 141q107 -107 258 -107t257 107q107 107 107 258t-107 257q-106 107 -257 107t-258 -107q-107 -106 -107 -257t107 -258zM641 348q-19 -105 -71 -153
q-51 -45 -141 -45q-211 0 -211 247q0 250 211 250q92 0 139 -35q50 -36 70 -125l-29 -9q-17 77 -59 109q-41 31 -121 31q-90 0 -133 -51q-44 -53 -44 -170q0 -114 44 -165q42 -48 133 -48q154 0 181 172z" />
    <glyph glyph-name="guillemotleft" unicode="&#xab;" horiz-adv-x="476" 
d="M275 41h31l-223 323l223 315h-31q-203 -286 -213 -301q-10 -14 -3 -25zM400 41h32l-224 323l224 315h-32l-213 -301q-10 -15 -2 -25z" />
    <glyph glyph-name="registered" unicode="&#xae;" horiz-adv-x="871" 
d="M712 686q116 -116 116 -280t-116 -280t-280 -116t-280 116t-116 280t116 280t280 116t280 -116zM689 149q107 106 107 257t-107 257q-106 107 -257 107t-257 -107q-107 -106 -107 -257t107 -257q106 -107 257 -107t257 107zM434 371l205 -248l-22 3l-17 -5l-203 250h-106
v-250h-30v541q0 10 -2 18l16 -3h229q59 0 84 -33q26 -35 26 -123q0 -84 -24 -117t-85 -33h-71zM291 401h214q47 0 62 24q16 24 16 96q0 74 -18 101q-16 25 -61 25h-213v-246z" />
    <glyph glyph-name="degree" unicode="&#xb0;" horiz-adv-x="325" 
d="M230 702q-29 28 -70 28t-69 -27q-27 -27 -27 -67q0 -42 27 -70q27 -29 68 -29q44 0 72 28t28 70q0 40 -29 67zM214 582q-22 -21 -54 -21q-30 0 -51 20q-22 22 -22 55q0 28 21 49q22 22 52 22t53 -22q22 -22 22 -50q0 -32 -21 -53z" />
    <glyph glyph-name="plusminus" unicode="&#xb1;" horiz-adv-x="633" 
d="M303 183h31v233h282v30h-282v219h-31v-219h-282v-30h282v-233zM17 77v-30h603v30h-603z" />
    <glyph glyph-name="periodcentered" unicode="&#xb7;" horiz-adv-x="310" 
d="M120 333q16 -16 38 -16q57 0 57 56q0 21 -17 37q-17 15 -40 15q-21 0 -38 -16q-16 -16 -16 -36q0 -23 16 -40z" />
    <glyph glyph-name="multiply" unicode="&#xd7;" horiz-adv-x="591" 
d="M322 382l245 -246l-22 -22l-245 246l-246 -246l-22 22l246 246l-246 245l22 22l246 -245l245 245l22 -22z" />
    <glyph glyph-name="divide" unicode="&#xf7;" horiz-adv-x="667" 
d="M299 574q15 -16 36 -16q22 0 37 16q15 15 15 37q0 21 -15 36t-37 15q-21 0 -36 -15t-15 -36q0 -22 15 -37zM645 401h-619v-31h619v31zM299 125q15 -16 36 -16q22 0 37 16q15 15 15 36q0 22 -15 37q-15 16 -37 16q-21 0 -36 -16q-15 -15 -15 -37q0 -21 15 -36z" />
    <glyph glyph-name="amacron" unicode="&#x101;" 
 />
    <glyph glyph-name="emacron" unicode="&#x113;" 
 />
    <glyph glyph-name="ecaron" unicode="&#x11b;" 
 />
    <glyph glyph-name="imacron" unicode="&#x12b;" 
 />
    <glyph glyph-name="nacute" unicode="&#x144;" 
 />
    <glyph glyph-name="ncaron" unicode="&#x148;" 
 />
    <glyph glyph-name="omacron" unicode="&#x14d;" 
 />
    <glyph glyph-name="umacron" unicode="&#x16b;" 
 />
    <glyph glyph-name="uni01CE" unicode="&#x1ce;" 
 />
    <glyph glyph-name="uni01D0" unicode="&#x1d0;" 
 />
    <glyph glyph-name="uni01D2" unicode="&#x1d2;" 
 />
    <glyph glyph-name="uni01D4" unicode="&#x1d4;" 
 />
    <glyph glyph-name="uni01D6" unicode="&#x1d6;" 
 />
    <glyph glyph-name="uni01D8" unicode="&#x1d8;" 
 />
    <glyph glyph-name="uni01DA" unicode="&#x1da;" 
 />
    <glyph glyph-name="uni01DC" unicode="&#x1dc;" 
 />
    <glyph glyph-name="uni0251" unicode="&#x251;" 
 />
    <glyph glyph-name="uni0261" unicode="&#x261;" 
 />
    <glyph glyph-name="caron" unicode="&#x2c7;" horiz-adv-x="865" 
d="M254 769q109 -126 188 -219q11 -13 18 -13t18 13l187 219h-32l-172 -200l-175 200h-32z" />
    <glyph glyph-name="uni02C9" unicode="&#x2c9;" horiz-adv-x="870" 
d="M242 736v-29h387v29h-387z" />
    <glyph glyph-name="Alpha" unicode="&#x391;" 
 />
    <glyph glyph-name="Beta" unicode="&#x392;" 
 />
    <glyph glyph-name="Gamma" unicode="&#x393;" 
 />
    <glyph glyph-name="uni0394" unicode="&#x394;" 
 />
    <glyph glyph-name="Epsilon" unicode="&#x395;" 
 />
    <glyph glyph-name="Zeta" unicode="&#x396;" 
 />
    <glyph glyph-name="Eta" unicode="&#x397;" 
 />
    <glyph glyph-name="Theta" unicode="&#x398;" 
 />
    <glyph glyph-name="Iota" unicode="&#x399;" 
 />
    <glyph glyph-name="Kappa" unicode="&#x39a;" 
 />
    <glyph glyph-name="Lambda" unicode="&#x39b;" 
 />
    <glyph glyph-name="Mu" unicode="&#x39c;" 
 />
    <glyph glyph-name="Nu" unicode="&#x39d;" 
 />
    <glyph glyph-name="Xi" unicode="&#x39e;" 
 />
    <glyph glyph-name="Omicron" unicode="&#x39f;" 
 />
    <glyph glyph-name="Pi" unicode="&#x3a0;" 
 />
    <glyph glyph-name="Rho" unicode="&#x3a1;" 
 />
    <glyph glyph-name="Sigma" unicode="&#x3a3;" 
 />
    <glyph glyph-name="Tau" unicode="&#x3a4;" 
 />
    <glyph glyph-name="Upsilon" unicode="&#x3a5;" 
 />
    <glyph glyph-name="Phi" unicode="&#x3a6;" 
 />
    <glyph glyph-name="Chi" unicode="&#x3a7;" 
 />
    <glyph glyph-name="Psi" unicode="&#x3a8;" 
 />
    <glyph glyph-name="uni03A9" unicode="&#x3a9;" 
 />
    <glyph glyph-name="alpha" unicode="&#x3b1;" 
 />
    <glyph glyph-name="beta" unicode="&#x3b2;" 
 />
    <glyph glyph-name="gamma" unicode="&#x3b3;" 
 />
    <glyph glyph-name="delta" unicode="&#x3b4;" 
 />
    <glyph glyph-name="epsilon" unicode="&#x3b5;" 
 />
    <glyph glyph-name="zeta" unicode="&#x3b6;" 
 />
    <glyph glyph-name="eta" unicode="&#x3b7;" 
 />
    <glyph glyph-name="theta" unicode="&#x3b8;" 
 />
    <glyph glyph-name="iota" unicode="&#x3b9;" 
 />
    <glyph glyph-name="kappa" unicode="&#x3ba;" 
 />
    <glyph glyph-name="lambda" unicode="&#x3bb;" 
 />
    <glyph glyph-name="uni03BC" unicode="&#x3bc;" 
 />
    <glyph glyph-name="nu" unicode="&#x3bd;" 
 />
    <glyph glyph-name="xi" unicode="&#x3be;" 
 />
    <glyph glyph-name="omicron" unicode="&#x3bf;" 
 />
    <glyph glyph-name="pi" unicode="&#x3c0;" 
 />
    <glyph glyph-name="rho" unicode="&#x3c1;" 
 />
    <glyph glyph-name="sigma" unicode="&#x3c3;" 
 />
    <glyph glyph-name="tau" unicode="&#x3c4;" 
 />
    <glyph glyph-name="upsilon" unicode="&#x3c5;" 
 />
    <glyph glyph-name="phi" unicode="&#x3c6;" 
 />
    <glyph glyph-name="chi" unicode="&#x3c7;" 
 />
    <glyph glyph-name="psi" unicode="&#x3c8;" 
 />
    <glyph glyph-name="omega" unicode="&#x3c9;" 
 />
    <glyph glyph-name="uni0401" unicode="&#x401;" 
 />
    <glyph glyph-name="uni0410" unicode="&#x410;" 
 />
    <glyph glyph-name="uni0411" unicode="&#x411;" 
 />
    <glyph glyph-name="uni0412" unicode="&#x412;" 
 />
    <glyph glyph-name="uni0413" unicode="&#x413;" 
 />
    <glyph glyph-name="uni0414" unicode="&#x414;" 
 />
    <glyph glyph-name="uni0415" unicode="&#x415;" 
 />
    <glyph glyph-name="uni0416" unicode="&#x416;" 
 />
    <glyph glyph-name="uni0417" unicode="&#x417;" 
 />
    <glyph glyph-name="uni0418" unicode="&#x418;" 
 />
    <glyph glyph-name="uni0419" unicode="&#x419;" 
 />
    <glyph glyph-name="uni041A" unicode="&#x41a;" 
 />
    <glyph glyph-name="uni041B" unicode="&#x41b;" 
 />
    <glyph glyph-name="uni041C" unicode="&#x41c;" 
 />
    <glyph glyph-name="uni041D" unicode="&#x41d;" 
 />
    <glyph glyph-name="uni041E" unicode="&#x41e;" 
 />
    <glyph glyph-name="uni041F" unicode="&#x41f;" 
 />
    <glyph glyph-name="uni0420" unicode="&#x420;" 
 />
    <glyph glyph-name="uni0421" unicode="&#x421;" 
 />
    <glyph glyph-name="uni0422" unicode="&#x422;" 
 />
    <glyph glyph-name="uni0423" unicode="&#x423;" 
 />
    <glyph glyph-name="uni0424" unicode="&#x424;" 
 />
    <glyph glyph-name="uni0425" unicode="&#x425;" 
 />
    <glyph glyph-name="uni0426" unicode="&#x426;" 
 />
    <glyph glyph-name="uni0427" unicode="&#x427;" 
 />
    <glyph glyph-name="uni0428" unicode="&#x428;" 
 />
    <glyph glyph-name="uni0429" unicode="&#x429;" 
 />
    <glyph glyph-name="uni042A" unicode="&#x42a;" 
 />
    <glyph glyph-name="uni042B" unicode="&#x42b;" 
 />
    <glyph glyph-name="uni042C" unicode="&#x42c;" 
 />
    <glyph glyph-name="uni042D" unicode="&#x42d;" 
 />
    <glyph glyph-name="uni042E" unicode="&#x42e;" 
 />
    <glyph glyph-name="uni042F" unicode="&#x42f;" 
 />
    <glyph glyph-name="uni0430" unicode="&#x430;" 
 />
    <glyph glyph-name="uni0431" unicode="&#x431;" 
 />
    <glyph glyph-name="uni0432" unicode="&#x432;" 
 />
    <glyph glyph-name="uni0433" unicode="&#x433;" 
 />
    <glyph glyph-name="uni0434" unicode="&#x434;" 
 />
    <glyph glyph-name="uni0435" unicode="&#x435;" 
 />
    <glyph glyph-name="uni0436" unicode="&#x436;" 
 />
    <glyph glyph-name="uni0437" unicode="&#x437;" 
 />
    <glyph glyph-name="uni0438" unicode="&#x438;" 
 />
    <glyph glyph-name="uni0439" unicode="&#x439;" 
 />
    <glyph glyph-name="uni043A" unicode="&#x43a;" 
 />
    <glyph glyph-name="uni043B" unicode="&#x43b;" 
 />
    <glyph glyph-name="uni043C" unicode="&#x43c;" 
 />
    <glyph glyph-name="uni043D" unicode="&#x43d;" 
 />
    <glyph glyph-name="uni043E" unicode="&#x43e;" 
 />
    <glyph glyph-name="uni043F" unicode="&#x43f;" 
 />
    <glyph glyph-name="uni0440" unicode="&#x440;" 
 />
    <glyph glyph-name="uni0441" unicode="&#x441;" 
 />
    <glyph glyph-name="uni0442" unicode="&#x442;" 
 />
    <glyph glyph-name="uni0443" unicode="&#x443;" 
 />
    <glyph glyph-name="uni0444" unicode="&#x444;" 
 />
    <glyph glyph-name="uni0445" unicode="&#x445;" 
 />
    <glyph glyph-name="uni0446" unicode="&#x446;" 
 />
    <glyph glyph-name="uni0447" unicode="&#x447;" 
 />
    <glyph glyph-name="uni0448" unicode="&#x448;" 
 />
    <glyph glyph-name="uni0449" unicode="&#x449;" 
 />
    <glyph glyph-name="uni044A" unicode="&#x44a;" 
 />
    <glyph glyph-name="uni044B" unicode="&#x44b;" 
 />
    <glyph glyph-name="uni044C" unicode="&#x44c;" 
 />
    <glyph glyph-name="uni044D" unicode="&#x44d;" 
 />
    <glyph glyph-name="uni044E" unicode="&#x44e;" 
 />
    <glyph glyph-name="uni044F" unicode="&#x44f;" 
 />
    <glyph glyph-name="uni0451" unicode="&#x451;" 
 />
    <glyph glyph-name="uni2005" unicode="&#x2005;" horiz-adv-x="250" 
 />
    <glyph glyph-name="endash" unicode="&#x2013;" horiz-adv-x="494" 
d="M3 398v-36h486v36h-486z" />
    <glyph glyph-name="emdash" unicode="&#x2014;" 
d="M29 373h943v33h-943v-33z" />
    <glyph glyph-name="uni2016" unicode="&#x2016;" horiz-adv-x="865" 
d="M329 869v-969h31v969h-31zM482 869v-969h31v969h-31z" />
    <glyph glyph-name="quoteleft" unicode="&#x2018;" horiz-adv-x="635" 
d="M343 689q47 -9 40 -55q-3 -20 -19 -32t-36 -9h-1q-48 7 -40 63q19 131 140 146q-65 -38 -84 -113z" />
    <glyph glyph-name="quoteright" unicode="&#x2019;" horiz-adv-x="637" 
d="M238 750q0 -7 -1 -10q-19 -131 -140 -146q66 39 85 114q-46 7 -41 55q3 20 19 32q17 12 37 9q2 0 4 -1q30 -6 36 -35q3 -8 1 -18z" />
    <glyph glyph-name="quotedblleft" unicode="&#x201c;" horiz-adv-x="642" 
d="M288 654q19 131 140 146q-66 -37 -85 -113q46 -9 41 -55q-3 -20 -19 -32q-17 -12 -37 -9q-34 5 -40 36q-3 8 -1 19zM488 687q47 -9 40 -55q-3 -20 -19 -32t-36 -9h-1q-48 7 -40 63q21 131 140 146q-65 -38 -84 -113z" />
    <glyph glyph-name="quotedblright" unicode="&#x201d;" horiz-adv-x="647" 
d="M155 797q48 -8 40 -64q-19 -131 -140 -146q66 39 85 114q-20 2 -32 19q-12 16 -9 36t19 32t36 9h1zM300 797q48 -8 40 -64q-21 -131 -140 -146q65 39 84 114q-20 3 -32 19q-11 16 -8 36t19 32t36 9h1z" />
    <glyph glyph-name="bullet" unicode="&#x2022;" 
d="M195 426q16 -17 38 -17q25 0 41 16t16 41q0 20 -17 36q-17 15 -40 15q-21 0 -38 -16q-16 -16 -16 -35q0 -23 16 -40z" />
    <glyph glyph-name="ellipsis" unicode="&#x2026;" horiz-adv-x="870" 
d="M435 409q-31 0 -31 -30q0 -32 30 -32t30 31t-29 31zM699 409q-31 0 -31 -30q0 -32 30 -32q31 0 31 31t-30 31zM169 403q-29 0 -29 -29q0 -33 29 -33q31 0 31 32q0 30 -31 30z" />
    <glyph glyph-name="perthousand" unicode="&#x2030;" horiz-adv-x="783" 
d="M504 707l-500 -684l21 -15l499 683zM40 666q25 32 83 32t83 -31q29 -35 29 -119q0 -85 -28 -120q-25 -32 -84 -32t-84 34q-27 35 -27 118t28 118zM58 446q16 -22 65 -22q48 0 65 24q18 26 18 100q0 72 -18 98q-17 24 -65 24q-47 0 -64 -24q-19 -26 -19 -98q0 -77 18 -102
zM310 286q25 32 83 32t83 -31q29 -35 29 -119q0 -85 -28 -120q-25 -32 -84 -32t-85 34q-26 36 -26 118q0 83 28 118zM571 286q25 32 83 32t83 -31q29 -35 29 -119q0 -85 -28 -120q-25 -32 -84 -32t-84 34q-27 36 -27 118q0 83 28 118zM328 66q16 -22 65 -22q48 0 65 24
q18 26 18 100q0 72 -18 98q-17 24 -65 24q-47 0 -64 -24q-19 -26 -19 -98q0 -77 18 -102zM589 66q16 -22 65 -22q48 0 65 24q18 26 18 100q0 72 -18 98q-17 24 -65 24q-47 0 -64 -24q-19 -26 -19 -98q0 -77 18 -102z" />
    <glyph glyph-name="minute" unicode="&#x2032;" 
 />
    <glyph glyph-name="second" unicode="&#x2033;" 
 />
    <glyph glyph-name="uni203B" unicode="&#x203b;" 
 />
    <glyph glyph-name="Euro" unicode="&#x20ac;" horiz-adv-x="773" 
d="M741 285q-17 -113 -99 -186q-81 -73 -192 -73q-129 0 -217 81q-86 79 -104 210h-105v37h102q-1 9 -1 27q0 26 3 50h-104v37h110q24 117 106 187q85 73 210 73q109 0 187 -66q76 -64 97 -166l-41 -9q-24 97 -96 153q-65 51 -147 51q-105 0 -178 -59q-74 -60 -97 -164h425
v-37h-431q-3 -24 -3 -50q0 -18 1 -27h433v-37h-430q17 -116 92 -182q75 -67 188 -67q87 0 158 60q74 62 94 163z" />
    <glyph glyph-name="uni2103" unicode="&#x2103;" 
 />
    <glyph glyph-name="uni2116" unicode="&#x2116;" 
 />
    <glyph glyph-name="trademark" unicode="&#x2122;" horiz-adv-x="663" 
d="M308 773h-112v-234h-32v234h-106l3 20l-3 11h254zM600 539h-31l-33 228l-67 -203h-24q-5 0 -6 4l-65 203l-32 -233l-20 6l-10 -6l36 266h40q8 0 10 -7l57 -181l59 187h40q10 0 11 -9z" />
    <glyph glyph-name="uni2160" unicode="&#x2160;" 
 />
    <glyph glyph-name="uni2161" unicode="&#x2161;" 
 />
    <glyph glyph-name="uni2162" unicode="&#x2162;" 
 />
    <glyph glyph-name="uni2163" unicode="&#x2163;" 
 />
    <glyph glyph-name="uni2164" unicode="&#x2164;" 
 />
    <glyph glyph-name="uni2165" unicode="&#x2165;" 
 />
    <glyph glyph-name="uni2166" unicode="&#x2166;" 
 />
    <glyph glyph-name="uni2167" unicode="&#x2167;" 
 />
    <glyph glyph-name="uni2168" unicode="&#x2168;" 
 />
    <glyph glyph-name="uni2169" unicode="&#x2169;" 
 />
    <glyph glyph-name="uni216A" unicode="&#x216a;" 
 />
    <glyph glyph-name="uni216B" unicode="&#x216b;" 
 />
    <glyph glyph-name="uni2170" unicode="&#x2170;" 
 />
    <glyph glyph-name="uni2171" unicode="&#x2171;" 
 />
    <glyph glyph-name="uni2172" unicode="&#x2172;" 
 />
    <glyph glyph-name="uni2173" unicode="&#x2173;" 
 />
    <glyph glyph-name="uni2174" unicode="&#x2174;" 
 />
    <glyph glyph-name="uni2175" unicode="&#x2175;" 
 />
    <glyph glyph-name="uni2176" unicode="&#x2176;" 
 />
    <glyph glyph-name="uni2177" unicode="&#x2177;" 
 />
    <glyph glyph-name="uni2178" unicode="&#x2178;" 
 />
    <glyph glyph-name="uni2179" unicode="&#x2179;" 
 />
    <glyph glyph-name="arrowleft" unicode="&#x2190;" 
 />
    <glyph glyph-name="arrowup" unicode="&#x2191;" 
 />
    <glyph glyph-name="arrowright" unicode="&#x2192;" 
 />
    <glyph glyph-name="arrowdown" unicode="&#x2193;" 
 />
    <glyph glyph-name="element" unicode="&#x2208;" 
 />
    <glyph glyph-name="product" unicode="&#x220f;" 
 />
    <glyph glyph-name="summation" unicode="&#x2211;" 
 />
    <glyph glyph-name="radical" unicode="&#x221a;" 
 />
    <glyph glyph-name="proportional" unicode="&#x221d;" 
 />
    <glyph glyph-name="infinity" unicode="&#x221e;" horiz-adv-x="889" 
d="M671 217q86 0 137 47q50 45 50 118q0 77 -50 120q-49 41 -137 41q-128 0 -221 -132q-110 132 -229 132q-83 0 -135 -49q-49 -45 -49 -112q0 -74 50 -119q50 -46 134 -46q116 0 229 132q101 -132 221 -132zM433 381q-108 -132 -218 -132q-66 0 -107 38q-39 37 -39 95
q0 54 44 93q43 38 102 38q109 0 218 -132zM677 512q66 0 107 -35q42 -35 42 -95q0 -57 -39 -94q-41 -39 -110 -39q-107 0 -211 132q95 131 211 131z" />
    <glyph glyph-name="angle" unicode="&#x2220;" 
 />
    <glyph glyph-name="uni2225" unicode="&#x2225;" 
 />
    <glyph glyph-name="logicaland" unicode="&#x2227;" 
 />
    <glyph glyph-name="logicalor" unicode="&#x2228;" 
 />
    <glyph glyph-name="intersection" unicode="&#x2229;" 
 />
    <glyph glyph-name="union" unicode="&#x222a;" 
 />
    <glyph glyph-name="integral" unicode="&#x222b;" 
 />
    <glyph glyph-name="uni222E" unicode="&#x222e;" 
 />
    <glyph glyph-name="therefore" unicode="&#x2234;" 
 />
    <glyph glyph-name="uni2235" unicode="&#x2235;" 
 />
    <glyph glyph-name="uni2236" unicode="&#x2236;" horiz-adv-x="687" 
d="M289 651q-15 -15 -15 -36t15 -36t36 -15t36 15q14 15 14 36t-14 36q-15 14 -36 14t-36 -14zM289 201q-15 -15 -15 -35q0 -22 15 -36q15 -15 36 -15t36 15q14 14 14 36q0 20 -14 35q-15 15 -36 15t-36 -15z" />
    <glyph glyph-name="uni2237" unicode="&#x2237;" 
 />
    <glyph glyph-name="uni223D" unicode="&#x223d;" 
 />
    <glyph glyph-name="approxequal" unicode="&#x2248;" horiz-adv-x="600" 
d="M19 417l33 -10q23 54 54 75q29 19 82 19q37 0 110 -47q74 -48 122 -48q123 0 162 117l-35 9q-20 -55 -51 -75q-27 -18 -77 -18q-37 0 -109 47t-122 47q-120 0 -169 -116zM19 254l33 -9q23 54 54 75q29 19 82 19q36 0 110 -47q73 -48 122 -48q65 0 102 25q39 27 60 91
l-35 9q-21 -55 -51 -75q-26 -17 -77 -17q-37 0 -109 47t-122 47q-120 0 -169 -117z" />
    <glyph glyph-name="uni224C" unicode="&#x224c;" 
 />
    <glyph glyph-name="notequal" unicode="&#x2260;" horiz-adv-x="662" 
d="M354 456l-92 -146h374v-35h-396l-137 -216l-32 17l126 199h-174v35h196l92 146h-288v35h310l128 203l32 -18l-117 -185h260v-35h-282z" />
    <glyph glyph-name="equivalence" unicode="&#x2261;" 
 />
    <glyph glyph-name="lessequal" unicode="&#x2264;" horiz-adv-x="591" 
d="M575 665q-395 -119 -551 -168q-19 -6 -20 -20q-1 -15 20 -21q189 -60 551 -170v31l-516 160l516 157v31zM11 260l564 -174v32l-564 173v-31z" />
    <glyph glyph-name="greaterequal" unicode="&#x2265;" horiz-adv-x="589" 
d="M11 661v-32l515 -156l-515 -160v-31q362 110 551 169q20 7 20 21q-1 15 -20 21q-156 48 -551 168zM575 287l-564 -173v-32l564 173v32z" />
    <glyph glyph-name="uni226E" unicode="&#x226e;" horiz-adv-x="872" 
d="M473 465v-169l241 -74v-31q-110 34 -241 73v-220h-29v229q-105 32 -281 87q-20 7 -19 21q0 15 19 20l281 87v228h29v-219l241 73v-32zM444 456l-245 -75l245 -76v151z" />
    <glyph glyph-name="uni226F" unicode="&#x226f;" horiz-adv-x="872" 
d="M725 381q0 -14 -20 -21l-303 -93v-223h-29v214l-219 -67v31l219 68v181l-219 67v32q100 -30 219 -67v213h29v-222q71 -21 303 -93q19 -5 20 -20zM669 381l-267 81v-163z" />
    <glyph glyph-name="uni2299" unicode="&#x2299;" 
 />
    <glyph glyph-name="perpendicular" unicode="&#x22a5;" 
 />
    <glyph glyph-name="uni2312" unicode="&#x2312;" 
 />
    <glyph glyph-name="uni2460" unicode="&#x2460;" 
 />
    <glyph glyph-name="uni2461" unicode="&#x2461;" 
 />
    <glyph glyph-name="uni2462" unicode="&#x2462;" 
 />
    <glyph glyph-name="uni2463" unicode="&#x2463;" 
 />
    <glyph glyph-name="uni2464" unicode="&#x2464;" 
 />
    <glyph glyph-name="uni2465" unicode="&#x2465;" 
 />
    <glyph glyph-name="uni2466" unicode="&#x2466;" 
 />
    <glyph glyph-name="uni2467" unicode="&#x2467;" 
 />
    <glyph glyph-name="uni2468" unicode="&#x2468;" 
 />
    <glyph glyph-name="uni2469" unicode="&#x2469;" 
 />
    <glyph glyph-name="uni2474" unicode="&#x2474;" 
 />
    <glyph glyph-name="uni2475" unicode="&#x2475;" 
 />
    <glyph glyph-name="uni2476" unicode="&#x2476;" 
 />
    <glyph glyph-name="uni2477" unicode="&#x2477;" 
 />
    <glyph glyph-name="uni2478" unicode="&#x2478;" 
 />
    <glyph glyph-name="uni2479" unicode="&#x2479;" 
 />
    <glyph glyph-name="uni247A" unicode="&#x247a;" 
 />
    <glyph glyph-name="uni247B" unicode="&#x247b;" 
 />
    <glyph glyph-name="uni247C" unicode="&#x247c;" 
 />
    <glyph glyph-name="uni247D" unicode="&#x247d;" 
 />
    <glyph glyph-name="uni247E" unicode="&#x247e;" 
 />
    <glyph glyph-name="uni247F" unicode="&#x247f;" 
 />
    <glyph glyph-name="uni2480" unicode="&#x2480;" 
 />
    <glyph glyph-name="uni2481" unicode="&#x2481;" 
 />
    <glyph glyph-name="uni2482" unicode="&#x2482;" 
 />
    <glyph glyph-name="uni2483" unicode="&#x2483;" 
 />
    <glyph glyph-name="uni2484" unicode="&#x2484;" 
 />
    <glyph glyph-name="uni2485" unicode="&#x2485;" 
 />
    <glyph glyph-name="uni2486" unicode="&#x2486;" 
 />
    <glyph glyph-name="uni2487" unicode="&#x2487;" 
 />
    <glyph glyph-name="uni2488" unicode="&#x2488;" 
 />
    <glyph glyph-name="uni2489" unicode="&#x2489;" 
 />
    <glyph glyph-name="uni248A" unicode="&#x248a;" 
 />
    <glyph glyph-name="uni248B" unicode="&#x248b;" 
 />
    <glyph glyph-name="uni248C" unicode="&#x248c;" 
 />
    <glyph glyph-name="uni248D" unicode="&#x248d;" 
 />
    <glyph glyph-name="uni248E" unicode="&#x248e;" 
 />
    <glyph glyph-name="uni248F" unicode="&#x248f;" 
 />
    <glyph glyph-name="uni2490" unicode="&#x2490;" 
 />
    <glyph glyph-name="uni2491" unicode="&#x2491;" 
 />
    <glyph glyph-name="uni2492" unicode="&#x2492;" 
 />
    <glyph glyph-name="uni2493" unicode="&#x2493;" 
 />
    <glyph glyph-name="uni2494" unicode="&#x2494;" 
 />
    <glyph glyph-name="uni2495" unicode="&#x2495;" 
 />
    <glyph glyph-name="uni2496" unicode="&#x2496;" 
 />
    <glyph glyph-name="uni2497" unicode="&#x2497;" 
 />
    <glyph glyph-name="uni2498" unicode="&#x2498;" 
 />
    <glyph glyph-name="uni2499" unicode="&#x2499;" 
 />
    <glyph glyph-name="uni249A" unicode="&#x249a;" 
 />
    <glyph glyph-name="uni249B" unicode="&#x249b;" 
 />
    <glyph glyph-name="SF100000" unicode="&#x2500;" 
 />
    <glyph glyph-name="uni2501" unicode="&#x2501;" 
 />
    <glyph glyph-name="SF110000" unicode="&#x2502;" 
 />
    <glyph glyph-name="uni2503" unicode="&#x2503;" 
 />
    <glyph glyph-name="uni2504" unicode="&#x2504;" 
 />
    <glyph glyph-name="uni2505" unicode="&#x2505;" 
 />
    <glyph glyph-name="uni2506" unicode="&#x2506;" 
 />
    <glyph glyph-name="uni2507" unicode="&#x2507;" 
 />
    <glyph glyph-name="uni2508" unicode="&#x2508;" 
 />
    <glyph glyph-name="uni2509" unicode="&#x2509;" 
 />
    <glyph glyph-name="uni250A" unicode="&#x250a;" 
 />
    <glyph glyph-name="uni250B" unicode="&#x250b;" 
 />
    <glyph glyph-name="SF010000" unicode="&#x250c;" 
 />
    <glyph glyph-name="uni250D" unicode="&#x250d;" 
 />
    <glyph glyph-name="uni250E" unicode="&#x250e;" 
 />
    <glyph glyph-name="uni250F" unicode="&#x250f;" 
 />
    <glyph glyph-name="SF030000" unicode="&#x2510;" 
 />
    <glyph glyph-name="uni2511" unicode="&#x2511;" 
 />
    <glyph glyph-name="uni2512" unicode="&#x2512;" 
 />
    <glyph glyph-name="uni2513" unicode="&#x2513;" 
 />
    <glyph glyph-name="SF020000" unicode="&#x2514;" 
 />
    <glyph glyph-name="uni2515" unicode="&#x2515;" 
 />
    <glyph glyph-name="uni2516" unicode="&#x2516;" 
 />
    <glyph glyph-name="uni2517" unicode="&#x2517;" 
 />
    <glyph glyph-name="SF040000" unicode="&#x2518;" 
 />
    <glyph glyph-name="uni2519" unicode="&#x2519;" 
 />
    <glyph glyph-name="uni251A" unicode="&#x251a;" 
 />
    <glyph glyph-name="uni251B" unicode="&#x251b;" 
 />
    <glyph glyph-name="SF080000" unicode="&#x251c;" 
 />
    <glyph glyph-name="uni251D" unicode="&#x251d;" 
 />
    <glyph glyph-name="uni251E" unicode="&#x251e;" 
 />
    <glyph glyph-name="uni251F" unicode="&#x251f;" 
 />
    <glyph glyph-name="uni2520" unicode="&#x2520;" 
 />
    <glyph glyph-name="uni2521" unicode="&#x2521;" 
 />
    <glyph glyph-name="uni2522" unicode="&#x2522;" 
 />
    <glyph glyph-name="uni2523" unicode="&#x2523;" 
 />
    <glyph glyph-name="SF090000" unicode="&#x2524;" 
 />
    <glyph glyph-name="uni2525" unicode="&#x2525;" 
 />
    <glyph glyph-name="uni2526" unicode="&#x2526;" 
 />
    <glyph glyph-name="uni2527" unicode="&#x2527;" 
 />
    <glyph glyph-name="uni2528" unicode="&#x2528;" 
 />
    <glyph glyph-name="uni2529" unicode="&#x2529;" 
 />
    <glyph glyph-name="uni252A" unicode="&#x252a;" 
 />
    <glyph glyph-name="uni252B" unicode="&#x252b;" 
 />
    <glyph glyph-name="SF060000" unicode="&#x252c;" 
 />
    <glyph glyph-name="uni252D" unicode="&#x252d;" 
 />
    <glyph glyph-name="uni252E" unicode="&#x252e;" 
 />
    <glyph glyph-name="uni252F" unicode="&#x252f;" 
 />
    <glyph glyph-name="uni2530" unicode="&#x2530;" 
 />
    <glyph glyph-name="uni2531" unicode="&#x2531;" 
 />
    <glyph glyph-name="uni2532" unicode="&#x2532;" 
 />
    <glyph glyph-name="uni2533" unicode="&#x2533;" 
 />
    <glyph glyph-name="SF070000" unicode="&#x2534;" 
 />
    <glyph glyph-name="uni2535" unicode="&#x2535;" 
 />
    <glyph glyph-name="uni2536" unicode="&#x2536;" 
 />
    <glyph glyph-name="uni2537" unicode="&#x2537;" 
 />
    <glyph glyph-name="uni2538" unicode="&#x2538;" 
 />
    <glyph glyph-name="uni2539" unicode="&#x2539;" 
 />
    <glyph glyph-name="uni253A" unicode="&#x253a;" 
 />
    <glyph glyph-name="uni253B" unicode="&#x253b;" 
 />
    <glyph glyph-name="SF050000" unicode="&#x253c;" 
 />
    <glyph glyph-name="uni253D" unicode="&#x253d;" 
 />
    <glyph glyph-name="uni253E" unicode="&#x253e;" 
 />
    <glyph glyph-name="uni253F" unicode="&#x253f;" 
 />
    <glyph glyph-name="uni2540" unicode="&#x2540;" 
 />
    <glyph glyph-name="uni2541" unicode="&#x2541;" 
 />
    <glyph glyph-name="uni2542" unicode="&#x2542;" 
 />
    <glyph glyph-name="uni2543" unicode="&#x2543;" 
 />
    <glyph glyph-name="uni2544" unicode="&#x2544;" 
 />
    <glyph glyph-name="uni2545" unicode="&#x2545;" 
 />
    <glyph glyph-name="uni2546" unicode="&#x2546;" 
 />
    <glyph glyph-name="uni2547" unicode="&#x2547;" 
 />
    <glyph glyph-name="uni2548" unicode="&#x2548;" 
 />
    <glyph glyph-name="uni2549" unicode="&#x2549;" 
 />
    <glyph glyph-name="uni254A" unicode="&#x254a;" 
 />
    <glyph glyph-name="uni254B" unicode="&#x254b;" 
 />
    <glyph glyph-name="filledbox" unicode="&#x25a0;" 
 />
    <glyph glyph-name="H22073" unicode="&#x25a1;" 
 />
    <glyph glyph-name="triagup" unicode="&#x25b2;" 
 />
    <glyph glyph-name="uni25B3" unicode="&#x25b3;" 
 />
    <glyph glyph-name="uni25C6" unicode="&#x25c6;" 
 />
    <glyph glyph-name="uni25C7" unicode="&#x25c7;" 
 />
    <glyph glyph-name="circle" unicode="&#x25cb;" 
 />
    <glyph glyph-name="uni25CE" unicode="&#x25ce;" 
 />
    <glyph glyph-name="H18533" unicode="&#x25cf;" 
 />
    <glyph glyph-name="uni2605" unicode="&#x2605;" 
 />
    <glyph glyph-name="uni2606" unicode="&#x2606;" 
 />
    <glyph glyph-name="female" unicode="&#x2640;" 
 />
    <glyph glyph-name="male" unicode="&#x2642;" 
 />
    <glyph glyph-name="uni3000" unicode="&#x3000;" horiz-adv-x="500" 
 />
    <glyph glyph-name="uni3001" unicode="&#x3001;" horiz-adv-x="638" 
d="M143 206l192 -207l30 30l-195 202z" />
    <glyph glyph-name="uni3002" unicode="&#x3002;" horiz-adv-x="638" 
d="M354 220q-37 36 -89 36q-53 0 -89 -35t-36 -87q0 -54 35 -90q36 -37 89 -37q56 0 93 36q35 36 35 90q0 51 -38 87zM339 61q-29 -30 -74 -30q-41 0 -71 28q-31 29 -31 75q0 38 30 68q30 31 72 31t73 -31q30 -30 30 -69q0 -43 -29 -72z" />
    <glyph glyph-name="uni3003" unicode="&#x3003;" horiz-adv-x="865" 
d="M318 554l12 -326h27l8 326h-47zM454 554l12 -326h26l9 326h-47z" />
    <glyph glyph-name="uni3005" unicode="&#x3005;" 
 />
    <glyph glyph-name="uni3008" unicode="&#x3008;" horiz-adv-x="627" 
d="M485 -41l30 13l-222 415l219 407l-27 12q-203 -380 -213 -400q-10 -19 -3 -33z" />
    <glyph glyph-name="uni3009" unicode="&#x3009;" horiz-adv-x="648" 
d="M201 806l-30 -13l222 -416l-219 -406l27 -12q203 380 213 400q10 19 3 33z" />
    <glyph glyph-name="uni300A" unicode="&#x300a;" horiz-adv-x="679" 
d="M470 -31l30 13l-222 415l219 407l-27 12q-203 -380 -213 -400q-10 -19 -3 -33zM595 -31l31 13l-222 415l219 407l-28 12l-213 -400q-10 -18 -2 -33z" />
    <glyph glyph-name="uni300B" unicode="&#x300b;" horiz-adv-x="693" 
d="M141 816l-31 -13l222 -415l-219 -407l28 -12l213 400q10 18 2 33zM266 816l-30 -13l222 -415l-219 -407l27 -12q203 380 213 400q10 19 3 33z" />
    <glyph glyph-name="uni300C" unicode="&#x300c;" horiz-adv-x="638" 
d="M287 94h30v715h254v29h-284v-744z" />
    <glyph glyph-name="uni300D" unicode="&#x300d;" horiz-adv-x="636" 
d="M383 664h-31v-715h-254v-29h285v744z" />
    <glyph glyph-name="uni300E" unicode="&#x300e;" horiz-adv-x="643" 
d="M598 832v-129h-216v-542h-152v671h368zM576 811h-324v-628h107v541h217v87z" />
    <glyph glyph-name="uni300F" unicode="&#x300f;" horiz-adv-x="648" 
d="M438 613v-672h-368v130h216v542h152zM416 591h-107v-541h-217v-87h324v628z" />
    <glyph glyph-name="uni3010" unicode="&#x3010;" horiz-adv-x="633" 
d="M261 855v-943h308v9q-212 169 -212 462q0 294 212 463v9h-308z" />
    <glyph glyph-name="uni3011" unicode="&#x3011;" horiz-adv-x="648" 
d="M385 855h-308v-9q212 -169 212 -463q0 -293 -212 -462v-9h308v943z" />
    <glyph glyph-name="uni3013" unicode="&#x3013;" 
 />
    <glyph glyph-name="uni3014" unicode="&#x3014;" horiz-adv-x="643" 
d="M543 -79l12 25l-189 114v635l184 115l-13 24l-202 -125v-663z" />
    <glyph glyph-name="uni3015" unicode="&#x3015;" horiz-adv-x="637" 
d="M406 48v663l-202 125l-14 -24l184 -115v-635l-189 -114l14 -25z" />
    <glyph glyph-name="uni3016" unicode="&#x3016;" horiz-adv-x="628" 
d="M589 817q-124 -53 -194 -161q-74 -113 -74 -268t74 -268q70 -108 194 -161v-17h-350v892h350v-17zM529 -36q-231 132 -231 424t231 424h-268v-848h268z" />
    <glyph glyph-name="uni3017" unicode="&#x3017;" horiz-adv-x="636" 
d="M55 -41q125 53 195 161q74 113 74 268t-74 268q-70 108 -195 161v17h351v-892h-351v17zM116 812q230 -131 230 -424t-230 -424h267v848h-267z" />
    <glyph glyph-name="uni3041" unicode="&#x3041;" 
 />
    <glyph glyph-name="uni3042" unicode="&#x3042;" 
 />
    <glyph glyph-name="uni3043" unicode="&#x3043;" 
 />
    <glyph glyph-name="uni3044" unicode="&#x3044;" 
 />
    <glyph glyph-name="uni3045" unicode="&#x3045;" 
 />
    <glyph glyph-name="uni3046" unicode="&#x3046;" 
 />
    <glyph glyph-name="uni3047" unicode="&#x3047;" 
 />
    <glyph glyph-name="uni3048" unicode="&#x3048;" 
 />
    <glyph glyph-name="uni3049" unicode="&#x3049;" 
 />
    <glyph glyph-name="uni304A" unicode="&#x304a;" 
 />
    <glyph glyph-name="uni304B" unicode="&#x304b;" 
 />
    <glyph glyph-name="uni304C" unicode="&#x304c;" 
 />
    <glyph glyph-name="uni304D" unicode="&#x304d;" 
 />
    <glyph glyph-name="uni304E" unicode="&#x304e;" 
 />
    <glyph glyph-name="uni304F" unicode="&#x304f;" 
 />
    <glyph glyph-name="uni3050" unicode="&#x3050;" 
 />
    <glyph glyph-name="uni3051" unicode="&#x3051;" 
 />
    <glyph glyph-name="uni3052" unicode="&#x3052;" 
 />
    <glyph glyph-name="uni3053" unicode="&#x3053;" 
 />
    <glyph glyph-name="uni3054" unicode="&#x3054;" 
 />
    <glyph glyph-name="uni3055" unicode="&#x3055;" 
 />
    <glyph glyph-name="uni3056" unicode="&#x3056;" 
 />
    <glyph glyph-name="uni3057" unicode="&#x3057;" 
 />
    <glyph glyph-name="uni3058" unicode="&#x3058;" 
 />
    <glyph glyph-name="uni3059" unicode="&#x3059;" 
 />
    <glyph glyph-name="uni305A" unicode="&#x305a;" 
 />
    <glyph glyph-name="uni305B" unicode="&#x305b;" 
 />
    <glyph glyph-name="uni305C" unicode="&#x305c;" 
 />
    <glyph glyph-name="uni305D" unicode="&#x305d;" 
 />
    <glyph glyph-name="uni305E" unicode="&#x305e;" 
 />
    <glyph glyph-name="uni305F" unicode="&#x305f;" 
 />
    <glyph glyph-name="uni3060" unicode="&#x3060;" 
 />
    <glyph glyph-name="uni3061" unicode="&#x3061;" 
 />
    <glyph glyph-name="uni3062" unicode="&#x3062;" 
 />
    <glyph glyph-name="uni3063" unicode="&#x3063;" 
 />
    <glyph glyph-name="uni3064" unicode="&#x3064;" 
 />
    <glyph glyph-name="uni3065" unicode="&#x3065;" 
 />
    <glyph glyph-name="uni3066" unicode="&#x3066;" 
 />
    <glyph glyph-name="uni3067" unicode="&#x3067;" 
 />
    <glyph glyph-name="uni3068" unicode="&#x3068;" 
 />
    <glyph glyph-name="uni3069" unicode="&#x3069;" 
 />
    <glyph glyph-name="uni306A" unicode="&#x306a;" 
 />
    <glyph glyph-name="uni306B" unicode="&#x306b;" 
 />
    <glyph glyph-name="uni306C" unicode="&#x306c;" 
 />
    <glyph glyph-name="uni306D" unicode="&#x306d;" 
 />
    <glyph glyph-name="uni306E" unicode="&#x306e;" 
 />
    <glyph glyph-name="uni306F" unicode="&#x306f;" 
 />
    <glyph glyph-name="uni3070" unicode="&#x3070;" 
 />
    <glyph glyph-name="uni3071" unicode="&#x3071;" 
 />
    <glyph glyph-name="uni3072" unicode="&#x3072;" 
 />
    <glyph glyph-name="uni3073" unicode="&#x3073;" 
 />
    <glyph glyph-name="uni3074" unicode="&#x3074;" 
 />
    <glyph glyph-name="uni3075" unicode="&#x3075;" 
 />
    <glyph glyph-name="uni3076" unicode="&#x3076;" 
 />
    <glyph glyph-name="uni3077" unicode="&#x3077;" 
 />
    <glyph glyph-name="uni3078" unicode="&#x3078;" 
 />
    <glyph glyph-name="uni3079" unicode="&#x3079;" 
 />
    <glyph glyph-name="uni307A" unicode="&#x307a;" 
 />
    <glyph glyph-name="uni307B" unicode="&#x307b;" 
 />
    <glyph glyph-name="uni307C" unicode="&#x307c;" 
 />
    <glyph glyph-name="uni307D" unicode="&#x307d;" 
 />
    <glyph glyph-name="uni307E" unicode="&#x307e;" 
 />
    <glyph glyph-name="uni307F" unicode="&#x307f;" 
 />
    <glyph glyph-name="uni3080" unicode="&#x3080;" 
 />
    <glyph glyph-name="uni3081" unicode="&#x3081;" 
 />
    <glyph glyph-name="uni3082" unicode="&#x3082;" 
 />
    <glyph glyph-name="uni3083" unicode="&#x3083;" 
 />
    <glyph glyph-name="uni3084" unicode="&#x3084;" 
 />
    <glyph glyph-name="uni3085" unicode="&#x3085;" 
 />
    <glyph glyph-name="uni3086" unicode="&#x3086;" 
 />
    <glyph glyph-name="uni3087" unicode="&#x3087;" 
 />
    <glyph glyph-name="uni3088" unicode="&#x3088;" 
 />
    <glyph glyph-name="uni3089" unicode="&#x3089;" 
 />
    <glyph glyph-name="uni308A" unicode="&#x308a;" 
 />
    <glyph glyph-name="uni308B" unicode="&#x308b;" 
 />
    <glyph glyph-name="uni308C" unicode="&#x308c;" 
 />
    <glyph glyph-name="uni308D" unicode="&#x308d;" 
 />
    <glyph glyph-name="uni308E" unicode="&#x308e;" 
 />
    <glyph glyph-name="uni308F" unicode="&#x308f;" 
 />
    <glyph glyph-name="uni3090" unicode="&#x3090;" 
 />
    <glyph glyph-name="uni3091" unicode="&#x3091;" 
 />
    <glyph glyph-name="uni3092" unicode="&#x3092;" 
 />
    <glyph glyph-name="uni3093" unicode="&#x3093;" 
 />
    <glyph glyph-name="uni30A1" unicode="&#x30a1;" 
 />
    <glyph glyph-name="uni30A2" unicode="&#x30a2;" 
 />
    <glyph glyph-name="uni30A3" unicode="&#x30a3;" 
 />
    <glyph glyph-name="uni30A4" unicode="&#x30a4;" 
 />
    <glyph glyph-name="uni30A5" unicode="&#x30a5;" 
 />
    <glyph glyph-name="uni30A6" unicode="&#x30a6;" 
 />
    <glyph glyph-name="uni30A7" unicode="&#x30a7;" 
 />
    <glyph glyph-name="uni30A8" unicode="&#x30a8;" 
 />
    <glyph glyph-name="uni30A9" unicode="&#x30a9;" 
 />
    <glyph glyph-name="uni30AA" unicode="&#x30aa;" 
 />
    <glyph glyph-name="uni30AB" unicode="&#x30ab;" 
 />
    <glyph glyph-name="uni30AC" unicode="&#x30ac;" 
 />
    <glyph glyph-name="uni30AD" unicode="&#x30ad;" 
 />
    <glyph glyph-name="uni30AE" unicode="&#x30ae;" 
 />
    <glyph glyph-name="uni30AF" unicode="&#x30af;" 
 />
    <glyph glyph-name="uni30B0" unicode="&#x30b0;" 
 />
    <glyph glyph-name="uni30B1" unicode="&#x30b1;" 
 />
    <glyph glyph-name="uni30B2" unicode="&#x30b2;" 
 />
    <glyph glyph-name="uni30B3" unicode="&#x30b3;" 
 />
    <glyph glyph-name="uni30B4" unicode="&#x30b4;" 
 />
    <glyph glyph-name="uni30B5" unicode="&#x30b5;" 
 />
    <glyph glyph-name="uni30B6" unicode="&#x30b6;" 
 />
    <glyph glyph-name="uni30B7" unicode="&#x30b7;" 
 />
    <glyph glyph-name="uni30B8" unicode="&#x30b8;" 
 />
    <glyph glyph-name="uni30B9" unicode="&#x30b9;" 
 />
    <glyph glyph-name="uni30BA" unicode="&#x30ba;" 
 />
    <glyph glyph-name="uni30BB" unicode="&#x30bb;" 
 />
    <glyph glyph-name="uni30BC" unicode="&#x30bc;" 
 />
    <glyph glyph-name="uni30BD" unicode="&#x30bd;" 
 />
    <glyph glyph-name="uni30BE" unicode="&#x30be;" 
 />
    <glyph glyph-name="uni30BF" unicode="&#x30bf;" 
 />
    <glyph glyph-name="uni30C0" unicode="&#x30c0;" 
 />
    <glyph glyph-name="uni30C1" unicode="&#x30c1;" 
 />
    <glyph glyph-name="uni30C2" unicode="&#x30c2;" 
 />
    <glyph glyph-name="uni30C3" unicode="&#x30c3;" 
 />
    <glyph glyph-name="uni30C4" unicode="&#x30c4;" 
 />
    <glyph glyph-name="uni30C5" unicode="&#x30c5;" 
 />
    <glyph glyph-name="uni30C6" unicode="&#x30c6;" 
 />
    <glyph glyph-name="uni30C7" unicode="&#x30c7;" 
 />
    <glyph glyph-name="uni30C8" unicode="&#x30c8;" 
 />
    <glyph glyph-name="uni30C9" unicode="&#x30c9;" 
 />
    <glyph glyph-name="uni30CA" unicode="&#x30ca;" 
 />
    <glyph glyph-name="uni30CB" unicode="&#x30cb;" 
 />
    <glyph glyph-name="uni30CC" unicode="&#x30cc;" 
 />
    <glyph glyph-name="uni30CD" unicode="&#x30cd;" 
 />
    <glyph glyph-name="uni30CE" unicode="&#x30ce;" 
 />
    <glyph glyph-name="uni30CF" unicode="&#x30cf;" 
 />
    <glyph glyph-name="uni30D0" unicode="&#x30d0;" 
 />
    <glyph glyph-name="uni30D1" unicode="&#x30d1;" 
 />
    <glyph glyph-name="uni30D2" unicode="&#x30d2;" 
 />
    <glyph glyph-name="uni30D3" unicode="&#x30d3;" 
 />
    <glyph glyph-name="uni30D4" unicode="&#x30d4;" 
 />
    <glyph glyph-name="uni30D5" unicode="&#x30d5;" 
 />
    <glyph glyph-name="uni30D6" unicode="&#x30d6;" 
 />
    <glyph glyph-name="uni30D7" unicode="&#x30d7;" 
 />
    <glyph glyph-name="uni30D8" unicode="&#x30d8;" 
 />
    <glyph glyph-name="uni30D9" unicode="&#x30d9;" 
 />
    <glyph glyph-name="uni30DA" unicode="&#x30da;" 
 />
    <glyph glyph-name="uni30DB" unicode="&#x30db;" 
 />
    <glyph glyph-name="uni30DC" unicode="&#x30dc;" 
 />
    <glyph glyph-name="uni30DD" unicode="&#x30dd;" 
 />
    <glyph glyph-name="uni30DE" unicode="&#x30de;" 
 />
    <glyph glyph-name="uni30DF" unicode="&#x30df;" 
 />
    <glyph glyph-name="uni30E0" unicode="&#x30e0;" 
 />
    <glyph glyph-name="uni30E1" unicode="&#x30e1;" 
 />
    <glyph glyph-name="uni30E2" unicode="&#x30e2;" 
 />
    <glyph glyph-name="uni30E3" unicode="&#x30e3;" 
 />
    <glyph glyph-name="uni30E4" unicode="&#x30e4;" 
 />
    <glyph glyph-name="uni30E5" unicode="&#x30e5;" 
 />
    <glyph glyph-name="uni30E6" unicode="&#x30e6;" 
 />
    <glyph glyph-name="uni30E7" unicode="&#x30e7;" 
 />
    <glyph glyph-name="uni30E8" unicode="&#x30e8;" 
 />
    <glyph glyph-name="uni30E9" unicode="&#x30e9;" 
 />
    <glyph glyph-name="uni30EA" unicode="&#x30ea;" 
 />
    <glyph glyph-name="uni30EB" unicode="&#x30eb;" 
 />
    <glyph glyph-name="uni30EC" unicode="&#x30ec;" 
 />
    <glyph glyph-name="uni30ED" unicode="&#x30ed;" 
 />
    <glyph glyph-name="uni30EE" unicode="&#x30ee;" 
 />
    <glyph glyph-name="uni30EF" unicode="&#x30ef;" 
 />
    <glyph glyph-name="uni30F0" unicode="&#x30f0;" 
 />
    <glyph glyph-name="uni30F1" unicode="&#x30f1;" 
 />
    <glyph glyph-name="uni30F2" unicode="&#x30f2;" 
 />
    <glyph glyph-name="uni30F3" unicode="&#x30f3;" 
 />
    <glyph glyph-name="uni30F4" unicode="&#x30f4;" 
 />
    <glyph glyph-name="uni30F5" unicode="&#x30f5;" 
 />
    <glyph glyph-name="uni30F6" unicode="&#x30f6;" 
 />
    <glyph glyph-name="uni3105" unicode="&#x3105;" 
 />
    <glyph glyph-name="uni3106" unicode="&#x3106;" 
 />
    <glyph glyph-name="uni3107" unicode="&#x3107;" 
 />
    <glyph glyph-name="uni3108" unicode="&#x3108;" 
 />
    <glyph glyph-name="uni3109" unicode="&#x3109;" 
 />
    <glyph glyph-name="uni310A" unicode="&#x310a;" 
 />
    <glyph glyph-name="uni310B" unicode="&#x310b;" 
 />
    <glyph glyph-name="uni310C" unicode="&#x310c;" 
 />
    <glyph glyph-name="uni310D" unicode="&#x310d;" 
 />
    <glyph glyph-name="uni310E" unicode="&#x310e;" 
 />
    <glyph glyph-name="uni310F" unicode="&#x310f;" 
 />
    <glyph glyph-name="uni3110" unicode="&#x3110;" 
 />
    <glyph glyph-name="uni3111" unicode="&#x3111;" 
 />
    <glyph glyph-name="uni3112" unicode="&#x3112;" 
 />
    <glyph glyph-name="uni3113" unicode="&#x3113;" 
 />
    <glyph glyph-name="uni3114" unicode="&#x3114;" 
 />
    <glyph glyph-name="uni3115" unicode="&#x3115;" 
 />
    <glyph glyph-name="uni3116" unicode="&#x3116;" 
 />
    <glyph glyph-name="uni3117" unicode="&#x3117;" 
 />
    <glyph glyph-name="uni3118" unicode="&#x3118;" 
 />
    <glyph glyph-name="uni3119" unicode="&#x3119;" 
 />
    <glyph glyph-name="uni311A" unicode="&#x311a;" 
 />
    <glyph glyph-name="uni311B" unicode="&#x311b;" 
 />
    <glyph glyph-name="uni311C" unicode="&#x311c;" 
 />
    <glyph glyph-name="uni311D" unicode="&#x311d;" 
 />
    <glyph glyph-name="uni311E" unicode="&#x311e;" 
 />
    <glyph glyph-name="uni311F" unicode="&#x311f;" 
 />
    <glyph glyph-name="uni3120" unicode="&#x3120;" 
 />
    <glyph glyph-name="uni3121" unicode="&#x3121;" 
 />
    <glyph glyph-name="uni3122" unicode="&#x3122;" 
 />
    <glyph glyph-name="uni3123" unicode="&#x3123;" 
 />
    <glyph glyph-name="uni3124" unicode="&#x3124;" 
 />
    <glyph glyph-name="uni3125" unicode="&#x3125;" 
 />
    <glyph glyph-name="uni3126" unicode="&#x3126;" 
 />
    <glyph glyph-name="uni3127" unicode="&#x3127;" 
 />
    <glyph glyph-name="uni3128" unicode="&#x3128;" 
 />
    <glyph glyph-name="uni3129" unicode="&#x3129;" 
 />
    <glyph glyph-name="uni3220" unicode="&#x3220;" 
 />
    <glyph glyph-name="uni3221" unicode="&#x3221;" 
 />
    <glyph glyph-name="uni3222" unicode="&#x3222;" 
 />
    <glyph glyph-name="uni3223" unicode="&#x3223;" 
 />
    <glyph glyph-name="uni3224" unicode="&#x3224;" 
 />
    <glyph glyph-name="uni3225" unicode="&#x3225;" 
 />
    <glyph glyph-name="uni3226" unicode="&#x3226;" 
 />
    <glyph glyph-name="uni3227" unicode="&#x3227;" 
 />
    <glyph glyph-name="uni3228" unicode="&#x3228;" 
 />
    <glyph glyph-name="uni3229" unicode="&#x3229;" 
 />
    <glyph glyph-name="uni4E00" unicode="&#x4e00;" 
d="M895 379l9 29h-842v-29h833z" />
    <glyph glyph-name="uni4E01" unicode="&#x4e01;" 
d="M916 692l-384 1v-774l-63 41l34 3v730q-295 0 -431 -1l6 19l-7 10h851z" />
    <glyph glyph-name="uni4E03" unicode="&#x4e03;" 
d="M883 0q30 0 51 12l-13 -40h-505q-35 0 -35 32v385l-292 -77l1 19l-7 9l298 77v405q15 -9 28 -9v-388q210 54 428 111l-2 -30q-293 -75 -426 -110v-396h474z" />
    <glyph glyph-name="uni4E07" unicode="&#x4e07;" 
d="M873 708q-130 1 -424 1l-86 -210h340q9 0 8 -10q-8 -115 -47 -596l-40 29l13 1l43 547q-163 2 -329 0q-138 -331 -230 -547l-16 2l-20 -12q184 423 330 796l-166 -1q-108 0 -161 -1l6 20l-7 9h792z" />
    <glyph glyph-name="uni4E08" unicode="&#x4e08;" 
d="M944 -51l-11 -7l-2 -20l-493 387q-119 -181 -261 -387l-16 5l-21 -9q173 255 274 411l-213 167l21 18q122 -96 207 -162q99 153 170 265q-202 0 -542 -2l6 20l-7 9h560l123 199h37l-123 -199h232l-6 -28l-244 1q-70 -114 -181 -284z" />
    <glyph glyph-name="uni4E09" unicode="&#x4e09;" 
d="M155 693q106 1 667 1l5 28h-674l7 -9zM210 379q254 3 571 1l5 28h-578l7 -9zM81 33q371 3 831 1l6 29h-838l7 -10z" />
    <glyph glyph-name="uni4E0A" unicode="&#x4e0a;" 
d="M942 44l-7 -29q-423 2 -862 0l5 20l-6 9h381v721q0 52 -5 77q21 -11 34 -11v-312h362l-3 -28q-176 2 -359 0v-447h460z" />
    <glyph glyph-name="uni4E0B" unicode="&#x4e0b;" 
d="M916 688q-139 1 -450 1v-769h-30v716q0 41 -2 53l-367 -1l6 20l-7 9h856zM925 224l-19 -26l-365 288l19 24z" />
    <glyph glyph-name="uni4E0C" unicode="&#x4e0c;" 
d="M914 685l-245 1v-750h-30v699q0 39 -1 51h-265q-49 -225 -156 -743h-15l-19 -15q94 438 156 758l-246 -1l5 19l-7 10h829z" />
    <glyph glyph-name="uni4E0D" unicode="&#x4e0d;" 
d="M574 724q-58 -70 -87 -104h6v-698h-29v671q-203 -234 -409 -447l-6 12l-17 1q251 266 504 565h-457v29h801l-9 -29h-297zM948 231l-21 -24l-312 276l20 22z" />
    <glyph glyph-name="uni4E0E" unicode="&#x4e0e;" 
d="M831 667q-276 2 -563 0l-21 -233h532q10 0 8 -10q-8 -108 -42 -506l-40 29h14l37 458h-542l36 386q2 33 0 48q22 -7 33 -6l-12 -137h565zM54 204h633l-5 -28q-348 2 -626 -1l5 20z" />
    <glyph glyph-name="uni4E10" unicode="&#x4e10;" 
d="M911 735l-415 1v-183h347l-4 -29q-168 2 -343 0v-195h357q10 0 8 -10q-9 -68 -48 -406l-41 28l16 1l42 358h-680l40 302q3 24 2 38q22 -5 32 -4q-35 -259 -41 -307h283v407l-201 -1q-130 0 -193 -1l5 20l-6 9h847z" />
    <glyph glyph-name="uni4E11" unicode="&#x4e11;" 
d="M938 52l-9 -29h-865v29h310q-1 -22 29 330h-241v29h244q11 115 22 242q3 38 3 51h-257v30h605q10 0 10 -14v-668h149zM462 704l-27 -293h325v293h-298zM433 382l-30 -330h357v330h-327z" />
    <glyph glyph-name="uni4E13" unicode="&#x4e13;" 
d="M926 451q-167 1 -547 1q-36 -135 -43 -157h432q11 0 13 -7t-5 -13q-142 -129 -271 -238q114 -54 228 -109l-23 -26l-459 222l24 24q103 -50 205 -98q193 170 241 216h-393v-1h-29l51 187l-277 -1l5 20l-6 9h286l45 163l-248 -1l5 19l-6 10h256q7 23 23 83q11 40 11 58
q21 -8 33 -6l-37 -135h392l-6 -29q-121 1 -394 1l-45 -163h545z" />
    <glyph glyph-name="uni4E14" unicode="&#x4e14;" 
d="M911 43l-6 -29q-414 2 -844 0l5 19l-6 10h185v655q0 53 -4 71q17 -8 25 -9h449q8 -1 8 -14v-703h188zM693 731q-207 2 -418 0v-207h418v207zM275 291h418v204q-205 2 -418 0v-204zM693 43v219q-205 2 -418 0v-219h418z" />
    <glyph glyph-name="uni4E15" unicode="&#x4e15;" 
d="M457 600q-200 -239 -391 -443l-7 11l-19 -1q255 279 485 564q-311 0 -454 -1l6 19l-7 10h801l-6 -29l-301 1l-86 -106h8v-554h-29v529zM887 268l-22 -22l-261 255l22 21zM77 38h787l-5 -28q-433 2 -781 -1l6 20z" />
    <glyph glyph-name="uni4E16" unicode="&#x4e16;" 
d="M423 197v295h-194v-471h681l-10 -28h-701v498h-162l5 19l-7 10h164v168q0 48 -4 73q22 -11 34 -10v-231h194v238q0 45 -4 60q19 -9 34 -9v-289h241v246q0 46 -4 61q23 -9 34 -8v-299h227l-7 -29q-144 0 -220 1v-295h-301zM453 492v-266h241v266h-241z" />
    <glyph glyph-name="uni4E18" unicode="&#x4e18;" 
d="M933 45l-6 -29q-428 2 -872 0l6 20l-7 9h188v583q0 43 -5 63q14 -7 27 -9l495 149l20 -23l-508 -147v-218h581l-4 -28l-220 1v-371h305zM598 45v346q0 19 -1 25q-122 0 -326 -2v-369h327z" />
    <glyph glyph-name="uni4E19" unicode="&#x4e19;" 
d="M490 743v-176h329v-1h6q8 0 8 -9v-628l-37 28h8v580h-313q-125 -249 -241 -463l-16 3l-20 -11q142 258 243 471h-307v-606h-29v582q0 42 -5 62q16 -7 21 -8h323v176h-361v29h764l-9 -29h-364zM501 385l227 -267l-25 -20l-226 269z" />
    <glyph glyph-name="uni4E1A" unicode="&#x4e1a;" 
d="M889 21l-6 -29q-459 2 -830 -1l5 20l-7 10h293v703q0 50 -5 75q21 -13 35 -11v-767h188v721q0 50 -4 77q21 -12 34 -11v-787h297zM256 187l-193 387l26 15l193 -386zM645 218h-13q120 190 222 371l25 -15q-85 -152 -224 -369z" />
    <glyph glyph-name="uni4E1B" unicode="&#x4e1b;" 
d="M432 68q127 304 297 761l30 -5l-57 -150q-36 -96 -59 -154l3 1l276 -443l-13 -1l-11 -14q-246 400 -265 430q-90 -235 -179 -441l-12 15zM87 66l-11 1q118 302 274 761l30 -5q-36 -101 -103 -295l20 13l174 -245l-26 -17l-171 243q-97 -274 -175 -471zM940 16l-6 -28
q-480 2 -867 -1l6 20l-7 9h874z" />
    <glyph glyph-name="uni4E1C" unicode="&#x4e1c;" 
d="M544 337v-421l-63 45l33 3v373h-321q-20 2 -11 22q42 94 144 294l-248 -1l6 20l-7 9h264q60 118 82 164l33 -6q-50 -104 -77 -158h536l-6 -29q-166 1 -544 1l-144 -287h293v228h30v-228h345l-9 -29h-336zM918 -7l-22 -23l-237 281l21 21zM101 -29q134 157 238 296l23 -20
q-124 -161 -241 -294l-7 16z" />
    <glyph glyph-name="uni4E1D" unicode="&#x4e1d;" 
d="M525 465q-23 0 -12 19q43 71 112 174q82 123 115 174l30 -11q-82 -129 -214 -327h197q69 94 110 154l33 -10q-139 -198 -316 -438h332l-9 -30h-355q-11 0 -15 7q-3 7 3 15q70 102 196 273h-207zM128 458q-22 0 -12 20q41 72 106 173q81 126 109 173l31 -9
q-103 -171 -204 -328h195q78 107 130 180l31 -12q-177 -252 -328 -453h281l-9 -29h-303q-11 0 -15 7q-3 6 3 14q61 91 189 264h-204zM951 28l-6 -29q-488 2 -881 -1l6 20l-7 10h888z" />
    <glyph glyph-name="uni4E1E" unicode="&#x4e1e;" 
d="M503 578q170 118 228 162h-563v29h617q11 0 13 -8q1 -7 -6 -12l-135 -94q-85 -60 -144 -100v-55l8 9q71 -63 118 -106q106 69 241 168l14 -26q-129 -94 -234 -161q128 -113 290 -258l-12 -6l-7 -18l-418 378v-438l-51 42h21v494h20zM94 109q87 108 297 410h-275l3 19
l-3 9h309q19 0 8 -17q-197 -286 -319 -437l-9 12zM73 24h870l-9 -29h-861v29z" />
    <glyph glyph-name="uni4E22" unicode="&#x4e22;" 
d="M920 305q-322 2 -509 1q-101 -138 -219 -290h540l-157 221l26 14l229 -319l-27 -16l-50 71h-594q-10 0 -13 6t2 13q40 57 112 150q75 98 112 150q-214 0 -314 -1l5 20l-7 9h411v178l-324 -1l6 19l-7 10h325v167q0 19 -1 26q-142 -24 -284 -42l-3 15l-8 9q272 37 611 104
l6 -29q-159 -31 -292 -53v-197h333l-5 -29l-328 1v-178h430z" />
    <glyph glyph-name="uni4E24" unicode="&#x4e24;" 
d="M880 734l-258 1v-169h216q8 0 8 -9v-639l-37 29h8v590l-204 1l-53 -214l19 14l175 -219l-26 -19q-163 208 -170 216l-62 -258l-14 1l-20 -15q77 300 118 494h-187q-28 -96 -59 -196l14 11l113 -171l-25 -19l-107 163l-83 -272l-15 1l-19 -14q96 307 149 497l-203 -1v-620
h-30v595q0 42 -4 63q13 -7 26 -9h212v151q0 9 -2 17q-184 0 -270 -1l6 20l-7 10h797zM592 735q-133 0 -200 -1v-168h200v169z" />
    <glyph glyph-name="uni4E25" unicode="&#x4e25;" 
d="M928 378l-6 -28q-412 2 -748 -1q-45 -182 -104 -429l-15 1l-19 -15q71 281 112 472h231v339l-273 -1l6 19l-7 10h765l-6 -29l-259 1v-339h323zM408 378h167v319q0 15 -1 20h-166v-339zM674 438l121 235l28 -9l-126 -234zM282 429l-113 197l26 15l114 -197z" />
    <glyph glyph-name="uni4E27" unicode="&#x4e27;" 
d="M532 122l11 -24l-359 -195l-2 20l-9 9l66 35v403q-63 -1 -183 -1l6 19l-7 10h408v286l-174 -1q-112 0 -167 -1l5 20l-7 9h343v37q0 27 -4 42q19 -7 33 -7v-72h366l-6 -28l-360 1v-286h406l-7 -29q-189 1 -620 1v-386zM581 440q99 112 188 222l19 -24q-87 -109 -190 -221
l-6 19zM348 449l-28 -14l-136 183l28 13zM923 -75l-12 -6l-6 -18l-501 436l17 21l191 -165q106 79 202 158l15 -26q-108 -87 -195 -151z" />
    <glyph glyph-name="uni4E28" unicode="&#x4e28;" 
d="M506 -74v894q-11 -1 -34 12q5 -27 5 -85v-821h29z" />
    <glyph glyph-name="uni4E2A" unicode="&#x4e2a;" 
d="M967 390l-11 -6l-4 -19l-463 370q-203 -208 -416 -402l-3 17l-11 6q259 243 497 491l34 -8l-82 -85zM477 488q0 44 -4 60q19 -9 34 -9v-612h-30v561z" />
    <glyph glyph-name="uni4E2B" unicode="&#x4e2b;" 
d="M854 806q-328 -306 -349 -325v-554h-30v519q0 27 -1 35l-299 306l19 23l301 -305l333 317z" />
    <glyph glyph-name="uni4E2C" unicode="&#x4e2c;" 
d="M613 827v-872h-30v488l-334 -341l-1 27l-10 7l342 343q2 -3 3 -3v279q0 57 -5 83q21 -13 35 -11zM496 482l-215 257l26 15l216 -255z" />
    <glyph glyph-name="uni4E2D" unicode="&#x4e2d;" 
d="M810 624q16 0 15 -15q-3 -132 -7 -362h-319v-335h-30v335h-335l11 380q159 -1 324 -1v119q0 58 -5 87q21 -14 35 -12v-194zM469 277v321h-295v-321h295zM783 598h-284v-321h284v321z" />
    <glyph glyph-name="uni4E30" unicode="&#x4e30;" 
d="M923 194l-402 1v-281h-30v281l-435 -1l5 19l-7 10h437v191l-163 -1q-106 0 -157 -1l5 20l-6 9h321v181q-254 0 -370 -1l6 19l-7 10h371v102q0 64 -5 86q22 -12 35 -11v-177h337l-6 -29l-331 1v-181h309l-6 -28l-303 1v-191h408z" />
    <glyph glyph-name="uni4E32" unicode="&#x4e32;" 
d="M839 103h-337v-194h-29v194h-333l10 249q158 0 323 -1v132h-287l10 224q135 0 277 -1v49q0 59 -5 88q21 -13 34 -12v-125l291 -1q12 0 11 -11q-3 -79 -6 -211h-296v-132l332 -1q12 0 12 -12q-4 -88 -7 -235zM473 512v167h-250v-167h250zM502 679v-167h263v167h-263z
M473 133v191h-295v-191h295zM805 324h-303v-191h303v191z" />
    <glyph glyph-name="uni4E34" unicode="&#x4e34;" 
d="M937 671l-4 -28q-197 2 -403 0q-54 -109 -122 -228l-10 11l-11 3q98 177 212 427l31 -6q-70 -147 -86 -179h393zM297 769q0 59 -5 86q20 -12 35 -12v-903h-30v829zM148 742v-640h-30v586q0 47 -4 63q22 -10 34 -9zM761 413l-26 -18l-163 207l25 17zM877 354
q-3 -127 -6 -354h-443l8 372q358 -2 428 -3q13 0 13 -15zM463 31h172v312h-172v-312zM839 343h-174v-312h174v312z" />
    <glyph glyph-name="uni4E36" unicode="&#x4e36;" 
d="M332 529l296 -317l23 22l-297 315z" />
    <glyph glyph-name="uni4E38" unicode="&#x4e38;" 
d="M904 10q36 0 61 11l-15 -42h-255q-21 0 -28 8q-7 7 -6 29q5 162 13 563h-246l-73 -275l214 -140l-17 -27q-103 67 -205 135l-96 -355h-15l-19 -14q61 224 104 386l-174 114l18 25l165 -108q13 52 34 131q29 107 34 128h-268l5 19l-6 10h276l57 222h34l-60 -222h261
q10 0 9 -10q-4 -107 -14 -588h212z" />
    <glyph glyph-name="uni4E39" unicode="&#x4e39;" 
d="M947 329q-150 0 -230 1v-407l-38 28h8v379h-406l-58 -391h-15l-18 -16q29 199 61 407q-69 -1 -202 -1l5 20l-7 9h208q11 72 60 415h393q9 0 9 -9v-406h237zM687 358v386q-168 2 -344 0l-58 -386h402zM622 448l-24 -21l-202 219l24 19z" />
    <glyph glyph-name="uni4E3A" unicode="&#x4e3a;" 
d="M783 561q10 0 8 -9q-8 -118 -49 -646l-41 29l14 1l46 597q-97 1 -312 1q-127 -272 -290 -606l-16 3l-21 -11q137 276 295 614l-161 -1q-104 0 -155 -1l5 20l-6 9h329q43 91 130 285h35l-132 -285h321zM339 599l-150 182l25 18l151 -182zM512 345l154 -168l-25 -20
l-153 169z" />
    <glyph glyph-name="uni4E3B" unicode="&#x4e3b;" 
d="M508 645l-98 186l28 11l99 -185zM929 33l-6 -28q-477 2 -862 -1l5 20l-7 9h413v292l-322 -1l5 19l-6 10h323v199q0 33 -2 43l-181 -1q-117 0 -174 -1l5 20l-7 9h738l-6 -28l-343 1v-242h339l-6 -29l-333 1v-292h427z" />
    <glyph glyph-name="uni4E3D" unicode="&#x4e3d;" 
d="M943 757l-6 -28q-483 2 -872 -1l6 20l-7 9h879zM843 606q8 0 8 -9v-680l-37 29h8v631q-120 2 -245 0v-646h-30v616q0 42 -4 65q7 -4 14 -6h286zM421 601q7 0 7 -9v-669l-37 29h8v620q-108 2 -220 0v-650h-29v620q0 45 -5 66l16 -7h260zM231 429l138 -209l-25 -19
l-138 209zM626 421l144 -182l-24 -21l-143 183z" />
    <glyph glyph-name="uni4E3E" unicode="&#x4e3e;" 
d="M521 617l-83 225l28 12l84 -224zM643 603l-25 7l155 214l30 -9zM324 614l-113 185l27 15l113 -184zM950 246l-11 -7l-5 -19l-368 333q-102 0 -153 -1q-156 -169 -340 -344l-5 14l-18 1q176 170 323 329q-192 0 -281 -1l5 20l-7 9h820l-6 -28l-297 1zM507 156h362l-6 -29
l-356 1v-212h-30v212l-367 -1l5 19l-7 10h369v151l-199 -1l5 19l-6 9h200v72q0 36 -4 53q21 -9 34 -7v-118h210l-4 -28l-206 1v-151z" />
    <glyph glyph-name="uni4E3F" unicode="&#x4e3f;" 
d="M605 824q-92 -367 -233 -880l19 15l15 -1q34 124 122 454q68 256 111 412h-34z" />
    <glyph glyph-name="uni4E43" unicode="&#x4e43;" 
d="M837 430q9 0 9 -10q-8 -106 -41 -496l-41 29h14q32 397 37 448h-239q23 67 104 325h-267q-258 -667 -303 -781l-16 2l-19 -13q167 418 304 792l-249 -1l5 19l-7 10h556v1h24q14 0 8 -14l-99 -311h220z" />
    <glyph glyph-name="uni4E45" unicode="&#x4e45;" 
d="M956 -51l-13 -5l-6 -18l-439 396q-179 -211 -383 -419l-5 17l-9 6q253 260 586 672q-200 2 -406 0q-87 -135 -192 -284l-10 9l-16 -2q166 242 334 517l33 -6q-86 -138 -131 -206h423q10 0 13 -6t-3 -14q-109 -135 -216 -263q7 -7 440 -394z" />
    <glyph glyph-name="uni4E47" unicode="&#x4e47;" 
d="M909 2q29 0 50 11l-12 -39h-469q-35 0 -35 32v357l-177 -20q-120 -14 -170 -19l2 19l-6 10l351 39v308q-130 -16 -255 -27l-3 15l-8 8q302 33 611 84l6 -30q-192 -30 -323 -46v-309l402 44l-4 -29q-229 -24 -398 -44v-364h438z" />
    <glyph glyph-name="uni4E48" unicode="&#x4e48;" 
d="M501 796q-227 -261 -452 -486l-5 14l-16 3q233 238 451 489zM857 -77q-37 55 -57 86h-628q-14 0 -17 9q-3 7 4 15q257 259 581 616l29 -20q-125 -133 -560 -591h571l-163 244l24 17l242 -357z" />
    <glyph glyph-name="uni4E49" unicode="&#x4e49;" 
d="M521 538l-162 259l28 13l162 -259zM905 -69l-12 -5l-5 -20l-409 410q-185 -214 -363 -403l-8 13l-17 1q174 188 366 411q-151 153 -311 313l22 15l308 -307q146 170 331 397l23 -20q-153 -190 -332 -399z" />
    <glyph glyph-name="uni4E4B" unicode="&#x4e4b;" 
d="M532 629l-113 185l26 15l114 -184zM974 -25l-11 -16l-2 -13q-509 124 -722 180q-75 -69 -170 -160l-23 26q64 63 161 153q20 19 54 10l81 -21q237 213 433 424q-309 2 -628 0l5 19l-6 10h668q10 0 12 -7q3 -7 -3 -14q-219 -233 -452 -440q339 -88 603 -151z" />
    <glyph glyph-name="uni4E4C" unicode="&#x4e4c;" 
d="M829 354q9 0 9 -10q-9 -91 -37 -416l-40 29h14q27 318 32 368h-589l19 346q3 30 -1 43l11 -3h107l66 142l28 -8q-50 -103 -66 -134h314q9 0 9 -11q-7 -79 -24 -305l-39 29h13q15 211 19 258q-199 2 -406 0q-10 -134 -18 -328h579zM53 171h678l-5 -29q-329 2 -671 0l5 19z
" />
    <glyph glyph-name="uni4E4D" unicode="&#x4e4d;" 
d="M923 626q-233 2 -492 0v-179h416l-4 -28q-345 0 -412 -1v-190h437l-4 -28q-238 2 -433 -1v-277h-29v661q0 33 -1 43l-106 -1q-113 -153 -216 -281l-9 11l-17 -2q169 217 356 483l34 -5q-71 -102 -127 -177h612z" />
    <glyph glyph-name="uni4E4E" unicode="&#x4e4e;" 
d="M951 343l-7 -28l-436 1v-393l-52 42l22 3v348l-218 -1q-141 0 -210 -1l6 20l-7 9h429v394q-184 -23 -310 -34l-2 15l-8 9q306 32 625 84l6 -29q-158 -25 -281 -41v-398h443zM625 402l186 278l27 -12l-192 -276zM382 414l-25 -19l-184 233l25 17z" />
    <glyph glyph-name="uni4E4F" unicode="&#x4e4f;" 
d="M182 709l-8 9q293 31 625 85l6 -29q-331 -53 -620 -79zM449 660l28 12l99 -172l-29 -12zM961 -25l-11 -16v-14q-478 101 -674 145q-70 -54 -161 -127l-20 26q75 63 150 119q19 15 39 11q283 191 452 334h-559l3 18l-3 10h612q10 -1 12 -9q2 -9 -6 -15
q-186 -149 -474 -346q359 -80 640 -136z" />
    <glyph glyph-name="uni4E50" unicode="&#x4e50;" 
d="M523 358v-447l-53 41l23 3v403h-274v-1h-30l52 306q5 27 4 38l22 -4l493 126l17 -25l-504 -122q-6 -41 -49 -289h269v262h30v-262h369l-9 -29h-360zM922 -27l-27 -17l-242 320l26 15zM267 223l21 -15l-157 -269l-8 21l-11 3z" />
    <glyph glyph-name="uni4E52" unicode="&#x4e52;" 
d="M930 249l-6 -29q-432 3 -881 0l6 20l-7 9h191v459q0 39 -4 52l18 -6l480 81l8 -28q-444 -69 -472 -74v-188h601l-5 -29l-230 1v-268h301zM599 249v268q-230 0 -336 -1v-267h336zM90 -62q146 111 304 245l15 -27q-176 -148 -306 -243l-3 19z" />
    <glyph glyph-name="uni4E53" unicode="&#x4e53;" 
d="M921 252l-6 -29q-478 2 -863 -1l6 20l-7 10h187v446q0 38 -3 51q13 -6 25 -8q30 7 458 98l9 -28q-427 -84 -459 -91v-175h588l-4 -29l-224 1v-265h293zM599 252v265q-226 0 -331 -1v-264h331zM572 184l275 -243l-23 -21l-276 244z" />
    <glyph glyph-name="uni4E54" unicode="&#x4e54;" 
d="M600 530q56 -44 339 -263l-10 -7l-3 -19q-367 286 -370 289q-131 0 -195 -1q-135 -167 -242 -291l-6 16l-11 5q119 142 221 270q-169 0 -248 -1l5 20l-6 9h271q48 60 154 199q-173 -16 -317 -23l-2 14l-8 9q296 21 597 60l5 -30q-79 -10 -235 -26q-95 -126 -157 -203h502
l-6 -28zM580 321q0 33 -3 44q19 -7 33 -7v-431h-30v394zM214 -73q110 249 174 418h35q-103 -247 -174 -409l-15 3z" />
    <glyph glyph-name="uni4E56" unicode="&#x4e56;" 
d="M514 555v-645h-29v645h-402v29h402v113q0 45 -2 59q-150 -19 -296 -33l-3 15l-8 8q280 30 596 82l6 -30q-150 -24 -264 -38v-176h402l-9 -29h-393zM915 103q25 0 41 10l-12 -39h-265q-34 0 -34 33v175q0 1 -1 1q1 0 1 1v249q12 -8 27 -10v-221q120 79 218 153l14 -27
q-146 -104 -232 -160v-165h243zM323 476q0 29 -4 44q19 -7 33 -7v-422h-29v95l-260 -108v21l-9 9q263 104 269 107v131h-216v29h216v101z" />
    <glyph glyph-name="uni4E58" unicode="&#x4e58;" 
d="M510 269q4 -3 441 -262l-11 -8l-1 -18l-429 256v-328h-30v330q-242 -173 -410 -278l-3 16l-12 6q212 137 425 291v329h-399v29h399v68q0 46 -3 68q-148 -13 -290 -21l-3 15l-7 9q293 21 596 60l6 -30q-189 -22 -276 -30h7v-139h413l-9 -29h-404v-334zM339 370v85h-221v29
h221v50q0 23 -3 36q21 -7 33 -5v-341h-30v115q-22 -11 -241 -131l-1 22l-8 9zM618 570q12 -8 27 -10v-190q97 69 210 156l14 -28q-119 -91 -224 -162v-60h241q23 0 40 9l-12 -38h-262q-34 0 -34 33v290z" />
    <glyph glyph-name="uni4E59" unicode="&#x4e59;" 
d="M850 -7q50 0 95 9l-17 -37h-774q-19 0 -24 13q-4 12 8 27q93 118 277 345q202 247 293 362q-295 2 -595 0l5 19l-6 10h642q21 0 7 -18q-286 -346 -591 -730h680z" />
    <glyph glyph-name="uni4E5C" unicode="&#x4e5c;" 
d="M901 -10q35 0 54 12l-12 -41h-606q-34 0 -34 33v619h-207l5 19l-6 10h208v170q15 -9 28 -9v-161h414q7 -1 7 -12v-494l-76 30l48 4v443h-393v-623h570z" />
    <glyph glyph-name="uni4E5D" unicode="&#x4e5d;" 
d="M902 16q37 0 65 12l-16 -42h-280q-22 0 -29 8q-7 7 -5 29q18 254 40 530h-275q-140 -395 -220 -616l-15 2l-20 -13q126 342 225 627h-301l5 19l-6 10h312l87 255h34l-90 -255h287l1 -1q10 0 9 -9q-18 -248 -42 -556h234z" />
    <glyph glyph-name="uni4E5E" unicode="&#x4e5e;" 
d="M844 652q-270 2 -555 0q-85 -120 -178 -242l-9 11l-16 -2q144 194 294 417l32 -6q-40 -60 -103 -150h540zM850 2q49 0 80 9l-14 -37h-652q-19 0 -22 13q-3 11 9 24q74 83 200 221q128 141 194 215q-207 2 -415 0l5 19l-6 10h467q8 0 10 -6q1 -6 -5 -13
q-232 -249 -416 -455h565z" />
    <glyph glyph-name="uni4E5F" unicode="&#x4e5f;" 
d="M899 -22q36 0 59 13l-13 -41h-718q-34 0 -34 33v613h-96l5 19l-6 10h97v91q14 -9 28 -9v-82h234v128q0 51 -4 69q22 -11 34 -10v-187h262q9 0 9 -12v-444l-69 25l41 5v397h-243v-497h-30v497h-234v-618h678z" />
    <glyph glyph-name="uni4E60" unicode="&#x4e60;" 
d="M775 756q8 0 8 -10v-841l-37 29h8v793q-299 2 -605 0l5 19l-6 10h627zM519 400l-23 -22l-236 232l22 21zM683 433l14 -23l-556 -428l-1 24l-11 7z" />
    <glyph glyph-name="uni4E61" unicode="&#x4e61;" 
d="M925 487q-373 -327 -734 -599l-6 12l-18 2q211 163 418 336h-374q-13 0 -16 8q-2 7 5 14q116 102 218 199h-305q-11 0 -14 7q-3 6 3 13q226 254 302 345l33 -11q-166 -190 -287 -325h298q55 52 252 245l32 -16q-31 -30 -474 -450h362q146 122 285 243z" />
    <glyph glyph-name="uni4E66" unicode="&#x4e66;" 
d="M832 360q11 0 9 -10l-14 -346l-39 29l11 1l12 297q-119 1 -384 1v-406h-30v406l-323 -1l6 19l-7 10h324v245l-132 -1q-86 0 -127 -1l5 20l-7 9h261v131q0 65 -5 87q22 -12 35 -12v-206h294q8 0 8 -8v-264h103zM881 647l-21 -23l-189 161l21 21zM701 360v244q-85 1 -274 1
v-245h274z" />
    <glyph glyph-name="uni4E69" unicode="&#x4e69;" 
d="M303 624h300l-3 -28h-297v-240l195 -2q12 0 12 -14q-3 -125 -5 -346h-404l8 363q77 0 164 -1v427q0 33 -4 49q22 -8 34 -7v-201zM924 -11q27 0 43 10l-12 -39h-273q-34 0 -34 32v834q13 -8 28 -10v-827h248zM473 328h-337v-304h337v304z" />
    <glyph glyph-name="uni4E70" unicode="&#x4e70;" 
d="M157 728l-7 10h713q8 0 10 -5q1 -5 -3 -10q-26 -34 -75 -103q-49 -70 -78 -108l-27 7q72 96 136 190q-334 2 -675 0zM894 287l-6 -28q-141 1 -458 1q-92 -162 -198 -340l-16 3l-20 -10q118 198 202 347l-174 -1q-112 0 -167 -1l6 20l-7 9h357q105 185 215 391h35
q-107 -196 -217 -391h448zM466 490l-161 162l28 14l161 -161zM207 509l190 -152l-23 -21l-190 153zM553 189l313 -274l-24 -22l-312 277z" />
    <glyph glyph-name="uni4E71" unicode="&#x4e71;" 
d="M927 -16q28 0 44 10l-12 -39h-289q-35 0 -35 32v834q13 -8 28 -10v-827h264zM318 525h235l-4 -28h-231v-182q68 -1 156 -1q12 -1 12 -14q-3 -120 -6 -331h-363l8 347q80 -1 164 -1v182l-230 -1l5 19l-6 10h231v198q-124 -28 -170 -37l-2 15l-9 8q204 46 404 102l7 -29
q-67 -18 -201 -52v-205zM449 287h-298v-287h298v287z" />
    <glyph glyph-name="uni4E73" unicode="&#x4e73;" 
d="M99 726l-7 8q190 34 463 98l6 -29q-283 -64 -460 -93zM911 -23q25 0 41 10l-11 -39h-223q-35 0 -35 32v851q13 -8 28 -10v-844h200zM427 503q84 136 130 223l26 -12q-53 -97 -130 -218l-12 10zM304 714l30 7l47 -188l-31 -8zM115 671l27 14l85 -173l-28 -14zM623 232
l-301 -48v-268l-57 40h27v223l-253 -41l1 19l-8 12l260 41v99h20q133 97 190 142q-213 2 -426 0l5 19l-7 10h487q12 0 14 -8q2 -9 -7 -14l-118 -87q-73 -54 -128 -91v-66q149 24 299 47z" />
    <glyph glyph-name="uni4E7E" unicode="&#x4e7e;" 
d="M451 483q89 150 194 361l31 -7q-30 -59 -86 -165h329l-3 -29q-167 2 -342 0q-58 -105 -102 -177l-10 14zM285 144h201l-4 -32l-197 1v-197h-30v197l-208 -1l4 22l-6 10h210v98h-146l7 330q67 0 138 -1v126l-193 -1l4 19l-6 10h195v83q0 21 -4 32q21 -7 33 -5v-110h194
l-4 -29l-190 1v-126h127q11 -1 11 -14q-3 -114 -5 -315h-131v-98zM142 544v-126h243v126h-243zM867 -12q36 0 58 9l-10 -37h-395q-19 0 -23 11q-5 11 6 25q-7 -9 311 437q-145 2 -293 0l5 19l-6 10h333q22 0 9 -17q-192 -253 -328 -457h333zM142 273h243v117h-243v-117z" />
    <glyph glyph-name="uni4E86" unicode="&#x4e86;" 
d="M837 762q11 0 14 -8q2 -9 -5 -15q-192 -163 -333 -277v-539l-67 42h37v509h3q169 141 304 260q-370 2 -664 -1l6 20l-7 9h712z" />
    <glyph glyph-name="uni4E88" unicode="&#x4e88;" 
d="M845 413q11 0 7 -12q-14 -34 -34 -91l-34 -98l-27 4q35 90 59 168l-312 1v-476l-61 35h32v441q-270 0 -394 -1l6 19l-7 10h498l-251 189l22 21l126 -94q140 109 247 197q-266 2 -533 0l5 19l-6 9h582q11 0 13 -8q1 -7 -6 -13l-138 -108q-82 -66 -143 -112q59 -43 119 -88
l-11 -12h241z" />
    <glyph glyph-name="uni4E89" unicode="&#x4e89;" 
d="M940 369q-103 0 -152 -1v-182h-24v-1h-265v-260l-62 46l33 3v211h-307l2 19l-2 9h307v156q-283 0 -413 -1l6 19l-7 10h414v146h29v-146h260v148q-299 2 -537 -1l6 20l-7 9h314q85 99 123 147q-179 2 -359 0q-82 -102 -196 -223l-7 12l-12 6q146 159 277 332l32 -9
l-70 -89h374q8 0 10 -6q1 -5 -3 -10l-135 -160h211q8 0 8 -9v-167h154zM499 213h260v155l-260 1v-156z" />
    <glyph glyph-name="uni4E8B" unicode="&#x4e8b;" 
d="M945 231q-95 0 -140 -1v-140h-19v-1h-286v-178l-64 34l34 4v140h-356l3 19l-3 9h356v113q-289 0 -421 -1l6 20l-7 9h422v102q-129 0 -347 -2l5 20l-6 9h348v89h-269l8 143q127 0 261 -1v88l-362 -1l5 19l-7 10h364v98h30v-98h380l-5 -29l-375 1v-88h277q11 0 9 -9
q-3 -53 -6 -133h-280v-89h297q8 0 8 -8v-120h142zM470 506v86h-233v-86h233zM500 592v-86h248v86h-248zM500 258h277v101l-277 1v-102zM500 117h277v113h-277v-113z" />
    <glyph glyph-name="uni4E8C" unicode="&#x4e8c;" 
d="M197 639q316 2 621 0l5 29h-628l7 -10zM71 80q438 2 858 0l6 29h-865l7 -10z" />
    <glyph glyph-name="uni4E8D" unicode="&#x4e8d;" 
d="M180 726l-6 10h641l-5 -29q-311 2 -635 0zM935 439l-420 1v-526l-66 35l36 5v486l-417 -1l6 19l-7 10h874z" />
    <glyph glyph-name="uni4E8E" unicode="&#x4e8e;" 
d="M924 429l-7 -28l-413 1v-478l-64 46l34 3v429l-209 -1q-135 0 -201 -1l6 20l-7 9h411v312l-157 -1q-102 0 -151 -1l5 20l-6 9h650l-5 -28l-306 1v-312h420z" />
    <glyph glyph-name="uni4E8F" unicode="&#x4e8f;" 
d="M172 752l-6 10h600l-5 -29q-291 2 -594 0zM915 512q-275 2 -581 0l-36 -202h446v-1q11 0 9 -10q-9 -70 -42 -376l-41 29h16q30 279 36 328h-430v-2h-30l40 225q3 10 2 9q-165 0 -242 -1l6 20l-7 10h861z" />
    <glyph glyph-name="uni4E91" unicode="&#x4e91;" 
d="M196 736l-7 10h592l-5 -29q-288 2 -585 0zM941 448q-136 1 -441 1q-137 -187 -288 -381h533l-138 237l25 15l212 -359l-27 -17l-55 95h-575v1h-6q-11 0 -15 7q-3 7 3 14q54 76 145 195q97 128 144 193l-200 -1q-130 0 -193 -1l5 20l-7 9h884z" />
    <glyph glyph-name="uni4E92" unicode="&#x4e92;" 
d="M946 46l-6 -28q-485 2 -876 -1l6 20l-7 9h613q6 59 16 181h-451l62 492q-66 -1 -193 -1l5 19l-6 10h792l-6 -29q-171 1 -562 1l-23 -182h424q10 0 9 -12q-22 -306 -40 -479h243zM695 256q13 144 20 253q-278 0 -409 -1q-29 -223 -32 -252h421z" />
    <glyph glyph-name="uni4E93" unicode="&#x4e93;" 
d="M205 726l-6 10h591l-5 -29q-287 2 -585 0zM926 445l-261 1v-527h-30v489q0 29 -1 38h-240q-32 -88 -90 -244q-63 -170 -97 -264l-15 1l-19 -13q117 310 187 520l-288 -1l6 19l-7 10h861z" />
    <glyph glyph-name="uni4E94" unicode="&#x4e94;" 
d="M943 55l-7 -29q-430 2 -876 0l6 19l-7 10h263q8 40 64 396l-221 -1l5 19l-7 10h228q12 77 30 185q6 37 7 53l-156 -1q-102 0 -151 -1l5 20l-6 9h751l-6 -28q-125 1 -406 1q0 -3 -13 -81l-25 -157h314q8 0 8 -10v-414h200zM714 55v396h-298q-48 -304 -64 -396h362z" />
    <glyph glyph-name="uni4E95" unicode="&#x4e95;" 
d="M940 281l-263 1v-363h-30v363q-215 0 -322 -1q-8 -84 -31 -350l-15 -1l-18 -17l33 368q-154 0 -226 -1l6 20l-7 9h229q21 229 23 258q-67 -1 -194 -1l5 19l-7 10h198q4 40 10 115l10 116h33l-21 -231h294v162q0 58 -5 87q21 -14 35 -12v-237h202l-6 -29q-128 0 -196 1
v-258h269zM647 309v258h-297q-2 -29 -23 -258h320z" />
    <glyph glyph-name="uni4E98" unicode="&#x4e98;" 
d="M115 753l-7 10h742l-5 -29q-361 2 -736 0zM201 599q458 -2 553 -3q15 0 15 -16q-3 -145 -7 -401h-571zM229 570v-163h499v163h-499zM728 209v169q-246 2 -499 0v-169h499zM905 20l-6 -29q-462 2 -835 -1l5 20l-6 10h842z" />
    <glyph glyph-name="uni4E9A" unicode="&#x4e9a;" 
d="M912 57l-6 -29q-408 2 -831 0l6 20l-7 9h298v621q0 39 -2 51l-249 -1l5 19l-7 10h752l-6 -29l-245 1v-672h292zM590 57v622q0 38 -1 50h-187v-672h188zM662 215q106 168 212 356l24 -16q-78 -140 -213 -355l-10 14zM321 207l-29 -13l-174 323l28 12z" />
    <glyph glyph-name="uni4E9B" unicode="&#x4e9b;" 
d="M926 324q25 0 45 10l-12 -38h-348q-34 0 -34 33v510q15 -9 27 -9v-286q134 98 252 195l15 -26q-146 -118 -267 -203v-186h322zM64 234v20l-9 11l117 37v395q0 29 -4 45q19 -7 34 -7v-423q71 22 136 43v420q0 31 -4 47q20 -7 34 -7v-199h169l-9 -29h-160v-223l148 47
l6 -27zM234 198h527l-9 -29h-518v29zM103 7h792l-9 -29h-783v29z" />
    <glyph glyph-name="uni4E9F" unicode="&#x4e9f;" 
d="M160 790h569v1h32q11 0 13 -8t-6 -13q-37 -25 -131 -91q-83 -59 -139 -96v-517l-57 37h27v496h12q164 115 228 163q-306 2 -547 -1l6 20zM352 227h-227l6 354l215 -1q10 -1 10 -15q-2 -121 -4 -338zM595 571h280q17 -2 6 -17l-146 -217l174 -177l-22 -23l-170 174
q-85 -120 -142 -194l-10 11l-12 2q65 84 144 201l-120 123l22 20l116 -117l124 186h-244l2 19zM322 553h-165v-296h165v296zM923 40l-7 -29q-418 2 -853 0l6 19l-7 10h861z" />
    <glyph glyph-name="uni4EA0" unicode="&#x4ea0;" 
d="M415 800l138 -209l28 14l-138 208zM913 496l9 29h-838v-29h829z" />
    <glyph glyph-name="uni4EA1" unicode="&#x4ea1;" 
d="M557 610l-164 207l25 17l164 -206zM922 559q-302 2 -636 0v-514h593l-9 -29h-614v506q0 28 -1 37l-190 -1l5 20l-7 9h866z" />
    <glyph glyph-name="uni4EA2" unicode="&#x4ea2;" 
d="M525 659l-98 173l28 11l99 -172zM889 607q-389 2 -795 0l6 20l-7 9h801zM910 8q42 0 71 17l-20 -48h-303q-22 0 -28 8q-6 7 -6 32v426q-138 2 -280 0l-171 -508l-15 2l-19 -14q125 364 180 548h305v1h22q9 0 9 -10v-454h255z" />
    <glyph glyph-name="uni4EA4" unicode="&#x4ea4;" 
d="M93 663h423l-90 170l26 14l99 -184h352l-6 -29q-393 2 -803 0l5 19zM110 354q148 119 287 244l18 -25q-162 -142 -289 -241l-4 17zM591 576l19 22l278 -219l-20 -24zM942 -59l-11 -7l-2 -19q-234 174 -421 314q-231 -177 -437 -319l-4 15l-14 5q198 140 430 317l-188 140
l20 18q110 -81 190 -141l196 153l17 -24q-124 -98 -188 -147z" />
    <glyph glyph-name="uni4EA5" unicode="&#x4ea5;" 
d="M931 670l-7 -29q-154 1 -502 1q-65 -72 -197 -216h287q126 83 223 148l15 -25q-366 -248 -691 -440l-4 15l-13 5q193 117 426 268h-281q-10 0 -13 6t3 12l204 227l-314 -1l5 20l-7 9h447l-72 161l29 10l78 -171h384zM847 391q-184 -138 -268 -198l328 -244l-22 -23
l-332 248q-210 -151 -397 -273l-4 15l-14 5q296 198 693 495z" />
    <glyph glyph-name="uni4EA6" unicode="&#x4ea6;" 
d="M929 673l-6 -29l-297 1v-725l-64 46l34 3v676h-149q-35 -164 -150 -718l-15 1l-19 -16q96 447 152 733l-340 -1l5 20l-7 9h426l-69 156l28 10l76 -166h395zM290 471l-221 -309l-10 15l-14 2l223 305zM708 456l201 -282l-25 -18l-201 283z" />
    <glyph glyph-name="uni4EA7" unicode="&#x4ea7;" 
d="M882 641h-755v30h379l-44 155l30 8l47 -163h353zM293 610l28 10l98 -198l-29 -11zM928 390l-9 -29h-702l-122 -444l-15 1l-19 -14q80 276 130 487h34v-1h380q79 135 128 228l27 -10q-42 -81 -124 -218h292z" />
    <glyph glyph-name="uni4EA8" unicode="&#x4ea8;" 
d="M918 715l-6 -29q-404 2 -826 0l6 20l-7 9h423l-69 122l30 8l75 -130h374zM756 590q-3 -67 -6 -173h-515l8 184q439 -1 504 -2q11 0 9 -9zM719 573h-449v-126h449v126zM822 305q12 0 14 -10t-7 -14q-200 -89 -331 -146v-225l-61 35h32v216h23q189 83 261 116
q-325 2 -652 0l5 19l-7 10h706v-1h17z" />
    <glyph glyph-name="uni4EA9" unicode="&#x4ea9;" 
d="M912 697l-6 -28q-445 2 -803 -1l5 20l-7 9h424l-80 152l28 11q79 -147 87 -163h352zM790 542q17 0 17 -19q-3 -180 -7 -504h-612l12 527zM228 516v-210h259v180q0 23 -1 30h-258zM765 516h-248v-210h248v210zM765 50v228l-248 1v-229h248zM228 50h259v229l-132 -1
q-85 0 -127 -1v-227z" />
    <glyph glyph-name="uni4EAB" unicode="&#x4eab;" 
d="M103 698h398l-61 108l29 12l68 -120h345l-6 -29q-379 2 -772 0l6 20zM742 583q9 0 9 -9q-3 -62 -6 -157h-523l8 167zM714 556h-457v-110h457v110zM937 134l-6 -29q-138 1 -445 1v-208l-57 35h27v173l-401 -1l5 19l-7 10h403v63q189 82 231 101q-267 2 -536 0l5 19l-6 10
h612q14 0 16 -11t-8 -16q-246 -107 -284 -123v-43h451z" />
    <glyph glyph-name="uni4EAC" unicode="&#x4eac;" 
d="M924 699l-6 -28q-470 2 -849 -1l5 20l-6 9h432l-54 134l29 9q54 -132 59 -143h390zM496 302v-386l-62 39l33 4v343h-247l9 265q456 -1 533 -2q12 0 12 -12q-4 -93 -6 -251h-272zM257 332h478v207h-478v-207zM340 245l18 -20l-270 -262l-4 22l-11 6zM657 242l248 -254
l-23 -21l-248 255z" />
    <glyph glyph-name="uni4EAD" unicode="&#x4ead;" 
d="M129 709h369q-17 29 -61 101l30 9l67 -110h337l-6 -29q-361 2 -735 0l5 19zM730 595q9 0 9 -9q-4 -59 -6 -149h-499l7 159zM702 568h-434v-102h434v102zM865 347q7 0 7 -7v-183h-28v162q-397 2 -719 -1v-162h-30v172q0 17 -3 23l21 -4h752zM204 201h569l-5 -29l-272 1
v-264l-62 40l33 4v220l-261 -1l5 19z" />
    <glyph glyph-name="uni4EAE" unicode="&#x4eae;" 
d="M129 708h368q-6 15 -42 115l31 6q43 -117 44 -121h323l-5 -28q-398 2 -717 -1l5 20zM713 587q10 0 8 -9q-3 -56 -5 -141h-459l7 151zM685 560h-394v-93h394v93zM129 190v139q0 15 -3 20l21 -4h709q7 0 7 -7v-125h-28v104q-373 2 -676 -1v-126h-30zM853 -18q39 0 68 17
l-15 -47h-259q-37 0 -37 28v216q-134 2 -273 0q-84 -150 -161 -267l-15 3l-21 -8q99 154 178 300h310q12 0 12 -12v-230h213z" />
    <glyph glyph-name="uni4EB2" unicode="&#x4eb2;" 
d="M144 715h355q-9 27 -43 119l30 8l47 -127h311l-5 -28q-384 2 -694 -1l5 20zM927 487l-6 -29q-416 2 -849 0l6 20l-7 9h506q71 123 102 187l27 -11q-23 -45 -97 -176h318zM402 503l-27 -16l-97 160l26 14zM854 266l-345 1v-344l-63 45l34 4v295l-352 -1l6 19l-7 10h353
v155h29v-155h351zM366 231l19 -19l-258 -250l-6 20l-12 5zM631 214l250 -221l-21 -23l-250 223z" />
    <glyph glyph-name="uni4EB3" unicode="&#x4eb3;" 
d="M84 730h407q-6 14 -49 102l29 11l54 -110l-8 -3h359l-5 -29q-386 2 -785 0l5 19zM723 619q11 0 9 -9q-3 -53 -6 -133h-507l8 143zM695 592h-441v-85h441v85zM842 245v124q-349 2 -714 0v-126h-29v139q0 12 -3 19l19 -3h726v1h22q7 0 7 -7v-147h-28zM871 -31q29 0 48 10
l-12 -38h-454q-35 0 -35 33v122l-364 -41l2 19l-6 9l368 41v113q-99 -9 -221 -16l-3 15l-7 9q237 17 524 54l5 -30q-149 -18 -270 -29v-113q211 24 422 47l-4 -29l-418 -46v-130h425z" />
    <glyph glyph-name="uni4EB5" unicode="&#x4eb5;" 
d="M90 743h400l-44 86l29 11l50 -97h367l-6 -29q-523 2 -794 0l5 20zM76 425q95 26 189 53v94q-126 0 -183 -1l5 19l-6 10h184v108h30v-108h125l-3 -28h-122v-86q63 17 133 37l5 -27l-138 -39v-195l-60 45l30 3v138l-181 -51v18zM752 307q-21 0 -28 8q-6 7 -6 29v232h-151
l-36 -119l152 -108l-22 -23l-140 99l-39 -131l-15 2l-19 -13q26 82 49 159l-65 47l22 22l53 -37l30 102h-95l5 18l-6 10h104l27 101h34l-31 -101h164q10 0 10 -10v-258h84q24 0 40 8l-11 -37h-110zM899 -48l-11 -6l-5 -18l-428 343l16 21l179 -142l127 104l22 -19
q-110 -87 -128 -102zM546 96l11 -24l-287 -155l-3 19l-9 8q41 22 63 33v199q-119 -77 -262 -164l-3 16l-12 7q260 162 371 238l32 -15q-31 -21 -93 -61v-202z" />
    <glyph glyph-name="uni4EBA" unicode="&#x4eba;" 
d="M951 -27l-13 -4l-8 -16l-492 568q-162 -293 -327 -571l-16 3l-21 -9q287 487 501 893h36q-101 -187 -159 -291q7 -9 499 -573z" />
    <glyph glyph-name="uni4EBB" unicode="&#x4ebb;" 
d="M494 828q-90 -122 -160 -211h4v-698h-29v667q-115 -144 -255 -303l-5 17l-10 7q191 221 426 533z" />
    <glyph glyph-name="uni4EBF" unicode="&#x4ebf;" 
d="M245 554v-631h-30v578q0 41 -2 54q-95 -138 -163 -233l-6 21l-8 6q144 203 319 478l27 -12q-95 -148 -166 -254q20 -8 29 -7zM853 1q44 0 78 8l-14 -36h-540q-18 0 -23 11t5 26q78 115 456 686q-223 2 -453 0l5 19l-6 10h497q7 0 10 -5q2 -5 -3 -11q-255 -356 -475 -708
h463z" />
    <glyph glyph-name="uni4EC0" unicode="&#x4ec0;" 
d="M932 456l-5 -28l-289 1v-510h-30v510l-143 -1q-92 0 -137 -1l5 20l-6 9h281v301q0 64 -5 86q22 -12 35 -11v-376h294zM260 569v-644h-30v627q-85 -117 -180 -239l-6 18l-9 6q152 198 349 492l28 -11q-74 -113 -169 -247q11 -3 17 -2z" />
    <glyph glyph-name="uni4EC1" unicode="&#x4ec1;" 
d="M266 596v-672h-30v641q-88 -122 -168 -225l-5 20l-9 6q148 194 338 476l28 -12q-100 -146 -162 -234h8zM894 633q-242 2 -494 0l5 19l-7 10h500zM957 80l-5 -28q-337 2 -608 -1l5 20l-6 9h614z" />
    <glyph glyph-name="uni4EC2" unicode="&#x4ec2;" 
d="M850 586q8 0 8 -9q-6 -145 -33 -667l-40 29h11l32 619h-212q-81 -305 -167 -623h-15l-19 -14q106 388 170 637q-112 0 -164 -1l5 19l-7 10h174l63 246h34q-40 -143 -66 -246h226zM410 815q-81 -121 -154 -223h11v-672h-29v646q-95 -132 -179 -240l-6 19l-8 6
q155 205 338 476z" />
    <glyph glyph-name="uni4EC3" unicode="&#x4ec3;" 
d="M240 599v-672h-30v645q-58 -85 -152 -216l-6 19l-9 6q137 192 309 463l28 -12q-100 -154 -152 -232q4 -1 12 -1zM945 724l-5 -29q-92 1 -298 1v-777l-63 45l33 3v729l-253 -1l6 19l-7 10h587z" />
    <glyph glyph-name="uni4EC4" unicode="&#x4ec4;" 
d="M928 751l-5 -29q-328 2 -671 0l-142 -789h-14l-19 -16q98 538 147 834h704zM672 706q-204 -493 -324 -773l-16 2l-20 -12q180 414 325 783h35zM563 365l356 -420l-13 -3l-9 -16l-354 423z" />
    <glyph glyph-name="uni4EC5" unicode="&#x4ec5;" 
d="M255 622v-690h-30v659q-94 -130 -176 -237l-5 21l-8 7q135 177 327 460l27 -13l-143 -207h8zM953 -39l-12 -4l-8 -18l-292 390q-122 -193 -263 -391l-13 9l-12 1q124 174 268 408q-96 127 -201 268l24 13q102 -136 193 -256l97 159q67 111 100 164h-407l3 19l-3 9h439
q19 0 9 -19q-124 -210 -218 -359z" />
    <glyph glyph-name="uni4EC6" unicode="&#x4ec6;" 
d="M559 759q0 64 -5 86q22 -12 35 -12v-907h-30v833zM392 832l-151 -219q5 -1 13 -1v-667h-30v644q-84 -117 -172 -231l-6 19l-8 6q138 182 327 461zM938 296l-19 -25l-315 249l20 23z" />
    <glyph glyph-name="uni4EC7" unicode="&#x4ec7;" 
d="M900 7q35 0 55 10l-14 -41h-211q-21 0 -27 8q-7 7 -7 29v530h-185q-90 -500 -108 -604h-15l-19 -16q81 441 111 620h-158l5 19l-6 10h164l45 263h34l-48 -263h205q6 -1 6 -10v-555h173zM242 597v-672h-29v645q-77 -113 -152 -217l-6 20l-9 6q127 176 299 447l28 -11
q-78 -123 -142 -217q4 -1 11 -1z" />
    <glyph glyph-name="uni4EC9" unicode="&#x4ec9;" 
d="M259 625v-699h-30v665q-82 -116 -175 -234l-5 19l-9 7q148 194 338 476l28 -12q-101 -149 -153 -222h6zM909 7q36 0 62 15l-19 -47h-192q-22 0 -29 9q-6 7 -6 32v714q-113 2 -230 0q-17 -181 -70 -788l-15 -1l-18 -18q36 396 73 836h289v-1q3 -3 3 -9v-742h152z" />
    <glyph glyph-name="uni4ECA" unicode="&#x4eca;" 
d="M499 761l469 -391l-12 -5l-6 -18l-470 395q-199 -196 -423 -395l-4 14l-17 2q285 259 502 479l34 -8zM595 376l-26 -19l-150 183l25 17zM763 304q10 0 12 -6q2 -5 -3 -12q-199 -272 -283 -376l-19 16q145 186 256 349q-267 2 -539 0l5 19l-7 10h578z" />
    <glyph glyph-name="uni4ECB" unicode="&#x4ecb;" 
d="M967 398l-11 -6l-4 -19l-474 358q-193 -211 -409 -421l-4 13l-17 2q258 258 486 513l34 -7l-36 -40q-24 -26 -36 -40q20 -14 471 -353zM609 447q0 37 -4 57q18 -9 33 -9v-567h-29v519zM207 -77q92 369 135 567h33q-42 -166 -134 -552h-15z" />
    <glyph glyph-name="uni4ECD" unicode="&#x4ecd;" 
d="M251 608v-677h-29v620q0 24 -1 32q-75 -114 -162 -234l-6 21l-8 6q128 181 309 463l27 -12q-110 -169 -143 -218q5 -1 13 -1zM868 429q9 0 8 -10q-8 -106 -41 -496l-40 29l13 1l37 446h-194q50 129 121 327h-238q-20 -130 -55 -370l-62 -416l-14 -1l-19 -16
q70 458 118 803l-126 -1l5 19l-6 10h425q15 0 9 -14q-13 -32 -115 -312h154v1h20z" />
    <glyph glyph-name="uni4ECE" unicode="&#x4ece;" 
d="M628 498q5 -9 334 -540h-13l-11 -15l-321 521q-108 -340 -185 -555l-13 13l-12 -1q127 363 295 913l29 -5zM441 189l-172 298q-97 -302 -182 -540l-14 11l-11 -3q130 372 280 866l30 -6l-95 -302l7 5l182 -309z" />
    <glyph glyph-name="uni4ED1" unicode="&#x4ed1;" 
d="M953 450l-11 -7l-3 -18q-449 319 -469 334q-196 -208 -408 -410l-3 16l-13 5q259 252 481 493l35 -6q-48 -52 -73 -78q35 -24 464 -329zM813 14q31 0 51 10l-12 -39h-526q-34 0 -34 33v191l-1 1q1 0 1 1v284q15 -9 27 -9v-262q168 85 416 224l11 -27q-290 -160 -427 -227
v-180h494z" />
    <glyph glyph-name="uni4ED3" unicode="&#x4ed3;" 
d="M930 416l-11 -6l-4 -19q-433 344 -446 355q-203 -199 -409 -382l-5 12l-19 2q263 239 487 464l35 -8l-70 -69zM835 -17q32 0 52 11l-12 -40h-574q-34 0 -34 34v476q15 -7 19 -8h368q8 -2 7 -10l-16 -305l-39 29h11q12 210 14 257h-337v-444h541z" />
    <glyph glyph-name="uni4ED4" unicode="&#x4ed4;" 
d="M411 816q-92 -136 -167 -242h7v-658h-29v627q-67 -93 -162 -216l-6 19l-8 6q155 205 338 476zM957 386l-5 -28h-317v-449l-59 40h30v409q-173 0 -253 -1l5 20l-6 9h254v120h1q144 140 218 221q-208 2 -419 0l5 19l-6 10h464q9 0 11 -6q2 -7 -4 -12q-130 -135 -241 -240
v-112h322z" />
    <glyph glyph-name="uni4ED5" unicode="&#x4ed5;" 
d="M664 39h288l-4 -29q-278 2 -567 0l5 19l-6 10h254v410l-257 -1l5 19l-6 10h258v282q0 52 -5 76q22 -11 35 -10v-348h289l-4 -28h-285v-410zM272 577q5 -1 14 -1v-658h-30v635q-104 -154 -190 -272l-6 20l-8 8q163 230 350 523l27 -12z" />
    <glyph glyph-name="uni4ED6" unicode="&#x4ed6;" 
d="M359 819q-111 -183 -133 -218h6v-680h-29v644q-86 -136 -147 -225l-7 20l-9 5q130 197 291 465zM912 -21q31 0 51 12l-12 -40h-518q-35 0 -35 33v615h-90l5 19l-6 9h91v72q15 -9 28 -9v-63h182v114q0 47 -5 68q22 -10 34 -9v-173h179q11 0 11 -11v-478l-64 35l36 3v423
h-162v-503h-29v503h-182v-620h486z" />
    <glyph glyph-name="uni4ED7" unicode="&#x4ed7;" 
d="M289 591v-667h-29v611q0 32 -1 42q-87 -141 -189 -290l-7 19l-9 7q156 233 329 526l28 -11q-101 -169 -141 -234q12 -4 19 -3zM601 315l351 -352l-11 -6l-5 -21l-346 351q-32 -83 -126 -321l-16 2l-20 -13q86 215 140 354l-160 163l22 15l149 -150l95 251q-188 0 -275 -1
l5 19l-6 10h287l80 218h35q-28 -74 -84 -218h218l-4 -29l-224 1z" />
    <glyph glyph-name="uni4ED8" unicode="&#x4ed8;" 
d="M256 577v-654h-29v630q-63 -99 -150 -226l-8 16l-10 6q137 203 310 496l30 -9q-71 -121 -156 -258q5 -1 13 -1zM933 567l-224 1v-645l-63 45l33 3v597q-218 0 -318 -1l5 19l-6 9h319v239h30v-239h228zM417 445l184 -244l-27 -15l-184 245z" />
    <glyph glyph-name="uni4ED9" unicode="&#x4ed9;" 
d="M861 25h-17v-1h-453v540q0 39 -4 59q21 -10 33 -9v-561h197v716q0 52 -5 77q21 -11 34 -11v-782h185v516q0 44 -4 59q19 -9 34 -9v-594zM244 596v-667h-30v636q-69 -102 -147 -209l-6 19l-9 6q137 192 309 463l28 -11q-112 -174 -154 -237h9z" />
    <glyph glyph-name="uni4EDD" unicode="&#x4edd;" 
d="M482 745q35 -27 462 -366l-12 -5l-5 -18q-443 353 -463 370q-185 -198 -396 -396l-5 12l-19 1q233 225 471 481l34 -6zM499 -10h369l-6 -28q-417 2 -753 -1l5 20l-6 9h361v375l-116 -1q-75 0 -112 -1l5 20l-6 9h504l-4 -28l-241 1v-375z" />
    <glyph glyph-name="uni4EDE" unicode="&#x4ede;" 
d="M263 610v-686h-29v656q-90 -133 -170 -244l-6 21l-8 7q153 217 319 477l27 -12l-142 -219h9zM875 726q8 0 8 -9q-7 -142 -45 -796l-40 28l12 1l42 748l-166 1l-178 -746h-15l-19 -15q107 434 180 761q-169 0 -247 -1l5 19l-6 9h469zM507 522l-93 -248l-11 17l-11 2
l92 240z" />
    <glyph glyph-name="uni4EDF" unicode="&#x4edf;" 
d="M245 580v-645h-29v616q-73 -108 -151 -216l-6 21l-8 6q155 221 319 478l27 -12q-153 -237 -161 -248h9zM947 368l-301 1v-433h-29v433l-283 -1l6 19l-7 10h284v272q0 42 -2 55q-114 -29 -223 -50l-3 14l-9 9q201 44 478 119l7 -29q-146 -38 -219 -56v-334h306z" />
    <glyph glyph-name="uni4EE1" unicode="&#x4ee1;" 
d="M943 676l-4 -29q-219 2 -450 0q-62 -105 -123 -199l-8 15l-11 4q96 150 217 374l30 -8q-43 -78 -89 -157h438zM275 615v-685h-29v628q0 30 -1 40q-93 -149 -184 -284l-6 21l-8 7q133 200 309 494l27 -11q-89 -148 -126 -207q11 -4 18 -3zM859 -2q34 0 65 9l-11 -37h-482
q-19 0 -22 12q-4 12 8 25q19 21 353 414q-180 2 -360 0l5 19l-6 9h408q10 0 12 -6t-4 -12q-215 -232 -375 -433h409z" />
    <glyph glyph-name="uni4EE3" unicode="&#x4ee3;" 
d="M904 -38q27 0 51 12l-25 -47h-252q-34 0 -38 34q-14 114 -36 276l-30 234l-237 -34l1 20l-6 9l239 33q-28 214 -44 342h27q7 0 7 -6q17 -117 46 -331q141 19 283 39l-1 -29q-142 -18 -278 -38q53 -384 69 -514h224zM388 826q-105 -164 -145 -224h7v-680h-30v645
q-75 -111 -164 -233l-6 19l-8 7q140 196 319 478zM810 592l-154 170l27 15l154 -168z" />
    <glyph glyph-name="uni4EE4" unicode="&#x4ee4;" 
d="M504 786q37 -30 459 -382l-11 -6l-5 -19l-463 389q-198 -181 -432 -374l-5 12l-18 3q295 249 504 445l34 -10zM590 410l-27 -16l-158 181l26 16zM758 354q10 0 12 -7q3 -8 -3 -14q-46 -49 -137 -148q-88 -95 -141 -151q74 -49 151 -99l-21 -25l-354 234l21 22l180 -118
q182 197 252 277q-315 2 -564 -1l5 20l-7 9h579v1h27z" />
    <glyph glyph-name="uni4EE5" unicode="&#x4ee5;" 
d="M930 -55l-312 332q-87 -194 -158 -348l-15 2l-21 -12q217 467 396 895h35l-223 -506l323 -343zM187 108q96 73 200 151l16 -21l-335 -258l-4 20l-12 6l105 79v621q0 46 -5 68q22 -11 35 -10v-656zM503 517l-155 208l25 16l155 -207z" />
    <glyph glyph-name="uni4EE8" unicode="&#x4ee8;" 
d="M235 583v-658h-30v629q-62 -90 -142 -201l-6 18l-9 6q131 183 308 463l29 -11q-113 -176 -161 -246h11zM863 665q-238 2 -485 0l5 19l-6 9h490zM842 371q-221 2 -449 0l5 19l-7 9h455zM920 53l-4 -28q-327 2 -590 -1l5 20l-6 9h595z" />
    <glyph glyph-name="uni4EEA" unicode="&#x4eea;" 
d="M248 583v-663h-30v644q-81 -113 -171 -230l-5 21l-8 7q135 177 327 460l27 -12q-118 -171 -156 -225q11 -3 16 -2zM638 552l-107 237l29 10l107 -236zM922 -74l-12 -3l-8 -19l-280 395q-134 -198 -256 -365l-11 8l-17 -3q115 160 266 385l-229 324l24 12
q113 -159 222 -311q88 132 246 376l27 -13q-128 -202 -255 -389q141 -197 283 -397z" />
    <glyph glyph-name="uni4EEB" unicode="&#x4eeb;" 
d="M393 827q-123 -178 -152 -219q5 -2 13 -2v-681h-29v624q0 27 -1 36q-85 -121 -172 -233l-5 21l-8 6q156 208 327 461zM681 811q-132 -210 -340 -501l-8 13l-15 -1q179 253 338 505zM891 -60l-42 72h-465q-13 0 -16 8q-4 7 2 15q76 106 213 283q140 181 215 285l30 -16
q-150 -203 -414 -546h419q-54 92 -122 210l25 15l182 -309z" />
    <glyph glyph-name="uni4EEC" unicode="&#x4eec;" 
d="M379 831q-54 -84 -150 -230h9v-676h-30v645q-76 -113 -151 -215l-6 19l-9 6q137 192 309 463zM432 812l143 -182l-25 -18l-143 183zM858 755q8 0 8 -9v-831l-38 29h8v782q-124 2 -252 0l5 19l-6 10h275zM419 635v-708h-29v648q0 48 -5 69q22 -10 34 -9z" />
    <glyph glyph-name="uni4EF0" unicode="&#x4ef0;" 
d="M202 559v-636h-30v612q-59 -87 -123 -176l-6 21l-8 6q134 190 288 432l27 -12q-97 -151 -161 -246q5 -1 13 -1zM517 276l18 -19l-227 -198l-7 18l-12 5l61 52v487q0 36 -4 53l13 -5l208 138l25 -17l-212 -135v-496zM846 737q8 0 8 -9v-648l-38 28h8v601q-98 2 -199 0
v-792h-29v749q0 53 -5 78l15 -7h240z" />
    <glyph glyph-name="uni4EF2" unicode="&#x4ef2;" 
d="M408 824q-126 -195 -152 -234q5 -1 14 -1v-672h-30v615q0 25 -1 33q-82 -123 -174 -248l-6 19l-9 6q150 209 330 494zM889 233h-218v-316h-30v316h-228l9 387q107 0 219 -1v188q0 16 -3 26q19 -5 32 -5v-209l212 -1q13 -1 13 -16q-3 -133 -6 -369zM450 263h191v328h-191
v-328zM856 591h-185v-328h185v328z" />
    <glyph glyph-name="uni4EF3" unicode="&#x4ef3;" 
d="M362 816q-88 -145 -143 -234h5v-671h-30v632q-59 -92 -125 -190l-7 19l-9 5q89 135 137 213v2q1 0 1 -1q86 138 143 236zM927 -30q28 0 43 10l-11 -39h-290q-34 0 -34 32v851q12 -8 27 -10v-420q106 111 232 258l19 -24q-125 -146 -251 -272v-386h265zM420 10l170 97
l12 -22l-273 -160l-3 18l-10 8l71 40v821h33v-352h173l-3 -29q-81 2 -170 0v-421z" />
    <glyph glyph-name="uni4EF5" unicode="&#x4ef5;" 
d="M951 320l-287 1v-387h-29v387l-297 -1l5 19l-6 10h298v250q0 40 -2 52l-123 -1q-55 -103 -116 -207l-12 9l-14 -3q99 176 211 401l32 -5q-50 -100 -86 -166h385l-4 -29q-74 1 -242 1v-302h292zM373 837q-84 -131 -141 -215q4 -1 10 -1v-680h-30v650q-69 -103 -161 -231
l-6 20l-8 7q127 179 309 462z" />
    <glyph glyph-name="uni4EF6" unicode="&#x4ef6;" 
d="M944 250l-270 1v-332h-30v332q-230 0 -335 -1l5 19l-6 10h336v277l-195 -1q-44 -93 -108 -218l-13 9l-14 -4q92 183 196 419l31 -5l-39 -86q-23 -53 -39 -86h181v168q0 60 -5 87q21 -14 35 -12v-243h227l-4 -29l-223 1v-277h275zM360 827l-139 -227q3 -1 8 -1v-680h-30
v646q-62 -99 -142 -218l-6 21l-9 6q126 190 291 464z" />
    <glyph glyph-name="uni4EF7" unicode="&#x4ef7;" 
d="M957 433l-12 -6l-6 -19l-345 312q-121 -169 -272 -360l-9 12h-15q159 204 342 465l34 -6q-42 -60 -64 -89zM382 824q-88 -139 -157 -242q5 -1 12 -1v-662h-30v635q-85 -123 -146 -206l-7 17l-9 6q140 195 309 463zM373 -84q89 349 135 567h34q-67 -270 -135 -553l-15 1z
M750 469v-536h-29v490q0 35 -4 54q22 -9 33 -8z" />
    <glyph glyph-name="uni4EFB" unicode="&#x4efb;" 
d="M244 563v-644h-30v611q-63 -92 -145 -204l-7 16l-10 6q139 193 330 494l29 -10q-97 -154 -175 -269h8zM937 372l-301 1v-345h272l-5 -29q-275 2 -562 0l5 19l-6 10h267v345l-287 -1l5 19l-6 10h288v258q0 35 -1 46q-121 -29 -228 -50l-2 15l-8 8q236 52 507 126l7 -29
q-106 -28 -246 -63v-311h306z" />
    <glyph glyph-name="uni4EFD" unicode="&#x4efd;" 
d="M381 838q-79 -131 -142 -233h7v-676h-30v640q-68 -109 -148 -226l-7 20l-8 5q137 206 300 480zM959 371l-14 -2l-10 -15l-306 437l24 12zM603 783q-153 -260 -282 -446l-8 15l-10 5q127 188 270 434zM773 404q9 0 9 -9l-27 -467l-39 29h12q21 367 23 418h-158
q-65 -158 -172 -407l-16 3l-20 -12q102 229 175 416l-148 -1l5 19l-6 10h342v1h20z" />
    <glyph glyph-name="uni4EFF" unicode="&#x4eff;" 
d="M404 830q-111 -171 -157 -239q13 -5 23 -5v-662h-29v607q0 36 -2 47q-74 -110 -168 -241l-5 21l-8 6q137 194 318 478zM960 599q-116 1 -378 1q-7 -31 -45 -184h288q8 0 8 -9q-7 -122 -31 -487l-40 29l12 1l28 438q-184 0 -272 -1l-109 -457l-15 1l-19 -15
q114 463 162 684l-201 -1l5 19l-7 10h325l-79 195l29 9l82 -198l-18 -6h280z" />
    <glyph glyph-name="uni4F01" unicode="&#x4f01;" 
d="M490 771l459 -325l-10 -8l-2 -20l-467 334q-216 -203 -411 -369l-4 12l-19 2q291 255 487 448l35 -9zM508 16h376l-6 -29q-384 2 -785 0l6 20l-7 9h157v384q0 30 -4 45q20 -7 34 -7v-422h199v506q0 37 -4 56q21 -9 34 -8v-237h248l-3 -29q-118 2 -245 0v-288z" />
    <glyph glyph-name="uni4F09" unicode="&#x4f09;" 
d="M402 841q-79 -124 -158 -244q3 -1 8 -1v-676h-29v645q-75 -112 -163 -231l-6 19l-9 6q141 197 329 494zM616 655l-90 186l28 10l92 -185zM881 625q-299 2 -539 -1l5 20l-7 9h546zM905 -17q37 0 63 16l-20 -47h-207q-22 0 -29 8q-6 8 -6 32v459q-135 0 -199 -1
q-48 -215 -109 -508h-15l-19 -15q76 339 115 552h249q10 0 10 -10v-486h167z" />
    <glyph glyph-name="uni4F0A" unicode="&#x4f0a;" 
d="M241 593v-672h-30v652q-95 -138 -163 -233l-6 21l-8 7q143 200 319 477l27 -12q-77 -121 -155 -238q11 -3 16 -2zM926 519l-2 -29q-48 2 -101 0v-234h-29v1h-279l-56 -314h-15l-18 -16q11 58 31 171q19 107 29 159h-148l3 19l-3 9h153l36 206l-208 -1l5 19l-6 10h214
l33 201l-185 -1l5 19l-6 9h435q9 0 9 -10v-218h103zM581 619q-14 -69 -19 -100h232v200q-61 1 -195 1q-6 -36 -18 -101zM794 285v205q-73 1 -237 1l-37 -206h274z" />
    <glyph glyph-name="uni4F0D" unicode="&#x4f0d;" 
d="M217 601q5 -1 13 -1v-659h-29v603q0 26 -1 34q-70 -98 -149 -201l-5 21l-8 7q136 179 316 445l27 -13zM950 52l-6 -29q-318 2 -648 0l5 19l-7 10h181q1 19 33 369l-166 -1l5 19l-7 10h170q9 95 19 212q3 35 3 49l-185 -1l5 19l-6 10h559l-5 -29q-103 1 -336 1l-24 -261
h268q9 0 9 -10v-387h133zM788 52v368q-78 1 -251 1q-34 -386 -33 -369h284z" />
    <glyph glyph-name="uni4F0E" unicode="&#x4f0e;" 
d="M927 -46l-11 -6l-3 -20l-292 254q-111 -120 -245 -251l-9 12l-12 4q139 136 245 252q-83 73 -180 157l21 18l178 -154q71 77 178 203h-444l2 19l-2 9h246v205q-153 0 -223 -1l5 19l-6 10h224v118q0 31 -3 41q20 -8 33 -6v-153h223l-5 -28h-218v-205h196v-1h8q10 0 12 -6
q3 -6 -3 -14q-129 -148 -202 -228zM253 601v-667h-29v640q-76 -121 -158 -242l-6 21l-8 6q120 180 300 480l27 -11q-72 -119 -138 -226q5 -1 12 -1z" />
    <glyph glyph-name="uni4F0F" unicode="&#x4f0f;" 
d="M927 492q-110 1 -360 1q-47 -196 -132 -558h-15l-20 -15q88 364 137 573l-172 -1l5 19l-7 10h181l71 311h34l-75 -311h358zM256 590v-667h-30v638q-78 -108 -167 -223l-5 19l-9 6q144 188 327 461l28 -12l-153 -222h9zM865 569l-160 169l26 16l161 -168zM973 -56l-12 -2
l-10 -16l-368 482l21 16z" />
    <glyph glyph-name="uni4F10" unicode="&#x4f10;" 
d="M927 -52q30 0 52 12l-26 -47h-264q-35 0 -39 35l-29 229q-125 -121 -251 -234l-3 16l-14 5q106 98 263 249l-37 284q-58 -9 -202 -34l1 20l-7 8l205 34l-42 319h27q7 0 8 -6q31 -226 43 -307l298 49l-1 -29q-103 -16 -293 -48l19 -139q10 -77 16 -116q130 128 214 216
l20 -23q-101 -106 -229 -230q26 -192 35 -263h236zM283 605v-677h-30v641q-73 -109 -179 -256l-6 19l-9 6q141 197 329 494l28 -12l-139 -215h6zM807 622l-164 140l23 19l165 -139z" />
    <glyph glyph-name="uni4F11" unicode="&#x4f11;" 
d="M644 572q21 -31 324 -467l-12 -1l-11 -15q-275 398 -313 454v-623h-30v646q-133 -251 -286 -504l-11 10l-14 -1q137 231 279 501l-240 -1l5 19l-6 10h273v165q0 59 -5 88q22 -13 35 -12v-241h297l-5 -29zM245 597v-681h-30v653q-81 -112 -161 -216l-5 21l-8 7
q145 191 327 460l27 -13l-83 -120q-48 -70 -77 -111h10z" />
    <glyph glyph-name="uni4F17" unicode="&#x4f17;" 
d="M918 438q-442 309 -454 318q-188 -185 -395 -370l-4 15l-15 4q262 238 467 446l35 -8q-46 -46 -69 -68q18 -13 449 -312l-11 -7zM430 97q-150 201 -153 206q-81 -177 -176 -364l-12 13h-11q117 237 261 563l31 -5l-91 -202l21 14l156 -207zM609 299l314 -363l-11 -5
l-7 -18q-298 349 -308 360q-88 -216 -151 -358l-11 15l-10 2q114 266 231 577l32 -4l-82 -210z" />
    <glyph glyph-name="uni4F18" unicode="&#x4f18;" 
d="M235 587v-658h-29v603q0 29 -1 38q-79 -118 -155 -222l-6 21l-8 6q143 202 309 462l27 -12q-79 -123 -154 -236q11 -3 17 -2zM918 0q23 0 42 10l-12 -38h-283q-35 0 -35 32v530h-118l-124 -597h-14l-19 -15q85 398 127 612q-58 -1 -168 -1l5 20l-7 9h176l54 272h34
q-24 -110 -58 -272h385l-4 -28h-241v-534h260zM790 611l-133 170l27 14l134 -170z" />
    <glyph glyph-name="uni4F19" unicode="&#x4f19;" 
d="M250 604v-672h-30v640q-97 -134 -163 -219l-5 20l-8 7q156 208 327 461l27 -13q-93 -136 -155 -224h7zM949 -46l-13 -3l-10 -15l-354 487l-143 -480l-15 1l-20 -14q153 497 268 911h34l-118 -398l8 6zM687 397q115 147 208 282l21 -22q-93 -133 -211 -282l-7 18zM472 370
l-140 261l26 15l141 -260z" />
    <glyph glyph-name="uni4F1A" unicode="&#x4f1a;" 
d="M976 402l-11 -6l-4 -18l-474 377q-194 -191 -415 -387l-4 12l-19 2q263 239 487 464l34 -8l-64 -64zM711 445q-373 0 -444 -1l5 19l-6 10h449zM101 278h792l-6 -28q-135 1 -438 1q-81 -97 -207 -245h526l-146 173l27 15l215 -255l-26 -16q-30 36 -46 54h-587q-10 0 -13 7
q-3 6 2 12q27 33 107 126q64 75 107 128q-209 0 -306 -1l6 20z" />
    <glyph glyph-name="uni4F1B" unicode="&#x4f1b;" 
d="M377 828l-142 -218q4 -1 11 -1v-690h-29v663q-71 -107 -162 -232l-5 21l-8 6q137 194 308 463zM916 717q-232 2 -479 0v-693h474l-9 -29h-495v686q0 54 -4 73q5 -3 18 -8h500zM492 64q66 104 182 297l-165 245l26 16l157 -231q97 163 163 281l24 -17q-63 -114 -169 -290
l186 -274l-26 -19l-178 263q-71 -118 -179 -287l-9 15z" />
    <glyph glyph-name="uni4F1E" unicode="&#x4f1e;" 
d="M960 475l-10 -7l-3 -19l-460 309q-211 -190 -411 -355l-4 12l-19 2q276 234 487 432l35 -10q-46 -42 -68 -63zM508 199h407l-6 -29l-401 1v-244h-30v244l-386 -1l5 19l-7 10h388v348q0 43 -4 66q22 -10 34 -9v-405zM759 462q-76 -98 -169 -204l-9 15h-15q104 122 169 207
zM413 267l-26 -18l-163 208l24 17z" />
    <glyph glyph-name="uni4F1F" unicode="&#x4f1f;" 
d="M856 326q10 0 9 -10l-14 -325l-38 29h10l12 278q-74 1 -236 1v-400h-29v400l-249 -1l5 19l-6 10h250v153l-211 -1l5 19l-7 10h213v143l-216 -1l5 19l-6 10h217v78q0 60 -5 89q23 -13 34 -12v-155h267l-4 -28h-263v-143h240l-4 -29l-236 1v-153h257v-1zM248 575v-649h-30
v616q-69 -110 -148 -226l-6 21l-8 6q133 200 300 479l27 -11q-52 -86 -144 -236h9z" />
    <glyph glyph-name="uni4F20" unicode="&#x4f20;" 
d="M936 438q-127 1 -418 1l-41 -150h383q9 0 11 -5q1 -6 -4 -12q-91 -112 -217 -249q73 -44 151 -92l-20 -26l-368 227l21 23l193 -118q144 162 192 223h-350v-1h-30l49 180q-61 -1 -178 -1l5 19l-6 9h187q18 70 41 151l-187 -1l5 19l-7 10h197q12 47 34 126q11 41 12 60
q17 -9 32 -7l-49 -179h301l-4 -29q-93 1 -304 1l-42 -151h416zM247 562v-649h-30v625q-70 -104 -157 -223l-6 19l-9 6q131 183 320 478l27 -11q-79 -124 -158 -244q5 -1 13 -1z" />
    <glyph glyph-name="uni4F22" unicode="&#x4f22;" 
d="M256 608v-681h-29v648q-61 -99 -153 -233l-7 19l-9 6q130 193 300 480l28 -11l-138 -228h8zM959 398h-177v-475l-60 39l31 4v419q-191 -189 -427 -387l-4 15l-11 7q249 215 411 378h-312q-20 0 -13 18q18 56 48 136q37 97 50 133l31 -5q-49 -138 -93 -253h320v302
q-257 0 -374 -1l5 20l-6 9h568l-5 -28h-159v-302h186z" />
    <glyph glyph-name="uni4F24" unicode="&#x4f24;" 
d="M383 837q-115 -191 -136 -224q3 -1 10 -1v-680h-30v649q-85 -135 -157 -239l-6 19l-9 6q127 190 300 480zM947 673l-4 -28q-208 2 -425 0q-53 -90 -109 -176l-9 15l-10 4q87 137 208 359l30 -8q-49 -89 -94 -166h413zM857 423q9 0 8 -10q-6 -124 -32 -496l-39 29h12
l29 448q-76 1 -246 1q-80 -208 -170 -432l-15 2l-20 -12q99 241 175 442l-182 -1l5 19l-6 10h194q32 84 63 171h34l-67 -171h257z" />
    <glyph glyph-name="uni4F25" unicode="&#x4f25;" 
d="M258 584v-667h-30v635q-83 -123 -163 -232l-6 19l-9 7q160 223 329 493l28 -11q-124 -194 -158 -244h9zM487 -16l197 103l10 -24l-288 -157l-1 21l-9 9q39 21 58 30v405h-122v29h122v426h33v-426h435l-9 -29h-426v-387zM556 460l-11 6q162 151 315 314l18 -25
q-163 -172 -318 -313zM948 -39l-13 -3l-9 -15l-317 396l21 16z" />
    <glyph glyph-name="uni4F26" unicode="&#x4f26;" 
d="M389 849q-74 -125 -148 -243q3 -1 9 -1v-676h-30v643q-61 -99 -153 -233l-7 19l-9 6q136 204 310 495zM959 460l-12 -5l-7 -18q-330 298 -347 312q-110 -160 -254 -349l-9 11l-16 -2q157 212 318 450l33 -6l-56 -81zM894 0q27 0 48 11l-12 -39h-429q-35 0 -35 33v493
q17 -9 28 -9v-262q150 104 303 222l15 -26q-173 -132 -318 -229v-194h400z" />
    <glyph glyph-name="uni4F27" unicode="&#x4f27;" 
d="M952 446l-11 -6l-4 -20q-335 290 -358 309q-145 -191 -260 -329l-8 13h-15q165 204 330 431l34 -6l-64 -87zM236 607v-681h-30v654q-66 -103 -148 -219l-10 9l-13 3q122 175 291 467l33 -5q-73 -128 -136 -227q5 -1 13 -1zM886 -16q29 0 48 10l-12 -38h-460q-35 0 -35 33
v476l15 -7h302q10 0 10 -10l-3 -305l-38 29h9q2 210 3 257h-270v-445h431z" />
    <glyph glyph-name="uni4F2A" unicode="&#x4f2a;" 
d="M855 551q9 0 8 -10q-6 -134 -38 -636l-40 29h13l34 588q-76 1 -245 1q-76 -309 -144 -594l-15 1l-19 -15q94 377 144 608l-188 -1l5 19l-6 9h199q7 25 64 255q6 23 6 35q18 -6 32 -4l-71 -286h240v1h21zM257 596v-681h-30v650q-74 -111 -173 -246l-6 19l-9 6
q121 168 320 478l27 -11q-101 -158 -139 -215h10zM369 740l28 13l111 -158l-29 -14zM626 382l138 -196l-28 -14l-137 196z" />
    <glyph glyph-name="uni4F2B" unicode="&#x4f2b;" 
d="M254 582v-668h-30v638q-61 -97 -149 -228l-7 20l-8 7q133 200 300 479l27 -11q-124 -205 -144 -237h11zM641 632l-98 185l28 11l99 -185zM388 596q0 16 -3 25q22 -5 33 -4v-1h459q7 0 7 -7v-183h-28v161q-213 2 -438 0v-179h-30v188zM936 50l-5 -28q-333 2 -603 -1l5 20
l-6 9h609z" />
    <glyph glyph-name="uni4F2F" unicode="&#x4f2f;" 
d="M397 854q-73 -107 -165 -239h11v-681h-30v655q-90 -125 -168 -224l-5 19l-9 6q155 205 338 476zM850 639q-3 -217 -6 -622h-428l10 649q53 0 121 -1l88 191l30 -7l-91 -184q228 -2 258 -3q18 -1 18 -23zM454 635v-267h355v267h-355zM809 48v292q-241 0 -355 -1v-291h355z
" />
    <glyph glyph-name="uni4F30" unicode="&#x4f30;" 
d="M645 605v-248q82 -1 190 -1q12 -1 12 -15q-3 -128 -6 -354h-427l8 371q94 -1 193 -1v248l-259 -1l5 19l-7 10h261v160q0 34 -4 51q18 -8 34 -8v-203h291l-4 -28h-287zM400 831q-118 -171 -156 -225q6 -2 15 -2v-685h-30v628q0 28 -1 37q-60 -87 -169 -229l-5 21l-8 7
q145 191 327 460zM809 329h-359v-312h359v312z" />
    <glyph glyph-name="uni4F32" unicode="&#x4f32;" 
d="M247 605v-685h-30v658q-81 -113 -171 -230l-5 20l-8 7q146 193 327 461l27 -13q-108 -157 -151 -218h11zM439 498q-17 -200 -50 -573l-15 -1l-18 -18q39 427 76 867h388q8 0 8 -8v-267h-389zM452 636l-10 -109h357v217q-165 2 -337 0q-4 -38 -10 -108zM923 -16
q28 0 45 10l-12 -38h-363q-34 0 -34 33v442q15 -9 28 -9v-217q160 118 279 215l15 -26q-161 -129 -294 -224v-186h336z" />
    <glyph glyph-name="uni4F34" unicode="&#x4f34;" 
d="M957 212l-310 1v-291h-30v291l-327 -1l5 19l-6 10h328v215l-139 -1q-90 0 -134 -1l5 20l-6 9h274v272q0 59 -5 86q20 -12 35 -12v-346h278l-5 -28l-273 1v-215h315zM241 587v-649h-29v621q-83 -122 -148 -210l-6 19l-9 6q137 192 309 463l28 -12q-71 -111 -155 -238h10z
M737 535l-11 3q83 129 153 252l23 -19q-58 -103 -156 -253zM383 755l28 12l138 -221l-29 -13z" />
    <glyph glyph-name="uni4F36" unicode="&#x4f36;" 
d="M243 599v-676h-30v645q-60 -95 -149 -225l-8 16l-10 6q133 196 301 480l29 -9q-87 -147 -144 -237h11zM946 439l-12 -6l-6 -19l-358 325q-136 -175 -266 -325l-8 11h-16q177 212 331 416l33 -6q-38 -50 -58 -75zM681 393l-27 -16l-153 169l26 16zM814 341q21 0 8 -17
q-141 -164 -241 -271l168 -102l-21 -26l-355 219l21 24l165 -101q147 165 213 245q-227 2 -457 0l5 19l-6 10h500z" />
    <glyph glyph-name="uni4F38" unicode="&#x4f38;" 
d="M877 184h-227v-268h-29v268h-228l10 461q106 -1 218 -1v171q0 15 -3 25q15 -5 32 -5v-191l218 -2q15 0 15 -17q-3 -157 -6 -441zM378 816l-142 -218q5 -2 14 -2v-676h-30v653q-81 -120 -164 -235l-6 21l-8 6q145 206 309 463zM430 616v-176h191v176h-191zM843 616h-192
v-176h192v176zM430 215h191v197q-130 0 -191 -1v-196zM843 215v196q-60 1 -192 1v-197h192z" />
    <glyph glyph-name="uni4F3A" unicode="&#x4f3a;" 
d="M244 597q10 -2 14 -1v-681h-30v658q-76 -111 -144 -205l-6 19l-9 6q121 170 309 463l27 -11zM855 770q8 0 8 -10q-1 -188 -7 -850l-38 29h9q5 748 6 802q-232 2 -469 0l5 19l-6 10h492zM353 585h427l-4 -29q-207 2 -422 0l5 19zM679 424q10 -1 9 -13l-5 -267h-291l7 281z
M653 397h-228v-223h228v223z" />
    <glyph glyph-name="uni4F3C" unicode="&#x4f3c;" 
d="M230 593v-672h-30v637q-67 -115 -139 -229l-7 21l-9 5q122 196 272 466l28 -10l-125 -218h10zM902 -66l-220 275l-87 -292l-15 1l-20 -14q142 462 255 864h34q-29 -94 -163 -545l15 11l226 -281zM644 499l-155 234l25 16l156 -233zM585 233l-268 -195l-4 21l-10 7l81 57
v512q0 37 -4 56q22 -9 33 -8v-539q76 54 158 111z" />
    <glyph glyph-name="uni4F3D" unicode="&#x4f3d;" 
d="M215 604v-672h-30v634q-51 -93 -120 -210l-9 18l-9 5q116 199 254 468l29 -8l-124 -235h9zM565 626q8 0 8 -9q-3 -171 -17 -688l-38 29h9l16 639q-39 1 -125 1q-23 -186 -78 -657l-15 -1l-18 -17q38 317 80 675l-94 -1l5 19l-6 10h98l24 210h33l-13 -105q-8 -70 -13 -105
h144zM880 669q-2 -203 -4 -590h-211l7 614q152 -1 195 -2q14 -1 13 -22zM844 665h-145v-555h145v555z" />
    <glyph glyph-name="uni4F43" unicode="&#x4f43;" 
d="M393 853q-86 -134 -155 -240h7v-681h-30v648q-75 -111 -143 -204l-6 19l-9 6q137 192 309 463zM868 709l-6 -669h-468l11 697q344 -2 445 -4q18 -1 18 -24zM433 707v-298h189v254q0 34 -1 44h-188zM827 707h-176v-298h176v298zM827 71v310h-176v-310h176zM433 71h189v310
q-129 0 -189 -1v-309z" />
    <glyph glyph-name="uni4F46" unicode="&#x4f46;" 
d="M361 831q-87 -135 -137 -209q5 -1 12 -1v-699h-29v674q-98 -144 -158 -227l-6 21l-8 6q117 164 299 447zM829 202h-411l9 550q315 -2 393 -3q15 -1 15 -20zM455 722v-229h341v229h-341zM796 233v231q-169 2 -341 0v-231h341zM953 36l-6 -29q-319 2 -653 0l5 19l-6 10h660
z" />
    <glyph glyph-name="uni4F4D" unicode="&#x4f4d;" 
d="M239 563v-644h-30v619q-64 -97 -156 -223l-6 20l-8 7q147 206 329 493l27 -12q-106 -165 -169 -259q5 -1 13 -1zM630 611l-94 211l28 10l96 -211zM925 568q-293 2 -598 0l5 19l-7 10h605zM964 51l-6 -28q-374 2 -675 -1l5 20l-7 9h367q103 254 176 464l27 -13
q-64 -184 -175 -451h288zM386 483l28 9l150 -402l-30 -10z" />
    <glyph glyph-name="uni4F4E" unicode="&#x4f4e;" 
d="M230 595v-667h-29v638q-71 -111 -143 -218l-6 21l-8 6q132 199 290 464l28 -11l-143 -233h11zM917 -13q26 0 43 10l-22 -45h-191q-31 0 -35 31l-31 259q-19 153 -26 216q-158 0 -232 -1v-390q85 55 177 116l12 -23l-294 -201l-2 23l-10 8l85 56v695h27q34 7 414 91
l24 -30l-203 -42q19 -148 36 -274h222l-5 -29l-214 1q46 -354 59 -471h166zM652 486l-32 268l-197 -41v-227h229zM564 61l88 -120l-27 -17l-87 121z" />
    <glyph glyph-name="uni4F4F" unicode="&#x4f4f;" 
d="M247 589v-658h-29v603q0 25 -1 33q-72 -108 -158 -227l-5 21l-9 6q144 203 319 478l27 -12q-86 -135 -158 -243q11 -2 14 -1zM634 648l-76 187l29 9l77 -186zM950 28l-5 -28q-347 2 -626 -1l5 20l-7 9h286v301l-228 -1l5 19l-6 10h229v206q0 28 -1 37l-239 -1l6 19l-7 9
h541l-4 -28q-82 1 -266 1v-243h231l-4 -29l-227 1v-301h317z" />
    <glyph glyph-name="uni4F50" unicode="&#x4f50;" 
d="M231 584v-668h-29v641q-73 -106 -138 -196l-5 21l-8 6q135 191 298 447l27 -12q-91 -141 -156 -238q4 -1 11 -1zM581 605q-133 -263 -263 -494l-12 10l-13 -2q123 224 255 486l-226 -1l5 20l-6 9h241l51 101q34 67 50 100l30 -7l-98 -194h331l-5 -28h-340zM942 23l-4 -28
q-309 2 -558 -1l5 20l-6 9h260v321l-172 -1l5 19l-6 9h426l-4 -28q-67 1 -219 1v-321h273z" />
    <glyph glyph-name="uni4F51" unicode="&#x4f51;" 
d="M958 652l-6 -29q-113 1 -368 1q-130 -238 -249 -438l-11 12l-14 -2q124 211 240 428l-255 -1l5 19l-7 10h273l102 193l31 -7q-66 -124 -100 -186h359zM212 590q10 -3 16 -2v-667h-30v611q0 28 -1 37q-75 -104 -151 -203l-5 21l-8 6q132 176 316 445l27 -12zM852 381
q-3 -144 -5 -402h-380l9 420q300 -1 364 -2q12 -1 12 -16zM815 370h-312v-360h312v360z" />
    <glyph glyph-name="uni4F53" unicode="&#x4f53;" 
d="M649 584l299 -447l-12 -3l-9 -18l-308 466q2 1 2 2h-22v-398h188l-3 -28l-185 1v-253h-29v253l-167 -1l5 19l-6 9h168v398h-5q-105 -179 -298 -469l-11 8l-14 1q153 232 289 460l-242 -1l5 19l-7 10h283v148q0 59 -5 88q23 -13 34 -12v-224h321l-5 -29zM207 593v-681h-30
v647q-61 -97 -130 -197l-7 19l-9 5q126 188 281 450l28 -11l-142 -232h9z" />
    <glyph glyph-name="uni4F55" unicode="&#x4f55;" 
d="M237 614v-694h-29v661q-84 -124 -157 -224l-6 19l-9 6q137 192 309 463l28 -12q-117 -180 -143 -219h7zM933 716h-108v-802l-61 45l32 3v755q-311 0 -453 -1l5 19l-6 10h595zM644 531q-2 -122 -4 -339h-251l6 355q200 -1 239 -2q10 0 10 -14zM609 519h-188v-296h188v296z
" />
    <glyph glyph-name="uni4F57" unicode="&#x4f57;" 
d="M870 654q-308 0 -452 -1v-134h-29v146q0 14 -3 21q16 -4 32 -4h215q-8 26 -53 186l30 8l56 -194h225q7 0 7 -7v-147h-28v126zM259 603v-667h-30v644q-71 -111 -151 -229l-7 19l-8 6q123 185 300 480l28 -11q-94 -156 -147 -240q10 -3 15 -2zM936 6q30 0 49 10l-12 -39
h-478q-34 0 -34 33v511q14 -9 27 -9v-259q188 110 361 221l13 -26q-241 -153 -374 -227v-215h448z" />
    <glyph glyph-name="uni4F58" unicode="&#x4f58;" 
d="M503 771q30 -23 437 -344l-8 -9l-1 -22q-424 338 -447 357q-198 -186 -414 -373l-4 14l-17 3q277 244 485 446l35 -9zM706 488q-218 2 -445 0l5 19l-6 9h450zM892 297l-384 1v-387l-63 45l33 4v338l-194 -1q-125 0 -186 -1l5 20l-7 9h802zM342 256l21 -17l-264 -297
l-8 20l-12 4zM640 251l273 -266l-25 -19l-273 267z" />
    <glyph glyph-name="uni4F59" unicode="&#x4f59;" 
d="M942 409l-12 -6l-6 -18l-434 363q-187 -177 -423 -379l-4 13l-17 3q289 252 502 461l35 -9l-73 -70zM903 281l-393 1v-379l-61 34l32 4v341l-200 -1q-128 0 -191 -1l6 20l-7 9h392v176l-207 -1l5 19l-7 10h454l-4 -28h-212v-176h399zM352 233l17 -21l-269 -288l-2 27
l-10 6zM641 231l275 -254l-25 -20l-274 255z" />
    <glyph glyph-name="uni4F5A" unicode="&#x4f5a;" 
d="M236 603q10 -2 14 -1v-681h-30v654q-91 -153 -158 -259l-7 21l-8 6q127 205 290 497l27 -11zM943 334q-114 1 -370 1l-135 -409l-15 1l-20 -13l140 420q-151 0 -221 -1l5 20l-7 9h232q22 70 66 206l-187 -1q-41 -93 -73 -156l-13 6l-12 2q64 133 139 335l32 -3
q-51 -132 -61 -155h183q12 36 72 229h34q-62 -190 -74 -229h239l-4 -29q-75 1 -245 1q-44 -136 -66 -206h366zM957 -65l-13 -4l-8 -17l-332 363l19 18z" />
    <glyph glyph-name="uni4F5B" unicode="&#x4f5b;" 
d="M904 296q5 -2 5 -9q-5 -90 -13 -294l-39 28l11 1l11 246h-178v-349h-30v349h-143q-106 -254 -144 -341l-16 2l-19 -11q84 190 145 350h-166l12 203q1 19 -1 28l21 -4h141v169q-48 -1 -139 -1l5 19l-6 10h140v89q0 36 -4 55q19 -10 33 -8v-136h141v64q0 60 -5 87
q20 -12 35 -12v-139h155q5 -1 5 -8v-218h-160v-169h203v-1zM220 595v-672h-30v642q-66 -105 -136 -207l-6 21l-8 5q128 194 281 449l27 -11q-123 -201 -139 -226q4 -1 11 -1zM530 495h141v169h-141v-169zM832 663l-131 1v-169h131v168zM360 297h141v169h-132zM671 297v169
h-141v-169h141z" />
    <glyph glyph-name="uni4F5C" unicode="&#x4f5c;" 
d="M939 629q-104 1 -340 1v-191h312l-4 -29q-148 2 -308 0v-214h340l-3 -28q-228 0 -337 -1v-257h-30v284q0 1 -1 2h1v388q0 35 -1 45h-61q-67 -122 -143 -246l-10 10l-12 3q102 171 246 456l32 -5q-43 -88 -98 -189h421zM260 625v-704h-30v664q-75 -120 -155 -235l-7 16
l-10 5q84 126 168 261q-1 1 -1 3l2 -1q50 81 121 203l30 -9l-123 -203h5z" />
    <glyph glyph-name="uni4F5D" unicode="&#x4f5d;" 
d="M875 684q5 -2 5 -9q-6 -148 -37 -757l-40 29h12q32 658 35 709q-189 2 -381 0q-69 -126 -126 -223l-9 18l-9 5q84 145 211 391l29 -9l-81 -153h391v-1zM235 628q4 -1 12 -1v-704h-30v675q-94 -148 -153 -234l-7 19l-8 6q125 188 280 449l28 -11zM695 461q-3 -115 -5 -315
h-275l7 330q221 -1 263 -2q10 0 10 -13zM659 448h-211v-272h211v272z" />
    <glyph glyph-name="uni4F5E" unicode="&#x4f5e;" 
d="M228 593v-672h-29v639q-88 -137 -150 -228l-6 20l-8 7q151 227 309 495l28 -12q-97 -161 -153 -249h9zM359 765h477l-4 -28q-231 2 -472 0l5 19zM930 533q-311 2 -635 0l6 19l-7 10h642zM591 514q-46 -87 -93 -174h434l-5 -29h-122q-138 -155 -206 -227l270 -141l-20 -28
l-274 144q-61 -65 -147 -151l-17 6l-23 -4q63 64 159 164l-158 83l-12 4l1 2q30 59 77 149q-59 -1 -172 -1l5 19l-6 10h187q48 92 95 184zM483 312l-70 -132l55 -28q58 -31 102 -53q97 103 192 213h-279z" />
    <glyph glyph-name="uni4F5F" unicode="&#x4f5f;" 
d="M951 259l-11 -7l-3 -18l-328 241q-127 -99 -305 -224l-8 13l-11 7q181 128 300 221l-137 101l16 21l144 -105q116 92 223 187h-348q-81 -118 -159 -225l-10 11l-15 -2q112 156 247 367l33 -6q-39 -60 -77 -117h338v1h43q10 0 13 -9t-5 -15q-114 -96 -259 -209zM363 834
q-101 -168 -120 -197h3v-704h-30v660q-87 -139 -166 -254l-7 19l-9 6q76 113 179 279l-1 3l2 -1l121 199zM730 158l-22 -22l-216 154l21 21zM394 112l411 -162l-14 -29l-412 164z" />
    <glyph glyph-name="uni4F60" unicode="&#x4f60;" 
d="M753 455q60 110 88 170q-326 0 -388 -1q-62 -112 -130 -223l-12 10l-14 -3q116 197 241 434l33 -5l-101 -184h404q16 0 7 -13q-18 -32 -49 -92q-34 -66 -52 -98zM219 599v-681h-30v649q-56 -83 -140 -200l-6 20l-8 7q144 205 298 447l27 -12q-110 -170 -150 -230h9z
M562 533h29v-617l-62 45l33 3v569zM467 376l22 -12l-176 -350l-9 19l-11 3zM888 64l-26 -17l-193 309l25 16z" />
    <glyph glyph-name="uni4F63" unicode="&#x4f63;" 
d="M236 601v-676h-30v619q0 32 -1 41q-59 -93 -153 -233l-6 20l-9 5q136 205 290 465l28 -11q-103 -172 -138 -227q10 -4 19 -3zM855 775q8 0 8 -9v-841l-38 29h8v312h-189v-302h-30v302q-151 0 -220 -1l-19 -322l-15 -1l-18 -18q35 579 50 851h463zM423 746q-3 -37 -7 -108
l-7 -108h207v183q0 26 -1 34q-131 0 -192 -1zM833 746q-59 1 -188 1v-217h188v216zM395 294h221v209q-142 0 -208 -1zM833 294v208q-59 1 -188 1v-209h188z" />
    <glyph glyph-name="uni4F64" unicode="&#x4f64;" 
d="M250 603v-685h-30v659q-87 -129 -165 -234l-6 18l-10 5q137 191 309 463l29 -10q-70 -110 -140 -215q5 -1 13 -1zM921 -14q33 0 52 10l-13 -41h-191q-21 0 -28 8q-6 7 -6 29q2 64 6 497h-270l-36 -494q89 44 200 97l9 -24l-301 -150l-2 19l-9 9l73 35q35 491 52 716h-103
l5 19l-7 10h555l-5 -29q-126 1 -415 1l-14 -180h291q8 0 8 -10q-2 -63 -6 -522h155zM535 371l166 -180l-27 -17l-165 181z" />
    <glyph glyph-name="uni4F65" unicode="&#x4f65;" 
d="M496 765q32 -23 428 -319l-11 -7l-3 -18q-417 314 -434 326q-204 -193 -418 -376l-5 12l-19 2q291 255 504 463l34 -10zM704 489q-206 2 -421 0l5 19l-7 9h427zM444 425l91 -314l-31 -9l-89 316zM789 394q-62 -124 -206 -375h320l-6 -29q-388 2 -790 0l6 19l-7 10h446
q118 205 210 388zM190 376l168 -309l-29 -13l-167 311z" />
    <glyph glyph-name="uni4F67" unicode="&#x4f67;" 
d="M927 435q-296 2 -604 0l5 19l-6 10h237v351q0 28 -4 41q24 -7 34 -6v-166h270l-3 -28h-267v-192h342zM258 607v-672h-30v642q-71 -108 -169 -242l-6 19l-9 6q128 178 319 478l28 -11q-80 -126 -143 -220h10zM558 375q0 34 -4 51q18 -8 33 -8v-499h-29v456zM932 112
l-22 -23l-290 218l22 21z" />
    <glyph glyph-name="uni4F69" unicode="&#x4f69;" 
d="M325 818l-126 -239q3 -1 9 -1v-658h-30v621q-66 -118 -118 -206l-8 18l-10 5q110 188 254 469zM912 -29q15 0 31 8l-19 -43h-70q-32 0 -33 32l-33 768q-208 2 -423 0q-19 -301 -47 -788l-14 -1l-19 -19q37 601 50 836h14q-1 0 -1 1h463v-1h2q7 0 7 -6q31 -606 39 -787h53
zM421 613h331l-4 -29l-157 1v-128h134v-366l-56 33l26 3v301q-33 1 -105 1v-487h-29v461q0 19 -1 26q-64 0 -94 -1v-361h-29v356q0 27 -4 40q19 -6 33 -6h95v128l-139 -1l5 19z" />
    <glyph glyph-name="uni4F6C" unicode="&#x4f6c;" 
d="M890 -34q29 0 48 10l-12 -39h-440q-35 0 -35 34v313q-90 -82 -157 -138l-6 15l-15 2q171 149 305 279l-146 -1q-95 0 -141 -1l5 20l-6 9h241v180l-180 -1l5 19l-6 10h181v126q0 29 -3 40q20 -8 33 -6v-160h197l-4 -29l-193 1v-180h55q157 155 267 279l22 -21
q-112 -124 -248 -258h265l-5 -28l-298 1q-47 -46 -147 -140h7v-166q164 85 336 183l12 -27q-221 -123 -348 -185v-141h411zM235 576v-658h-30v626q-70 -109 -144 -218l-7 19l-9 6q130 193 300 480l28 -11q-65 -108 -148 -244h10z" />
    <glyph glyph-name="uni4F6F" unicode="&#x4f6f;" 
d="M929 161l-305 1v-245h-30v245l-309 -1l5 19l-6 10h310v195q-178 0 -260 -1l5 20l-7 9h262v124q0 38 -1 49l-253 -1l5 19l-7 10h305l128 208l33 -5l-132 -203h207l-4 -29l-251 1v-173h240l-4 -28h-236v-195h310zM232 554v-631h-30v578q0 32 -1 42q-64 -102 -141 -216
l-6 21l-8 6q127 193 290 464l27 -11q-115 -190 -153 -249q14 -5 22 -4zM533 627l-105 173l28 12l106 -172z" />
    <glyph glyph-name="uni4F70" unicode="&#x4f70;" 
d="M363 831q-77 -120 -141 -216q3 -1 8 -1v-671h-29v640q-95 -139 -160 -228l-6 19l-9 6q137 192 309 463zM941 728l-301 1q-25 -83 -67 -196q221 -2 254 -3q16 0 16 -19q-3 -178 -6 -503h-444l10 526q64 0 143 -1l62 196l-142 -1q-92 0 -137 -1l5 20l-7 9h619zM803 504
h-373v-206h373v206zM803 38v231q-183 2 -373 0v-231h373z" />
    <glyph glyph-name="uni4F73" unicode="&#x4f73;" 
d="M229 591v-667h-29v640q-79 -115 -144 -204l-5 20l-8 7q134 188 308 462l27 -12q-92 -144 -160 -245q4 -1 11 -1zM594 805q0 28 -4 41q24 -7 34 -6v-174h232l-4 -28l-228 1v-185h302l-5 -29q-298 2 -608 0l5 19l-6 10h282v185l-223 -1l5 19l-6 9h224v139zM932 19l-5 -29
q-309 2 -630 0l5 19l-6 10h299v212l-254 -1l5 19l-7 10h256v113q0 31 -3 42q19 -7 33 -7v-148h233l-5 -29l-228 1v-212h307z" />
    <glyph glyph-name="uni4F74" unicode="&#x4f74;" 
d="M249 616v-703h-29v672q-74 -109 -154 -219l-6 19l-8 6q128 180 298 448l28 -12q-117 -181 -138 -211h9zM942 141q-124 -13 -145 -16v-204h-30v201l-452 -52l2 19l-6 9q84 10 123 14v563q0 34 -1 44h-87l5 19l-6 10h545l-4 -29h-89v-566l147 17zM464 720v-175h303v125
q0 38 -1 50h-302zM464 350h303v166q-149 2 -303 0v-166zM767 150v171q-149 2 -303 0v-206z" />
    <glyph glyph-name="uni4F76" unicode="&#x4f76;" 
d="M612 452h257l-4 -29q-254 2 -517 0l5 19l-6 10h236v176l-232 -1l5 19l-7 10h234v148q0 27 -4 42q19 -7 33 -7v-183h260l-5 -29l-255 1v-176zM242 585v-640h-30v586q0 30 -1 40q-75 -107 -160 -215l-5 19l-9 6q138 182 327 461l27 -12q-105 -155 -168 -242q12 -4 19 -3z
M800 280q-3 -106 -6 -291h-395l8 306q323 -1 382 -2q11 0 11 -13zM763 267h-330v-248h330v248z" />
    <glyph glyph-name="uni4F7B" unicode="&#x4f7b;" 
d="M385 829q-95 -160 -139 -230q3 -1 10 -1v-676h-30v645q-68 -109 -163 -249l-6 20l-8 7q137 205 309 495zM524 385q6 174 13 446h32q-19 -628 -26 -878l-14 -2l-18 -18q5 201 12 414l-189 -212l-3 26l-9 6l200 220zM913 -6q24 0 41 10l-12 -38h-222q-35 0 -35 31v834
q15 -9 28 -9v-430l9 9l214 -180l-21 -23l-202 171v-375h200zM371 708l128 -222l-27 -15l-128 222zM752 497l-13 1q82 109 150 208l23 -19q-74 -108 -151 -206z" />
    <glyph glyph-name="uni4F7C" unicode="&#x4f7c;" 
d="M619 675l-52 160l30 8l55 -168h253l-5 -29q-262 2 -535 0l5 19l-6 10h255zM238 578v-658h-30v629q-56 -84 -155 -220l-7 18l-9 6q140 195 319 478l29 -11l-157 -242h10zM677 603l27 15l183 -218l-27 -17zM572 591q-108 -144 -254 -312l-6 19l-11 4q134 158 250 312z
M935 -58l-12 -6l-5 -20l-310 291q-114 -134 -262 -294l-6 13l-15 2q125 138 262 299l-146 137l22 16l142 -131q76 90 139 169l24 -19q-48 -60 -142 -171q140 -129 309 -286z" />
    <glyph glyph-name="uni4F7E" unicode="&#x4f7e;" 
d="M370 830q-117 -194 -137 -225q7 -3 17 -3v-680h-29v623q0 29 -1 39q-84 -134 -162 -247l-8 17l-10 5q123 181 301 481zM932 433l-13 -1l-10 -15l-253 380l18 19zM801 524q8 0 8 -10v-598l-38 29h8v200q-223 0 -328 -1v-225h-30v553q0 43 -3 57q-49 -79 -93 -148l-8 15
l-10 4q101 160 235 406l30 -8q-127 -224 -153 -268q13 -6 21 -7h339v1h22zM779 495q-160 2 -328 0v-140h328v140zM779 173v154q-222 0 -328 -1v-153h328z" />
    <glyph glyph-name="uni4F7F" unicode="&#x4f7f;" 
d="M945 -74l-436 221q-68 -95 -166 -218l-16 5l-21 -7q86 111 176 233l-201 102l18 21q115 -58 200 -100q31 43 91 129h-244l8 257q122 0 248 -1v112l-282 -1l5 19l-6 10h283v86q0 35 -4 52q18 -8 33 -8v-130h279l-5 -29l-274 1v-112l233 -1q11 0 11 -12q-3 -90 -6 -243
h-243q-84 -120 -101 -143l428 -214l-10 -9zM337 827l-122 -214q5 -1 12 -1v-685h-29v656q-79 -135 -154 -254l-7 21l-8 6q108 174 281 481zM382 342h220v199h-220v-199zM631 541v-199h206v199h-206z" />
    <glyph glyph-name="uni4F83" unicode="&#x4f83;" 
d="M252 597v-676h-30v648q-73 -108 -151 -216l-6 20l-8 7q127 179 309 462l27 -12q-121 -186 -152 -232q4 -1 11 -1zM836 450h-435l8 306l421 -2q12 0 12 -13q-4 -107 -6 -291zM804 727h-368v-247h368v247zM621 382v-395h-30v360q0 30 -3 41q20 -8 33 -6zM948 -11q22 0 37 9
l-12 -38h-167q-35 0 -35 33v391q17 -9 28 -9v-386h149zM348 -77q52 270 81 458h33q-22 -115 -80 -443h-15z" />
    <glyph glyph-name="uni4F84" unicode="&#x4f84;" 
d="M233 604v-681h-30v648q-58 -93 -143 -219l-6 21l-9 6q126 190 291 464l27 -11l-72 -118q-53 -86 -67 -110h9zM625 734q-73 -101 -200 -266h369l-76 143l27 15l126 -235l-27 -16l-34 64h-386v-1h-33q-10 0 -13 7q-3 6 2 13q40 56 103 138q77 101 104 138l-253 -1l5 19
l-6 9h577l-5 -28zM937 24l-5 -28q-356 2 -644 -1l5 20l-6 9h311v203q-181 0 -264 -1l5 19l-6 10h265v123q0 26 -4 41q20 -8 33 -6v-158h233l-4 -29l-229 1v-203h310z" />
    <glyph glyph-name="uni4F88" unicode="&#x4f88;" 
d="M244 594v-681h-29v624q0 25 -1 34q-69 -111 -160 -245l-7 19l-9 6q136 204 310 495l28 -10q-33 -57 -146 -241q11 -2 14 -1zM517 707q-83 -97 -177 -192l-5 16l-10 7q117 121 264 300l29 -11q-43 -53 -77 -92h282v1h40q11 0 14 -8q2 -9 -5 -15q-212 -194 -511 -426l-7 12
l-12 6q157 121 268 216q-13 12 -94 82l24 19q79 -68 93 -81q92 79 184 166h-300zM917 363q10 0 13 -7q3 -8 -4 -14q-204 -202 -457 -415l-10 11l-13 4q88 74 194 168l-93 87l24 18q74 -69 91 -84q103 93 214 204h-285q-107 -116 -228 -234l-7 14l-17 1q173 173 313 332
l34 -8q-46 -52 -69 -77h300z" />
    <glyph glyph-name="uni4F89" unicode="&#x4f89;" 
d="M222 593v-667h-30v635q-62 -105 -126 -206l-8 19l-8 6q113 181 272 466l28 -9q-66 -117 -139 -244h11zM668 691q36 -34 289 -266l-13 -6l-6 -18l-309 288q1 1 1 2h-84q-112 -142 -246 -299l-7 15l-12 3q148 178 227 281l-196 -1l5 19l-6 10h219q31 40 91 120l34 -7
q-58 -76 -87 -113h343l-5 -29zM745 472q-207 0 -304 -1l5 19l-6 10h308zM310 353h600l-5 -28q-200 2 -425 0q2 15 -26 -143h332q8 -2 6 -11q-7 -61 -24 -245l-40 29h14l19 198h-313v-1h-29l30 165q4 12 2 8l-140 -1l5 20z" />
    <glyph glyph-name="uni4F8B" unicode="&#x4f8b;" 
d="M225 613v-690h-30v660q-58 -108 -134 -237l-8 21l-8 5q109 189 254 468l27 -9q-105 -201 -114 -217q5 -1 13 -1zM877 834v-921l-59 44l30 3v874h29zM315 759h376l-4 -28q-59 1 -191 1q-29 -83 -66 -181h209q14 0 9 -15q-143 -422 -211 -599l-14 6l-12 -1q56 147 104 294
l-112 103l23 20l100 -91l85 255h-192q-60 -155 -110 -274l-13 11l-12 -2q95 233 180 474l-148 -1l5 19zM738 635v-490h-30v448q0 36 -4 49q21 -9 34 -7z" />
    <glyph glyph-name="uni4F8D" unicode="&#x4f8d;" 
d="M960 509l-5 -28q-339 2 -612 -1l5 20l-7 9h280v169l-218 -1l5 19l-6 10h219v111q0 29 -3 38q19 -6 33 -6v-143h237l-4 -29l-233 1v-169h309zM260 583v-658h-30v603q0 28 -1 37q-66 -99 -164 -234l-6 20l-8 7q168 237 329 493l27 -12q-97 -152 -164 -254q10 -3 17 -2z
M757 325h195l-5 -28h-190v-373l-76 50l46 4v319q-259 0 -378 -1l5 20l-7 9h380v148h30v-148zM435 231l191 -136l-21 -22l-192 136z" />
    <glyph glyph-name="uni4F8F" unicode="&#x4f8f;" 
d="M233 576v-663h-29v634q-75 -125 -141 -226l-10 13l-10 5q126 198 281 483l31 -7q-89 -162 -134 -238q5 -1 12 -1zM678 359q15 -22 281 -391l-11 -4l-9 -17l-288 406q4 3 6 6h-23v-447h-29v447h-13q-115 -178 -298 -426l-8 16l-12 2q156 214 283 408l-248 -1l5 19l-7 10
h298v198l-177 -1q-37 -87 -75 -162l-12 8l-12 2q65 135 132 318l32 -3q-27 -70 -53 -134h165v115q0 58 -5 85q23 -13 34 -12v-188h245l-4 -28h-241v-198h292l-5 -29z" />
    <glyph glyph-name="uni4F91" unicode="&#x4f91;" 
d="M924 666q-112 1 -367 1q-66 -109 -90 -145h354q7 0 7 -9v-609l-37 29h8v202q-157 2 -319 0v-201h-30v561q-74 -115 -152 -228l-8 17l-9 6q109 161 240 376q-142 0 -209 -1l5 20l-7 9h228l92 154l29 -10q-47 -81 -86 -144h356zM354 828l-152 -247q13 -4 23 -4v-644h-29
v590q0 36 -2 46q-58 -94 -144 -221l-6 21l-8 6q144 218 290 464zM799 493q-157 2 -319 0v-137h319v137zM799 163v165q-216 0 -319 -1v-164h319z" />
    <glyph glyph-name="uni4F94" unicode="&#x4f94;" 
d="M233 588v-667h-30v643q-76 -119 -148 -224l-7 18l-10 5q130 194 300 480l29 -9q-89 -150 -149 -245q11 -2 15 -1zM377 555q-10 0 -13 6t2 13q35 52 94 133q65 89 96 134l32 -9q-88 -126 -178 -248h399l-117 156l27 14l184 -244l-27 -15l-45 60h-454zM931 157l-296 1v-238
h-30v238l-309 -1l6 19l-7 10h310v182q-140 0 -205 -1q-45 -85 -80 -145l-12 10l-14 -3q77 137 149 286l31 -5q-38 -76 -58 -114h189v85q0 39 -4 60q19 -9 34 -9v-136h239l-4 -28h-235v-182h301z" />
    <glyph glyph-name="uni4F97" unicode="&#x4f97;" 
d="M359 819q-91 -140 -143 -218h9v-681h-30v649q-75 -111 -148 -212l-6 20l-9 6q127 176 299 447zM856 752q9 0 9 -9v-841l-38 29h8v792q-213 2 -434 0v-812h-30v770q0 55 -5 81q12 -7 22 -10h468zM474 582h312l-3 -28q-151 2 -308 0l5 19zM723 409q-3 -98 -5 -267h-219
l6 281q177 -1 209 -2q9 0 9 -12zM689 395h-158v-223h158v223z" />
    <glyph glyph-name="uni4F9B" unicode="&#x4f9b;" 
d="M934 294l-5 -28q-359 2 -648 -1l5 20l-7 9h189v273q-54 -1 -156 -1l5 19l-6 10h157v182q0 40 -4 54q23 -9 34 -8v-228h203v188q0 35 -4 54q22 -9 33 -8v-234h163l-5 -29q-103 0 -158 1v-273h204zM215 602q4 -1 12 -1v-681h-30v654q-73 -108 -151 -216l-6 20l-8 7
q144 205 298 447l27 -12zM701 294v273h-203v-273h203zM726 227l186 -296l-26 -17l-186 297zM321 -72q81 154 147 297l25 -15q-50 -111 -149 -295l-11 13h-12z" />
    <glyph glyph-name="uni4F9D" unicode="&#x4f9d;" 
d="M921 634h-296l3 -1q-23 -35 -67 -99q6 -12 132 -228q116 108 203 199l17 -26q-101 -104 -205 -199q98 -168 199 -343h-12l-12 -15l-338 588q-59 -85 -80 -114h8v-403q76 53 170 120l15 -21l-256 -186l-4 19l-11 7l54 38v392q-55 -76 -153 -202l-7 16l-10 5
q131 169 322 453l-280 -1l6 19l-7 10h309q-15 25 -90 158l28 11l97 -169h270zM223 567v-654h-30v620q-81 -125 -140 -213l-6 20l-8 6q136 205 300 480l27 -11q-115 -190 -152 -248h9z" />
    <glyph glyph-name="uni4FA0" unicode="&#x4fa0;" 
d="M245 613v-681h-29v647q-61 -97 -159 -242l-7 19l-9 6q136 204 310 495l28 -10q-96 -160 -142 -234h8zM939 310q-119 1 -389 1l-109 -366l-16 2l-19 -15q49 159 114 379l-206 -1l5 19l-7 9h216q25 83 90 310l-257 -1l5 19l-6 10h266l48 168h34l-50 -168h243l-5 -29l-247 1
l-91 -310h386zM677 386q102 119 181 222l20 -24q-79 -103 -183 -221l-7 19zM534 397l-28 -14l-129 197l27 13zM611 289l333 -345l-13 -4l-8 -17l-331 347z" />
    <glyph glyph-name="uni4FA3" unicode="&#x4fa3;" 
d="M237 604v-667h-30v635q-65 -98 -155 -221l-6 19l-9 6q147 206 319 478l28 -11q-91 -143 -155 -239h8zM806 470h-395l8 306q323 -1 382 -2q11 0 10 -13q-3 -106 -5 -291zM775 748h-330v-248h330v248zM859 332q-3 -117 -6 -322h-483l9 339q394 -2 468 -3q13 0 12 -14z
M821 320h-415v-280h415v280z" />
    <glyph glyph-name="uni4FA5" unicode="&#x4fa5;" 
d="M214 580v-663h-30v631q-80 -125 -137 -209l-7 20l-8 6q135 202 290 464l28 -10l-146 -239h10zM334 635q104 17 197 33q-39 107 -58 161h34q7 0 8 -4q18 -43 59 -150l280 46v-29q-148 -23 -269 -44l44 -118l187 104l12 -27q-12 -6 -94 -52q-57 -32 -95 -52q31 -87 40 -119
h176q25 0 45 10l-18 -45h-209q-21 0 -29 19q-14 35 -43 114q-188 -100 -304 -156l-3 15l-11 7q140 69 307 161q-10 29 -26 71q-19 52 -23 61q-72 -11 -201 -34l1 20zM908 -12q26 0 42 10l-12 -38h-294q-35 0 -35 33v265h-86q-112 -185 -213 -333l-16 4l-21 -8
q134 199 214 337l-210 -1l5 19l-6 10h596l-5 -29l-230 1v-270h271z" />
    <glyph glyph-name="uni4FA6" unicode="&#x4fa6;" 
d="M914 737l-3 -28q-199 0 -293 -1v-133h214q8 0 8 -10v-400h-29v382q-266 0 -391 -1v-397h-30v389q0 29 -4 44q20 -7 34 -7h169v241q0 20 -4 31q21 -7 33 -5v-105h296zM380 831q-68 -107 -141 -217h10v-686h-30v656q-69 -103 -161 -231l-6 21l-8 6q145 206 309 463z
M680 480q-138 -305 -252 -550l-16 2l-20 -12q163 341 253 560h35zM646 209l249 -266l-23 -21l-249 268z" />
    <glyph glyph-name="uni4FA7" unicode="&#x4fa7;" 
d="M337 840q-59 -114 -122 -232q11 -3 17 -2v-685h-30v628q0 26 -1 34q-69 -125 -129 -226l-9 16l-10 5q111 190 254 469zM892 827v-901l-60 29l31 5v867h29zM363 720q0 41 -4 56q19 -9 34 -9h230q9 0 9 -11v-534h-29v516q-103 2 -210 0v-524h-30v506zM734 679q0 44 -4 59
q19 -9 34 -9v-594h-30v544zM565 655l-192 -709l-15 1l-19 -15q122 439 193 723h33zM499 227l174 -231l-25 -19l-174 233z" />
    <glyph glyph-name="uni4FA8" unicode="&#x4fa8;" 
d="M263 599v-663h-30v607q0 33 -1 43q-79 -120 -174 -249l-6 19l-8 7q147 206 319 478l27 -12q-98 -154 -147 -227q13 -4 20 -3zM715 550l237 -240l-10 -6l-6 -19q-248 254 -258 265q-70 0 -104 -1q-113 -182 -203 -315l-9 13l-12 2q62 94 190 300q-124 0 -182 -1l6 20l-7 9
h199q54 88 110 183q-151 -31 -240 -45l-3 15l-8 8q183 34 434 93l7 -29l-150 -33q-76 -128 -116 -192h335l-4 -28zM452 -79q59 236 99 424h34q-35 -142 -99 -411l-15 1zM773 339v-413h-30v377q0 31 -3 42q20 -8 33 -6z" />
    <glyph glyph-name="uni4FA9" unicode="&#x4fa9;" 
d="M231 603v-676h-29v646q-62 -99 -142 -218l-7 21l-8 6q115 173 291 464l27 -11l-142 -232h10zM594 753q15 -15 360 -339l-12 -5l-6 -19l-358 341q-121 -162 -267 -339l-8 13h-15q160 200 330 431l33 -6zM759 437q-223 0 -326 -1l5 19l-7 10h331zM708 171l175 -232l-27 -15
l-34 45h-449v1h-8q-10 0 -13 6t2 13q39 55 103 140q72 95 104 139l-236 -1l5 19l-7 10h546l-5 -29l-264 1q-85 -115 -203 -270h403q-51 69 -119 159z" />
    <glyph glyph-name="uni4FAA" unicode="&#x4faa;" 
d="M368 826q-109 -168 -151 -231q5 -1 13 -1v-662h-30v637q-95 -139 -143 -204l-6 19l-9 6q134 189 298 447zM924 332l-10 -9v-19l-318 181q-158 -119 -275 -200l-4 14l-14 5q141 100 266 196l-178 101l17 21l185 -104q85 65 195 152q-232 2 -456 0l5 19l-6 9h296l-69 123
l28 11l77 -134h236l-4 -28h-60q-69 -55 -215 -167zM381 -50q70 201 126 389h34l-125 -378l-15 2zM729 266q0 23 -3 38q19 -6 33 -6v-363h-30v331z" />
    <glyph glyph-name="uni4FAC" unicode="&#x4fac;" 
d="M912 -27l-12 -1l-12 -14l-343 560q-20 -34 -62 -102v-414l163 123l15 -22l-243 -188l-4 21l-10 7l54 41v392q-90 -144 -168 -260l-9 14l-12 1q170 262 327 531l-208 -1v-162h-30v172q0 17 -3 23q20 -5 33 -5h212v132q0 14 -3 21q21 -4 33 -4v-149h223v1h23q7 0 7 -7v-165
h-28v143q-70 1 -223 1q-62 -103 -71 -119l150 -244q110 105 169 168l18 -25q-73 -78 -171 -168zM222 597v-672h-30v639q-69 -116 -142 -232l-7 20l-9 5q120 192 281 482l28 -10q-73 -130 -132 -232h11z" />
    <glyph glyph-name="uni4FAE" unicode="&#x4fae;" 
d="M308 535q75 110 193 309l29 -9l-72 -118h472l-4 -28q-268 2 -486 -1q-56 -91 -115 -177l-7 19zM350 829q-82 -145 -128 -225q5 -1 13 -1v-685h-30v656q-63 -108 -139 -227l-7 19l-9 6q109 175 272 466zM838 309l-12 -218h113l-9 -30h-105l-8 -149l-39 29h11l6 120h-408
q11 125 23 248h-115l5 19l-6 10h119l17 190q4 38 1 57q14 -5 23 -7h388q10 0 8 -9q-4 -99 -11 -231h124l-5 -29h-120zM442 338h367q7 143 11 211q-177 2 -359 0zM713 380l-25 -19l-138 126l24 18zM797 91q3 71 11 219h-369l-20 -219h378zM557 274l137 -132l-25 -18l-137 132
z" />
    <glyph glyph-name="uni4FAF" unicode="&#x4faf;" 
d="M244 584v-667h-30v640q-91 -132 -160 -225l-8 15l-10 5q139 193 330 494l30 -9q-118 -184 -164 -252q5 -1 12 -1zM729 777v1h25q11 0 7 -11q-10 -32 -23 -84l-24 -88h206l-5 -28q-291 2 -594 0l5 19l-6 9h367q27 97 40 154q-231 0 -337 -1l5 19l-6 10h340zM919 213
q-108 1 -352 1q-94 -180 -151 -285l-16 2l-20 -10q95 174 156 292q-156 0 -229 -1l5 20l-6 9h244q42 83 82 170l-196 -1q-50 -81 -98 -148l-8 15l-11 4q75 109 163 262l30 -7l-58 -97h439l-4 -29l-222 1l-86 -170h343zM943 -45l-12 -7l-5 -18l-310 257l16 22z" />
    <glyph glyph-name="uni4FB5" unicode="&#x4fb5;" 
d="M329 780q-70 -114 -116 -187q3 -1 9 -1v-667h-30v633q-91 -141 -136 -207l-7 19l-9 6q123 185 291 465l28 -11l-27 -44h464q8 0 8 -8v-249h-454l2 19l-2 9h426v82q-195 2 -394 0l5 19l-6 10h395v90q-307 0 -450 -1l5 19zM850 412q-295 2 -534 -1v-116h-29v130q0 12 -3 19
q16 -4 32 -4h555q7 0 7 -7v-169h-28v148zM923 -53l-10 -9v-19l-323 194q-91 -80 -228 -179l-2 21l-8 8q113 81 212 166l-160 96l18 20l165 -98q93 90 146 146h-342l3 19l-3 9h381q9 0 12 -7q2 -6 -4 -13q-93 -96 -170 -168z" />
    <glyph glyph-name="uni4FBF" unicode="&#x4fbf;" 
d="M230 644q5 -1 12 -1v-699h-30v671q-77 -122 -160 -245l-6 20l-9 5q109 163 281 449l28 -10zM938 -23l-9 -9v-18l-419 197q-64 -83 -170 -205l-16 5l-22 -6q77 89 180 219l-145 68l13 23l149 -69q26 33 76 101h-215l9 388q111 -1 227 -1v108h-263v29h577l-9 -29h-276v-108
l211 -2q14 0 13 -15q-3 -133 -6 -370h-231q-50 -69 -85 -114q172 -81 411 -192zM397 642v-143h199v143h-199zM811 642h-185v-143h185v143zM397 314h199v156h-199v-156zM811 314v156h-185v-156h185z" />
    <glyph glyph-name="uni4FC3" unicode="&#x4fc3;" 
d="M242 573v-658h-30v631q-65 -102 -144 -219l-6 20l-9 7q133 200 300 479l28 -11q-69 -115 -152 -248q5 -1 13 -1zM952 -62l-549 200q-49 -133 -83 -221l-14 10l-12 -4q81 216 157 451l31 -4q-39 -120 -70 -206q9 -4 209 -76v358h-212l8 306q350 -1 414 -2q11 0 11 -13
q-3 -107 -6 -291h-185v-146h250l-3 -29q-119 2 -247 0v-194q152 -56 307 -112l-9 -9zM444 476h360v248h-360v-248z" />
    <glyph glyph-name="uni4FC4" unicode="&#x4fc4;" 
d="M222 590v-672h-30v641q-52 -88 -133 -218l-8 20l-9 5q122 196 273 467l28 -10q-62 -111 -133 -232q5 -1 12 -1zM859 -47q20 0 37 10l-20 -44h-125q-34 0 -37 34l-16 224q-116 -132 -171 -192l-6 16l-13 3q80 89 187 215l-19 267h-202v-197l148 65l9 -24l-157 -71v-356
l-59 44l30 3v295q-70 -31 -142 -64l-2 19l-8 9q76 34 152 67q-1 102 -1 210q-56 -1 -163 -1l5 19l-6 10h164v178q-77 -18 -134 -29l-2 16l-7 8q121 27 316 79l6 -29l-149 -38v-185h200l-22 319h27q6 0 7 -7l25 -312h187l-5 -29l-180 1l17 -226q85 101 131 160l22 -21
q-61 -77 -150 -181l20 -265h106zM870 590l-142 157l26 16l143 -156z" />
    <glyph glyph-name="uni4FC5" unicode="&#x4fc5;" 
d="M203 600q12 -3 18 -2v-663h-30v607q0 29 -1 38q-57 -92 -135 -208l-6 21l-8 6q116 175 271 433l27 -11zM948 74l-11 -7l-4 -20l-325 308v-415l-52 42l22 3v339q-34 -29 -302 -263l-2 24l-10 7l314 267v253q-181 0 -265 -1l5 20l-7 9h267v190h30v-190h276l-4 -28h-272
v-221l49 -46q108 95 199 188l23 -19q-96 -94 -202 -188q91 -84 271 -252zM811 664l-111 120l25 18l111 -119zM501 342l-25 -18l-143 183l25 17z" />
    <glyph glyph-name="uni4FCA" unicode="&#x4fca;" 
d="M368 574q-10 0 -13 6t2 13q36 51 92 125q69 90 95 126l31 -9q-107 -146 -174 -233h386l-111 133l26 15l194 -230l-27 -17l-59 71h-442zM375 828l-165 -271h4v-630h-30v590q-62 -97 -131 -199l-7 20l-8 7q80 121 142 220l1 1q80 128 167 274zM735 553l205 -243l-26 -17
l-205 245zM472 504q-109 -88 -200 -154l-4 19l-10 6q102 75 200 156zM622 163l297 -221l-9 -9l-2 -20q-170 129 -306 231q-95 -91 -261 -236l-10 11l-14 4q151 131 262 238l-129 98l14 22l135 -101q87 86 163 164h-293q-93 -136 -152 -215l-10 11l-15 -2q123 172 259 384
l32 -6l-95 -144h313q10 0 13 -7t-4 -15q-106 -109 -188 -187z" />
    <glyph glyph-name="uni4FCE" unicode="&#x4fce;" 
d="M68 441h-14q129 189 257 399l32 -6q-29 -48 -89 -142l194 -199l-24 -21l-187 194q-78 -119 -160 -236zM957 17l-4 -28q-314 2 -567 -1l5 20l-7 9h134v703q0 51 -5 75q14 -7 21 -9h307q10 0 10 -14v-755h106zM822 757q-134 2 -275 0v-226h275v226zM547 281h275v221
q-136 2 -275 0v-221zM382 80l-160 193q-76 -145 -155 -281l-10 14l-12 1q106 188 226 430l32 -5l-66 -129l170 -204zM822 17v236q-186 0 -275 -1v-235h275z" />
    <glyph glyph-name="uni4FCF" unicode="&#x4fcf;" 
d="M862 523q9 0 9 -9v-609l-38 29h8v209q-280 0 -412 -1v-233h-30v561q0 45 -4 60q23 -7 20 -7h214v283q0 25 -3 34q21 -7 33 -5v-312h203zM372 828q-116 -192 -140 -230h10v-677h-30v646q-58 -93 -143 -219l-6 21l-8 6q127 193 290 464zM730 588l-11 3q68 85 156 207
l20 -22q-61 -87 -157 -207zM523 573l-146 195l27 14l146 -195zM841 494q-202 2 -412 0v-137h412v137zM841 171v157q-203 2 -412 0v-157h412z" />
    <glyph glyph-name="uni4FD0" unicode="&#x4fd0;" 
d="M225 586v-667h-30v643q-78 -129 -131 -212l-7 19l-9 6q112 179 272 466l28 -10q-97 -173 -139 -243q10 -3 16 -2zM883 832v-911l-60 39l30 4v868h30zM502 522h182l-4 -28l-178 1v-572h-30v559q-111 -247 -187 -398l-9 18l-10 4q77 158 180 389l-151 -1l5 19l-6 9h178v142
q0 47 -1 61q-58 -14 -142 -31l-2 16l-7 8q179 41 330 83l7 -29q-80 -21 -161 -41h6v-209zM746 615v-504h-30v461q0 38 -4 51q23 -9 34 -8zM536 375l144 -181l-26 -18l-143 182z" />
    <glyph glyph-name="uni4FD1" unicode="&#x4fd1;" 
d="M353 830q-49 -81 -135 -221q3 -1 9 -1v-680h-30v647q-77 -122 -147 -224l-6 19l-9 6q129 194 290 465zM856 545q8 0 8 -9v-618l-37 29h8v223q-63 1 -203 1v-223h-29v223q-145 0 -213 -1v-244h-30v565q0 40 -4 61q9 -5 18 -7q-1 0 -1 1h237q-27 21 -162 130l23 20l119 -96
q137 106 196 158q-211 2 -424 0l5 19l-6 9h474q9 0 11 -7q2 -6 -5 -11l-112 -89q-75 -61 -119 -95l39 -31l-8 -7h204v-1h11zM390 376h213v104q0 29 -1 38q-145 0 -212 -1v-141zM632 376h203v141l-203 1v-142zM603 199v149q-145 0 -213 -1v-148h213zM835 199v148l-203 1v-149
h203z" />
    <glyph glyph-name="uni4FD7" unicode="&#x4fd7;" 
d="M233 607v-681h-30v645q-82 -129 -143 -219l-7 20l-8 7q119 178 291 464l27 -11q-85 -141 -137 -225h7zM332 579q131 136 216 237l24 -18q-93 -110 -215 -232l-9 13h-16zM891 600l-227 191l24 19l226 -190zM612 575q19 -17 338 -286l-12 -7l-5 -18q-326 278 -338 289
q-132 -168 -263 -320l-7 13l-15 1q165 197 329 414l34 -6zM806 288q11 -1 11 -14q-3 -109 -5 -299h-387l7 315zM780 261h-321v-255h321v255z" />
    <glyph glyph-name="uni4FD8" unicode="&#x4fd8;" 
d="M387 713q182 47 447 127l7 -29q-258 -78 -445 -122l-2 16zM392 812q-87 -135 -144 -221q4 -1 11 -1v-667h-30v639q-90 -133 -159 -227l-5 21l-9 6q133 186 309 462zM728 495q92 152 130 223l26 -11q-54 -100 -130 -218l-12 10zM582 697l30 7l50 -201l-31 -8zM378 640
l28 13l78 -160l-28 -14zM956 214l-5 -28l-321 1v-278l-56 40h27v238l-155 -1q-100 0 -148 -1l5 20l-6 9h304v57h16q121 96 193 158q-224 2 -450 0l5 19l-7 10h508q12 0 14 -8t-6 -14l-117 -94q-72 -58 -127 -99v-29h326z" />
    <glyph glyph-name="uni4FDA" unicode="&#x4fda;" 
d="M231 593v-672h-29v646q-73 -108 -151 -216l-6 21l-8 6q120 169 309 463l27 -12q-56 -87 -154 -235q5 -1 12 -1zM948 0l-5 -28q-353 2 -639 -1l5 20l-7 9h315v174l-244 -1l5 19l-6 10h245v134h-218l9 428q365 -2 442 -3q14 0 14 -16q-3 -146 -6 -409h-211v-134h247l-4 -29
l-243 1v-174h301zM435 735v-170h181v170h-181zM825 735h-179v-170h179v170zM435 366h181v171q-124 0 -181 -1v-170zM825 366v171h-179v-171h179z" />
    <glyph glyph-name="uni4FDC" unicode="&#x4fdc;" 
d="M236 598v-667h-30v635q-98 -153 -150 -230l-7 21l-8 6q136 205 300 480l27 -11q-72 -121 -142 -234h10zM375 741q102 -1 209 -1v58q0 27 -4 42q19 -7 33 -7v-93l207 -2q12 0 11 -13q-3 -112 -5 -307h-460zM402 712v-110h182v110h-182zM613 712v-110h181v110h-181z
M794 448v126h-181v-126h181zM402 448h182v126q-124 0 -182 -1v-125zM460 303q-1 -13 -1 -50l-1 -56h319q11 0 9 -11q-7 -68 -25 -275l-40 28l14 1l20 227h-327l2 136q-44 -1 -128 -1l5 19l-7 10h623l-5 -28h-458z" />
    <glyph glyph-name="uni4FDD" unicode="&#x4fdd;" 
d="M233 594v-672h-30v634q-54 -86 -139 -212l-7 20l-9 5q127 190 300 480l28 -10l-149 -245h6zM665 328q26 -32 293 -347l-13 -3l-9 -16l-307 366h-14v-407h-29v407h-3q-138 -184 -291 -366l-10 8l-15 2q163 199 279 356l-246 -1l5 19l-7 10h288v109q0 27 -1 36h-199l8 282
l415 -2q10 0 10 -12q-3 -99 -5 -268h-199v-145h311l-5 -29zM421 531h361v223h-361v-223z" />
    <glyph glyph-name="uni4FDE" unicode="&#x4fde;" 
d="M933 524l-10 -8l-2 -18l-454 285q-224 -195 -399 -333l-5 13l-15 4q269 221 436 372l34 -11q-20 -18 -31 -27zM633 576q-150 2 -304 0l5 19l-6 10h308zM786 525h30v-597l-61 44l31 4v549zM617 446q0 26 -4 41q19 -7 33 -7v-390h-29v356zM473 475q7 -2 7 -9v-538l-38 29h8
v178h-246v-184h-30v477q0 34 -4 53q11 -5 17 -6h286zM450 446q-121 2 -246 0v-124h246v124zM450 163v130q-121 2 -246 0v-130h246z" />
    <glyph glyph-name="uni4FDF" unicode="&#x4fdf;" 
d="M208 567v-645h-30v591q0 26 -1 34q-72 -112 -135 -205l-6 19l-9 6q126 189 290 464l28 -10q-100 -168 -154 -252q11 -3 17 -2zM375 547q-9 0 -12 6t2 13q35 49 92 126q65 86 95 127l30 -12q-32 -45 -172 -231h377l-115 146l26 14l185 -231l-27 -16l-46 58h-435zM626 186
q40 -35 301 -258l-12 -6l-6 -18l-324 280q1 1 1 2h-47q-72 -139 -133 -251l-15 3l-21 -10q87 158 138 258l-223 -1l6 19l-7 10h238q40 78 88 180q-148 0 -218 -1q-37 -61 -91 -136l-9 13l-11 4q73 106 153 246l31 -6l-55 -92h436l-4 -29l-197 1q-60 -119 -92 -180h350
l-5 -29z" />
    <glyph glyph-name="uni4FE1" unicode="&#x4fe1;" 
d="M221 584v-667h-30v631q-85 -117 -148 -197l-5 19l-9 6q82 108 158 216l1 1q73 104 157 229l28 -12q-116 -169 -157 -226h5zM932 656l-5 -28q-530 0 -630 -1l5 20l-7 9h304q-3 9 -45 157l30 8l47 -162q-6 -2 -12 -3h313zM824 480q-231 2 -472 0l5 19l-6 10h477zM325 367
h546l-5 -28q-298 2 -539 -1l5 20zM803 222q11 -1 11 -12q-3 -96 -6 -260h-435l8 274zM777 195h-369v-215h369v215z" />
    <glyph glyph-name="uni4FE3" unicode="&#x4fe3;" 
d="M248 601v-658h-30v630q-86 -119 -170 -228l-6 19l-8 7q148 194 338 476l27 -12q-82 -121 -161 -234h10zM816 544h-403l7 248l392 -1q11 0 9 -11q-3 -89 -5 -236zM785 764h-338v-190h338v190zM906 237q-106 1 -347 1l-135 -292l-15 3l-21 -11q88 182 140 300l-202 -1l5 19
l-6 10h216q44 100 65 152l-235 -1l5 19l-6 9h527l-5 -28l-251 1l-69 -152h339zM971 -46l-12 -6l-5 -18l-340 271l16 21z" />
    <glyph glyph-name="uni4FE6" unicode="&#x4fe6;" 
d="M363 832q-85 -143 -153 -251q4 -1 10 -1v-662h-30v630q-57 -90 -139 -211l-7 20l-9 6q130 193 300 480zM930 392q-139 1 -455 1q-21 -57 -51 -131h304v99h30v-99h151l-4 -28l-147 1v-320l-61 45l31 4v271q-216 0 -315 -1q-52 -130 -106 -257l-13 11l-12 -2
q87 208 163 407q-61 -1 -177 -1l5 19l-7 10h190l47 125l-168 -1l5 19l-6 10h180q17 44 49 132l-240 -1l6 19l-7 10h252l37 100l30 -6l-36 -94h281l-5 -29q-88 1 -286 1l-25 -66q-16 -44 -25 -66h321l-5 -29q-100 1 -327 1l-48 -125h449zM532 179l124 -126l-24 -20l-124 126z
" />
    <glyph glyph-name="uni4FE8" unicode="&#x4fe8;" 
d="M941 365l-4 -29q-268 2 -549 0q-13 -99 -49 -400l-14 -1l-19 -16q29 230 52 445h11l-1 1h147v322q0 19 -1 25q-136 0 -200 -1l5 20l-4 6q-82 -146 -102 -179h9v-640h-30v604q-59 -101 -140 -228l-8 19l-8 6q131 211 299 513l28 -10l-46 -82h587l-5 -28l-183 1v-348h225z
M686 365v348q-94 0 -141 -1v-347h141zM763 434l105 202l27 -9l-108 -201zM446 427l-113 184l28 12l114 -184z" />
    <glyph glyph-name="uni4FE9" unicode="&#x4fe9;" 
d="M208 597q10 -3 16 -2v-676h-30v620q0 26 -1 35q-53 -85 -136 -209l-7 19l-9 6q119 179 281 449l28 -11zM931 740l-214 1v-166h157q9 0 9 -9v-649l-38 29h8v600l-130 1q-24 -127 -37 -200l11 7l136 -182l-26 -18l-125 170l-46 -258h-15l-19 -16q54 283 89 497h-136
q-13 -57 -32 -150l14 10l97 -120l-26 -18l-89 112q-25 -126 -54 -259h-15l-19 -14q56 250 91 439l-134 -1v-624h-30v598q0 43 -4 64q18 -9 34 -9h135v165q-134 0 -196 -1l5 20l-6 9h609zM687 741q-90 0 -135 -1v-165h135v166z" />
    <glyph glyph-name="uni4FEA" unicode="&#x4fea;" 
d="M944 764l-5 -29q-311 2 -635 0l5 19q-6 9 -6 10q-51 -92 -99 -173q5 -1 13 -1v-667h-30v639q-74 -125 -130 -212l-7 19l-9 6q103 165 272 466l28 -10l-38 -67h641zM552 610q8 0 8 -9v-679l-37 29h8v630q-87 2 -179 0v-657h-30v628q0 44 -4 67q18 -10 34 -10h179v1h21z
M884 607q8 0 8 -9v-679l-37 29h8v631q-89 2 -182 0v-648h-30v620q0 49 -4 66q16 -8 23 -9h209v-1h5zM740 451l98 -236l-30 -11l-97 238zM418 436l78 -238l-30 -9l-77 239z" />
    <glyph glyph-name="uni4FED" unicode="&#x4fed;" 
d="M235 587v-653h-30v598q0 32 -1 42q-79 -118 -155 -222l-6 20l-8 7q127 179 309 462l27 -12q-114 -176 -156 -239q12 -4 20 -3zM952 443l-13 -5l-6 -17l-332 313q-136 -186 -250 -330l-9 11l-16 -1q154 199 306 417l33 -7l-48 -67zM768 459q-151 2 -308 0l5 19l-6 10h312z
M580 379l88 -237l-30 -10l-87 239zM850 361q-57 -128 -165 -345h244l-4 -29q-296 2 -604 0l5 19l-6 10h351l-3 3l-12 -1q93 185 168 356zM408 328l123 -247l-29 -12l-122 249z" />
    <glyph glyph-name="uni4FEE" unicode="&#x4fee;" 
d="M931 387l-10 -8l-1 -20l-262 166q-122 -87 -235 -164l-7 13l-12 7q141 96 227 161l-117 74l18 20l123 -77q70 53 159 127h-280q-47 -76 -105 -157l-9 12l-12 4q93 133 182 293l32 -6q-24 -42 -70 -118h313q11 0 13 -9q3 -9 -5 -15q-103 -82 -191 -147zM323 823
q-70 -137 -117 -221q5 -2 14 -2v-676h-30v647q-40 -73 -123 -216l-8 18l-10 5q100 172 246 453zM360 635v-549h-29v502q0 36 -4 55q22 -9 33 -8zM416 246q135 68 324 176l12 -27q-205 -115 -322 -172l-4 16zM424 106q177 89 384 207l13 -26q-239 -134 -382 -203l-3 15z
M393 -70q192 90 459 231l12 -26q-301 -156 -456 -226l-4 15z" />
    <glyph glyph-name="uni4FEF" unicode="&#x4fef;" 
d="M948 681q-253 2 -520 0q-34 -544 -45 -742l-14 -1l-18 -18q22 356 46 790h295l-55 125l29 10l61 -135h226zM254 609v-690h-30v653q-90 -142 -154 -235l-7 19l-8 6q97 146 165 257q77 124 135 223l28 -11q-91 -150 -136 -222h7zM582 473v-549h-29v502q0 22 -1 29
q-55 -81 -108 -154l-7 17l-10 6q98 135 215 323l29 -9q-82 -128 -106 -163q11 -3 17 -2zM960 418h-113v-507l-60 40l30 3v464h-183l5 18l-6 10h184v194h30v-194h117zM658 355l106 -197l-29 -12l-105 198z" />
    <glyph glyph-name="uni4FF1" unicode="&#x4ff1;" 
d="M234 601v-672h-30v647q-74 -109 -154 -219l-6 19l-9 6q137 192 309 463l28 -12q-109 -168 -151 -231q5 -1 13 -1zM956 214l-5 -29q-327 2 -667 0l5 19l-7 10h133v516q0 43 -4 58q23 -9 34 -8v-1h331v2h22q10 0 10 -12v-555h148zM779 751q-227 0 -334 -1v-113h334v114z
M445 494h334v115q-163 2 -334 0v-115zM445 358h334v107q-163 2 -334 0v-107zM779 214v116q-227 0 -334 -1v-115h334zM316 -54q107 98 210 206l17 -26q-107 -112 -212 -205l-4 20zM706 150l198 -205l-26 -18l-198 206z" />
    <glyph glyph-name="uni4FF3" unicode="&#x4ff3;" 
d="M940 194l-3 -29q-112 2 -232 0v-250h-30v841q0 65 -5 87q24 -13 35 -12v-196h210l-2 -28q-141 0 -208 -1v-178h205l-3 -29q-98 2 -202 0v-205h235zM501 751q0 58 -5 85q20 -12 34 -12v-898h-29v245h-219l5 18l-6 10h220v196q-95 2 -193 0l5 19l-6 10h194v181
q-92 2 -181 0l4 19l-6 10h183v117zM241 585v-672h-29v638q-59 -94 -146 -222l-7 19l-8 6q123 185 300 480l28 -10l-146 -239h8z" />
    <glyph glyph-name="uni4FF8" unicode="&#x4ff8;" 
d="M383 826q-101 -158 -162 -249q3 -1 9 -1v-658h-30v628q-63 -93 -149 -212l-6 19l-9 6q138 192 319 478zM945 203l-11 -6l-5 -19l-253 244q2 3 2 4h-218q-73 -139 -142 -258l-9 16l-9 4q43 78 128 238q-46 -1 -134 -1l5 19l-6 10h150l26 51q18 33 26 50q-46 -1 -133 -1
l5 19l-6 9h148l55 109l-222 -1l5 19l-6 10h237q38 74 56 111l31 -6l-53 -105h274l-5 -29q-87 1 -283 1l-28 -54q-18 -37 -28 -55h323l-4 -28q-101 1 -333 1l-53 -101h450l-5 -29l-209 1zM614 110h254l-4 -28l-250 1v-171h-29v171l-243 -1l5 19l-6 9h244v133l-139 -1l5 19
l-7 10h141v47q0 29 -4 45q19 -7 33 -7v-85h161l-3 -29l-158 1v-133z" />
    <glyph glyph-name="uni4FFA" unicode="&#x4ffa;" 
d="M627 642q-76 0 -113 -1q-90 -114 -219 -264l-7 14l-14 2q110 131 202 248q-106 0 -156 -1l5 20l-7 9h180q40 51 118 153l33 -6q-79 -104 -114 -147h365l-4 -28l-248 1q20 -18 272 -236l-6 -12l1 -24l-298 262zM228 574v-654h-29v599q0 27 -1 35q-82 -130 -149 -227l-6 19
l-9 6q126 189 290 464l28 -10q-50 -84 -140 -230q10 -3 16 -2zM910 -42q28 0 45 10l-12 -39h-350q-34 0 -34 33v122h-199l8 347q92 -1 191 -1v128q12 -8 27 -10v-118l203 -2q12 0 12 -14q-3 -120 -6 -330h-209v-126h324zM395 402v-121h164v121h-164zM586 402v-121h177v121
h-177zM559 114v140l-164 -1v-139h164zM763 114v139q-55 1 -177 1v-140h177z" />
    <glyph glyph-name="uni4FFE" unicode="&#x4ffe;" 
d="M373 831q-87 -146 -146 -239q7 -3 17 -3v-676h-30v620q0 28 -1 37q-61 -99 -153 -233l-6 19l-9 6q139 208 300 480zM935 127l-258 1v-225h-30v225q-235 0 -343 -1l6 19l-7 9h98q73 81 143 172h-165l9 396q64 0 145 -1q5 13 49 116l29 -7l-50 -109l165 -1q90 0 113 -1
q13 0 13 -16q-3 -135 -6 -377h-264q-68 -91 -142 -172h207v96q0 29 -3 39q19 -6 33 -6v-129h263zM415 694v-146h188v125q0 16 -1 21h-187zM813 694h-177v-146h177v146zM415 357h188v163q-128 0 -188 -1v-162zM813 357v162q-56 1 -177 1v-163h177z" />
    <glyph glyph-name="uni500C" unicode="&#x500c;" 
d="M233 621v-690h-30v658q-72 -108 -158 -227l-6 21l-8 7q127 179 309 462l27 -12q-117 -180 -143 -219h9zM878 694q7 0 7 -7v-134h-28v112q-238 2 -484 0v-107h-30v121q0 14 -3 19q16 -4 33 -4h228l-47 143l30 9l49 -149l-10 -3h255zM828 226q8 0 8 -8v-232h-18l-1 -2h-429
v510q0 38 -5 57q21 -9 38 -9h385q7 0 7 -8v-187h-13v-1h-379v-120h407zM784 513q-178 2 -363 0v-138h363v138zM421 13h387v184q-190 2 -387 0v-184z" />
    <glyph glyph-name="uni500D" unicode="&#x500d;" 
d="M363 834q-67 -104 -158 -242h8v-667h-29v636q-84 -122 -143 -203l-6 19l-9 6q133 187 309 462zM594 687q-11 23 -66 147l29 10q68 -149 71 -157h264l-5 -29q-276 2 -562 0l5 19l-7 10h271zM945 419l-5 -28q-471 0 -690 -1l5 20l-6 9h399q-1 1 -2 4l-11 3q78 102 149 208
l21 -22q-53 -78 -140 -193h280zM395 603l28 12l99 -172l-29 -12zM804 259q-3 -107 -6 -291h-427l8 306q350 -1 413 -2q12 0 12 -13zM766 246h-360v-248h360v248z" />
    <glyph glyph-name="uni500F" unicode="&#x500f;" 
d="M339 836q-70 -135 -124 -234q5 -2 13 -2v-676h-30v645q-79 -141 -124 -217l-8 19l-9 6q103 177 254 468zM946 395l-11 -7l-2 -18l-268 169q-72 -55 -246 -180l-7 13l-12 6q138 98 239 177l-127 81q-37 -57 -77 -113l-10 11l-11 4q84 122 182 294l31 -6q-37 -65 -59 -100
h292q11 0 14 -8q2 -9 -6 -15q-69 -58 -180 -146zM527 659l135 -86q79 63 149 125h-260zM368 636v-545h-29v498q0 36 -4 55q22 -9 33 -8zM868 272l-29 -14l-106 146l27 13zM927 214q-101 1 -331 1l-124 -288l-16 2l-20 -12q65 143 130 298l-165 -1l5 19l-7 10h179
q28 69 68 172h34l-72 -172h323zM656 183l277 -219l-23 -22l-277 220z" />
    <glyph glyph-name="uni5012" unicode="&#x5012;" 
d="M195 609q5 -1 14 -1v-676h-30v646q-62 -114 -122 -217l-8 21l-9 5q91 157 246 453l28 -10zM861 840v-921l-61 45l31 3v873h30zM287 747h390l-3 -28h-203q-28 -59 -71 -145l-50 -102h235l-70 143l29 11l110 -223l-29 -12q-16 33 -26 52q-119 2 -247 0h-30q-19 0 -12 19
q23 53 62 129q47 92 64 128l-147 -1l4 19zM700 554q0 29 -4 45q20 -7 34 -7v-445h-30v407zM475 61q91 28 182 57l5 -26l-359 -118v20l-9 10q78 24 152 48v193l-166 -1l5 19l-6 10h167v109q0 26 -4 39q20 -8 33 -6v-142h162l-3 -29l-159 1v-184z" />
    <glyph glyph-name="uni5014" unicode="&#x5014;" 
d="M215 593q10 -3 16 -2v-658h-30v603q0 25 -1 34q-64 -105 -134 -207l-7 21l-8 6q128 194 281 449l27 -11zM409 583q-25 -270 -54 -613l-15 -1l-18 -18q38 412 73 836h454q5 -1 5 -8v-196h-445zM825 758q-196 2 -400 0l-13 -145h413v145zM885 230v-222h-420v179q0 11 -6 24
q28 -4 36 -3v-172h165v280h-183v145q0 12 -5 22q23 -5 35 -3v-136h153v153q0 35 -4 52q20 -9 34 -7v-198h143v123q0 12 -3 21q22 -5 33 -4v-168h-173v-280h165v173q0 19 -3 26q16 -5 33 -5z" />
    <glyph glyph-name="uni5018" unicode="&#x5018;" 
d="M866 531q8 0 8 -9v-608l-38 29h8v560q-249 2 -451 -1v-580h-30v557q0 45 -4 60q13 -6 23 -8h230v283q0 27 -3 36q20 -8 33 -6v-313h224zM232 602v-672h-30v635q-69 -116 -129 -211l-7 21l-8 6q119 192 272 466l27 -11l-133 -234h8zM719 586l-11 3q82 112 154 222l21 -21
q-65 -99 -156 -222zM499 567l-155 221l27 14l156 -220zM735 376q-2 -94 -4 -252h-235l6 265q191 -1 225 -2q10 0 8 -11zM701 361h-173v-207h173v207z" />
    <glyph glyph-name="uni5019" unicode="&#x5019;" 
d="M40 374q137 209 290 465l27 -12q-107 -176 -154 -251q6 -2 15 -2v-644h-30v622q-87 -136 -134 -204l-6 20zM728 605q15 73 29 156q-142 2 -286 0l4 19l-6 9h313q10 0 7 -10l-34 -174h170l-5 -29q-262 2 -535 0l5 19l-6 10h344zM348 637v-550h-29v503q0 35 -4 55
q19 -10 33 -8zM950 -59l-13 -5l-8 -17l-290 293h-30q-76 -169 -127 -276l-16 2l-20 -11q79 163 134 285l-214 -1l5 19l-6 10h227q36 79 77 177l-170 -1q-48 -80 -78 -125l-9 16l-10 4q64 101 134 232l30 -7q-56 -99 -51 -91h401l-4 -29l-209 1l-41 -90q-24 -54 -40 -87h311
l-4 -29l-252 1z" />
    <glyph glyph-name="uni501A" unicode="&#x501a;" 
d="M249 585v-653h-29v598q0 35 -2 46q-67 -102 -160 -230l-6 19l-9 6q137 192 309 463l27 -11q-83 -130 -152 -234q14 -5 22 -4zM558 714l71 119h36q-35 -59 -73 -119h301l-5 -28h-313q-59 -93 -138 -211l-16 4l-21 -8q67 99 140 215l-191 -1l5 19l-7 10h211zM602 638l22 21
l229 -161l-22 -23zM931 419h-112v-495l-62 45l33 4l-1 447q-320 0 -466 -1l5 19l-6 10h614zM627 315q-3 -91 -5 -244h-243l6 256q199 0 233 -1q9 0 9 -11zM592 300h-181v-199h181v199z" />
    <glyph glyph-name="uni501C" unicode="&#x501c;" 
d="M374 810q-94 -146 -146 -224q5 -2 13 -2v-667h-30v644q-63 -93 -149 -212l-6 19l-8 6q127 178 298 447zM865 749q8 0 8 -9q-1 -189 -7 -831l-38 29h9q5 726 6 781q-213 2 -434 0q-21 -338 -47 -788l-15 -1l-18 -18q21 345 49 836h465v1h22zM651 429h162l-3 -28
q-248 0 -362 -1l4 19l-6 10h175v125l-154 -1l5 19l-6 9h155v80q0 18 -3 30q21 -7 33 -5v-105h127l-3 -28l-124 1v-125zM740 316q8 -1 8 -11q-3 -86 -4 -229h-244l7 241zM714 289h-182v-182h182v182z" />
    <glyph glyph-name="uni501F" unicode="&#x501f;" 
d="M948 478l-5 -29q-313 2 -639 0l5 19l-7 10h184v159q-102 0 -150 -1l5 20l-6 9h151v113q0 28 -3 37q19 -6 33 -6v-144h208v129q0 29 -3 39q20 -8 33 -6v-162h144l-4 -28q-92 0 -140 1v-160h194zM375 809q-116 -168 -146 -210q3 -1 9 -1v-671h-30v642q-74 -103 -162 -219
l-6 20l-9 6q135 177 317 445zM724 478v160q-139 0 -208 -1v-159h208zM840 335q-3 -127 -6 -353h-435l9 371q351 -2 420 -3q12 0 12 -15zM435 324v-136h367v136h-367zM802 12v147q-180 2 -367 0v-147h367z" />
    <glyph glyph-name="uni5021" unicode="&#x5021;" 
d="M391 818q-70 -103 -168 -243q7 -2 16 -2v-667h-30v649q-64 -89 -158 -212l-6 20l-8 6q138 182 327 461zM813 415h-403l8 355l389 -2q12 -1 12 -15q-3 -122 -6 -338zM445 741v-129h336v129h-336zM781 445v138h-336v-138h336zM872 315q-3 -127 -6 -353h-499l9 371
q404 -2 483 -3q14 0 13 -15zM404 304v-132h429v132h-429zM833 -8v150h-429v-150h429z" />
    <glyph glyph-name="uni5025" unicode="&#x5025;" 
d="M228 593v-672h-30v640q-80 -125 -137 -209l-6 21l-8 6q134 203 299 479l28 -11l-156 -254h10zM361 658q0 15 -3 20q16 -4 33 -4h231q-12 31 -68 168l30 10l73 -178h207v-1q8 0 8 -7v-147h-29v127q-222 2 -452 0v-131h-30v143zM312 360q145 122 257 228l16 -27
q-136 -126 -259 -227l-4 20zM701 575l182 -206l-27 -16l-181 206zM934 19l-5 -29q-316 2 -644 0l5 19l-6 10h317v277q-182 0 -265 -1l6 20l-7 9h509l-4 -28h-209v-277h303z" />
    <glyph glyph-name="uni5026" unicode="&#x5026;" 
d="M224 583v-654h-30v613q-53 -96 -122 -213l-8 19l-9 6q118 204 262 483l29 -8l-130 -246h8zM946 224l-10 -7l-3 -20l-266 220l3 6h-129q-131 -161 -231 -267l-3 21l-9 7q88 96 204 239l-221 -1l5 19l-6 10h318v126q-186 0 -271 -1l5 20l-6 9h272v179q0 30 -3 40
q23 -7 33 -6v-213h243l-4 -28h-239v-126h284l-5 -29l-204 1zM688 632l-15 -1q90 110 138 177l25 -16q-59 -80 -137 -173zM499 630l-110 159l26 15l110 -158zM872 -16q28 0 47 10l-12 -38h-423q-35 0 -35 33v323q14 -7 19 -8h235q12 0 10 -11l-10 -194l-39 29l11 1l8 146
q-101 2 -206 0v-291h395z" />
    <glyph glyph-name="uni5028" unicode="&#x5028;" 
d="M235 592v-667h-30v645q-63 -93 -149 -212l-7 18l-9 6q128 177 309 462l28 -10q-89 -139 -156 -241q10 -2 14 -1zM951 377l-255 1v-142h174q10 -1 10 -12q-3 -88 -5 -236h-387l7 249q83 0 172 -1v142l-265 -1l5 19l-5 8l-40 -450l-14 -1l-19 -18q47 515 74 836h3l-1 1h459
v-2h5q8 0 8 -7v-201h-29v1h-431l-15 -157h265v107q0 22 -4 34q21 -7 33 -5v-136h260zM848 743q-202 2 -415 0l-14 -151h429v151zM844 209h-322v-190h322v190z" />
    <glyph glyph-name="uni5029" unicode="&#x5029;" 
d="M940 497l-5 -28q-346 2 -626 -1l5 20l-6 9h294v96l-226 -1l5 19l-6 10h227v96l-260 -1l5 19l-6 10h261v58q0 28 -3 38q20 -8 33 -6v-90h263l-4 -29l-259 1v-96h220l-4 -28h-216v-96h308zM369 828q-52 -81 -142 -219q3 -1 9 -1v-676h-30v646q-84 -125 -159 -228l-5 21
l-9 6q133 186 309 462zM821 393q8 0 8 -9v-457l-38 29h8v148q-177 2 -361 0v-174h-30v423q0 31 -4 47q17 -6 26 -7h391zM799 364q-177 2 -361 0v-99h361v99zM799 132v105q-177 2 -361 0v-105h361z" />
    <glyph glyph-name="uni502A" unicode="&#x502a;" 
d="M234 599v-672h-30v647q-76 -113 -151 -215l-6 19l-9 6q133 186 299 447l28 -11q-69 -108 -144 -220q5 -1 13 -1zM925 -16q21 0 40 10l-12 -38h-263q-34 0 -34 33v310h-95q-123 -190 -255 -364l-16 4l-22 -7q147 197 257 367h-133v-1h-30v369q0 31 -3 42q-5 2 13 -4
l198 119l22 -20q-189 -109 -200 -116v-141h194l-3 -29q-91 2 -191 0v-190h419v190q-91 2 -182 0l4 19l-6 10h184v178q-99 2 -197 0l5 19l-6 10h220q7 -1 7 -11v-444h-156v-315h241z" />
    <glyph glyph-name="uni502C" unicode="&#x502c;" 
d="M944 139l-5 -28l-304 1v-194h-30v194l-163 -1q-105 0 -156 -1l5 20l-7 9h321v115h-214l9 331q92 0 193 -1v228q0 21 -3 29q21 -7 33 -5v-117h312l-3 -29q-150 2 -309 0v-106l222 -2q12 0 12 -13q-3 -115 -6 -315h-216v-115h309zM250 595v-676h-29v619q0 25 -1 34
q-68 -103 -150 -215l-6 20l-9 5q128 178 299 448l28 -11q-92 -143 -145 -223q5 -1 13 -1zM427 556v-110h392v110h-392zM427 284h392v133q-193 2 -392 0v-133z" />
    <glyph glyph-name="uni502D" unicode="&#x502d;" 
d="M213 571v-658h-30v625q-49 -83 -133 -216l-7 20l-9 5q138 220 290 498l29 -10q-88 -157 -150 -264h10zM260 344q144 117 271 229l-214 -1l5 19l-7 10h273v143q-123 -22 -230 -35l-2 15l-8 9q229 34 479 84l5 -29q-100 -20 -214 -39v-148h284l-5 -29l-222 1l247 -213
l-11 -7l-4 -20l-274 240h-15v-218h-30v218h-16q-148 -132 -291 -243l-8 10zM935 256q-113 0 -174 1q-95 -95 -187 -181l300 -156l-27 -25q-161 84 -299 157q-97 -89 -148 -133l-17 6l-25 -2q94 84 160 145l-141 74l71 115q-64 -1 -185 -1l5 19l-6 10h203l55 89l29 -9
q-28 -44 -52 -80h443zM543 92q101 95 168 165h-232l-64 -98z" />
    <glyph glyph-name="uni502E" unicode="&#x502e;" 
d="M233 603v-676h-29v640q-81 -121 -155 -221l-6 19l-9 6q91 129 165 240v2q1 0 1 -1q71 108 153 237l28 -11q-102 -160 -153 -235h5zM685 277q31 -36 254 -286l-13 -4l-9 -16q-260 297 -267 306h-20v-356h-30v356h-35l4 -4q-116 -158 -256 -324l-7 16l-13 2
q134 163 241 310l-215 -1l5 19l-6 9h282v81q0 23 -1 30h-214l9 379l436 -2q13 -1 12 -16q-3 -130 -5 -361h-207v-111h293l-5 -28zM421 765v-146h178v146h-178zM804 765h-175v-146h175v146zM421 445h178v146q-121 0 -178 -1v-145zM804 445v145q-55 1 -175 1v-146h175z" />
    <glyph glyph-name="uni503A" unicode="&#x503a;" 
d="M359 834q-110 -197 -146 -257q8 -3 18 -3v-653h-29v598q0 29 -1 38q-74 -124 -135 -219l-8 16l-10 5q121 192 282 483zM941 499l-5 -29q-313 2 -639 0l5 19l-7 10h307v101l-228 -1l5 19l-6 9h229v93l-264 -1l5 19l-6 10h265v54q0 28 -3 37q19 -6 33 -6v-85h259l-4 -29
l-255 1v-93h231l-4 -28l-227 1v-101h309zM799 383v-1h5q7 0 7 -8v-258h-28v238q-169 2 -345 0v-244h-30v247q0 18 -3 30l15 -4h379zM665 304q-123 -214 -227 -375l-16 4l-21 -8q128 198 229 379h35zM651 140l238 -211l-24 -20l-238 212z" />
    <glyph glyph-name="uni503C" unicode="&#x503c;" 
d="M362 829q-96 -149 -144 -220q11 -3 16 -3v-676h-29v620q0 28 -1 37q-91 -133 -154 -219l-6 19l-8 6q127 178 298 447zM947 -1l-6 -29q-323 2 -657 0l5 19l-7 10h107v511q0 38 -4 57q13 -6 25 -8h172l9 116l-276 -1l6 19l-7 9h279l10 138h30q-6 -69 -13 -138h299l-5 -28
l-296 1l-10 -116h216q6 -1 6 -12v-548h117zM800 531q-260 0 -382 -1v-99h382v100zM418 291h382v111q-188 2 -382 0v-111zM418 147h382v115q-186 2 -382 0v-115zM800 -1v119q-188 2 -382 0v-119h382z" />
    <glyph glyph-name="uni503E" unicode="&#x503e;" 
d="M200 592q6 -1 14 -1v-658h-30v633q-57 -91 -122 -187l-6 21l-9 6q116 175 271 433l28 -11zM498 774l-7 10h427l-4 -29l-193 1l-46 -159h184q8 0 8 -10v-432h-29v413q-128 2 -262 0v-398h-29v389q0 29 -4 44q15 -5 21 -6h83l43 159l-197 -1zM517 243l-219 -170l-5 20
l-11 6l57 43v606h32v-266h145l-2 -28h-143v-288l131 98zM776 524l-248 -583l-16 2l-20 -12q151 339 249 593h35zM920 -35l-25 -19l-194 244l25 18z" />
    <glyph glyph-name="uni5043" unicode="&#x5043;" 
d="M344 813l-142 -231q4 -1 12 -1v-663h-30v636q-47 -74 -134 -205l-6 21l-8 5q116 176 280 449zM940 -31l-9 -28h-568v2h-8v740q0 51 -4 78q16 -9 24 -10h529l-4 -28q-432 0 -515 -1v-753h555zM836 270q-48 -40 -154 -123l217 -104l-27 -25q-114 55 -220 107
q-63 -48 -168 -123l-5 13l-11 8q26 20 81 60q49 36 75 56l-122 59l1 1l-2 1l47 71q-41 -1 -118 -1l5 19l-6 10h138l61 92h-147l7 257q280 -1 328 -2q9 0 9 -11q-3 -91 -5 -244h-167q3 -2 8 -4l-62 -88h330l-5 -29h-88zM514 620v-82h275v82h-275zM514 421h275v88
q-135 2 -275 0v-88zM653 161q62 47 136 110h-210l-23 -33q-11 -16 -15 -23z" />
    <glyph glyph-name="uni5047" unicode="&#x5047;" 
d="M335 838q-90 -171 -124 -234h7v-672h-29v631q-73 -134 -128 -225l-8 19l-9 6q121 209 262 484zM570 151q-93 2 -192 0v-230h-30v791q0 61 -4 83q13 -7 23 -11h220q8 0 8 -8v-258h-217v-152h183l-3 -29q-87 2 -180 0v-157h195zM632 774l-6 10h239q7 0 7 -9v-258h-242l2 19
l-2 9h214v211q-149 0 -217 -1zM566 547v209q-127 0 -188 -1v-208h188zM965 -67l-12 -3l-9 -17l-196 224q-87 -120 -161 -210l-8 12l-12 4q83 101 162 215l-141 161l20 19q73 -82 138 -157l128 185h-264l2 19l-2 9h298q20 0 8 -18q-133 -191 -151 -216q98 -112 200 -227z" />
    <glyph glyph-name="uni5048" unicode="&#x5048;" 
d="M236 592v-672h-30v639q-86 -136 -147 -225l-6 21l-8 6q136 205 300 480l27 -11q-145 -237 -145 -238h9zM885 386q8 0 8 -9q-6 -126 -26 -467l-40 29l12 1q21 369 23 418q-299 0 -438 -1q-58 -80 -125 -159l-6 18l-10 6q94 114 185 247h-94l8 314l437 -2q12 0 12 -13
q-3 -110 -6 -299h-320l-30 -43q-19 -27 -29 -40h439zM409 754v-107h384v107h-384zM409 499h384v119q-187 2 -384 0v-119zM674 334l-44 -66l153 -152l-24 -20l-147 147q-48 -71 -112 -151l-7 18l-9 6q69 90 160 228zM413 64h379v-28h-409v221q0 15 -6 27q24 -5 36 -3v-217z
" />
    <glyph glyph-name="uni504C" unicode="&#x504c;" 
d="M466 680q-5 76 -11 152l30 4q6 -78 13 -156h239q5 78 11 156h31q-7 -78 -15 -156h153l-5 -29q-98 0 -150 1l-14 -148l-24 -1q5 75 11 149h-235l11 -134l-32 -6l-10 140q-52 -1 -151 -1l5 19l-7 10h150zM237 596v-677h-30v642q-69 -110 -148 -226l-6 20l-8 7
q119 180 290 464l27 -11l-133 -219h8zM929 448l-5 -29q-122 1 -401 1q-83 -125 -192 -273l-9 12l-14 -1q96 136 180 262l-213 -1l5 19l-6 10h233q56 83 93 142l32 -5l-90 -137h387zM834 256q-3 -107 -5 -291h-388l8 306q317 -1 374 -2q11 0 11 -13zM797 243h-321v-248h321
v248z" />
    <glyph glyph-name="uni504E" unicode="&#x504e;" 
d="M362 824q-104 -172 -144 -235q4 -1 10 -1v-676h-30v644q-45 -72 -139 -211l-7 19l-8 6q135 202 290 464zM828 435h-460l9 339l444 -2q13 -1 12 -14q-3 -117 -5 -323zM404 745v-120h183v101q0 14 -1 19h-182zM795 745h-179v-120h179v120zM404 466h183v131q-124 0 -183 -1
v-130zM795 466v130l-179 1v-131h179zM600 92l12 -23l-260 -164l-3 20l-9 8q37 22 55 34v353h-99l5 19l-7 10h619l-5 -29q-146 1 -481 1v-335zM946 -73l-12 -6l-7 -18l-412 386l18 21l153 -142q79 61 162 134l15 -27q-60 -52 -155 -127z" />
    <glyph glyph-name="uni504F" unicode="&#x504f;" 
d="M400 537l-53 -598l-15 -1l-18 -18q41 457 72 820h231q-5 17 -36 102l31 5q36 -100 39 -107h206q7 0 7 -7v-196h-464zM363 836q-105 -186 -144 -253q8 -3 19 -3v-658h-30v603q0 28 -1 38q-61 -105 -137 -224l-7 19l-9 6q128 205 281 482zM416 710l-13 -144h433v144h-420z
M892 432q6 -2 6 -9v-487l-38 29h8v236h-108v-219h-30v219h-102v-208h-29v208h-103v-268h-30v457q0 33 -4 50q17 -7 27 -7h403v-1zM599 230v148q0 20 -1 26h-102v-174h103zM730 230v142q0 24 -1 32h-101v-174h102zM868 230v174h-108v-174h108z" />
    <glyph glyph-name="uni5055" unicode="&#x5055;" 
d="M366 820q-96 -149 -144 -220q4 -1 10 -1v-680h-29v651q-66 -98 -148 -211l-6 19l-9 6q128 180 298 448zM591 505l-214 -125l-4 17l-10 7l21 12v413h25v-164h189l-3 -29q-91 2 -186 0v-206l169 97zM915 445q25 0 41 10l-12 -38h-263q-35 0 -35 33v374q15 -9 28 -9v-192
q93 62 192 135l13 -28q-102 -75 -205 -141v-144h241zM828 310q-3 -127 -5 -353h-436l9 371q52 0 119 -1l39 120l30 -5l-40 -115l161 -1q90 0 111 -1q13 0 12 -15zM423 299v-137h367v137h-367zM790 -13v146q-181 2 -367 0v-146h367z" />
    <glyph glyph-name="uni505A" unicode="&#x505a;" 
d="M529 388q9 0 9 -13q-2 -115 -4 -315h-219l6 329h94v201l-123 -1l5 19l-6 10h124v169q0 30 -4 46q21 -9 34 -7v-208h149l-3 -29l-146 1v-201zM965 -59l-13 -1l-11 -15q-101 163 -191 310q-51 -132 -117 -296l-15 2l-20 -13q89 218 134 336l-100 162l22 14l90 -145
q38 98 117 310q-132 0 -193 -1q-48 -126 -95 -236l-11 16l-10 3q68 162 169 446l29 -5l-71 -195h270l-3 -29h-52q-81 -209 -132 -338zM330 813l-62 -108q-36 -64 -57 -99q5 -2 14 -2v-671h-30v645q-74 -126 -131 -217l-7 21l-8 6q108 176 254 435zM504 361h-157v-271h157
v271z" />
    <glyph glyph-name="uni505C" unicode="&#x505c;" 
d="M365 820q-71 -118 -155 -254q4 -1 11 -1v-658h-29v630q-81 -125 -140 -213l-6 21l-8 6q131 198 300 480zM924 700l-5 -28q-511 0 -608 -1l5 20l-6 9h296l-40 122l31 5l42 -127h285zM791 599q9 0 9 -9q-3 -59 -5 -149h-380l7 159zM764 573h-316v-102h316v102zM898 356
q6 -1 6 -7v-160h-29v139q-366 0 -538 -1v-121h-29v134q0 12 -3 19l18 -3h575zM394 213h431l-3 -29l-173 1v-278l-61 45l31 3v230q-153 0 -223 -1l5 19z" />
    <glyph glyph-name="uni5065" unicode="&#x5065;" 
d="M203 608v-667h-30v640q-68 -123 -121 -213l-8 19l-9 5q103 179 253 469l29 -9l-66 -125q-40 -76 -63 -118q11 -2 15 -1zM934 -65q-390 160 -563 230q-42 -112 -80 -204l-14 6l-13 -1q39 93 82 210l-106 43l11 24l104 -42l84 233h-123q-1 0 -1 -1h-33q60 107 147 273
q-74 2 -147 0l5 19l-6 10h180q8 0 10 -6q1 -5 -2 -10q-59 -105 -138 -256h138q13 0 8 -14l-96 -259l280 -114v126l-182 -1l5 19l-6 10h183v103l-161 -1l5 19l-6 10h162v89h-143l3 18l-3 10h143v99l-188 -1l5 19l-6 10h189v106l-150 -1l5 19l-6 10h151v42q0 49 -4 76
q20 -13 34 -11v-107h143q8 0 8 -9v-125h93l-4 -29h-89v-126h-151v-89h175l-3 -28h-172v-103h195l-4 -29l-191 1v-138l249 -101l-8 -10zM691 605h122v105l-122 1v-106zM691 478h122v99h-122v-99z" />
    <glyph glyph-name="uni506C" unicode="&#x506c;" 
d="M284 518q93 149 184 317l32 -6l-70 -122h441q9 0 9 -9l-21 -416l-39 28l12 1q15 320 18 368h-65q-54 -90 -139 -222l129 -67l-16 -28l-130 69l-66 -98l-10 12l-15 -2l66 101l-112 59q-23 -29 -116 -142l-8 15l-14 1q84 104 112 140l-53 28l16 26l56 -29q43 54 105 138
l-90 -1q-58 0 -87 -1q-70 -117 -105 -171l-10 12zM324 817l-119 -209q4 -1 12 -1v-667h-30v637q-79 -134 -138 -226l-8 20l-8 5q122 197 263 451zM627 680q-53 -74 -116 -152l110 -58q59 91 130 210h-124zM549 275l27 14l127 -170l-28 -14zM767 10q41 0 61 10l-12 -39h-345
q-35 0 -35 34v234q17 -9 35 -9v-230h296zM939 37l-29 -12l-112 211l29 11zM365 244l21 -15l-121 -223l-8 20l-11 3z" />
    <glyph glyph-name="uni5076" unicode="&#x5076;" 
d="M237 573v-663h-30v638q-77 -113 -146 -207l-6 18l-9 6q131 183 308 463l29 -11q-94 -146 -159 -243q5 -1 13 -1zM865 325q10 0 10 -9q-2 -149 -4 -416l-38 29h8q3 317 4 367l-220 1v-164l106 20l-35 86l29 10l82 -199l-30 -10l-36 88l-301 -61l1 17l-8 11l159 31v171
q-144 0 -211 -1v-388h-30v381q0 32 -3 43q19 -7 33 -7v-1h211v118h-207l8 322l421 -2q12 -1 12 -14q-3 -112 -6 -306h-195v-118h220v1h20zM420 735v-117h172v72q0 34 -2 45h-170zM788 735h-163v-117h163v117zM788 472v118h-163v-118h163zM592 472v118q-117 0 -172 -1v-117
h172z" />
    <glyph glyph-name="uni5077" unicode="&#x5077;" 
d="M214 579v-644h-30v590q0 33 -1 43q-64 -107 -122 -198l-7 19l-9 5q109 175 263 451l28 -9q-82 -147 -145 -253q14 -6 23 -4zM943 520l-11 -6l-4 -19l-362 283q-129 -160 -236 -277l18 -6h231q8 0 8 -9v-558l-37 29h8v212q-97 2 -198 0v-233h-29v511q0 33 -3 52l-35 -38
l-6 15l-11 6q155 169 304 363l30 -11l-28 -35zM487 608h249l-3 -29q-120 2 -244 0l4 19zM819 503h30v-577l-60 44l30 4v529zM716 470v-372h-30v339q0 29 -3 39q20 -8 33 -6zM558 467q-98 2 -198 0v-127h198v127zM558 198v113q-98 2 -198 0v-113h198z" />
    <glyph glyph-name="uni507B" unicode="&#x507b;" 
d="M258 377q136 105 251 203l-199 -1l5 19l-6 10h268v184q0 35 -4 47q21 -9 34 -7v-224h293l-5 -29l-213 1l235 -199l-12 -7l-6 -17l-260 223h-32v-207h-30v207h-26q-139 -118 -272 -218l-9 10zM341 827q-102 -180 -145 -253q5 -1 14 -1v-644h-30v617q-54 -93 -123 -200
l-8 19l-9 5q122 196 273 467zM687 648l-12 4q73 87 129 162l20 -24q-46 -62 -130 -161zM490 630l-110 159l27 13l111 -158zM925 273q-105 0 -161 1q-140 -132 -193 -179l281 -135l-26 -25q-146 71 -282 136q-75 -67 -148 -129l-16 7l-26 -2q99 85 159 139q-154 75 -157 75
q0 1 -2 1q32 56 63 112q-53 -1 -154 -1l5 19l-6 10h171q31 54 62 110l29 -9l-60 -101h466zM539 110q100 89 174 164h-265l-56 -94z" />
    <glyph glyph-name="uni507E" unicode="&#x507e;" 
d="M578 815q0 22 -3 30q16 -5 33 -5v-113h260l-5 -28l-255 1v-137h-30v137l-250 -1l5 19l-6 9h251v88zM339 829q-72 -138 -125 -236q11 -3 16 -3v-680h-29v623q0 25 -1 34q-50 -93 -134 -237l-8 19l-9 5q103 178 262 484zM936 522l-6 -28q-110 0 -168 1v-80h-30v80
q-185 0 -276 -1v-79h-30v79l-140 -1l5 20l-6 9h141v94q0 17 -3 26q22 -5 33 -4v-116h276v98q0 17 -3 27q16 -5 33 -5v-120h174zM383 81v255q0 19 -3 31l20 -4h382v1h23q8 0 8 -9v-267h-29v247q-181 2 -371 0v-254h-30zM674 305q-122 -203 -249 -390l-16 4l-21 -8
q138 203 251 394h35zM646 125l238 -210l-24 -20l-238 211z" />
    <glyph glyph-name="uni507F" unicode="&#x507f;" 
d="M236 592v-677h-30v644q-84 -132 -144 -219l-6 19l-9 6q126 189 290 464l28 -10q-77 -127 -139 -227h10zM607 793q0 22 -3 30q21 -7 33 -5v-259h263v-1q7 0 7 -7v-165h-28v143h-522v-139h-30v151q0 16 -3 21q14 -3 22 -3h261v234zM721 608l-11 3q68 95 120 178l22 -21
q-68 -104 -123 -178zM474 586l-78 173l29 10l78 -173zM411 372v29h408l-9 -29h-399zM565 224q-105 -155 -164 -238h426l-128 162l26 15l185 -231l-27 -16l-32 40h-470v1h-11q-10 0 -13 6t2 13q32 51 84 125q62 89 84 123h-224v29h618l-9 -29h-347z" />
    <glyph glyph-name="uni5080" unicode="&#x5080;" 
d="M580 339q-134 -238 -241 -415l-16 4l-21 -9q129 208 242 420h-168l9 388q66 0 148 -1l53 127l28 -8l-53 -119l163 -1q89 0 112 -1q13 0 13 -15q-3 -133 -6 -370h-263zM374 836q-91 -150 -136 -222q4 -1 9 -1v-689h-30v655q-66 -105 -156 -238l-7 20l-8 6q139 208 300 480
zM412 698v-150h178v125q0 19 -1 25h-177zM810 698h-191v-150h191v150zM810 370v150h-191v-150h191zM412 370h178v150l-178 -1v-149zM918 -22q26 0 42 10l-12 -38h-295q-34 0 -34 33v323q15 -9 27 -9v-319h272zM709 113v1h-15q-18 0 -11 17q14 37 36 88q30 67 38 87l30 -5
q-36 -90 -67 -158h93q-19 41 -37 82l29 10l72 -161l-29 -10l-22 49h-117z" />
    <glyph glyph-name="uni5085" unicode="&#x5085;" 
d="M231 587v-667h-30v611q0 36 -1 47q-54 -85 -149 -226l-6 20l-9 5q136 205 290 465l28 -11q-115 -190 -146 -240q13 -5 23 -4zM613 785q0 36 -4 56q18 -9 33 -9v-118h293l-4 -29q-140 2 -289 0v-84h222q9 0 9 -9v-352h-29v95h-202v-65h-29v65l-203 -1v-93h-30v327
q0 28 -3 37l16 -4h220v84q-145 2 -290 0l5 19l-6 10h291v71zM826 723l-87 87l25 17l88 -87zM642 573v-89h202v89h-202zM410 484h203v89q-139 0 -203 -1v-88zM613 363v93q-138 0 -203 -1v-92h203zM844 363v92q-63 1 -202 1v-93h202zM952 160l-210 1v-243l-62 45l32 3v195
q-156 0 -418 -2l5 20l-6 9h419v75h30v-75h215zM440 147l179 -127l-19 -24l-179 128z" />
    <glyph glyph-name="uni5088" unicode="&#x5088;" 
d="M861 402h-523l8 216h165v124l-199 -1l5 19q-2 4 -4 6q-65 -115 -106 -185q12 -3 18 -2v-658h-29v602q0 29 -1 38q-68 -115 -138 -224l-8 16l-10 5q119 189 281 483l30 -8l-36 -64h602l-5 -28l-205 1v-125h151q10 0 10 -11q-3 -77 -6 -204zM541 618q45 -1 136 -1v125h-136
v-124zM373 432h138v158h-138v-158zM674 432v158h-133v-158h133zM829 590h-125v-158h125v158zM950 -15l-7 -10l-1 -24l-307 286q9 8 14 14h-26v-332h-29v332h-9q-145 -169 -300 -325l-9 9l-15 3q174 183 285 313l-252 -1l5 19l-6 10h301v75q0 32 -4 48q19 -7 33 -7v-116h316
l-5 -29l-273 1z" />
    <glyph glyph-name="uni508D" unicode="&#x508d;" 
d="M608 716l-57 120l29 10q59 -121 64 -130h230l-4 -28q-258 2 -526 0l5 19l-6 9h265zM212 582v-653h-30v626q-87 -136 -134 -204l-6 21l-8 6q136 205 290 464l27 -11q-94 -158 -151 -248q4 -1 12 -1zM838 380v116q-227 2 -463 0v-99h-30v113q0 13 -2 18l19 -4v1h287
q56 90 84 144l24 -15q-30 -58 -75 -129h177q7 0 7 -7v-138h-28zM533 537l-30 -10l-59 123l29 10zM915 320q-193 2 -409 0l-31 -104h304q8 -1 8 -10q-5 -91 -14 -295l-38 29h11l11 247q-144 2 -291 0l-76 -252l-15 2l-20 -14q69 219 117 397q-112 0 -165 -1l5 20l-6 9h314
l-53 120l29 10l58 -130h266z" />
    <glyph glyph-name="uni50A3" unicode="&#x50a3;" 
d="M934 243l-12 -6l-5 -19l-228 206l2 3h-221q-84 -150 -141 -244l-9 15l-11 3q78 135 129 226q-47 -1 -138 -1l5 19l-7 10h156q44 80 65 120l-148 -1l5 19l-7 10h166q11 19 31 58l31 57l-134 -1q-87 0 -129 -1l5 20l-6 9h278q53 98 62 116l31 -7l-59 -109h252l-5 -28
l-262 1q-31 -59 -62 -115h310l-4 -29q-98 1 -322 1q-31 -60 -66 -120h440l-5 -28h-195zM372 843q-89 -162 -147 -258q4 -1 10 -1v-649h-30v615q-56 -94 -126 -203l-7 17l-10 6q123 197 281 482zM603 364h30v-436l-61 40l31 4v392zM795 284q-50 -58 -104 -112l-5 20l-12 5
q72 76 103 113zM582 170l-26 -18l-137 132l25 18zM669 174l216 -153l-18 -24l-217 154zM594 123l-289 -157l-1 21l-9 9l289 151z" />
    <glyph glyph-name="uni50A5" unicode="&#x50a5;" 
d="M220 601v-672h-30v635q-65 -110 -132 -215l-7 19l-9 5q128 205 272 467l28 -10q-109 -193 -130 -229h8zM321 587q0 13 -3 20q23 -4 32 -3v-1h247v209q0 19 -4 28q16 -5 33 -5v-232h260q6 0 6 -7v-160h-28v139q-284 2 -514 -1v-129h-29v142zM708 649l-11 3q67 88 118 162
l21 -22q-53 -77 -120 -162zM476 631l-101 146l27 13l102 -146zM927 -4q24 0 40 10l-12 -38h-262q-34 0 -34 33v238h-119q-112 -165 -214 -294l-16 5l-22 -7q115 149 216 296h-103l8 225l391 -2q10 0 10 -11q-3 -80 -6 -212h-117v-243h240zM435 269h338v167h-338v-167z" />
    <glyph glyph-name="uni50A7" unicode="&#x50a7;" 
d="M345 725q0 13 -3 20l19 -3h235l-39 98l29 9l43 -107h237v-1h3q7 0 7 -7v-169h-28v148h-474v-139h-29v151zM207 605v-667h-30v635q-64 -94 -131 -186l-6 20l-9 5q117 165 289 432l27 -11q-81 -126 -149 -228h9zM927 215l-9 -30h-637v30h142v296q0 24 -3 37q9 -3 21 -5
l298 108l13 -24q-286 -100 -299 -105v-94h418l-9 -29h-155v-184h220zM453 215h225v184h-225v-184zM689 160l198 -205l-26 -17l-198 205zM294 -44q115 113 194 199l19 -23q-81 -90 -194 -197l-6 17z" />
    <glyph glyph-name="uni50A8" unicode="&#x50a8;" 
d="M945 480q-79 1 -257 1q-49 -58 -97 -111q175 0 251 -2q11 0 11 -15q-3 -129 -5 -362h-283l7 357q-74 -81 -134 -142l-6 17l-12 4q133 142 228 254l-202 -1l5 19l-6 10h169v164l-134 -1l5 18l-6 10h135v106q0 27 -3 36q19 -6 33 -6v-136h161l-4 -28l-157 1v-164h33
q150 166 240 279l21 -23q-85 -105 -223 -256h234zM218 586v-658h-30v632q-48 -88 -130 -228l-8 19l-8 6q98 168 262 484l28 -9q-79 -152 -129 -244q10 -3 15 -2zM314 755l27 13l136 -182l-28 -15zM490 161l14 -21l-186 -136l-4 19l-11 7l55 39v382q-49 2 -95 0l4 18l-6 10
h117q9 0 9 -10v-380zM598 342v-138h219v138h-219zM817 22v154h-219v-154h219z" />
    <glyph glyph-name="uni50A9" unicode="&#x50a9;" 
d="M180 593q10 -3 15 -2v-672h-29v643q-70 -148 -115 -237l-9 19l-9 5q107 218 224 488l29 -8zM937 63l-4 -29q-157 2 -323 0v-117h-30v640q0 29 -1 39q-47 -101 -86 -178l-9 18l-10 4q80 162 174 378l29 -7q-50 -113 -79 -175h320l-4 -28l-133 1v-163h112l-3 -29l-109 1
v-148h121l-4 -29l-117 1v-179h156zM793 655l-89 147l28 11l90 -146zM388 329l118 -284l-29 -13l-104 252q-49 -154 -101 -301l-14 8h-12q43 121 110 335l-86 209l27 11l73 -175l87 285h-187l2 19l-2 9h189v1h25q14 0 9 -16zM590 619h1l1 5zM751 446v120q0 33 -1 43
q-95 0 -140 -1v-162h141zM751 418q-96 0 -141 -1v-147h141v148zM610 63h141v179q-96 0 -141 -1v-178z" />
    <glyph glyph-name="uni50AC" unicode="&#x50ac;" 
d="M387 772q0 13 -5 23q20 -3 35 -3v-145h201v170q0 18 -3 24q16 -4 33 -4v-190h187v137q0 13 -3 22q22 -5 33 -4v-182h-13v-1h-465v153zM224 597v-677h-30v644q-91 -142 -140 -213l-7 19l-9 6q129 194 291 464l28 -10q-79 -131 -142 -233h9zM949 25l-5 -29q-247 2 -510 0
v-73h-30v506q-61 -103 -105 -170l-9 14l-11 4q81 126 189 327l31 -7l-68 -122h253l-50 126l29 9l55 -135h185l-4 -28l-218 1v-124h225l-5 -29l-220 1v-114h216l-4 -28l-212 1v-130h268zM652 324v96q0 21 -1 28q-148 0 -217 -1v-123h218zM434 182h218v114q-149 0 -218 -1
v-113zM434 25h218v130q-149 0 -218 -1v-129z" />
    <glyph glyph-name="uni50B2" unicode="&#x50b2;" 
d="M958 -31h-13l-11 -14l-165 284l-106 -292l-15 2l-20 -13q64 169 123 334q-101 174 -106 180q-12 -38 -19 -58l-13 18l-9 3q59 178 135 449l29 -4q-27 -97 -62 -216h248l-3 -29h-47q-37 -101 -123 -341zM480 587h122l-3 -28l-119 1v-108h111l-3 -29q-58 1 -190 1l-8 -54
q-6 -37 -8 -54h193q11 0 9 -10l-14 -345l-39 28l11 1l12 297q-86 2 -176 0l-47 -313h-15l-18 -16q42 271 68 466l-100 -1l5 19l-6 10h185v108l-150 -1l5 19l-6 9h151v93l-163 -1l5 19l-6 10h164v105q0 32 -3 43q20 -8 33 -6v-142h155l-3 -28h-152v-93zM207 604v-658h-30v603
q0 25 -1 33q-52 -90 -127 -209l-8 19l-9 5q118 190 254 436l29 -10q-45 -79 -125 -217q11 -3 17 -2zM763 303q68 194 107 311q-118 0 -173 -1q-30 -98 -48 -152q7 4 15 10z" />
    <glyph glyph-name="uni50BA" unicode="&#x50ba;" 
d="M280 295q55 73 121 168q-18 14 -79 66l21 21l75 -62l48 72l-84 70l21 22l80 -68l85 129h-176q-50 -103 -115 -217l-10 13l-10 4q68 124 164 330l30 -6l-46 -96h197q19 0 8 -17q-189 -284 -303 -436l-13 7h-14zM210 621v-690h-30v655q-48 -94 -122 -233l-9 19l-9 5
q96 178 228 455l29 -8q-47 -97 -99 -202q4 -1 12 -1zM918 312l-13 -1l-11 -15l-309 501l22 14q37 -59 50 -81h202v2h28q7 0 9 -5t-2 -9q-23 -25 -65 -75q-44 -51 -69 -78zM675 702l72 -116q58 64 98 116q-83 2 -170 0zM734 384q-179 0 -262 -1l4 19l-6 10h267zM883 246
q-86 1 -278 1v-325l-61 44l32 4v277l-128 -1q-83 0 -123 -1l5 20l-6 9h563zM467 201l18 -19l-186 -232l-4 24l-10 6zM719 184l186 -192l-27 -18l-185 194z" />
    <glyph glyph-name="uni50BB" unicode="&#x50bb;" 
d="M374 744h135l55 107l28 -9q-37 -68 -54 -98l187 -1q103 0 126 -1q12 0 12 -13q-3 -107 -6 -291h-491zM240 601v-676h-30v645q-62 -100 -143 -218l-6 19l-9 6q129 194 290 465l28 -11q-116 -192 -140 -230h10zM402 468h423v248h-423v-248zM636 591l127 -83l-21 -24
l-135 90q-88 -54 -137 -81l-4 18l-9 6l124 74q-51 33 -106 70l21 22l113 -74q96 60 141 89l12 -27zM739 427l214 -180l-24 -20l-214 181zM487 387q-107 -75 -200 -131l-5 15l-13 5q108 68 202 135zM632 113l316 -167l-9 -9l-1 -18q-185 99 -326 173q-78 -66 -209 -167l-2 19
l-11 7q127 99 194 157l-121 64l14 23l130 -68q69 53 151 123h-266q-57 -70 -141 -164l-8 12h-16q132 154 246 300l32 -8q-38 -50 -89 -111h289q10 0 12 -8t-5 -14q-75 -63 -180 -144z" />
    <glyph glyph-name="uni50CF" unicode="&#x50cf;" 
d="M953 -45l-12 -3l-9 -16l-215 297l-68 -44q3 -142 -35 -280q-20 18 -31 31h11q26 96 26 217q-185 -132 -321 -218l-7 11l-13 5q154 100 341 235l-1 29q-1 35 -9 70q-179 -116 -314 -192l-6 12l-11 6q121 71 325 202q-9 37 -30 82q-191 -107 -289 -154l-3 16l-11 6
q76 38 270 146h-173l8 176q152 0 288 -1q39 59 64 108q-178 0 -262 -1q-97 -113 -199 -216l-5 16l-10 7q137 143 277 315l30 -11l-68 -82h278q17 0 8 -14q-14 -21 -38 -60q-26 -43 -39 -62l164 -1q9 0 9 -9q-3 -64 -6 -165h-271q48 -89 52 -191v-1q99 67 214 151l13 -27
q-59 -44 -137 -97q24 -32 215 -293zM215 570v-658h-30v619q-80 -147 -137 -241l-7 20l-9 6q116 201 271 499l27 -10l-124 -235h9zM403 443h196v118h-196v-118zM836 561h-208v-118h208v118z" />
    <glyph glyph-name="uni50D6" unicode="&#x50d6;" 
d="M592 801q0 18 -4 29q21 -7 33 -5v-113h283l-5 -29l-278 1v-98h266l-4 -29q-270 2 -549 0l5 19l-6 10h259v98l-260 -1l6 19l-7 10h261v89zM226 582v-658h-30v627q-100 -137 -150 -201l-5 21l-8 6q137 181 316 446l27 -13q-80 -117 -158 -228h8zM939 241l-5 -28
q-359 2 -649 -1l6 20l-7 9h224q-16 26 -54 91l29 11l61 -102h117q47 62 76 107h-359l8 143l457 -1q8 0 8 -8q-3 -54 -6 -134h-96l13 -15q-32 -49 -64 -92h241zM412 378h403v86h-403v-86zM856 130q-3 -64 -6 -165h-491l8 176q418 -1 479 -2q10 0 10 -9zM819 113h-425v-118
h425v118z" />
    <glyph glyph-name="uni50DA" unicode="&#x50da;" 
d="M233 595v-676h-30v642q-82 -128 -151 -230l-7 19l-9 6q136 203 300 480l28 -10q-95 -159 -140 -231h9zM929 421l-9 -9l-2 -22l-304 283l8 9h-45q-64 -83 -149 -186q267 0 367 -2q11 0 11 -12q-3 -102 -6 -276h-175v-295l-61 45l31 3v247h-190q7 238 7 271
q-64 -78 -106 -126l-6 17l-11 4q73 87 139 169l-88 83l22 20q63 -58 85 -79q48 59 93 117l-208 -1l5 19l-7 10h232q31 40 93 122l34 -6q-98 -127 -89 -116h321l-4 -29l-273 1l130 -119q65 61 91 88l20 -21q-36 -37 -90 -86zM439 468v-99h330v99h-330zM769 236v105
q-224 0 -330 -1v-104h330zM730 166l170 -193l-25 -19l-169 194zM479 154l21 -16l-193 -216l-9 17l-13 3z" />
    <glyph glyph-name="uni50E6" unicode="&#x50e6;" 
d="M471 692l-56 140l29 9l61 -148l-3 -1h152l-4 -28q-172 2 -353 0l5 19l-6 9h175zM929 527q-65 1 -213 1l-69 -589l-15 -1l-19 -17q44 358 72 607q-22 -1 -64 -1l5 19l-6 10h69q6 47 16 139l16 139h33q-16 -122 -34 -278h212zM211 597v-667h-29v631q-62 -113 -129 -225
l-8 18l-9 5q100 172 254 468l28 -8l-116 -222h9zM901 613l-119 145l26 17l118 -144zM459 320v-394l-58 34l29 3v357h-102l7 240q206 0 241 -1q8 0 8 -11q-2 -86 -4 -228h-121zM360 350h190v183h-190v-183zM934 -7q20 0 37 10l-12 -38h-136q-35 0 -35 32v510q17 -9 28 -9
v-505h118zM376 275l23 -12l-145 -231l-11 14l-13 2zM623 128l-28 -15l-83 147l27 14z" />
    <glyph glyph-name="uni50E7" unicode="&#x50e7;" 
d="M350 817q-115 -191 -136 -224q5 -1 13 -1v-676h-30v650q-76 -119 -150 -228l-7 19l-9 6q110 163 291 464zM841 658q12 0 11 -12q-3 -104 -6 -283h-523l9 298q69 0 156 -1q-2 5 -77 146l29 11l78 -147l-24 -10q99 0 148 -1l110 166l33 -7l-111 -159zM359 393h216v239h-216
v-239zM814 632h-209v-239h209v239zM651 420q61 102 93 164l26 -12q-32 -61 -92 -159l-13 11zM531 434l-28 -13l-92 134l28 13zM807 277q12 -1 12 -14q-3 -115 -6 -315h-443l8 331zM406 250v-118h375v118h-375zM781 -21v124h-375v-124h375z" />
    <glyph glyph-name="uni50EC" unicode="&#x50ec;" 
d="M408 596q-51 -84 -88 -137l-10 9l-13 3q93 142 208 359l32 -5q-43 -80 -89 -160h246q-3 8 -70 157l29 10l73 -160l-19 -7h215l-4 -28l-238 1v-122h210l-4 -29l-206 1v-122h214l-5 -28l-209 1v-135h257l-5 -28q-336 0 -495 -1v-30h-29v451zM367 813q-81 -136 -132 -218
q4 -2 12 -2v-676h-29v650q-82 -129 -164 -247l-7 16l-10 5q129 190 300 481zM650 638l-111 -1q-72 0 -107 -1l-6 -10h11v-110h213v122zM650 366v122q-146 0 -213 -1v-121h213zM650 204v135q-145 0 -213 -1v-134h213zM701 123l69 -187l-29 -12l-68 187zM572 122l39 -188
l-31 -11l-38 189zM943 -63l-28 -15l-98 186l27 14zM435 113l24 -9l-90 -198l-13 11h-14z" />
    <glyph glyph-name="uni50ED" unicode="&#x50ed;" 
d="M426 581q-45 -126 -88 -241l-15 2l-20 -12q51 135 93 251h-90l12 118q1 13 0 18q21 -2 32 -1l-12 -106h68q29 83 48 145q-101 0 -147 -1l4 19l-5 9l-83 -134q4 -1 11 -1v-699h-29v669q-90 -142 -162 -249l-7 21l-8 6q115 172 281 448l27 -11l-30 -49h271l-3 -29l-86 1
l-52 -145h157l-9 -29h-158zM628 693q2 14 0 18q20 -4 32 -2l-15 -101h59q27 76 52 153l-134 -1l5 19l-6 9h275l-3 -28l-103 1q-10 -26 -28 -78q-18 -50 -28 -75h164l-9 -29h-165l-86 -235l-15 2l-19 -12q57 151 90 245l-84 -1zM518 416q42 32 87 65l15 -22l-151 -117l-4 21
l-10 6l38 28v154h25v-135zM900 373q19 0 34 9l-11 -38h-134q-34 0 -34 33v171q13 -8 28 -10v-165h117zM843 276l-3 -119h1l-1 -6q-2 -89 -3 -174h-483l8 314q397 -1 469 -2q12 0 12 -13zM390 263v-106h415v106h-415zM805 7v122q-231 2 -415 -1v-121h415z" />
    <glyph glyph-name="uni50EE" unicode="&#x50ee;" 
d="M230 583v-677h-30v646q-57 -91 -146 -223l-7 19l-9 6q127 190 300 480l28 -10l-146 -241h10zM612 720l-56 107l30 7q52 -100 60 -114h223l-4 -28q-344 0 -504 -1l5 19l-6 10h252zM934 535q-418 0 -613 -1l5 20l-6 9h185l-55 98l29 11l62 -109h142q29 52 68 127l23 -19
q-18 -36 -58 -108h223zM945 -17l-5 -29q-323 2 -658 0l5 19l-6 10h326v97l-256 -1l5 19l-7 10h258v84h-236l9 274l461 -2q13 0 11 -12q-3 -96 -5 -260h-211v-84h245l-4 -29l-241 1v-97h309zM407 438v-95h199v95h-199zM815 438h-179v-95h179v95zM407 223h199v92
q-136 0 -199 -1v-91zM815 223v91l-179 1v-92h179z" />
    <glyph glyph-name="uni50F3" unicode="&#x50f3;" 
d="M212 592q11 -3 17 -2v-667h-30v645q-90 -150 -141 -230l-7 19l-9 5q123 199 272 467l28 -10zM661 194q11 -8 284 -223l-10 -8l-2 -21l-291 233q8 13 11 19h-37v-276h-29v276h-16q-132 -141 -274 -272l-10 9l-14 3q149 142 260 260l-242 -1l6 19l-7 10h297v144q0 32 -4 48
h-248l8 208q73 0 165 -1v117l-194 -1l5 19l-6 9h595l-5 -28l-203 1v-118h154q10 0 10 -10q-3 -75 -6 -196h-273q19 -8 31 -6v-186h306l-5 -29zM537 621h133v117h-133v-117zM370 443h138v151h-138v-151zM537 594v-151h133v151h-133zM826 594h-126v-151h126v151zM678 255
q68 86 111 148l23 -18q-44 -63 -111 -145l-10 15h-13zM505 254l-28 -15l-96 121l27 14z" />
    </font>
</defs>
</svg>
