<?xml version="1.0" standalone="no"?>
<!DOCTYPE svg PUBLIC "-//W3C//DTD SVG 1.1//EN" "http://www.w3.org/Graphics/SVG/1.1/DTD/svg11.dtd" >
<svg xmlns="http://www.w3.org/2000/svg" xmlns:xlink="http://www.w3.org/1999/xlink" version="1.1">
<metadata>
Created by FontForge 20201107 at Mon Sep 14 19:53:40 2020
 By www-data
Copyright (c) Beijing Tsanger Character Technology Co., Ltd.. All rights reserved.
</metadata>
<defs>
<font id="TsangerXWZ" horiz-adv-x="1000" vert-adv-y="1000" >
  <font-face 
    font-family="TsangerXWZ"
    font-weight="400"
    font-stretch="normal"
    units-per-em="1000"
    panose-1="2 2 4 0 0 0 0 0 0 0"
    ascent="880"
    descent="-120"
    x-height="523"
    cap-height="713"
    bbox="-6 -184 1005 923"
    underline-thickness="50"
    underline-position="-100"
    unicode-range="U+0001-FFE5"
  />
<missing-glyph horiz-adv-x="500" 
 />
    <glyph glyph-name=".notdef" horiz-adv-x="500" 
 />
    <glyph glyph-name="uni0001" horiz-adv-x="250" 
 />
    <glyph glyph-name="uni0001" unicode=" " horiz-adv-x="250" 
 />
    <glyph glyph-name="uni0001" horiz-adv-x="250" 
 />
    <glyph glyph-name="uni0001" horiz-adv-x="250" 
 />
    <glyph glyph-name="uni0001" horiz-adv-x="250" 
 />
    <glyph glyph-name="uni0001" horiz-adv-x="250" 
 />
    <glyph glyph-name="uni0001" horiz-adv-x="250" 
 />
    <glyph glyph-name="uni0001" horiz-adv-x="250" 
 />
    <glyph glyph-name="uni0001" horiz-adv-x="250" 
 />
    <glyph glyph-name="uni0001" horiz-adv-x="250" 
 />
    <glyph glyph-name="uni0001" horiz-adv-x="250" 
 />
    <glyph glyph-name="uni0001" horiz-adv-x="250" 
 />
    <glyph glyph-name="uni0001" horiz-adv-x="250" 
 />
    <glyph glyph-name="uni0001" horiz-adv-x="250" 
 />
    <glyph glyph-name="uni0001" horiz-adv-x="250" 
 />
    <glyph glyph-name="uni0001" horiz-adv-x="250" 
 />
    <glyph glyph-name="uni0001" horiz-adv-x="250" 
 />
    <glyph glyph-name="uni0001" horiz-adv-x="250" 
 />
    <glyph glyph-name="uni0001" horiz-adv-x="250" 
 />
    <glyph glyph-name="uni0001" horiz-adv-x="250" 
 />
    <glyph glyph-name="uni0001" unicode="&#xd;" horiz-adv-x="250" 
 />
    <glyph glyph-name="uni0001" horiz-adv-x="250" 
 />
    <glyph glyph-name="uni0001" horiz-adv-x="250" 
 />
    <glyph glyph-name="uni0001" unicode="&#xa;" horiz-adv-x="250" 
 />
    <glyph glyph-name="uni0001" unicode="&#x9;" horiz-adv-x="250" 
 />
    <glyph glyph-name="uni0001" horiz-adv-x="250" 
 />
    <glyph glyph-name="uni0001" horiz-adv-x="250" 
 />
    <glyph glyph-name="uni0001" horiz-adv-x="250" 
 />
    <glyph glyph-name="uni0001" horiz-adv-x="250" 
 />
    <glyph glyph-name="uni0001" horiz-adv-x="250" 
 />
    <glyph glyph-name="uni0001" horiz-adv-x="250" 
 />
    <glyph glyph-name="uni0001" horiz-adv-x="250" 
 />
    <glyph glyph-name="uni0001" horiz-adv-x="250" 
 />
    <glyph glyph-name="exclam" unicode="!" horiz-adv-x="310" 
d="M225 -1h-149l1 149h148v-149zM238 815l-11 -531h-148l-7 531h166z" />
    <glyph glyph-name="quotedbl" unicode="&#x22;" horiz-adv-x="500" 
d="M451 811l-28 -282h-111l-28 282h167zM212 811l-28 -282h-111l-28 282h167z" />
    <glyph glyph-name="numbersign" unicode="#" horiz-adv-x="627" 
d="M381 472h-133l-20 -154h134zM478 472l-20 -154h109v-89h-120l-29 -229h-96l28 229h-133l-29 -229h-96l29 229h-97v89h108l19 154h-99v89h110l26 203h97l-26 -203h133l25 203h98l-26 -203h106v-89h-117z" />
    <glyph glyph-name="dollar" unicode="$" horiz-adv-x="649" 
d="M267 631h-60v-197l60 -17v214zM385 294v-210h62v192zM481 441v190h-96v-249l186 -55v-324h-186v-121h-118v121h-214v234h136v-153h78v246l-187 57v325h187v138h118v-138h211v-271h-115z" />
    <glyph glyph-name="percent" unicode="%" horiz-adv-x="829" 
d="M197 732v-250h101v250h-101zM67 799h277v-385h-277v385zM702 812l-469 -822h-107l469 822h107zM716 66v250h-101v-250h101zM762 -2h-276v385h276v-385z" />
    <glyph glyph-name="ampersand" unicode="&#x26;" horiz-adv-x="785" 
d="M455 161l-149 108l-86 -58v-127h170zM342 405l103 68v158h-234v-134zM696 -13l-155 112l-81 -96h-376v234h2l139 91l-141 102v282h476v-271l-138 -93l120 -85l131 155l85 -64l-129 -152l139 -99z" />
    <glyph glyph-name="quotesingle" unicode="'" horiz-adv-x="756" 
d="M237 797l-28 -237h-112l-27 237h167z" />
    <glyph glyph-name="parenleft" unicode="(" horiz-adv-x="452" 
d="M380 -79q-187 203 -187 460q0 264 187 461l52 -36q-143 -171 -143 -425q0 -243 144 -425z" />
    <glyph glyph-name="parenright" unicode=")" horiz-adv-x="453" 
d="M22 -44q143 172 143 425q0 243 -144 425l53 36q186 -202 186 -461q0 -265 -186 -460z" />
    <glyph glyph-name="asterisk" unicode="*" horiz-adv-x="500" 
d="M343 367l94 -103l-116 -84l-71 124l-70 -123l-116 85l92 100l-139 29l44 136l127 -58l-14 128h144l-15 -130l134 60l44 -136z" />
    <glyph glyph-name="plus" unicode="+" horiz-adv-x="609" 
d="M21 399v81h220v235h119v-235h220v-81h-220v-232h-119v232h-220z" />
    <glyph glyph-name="comma" unicode="," horiz-adv-x="405" 
d="M146 -121h-146l96 331h147z" />
    <glyph glyph-name="hyphen" unicode="-" horiz-adv-x="631" 
d="M585 426v-78h-563v78h563z" />
    <glyph glyph-name="period" unicode="." horiz-adv-x="405" 
d="M266 34h-153l1 154h152v-154z" />
    <glyph glyph-name="slash" unicode="/" horiz-adv-x="460" 
d="M429 791l-298 -806h-106l298 806h106z" />
    <glyph glyph-name="zero" unicode="0" horiz-adv-x="595" 
d="M356 97v533h-225v-533h225zM545 16h-500v696h500v-696z" />
    <glyph glyph-name="one" unicode="1" horiz-adv-x="595" 
d="M399 712v-696h-165v601l-149 -106l-31 75l180 126h165z" />
    <glyph glyph-name="two" unicode="2" horiz-adv-x="595" 
d="M545 91v-82h-413v82l259 555h-192v-188h-169v270h457v-82l-259 -555h317z" />
    <glyph glyph-name="three" unicode="3" horiz-adv-x="595" 
d="M539 299v-290h-438v1h-48v244h175v-163h227v168l-148 101l51 47v239h-207v-123h-81v205h459v-272l-103 -83z" />
    <glyph glyph-name="four" unicode="4" horiz-adv-x="595" 
d="M573 217h-79v-208h-176v208h-306v81l268 445h114l-282 -445h206v279h176v-279h79v-81z" />
    <glyph glyph-name="five" unicode="5" horiz-adv-x="595" 
d="M170 591v-126h343v-449h-460v81h285v286h-250v345h427v-137h-345z" />
    <glyph glyph-name="six" unicode="6" horiz-adv-x="595" 
d="M340 90v301h-188v-301h188zM545 9h-480v463l175 291l76 -25l-161 -266h390v-463z" />
    <glyph glyph-name="seven" unicode="7" horiz-adv-x="595" 
d="M339 10h-175l176 628h-304v81h503z" />
    <glyph glyph-name="eight" unicode="8" horiz-adv-x="595" 
d="M377 90v247h-239v-247h239zM138 636v-218h239v218h-239zM542 449l-73 -67l73 -92v-281h-484v322l39 36l-39 49v301h484v-268z" />
    <glyph glyph-name="nine" unicode="9" horiz-adv-x="595" 
d="M214 423h248v217h-248v-217zM542 341l-278 -353l-64 45l245 308h-392v381h489v-381z" />
    <glyph glyph-name="colon" unicode=":" horiz-adv-x="405" 
d="M266 2h-149v149h149v-149zM266 431h-149v149h149v-149z" />
    <glyph glyph-name="semicolon" unicode=";" horiz-adv-x="405" 
d="M160 -121h-146l96 302h147zM240 431h-149v149h149v-149z" />
    <glyph glyph-name="less" unicode="&#x3c;" horiz-adv-x="690" 
d="M647 542l-419 -153l419 -154v-123l-560 224v104l560 225v-123z" />
    <glyph glyph-name="equal" unicode="=" horiz-adv-x="690" 
d="M620 311v-98h-555v98h555zM620 557v-97h-555v97h555z" />
    <glyph glyph-name="greater" unicode="&#x3e;" horiz-adv-x="690" 
d="M605 435v-104l-560 -225v123l418 153l-418 149v128z" />
    <glyph glyph-name="question" unicode="?" horiz-adv-x="513" 
d="M162 139h136v-140h-136v140zM446 539l-158 -263h-121l156 263h-1v180h-157v-140h-136v222h417v-262z" />
    <glyph glyph-name="at" unicode="@" horiz-adv-x="880" 
d="M499 362v133h-162v-198zM804 168h-305v88l-263 -106v427h363v-328h82v421h-508v-582h405v-81h-499v744h725v-583z" />
    <glyph glyph-name="A" unicode="A" horiz-adv-x="698" 
d="M376 320l-110 243l-89 -243h199zM412 239h-265l-79 -216h-61l251 692h123l311 -710h-174z" />
    <glyph glyph-name="B" unicode="B" horiz-adv-x="717" 
d="M508 87v245h-294v-245h294zM214 633v-220h294v220h-294zM550 377v-1l99 -32v-339h-576v710h576v-305z" />
    <glyph glyph-name="C" unicode="C" horiz-adv-x="727" 
d="M532 454v179h-331v-546h320v218h126v-300h-573v710h573v-261h-115z" />
    <glyph glyph-name="D" unicode="D" horiz-adv-x="659" 
d="M215 98h241l84 135v256l-85 118h-240v-509zM616 515v-307l-135 -192h-408v672h409z" />
    <glyph glyph-name="E" unicode="E" horiz-adv-x="678" 
d="M662 89v-82h-586v710h574v-82h-432v-220h432v-81h-432v-245h444z" />
    <glyph glyph-name="F" unicode="F" horiz-adv-x="693" 
d="M659 335h-434v-328h-149v710h574v-82h-425v-219h434v-81z" />
    <glyph glyph-name="G" unicode="G" horiz-adv-x="705" 
d="M625 394v-391h-544v710h528v-261h-83v179h-310v-546h282v227h-215v82h342z" />
    <glyph glyph-name="H" unicode="H" horiz-adv-x="780" 
d="M700 713v-710h-146v361h-333v-361h-142v710h142v-268h333v268h146z" />
    <glyph glyph-name="I" unicode="I" horiz-adv-x="298" 
d="M220 3h-145v710h145v-710z" />
    <glyph glyph-name="J" unicode="J" horiz-adv-x="529" 
d="M451 716v-689h-407v208h75v-127h182v608h150z" />
    <glyph glyph-name="K" unicode="K" horiz-adv-x="711" 
d="M649 2l-428 267v-266h-150v710h150v-323l304 292l51 -61l-303 -290l414 -258z" />
    <glyph glyph-name="L" unicode="L" horiz-adv-x="602" 
d="M583 95v-82h-509v703h150v-621h359z" />
    <glyph glyph-name="M" unicode="M" horiz-adv-x="884" 
d="M688 14l-79 520l-110 -434l-77 -2l11 42l-4 -2l-169 395l-26 -520h-151l35 703h151v-8l193 -452l112 448l4 -1h154l130 -689h-174z" />
    <glyph glyph-name="N" unicode="N" horiz-adv-x="777" 
d="M709 708v-703h-151l-335 557v-549h-151v703h151v-5l335 -557v554h151z" />
    <glyph glyph-name="O" unicode="O" horiz-adv-x="744" 
d="M546 89v533h-321v-533h321zM670 8h-594v696h594v-696z" />
    <glyph glyph-name="P" unicode="P" horiz-adv-x="697" 
d="M519 329v295h-296v-295h296zM634 248h-411v-246h-149v704h560v-458z" />
    <glyph glyph-name="Q" unicode="Q" horiz-adv-x="741" 
d="M234 89h295v533h-295v-533zM534 8l108 -139h-101l-108 139h-348v696h567v-696h-118z" />
    <glyph glyph-name="R" unicode="R" horiz-adv-x="691" 
d="M219 433h296v191h-296v-191zM356 351h-137v-349h-149v704h573v-355h-193l240 -349h-106z" />
    <glyph glyph-name="S" unicode="S" horiz-adv-x="668" 
d="M485 441v190h-274v-197l358 -107l6 -324h-518v234h136v-153h219v203l-329 100l1 4v321h516v-271h-115z" />
    <glyph glyph-name="T" unicode="T" horiz-adv-x="653" 
d="M606 544h-256v-540h-75v540h-226v162h557v-162z" />
    <glyph glyph-name="U" unicode="U" horiz-adv-x="713" 
d="M628 710v-696h-554v696h159v-615h237v615h158z" />
    <glyph glyph-name="V" unicode="V" horiz-adv-x="718" 
d="M709 713l-270 -709h-159l-270 709h175l175 -458l174 458h175z" />
    <glyph glyph-name="W" unicode="W" horiz-adv-x="848" 
d="M665 -1h-100l-137 518l-100 -419h-1l-24 -94h-101l-188 709h175l104 -429l93 390l-9 34h174l105 -429l101 434h82z" />
    <glyph glyph-name="X" unicode="X" horiz-adv-x="710" 
d="M522 4l-205 289l-209 -289h-83l251 347l-257 361h184l164 -235l170 235h83l-212 -294l288 -414h-174z" />
    <glyph glyph-name="Y" unicode="Y" horiz-adv-x="671" 
d="M430 288v-286h-150v288l-265 425h184l192 -304l154 304h112z" />
    <glyph glyph-name="Z" unicode="Z" horiz-adv-x="690" 
d="M656 172v-162h-627v162l340 378h-334v162h612l-493 -540h502z" />
    <glyph glyph-name="bracketleft" unicode="[" horiz-adv-x="345" 
d="M320 879v-76h-129v-855h129v-78h-249v1009h249z" />
    <glyph glyph-name="backslash" unicode="\" horiz-adv-x="449" 
d="M303 -131l-270 1000h107l270 -1000h-107z" />
    <glyph glyph-name="bracketright" unicode="]" horiz-adv-x="345" 
d="M150 -50v854h-130v77h250v-1009h-250v78h130z" />
    <glyph glyph-name="asciicircum" unicode="^" horiz-adv-x="569" 
d="M403 425l-130 261l-129 -260h-144l216 374h113l213 -376z" />
    <glyph glyph-name="underscore" unicode="_" horiz-adv-x="574" 
d="M554 -16v-64h-542v64h542z" />
    <glyph glyph-name="grave" unicode="`" horiz-adv-x="408" 
d="M168 859l177 -230l-80 -73l-207 202z" />
    <glyph glyph-name="a" unicode="a" horiz-adv-x="633" 
d="M430 85v165h-214v-165h214zM578 3h-531v329h383v115h-368v81h516v-525z" />
    <glyph glyph-name="b" unicode="b" horiz-adv-x="675" 
d="M485 85v362h-265v-362h265zM634 3h-563v709h149v-184h414v-525z" />
    <glyph glyph-name="c" unicode="c" horiz-adv-x="589" 
d="M536 166v-162h-471v524h451v-162h-76v81h-227v-361h247v80h76z" />
    <glyph glyph-name="d" unicode="d" horiz-adv-x="668" 
d="M457 86v362h-265v-362h265zM606 713v-709h-563v525h414v184h149z" />
    <glyph glyph-name="e" unicode="e" horiz-adv-x="619" 
d="M220 447v-139h181v139h-181zM570 85v-82h-509v525h483v-302h-324v-141h350z" />
    <glyph glyph-name="f" unicode="f" horiz-adv-x="500" 
d="M293 507v124h-97v-228h227v-171h-227v-228h-76v228h-95v171h95v310h325v-206h-152z" />
    <glyph glyph-name="g" unicode="g" horiz-adv-x="620" 
d="M384 209v238h-212v-238h212zM544 -181h-476v143h76v-61h240v226h-323v401h483v-709z" />
    <glyph glyph-name="h" unicode="h" horiz-adv-x="543" 
d="M494 430v-430h-76v348h-197v-346h-149v709h149v-281h273z" />
    <glyph glyph-name="i" unicode="i" horiz-adv-x="310" 
d="M238 571h-163v140h163v-140zM236 -1h-163v532h163v-532z" />
    <glyph glyph-name="j" unicode="j" horiz-adv-x="385" 
d="M149 531h163v-709h-307v155h76v-74h68v628zM314 711v-140h-163v140h163z" />
    <glyph glyph-name="k" unicode="k" horiz-adv-x="572" 
d="M514 -3l-292 243v-236h-150v710h150v-337l262 173l40 -70l-260 -172l297 -247z" />
    <glyph glyph-name="l" unicode="l" horiz-adv-x="357" 
d="M333 85v-81h-262v710h175v-629h87z" />
    <glyph glyph-name="m" unicode="m" horiz-adv-x="811" 
d="M739 1h-149v433h-140v-351h-69v351h-162v-433h-149v536h149v-21h520v-515z" />
    <glyph glyph-name="n" unicode="n" horiz-adv-x="606" 
d="M536 516v-518h-76v436h-212v-436h-176v545h176v-27h288z" />
    <glyph glyph-name="o" unicode="o" horiz-adv-x="597" 
d="M368 442h-223v-362h223v362zM529 -2h-459v525h459v-525z" />
    <glyph glyph-name="p" unicode="p" horiz-adv-x="651" 
d="M399 443h-178v-362h178v362zM547 0h-326v-184h-149v709h475v-525z" />
    <glyph glyph-name="q" unicode="q" horiz-adv-x="615" 
d="M385 82v362h-178v-362h178zM534 -183h-149v184h-326v525h475v-709z" />
    <glyph glyph-name="r" unicode="r" horiz-adv-x="433" 
d="M215 352v-351h-149v536h149v-95l182 95l33 -74z" />
    <glyph glyph-name="s" unicode="s" horiz-adv-x="467" 
d="M269 330v144h-130v-149l274 -80v-244h-368v184h160v-123h115v144l-277 84l1 245h372v-205h-147z" />
    <glyph glyph-name="t" unicode="t" horiz-adv-x="428" 
d="M407 155v-155h-274v342h-118v158h118v150h86v-150h131v-158h-131v-261h112v74h76z" />
    <glyph glyph-name="u" unicode="u" horiz-adv-x="576" 
d="M516 534v-589h-163v58h-281v531h163v-450h118v450h163z" />
    <glyph glyph-name="v" unicode="v" horiz-adv-x="536" 
d="M530 532l-199 -535h-115l-212 535h83l155 -411l131 411h157z" />
    <glyph glyph-name="w" unicode="w" horiz-adv-x="737" 
d="M612 90l-28 -86h-89l-122 386l-85 -298l1 -2l-27 -86h-89l-168 528h156l92 -319l83 293l-8 26h155l93 -319l90 317h71z" />
    <glyph glyph-name="x" unicode="x" horiz-adv-x="554" 
d="M356 11l-104 156l-125 -156h-73l164 207l-212 317h183l131 -189l150 189h76l-192 -240l197 -284h-195z" />
    <glyph glyph-name="y" unicode="y" horiz-adv-x="504" 
d="M502 531l-283 -685h-73l79 194l-221 491h184l121 -282l115 282h78z" />
    <glyph glyph-name="z" unicode="z" horiz-adv-x="512" 
d="M484 167v-161h-438v161l249 225h-252v139h392v-139l-257 -225h306z" />
    <glyph glyph-name="braceleft" unicode="{" horiz-adv-x="408" 
d="M287 419l-115 -38l115 -38v-322h105v-81h-246v401h-83v82h83v406h246v-81h-105v-329z" />
    <glyph glyph-name="bar" unicode="|" horiz-adv-x="236" 
d="M177 923v-1088h-105v1088h105z" />
    <glyph glyph-name="braceright" unicode="}" horiz-adv-x="408" 
d="M353 346h-83v-406h-245v81h104v329l115 38l-115 38v322h-104v81h245v-401h83v-82z" />
    <glyph glyph-name="asciitilde" unicode="~" horiz-adv-x="541" 
d="M474 444l50 -66l-181 -123l-195 120l-79 -112l-66 55l95 144l210 -130zM906 903v-82h-309v82h309z" />
    <glyph glyph-name="currency" unicode="&#xa4;" 
d="M344 195q65 -64 156 -64t155 64q64 65 64 156t-64 155t-155 64t-156 -64q-64 -64 -64 -155t64 -156zM776 544q61 -86 61 -193q0 -104 -58 -189l121 -115l-95 -92l-109 121q-87 -63 -196 -63q-106 0 -194 61l-111 -120l-92 92l118 113q-59 88 -59 192q0 108 62 195
l-121 115l90 90l116 -122q86 59 191 59q106 0 193 -61l109 124l100 -95z" />
    <glyph glyph-name="section" unicode="&#xa7;" 
d="M503 291l86 58v168l-98 27l-101 -57v-166zM617 659v78h-223v-103l297 -81v-209l-111 -73l107 -29v-240h-422v173h111v-113h209v141l-299 78v217l124 67l-120 33v199h421v-138h-94z" />
    <glyph glyph-name="dieresis" unicode="&#xa8;" 
d="M767 717v-186h-191v186h191zM435 717v-186h-191v186h191z" />
    <glyph glyph-name="degree" unicode="&#xb0;" 
d="M151 764q39 38 94 37q54 -1 91 -40q38 -39 37 -94t-40 -93t-93 -37t-92 40t-37 94q2 55 40 93zM188 618q21 -22 52 -22q31 -1 53 21q21 21 22 52t-21 53q-21 21 -51 22q-31 1 -52 -21q-22 -21 -23 -52t20 -53z" />
    <glyph glyph-name="plusminus" unicode="&#xb1;" 
d="M426 420h-270v82h270v260h144v-260h272v-82h-272v-260h-144v260zM843 108v-82h-686v82h686z" />
    <glyph glyph-name="periodcentered" unicode="&#xb7;" 
d="M587 469v-186h-191v186h191z" />
    <glyph glyph-name="multiply" unicode="&#xd7;" 
d="M600 411l197 -198l-102 -102l-197 198l-198 -198l-102 102l198 198l-198 197l102 102l198 -197l197 197l102 -102z" />
    <glyph glyph-name="divide" unicode="&#xf7;" 
d="M420 213h148v-149h-148v149zM837 429v-82h-686v82h686zM420 697h148v-149h-148v149z" />
    <glyph glyph-name="caron" unicode="&#x2c7;" 
d="M752 783l-277 -277l-223 222l115 115l173 -172l162 162z" />
    <glyph glyph-name="uni02C9" unicode="&#x2c9;" 
d="M309 632v163h392v-163h-392z" />
    <glyph glyph-name="uni2005" unicode="&#x2005;" horiz-adv-x="250" 
 />
    <glyph glyph-name="emdash" unicode="&#x2014;" 
d="M56 333v200h897v-200h-897z" />
    <glyph glyph-name="quoteright" unicode="&#x2019;" 
d="M320 805v-187l-83 -140l-65 23l65 117h-108v187h191z" />
    <glyph glyph-name="quotedblleft" unicode="&#x201c;" 
d="M521 665h108v-187h-191v187l83 140l65 -24zM858 665v-187h-191v187l83 140l65 -24l-66 -116h109z" />
    <glyph glyph-name="quotedblright" unicode="&#x201d;" 
d="M145 805h192v-187l-84 -140l-65 23l66 117h-109v187zM565 805v-187l-83 -140l-65 23l66 117h-109v187h191z" />
    <glyph glyph-name="ellipsis" unicode="&#x2026;" 
d="M697 270v213h219v-213h-219zM399 270v213h218v-213h-218zM100 270v213h218v-213h-218z" />
    <glyph glyph-name="perthousand" unicode="&#x2030;" 
d="M513 314v-249h72v249h-72zM269 482v250h-73v-250h73zM642 812l-246 -430h235v-385h-248v362l-211 -369h-106l242 424h-241v385h248v-373l220 386h107zM870 65v249h-73v-249h73zM916 -3h-248v385h248v-385z" />
    <glyph glyph-name="minute" unicode="&#x2032;" 
d="M250 490l-138 76l146 265l138 -77z" />
    <glyph glyph-name="second" unicode="&#x2033;" 
d="M404 479l-138 76l145 264l138 -76zM193 490l-138 76l146 265l138 -77z" />
    <glyph glyph-name="uni2103" unicode="&#x2103;" 
d="M244 698q0 53 -51 53q-19 0 -33 -15q-15 -15 -15 -36q0 -22 14 -37t34 -15q51 0 51 50zM265 764q29 -28 29 -67q0 -43 -30 -69q-29 -25 -70 -25q-43 0 -69 28q-26 26 -26 66q0 41 27 68t68 27q42 0 71 -28zM737 488v145h-281v-546h270v169h126v-251h-523v710h523v-227
h-115z" />
    <glyph glyph-name="uni2109" unicode="&#x2109;" 
d="M341 714q0 50 -52 50q-19 0 -33 -15t-14 -36q0 -22 14 -37t34 -15q51 0 51 53zM364 777q26 -26 26 -67q0 -40 -27 -66q-29 -28 -73 -28q-42 0 -69 28q-26 27 -26 67t27 67t68 27q46 0 74 -28zM561 635v-219h232v-81h-232v-328h-149v710h408v-82h-259z" />
    <glyph glyph-name="uni2116" unicode="&#x2116;" 
d="M756 229h72v239h-72v-239zM626 533h248v-369h-248v369zM445 707l136 1v-703l-136 -1l-242 554v-547l-134 -1v703l134 1v-7l242 -552v552zM891 126v-65h-278v65h278z" />
    <glyph glyph-name="uni2160" unicode="&#x2160;" 
d="M584 720v-720h-171v720h171z" />
    <glyph glyph-name="uni2161" unicode="&#x2161;" 
d="M746 720v-720h-171v720h171zM413 720v-720h-171v720h171z" />
    <glyph glyph-name="uni2162" unicode="&#x2162;" 
d="M917 720v-720h-170v720h170zM584 720v-720h-171v720h171zM250 720v-720h-170v720h170z" />
    <glyph glyph-name="uni2163" unicode="&#x2163;" 
d="M513 720l82 -329q9 -35 27 -114q17 -73 28 -115h5q11 43 28 115l108 443h132l-213 -720h-183l-212 720h198zM242 720v-720h-171v720h171z" />
    <glyph glyph-name="uni2164" unicode="&#x2164;" 
d="M372 720l83 -329q9 -35 27 -114q17 -73 28 -115h4q11 43 28 115q19 80 28 114l81 329h136l-212 -720h-189l-212 720h198z" />
    <glyph glyph-name="uni2165" unicode="&#x2165;" 
d="M907 720v-720h-171v720h171zM243 720l83 -329q9 -35 27 -114q17 -73 28 -115h4q11 43 28 115q19 80 28 114l81 329h136l-212 -720h-184l-212 720h193z" />
    <glyph glyph-name="uni2166" unicode="&#x2166;" 
d="M938 720v-720h-170v720h170zM709 720v-720h-170v720h170zM225 720l39 -329q20 -156 32 -229h5q23 127 33 229l37 329h136l-136 -720h-208l-136 720h198z" />
    <glyph glyph-name="uni2167" unicode="&#x2167;" 
d="M937 720v-720h-132v720h132zM767 720v-720h-133v720h133zM596 720v-720h-132v720h132zM203 720l35 -329l26 -229h5q22 175 27 229l34 329h108l-107 -720h-167l-127 720h166z" />
    <glyph glyph-name="uni2168" unicode="&#x2168;" 
d="M117 720h156v-720h-156v720zM640 262l-151 -261h-152l224 365l-209 354h193l133 -239l128 239h152l-203 -345l218 -373h-196z" />
    <glyph glyph-name="uni2169" unicode="&#x2169;" 
d="M485 262l-150 -261h-152l223 365l-208 354h193l133 -239l128 239h152l-204 -344l219 -374h-197z" />
    <glyph glyph-name="uni216A" unicode="&#x216a;" 
d="M478 375l219 -373h-197l-137 260l-150 -261h-153l224 365l-209 354h194l132 -239l128 239h152zM902 720v-720h-171v720h171z" />
    <glyph glyph-name="uni216B" unicode="&#x216b;" 
d="M361 384l173 -383h-152l-114 281l-115 -281h-113l169 379l-154 340h149l103 -241l103 241h104zM565 720h152v-720h-152v720zM937 720v-720h-152v720h152z" />
    <glyph glyph-name="uni2170" unicode="&#x2170;" 
d="M578 602h-166v160h166v-160zM578 533v-533h-166v533h166z" />
    <glyph glyph-name="uni2171" unicode="&#x2171;" 
d="M736 602h-166v160h166v-160zM436 602h-166l1 160h165v-160zM736 533v-533h-167v533h167zM436 533v-533h-166v533h166z" />
    <glyph glyph-name="uni2172" unicode="&#x2172;" 
d="M883 602h-166v160h166v-160zM583 602h-166l1 160h165v-160zM284 602h-166v160h166v-160zM883 533v-533h-167v533h167zM583 533v-533h-166v533h166zM284 533v-533h-167v533h167z" />
    <glyph glyph-name="uni2173" unicode="&#x2173;" 
d="M291 602h-166v160h166v-160zM371 534h183l116 -366h2l116 366h105l-186 -537h-148zM291 533v-533h-166v533h166z" />
    <glyph glyph-name="uni2174" unicode="&#x2174;" 
d="M234 534h184l116 -366h2l116 366h105l-186 -537h-148z" />
    <glyph glyph-name="uni2175" unicode="&#x2175;" 
d="M861 533v-533h-166v533h166zM861 602h-166v160h166v-160zM95 534h184l116 -366h2l116 366h105l-187 -537h-148z" />
    <glyph glyph-name="uni2176" unicode="&#x2176;" 
d="M933 602h-166l1 160h165v-160zM707 602h-165v160h165v-160zM933 533v-533h-166v533h166zM708 533v-533h-166v533h166zM24 534h173l109 -366h2l110 366h99l-176 -537h-140z" />
    <glyph glyph-name="uni2177" unicode="&#x2177;" 
d="M581 602h-128v160h128v-160zM582 1h-129v525l-124 -525h-129l-156 533h146l94 -364h2l80 364h216v-533zM621 534h129v-533h-129v533zM622 762h128v-160h-129zM789 534h130v-533h-130v533zM919 762v-160h-129v160h129z" />
    <glyph glyph-name="uni2178" unicode="&#x2178;" 
d="M116 533h166v-533h-166v533zM116 762h166v-160h-166v160zM686 1l-129 200l-128 -200h-122l191 270l-191 263h173l122 -181l118 181h127l-183 -255l198 -278h-176z" />
    <glyph glyph-name="uni2179" unicode="&#x2179;" 
d="M608 1l-129 201l-129 -201h-121l190 270l-190 263h172l123 -181l117 181h127l-183 -255l198 -278h-175z" />
    <glyph glyph-name="infinity" unicode="&#x221e;" 
d="M808 502h-211l-39 -44v-110l73 -60h177v214zM466 346v98l-44 58h-232v-214h196zM901 575v-439h-305l-76 67l-104 -67h-319v439h356l50 -66l56 66h342z" />
    <glyph glyph-name="therefore" unicode="&#x2234;" 
d="M427 669h149v-149h-149v149zM694 204h148v-150h-148v150zM163 204h149v-150h-149v150z" />
    <glyph glyph-name="uni2235" unicode="&#x2235;" 
d="M428 204h148v-150h-149zM691 669h149v-149h-149v149zM161 669h149v-149h-149v149z" />
    <glyph glyph-name="uni2236" unicode="&#x2236;" 
d="M384 53v213h218v-213h-218zM384 484v213h218v-213h-218z" />
    <glyph glyph-name="uni2460" unicode="&#x2460;" 
d="M452 691h143v-601h-143v524l-109 -48l-28 64zM796 84q123 123 123 296t-123 296t-297 123q-173 0 -296 -123q-122 -123 -122 -296t123 -296t296 -123t296 123zM825 705q135 -135 135 -325t-135 -325q-134 -135 -325 -135q-190 0 -325 135t-135 325q0 191 134 325
q135 135 325 135q191 0 326 -135z" />
    <glyph glyph-name="uni2461" unicode="&#x2461;" 
d="M401 155h312v-70h-412v70l304 472h-149v-159h-154v229h397v-70zM796 84q123 123 123 296t-123 296t-297 123q-173 0 -296 -123q-122 -123 -122 -296t123 -296t296 -123t296 123zM825 705q135 -135 135 -325t-135 -325q-134 -135 -325 -135q-190 0 -325 135t-135 325
q0 191 134 325q135 135 325 135q191 0 326 -135z" />
    <glyph glyph-name="uni2462" unicode="&#x2462;" 
d="M597 400l99 -55v-261h-390v209h160v-139h153v143l-135 86l46 39v205h-146v-105h-75v174h378v-231zM796 84q123 123 123 296t-123 296t-297 123q-173 0 -296 -123q-122 -123 -122 -296t123 -296t296 -123t296 123zM825 705q135 -135 135 -325t-135 -325
q-134 -135 -325 -135q-190 0 -325 135t-135 325q0 191 134 325q135 135 325 135q191 0 326 -135z" />
    <glyph glyph-name="uni2463" unicode="&#x2463;" 
d="M661 343h65v-70h-65v-189h-160v189h-232v70l125 337l66 -16l-106 -321h147v356h160v-356zM796 84q123 123 123 296t-123 296t-297 123q-173 0 -296 -123q-122 -123 -122 -296t123 -296t296 -123t296 123zM825 705q135 -135 135 -325t-135 -325q-134 -135 -325 -135
q-190 0 -325 135t-135 325q0 191 134 325q135 135 325 135q191 0 326 -135z" />
    <glyph glyph-name="uni2464" unicode="&#x2464;" 
d="M691 88h-382v70h221v244h-198v293h358v-117h-284v-107h285v-383zM796 84q123 123 123 296t-123 296t-297 123q-173 0 -296 -123q-122 -123 -122 -296t123 -296t296 -123t296 123zM825 705q135 -135 135 -325t-135 -325q-134 -135 -325 -135q-190 0 -325 135t-135 325
q0 191 134 325q135 135 325 135q191 0 326 -135z" />
    <glyph glyph-name="uni2465" unicode="&#x2465;" 
d="M625 157v256h-135v-256h135zM698 88h-393v395l161 248l58 -38l-136 -210h310v-395zM796 84q123 123 123 296t-123 296t-297 123q-173 0 -296 -123q-122 -123 -122 -296t123 -296t296 -123t296 123zM825 705q135 -135 135 -325t-135 -325q-134 -135 -325 -135
q-190 0 -325 135t-135 325q0 191 134 325q135 135 325 135q191 0 326 -135z" />
    <glyph glyph-name="uni2466" unicode="&#x2466;" 
d="M542 89h-160l161 535h-266v69h448zM796 84q123 123 123 296t-123 296t-297 123q-173 0 -296 -123q-122 -123 -122 -296t123 -296t296 -123t296 123zM825 705q135 -135 135 -325t-135 -325q-134 -135 -325 -135q-190 0 -325 135t-135 325q0 191 134 325q135 135 325 135
q191 0 326 -135z" />
    <glyph glyph-name="uni2467" unicode="&#x2467;" 
d="M556 152v213h-169v-213h169zM387 623v-188h169v188h-169zM707 461l-67 -57l67 -79v-243h-393v278l35 31l-35 43v260h393v-233zM796 84q123 123 123 296t-123 296t-297 123q-173 0 -296 -123q-122 -123 -122 -296t123 -296t296 -123t296 123zM825 705q135 -135 135 -325
t-135 -325q-134 -135 -325 -135q-190 0 -325 135t-135 325q0 191 134 325q135 135 325 135q191 0 326 -135z" />
    <glyph glyph-name="uni2468" unicode="&#x2468;" 
d="M463 422h170v185h-170v-185zM712 352l-239 -301l-58 38l204 263h-323v324h416v-324zM796 84q123 123 123 296t-123 296t-297 123q-173 0 -296 -123q-122 -123 -122 -296t123 -296t296 -123t296 123zM825 705q135 -135 135 -325t-135 -325q-134 -135 -325 -135
q-190 0 -325 135t-135 325q0 191 134 325q135 135 325 135q191 0 326 -135z" />
    <glyph glyph-name="uni2469" unicode="&#x2469;" 
d="M633 170v441h-115v-441h115zM775 88h-322v605h322v-605zM140 595q-59 -100 -59 -215q0 -173 123 -296t296 -123t296 123t123 296t-123 296t-297 123q-210 0 -335 -168l109 60h126v-601h-142v512l-97 -53zM825 705q135 -135 135 -325t-135 -325q-134 -135 -325 -135
q-190 0 -325 135t-135 325q0 191 134 325q135 135 325 135q191 0 326 -135z" />
    <glyph glyph-name="uni2474" unicode="&#x2474;" 
d="M273 806q-142 -171 -142 -425q0 -243 144 -425l-53 -35q-187 203 -187 460q0 266 187 461zM475 710h149v-705h-167v599l-113 -60l-33 75zM774 842q187 -203 187 -461q0 -265 -187 -460l-51 35q143 172 143 425q0 244 -145 425z" />
    <glyph glyph-name="uni2475" unicode="&#x2475;" 
d="M270 717h465v-81l-366 -555h368v-81h-468v81l363 555h-181v-188h-181v269zM273 806q-142 -171 -142 -425q0 -243 144 -425l-53 -35q-187 203 -187 460q0 266 187 461zM774 842q187 -203 187 -461q0 -265 -187 -460l-51 35q143 172 143 425q0 244 -145 425z" />
    <glyph glyph-name="uni2476" unicode="&#x2476;" 
d="M273 806q-142 -171 -142 -425q0 -243 144 -425l-53 -35q-187 203 -187 460q0 266 187 461zM734 -1h-463v244h189v-162h183v171l-138 97l35 34v252h-172v-123h-88v204h443v-271l-108 -79l119 -78v-289zM774 842q187 -203 187 -461q0 -265 -187 -460l-51 35
q143 172 143 425q0 244 -145 425z" />
    <glyph glyph-name="uni2477" unicode="&#x2477;" 
d="M273 806q-142 -171 -142 -425q0 -243 144 -425l-53 -35q-187 203 -187 460q0 266 187 461zM667 220v-221h-188v221h-271v82l155 437l78 -22l-147 -415h185v367h188v-367h76v-82h-76zM774 842q187 -203 187 -461q0 -265 -187 -460l-51 35q143 172 143 425q0 244 -145 425z
" />
    <glyph glyph-name="uni2478" unicode="&#x2478;" 
d="M273 806q-142 -171 -142 -425q0 -243 144 -425l-53 -35q-187 203 -187 460q0 266 187 461zM279 4v81h259v286h-233v344h420v-137h-332v-126h333v-448h-447zM774 842q187 -203 187 -461q0 -265 -187 -460l-51 35q143 172 143 425q0 244 -145 425z" />
    <glyph glyph-name="uni2479" unicode="&#x2479;" 
d="M273 806q-142 -171 -142 -425q0 -243 144 -425l-53 -35q-187 203 -187 460q0 266 187 461zM543 85v300h-167v-300h167zM275 3v463l189 279l81 -28l-173 -251h364v-463h-461zM774 842q187 -203 187 -461q0 -265 -187 -460l-51 35q143 172 143 425q0 244 -145 425z" />
    <glyph glyph-name="uni247A" unicode="&#x247a;" 
d="M273 806q-142 -171 -142 -425q0 -243 144 -425l-53 -35q-187 203 -187 460q0 266 187 461zM531 5h-187l189 627h-297v81h511zM774 842q187 -203 187 -461q0 -265 -187 -460l-51 35q143 172 143 425q0 244 -145 425z" />
    <glyph glyph-name="uni247B" unicode="&#x247b;" 
d="M273 806q-142 -171 -142 -425q0 -243 144 -425l-53 -35q-187 203 -187 460q0 266 187 461zM548 87v246h-191v-246h191zM357 632v-218h191v218h-191zM271 5v322l42 36l-42 49v301h454v-268l-78 -67l78 -92v-281h-454zM774 842q187 -203 187 -461q0 -265 -187 -460l-51 35
q143 172 143 425q0 244 -145 425z" />
    <glyph glyph-name="uni247C" unicode="&#x247c;" 
d="M273 806q-142 -171 -142 -425q0 -243 144 -425l-53 -35q-187 203 -187 460q0 266 187 461zM427 419h204v217h-204v-217zM742 338l-279 -353l-69 44l236 309h-374v379h486v-379zM774 842q187 -203 187 -461q0 -265 -187 -460l-51 35q143 172 143 425q0 244 -145 425z" />
    <glyph glyph-name="uni247D" unicode="&#x247d;" 
d="M305 710h87v-705h-141v583l-78 -41l-14 32q-28 -98 -28 -198q0 -243 144 -425l-53 -35q-187 203 -187 460q0 266 187 461l51 -36q-57 -69 -93 -163zM633 92v532h-115v-532h115zM774 842q187 -203 187 -461q0 -265 -187 -460l-51 35q21 26 39 54h-309v696h322v-674
q91 158 91 349q0 244 -145 425z" />
    <glyph glyph-name="uni247E" unicode="&#x247e;" 
d="M305 710h92v-705h-141v586l-83 -44l-14 32q-28 -98 -28 -198q0 -243 144 -425l-53 -35q-187 203 -187 460q0 266 187 461l51 -36q-57 -69 -93 -163zM635 710h87v-705h-141v585l-78 -43l-33 75zM774 842q187 -203 187 -461q0 -265 -187 -460l-51 35q143 172 143 425
q0 244 -145 425z" />
    <glyph glyph-name="uni247F" unicode="&#x247f;" 
d="M305 710h87v-705h-141v583l-78 -41l-14 32q-28 -98 -28 -198q0 -243 144 -425l-53 -35q-187 203 -187 460q0 266 187 461l51 -36q-57 -69 -93 -163zM774 842q187 -203 187 -461q0 -265 -187 -460l-51 35q22 28 33 44h-343v81l284 555h-132v-188h-142v269h355v-81
l-278 -555h269v-60q97 162 97 360q0 244 -145 425z" />
    <glyph glyph-name="uni2480" unicode="&#x2480;" 
d="M305 710h87v-705h-141v585l-78 -43l-14 32q-28 -98 -28 -198q0 -243 144 -425l-53 -35q-187 203 -187 460q0 266 187 461l51 -36q-57 -69 -93 -163zM774 842q187 -203 187 -461q0 -265 -187 -460l-51 35q16 19 32 43h-333v244h144v-162h138v167l-121 101l42 47v239h-130
v-123h-67v204h337v-271l-80 -77l89 -66v-272q92 159 92 351q0 244 -145 425z" />
    <glyph glyph-name="uni2481" unicode="&#x2481;" 
d="M305 710h87v-705h-141v590l-78 -48l-14 32q-28 -98 -28 -198q0 -243 144 -425l-53 -35q-187 203 -187 460q0 266 187 461l51 -36q-57 -69 -93 -163zM774 842q187 -203 187 -461q0 -265 -187 -460l-51 35q24 30 35 47h-146v217h-212v82l126 415l66 -20l-113 -395h133v315
h147v-315h59v-82h-59v-215q107 166 107 376q0 244 -145 425z" />
    <glyph glyph-name="uni2482" unicode="&#x2482;" 
d="M305 710h87v-705h-141v583l-78 -41l-14 32q-28 -98 -28 -198q0 -243 144 -425l-53 -35q-187 203 -187 460q0 266 187 461l51 -36q-57 -69 -93 -163zM774 842q187 -203 187 -461q0 -265 -187 -460l-51 35q21 26 35 48h-345v81h207v286h-186v344h337v-137h-267v-126h267
v-427q95 160 95 356q0 244 -145 425z" />
    <glyph glyph-name="uni2483" unicode="&#x2483;" 
d="M305 710h87v-705h-141v585l-78 -43l-14 32q-28 -98 -28 -198q0 -243 144 -425l-53 -35q-187 203 -187 460q0 266 187 461l51 -36q-57 -69 -93 -163zM626 85v300h-101v-300h101zM774 842q187 -203 187 -461q0 -265 -187 -460l-51 35q24 30 35 47l-233 1v-1h-96v463
l171 279l72 -28l-152 -251h261v-424q85 157 85 339q0 244 -145 425z" />
    <glyph glyph-name="uni2484" unicode="&#x2484;" 
d="M305 710h87v-705h-141v585l-78 -43l-14 32q-28 -98 -28 -198q0 -243 144 -425l-53 -35q-187 203 -187 460q0 266 187 461l51 -36q-57 -69 -93 -163zM774 842q187 -203 187 -461q0 -265 -187 -460l-51 35q143 172 143 425q0 130 -52 262l-161 -638h-156l157 627h-242v81
h370q-30 53 -61 93z" />
    <glyph glyph-name="uni2485" unicode="&#x2485;" 
d="M305 710h87v-705h-141v584l-78 -42l-14 32q-28 -98 -28 -198q0 -243 144 -425l-53 -35q-187 203 -187 460q0 266 187 461l51 -36q-57 -69 -93 -163zM788 286v-230q78 151 78 325q0 167 -78 320v-256l-64 -67zM644 87v246h-140v-246h140zM504 632v-218h140v218h-140z
M774 842q187 -203 187 -461q0 -265 -187 -460l-51 35q17 20 36 49l-255 1v-1h-70v322l34 36l-34 49v301h348q-30 53 -61 93z" />
    <glyph glyph-name="uni2486" unicode="&#x2486;" 
d="M305 710h87v-705h-141v582l-78 -40l-14 32q-28 -98 -28 -198q0 -243 144 -425l-53 -35q-187 203 -187 460q0 266 187 461l51 -36q-57 -69 -93 -163zM675 419v217h-113v-217h113zM778 338l-234 -353l-67 44l199 309h-251v379h353v-379zM774 842q187 -203 187 -461
q0 -265 -187 -460l-51 35q143 172 143 425q0 244 -145 425z" />
    <glyph glyph-name="uni2487" unicode="&#x2487;" 
d="M314 636v-188h-127v212q-56 -132 -56 -279t63 -289l230 544h-110zM505 717v-81l-223 -545h219v-81h-264q16 -25 38 -54l-53 -35q-187 203 -187 460q0 266 187 461l51 -36q-34 -40 -59 -89h291zM666 92v532h-78v-532h78zM774 842q187 -203 187 -461q0 -265 -187 -460
l-51 35q21 26 39 54h-239v696h257v-665q86 156 86 340q0 244 -145 425z" />
    <glyph glyph-name="uni2488" unicode="&#x2488;" 
d="M454 710h86v-705h-177v571l-147 -68l-33 75zM789 94v-91h-109v91h109z" />
    <glyph glyph-name="uni2489" unicode="&#x2489;" 
d="M238 86h364v-82h-465v82l278 554h-166v-187h-181v268h450v-81zM789 94v-91h-109v91h109z" />
    <glyph glyph-name="uni248A" unicode="&#x248a;" 
d="M597 293h2v-294h-523v244h188v-162h244v167l-158 101l54 46v240h-222v-123h-87v204h492v-271l-107 -78zM789 94v-91h-109v91h109z" />
    <glyph glyph-name="uni248B" unicode="&#x248b;" 
d="M560 318h74v-82h-74v-237h-188v237h-292v82l123 404h83l-119 -404h205v347h188v-347zM789 94v-91h-109v91h109z" />
    <glyph glyph-name="uni248C" unicode="&#x248c;" 
d="M617 578h-372v-126h369v-448h-494v81h306v286h-268v344h459v-137zM789 94v-91h-109v91h109z" />
    <glyph glyph-name="uni248D" unicode="&#x248d;" 
d="M393 85v300h-181v-300h181zM613 3l-401 1v-1h-105v463l204 279l89 -30l-189 -249h402v-463zM789 94v-91h-109v91h109z" />
    <glyph glyph-name="uni248E" unicode="&#x248e;" 
d="M424 9h-187l189 627h-328v81h541zM789 94v-91h-109v91h109z" />
    <glyph glyph-name="uni248F" unicode="&#x248f;" 
d="M430 87v246h-249v-246h249zM181 632v-218h249v218h-249zM608 445l-78 -67l78 -92v-281l-427 1v-1h-86v322l42 36l-42 49v301h513v-268zM789 94v-91h-109v91h109z" />
    <glyph glyph-name="uni2490" unicode="&#x2490;" 
d="M269 419h240v217h-240v-217zM622 338l-283 -353l-69 44l237 309h-402v379h517v-379zM789 94v-91h-109v91h109z" />
    <glyph glyph-name="uni2491" unicode="&#x2491;" 
d="M319 710l1 -705h-168v614l-113 -75l-33 75l146 91h167zM626 92v532h-163v-532h163zM830 10h-460v696h460v-696zM950 94v-91h-98v91h98z" />
    <glyph glyph-name="uni2492" unicode="&#x2492;" 
d="M319 710l1 -705h-168v602l-113 -63l-33 75l165 91h148zM569 710h148v-705h-167v602l-113 -63l-33 75zM950 94v-91h-98v91h98z" />
    <glyph glyph-name="uni2493" unicode="&#x2493;" 
d="M319 710l1 -705h-168v602l-113 -63l-33 75l165 91h148zM824 636l-357 -555h345v-81h-455v81l363 555h-181v-188h-181v269h466v-81zM950 94v-91h-98v91h98z" />
    <glyph glyph-name="uni2494" unicode="&#x2494;" 
d="M319 710l1 -705h-168v602l-113 -63l-33 75l165 91h148zM822 292v-293h-457v244h188v-162h178v168l-158 100l55 47v239h-172v-123h-88v204h443v-271l-107 -78zM950 94v-91h-98v91h98z" />
    <glyph glyph-name="uni2495" unicode="&#x2495;" 
d="M319 710l1 -705h-168v602l-113 -63l-33 75l165 91h148zM800 220v-221h-188v221h-271v83l142 406h83l-138 -406l184 -1v350h188v-350h76v-82h-76zM950 94v-91h-98v91h98z" />
    <glyph glyph-name="uni2496" unicode="&#x2496;" 
d="M319 710l1 -705h-168v602l-113 -63l-33 75l165 91h148zM819 578h-333v-126h333v-448h-447v81h259v286h-233v344h421v-137zM950 94v-91h-98v91h98z" />
    <glyph glyph-name="uni2497" unicode="&#x2497;" 
d="M319 710l1 -705h-168v602l-113 -63l-33 75l165 91h148zM629 85v300h-170v-300h170zM824 3l-365 1v-1h-96v463l189 279l68 -45l-163 -234h367v-463zM950 94v-91h-98v91h98z" />
    <glyph glyph-name="uni2498" unicode="&#x2498;" 
d="M319 710l1 -705h-168v602l-113 -63l-33 75l165 91h148zM650 5h-188l189 627h-295v81h509zM950 94v-91h-98v91h98z" />
    <glyph glyph-name="uni2499" unicode="&#x2499;" 
d="M319 710l1 -705h-168v616l-113 -77l-33 75l146 91h167zM643 87v246h-191v-246h191zM452 632v-218h191v218h-191zM820 445l-78 -67l78 -92v-281l-368 1v-1h-86v322l42 36l-42 49v301h454v-268zM950 94v-91h-98v91h98z" />
    <glyph glyph-name="uni249A" unicode="&#x249a;" 
d="M319 710l1 -705h-168v616l-113 -77l-33 75l146 91h167zM543 419h205v217h-205v-217zM863 338l-280 -353l-68 44l233 309h-372v379h487v-379zM950 94v-91h-98v91h98z" />
    <glyph glyph-name="uni249B" unicode="&#x249b;" 
d="M474 636l-334 -555h303v-81h-401v81l336 555h-163v-188h-167v269h426v-81zM688 92v532h-115v-532h115zM830 10h-322v696h322v-696zM950 94v-91h-98v91h98z" />
    <glyph glyph-name="uni3000" unicode="&#x3000;" horiz-adv-x="500" 
 />
    <glyph glyph-name="uni3001" unicode="&#x3001;" 
d="M268 -30l-194 242l131 84l205 -225z" />
    <glyph glyph-name="uni3002" unicode="&#x3002;" 
d="M189 248q46 44 116 44q81 0 127 -48q40 -43 40 -109q0 -71 -46 -114q-45 -43 -121 -43q-72 0 -117 42q-46 43 -46 115q0 69 47 113zM248 76q23 -23 57 -23q36 0 58 23q23 23 23 59q0 35 -23 58t-58 23q-36 0 -58 -22q-23 -23 -23 -59t24 -59z" />
    <glyph glyph-name="uni3005" unicode="&#x3005;" 
d="M826 464l-266 -318l155 -91l-43 -70l-306 181l42 69l80 -47l236 276h-283l-190 -310l-134 83l330 537l134 -82l-90 -146h335v-82z" />
    <glyph glyph-name="uni3006" unicode="&#x3006;" 
d="M666 419q121 -93 165 -136l-96 -118q-72 68 -156 140l-268 -351l-125 28l-70 407l133 23l35 -260l191 244q-134 115 -179 150l73 78q59 -33 187 -124l226 290l106 -80z" />
    <glyph glyph-name="uni3007" unicode="&#x3007;" 
d="M214 663q118 119 286 119q167 0 286 -119q118 -119 118 -286t-118 -286q-119 -118 -286 -118q-168 0 -286 118q-119 119 -119 286t119 286zM313 191q78 -77 187 -77t186 77t77 186t-77 186t-186 77q-110 0 -187 -77t-77 -186t77 -186z" />
    <glyph glyph-name="uni3008" unicode="&#x3008;" 
d="M791 10l-278 264l-82 75l219 311l134 -83l-195 -264l263 -250z" />
    <glyph glyph-name="uni3009" unicode="&#x3009;" 
d="M484 274l-278 -264l-61 53l263 250l-195 264l134 83l219 -311z" />
    <glyph glyph-name="uni300A" unicode="&#x300a;" 
d="M444 311l206 -235l-61 -53l-272 313l-23 21l218 311l135 -82zM880 76l-61 -53l-272 313l-23 21l218 311l135 -82l-204 -276z" />
    <glyph glyph-name="uni300B" unicode="&#x300b;" 
d="M450 340l-275 -317l-61 53l206 235l-203 275l134 82l218 -311zM686 336l-271 -313l-61 53l206 235l-203 275l134 82l218 -311z" />
    <glyph glyph-name="uni300C" unicode="&#x300c;" 
d="M820 761h-195v-756h-166v837h361v-81z" />
    <glyph glyph-name="uni300D" unicode="&#x300d;" 
d="M499 776v-837h-361v81h195v756h166z" />
    <glyph glyph-name="uni300E" unicode="&#x300e;" 
d="M767 767h-211v-674h36v571h175v103zM838 582h-175v-571h-219v837h394v-266z" />
    <glyph glyph-name="uni300F" unicode="&#x300f;" 
d="M361 7v674h-36v-571h-176v-103h212zM473 -75h-395v267h176v571h219v-838z" />
    <glyph glyph-name="uni3010" unicode="&#x3010;" 
d="M702 262l195 -312h-361v864h361l-195 -312v-240z" />
    <glyph glyph-name="uni3011" unicode="&#x3011;" 
d="M491 -50h-362l195 312v240l-195 312h362v-864z" />
    <glyph glyph-name="uni3013" unicode="&#x3013;" 
d="M90 -13v292h807v-292h-807zM90 474v292h807v-292h-807z" />
    <glyph glyph-name="uni3014" unicode="&#x3014;" 
d="M631 19l137 -58l-51 -41l-252 92v707l252 101l51 -42l-137 -60v-699z" />
    <glyph glyph-name="uni3015" unicode="&#x3015;" 
d="M540 720v-707l-252 -92l-51 41l137 55v701l-137 61l51 42z" />
    <glyph glyph-name="uni3220" unicode="&#x3220;" 
d="M812 383h-627v54h627v-54zM723 -44q143 172 143 425q0 244 -145 425l53 36q187 -203 187 -461q0 -265 -187 -460zM222 -79q-187 203 -187 460q0 266 187 461l51 -36q-142 -171 -142 -425q0 -243 144 -425z" />
    <glyph glyph-name="uni3221" unicode="&#x3221;" 
d="M774 842q187 -203 187 -461q0 -265 -187 -460l-51 35q45 54 79 128h-604q33 -72 77 -128l-53 -35q-187 203 -187 460q0 266 187 461l51 -36q-142 -171 -142 -425q0 -140 59 -279v98h615v-109q61 138 61 290q0 244 -145 425zM262 658h395v-52h-395v52z" />
    <glyph glyph-name="uni3222" unicode="&#x3222;" 
d="M689 612h-449v52h449v-52zM286 375v116h384v-116h-384zM273 806q-142 -171 -142 -425q0 -243 144 -425l-53 -35q-187 203 -187 460q0 266 187 461zM774 842q187 -203 187 -461q0 -265 -187 -460l-51 35q47 58 78 127h-598v116h608v-94q55 134 55 276q0 244 -145 425z" />
    <glyph glyph-name="uni3223" unicode="&#x3223;" 
d="M273 806q-142 -171 -142 -425q0 -243 144 -425l-53 -35q-187 203 -187 460q0 266 187 461zM265 201h357v173h-136v237h-51l-19 -236h-120l20 236h-51v-410zM622 611h-27v-198h27v198zM206 678h582v-551h-582v551zM774 842q187 -203 187 -461q0 -265 -187 -460l-51 35
q143 172 143 425q0 244 -145 425z" />
    <glyph glyph-name="uni3224" unicode="&#x3224;" 
d="M229 744q-98 -164 -98 -363q0 -162 76 -316v51h139v274h-139v54h138v255h-116v45zM538 390l-3 -274h124l-1 274h-120zM774 842q187 -203 187 -461q0 -265 -187 -460l-51 35q39 47 68 106h-583q30 -58 67 -106l-53 -35q-187 203 -187 460q0 266 187 461l51 -36
q-23 -29 -38 -52h512v-55h-206l-3 -255h212l-3 -328h51v-40q68 144 68 305q0 244 -145 425z" />
    <glyph glyph-name="uni3225" unicode="&#x3225;" 
d="M600 540l-163 -23l-33 203l126 19zM794 451h-609v54h609v-54zM207 125l75 279l191 -39l-83 -291zM816 142l-127 -94l-198 319l105 77zM723 -44q143 172 143 425q0 244 -145 425l53 36q187 -203 187 -461q0 -265 -187 -460zM222 -79q-187 203 -187 460q0 266 187 461
l51 -36q-142 -171 -142 -425q0 -243 144 -425z" />
    <glyph glyph-name="uni3226" unicode="&#x3226;" 
d="M335 65v316l-167 -46l-34 112q-3 -33 -3 -66q0 -243 144 -425l-53 -35q-187 203 -187 460q0 266 187 461l51 -36q-114 -138 -138 -347l200 55v251h206v-193l193 53l37 -123l-230 -64v-330h112l134 118v-161h-452zM774 842q187 -203 187 -461q0 -265 -187 -460l-51 35
q143 172 143 425q0 244 -145 425z" />
    <glyph glyph-name="uni3227" unicode="&#x3227;" 
d="M260 557l177 -36l-118 -422l-144 41q38 -107 100 -184l-53 -35q-187 203 -187 460q0 266 187 461l51 -36q-142 -171 -142 -425q0 -94 29 -196zM774 842q187 -203 187 -461q0 -265 -187 -460l-51 35q69 83 106 199q-90 -57 -183 -80q-147 269 -194 636q2 1 12 2l13 1
q133 -232 379 -453q10 65 10 120q0 244 -145 425z" />
    <glyph glyph-name="uni3228" unicode="&#x3228;" 
d="M273 806q-142 -171 -142 -425q0 -243 144 -425l-53 -35q-187 203 -187 460q0 266 187 461zM774 842q187 -203 187 -461q0 -265 -187 -460l-51 35q34 42 58 86h-253l35 472h-92l-24 -490h-213l26 490h-85v82h89l9 173h211l-9 -173l208 1l-37 -512h71l83 95v-100
q66 143 66 301q0 244 -145 425z" />
    <glyph glyph-name="uni3229" unicode="&#x3229;" 
d="M273 806q-142 -171 -142 -425q0 -243 144 -425l-53 -35q-187 203 -187 460q0 266 187 461zM612 392v-379h-217v379h-226v55h226v332h217v-332h221v-55h-221zM774 842q187 -203 187 -461q0 -265 -187 -460l-51 35q143 172 143 425q0 244 -145 425z" />
    <glyph glyph-name="uni3231" unicode="&#x3231;" 
d="M385 297v40h201v177h-60l-26 -153l-139 42l9 49h-65v-92l35 18zM774 842q187 -203 187 -461q0 -265 -187 -460l-51 35q57 70 94 164q-12 -12 -25 -20q-55 44 -101 121v-184h-105v225l-98 -153h-89l115 178h-123l22 -40l-76 -39l-32 76v-233h-62v270l-38 -122l-55 27
q37 -160 125 -270l-53 -35q-187 203 -187 460q0 266 187 461l51 -36q-142 -171 -142 -425q0 -58 11 -121l60 192h-44v106h85v170h62v-170h69v-83l36 201l142 -6l-18 -106h52v146h105v-146h47v-50h-47v-177h166v-50h-157q63 -69 136 -112q30 104 30 206q0 244 -145 425z" />
    <glyph glyph-name="uni32A3" unicode="&#x32a3;" 
d="M333 387v-277h-58v277h58zM473 648h132v-268h178v-50h-178v-220h-132v538zM206 648v30q6 6 22 20h538l12 -11v-39h-173v29h-132v-29h-267zM799 110v-17q-23 -23 -35 -33h-534l-12 11v39h57v-26h58v26h140v-16h132v16h194zM799 93q113 121 113 287q0 183 -134 307v11h-12
q-118 100 -269 100q-153 0 -269 -100h-22v-20q-124 -124 -124 -298q0 -186 136 -309v-11h12q116 -98 267 -98t267 98h35v33zM817 702q133 -134 133 -322q0 -190 -133 -324q-133 -133 -320 -133t-320 134t-133 323q0 188 133 322t320 134t320 -134z" />
    <glyph glyph-name="uni338E" unicode="&#x338e;" 
d="M454 1h-98v433h-63v-351h-80v351h-60v-433h-98v536h98v-21h301v-515zM758 209v238h-158v-238h158zM885 -181h-381v162h58v-80h196v226h-246v401h373v-709z" />
    <glyph glyph-name="uni338F" unicode="&#x338f;" 
d="M294 349l196 -323l-59 -42l-198 324l-11 -7v-297h-150v710h150v-317l226 149l39 -70zM758 209v238h-158v-238h158zM885 -181h-381v162h58v-80h196v226h-246v401h373v-709z" />
    <glyph glyph-name="uni339C" unicode="&#x339c;" 
d="M454 1h-98v433h-63v-351h-80v351h-60v-433h-98v536h98v-21h301v-515zM918 1h-98v433h-63v-351h-80v351h-60v-433h-98v536h98v-21h301v-515z" />
    <glyph glyph-name="uni339D" unicode="&#x339d;" 
d="M347 166h76v-162h-358v524h338v-162h-76v81h-114v-361h134v80zM918 1h-113v433h-72v-351h-93v351h-69v-433h-113v536h113v-21h347v-515z" />
    <glyph glyph-name="uni339E" unicode="&#x339e;" 
d="M229 322l253 -267l-53 -58l-207 217v-210h-150v710h150v-301l201 133l39 -70zM918 1h-106v433h-68v-351h-87v351h-65v-433h-106v536h106v-21h326v-515z" />
    <glyph glyph-name="uni33A1" unicode="&#x33a1;" 
d="M739 1h-149v433h-140v-351h-69v351h-162v-433h-149v536h149v-21h520v-515zM875 553v-35h-159v35l109 181h-80v-49h-73v84h198v-35l-109 -181h114z" />
    <glyph glyph-name="uni33C4" unicode="&#x33c4;" 
d="M392 166h76v-162h-388v524h368v-162h-76v81h-144v-361h164v80zM905 166v-162h-389v524h369v-162h-76v81h-144v-361h164v80h76z" />
    <glyph glyph-name="uni33CE" unicode="&#x33ce;" 
d="M279 409l168 -364l-56 -43l-152 340l-18 -30v-309h-150v710h150v-254l147 251l72 -31zM811 3l-57 458l-56 -377h-66l-63 351l-13 -433h-104l21 715h104l93 -516l73 503h94l77 -701h-103z" />
    <glyph glyph-name="uni33D1" unicode="&#x33d1;" 
d="M335 85h79v-81h-238v710h159v-629zM847 516v-518h-67v436h-187v-436h-156v545h156v-27h254z" />
    <glyph glyph-name="uni33D2" unicode="&#x33d2;" 
d="M236 85h43v-81h-188v710h145v-629zM383 447v-365h96v365h-96zM541 0h-247v529h247v-529zM572 -36h60v-143h-60v143zM779 211v238h-118v-238h118zM906 -127h-127v256h-206v401h333v-657z" />
    <glyph glyph-name="uni33D5" unicode="&#x33d5;" 
d="M500 1h-105v433h-67v-351h-85v351h-64v-433h-105v536h105v-21h321v-515zM561 516h105v-515h-105v515zM561 717h105v-152h-105v152zM920 85v-81h-188v710h145v-629h43z" />
    <glyph glyph-name="uni4E00" unicode="&#x4e00;" 
d="M869 395h-728v64h728v-64z" />
    <glyph glyph-name="uni4E01" unicode="&#x4e01;" 
d="M879 611h-369v-678l-145 53l52 29v596h-295v136h757v-136z" />
    <glyph glyph-name="uni4E03" unicode="&#x4e03;" 
d="M893 161v-174h-578v371l-206 -67l-43 122l249 81v299h206v-232l189 61l43 -122l-232 -75v-394h211z" />
    <glyph glyph-name="uni4E07" unicode="&#x4e07;" 
d="M435 568l-68 -171h411l-91 -444l-156 63l84 14l57 304h-330l-122 -307h-95l218 541h-291v136h897v-136h-514z" />
    <glyph glyph-name="uni4E08" unicode="&#x4e08;" 
d="M452 298q238 -157 459 -222q-25 -83 -76 -134q-195 80 -423 278l-135 -257h-191l202 372q-57 57 -116 124l27 26q70 -58 119 -93l96 176h-329v63h363l99 183h176l-96 -183h212v-63h-245z" />
    <glyph glyph-name="uni4E09" unicode="&#x4e09;" 
d="M863 48h-708v133h708v-133zM697 387h-445v134h445v-134zM721 661h-523v61h523v-61z" />
    <glyph glyph-name="uni4E0A" unicode="&#x4e0a;" 
d="M871 34v-61h-764v61h221v755h174v-327h270v-61h-270v-367h369z" />
    <glyph glyph-name="uni4E0B" unicode="&#x4e0b;" 
d="M529 604v-300l14 20l256 -114l-49 -84l-221 115v-305h-81v668h-286v136h682v-136h-315z" />
    <glyph glyph-name="uni4E0C" unicode="&#x4e0c;" 
d="M919 636h-137v-648h-193v648h-171l-17 -657h-196l18 657h-141v63h837v-63z" />
    <glyph glyph-name="uni4E0D" unicode="&#x4e0d;" 
d="M802 73l-290 313v-439h-132v523l-239 -288h-102l358 428h-276v136h646v-136h-271l-36 -43h52v-102l60 55l346 -334z" />
    <glyph glyph-name="uni4E0E" unicode="&#x4e0e;" 
d="M682 148h-601v63h601v-63zM900 -58l-247 57l75 33l-2 368h-633l-1 386h170l-1 -97h482v-63h-483l-2 -163h642v-521z" />
    <glyph glyph-name="uni4E10" unicode="&#x4e10;" 
d="M823 -90l-235 53l71 29l-2 280h-414v1h-23l-1 278h156l-4 -216h57v315h-271v137h659v-137h-307v-95h258v-63h-258v-157h314v-425z" />
    <glyph glyph-name="uni4E11" unicode="&#x4e11;" 
d="M554 21h137v385h-134zM558 470h133v237h-131zM927 21v-63h-855v63h270v385h-177v64h177v237h-220v63h765l-6 -749h46z" />
    <glyph glyph-name="uni4E13" unicode="&#x4e13;" 
d="M485 325h230l36 32l66 -70l-260 -201l66 -88l-134 -78l-124 213l109 64l38 -50l131 115h-299v1h-26l14 118h-265v63h272l15 122h-182v64h189l24 204h165l-26 -204h189v-64h-197l-16 -122h404v-63h-412z" />
    <glyph glyph-name="uni4E14" unicode="&#x4e14;" 
d="M317 51h280v189h-280v-189zM317 721v-183h280v183h-280zM317 303h280v171h-280v-171zM900 51v-64h-818v64h154v733h535v-733h129z" />
    <glyph glyph-name="uni4E15" unicode="&#x4e15;" 
d="M510 131h342v-136h-677v136h254v382l-214 -190h-112l323 285h-243v137h628v-137h-275l-26 -23v-80l31 44l351 -217l-48 -77l-334 223v-347z" />
    <glyph glyph-name="uni4E16" unicode="&#x4e16;" 
d="M558 506v-278h147v278h-147zM477 506h-135v-478h545v-63l-733 -1v542h-98v63h98v219h188v-219h135v158h81v-158h147v186h81v-186h157v-63h-157v-342h-309v342z" />
    <glyph glyph-name="uni4E18" unicode="&#x4e18;" 
d="M373 59h140v279h-140v-279zM920 59v-64h-850v64h152v629h105l307 121l49 -72l-310 -116v-146h401v-137h-180v-279h326z" />
    <glyph glyph-name="uni4E19" unicode="&#x4e19;" 
d="M885 23l-239 51l64 41v365h-197l-35 -95l39 46l192 -150l-66 -85l-175 160l-52 -141h-125l101 265h-126v-453h-156v517h293v101h-224v63h601v-63h-254v-101h359v-521z" />
    <glyph glyph-name="uni4E1A" unicode="&#x4e1a;" 
d="M896 104v-79h-805v79h196v41l-63 -28l-118 319l65 30l116 -273v534h165v-623h74v624h160v-458l93 156l88 -39l-146 -238l-35 22v-67h210z" />
    <glyph glyph-name="uni4E1B" unicode="&#x4e1b;" 
d="M77 64h859v-63h-859v63zM674 505q114 -147 283 -263q-69 -79 -166 -120q-83 105 -138 257l-43 -256h-195l33 194l-56 -39l-81 141l-45 -305h-194l102 685h192l-41 -282l25 18l109 -155l71 413h193z" />
    <glyph glyph-name="uni4E1C" unicode="&#x4e1c;" 
d="M602 270v-350l-147 48l53 28v274h-125l47 -21l-128 -273l-65 37l132 257h-219v64h45q65 101 138 232h-273v63h307q54 102 110 219l182 -38q-65 -119 -101 -181h361v-63h-399q-65 -108 -149 -232h137v153h94v-153h262v-64h-262zM930 82l-33 -66l-274 149l30 53z" />
    <glyph glyph-name="uni4E1D" unicode="&#x4e1d;" 
d="M119 95h776v-136h-776v136zM895 361l1 -82l-404 -43l-6 80l-3 1l3 2l-1 11l17 1q95 73 179 150l-193 -22l-3 38q-91 -87 -204 -172l170 13l1 -83l-404 -42l-7 93l28 2q88 74 166 149l-192 -21l-6 88l31 2q106 111 222 274l149 -57q-93 -113 -191 -203l73 5q31 32 61 67
l100 -78l-1 13l22 2q131 128 243 279l150 -62q-101 -113 -204 -203l83 6q21 20 61 62l119 -101q-97 -88 -230 -182z" />
    <glyph glyph-name="uni4E1E" unicode="&#x4e1e;" 
d="M55 179l248 270h-203v62h262v108h36l166 135h-352v64h430l31 25l61 -67l-216 -157h19v-142q49 -35 95 -64l136 145l72 -55l-130 -134q123 -64 245 -95q-24 -72 -71 -123q-176 77 -347 277v-318l-229 50l54 38v215l-214 -234h-93zM123 71h775v-136h-775v136z" />
    <glyph glyph-name="uni4E22" unicode="&#x4e22;" 
d="M526 379q-82 -187 -160 -333l325 38l-51 95l112 58l163 -239l-139 -73l-51 96l-500 -68l-8 75l62 7q88 177 153 344h-358v63h291v90h-153v63h153v77l-191 -61l-18 73l456 150l35 -71l-84 -27v-141h141v-63h-141v-90h352v-63h-389z" />
    <glyph glyph-name="uni4E24" unicode="&#x4e24;" 
d="M848 323v211h-181l-30 -78zM343 598h252v90h-252v-90zM942 -17l-153 49l59 29v249l-84 -126l-179 143l-53 -135h-84l136 342h-253l-22 -68l187 -92l-75 -142l-155 101l-30 -95h-90l96 296h-101v-509h-81v573h197v90h-166v63h800v-63h-210v-90h261v-615z" />
    <glyph glyph-name="uni4E25" unicode="&#x4e25;" 
d="M488 499h39v243h-39v-243zM789 427h-401l-14 -522h-210l16 594h227v62l-74 -40l-72 136l60 34l86 -128v179h-155v72h506v-72h-150v-142l70 65l57 -49l-98 -94l-29 34v-57h181v-72z" />
    <glyph glyph-name="uni4E27" unicode="&#x4e27;" 
d="M522 462h21l-21 20v-20zM725 184q127 -91 246 -144q-44 -83 -108 -129q-200 130 -385 420v-281l65 17l10 -68l-285 -86l-17 78l34 9v398h-224v64h229l-62 116l57 32l80 -117l-56 -31h62v179h-206v64h206v128h151v-128h202v-64h-202v-133l78 98l81 -52l-76 -92h283v-64
h-409q81 -84 177 -161l114 91l61 -62z" />
    <glyph glyph-name="uni4E28" unicode="&#x4e28;" 
d="M557 -24h-169v796h169v-796z" />
    <glyph glyph-name="uni4E2A" unicode="&#x4e2a;" 
d="M575 713q192 -138 389 -206q-31 -78 -120 -158q-160 104 -305 329l-140 -133h219v-619h-235v603l-126 -120h-233l428 403h227z" />
    <glyph glyph-name="uni4E2B" unicode="&#x4e2b;" 
d="M519 -37h-81v486h81v-486zM493 508l209 269l136 -66l-227 -302zM467 484l-138 -77l-168 291l113 61z" />
    <glyph glyph-name="uni4E2C" unicode="&#x4e2c;" 
d="M657 803v-851h-165v370l-181 -139l-41 72l222 154v42l-200 111l32 57l168 -81v265h165z" />
    <glyph glyph-name="uni4E2D" unicode="&#x4e2d;" 
d="M626 495h-85v-197h85v197zM381 298v197h-125v-197h125zM810 217h-269v-258h-160v258h-192v353h192v244h160v-244h269v-353z" />
    <glyph glyph-name="uni4E30" unicode="&#x4e30;" 
d="M883 161h-377v-230h-81v230h-313v136h313v85h-160v63h160v79h-220v136h220v180h81v-180h215v-136h-215v-79h169v-63h-169v-85h377v-136z" />
    <glyph glyph-name="uni4E32" unicode="&#x4e32;" 
d="M672 307h-113v-85h113v85zM217 222h168v85h-168v-85zM296 514h89v131h-89v-131zM611 645h-61v-131h61v131zM864 146h-300v-222h-179v222h-238v230h238v67h-159v266h159v117h160v-117h257v-266h-252v-67h314v-230z" />
    <glyph glyph-name="uni4E34" unicode="&#x4e34;" 
d="M65 579h174v-324h-174v324zM284 782h141v-819h-141v819zM594 435l-138 43l56 320l142 -6l-11 -68h189v-63h-117l141 -132l-62 -56l-165 172zM824 320h-57v-261h57v261zM543 59h87v261h-87v-261zM933 -22h-439v416h439v-416z" />
    <glyph glyph-name="uni4E36" unicode="&#x4e36;" 
d="M750 275l-108 -122l-418 389l96 98z" />
    <glyph glyph-name="uni4E38" unicode="&#x4e38;" 
d="M925 91v-139h-369l27 519h-167l-14 -184l129 -18l-9 -82l-126 22l-18 -243h-193l22 277l-107 19l14 66l98 -14l12 157h-148v75h154l20 255h191l-19 -255h246l-27 -551h206z" />
    <glyph glyph-name="uni4E39" unicode="&#x4e39;" 
d="M617 542l-36 -65l-201 129l32 52zM647 404v312h-319l-7 -312h326zM953 279h-230v-336l-122 52l46 26v258h-329l-8 -319h-75l8 319h-182v125h185l9 376h468v-376h230v-125z" />
    <glyph glyph-name="uni4E3A" unicode="&#x4e3a;" 
d="M895 -47l-293 81l89 39l3 130l-34 -32l-224 255l50 44l210 -220l7 297h-288l-57 -578h-78l58 578h-271v63h190l-80 94l48 45l112 -110l-30 -29h37l17 165h77l-16 -165h494z" />
    <glyph glyph-name="uni4E3B" unicode="&#x4e3b;" 
d="M885 21v-64h-769v64h296v259h-232v63h232v194h-297v63h288l-79 146l109 60l122 -162l-82 -44h278v-63h-183v-194h163v-63h-163v-259h317z" />
    <glyph glyph-name="uni4E3D" unicode="&#x4e3d;" 
d="M459 -7l-138 48l54 27v257l-47 -66l-129 107l42 57l134 -94v225h-182v-554h-81v618h347v-625zM766 326v227h-185v-166l26 39zM932 -48l-236 59l70 44v244l-33 -53l-152 112v-341h-81v599h432v-664zM946 756v-63h-900v63h900z" />
    <glyph glyph-name="uni4E3E" unicode="&#x4e3e;" 
d="M602 259h246v-63h-246v-260h-179v260h-279v63h279v109h-156v63h156v104h179v-104h143v-63h-143v-109zM607 613q157 -79 326 -98q-8 -51 -35 -96q-180 47 -343 194h-69l-319 -242h-115l319 242h-257v63h169l-53 107l65 34l78 -119l-43 -22h100l-49 145l66 23l67 -145
l-71 -23h119l-38 37l103 116l62 -39l-96 -114h280v-63h-266z" />
    <glyph glyph-name="uni4E3F" unicode="&#x4e3f;" 
d="M320 -32l128 821h210l-123 -821h-215z" />
    <glyph glyph-name="uni4E43" unicode="&#x4e43;" 
d="M905 -71l-297 68l80 40l-3 405h-251l37 247h-88l-19 -731h-203l19 731h-94v63h394l3 20h187l-45 -266h280v-577z" />
    <glyph glyph-name="uni4E45" unicode="&#x4e45;" 
d="M515 352q187 -140 426 -215q-56 -118 -158 -198q-156 115 -292 374l-228 -361h-96l420 656h-202l-94 -210h-213l196 418h205l-67 -148h214l10 16h89z" />
    <glyph glyph-name="uni4E47" unicode="&#x4e47;" 
d="M777 -11l148 126v-164h-553v442l-304 -34l-8 70l312 34v149l-169 -88l-31 75l421 224l48 -71l-115 -60v-212l396 44l8 -70l-404 -45v-420h251z" />
    <glyph glyph-name="uni4E48" unicode="&#x4e48;" 
d="M461 764l-307 -528l-91 54l295 517zM843 -49l-37 74l-612 -60l-7 94l76 6q104 169 333 646l161 -60q-152 -307 -315 -572l325 25l-42 84l82 50l138 -226z" />
    <glyph glyph-name="uni4E49" unicode="&#x4e49;" 
d="M491 573l-171 155l42 51l179 -143zM518 414q221 -135 432 -209q-61 -137 -162 -218q-177 103 -368 305l-255 -319l-64 56l260 327q-126 141 -246 311q15 9 25 19q153 -126 304 -225l231 291l76 -47z" />
    <glyph glyph-name="uni4E4B" unicode="&#x4e4b;" 
d="M748 85l85 61l-12 -112h-760v51h74l443 450h-454v79h233l-80 171l113 52l116 -176l-106 -47h255l26 26h260l-534 -555h341z" />
    <glyph glyph-name="uni4E4C" unicode="&#x4e4c;" 
d="M880 -84l-256 56l74 32v82h-583v63h582l-1 143h-487l-1 372l-30 -23l-45 63l186 143l57 -55l-72 -55l425 1l-1 -357l-255 55l73 30l-2 208h-249l-3 -319h588v-439z" />
    <glyph glyph-name="uni4E4D" unicode="&#x4e4d;" 
d="M882 172h-290v-250h-174v686h-29l-110 -243h-188l223 477h181l-77 -171h416v-63h-242v-179h227v-64h-227v-129h290v-64z" />
    <glyph glyph-name="uni4E4E" unicode="&#x4e4e;" 
d="M929 292h-356v-370l-296 72l103 65v233h-306v63h306v310l-188 -66l-18 67l497 179l33 -65l-131 -46v-251l178 110l48 -62l-198 -119l-28 58v-115h356v-63zM378 404l-69 -43l-118 191l57 35z" />
    <glyph glyph-name="uni4E4F" unicode="&#x4e4f;" 
d="M168 519l-21 66l453 193l37 -63zM890 143l-11 -113h-760v51h50l349 360h-309v56h236l-61 80l55 48l88 -90l-44 -38h90l23 24h258l-417 -440h369z" />
    <glyph glyph-name="uni4E50" unicode="&#x4e50;" 
d="M249 266l61 -23l-106 -275l-68 32zM624 329v-417l-277 68l93 58v291h-325l23 417h84l284 106l33 -48l-218 -79l-24 -333h143v300h184v-300h169v-63h-169zM892 8l-69 -46l-148 224l57 37z" />
    <glyph glyph-name="uni4E52" unicode="&#x4e52;" 
d="M395 235l122 -115l-256 -211l-91 133zM327 308h195v189h-195v-189zM898 308v-64h-805v64h153v411h37q39 12 361 116l76 -137l-393 -102v-36h463v-63h-186v-189h294z" />
    <glyph glyph-name="uni4E53" unicode="&#x4e53;" 
d="M640 244l241 -224l-109 -109l-224 244zM329 318h220v171h-220v-171zM903 318v-64h-805v64h150v402h47l358 114l76 -137l-400 -103v-42h522v-63h-221v-171h273z" />
    <glyph glyph-name="uni4E54" unicode="&#x4e54;" 
d="M580 515q190 -95 366 -120q-20 -85 -86 -167q-114 52 -218 153v-474h-202v559h122q-28 32 -41 49h-164l-61 -73h73l-83 -475h-101l78 435l-101 -121h-101l196 234h-185v64h238l66 79l-167 -32l-18 136l437 89l50 -136l-184 -35l-84 -101h499v-64h-329z" />
    <glyph glyph-name="uni4E56" unicode="&#x4e56;" 
d="M328 348h82v-318h-82v88l-218 -57l-14 73l232 51v20h-207v64h207v79zM535 368v-431h-81v431h-375v64h375v152l-259 -91l-42 159l453 168l79 -155l-150 -53v-180h371v-64h-371zM923 193v-122h-353v271h180v-80l99 49l46 -72l-145 -68v-60h79z" />
    <glyph glyph-name="uni4E58" unicode="&#x4e58;" 
d="M571 230q166 -95 359 -124q-31 -103 -98 -176q-133 68 -261 236v-226h-174v202l-252 -181l-38 67l229 168h-80v50l-156 -36l-12 74l168 30v27h-170v64h170v59h86v-264l55 40v258h-316v63h316v125l-177 -57l-16 68l428 140l32 -66l-93 -30v-180h333v-63h-333v-268z
M688 464v-74l103 50l46 -72l-149 -69v-41h86l76 86v-116h-253v236h91z" />
    <glyph glyph-name="uni4E59" unicode="&#x4e59;" 
d="M937 240v-210h-882l522 616h-517v79h584l17 20h255l-566 -679h400z" />
    <glyph glyph-name="uni4E5C" unicode="&#x4e5c;" 
d="M941 141v-177h-679v526h-213v79h213v212h170v-212h481v-445l-156 41l64 21l-1 304h-388v-487h342z" />
    <glyph glyph-name="uni4E5D" unicode="&#x4e5d;" 
d="M943 120v-151h-429l39 545h-118l-43 -567h-215l44 567h-157v98h165l15 200h213l-15 -200h233l-44 -599h214z" />
    <glyph glyph-name="uni4E5E" unicode="&#x4e5e;" 
d="M718 -20l183 157v-194h-773l459 558h-245l-47 -87h-230l236 418h219l-53 -99h438v-63h-472l-57 -105h542l-475 -585h275z" />
    <glyph glyph-name="uni4E5F" unicode="&#x4e5f;" 
d="M949 175v-174h-786v481h-132v78h132v210h154v-210h121v124h81v-124h381v-420l-246 55l73 30l-2 257h-206v-221h-81v221h-121v-443h471z" />
    <glyph glyph-name="uni4E60" unicode="&#x4e60;" 
d="M586 294l-392 -249l-71 153l415 221zM495 520l-99 -123l-143 141l84 100zM819 -76l-310 83l86 46l5 612h-469v63h699z" />
    <glyph glyph-name="uni4E61" unicode="&#x4e61;" 
d="M833 469l-384 -568l-74 54l231 346l-398 -70l-19 160l110 14q68 65 113 112l-240 -17l-4 94l55 2q88 100 191 248l156 -49q-84 -104 -170 -192l97 4l67 76l100 -44q-115 -124 -217 -214l265 35l35 52z" />
    <glyph glyph-name="uni4E66" unicode="&#x4e66;" 
d="M786 562l-95 227l97 39l119 -218zM454 384h70l-1 223h-69v-223zM905 59l-276 56l76 32l-1 174h-250v-383h-81v383h-291v63h291v223h-220v63h220v100h81v-100h227l-4 -286h228v-325z" />
    <glyph glyph-name="uni4E69" unicode="&#x4e69;" 
d="M318 376h-163v-344h163v344zM376 681h134v-63h-134v-172h126v-490h-415v490h142v377h147v-142zM916 130v-156h-349v832h165v-793h78z" />
    <glyph glyph-name="uni4E70" unicode="&#x4e70;" 
d="M718 637q0 3 57 68h-669v64h726q17 20 17 23l70 -49q0 -4 -73 -70q-72 -66 -73 -71zM155 562l37 58l161 -94l-43 -73zM464 362h444v-64h-332l285 -236l-109 -126l-312 293l64 69h-64l-129 -345h-86l131 345h-266v64h147l-112 74l36 59l161 -88l-25 -45h83l94 248h83z" />
    <glyph glyph-name="uni4E71" unicode="&#x4e71;" 
d="M377 204h-201v-161h201v161zM368 278h147v-316h-397v316h169v59h-247v63h247v139l-158 -99l-79 156l323 212l115 -142l-120 -76v-190h136v-63h-136v-59zM937 132v-163h-387v836h202v-794h72z" />
    <glyph glyph-name="uni4E73" unicode="&#x4e73;" 
d="M105 470l-68 121l344 246l96 -109l-303 -210l67 18l57 -126l-101 -25l-33 126zM541 166l-138 -19v-235l-212 38l64 30v146l-188 -26l-9 87l238 27q6 13 31 60h-191v107h247l9 22l105 -53q-1 -4 -80 -122l122 14zM423 650l118 -15l-34 -187l-110 22l11 -28l-103 -22
l-34 153l79 18l43 -112zM939 88v-160h-376v848h170v-809h93z" />
    <glyph glyph-name="uni4E7E" unicode="&#x4e7e;" 
d="M140 384h187v66h-187v-66zM140 578v-64h187v64h-187zM502 635v-313h-142v-74h148v-63h-148v-252h-179v252h-147v63h147v74h-107v313h109v50h-138v64h138v66h160v-66h157v-64h-157v-50h159zM956 110v-172h-496l245 500h-92l-17 -66l-94 39l96 376l99 -12l-28 -112h268v-64
h-284l-25 -98h107l20 40h186l-274 -565h172z" />
    <glyph glyph-name="uni4E86" unicode="&#x4e86;" 
d="M523 524h37v-612l-310 60l99 58v494h47l233 216h-446v64h515l39 36l74 -73z" />
    <glyph glyph-name="uni4E88" unicode="&#x4e88;" 
d="M934 406l-70 -85q-71 -84 -71 -85l-113 58l51 90h-174v-482l-324 52l94 53v377h-257v63h331l-119 94l77 104l67 -43l128 121h-372v63h439l31 29l122 -125l-218 -171l32 -21l-34 -51h213q14 23 23 40z" />
    <glyph glyph-name="uni4E89" unicode="&#x4e89;" 
d="M608 316v94h-128v-94h128zM480 473h128v86h-128v-86zM257 622h159l108 98h-173zM892 410h-123v-157h-289v-333l-133 48l57 27v258h-244v63h244v94h-273v63h273v86h-174v35l-65 -68l-39 55l245 259l57 -39l-17 -18h183l21 19l50 -48q0 -1 -155 -132h259v-148h123v-64z" />
    <glyph glyph-name="uni4E8B" unicode="&#x4e8b;" 
d="M740 171v42h-169v-42h169zM571 276h169v36h-169v-36zM432 467v112h-208v-112h208zM571 579v-112h81v112h-81zM893 213h-72v-105h-250v-199l-218 68l79 50v81h-222v63h222v42h-253v63h253v36h-275v63h275v36h-253v221h253v40h-299v63h299v117h139v-117h172v-63h-172v-40
h173v-221h-173v-36h250v-99h72v-63z" />
    <glyph glyph-name="uni4E8C" unicode="&#x4e8c;" 
d="M878 48h-758v136h758v-136zM673 654h-459v61h459v-61z" />
    <glyph glyph-name="uni4E8D" unicode="&#x4e8d;" 
d="M718 656h-446v63h446v-63zM859 436h-228v-503l-330 55l100 57v391h-265v63h723v-63z" />
    <glyph glyph-name="uni4E8E" unicode="&#x4e8e;" 
d="M853 277h-312v-322l-146 48l71 30v244h-313v136h313v194h-192v136h400v-136h-133v-194h312v-136z" />
    <glyph glyph-name="uni4E8F" unicode="&#x4e8f;" 
d="M717 718h-496v63h496v-63zM322 472l-17 -197h570l-1 -350l-265 56l74 31l-2 200h-382v-1h-77l20 261h-163v136h830v-136h-587z" />
    <glyph glyph-name="uni4E91" unicode="&#x4e91;" 
d="M708 619h-458v136h458v-136zM499 377q-71 -150 -145 -279l279 21l-34 91l120 42l134 -268l-149 -52l-42 112l-476 -47l-6 87l73 6q72 133 137 287h-340v136h901v-136h-452z" />
    <glyph glyph-name="uni4E92" unicode="&#x4e92;" 
d="M476 302l29 182h-171l-35 -182h177zM900 41v-63h-796v63h330l32 197h-247l86 467h-198v64h642v-64h-372l-31 -158h377l-88 -506h265z" />
    <glyph glyph-name="uni4E93" unicode="&#x4e93;" 
d="M649 696h-387v63h387v-63zM928 464h-223v-509h-193v509h-147l-91 -519h-86l92 519h-203v137h851v-137z" />
    <glyph glyph-name="uni4E94" unicode="&#x4e94;" 
d="M515 14h161l-1 317h-157zM895 14v-63h-782v63h205v317h-172v64h172v331h-141v63h601v-63h-257l-3 -331h252l-4 -381h129z" />
    <glyph glyph-name="uni4E95" unicode="&#x4e95;" 
d="M574 337v131h-88l-4 -131h92zM928 274h-161v-352h-193v352h-94l-6 -228h-210l6 228h-206v63h208l4 131h-159v63h161l4 155h210l-4 -155h86v305h193v-305h123v-63h-123v-131h161v-63z" />
    <glyph glyph-name="uni4E98" unicode="&#x4e98;" 
d="M751 726h-682v64h682v-64zM213 561v-96h363v96h-363zM576 247v155h-363v-155h363zM775 633v-465h-632v465h632zM949 43v-64h-891v64h891z" />
    <glyph glyph-name="uni4E9A" unicode="&#x4e9a;" 
d="M412 5h105v657h-105v-657zM598 58v-53h103zM897 5v-63h-791v63h225v61l-92 -40l-112 246l107 47l97 -164v507h-198v127h654v-127h-189v-538l103 210l163 -61l-138 -268h171z" />
    <glyph glyph-name="uni4E9B" unicode="&#x4e9b;" 
d="M454 426l-362 -66l-11 86l15 2v220h81v-208l28 4v338h165v-124h104v-64h-104v-125l85 12zM278 328h409v-136h-409v136zM133 33h742v-81h-742v81zM922 538v-136h-431v423h180v-179l121 59l43 -67l-164 -76v-120h145z" />
    <glyph glyph-name="uni4E9F" unicode="&#x4e9f;" 
d="M770 557l13 22h78l-107 -186l156 -100l-64 -99l-146 106l-55 -95h-80l79 135l-73 53l58 80l67 -43l37 63h-157v64h194zM389 605q80 80 130 129h-346v63h409l18 18l60 -57q0 -2 -174 -153h50v-487l-239 48l55 39v400h37zM187 495h-40v-215h40v215zM294 218h-196v334h196
v-334zM87 20h804v-63h-804v63z" />
    <glyph glyph-name="uni4EA0" unicode="&#x4ea0;" 
d="M603 484l-145 -57l-104 247l117 46zM871 227h-738v83h738v-83z" />
    <glyph glyph-name="uni4EA1" unicode="&#x4ea1;" 
d="M902 24v-63h-649v582h-168v63h355l-98 181l104 56l135 -192l-85 -45h389v-63h-449v-519h466z" />
    <glyph glyph-name="uni4EA2" unicode="&#x4ea2;" 
d="M919 605h-864v63h351l-60 133l73 26l86 -143l-46 -16h460v-63zM940 100v-154h-474v548h-188l-13 -531h-81l15 595h484v-567h133z" />
    <glyph glyph-name="uni4EA4" unicode="&#x4ea4;" 
d="M892 637h-818v64h380l-49 108l68 26l70 -109l-67 -25h416v-64zM585 272q155 -70 332 -115q-60 -154 -173 -254q-140 82 -284 238l-200 -209l-62 70l200 211q-74 88 -150 196l-78 -90l-67 65l188 222l80 -54l-96 -111q113 -72 220 -126l172 182l-66 62l48 54l245 -210
l-57 -66l-99 94z" />
    <glyph glyph-name="uni4EA5" unicode="&#x4ea5;" 
d="M695 485l-491 -460l-48 63l283 268l-300 -30l-5 64l54 4q113 119 209 244h-281v63h332l-36 119l77 24l61 -125l-61 -18h331v-63h-317q-111 -138 -214 -235l218 17l125 119zM771 -79l-234 202l-202 -196l-49 62l392 386l64 -53l-104 -101l232 -170z" />
    <glyph glyph-name="uni4EA6" unicode="&#x4ea6;" 
d="M132 438l91 -22l-63 -282l-103 32zM686 618v-684l-167 53l64 34v597h-126l-17 -641h-182l17 641h-175v64h287l-51 132l88 33l82 -146l-51 -19h400v-64h-169zM957 210l-95 -64l-162 244l79 51z" />
    <glyph glyph-name="uni4EA7" unicode="&#x4ea7;" 
d="M547 564l-38 19l45 98h-129l54 -94l-56 -23h124zM760 500h-333l-15 -576h-210l17 640h182l-43 106l26 11h-143v64h211l-37 74l61 32l61 -85l-43 -21h261v-64h-178l66 -23l-46 -94h163v-64z" />
    <glyph glyph-name="uni4EA8" unicode="&#x4ea8;" 
d="M648 365q19 16 31 27l60 -64q0 1 -170 -125v-289l-287 38l57 39v267h183l52 44h-302v63h376zM278 577v-96h300v96h-300zM762 636v-220h-552v220h552zM893 744v-64h-782v64h298l-21 82l77 26l48 -94l-47 -14h427z" />
    <glyph glyph-name="uni4EA9" unicode="&#x4ea9;" 
d="M411 665l-44 116l68 26l62 -111zM219 454v-165h222v165h-222zM661 454h-139v-165h139v165zM661 51v174h-139v-174h139zM219 51h222v174h-222v-174zM859 529v-560h-709v560h709zM876 642v-63h-782v63h782z" />
    <glyph glyph-name="uni4EAB" unicode="&#x4eab;" 
d="M794 680h-650v63h262l-39 64l69 46l74 -84l-39 -26h323v-63zM299 571v-96h256v96h-256zM753 631v-221h-527v221h527zM919 97h-346v-194l-244 37l51 34v123h-297v63h297v65h93l106 86h-332v63h411l33 27l62 -73l-180 -122v-46h346v-63z" />
    <glyph glyph-name="uni4EAC" unicode="&#x4eac;" 
d="M851 626h-750v63h348l-43 103l66 29l66 -110l-53 -22h366v-63zM366 224l-69 -234l-72 27l78 227zM344 390h220v131h-220v-131zM599 322v-392l-251 46l76 39v307h-149v261h472v-261h-148zM905 113l-49 -70l-174 143l43 56z" />
    <glyph glyph-name="uni4EAD" unicode="&#x4ead;" 
d="M780 686h-686v64h308l-26 57l62 37l54 -75l-34 -19h322v-64zM370 462h169v143h-169v-143zM300 660h430v-257h-430v257zM245 261h536v-63h-153v-285l-250 40l75 35v210h-208v63zM907 234h-81v73h-647v-118h-81v181h809v-136z" />
    <glyph glyph-name="uni4EAE" unicode="&#x4eae;" 
d="M730 693h-660v64h298l-11 70l64 17l29 -87h280v-64zM298 523h207v92h-207v-92zM238 665h419v-195h-419v195zM838 -36l100 90v-133h-362v365h-247l-18 -350h-81l21 414h537v-386h50zM950 277h-81v100h-737v-131h-81v194h899v-163z" />
    <glyph glyph-name="uni4EB2" unicode="&#x4eb2;" 
d="M458 555l-55 -14h78l47 138h-132zM804 -11l-229 198v-283l-286 58l83 51v195l-137 -213l-115 86l163 208l89 -58v75h-275v64h275v108h-131v63h90l-32 117l73 21h-205v63h234l-19 93l122 37l61 -116l-50 -14h271v-63h-187l80 -21l-44 -117h111v-63h-171v-108h281v-64h-281
v-107l68 84l246 -181z" />
    <glyph glyph-name="uni4EB3" unicode="&#x4eb3;" 
d="M772 684h-642v63h286l-15 66l62 21l35 -87h274v-63zM343 550h228v59h-228v-59zM299 659h356v-162h-356v162zM814 -22l117 100v-139h-545v199l-213 -14l-5 70l218 14v64l-150 -38l-14 69l374 98l30 -68l-75 -19v-95l231 15l4 -70l-235 -15v-171h263zM941 261h-165v143
h-581v-144h-128v207h874v-206z" />
    <glyph glyph-name="uni4EB5" unicode="&#x4eb5;" 
d="M774 587l-22 -182h103l49 51v-94h-241l26 175h-93l-2 -52l59 -10l-15 -63l-48 11l-4 -74h-132l6 103l-59 13l16 51l46 -8l1 29h-46v50h49l5 86h132l-5 -86h175zM699 690h-583v64h233l-17 73l70 21l39 -80l-50 -14h308v-64zM242 487h-131v136h131v47h76v-47h85v-136h-85
v-53l58 4l1 -56l-59 -7v-108l-144 44l68 24v32l-122 -14l-5 65l127 10v59zM693 159q108 -68 220 -103q-22 -58 -60 -96q-154 71 -296 249v-185l87 16l10 -59l-277 -62l-11 69l27 5v240l-206 -155h-103l339 257h105l-68 -51h97v-26q33 -28 75 -58l117 108l55 -46z" />
    <glyph glyph-name="uni4EBA" unicode="&#x4eba;" 
d="M477 532q210 -296 462 -468q-67 -83 -155 -124q-190 195 -329 529l-176 -502h-185l297 820h176z" />
    <glyph glyph-name="uni4EBB" unicode="&#x4ebb;" 
d="M582 539v-584h-76v526l-196 -148l-86 150l428 322l122 -121z" />
    <glyph glyph-name="uni4EBF" unicode="&#x4ebf;" 
d="M309 537v-602h-81v508l-99 -116l-99 112l320 372l126 -79zM952 149v-207h-614l332 640h-199v76h239l9 18h175l-359 -698h261z" />
    <glyph glyph-name="uni4EC0" unicode="&#x4ec0;" 
d="M327 573v-614h-81v529l-98 -103l-113 139l287 299l145 -103zM913 364h-196v-434h-82v434h-256v136h256v321h82v-321h196v-136z" />
    <glyph glyph-name="uni4EC1" unicode="&#x4ec1;" 
d="M353 544v-594h-82v498l-126 -147l-114 127l329 381l142 -91zM430 553h401v-62h-401v62zM936 227v-137h-543v137h543z" />
    <glyph glyph-name="uni4EC2" unicode="&#x4ec2;" 
d="M309 580v-647h-82v521l-71 -110l-126 108l252 386l149 -69zM916 -79l-268 65l78 37l-2 488h-75l-15 -578h-188l14 578h-129v64h131l4 178h189l-5 -178h266v-654z" />
    <glyph glyph-name="uni4EC3" unicode="&#x4ec3;" 
d="M320 538v-590h-81v485l-86 -112l-128 129l312 402l157 -88zM943 583h-166v-664l-265 64l63 49v551h-160v63h528v-63z" />
    <glyph glyph-name="uni4EC4" unicode="&#x4ec4;" 
d="M305 736l-20 -804h-167l21 865h599v-61h-433zM564 345q156 -145 359 -232q-53 -93 -135 -147q-131 104 -243 310l-77 -281h-107l179 641h104z" />
    <glyph glyph-name="uni4EC5" unicode="&#x4ec5;" 
d="M320 613v-637h-81v548l-97 -107l-111 130l278 305l141 -95zM662 321q109 -91 258 -186q-88 -108 -207 -164q-77 86 -143 198l-114 -186h-112l174 281q-70 139 -122 299q22 5 25 8q76 -97 171 -187l140 226h-341v70h385l12 20h105z" />
    <glyph glyph-name="uni4EC6" unicode="&#x4ec6;" 
d="M451 764l-104 -161v-659h-81v534l-98 -151l-121 104l260 399zM874 214l-228 214v-506h-146v877h146v-327l26 36l255 -219z" />
    <glyph glyph-name="uni4EC7" unicode="&#x4ec7;" 
d="M300 555v-602h-81v502l-62 -76l-126 132l267 325l155 -93zM953 91v-145h-354l48 527h-110l-65 -524h-79l66 524h-121v66h130l21 170h77l-21 -170h289l-53 -550h78z" />
    <glyph glyph-name="uni4EC9" unicode="&#x4ec9;" 
d="M274 589v-636h-81v531l-75 -98l-104 106l251 323l127 -72zM960 101v-144h-300v658h-209l-33 -665h-68l36 730l423 -1v-686h58z" />
    <glyph glyph-name="uni4ECA" unicode="&#x4eca;" 
d="M601 446l150 -99l-378 -453l-104 80l260 370h-335v63h380zM541 519l-67 -72l-128 119l56 58zM429 791q261 -211 548 -289q-19 -74 -70 -135q-261 121 -494 402l-290 -398h-97l349 474h93z" />
    <glyph glyph-name="uni4ECB" unicode="&#x4ecb;" 
d="M467 760q241 -128 485 -153q-9 -72 -51 -140q-81 25 -174 73v-606h-212v672h103q-90 59 -171 133l-155 -155h29l-67 -535h-85l60 471l-72 -72h-118l368 368h116z" />
    <glyph glyph-name="uni4ECD" unicode="&#x4ecd;" 
d="M297 629v-690h-82v571l-82 -120l-119 108l229 330l142 -70zM937 -80l-247 57l74 33l-2 376l-175 1l75 284h-87l-19 -728h-168l20 728h-39v63h310l3 12h88l-82 -296h249v-530z" />
    <glyph glyph-name="uni4ECE" unicode="&#x4ece;" 
d="M699 411q115 -236 271 -372q-61 -58 -131 -81q-104 146 -160 372l-84 -326h-204l46 173l-50 -42l-81 140l-62 -263h-172l183 760h168l-90 -383l115 -170l133 501h198z" />
    <glyph glyph-name="uni4ED1" unicode="&#x4ed1;" 
d="M483 745q223 -163 474 -226q-13 -64 -55 -118q-225 92 -442 318l-313 -337h-127l431 461h123zM762 -9l145 116v-161h-592v612h217v-282l174 110l57 -73l-231 -141v-181h230z" />
    <glyph glyph-name="uni4ED3" unicode="&#x4ed3;" 
d="M361 501h273q-86 74 -168 168zM749 -31l132 115v-152h-595v449l-46 -73h-194l340 524h182l-80 -128q233 -145 459 -192q-21 -84 -85 -162q-72 34 -148 88l-8 -341l-227 56l75 27l4 258h-128v-469h319z" />
    <glyph glyph-name="uni4ED4" unicode="&#x4ed4;" 
d="M330 535v-572h-82v491l-99 -99l-121 157l312 308l157 -118zM954 373h-200v-455l-221 53l54 39v363h-238v64h238v51h31q24 40 137 216h-241v63h281q23 38 23 39l94 -58q0 -2 -185 -259h27v-52h200v-64z" />
    <glyph glyph-name="uni4ED5" unicode="&#x4ed5;" 
d="M353 552v-606h-81v529l-120 -114l-108 149l319 299l142 -113zM785 393v-378h50v-63h-346v63h117v378h-208v64h208v264h179v-264h127v-64h-127z" />
    <glyph glyph-name="uni4ED6" unicode="&#x4ed6;" 
d="M299 546v-596h-81v496l-93 -114l-111 119l298 364l138 -83zM852 225l-1 224h-121v-183h-151v183h-100v-471h335l120 116v-147h-547v502h-52v66h52v100h92v-100h100v118h151v-118h206v-346l-143 37z" />
    <glyph glyph-name="uni4ED7" unicode="&#x4ed7;" 
d="M310 580v-621h-82v531l-86 -95l-116 136l267 292l147 -99zM670 238q130 -79 272 -133q-55 -110 -149 -182q-87 60 -176 163l-49 -139h-185l110 304q-47 69 -94 155l13 6q11 5 12 6q52 -46 100 -81l64 177h-239v64h262l79 220h176l-77 -220h137v-64h-159z" />
    <glyph glyph-name="uni4ED8" unicode="&#x4ed8;" 
d="M323 502v-561h-81v449l-98 -135l-127 121l319 434l152 -80zM681 195l-65 -74l-212 210l56 60zM932 473h-79v-564l-236 66l88 52v446h-323v64h323v229h148v-229h79v-64z" />
    <glyph glyph-name="uni4ED9" unicode="&#x4ed9;" 
d="M313 659v-664h-81v565l-136 -167l-59 66l287 352l76 -45zM937 394v-463h-81v32h-493v2h-19v440h82v-381h108v688h183v-688h139v370h81z" />
    <glyph glyph-name="uni4EDD" unicode="&#x4edd;" 
d="M587 7h322v-63h-677v63h209v487h-182v63h492v-63h-164v-487zM510 791q233 -132 467 -163q-11 -71 -52 -135q-227 76 -441 276l-340 -294h-114l427 367h112z" />
    <glyph glyph-name="uni4EDE" unicode="&#x4ede;" 
d="M313 646v-708h-81v597l-146 -201l-67 67l300 412l83 -44zM384 455l100 -19l-41 -285l-114 27zM909 -81l-249 64l78 37l-2 592h-119l-32 -638h-97l33 638h-91v61h480z" />
    <glyph glyph-name="uni4EDF" unicode="&#x4edf;" 
d="M305 537v-598h-81v498l-73 -90l-136 143l295 358l166 -100zM934 386h-183v-464h-193v464h-174v64h174v113l-77 -36l-51 138l357 174l83 -132l-121 -56h2v-201h183v-64z" />
    <glyph glyph-name="uni4EE1" unicode="&#x4ee1;" 
d="M265 545v-586h-82v474l-42 -58l-137 128l246 334l164 -87zM810 -2l145 144v-181h-588l310 514h-190l-39 -129l-134 62l126 402l143 -23l-21 -68h355v-64h-374l-36 -117h208l16 26h228l-343 -566h194z" />
    <glyph glyph-name="uni4EE3" unicode="&#x4ee3;" 
d="M730 627l-118 101l43 59l127 -85zM267 600v-631h-81v532l-76 -94l-58 67l287 352l75 -45zM612 409q15 -58 32 -103q74 -195 200 -265q-2 -2 66 98q9 -150 14 -210q-117 7 -215 107q-94 94 -151 250q-17 48 -31 105l-139 -30l-28 124l141 30q-23 128 -33 251l90 2
q7 -119 28 -235l289 61l28 -123z" />
    <glyph glyph-name="uni4EE4" unicode="&#x4ee4;" 
d="M773 451l-268 -421l193 -50l-21 -67l-478 136l25 53l147 -38l188 367h-325v63h210l-85 109l49 41l113 -122l-32 -28h102l19 37zM492 792q219 -198 487 -295q-15 -60 -58 -109q-235 116 -453 378l-344 -373h-117l421 452h113z" />
    <glyph glyph-name="uni4EE5" unicode="&#x4ee5;" 
d="M446 380l-175 74l28 68l178 -57zM370 167l-302 -139l-25 83l45 18v585h171v-515l96 39zM887 -10l-208 311l-102 -292h-218l272 746h207l-126 -359l255 -355z" />
    <glyph glyph-name="uni4EE8" unicode="&#x4ee8;" 
d="M827 639h-423v61h423v-61zM421 373v134h404v-134h-404zM283 596v-644h-82v517l-61 -94l-95 83l239 367l113 -53zM909 150v-134h-565v134h565z" />
    <glyph glyph-name="uni4EEA" unicode="&#x4eea;" 
d="M668 506l-148 142l44 50l155 -129zM335 540v-557h-82v456l-81 -100l-131 138l256 311l161 -96zM692 310q119 -83 256 -150q-68 -110 -173 -174q-89 77 -169 191l-143 -222l-71 47l162 253q-74 121 -133 254l26 10q85 -87 175 -157l172 269l81 -38z" />
    <glyph glyph-name="uni4EEB" unicode="&#x4eeb;" 
d="M321 564v-638h-81v538l-100 -123l-121 128l306 373l149 -89zM436 288l-79 59l201 375l93 -35zM872 -62l-27 72l-454 -63l-9 87l55 6q105 181 290 600l162 -57q-138 -293 -272 -522l200 22l-36 95l80 37l109 -232z" />
    <glyph glyph-name="uni4EEC" unicode="&#x4eec;" 
d="M275 563v-627h-81v542l-88 -92l-90 113l313 328l117 -84zM485 556h70v-635h-184v635h101l-82 96l63 62l100 -90zM928 -89l-248 70l64 50v625h-150v64h334v-809z" />
    <glyph glyph-name="uni4EF0" unicode="&#x4ef0;" 
d="M290 585v-662h-82v571l-81 -90l-107 126l279 306l135 -91zM917 135l-208 48l60 36v337h-118v-620h-81v297l-236 -110l-25 76l31 13v394h27l196 141l53 -54l-125 -87h14v-327l55 23l10 -34v358h347v-491z" />
    <glyph glyph-name="uni4EF2" unicode="&#x4ef2;" 
d="M332 577v-624h-82v542l-115 -115l-100 131l305 302l130 -98zM768 485h-125v-220h125v220zM434 265h128v220h-128v-220zM929 176h-285v-226h-81v226h-191v391h190v139h81v-139h286v-391z" />
    <glyph glyph-name="uni4EF3" unicode="&#x4ef3;" 
d="M266 549v-484h-81v367l-33 -48l-129 116l168 240l154 -76zM575 255l11 -127l-231 -109l-44 143l36 13v509h179v-219h54v-63h-54v-164zM955 213v-142h-354v616h149v-187l77 65l95 -83l-172 -147v-227h103z" />
    <glyph glyph-name="uni4EF5" unicode="&#x4ef5;" 
d="M310 596v-636h-81v536l-89 -109l-111 118l249 304l138 -83zM774 604v-273h154v-63h-154v-320h-198v320h-244v63h244v273h-83l-31 -254h-81l51 414h80l-12 -97h436v-63h-162z" />
    <glyph glyph-name="uni4EF6" unicode="&#x4ef6;" 
d="M941 320h-134v-380h-225v380h-264v63h264v230h-101l-22 -218h-73l34 330l-112 -172v-614h-81v488l-63 -97l-143 120l250 382l152 -70l2 17h73l-10 -103h94v128h225v-128h113v-63h-113v-230h134v-63z" />
    <glyph glyph-name="uni4EF7" unicode="&#x4ef7;" 
d="M337 543v-598h-81v517l-120 -120l-104 136l348 346l136 -102zM614 656q180 -143 369 -205q-20 -55 -73 -108q-55 29 -107 72v-461h-161v498h118q-83 79 -158 187l-128 -177h73l-32 -429h-75l33 428l-32 -44h-94l254 348h92z" />
    <glyph glyph-name="uni4EFB" unicode="&#x4efb;" 
d="M315 603v-686h-81v587l-128 -158l-68 76l343 423l88 -52zM904 22v-61h-527v61h168v351h-201v61h201v136l-91 -44l-38 99l327 164l61 -93l-75 -36v-226h166v-61h-166v-351h175z" />
    <glyph glyph-name="uni4EFD" unicode="&#x4efd;" 
d="M316 555v-574h-81v484l-101 -111l-111 130l310 340l141 -95zM811 438q-89 96 -156 242q6 3 24 9q133 -138 304 -209q-36 -67 -96 -110q-27 20 -48 40l-1 -495l-256 59l75 34l-2 367h-106l-21 -426h-96l22 426h-83v63h44l-58 55l150 216l82 -41l-159 -230h381z" />
    <glyph glyph-name="uni4EFF" unicode="&#x4eff;" 
d="M569 645l-4 -181h350v-520l-147 40l65 21l-1 398h-269l-12 -473h-161l18 715h-116v30l-36 -40v-688h-81v599l-95 -106l-56 70l298 330l74 -49l-77 -85h235l-77 70l47 52l103 -72l-43 -50h331v-61h-346z" />
    <glyph glyph-name="uni4F01" unicode="&#x4f01;" 
d="M492 779q248 -149 466 -197q-27 -95 -110 -186q-190 102 -380 357l-322 -358h-106l410 452h103zM490 11h372v-63h-696v63h97v254h81v-254h64v504h82v-235h241v-136h-241v-133z" />
    <glyph glyph-name="uni4F09" unicode="&#x4f09;" 
d="M338 580v37l-49 -64v-618h-81v512l-87 -113l-109 110l306 396l133 -76l-93 -121h256l-58 127l63 30l77 -131l-58 -26h277v-63h-577zM967 64v-140h-309v542h-205l-14 -546h-81l15 609h466v-566h35z" />
    <glyph glyph-name="uni4F0A" unicode="&#x4f0a;" 
d="M268 590v-625h-81v525l-71 -87l-63 71l285 352l82 -49zM713 361v91h-68l-2 -91h70zM647 515h66v82h-64zM794 452l1 -154h-154l-9 -358h-182l9 358h-129v63h131l2 91h-166v63h168l2 82h-122v63h449v-144h130v-64h-130z" />
    <glyph glyph-name="uni4F0D" unicode="&#x4f0d;" 
d="M574 13h89l-1 334h-75zM956 13v-63h-669v63h203l12 334h-173v64h175l7 209h-138v40l-95 -123v-591h-82v484l-34 -44l-124 123l248 319l151 -85l-46 -60h406v-63h-200l-8 -209h236v-1h9l-6 -397h128z" />
    <glyph glyph-name="uni4F0E" unicode="&#x4f0e;" 
d="M736 226q112 -45 226 -72q-50 -132 -149 -220q-96 59 -186 160l-108 -130h-103l159 191q-71 90 -148 213q1 1 12 6q10 4 12 6q105 -70 211 -121l102 122h-351v82h184v126h-238v21l-54 -63v-607h-81v512l-75 -87l-118 131l277 321l148 -94l-61 -71h202v167h81v-167h213
v-63h-213v-126h155l10 12h99z" />
    <glyph glyph-name="uni4F0F" unicode="&#x4f0f;" 
d="M826 543l-131 167l67 56l144 -155zM320 543v-614h-81v519l-86 -100l-109 122l299 347l137 -87zM641 383q146 -232 313 -361q-55 -59 -107 -81q-157 163 -264 442h-3l-117 -390h-109l119 390h-116v134h157l72 237h105l-71 -237h266v-134h-245z" />
    <glyph glyph-name="uni4F10" unicode="&#x4f10;" 
d="M874 587l-118 144l55 49l130 -133zM332 577v-660h-81v579l-128 -128l-109 142l337 333l141 -106zM777 249q41 -117 117 -173q21 46 40 91q3 -32 9 -124l9 -124q-215 18 -311 240l-156 -102l-41 78l166 111l-4 17q-24 92 -38 246l-203 -4l-1 71l198 4q-6 80 -9 165h166
q2 -60 8 -162l109 2l1 -71l-105 -2q8 -97 21 -170l120 80l59 -72z" />
    <glyph glyph-name="uni4F11" unicode="&#x4f11;" 
d="M305 587v-650h-82v538l-83 -114l-116 111l257 350l141 -74zM731 532q116 -214 255 -324q-48 -50 -94 -68q-103 117 -171 309v-493h-137v526l-172 -334h-96l200 384h-163v63h231v220h137v-220h183v-63h-173z" />
    <glyph glyph-name="uni4F17" unicode="&#x4f17;" 
d="M440 466h-223l183 313h214l-90 -161q101 -60 229 -85q-20 -62 -59 -106q-102 45 -191 153zM447 -22l-144 143l-46 -143h-209l139 415h203l-58 -182l173 -154zM759 205q91 -108 221 -201q-37 -46 -104 -76q-79 89 -134 214l-44 -159h-205l124 430h200z" />
    <glyph glyph-name="uni4F18" unicode="&#x4f18;" 
d="M831 594l-91 124l60 48l104 -113zM318 562v-642h-81v536l-73 -95l-144 142l255 326l173 -98zM943 127v-128h-291v485h-26l-63 -500h-197l65 500h-84v64h92l24 181h194l-23 -181h273v-64h-164v-456h113z" />
    <glyph glyph-name="uni4F19" unicode="&#x4f19;" 
d="M286 569v-615h-81v504l-56 -77l-121 116l238 324l147 -77zM636 346q141 -176 323 -280q-51 -71 -123 -111q-119 113 -205 307l-14 -283h-169l18 360l-25 -22l-125 178l48 42l106 -132l13 259h169l-11 -222l115 143l76 -48l-147 -176l-46 43z" />
    <glyph glyph-name="uni4F1A" unicode="&#x4f1a;" 
d="M464 792q246 -178 512 -242q-17 -75 -66 -137q-241 104 -470 352l-155 -176h341v-63h-378v21l-101 -114h583v-63h-247q-39 -144 -107 -322l259 30l-34 105l60 19l100 -260l-73 -23l-33 99l-479 -65l-7 70l44 5q50 145 90 342h-182v50h-89l371 418h101z" />
    <glyph glyph-name="uni4F1B" unicode="&#x4f1b;" 
d="M414 746l-99 -144v-671h-81v553l-82 -119l-139 124l235 339zM590 508v-210l66 105zM936 5v-61h-511v864h454v-61h-289v-197l60 42l65 -95l63 100l100 -47l-96 -150l115 -167l-93 -68l-85 137l-66 -103l-63 42v-236h346z" />
    <glyph glyph-name="uni4F1E" unicode="&#x4f1e;" 
d="M254 392h-240l409 407h232l-67 -68q192 -132 393 -181q-18 -65 -67 -125q-181 81 -353 278zM627 297h52l-52 48v-48zM462 297v33l-62 -33h62zM691 297h233v-63h-297v-316h-165v316h-325v63h255l-78 146l72 40l76 -109v188h165v-176l95 120l94 -59z" />
    <glyph glyph-name="uni4F1F" unicode="&#x4f1f;" 
d="M312 537v-565h-81v447l-63 -92l-135 121l237 339l159 -79zM921 20l-143 42l63 18l7 221h-142v-357h-165v357h-197v63h206v39h-76v63h76v82h-140v63h140v179h146v-179h133v-63h-133v-82h83v-63h-83v-39h239z" />
    <glyph glyph-name="uni4F20" unicode="&#x4f20;" 
d="M316 570v-613h-81v533l-105 -105l-95 125l317 314l125 -93zM660 345h152l33 33l71 -67l-234 -208l85 -104l-148 -68l-150 230l121 53l41 -50l118 118l-232 -1l32 166h-218v63h230l17 87h-133v63h145l28 145h135l-29 -145h94v-63h-107l-18 -87h248v-63h-260z" />
    <glyph glyph-name="uni4F22" unicode="&#x4f22;" 
d="M306 603v-666h-81v576l-90 -99l-102 120l269 295l130 -87zM941 341h-99v-433l-231 64l74 47v291l-314 -313l-43 62l282 282h-242l-1 243h76l-2 -179h244v256h-258v63h455v-63h-40v-256h99v-64z" />
    <glyph glyph-name="uni4F24" unicode="&#x4f24;" 
d="M931 -99l-257 60l75 35l-2 404h-160l-24 -484h-104l24 484h-134v61h51l-61 23v-543h-198v529l-53 -87l-71 60l231 378l85 -37l-113 -185h119v-111l79 349l86 -9l-22 -98h376v-61h-389l-46 -208h63l6 110h104l-6 -110h341v-560z" />
    <glyph glyph-name="uni4F25" unicode="&#x4f25;" 
d="M608 350q135 -128 360 -228q-68 -107 -174 -170q-126 123 -217 358v-203l41 24l30 -66l-172 -118l-37 80l30 17v306h-130v64h130v271l-154 -153v-604h-82v522l-82 -82l-126 162l300 296l163 -122l-6 -6h95v-137l166 116l65 -75l-231 -156v-32h295v-64h-264z" />
    <glyph glyph-name="uni4F26" unicode="&#x4f26;" 
d="M385 368h-62v-426h-81v500l-102 -126l-111 118l317 388l138 -82l-161 -198v-129l273 381h91l-95 -134q184 -126 365 -166q-18 -59 -49 -94q-170 58 -334 235zM814 -14l115 102v-144h-462v501h196v-186l164 96l51 -69l-215 -122v-178h151z" />
    <glyph glyph-name="uni4F27" unicode="&#x4f27;" 
d="M293 539v-578h-81v488l-88 -97l-92 110l281 310l119 -80zM513 488h285q-92 73 -169 180zM791 -28l118 109v-145h-472v501h-113l258 389h149l-84 -130q149 -110 313 -162q-19 -51 -71 -105l-21 11l-17 -334l-217 59l77 25l9 234h-150v-452h221z" />
    <glyph glyph-name="uni4F2A" unicode="&#x4f2a;" 
d="M913 -81l-149 42l67 21l-1 482h-152l-67 -537h-168l69 537h-155v63h85l-60 74l-65 -81v-594h-82v494l-73 -90l-121 128l277 337l150 -89l-78 -95l42 38l90 -89l-35 -33h33l25 190h165l-24 -190h227v-608zM773 125l-103 105l43 58l110 -93z" />
    <glyph glyph-name="uni4F2B" unicode="&#x4f2b;" 
d="M640 575l-63 117l71 40l81 -108zM298 576v-646h-81v569l-98 -93l-100 138l298 280l132 -104zM376 158h565v-136h-565v136zM957 289h-174v216h-277v-200h-142v263h593v-279z" />
    <glyph glyph-name="uni4F2F" unicode="&#x4f2f;" 
d="M286 547v-598h-81v498l-62 -76l-135 142l265 322l166 -100zM706 58v204h-270v-204h270zM436 494v-169h270v169h-270zM904 566v-587h-538v587h137l-77 33l104 236l152 -31l-100 -238h322z" />
    <glyph glyph-name="uni4F30" unicode="&#x4f30;" 
d="M725 374h-270v-340h270v340zM938 448v-495h-558v495h154v87h-188v59l-41 -45v-591h-81v502l-83 -92l-125 145l297 325l158 -106l-121 -133h184v202h161v-202h225v-64h-225v-87h243z" />
    <glyph glyph-name="uni4F32" unicode="&#x4f32;" 
d="M534 681l-3 -159h320v159h-317zM517 -31h-161l19 729l-85 -104v-640h-81v540l-80 -98l-107 113l250 305l118 -70h542v-285h-403zM962 106v-132h-398v437h92v-149l152 106l56 -66l-208 -140v-157h205z" />
    <glyph glyph-name="uni4F34" unicode="&#x4f34;" 
d="M275 570v-592h-81v497l-47 -55l-109 122l229 263l136 -86zM906 284h-250v-327h-137v327h-232v63h232v76h-117v63h117v50l-86 -39l-76 164l93 44l69 -107v141h137v-112l65 121l147 -61l-113 -196l-99 57v-62h106v-63h-106v-76h250v-63z" />
    <glyph glyph-name="uni4F36" unicode="&#x4f36;" 
d="M662 36l215 -47l-18 -62l-493 118l21 50l134 -29l130 311h-312v64h338l14 33l163 -71zM663 503l-58 -42l-83 120l47 35zM292 548v-571h-81v460l-77 -106l-111 107l276 377l135 -72zM594 773q180 -153 383 -224q-19 -52 -66 -104q-178 95 -335 301l-184 -286h-100l244 374
h97z" />
    <glyph glyph-name="uni4F38" unicode="&#x4f38;" 
d="M331 593v-627h-82v536l-102 -113l-107 125l279 306l136 -90zM719 233v139h-93v-139h93zM442 233h102v139h-102v-139zM442 546v-110h102v110h-102zM719 546h-93v-110h93v110zM925 154h-299v-229h-81v229h-176v464h175v187h81v-187h300v-464z" />
    <glyph glyph-name="uni4F3A" unicode="&#x4f3a;" 
d="M265 565v-621h-81v536l-54 -57l-104 129l278 289l134 -95zM361 495v63h373v-63h-373zM532 350h-128v-207h128v207zM716 67h-381v353h381v-353zM938 741v-828l-250 68l84 53v643h-331v63z" />
    <glyph glyph-name="uni4F3C" unicode="&#x4f3c;" 
d="M310 577v-648h-81v558l-79 -87l-120 141l256 279l152 -102zM608 241l54 134l-41 -36l-72 94v-174l54 18zM909 -52l-213 301l-91 -229h-86l70 175l-223 -86l-21 84l17 6v355h187v-93l39 33l86 -90l86 213h83l-114 -286l248 -325z" />
    <glyph glyph-name="uni4F3D" unicode="&#x4f3d;" 
d="M253 540v-588h-81v476l-51 -70l-107 103l268 365l129 -69zM452 37l-2 378h-49l-20 -409zM616 -50l-235 55l-3 -54h-75l23 464h-57v63h60l6 112h75l-6 -112h212v-528zM789 436h-71v-337h71v337zM942 23h-285v483h285v-483z" />
    <glyph glyph-name="uni4F43" unicode="&#x4f43;" 
d="M324 603v-638h-81v543l-110 -128l-109 122l269 311l137 -87zM719 114v172h-95v-172h95zM437 114h105v172h-105v-172zM437 506v-157h105v157h-105zM719 506h-95v-157h95v157zM895 35h-522v543h522v-543z" />
    <glyph glyph-name="uni4F46" unicode="&#x4f46;" 
d="M509 642v-146h180v146h-180zM689 244v189h-180v-189h180zM311 533v-594h-81v476l-53 -77l-140 125l253 364l166 -82l-16 -24h447v-564h-450v560zM932 35v-64h-537v64h537z" />
    <glyph glyph-name="uni4F4D" unicode="&#x4f4d;" 
d="M283 563v-617h-81v517l-69 -85l-102 109l290 354l126 -76l-78 -96h214l-60 100l56 36l88 -116l-31 -20h261v-63h-550v36zM366 520l70 13l133 -491l-84 -18zM916 6v-63h-614v63h284l145 540l177 -36l-139 -504h147z" />
    <glyph glyph-name="uni4F4E" unicode="&#x4f4e;" 
d="M220 626v-680h-81v575l-51 -66l-54 59l248 322l70 -39zM610 95l12 -67l-307 -104l-18 78l24 7v708h75l349 121l48 -75l-262 -84v-228h72q-11 61 -20 151l74 3q4 -59 18 -154h178v-63h-166q18 -87 37 -133q57 -146 158 -200q11 15 51 76q3 -35 12 -170q-192 15 -290 275
q-20 54 -41 152h-83v-316zM670 74l114 -81l-51 -69l-105 94z" />
    <glyph glyph-name="uni4F4F" unicode="&#x4f4f;" 
d="M936 28v-63h-537v63h168v347h-135v64h135v186h-153v50l-75 -93v-647h-81v547l-75 -92l-136 142l246 298l166 -100l-34 -42h174l-46 94l64 34l74 -108l-40 -20h219v-63h-138v-186h115v-64h-115v-347h204z" />
    <glyph glyph-name="uni4F50" unicode="&#x4f50;" 
d="M261 592v-658h-81v563l-107 -125l-72 83l326 379l92 -58zM974 11v-63h-433v63h180v323h-82l-129 -399h-204l205 615h-186v63h208l67 202h195l-65 -202h227v-63h-248l-49 -153h266v-63h-68v-323h116z" />
    <glyph glyph-name="uni4F51" unicode="&#x4f51;" 
d="M726 341h-282v-306h282v306zM526 531l-69 -118h460v-457h-542v318l-38 -65h-45v-275h-81v514l-75 -103l-121 115l257 350l146 -78l-126 -173v-256l136 228h-89v64h127l134 226h96l-133 -226h354v-64h-391z" />
    <glyph glyph-name="uni4F53" unicode="&#x4f53;" 
d="M270 545v-592h-81v493l-42 -52l-121 128l238 289l150 -89zM747 307q-50 82 -94 191v-191h94zM457 307h91v170zM659 568q126 -163 321 -300q-45 -59 -132 -100q-41 46 -74 96v-64h-121v-241h-105v241h-99v93l-52 -97h-123l204 372h-113v63h178v140h114v-140h195v-63h-193z
" />
    <glyph glyph-name="uni4F55" unicode="&#x4f55;" 
d="M283 536v-582h-81v483l-69 -85l-126 133l267 324l155 -93zM433 430v-201h77v201h-77zM671 499v-345h-302v345h302zM965 658h-33v-727l-217 61l78 45v621h-360v63h532v-63z" />
    <glyph glyph-name="uni4F57" unicode="&#x4f57;" 
d="M632 663l-52 106l71 38l72 -98zM303 573v-635h-81v559l-100 -95l-100 138l310 290l132 -104zM821 -32l111 100v-139h-464v451h170v-191l182 148l80 -81l-262 -206v-82h183zM945 430h-137v163h-275v-164h-141v227h553v-226z" />
    <glyph glyph-name="uni4F58" unicode="&#x4f58;" 
d="M181 260l71 -18l-41 -194l-81 24zM556 339v-409l-273 46l80 43v320h-206v64h601v-64h-202zM583 561v-63h-305v63h305zM651 269l188 -173l-63 -69l-179 186zM471 791q260 -155 506 -197q-22 -94 -86 -176q-224 97 -446 343l-321 -377h-93l388 452h90z" />
    <glyph glyph-name="uni4F59" unicode="&#x4f59;" 
d="M359 173l-159 -196l-117 112l175 171zM313 540h306q-82 73 -160 166zM665 249l196 -152l-100 -122l-169 162v-237l-296 59l85 53v269h-235v63h235v133h-89v39l-98 -112h-133l391 441h129l-94 -107q251 -120 470 -144q-24 -110 -102 -211q-118 54 -230 152v-58h-33v-133
h208v-63h-208v-117z" />
    <glyph glyph-name="uni4F5A" unicode="&#x4f5a;" 
d="M273 562v-618h-81v528l-55 -61l-97 116l249 273l124 -83zM712 244q114 -132 246 -203q-41 -58 -91 -88q-108 90 -191 268l-31 -251h-123l35 274h-204v63h212l31 243h-69l-36 -215l-132 40l53 306l136 -6l-10 -62h66l21 162h121l-20 -162h140v-63h-148l-31 -243h226v-63
h-201z" />
    <glyph glyph-name="uni4F5B" unicode="&#x4f5b;" 
d="M631 248v139h-40v-139h40zM475 248h35v139h-32zM592 451h39v186h-39v-186zM712 637v-186h55v186h-55zM941 249l-5 -282l-224 51l70 25l1 142h-71v-250h-81v250h-43l-39 -260h-84l40 260h-31v-1h-137l-1 266l174 1v186h-150v58l-75 -110v-643h-81v526l-56 -82l-119 107
l238 343l142 -70l-45 -66h146v91h82v-91h39v116h81v-116h197v-313h-197v-139z" />
    <glyph glyph-name="uni4F5C" unicode="&#x4f5c;" 
d="M303 550v-589h-81v447l-36 -63l-154 115l212 366l177 -70zM930 215h-172v-283h-179v692l-86 -234l-160 83l135 357l173 -38l-31 -85h319v-63h-171v-187h129v-64h-129v-115h172v-63z" />
    <glyph glyph-name="uni4F5D" unicode="&#x4f5d;" 
d="M290 571v-605h-82v514l-85 -94l-107 125l237 260l136 -91zM935 -78l-289 74l81 44l-3 631h-256l-48 -246l-71 26l72 360l73 -7l-14 -70h455v-812zM541 348h-85v-148h85v148zM679 121h-281v299h281v-299z" />
    <glyph glyph-name="uni4F5E" unicode="&#x4f5e;" 
d="M318 572v-621h-81v495l-59 -91l-122 104l253 386l143 -66zM416 716h364v-63h-364v63zM525 213l-28 -77l89 -37l104 114h-165zM573 349h325v-136h-105l-133 -145l204 -85l-49 -67l-208 95l-76 -84h-103l107 117l-128 58l39 111h-109v136h157l57 161l75 -10zM916 574v-63
h-578v63h578z" />
    <glyph glyph-name="uni4F5F" unicode="&#x4f5f;" 
d="M506 158l315 -118l-20 -71l-315 131zM749 169l-264 134l29 53l266 -120zM496 629q56 -26 106 -45l95 91h-172zM676 557q138 -45 293 -60q-34 -134 -117 -232q-135 65 -271 201l-198 -191h-85v-333h-81v497l-85 -131l-116 99l261 401l138 -64l-117 -180v-273l235 226
q-42 48 -63 73l-69 -109h-90l193 300h88l-35 -55h193l16 15h100z" />
    <glyph glyph-name="uni4F60" unicode="&#x4f60;" 
d="M282 674h32v-710h-123v593l-100 -130l-54 60l248 322l70 -40zM432 419h-77l82 385h75l-20 -96h284l5 31l161 -47l-61 -242l-142 26l27 169h-287zM523 346l-22 -261l-80 15l32 256zM568 549h84v-605l-143 48l59 28v529zM796 407l118 -306l-129 -48l-94 315z" />
    <glyph glyph-name="uni4F63" unicode="&#x4f63;" 
d="M736 297v134h-102v-134h102zM455 297h98v134h-95zM463 638l-3 -143h93v143h-90zM736 638h-102v-143h102v143zM920 -88l-247 69l63 48v205h-102v-168h-81v168h-99l-7 -277h-82l18 722l-65 -90v-612h-81v501l-91 -125l-136 129l254 345l164 -87l-28 -39h520v-789z" />
    <glyph glyph-name="uni4F64" unicode="&#x4f64;" 
d="M289 591v-642h-82v535l-71 -92l-109 110l259 334l134 -75zM896 65v-123h-174l23 451h-197l-3 -75l15 28l173 -82l-35 -71l-155 88l-11 -228l97 32l15 -67l-271 -103l-20 78l21 7q8 157 27 604h-48v64h491v-64h-286l-7 -157h279l-21 -462h35z" />
    <glyph glyph-name="uni4F65" unicode="&#x4f65;" 
d="M600 511q-83 80 -173 194l-165 -194h338zM141 369h-103l388 452h100l-77 -90q274 -142 505 -174q-25 -110 -114 -219q-118 58 -229 163v-53h-360v50zM196 330l106 14l67 -262l-136 -18zM642 32h199v-63h-750v63h404l18 66l-113 -15l-40 288l107 13l58 -241l71 260
l142 -29z" />
    <glyph glyph-name="uni4F67" unicode="&#x4f67;" 
d="M338 579v-670h-81v551l-90 -131l-129 117l280 403l153 -76zM610 426v-144l13 22l265 -130l-36 -71l-242 133v-323h-81v513h-136v63h159v334h165v-129h137v-63h-137v-142h195v-63h-302z" />
    <glyph glyph-name="uni4F69" unicode="&#x4f69;" 
d="M648 292v125h-22v-137zM706 231l-80 33v-200h-53v353h-23v-162h-63v225h72v69h-53v63h182v-63h-53v-69h71v-249zM823 767q4 -323 26 -464q23 -143 78 -207l37 69l13 -223q-189 24 -248 349q-25 142 -33 413h-210l-18 -727h-146l18 716l-92 -101v-624h-81v535l-36 -40
l-111 130l205 224l116 -78l1 28h481z" />
    <glyph glyph-name="uni4F6C" unicode="&#x4f6c;" 
d="M267 570v-597h-81v492l-53 -69l-99 101l251 324l122 -69zM677 434l-72 -73h67v-187l104 88l73 -71l-177 -143v-70h144l108 95v-136h-438v304l-139 -140l-55 67l261 266h-271v63h230v169h-112v63h112v94h161v-94h87v-63h-87v-109l173 176l71 -57l-177 -179h197v-63h-260z
" />
    <glyph glyph-name="uni4F6F" unicode="&#x4f6f;" 
d="M925 213h-235v-277h-179v277h-155v76h155v87h-71v72h71v87h-113v62l-52 -57v-607h-82v516l-98 -109l-125 146l296 325l158 -106l-87 -96h126l-41 139l62 19l61 -146l-41 -12h64l-33 48l138 95l51 -55l-134 -88h211v-74h-182v-87h88v-72h-88v-87h235v-76z" />
    <glyph glyph-name="uni4F70" unicode="&#x4f70;" 
d="M744 34v152h-305v-152h305zM439 391v-142h305v142h-305zM920 463v-508h-546v508h124l-55 25l69 137h-92v68l-128 -166v-569h-81v463l-53 -69l-139 138l255 327l168 -95l-21 -27h487v-70h-246l4 -1l-74 -161h328z" />
    <glyph glyph-name="uni4F73" unicode="&#x4f73;" 
d="M553 698v127h188v-127h172v-64h-172v-110h185v-64h-587v64h214v110h-177v64h177zM292 577v-634h-82v515l-69 -100l-124 112l255 367l148 -74zM949 -1v-63h-642v63h223v265h-138v63h138v114h179v-114h179v-63h-179v-265h240z" />
    <glyph glyph-name="uni4F74" unicode="&#x4f74;" 
d="M760 306v92h-191v-96zM569 683v-81h191v81h-191zM569 459h191v82h-191v-82zM841 177v-245h-81v243l-392 -8l-2 131l121 2v383h-45v23l-126 -164v-593h-82v486l-81 -105l-129 128l275 354l143 -80v12h478v-61h-79v-375l111 2l2 -131z" />
    <glyph glyph-name="uni4F76" unicode="&#x4f76;" 
d="M534 199v-176h168v176h-168zM885 273v-331h-420v331h420zM896 593v-63h-159v-153h119v-64h-441v64h189v153h-249v51l-26 -26v-581h-81v500l-141 -141l-96 126l372 369l126 -93l-142 -142h237v223h133v-223h159z" />
    <glyph glyph-name="uni4F7B" unicode="&#x4f7b;" 
d="M294 584v-635h-81v540l-69 -81l-114 127l248 286l142 -90zM485 667h147l-35 -685h-147l11 207l-106 -80l-49 87l160 103l3 64l-14 -20l-119 105l49 63l89 -64zM924 116v-132h-243v667h92v-219l67 79l75 -49l-117 -135l-25 25v-69l15 23l126 -77l-44 -72l-97 74v-218h68z
" />
    <glyph glyph-name="uni4F7C" unicode="&#x4f7c;" 
d="M287 580v-650h-81v556l-77 -90l-104 117l280 324l131 -83l-41 -48h198l-44 78l63 39l68 -84l-55 -33h247v-63h-492v46zM675 232q129 -80 278 -139q-63 -119 -169 -192q-110 84 -211 232l-222 -216l-58 72l227 225q-43 72 -75 135l-57 -77l-72 57l172 239l84 -46
l-103 -140q60 -52 124 -97l159 157l-63 59l48 53l222 -189l-56 -67l-81 77z" />
    <glyph glyph-name="uni4F7E" unicode="&#x4f7e;" 
d="M285 515v-566h-81v441l-49 -76l-142 120l242 369l167 -77zM695 200v76h-159v-76h159zM536 415v-75h159v75h-159zM822 478q-105 120 -179 306l14 7q143 -158 336 -270q-28 -44 -96 -90v-483l-277 53l75 47v88h-159v-167h-82v412l-32 -52l-124 100l202 327l145 -62
l-132 -216h309z" />
    <glyph glyph-name="uni4F7F" unicode="&#x4f7f;" 
d="M312 569v-611h-82v520l-89 -99l-111 131l299 328l141 -94zM430 347h113v114h-113v-114zM733 461h-109v-114h109v114zM568 180q196 -63 395 -70q-16 -111 -74 -194q-172 49 -356 176l-61 -154h-84l80 201q-67 50 -117 95l10 11q8 9 9 11q56 -25 125 -50l26 66h-158v259
h179v89h-74v63h74v112h82v-112h181v-63h-181v-89h285v-259h-305z" />
    <glyph glyph-name="uni4F83" unicode="&#x4f83;" 
d="M514 460h168v168h-168v-168zM445 702h420v-324h-420v324zM305 566v-614h-82v513l-100 -123l-107 113l299 365l132 -79zM444 330h77l-65 -370h-77zM563 340h123v-379h-123v379zM965 58v-121h-224v406h92v-377h57z" />
    <glyph glyph-name="uni4F84" unicode="&#x4f84;" 
d="M306 605v-643h-81v518l-56 -87l-137 116l218 332l161 -74zM622 71h285v-137h-557v137h191v117h-165v64h165v160l-184 -26l-8 69l30 4q76 112 134 219h-115v64h405v-64h-201q-58 -103 -134 -209l252 30l-36 95l119 41l128 -247l-149 -53l-40 105l-120 -17v-171h182v-64
h-182v-117z" />
    <glyph glyph-name="uni4F88" unicode="&#x4f88;" 
d="M308 549v-610h-81v498l-85 -117l-136 129l263 358l164 -86zM433 330l145 164l-97 69l53 89l126 -65l90 102h-209l-124 -180l-62 58l175 255l77 -38l-27 -39h220l23 26h91l-386 -441h-95zM987 404l-333 -470h-85l127 177l-109 94l79 91l112 -70l77 108h-185l-142 -157h-94
l371 408h93l-177 -195h174l10 14h82z" />
    <glyph glyph-name="uni4F89" unicode="&#x4f89;" 
d="M302 411l204 244h-129v22l-75 -109v-157zM724 529q-48 51 -100 126h-19l-104 -126h223zM894 -72l-225 54l73 25l3 140l-302 1l14 196h-105v47h-50v-461h-82v519l-61 -89l-129 116l246 354l154 -76l-25 -36h154l73 87h98l-72 -87h251v-63h-232q134 -91 287 -131
q-26 -72 -78 -123q-68 35 -133 99v-34h-273v38l-81 -97h472v-63h-263l-12 -134h308z" />
    <glyph glyph-name="uni4F8B" unicode="&#x4f8b;" 
d="M670 264v224l-234 -541h-86l126 288l-97 65l52 108l103 -39l37 83h-137l-74 -166h-39v-347h-183v590l-70 -86l-49 57l268 330l65 -38l-119 -146h88v-259l109 241h-88v63h273v-63h-102l-46 -103h136l8 19h59v42h82v-322h-82zM941 740v-818l-237 66l80 50v702h157z" />
    <glyph glyph-name="uni4F8D" unicode="&#x4f8d;" 
d="M287 551v-612h-82v511l-57 -70l-121 127l257 314l150 -90zM652 174l-40 -81l-193 110l35 65zM950 327h-65v-388l-252 54l77 45v289h-365v64h365v108h-333v63h175v88h-125v63h125v108h170v-108h79v-63h-79v-88h183v-63h-20v-108h65v-64z" />
    <glyph glyph-name="uni4F8F" unicode="&#x4f8f;" 
d="M275 592v-639h-81v544l-62 -72l-104 117l239 276l131 -83zM770 269q87 -124 218 -223q-37 -40 -88 -64q-77 86 -130 216v-258h-156v285l-123 -206h-97l151 252h-239v63h308v209h-97l-35 -206l-138 42l58 336l143 -5l-18 -104h87v203h156v-203h71v-63h-71v-209h159v-63
h-159v-2z" />
    <glyph glyph-name="uni4F91" unicode="&#x4f91;" 
d="M751 213v83h-254v-83h254zM751 432h-254v-73h254v73zM568 577l-63 -82h314v-1l107 1v-569l-248 54l73 44v126h-254v-223h-81v452l-82 -107l-36 41v-367h-81v484l-70 -91l-144 142l273 351l174 -98l-152 -198v-177l168 218h-82v63h130l144 187l71 -40l-113 -147h319v-63
h-367z" />
    <glyph glyph-name="uni4F94" unicode="&#x4f94;" 
d="M296 569v-607h-81v489l-55 -80l-129 116l228 328l154 -76zM939 173h-213v-238h-183v238h-223v63h223v185h-106l-16 -159h-87l29 293h87l-7 -71h100v105l-147 -15l-6 82l30 2q41 57 87 143l101 -29q-30 -48 -74 -105l208 17l-30 40l68 53l155 -178l-82 -64l-59 80l-68 -7
v-124h173v-63h-173v-185h213v-63z" />
    <glyph glyph-name="uni4F97" unicode="&#x4f97;" 
d="M796 455h-360v63h360v-63zM664 327h-119v-173h119v173zM817 81h-334v313h334v-313zM922 -72l-140 51l55 28v588h-425v-600h-81v615l-46 -60v-598h-81v493l-72 -94l-114 115l258 333l140 -79l-47 -61h553v-731z" />
    <glyph glyph-name="uni4F9B" unicode="&#x4f9b;" 
d="M417 301l159 -26l-81 -358l-153 37zM767 307l129 -345l-139 -37l-104 355zM554 433h96v172h-96v-172zM924 433v-63h-632v63h116v172h-92v38l-50 -78v-606h-81v481l-37 -57l-127 107l211 322l149 -69l-48 -74h75v126h146v-126h96v140h146v-140h94v-64h-94v-172h128z" />
    <glyph glyph-name="uni4F9D" unicode="&#x4f9d;" 
d="M554 586h-187v20l-55 -61v-175zM789 321q89 -76 196 -132q-51 -75 -122 -117q-99 89 -178 247v-275l64 12l1 -71l-288 -65l-12 81l26 5v403l-141 -127l-23 36v-375h-81v512l-99 -110l-107 126l321 353l135 -91l-71 -79h182l-60 121l62 32l82 -130l-47 -23h257v-68h-213
l-83 -75h95v-89q24 -26 36 -38l83 100l81 -53z" />
    <glyph glyph-name="uni4FA0" unicode="&#x4fa0;" 
d="M621 309q136 -116 356 -205q-64 -108 -166 -176q-139 123 -241 381h-19l-106 -355h-85l108 355h-164v64h183l11 34l-63 -16l-48 195l60 16l57 -174l57 189h-176v39l-95 -105v-592h-81v502l-100 -111l-102 120l321 354l130 -87l-51 -57h174l33 110h81l-33 -110h187v-63
h-206l-73 -244h71l-28 40l163 142l64 -61l-144 -121h250v-64h-325z" />
    <glyph glyph-name="uni4FA3" unicode="&#x4fa3;" 
d="M641 727h-106v-157h106v157zM831 494h-368v303h368v-303zM288 565v-620h-82v519l-85 -105l-97 104l300 368l121 -73zM710 310h-255v-282h255v282zM916 -54h-534v439h534v-439z" />
    <glyph glyph-name="uni4FA5" unicode="&#x4fa5;" 
d="M302 527v-571h-81v481l-76 -84l-125 146l276 301l157 -106l-22 -24l67 9q-14 51 -23 100l82 6q7 -39 22 -95l207 27l10 -74l-192 -25q14 -34 30 -60l8 -11l140 88l53 -67l-136 -83q54 -45 116 -62q13 19 47 72l14 -146q-153 7 -247 92l-132 -81l-36 73l113 71
q-7 9 -19 29q-19 35 -34 74l-134 -18l-4 28zM932 82v-120h-282v302h-51l-18 -314h-168l18 314h-107v66h532v-66h-114v-273h109z" />
    <glyph glyph-name="uni4FA6" unicode="&#x4fa6;" 
d="M293 582v-637h-81v532l-67 -87l-123 124l247 318l151 -85zM528 135h-151v358h152v344h160v-104h194v-64h-194v-176h238v-358h-81v295h-318v-295zM785 387l-278 -434h-82l280 434h80zM957 -32l-51 -63l-291 208l46 49z" />
    <glyph glyph-name="uni4FA7" unicode="&#x4fa7;" 
d="M757 207h-81v313h81v-313zM261 558v-602h-81v451l-42 -78l-134 97l210 389l154 -57zM425 467h80v116h-111v-252zM525 277l172 -195l-136 -83l-112 159l-37 -166h-95l59 260h-63v395h334v-358h-142v116l-37 -163zM951 769v-827l-249 67l82 53v707h167z" />
    <glyph glyph-name="uni4FA8" unicode="&#x4fa8;" 
d="M277 525v-570h-81v459l-45 -62l-137 128l264 359l164 -87zM727 443q115 -63 243 -98q-24 -67 -90 -135q-69 38 -130 94v-387h-165v463h92q-25 30 -51 63h-113l-53 -94h76l-65 -370h-100l55 310l-22 -40h-90l110 194h-90v136h167l36 63l-76 -25l-29 113l270 94l55 -111
l-114 -37l-54 -97h297v-136h-159z" />
    <glyph glyph-name="uni4FA9" unicode="&#x4fa9;" 
d="M363 436l193 358h68l-26 -48q143 -148 323 -229q-20 -44 -59 -79q-151 87 -279 280l-105 -196h268v-63h-282v37l-32 -60h-69zM326 563v-613h-81v479l-68 -112l-151 120l246 400l175 -75zM802 191l103 -234l-77 -28l-22 58l-410 -41l-5 71l39 3q32 115 54 267h-124v63h469
v-63h-172q-23 -106 -72 -255l199 16l-45 121z" />
    <glyph glyph-name="uni4FAA" unicode="&#x4faa;" 
d="M704 546q136 -37 287 -44q-25 -129 -98 -225q-58 23 -114 54v-422h-179v490h73q-43 31 -77 60l-117 -93h38l-39 -385h-105l34 328l-52 -42l-63 97l214 175q-42 41 -84 84l20 18q55 -24 126 -52l78 64h-271v42l-86 -142v-604h-82v469l-46 -76l-145 116l238 388l169 -72
l-35 -58h172l-28 111l118 44l67 -124l-88 -31h265v-63h-130l33 -33z" />
    <glyph glyph-name="uni4FAC" unicode="&#x4fac;" 
d="M760 238q108 -102 232 -173q-51 -73 -120 -112q-125 111 -223 311v-205l44 15l10 -68l-248 -96l-19 79l19 6v278l-55 -115h-88l232 480h-98v-195h-81v204l-80 -104v-598h-81v492l-68 -88l-119 120l286 368l145 -82l-41 -53h168l54 112h84l-53 -112h272v-260h-165v196
h-138l-94 -198h114v-81q33 -40 60 -68l115 103l56 -51z" />
    <glyph glyph-name="uni4FAE" unicode="&#x4fae;" 
d="M285 626v-707h-81v596l-82 -112l-116 111l248 338l141 -75zM419 452l-88 36l81 317l92 -12l-13 -54h442v-63h-458zM766 351h-118l90 -85l-51 -50h79v135zM534 216h127l-82 97l39 38h-73zM550 414h120l-82 106l43 37h-70zM655 557l86 -90l-61 -53h86l-1 143h-110zM912 351
l-1 -135h52v-63h-52v-208l-218 56l74 32v120l-324 -1l14 199h-107v63h111l14 206h437v-206h61v-63h-61z" />
    <glyph glyph-name="uni4FAF" unicode="&#x4faf;" 
d="M630 146q126 -93 265 -134q-24 -59 -64 -98q-124 60 -237 214l-62 -193h-82l68 211h-184v64h205l53 162h-64l-41 -148l-130 55l71 245l137 -20l-19 -68h238v-64h-111l-52 -162h250v-64h-241zM905 591v-63h-546v48l-40 -40v-576h-81v495l-79 -79l-121 158l289 285
l157 -118l-110 -110h324q8 31 34 122h-244v63h260q5 18 5 22l62 -21q-1 -12 -55 -186h145z" />
    <glyph glyph-name="uni4FB5" unicode="&#x4fb5;" 
d="M664 759h-229v64h361v-281h-351v64h219v43h-202v64h202v46zM272 533h22v-590h-81v494l-57 -93l-134 108l232 377l157 -68zM397 370h-81v144h602v-141h-95v78h-426v-81zM650 188q136 -66 279 -97q-37 -108 -113 -183q-117 61 -236 190l-129 -163h-99l176 222
q-42 49 -103 134l11 7q9 6 11 8q57 -39 134 -83l71 90h-234v59h281l17 21h96z" />
    <glyph glyph-name="uni4FBF" unicode="&#x4fbf;" 
d="M284 573v-624h-72v540l-82 -96l-104 117l280 324l131 -83zM448 408h106v57h-106v-57zM448 576v-48h106v48h-106zM640 576v-48h75v48h-75zM715 408v57h-75v-57h75zM594 236q181 -71 375 -94q-35 -138 -118 -231q-151 67 -306 214l-82 -185h-95l113 248q-55 56 -114 125
l21 16q80 -40 129 -61l32 72h-164v298h169v64h-103v63h364v-63h-175v-64h235v-298h-234z" />
    <glyph glyph-name="uni4FC3" unicode="&#x4fc3;" 
d="M331 514v-547h-82v465l-113 -113l-117 153l346 342l152 -114zM588 503h139v175h-139v-175zM653 103q133 -37 273 -40q-12 -86 -52 -149q-178 43 -361 188l-12 -118h-152l37 368h152l-20 -202l49 -19v290h-44v332h372v-332h-242v-98h182v-136h-182v-84z" />
    <glyph glyph-name="uni4FC4" unicode="&#x4fc4;" 
d="M817 511l-150 164l48 47l158 -153zM283 589v-643h-82v508l-53 -87l-113 92l227 369l132 -57zM792 119q32 -54 68 -81q30 46 46 73q2 -23 5 -83l6 -99q-111 12 -189 142l-88 -66l-43 72l93 71q-20 49 -32 92q-10 35 -21 91h-85v-105l79 21l6 -69l-85 -25v-208l-140 51
l56 29v102l-152 -45l-16 79l168 44v126h-140v136h140v115l-82 -55l-40 73l209 144l56 -65l-59 -40v-172h65q-10 72 -17 186l80 1q5 -100 15 -187h202v-136h-182q10 -48 18 -75q8 -25 20 -59l119 91l60 -64z" />
    <glyph glyph-name="uni4FC5" unicode="&#x4fc5;" 
d="M832 616l-99 117l75 75l116 -102zM287 503v-563h-81v458l-59 -77l-139 138l283 363l168 -95zM721 330q104 -119 252 -214q-36 -50 -104 -86q-86 86 -148 204v-325l-299 79l96 68v131l-141 -127l-80 122l221 163v33l-75 -74l-100 118l76 74l99 -88v118h-163v63h163v225
h203v-225h185v-63h-185v-118l118 101l107 -102l-162 -130l-63 92v-39z" />
    <glyph glyph-name="uni4FCA" unicode="&#x4fca;" 
d="M323 369v-454h-81v572l-86 -132l-126 108l243 372l150 -69l-100 -154v-207l99 185l-19 -3l-8 75l27 3q41 62 95 172l134 -36q-36 -61 -77 -118l131 15l-46 48l48 48l198 -186l-56 -60l-86 90l-308 -44l53 -21l-130 -235zM470 302q44 -26 110 -61l96 137h-169zM642 210
q149 -72 306 -105q-26 -94 -119 -200q-130 71 -254 208l-105 -151h-85l143 205q-62 79 -76 99l-29 -60h-77l147 298h75l-31 -64h182l11 16h66l-160 82l29 54l231 -104l-31 -67l-57 29z" />
    <glyph glyph-name="uni4FCE" unicode="&#x4fce;" 
d="M133 427h-86l194 373h84l-66 -128l219 -152l-82 -115l-193 159zM369 5l-167 191l-74 -164h-85l190 417h83l-56 -125l219 -214zM572 18h129v207h-129v-207zM572 692v-178h129v178h-129zM572 289h129v161h-129v-161zM945 18v-64h-533v64h79v738h384v-738h70z" />
    <glyph glyph-name="uni4FCF" unicode="&#x4fcf;" 
d="M305 592v-637h-81v532l-90 -117l-109 110l268 346l134 -75zM749 195v108h-298v-108h298zM451 518v-151h298v151h-298zM897 -83l-218 56l70 42v116h-298v-154h-82v604h187v51l-50 -27l-60 113l57 32l53 -76v130h81v-134l84 63l60 -64l-113 -80l-31 50v-58h260v-664z" />
    <glyph glyph-name="uni4FD0" unicode="&#x4fd0;" 
d="M771 259h-142v317h142v-317zM516 394l140 -191l-117 -67l-56 97v-271h-81v400l-84 -209l-43 26v-210h-156v554l-46 -51l-46 59l247 274l63 -41l-125 -138h63v-389l84 207h-70v63h113v71l-76 -46l-45 90l255 161l65 -83l-118 -72v-121h130v-63h-130v-69zM938 762v-808
l-222 61l83 48v699h139z" />
    <glyph glyph-name="uni4FD1" unicode="&#x4fd1;" 
d="M313 564v-641h-82v528l-85 -117l-132 125l282 384l159 -84zM753 178v96h-136v-96h136zM430 178h101v96h-101v-96zM430 460v-123h101v123h-101zM753 460h-136v-123h136v123zM938 -92l-253 57l68 46v104h-136v-186h-86v186h-101v-186h-81v595h292l-117 92l50 57l56 -37
q20 21 85 86h-233v63h294q20 22 20 23l75 -65q0 2 -175 -151l50 -33l-28 -35h220v-616z" />
    <glyph glyph-name="uni4FD7" unicode="&#x4fd7;" 
d="M872 531l-230 195l40 47l235 -183zM323 500l147 256l61 -25l-158 -272zM301 551v-599h-81v474l-67 -104l-137 116l250 383l161 -75zM484 337v-327h205v327h-205zM562 545l-116 -143h419v-463h-447v429l-64 -79l-44 52l259 319l59 -34l-24 -30l359 -151l-22 -70z" />
    <glyph glyph-name="uni4FD8" unicode="&#x4fd8;" 
d="M328 557v-633h-81v521l-100 -137l-122 116l302 411l147 -78l-65 -89l409 172l70 -124l-468 -189l-34 109zM791 674l116 -19l-46 -199l-112 28zM613 596l71 17l52 -138l-92 -19zM903 400q0 -2 -173 -207h155v-63h-177v-222l-211 39l73 28v155h-176v63h215l93 125h-300v130
h114l-28 103l74 21l50 -104l-79 -20h264q12 15 12 18z" />
    <glyph glyph-name="uni4FDA" unicode="&#x4fda;" 
d="M269 606v-665h-81v588l-87 -83l-83 116l290 274l111 -88zM466 458h94v91h-94v-91zM466 683v-75h94v75h-94zM836 683h-116v-75h116v75zM836 458v91h-116v-91h116zM923 11v-59h-609v59h245v230h-141v59h141v88h-134v359h489v-359h-195v-88h149v-59h-149v-230h204z" />
    <glyph glyph-name="uni4FDC" unicode="&#x4fdc;" 
d="M458 666v-65h90v65h-90zM737 666h-76v-65h76v65zM737 457v88h-76v-88h76zM458 457h90v88h-90v-88zM287 517v-607h-81v481l-55 -85l-132 112l243 372q137 -63 149 -69h134v114h119v-114h188v-323h-444v306zM909 -92l-224 51l70 25l1 142l-350 1l6 180h-103v64h591v-64
h-340l-7 -117h361z" />
    <glyph glyph-name="uni4FDD" unicode="&#x4fdd;" 
d="M478 529h140v186h-140v-186zM683 307q117 -102 294 -168q-50 -88 -133 -146q-101 84 -177 250v-314h-137v267l-132 -182h-120v-60h-81v492l-41 -67l-135 108l209 338l157 -67l-109 -179v-562l214 290h-198v63h236v83h-121v331h392v-331h-134v-83h250v-63h-234z" />
    <glyph glyph-name="uni4FDE" unicode="&#x4fde;" 
d="M305 202v73h-126v-73h126zM649 607q-132 66 -238 148l-142 -148h380zM179 413v-75h126v75h-126zM471 -83l-229 53l63 40v129h-126v-195h-81v494h-98l394 408h105l-65 -68q233 -119 477 -141q-4 -57 -34 -114q-100 23 -218 79v-58h-414v38l-101 -106h327v-559zM664 106
h-156v291h156v-291zM912 494v-569l-251 55l58 43v471h193z" />
    <glyph glyph-name="uni4FDF" unicode="&#x4fdf;" 
d="M414 647q58 66 125 166l77 -31q-52 -68 -102 -124l220 26l-53 53l54 48l167 -145l-63 -61l-45 45l-405 -57l-8 76zM313 562v-619h-81v501l-89 -130l-119 108l264 381l142 -71zM640 154q142 -86 300 -115q-21 -73 -69 -127q-131 59 -254 213l-67 -159h-86l80 188h-203v65
h231l90 209h-143l-33 -194l-138 42l45 257l143 -5l-6 -36h293v-64h-78l-88 -209h271v-65h-288z" />
    <glyph glyph-name="uni4FE1" unicode="&#x4fe1;" 
d="M327 594v-666h-82v565l-94 -116l-116 123l277 339l144 -86l-9 -11h131l-38 78l57 30l59 -84l-48 -24h207v-67h-397v31zM782 406h-314v64h314v-64zM755 536h-319v64h319v-64zM711 291h-249v-272h249v272zM895 -57h-501v418h501v-418z" />
    <glyph glyph-name="uni4FE3" unicode="&#x4fe3;" 
d="M710 752h-139v-210h139v210zM878 469h-372v350h372v-350zM315 515v-572h-81v478l-71 -83l-123 137l297 343l154 -98zM916 175h-287q95 -66 241 -106q-42 -88 -117 -147q-91 68 -158 202l-112 -190h-91l144 241h-211v64h250l63 105h-125v63h323v-63h-111l-62 -105h253v-64
z" />
    <glyph glyph-name="uni4FE6" unicode="&#x4fe6;" 
d="M349 570v-626h-82v519l-100 -130l-124 124l285 367l151 -85zM626 252v37l-28 -111l71 46l87 -108v136h-130zM633 315h123v106h75v-106h83v-63h-83v-321l-120 45l45 24v86l-79 -51l-82 134l-33 -130h-143l105 398h-161v63h177l8 28h-35v63h51l15 55h-113v63h129l28 106
h138l-27 -106h119v-63h-135l-14 -55h69v-63h-86l-7 -28h243v-63h-259z" />
    <glyph glyph-name="uni4FE8" unicode="&#x4fe8;" 
d="M682 717h-25v-312h25v312zM763 717v-200l61 73l60 -35l-103 -127l-18 16v-39h109v-67h-262l-12 -406h-203l14 473h166v31l-58 -19l-56 171l61 21l53 -121v229h-90l4 -3l-194 -184v-610h-81v533l-67 -63l-108 149l308 288l116 -92v50h442v-68h-142z" />
    <glyph glyph-name="uni4FE9" unicode="&#x4fe9;" 
d="M211 622v-652h-81v535l-53 -77l-52 51l229 334l66 -33zM762 344v159h-106l-13 -59zM557 405l22 98h-87l-10 -45zM503 566h84v82h-84v-82zM928 -59l-263 56l97 51v290l-81 -90l-66 70l-13 -57h-78l20 86l-37 -57l-51 49l-18 -81h-78l55 245h-63v-500h-81v563h151v82h-102
v64h601v-64h-253v-82h260v-625z" />
    <glyph glyph-name="uni4FEA" unicode="&#x4fea;" 
d="M209 671v-696h-81v564l-64 -105l-55 48l225 369l67 -29zM400 317v209h-63v-172l16 13zM530 -85l-187 55l57 36v241l-27 -22l-36 49v-285h-81v600h274v-674zM764 326v202h-102v-162l42 31zM912 -63l-202 56l54 37v226l-29 -22l-73 106v-358h-81v609h331v-654zM928 717v-63
h-646v63h646z" />
    <glyph glyph-name="uni4FED" unicode="&#x4fed;" 
d="M247 499v-562h-81v457l-16 -21l-139 137l246 315l168 -94zM373 422h-116l300 396h112l-78 -104q202 -116 391 -156q-24 -83 -100 -167q-162 84 -317 288l-140 -187h277v-63h-279v60zM334 319l106 17l75 -259l-133 -23zM740 29h155v-64h-623v64h322l16 48l-79 -8l-29 288
l109 10l36 -176l60 182l139 -34z" />
    <glyph glyph-name="uni4FEE" unicode="&#x4fee;" 
d="M276 594v-661h-82v571l-94 -104l-92 110l271 298l118 -80zM299 477h81v-254h-81v254zM688 286l-230 -139l-39 79l212 133zM771 213l-254 -173l-43 78l237 165zM804 195l65 -68l-294 -221l-46 77zM514 581q25 -15 75 -43l146 161h-166zM668 499q151 -70 304 -96
q-24 -92 -79 -154q-140 56 -284 184l-110 -122h-116l163 180q-18 16 -50 51l-24 -51l-71 47l137 291l80 -26l-19 -40h194l10 11h112z" />
    <glyph glyph-name="uni4FEF" unicode="&#x4fef;" 
d="M310 624v-692h-81v574l-91 -133l-134 121l236 339l159 -79zM971 340h-76v-426l-181 54l51 35v171l-27 -30l-80 85v-307h-81v437l-30 -39l-18 19l-10 -424h-146l20 820h155l-27 72l67 27l57 -99h235v-64h-343l-5 -243l134 174l70 -39l-78 -100v-187l28 30l79 -69v103h-94
v63h94v166h130v-166h76v-63z" />
    <glyph glyph-name="uni4FF1" unicode="&#x4ff1;" 
d="M442 191l170 -35l-71 -246l-163 46zM789 187l82 -238l-161 -27l-47 243zM488 268h242v77h-242v-77zM488 730v-75h242v75h-242zM488 408h242v49h-242v-49zM730 591h-242v-71h242v71zM936 268v-64h-618v64h89v467l-115 -167v-633h-81v516l-57 -83l-114 103l248 357l119 -59
v24h461v-525h68z" />
    <glyph glyph-name="uni4FF3" unicode="&#x4ff3;" 
d="M268 566v-639h-77v554l-45 -50l-120 141l245 267l152 -102zM465 730h82v-777h-82v191h-171v61h171v122h-181v61h181v68h-164v61h164v213zM954 147h-176v-192h-142v787h142v-160h100v-61h-100v-144h123v-61h-123v-108h176v-61z" />
    <glyph glyph-name="uni4FF8" unicode="&#x4ff8;" 
d="M293 595v-621h-81v488l-66 -109l-124 101l226 366l144 -62zM764 353q-33 39 -62 88h-179l-40 -88h62v61h132v-61h87zM753 441q96 -74 216 -125q-23 -43 -72 -81q-63 38 -113 95v-41h-107v-114h181v-64h-181v-180h-132v180h-188v64h188v114h-71v45l-48 -106h-96l98 213
h-103v63h132l18 38h-39v116h92l17 35h-121v63h150l31 68h92l-31 -68h127v-63h-156l-15 -35h171v-116h-224l-18 -38h333v-63h-131z" />
    <glyph glyph-name="uni4FFA" unicode="&#x4ffa;" 
d="M426 252h64v63h-64v-63zM401 474h88v44h151v-44h74q-98 62 -188 154zM427 628h-65v22l-102 -119v-108zM641 379h68v33h-68v-33zM426 412v-33h64v33h-64zM709 252v63h-68v-63h68zM801 -21l96 88v-124h-406v241h-112v263l-47 -58h-72v-432h-81v480l-41 -48l-109 122
l269 311l137 -87l-34 -40h81l95 117h98l-95 -117h255v-67h-242q149 -69 305 -86q-15 -70 -56 -130q-22 8 -33 13v-241h-169v-205h161z" />
    <glyph glyph-name="uni4FFE" unicode="&#x4ffe;" 
d="M284 559v-592h-81v486l-41 -53l-134 133l228 292l162 -92zM470 417l16 54h-46v-54h30zM440 586v-56h64l17 56h-81zM686 586h-78l-16 -56h94v56zM686 417v54h-112l-16 -54h128zM928 218h-222v-291h-155v291h-246v66h124l20 65h-81v299h89l-32 22l126 183l120 -49
l-101 -156h314v-299h-346l-20 -65h33v51h155v-51h222v-66z" />
    <glyph glyph-name="uni500C" unicode="&#x500c;" 
d="M822 0v132h-259v-132h259zM563 449v-145h216v145h-216zM903 -62h-428v1h-81v571h466v-267h-297v-50h340v-255zM930 520h-137v129h-348v-129h-81v129l-77 -99v-621h-81v515l-69 -89l-119 119l277 356l145 -82l-29 -38h217l-52 66l41 37l76 -75l-30 -28h267v-190z" />
    <glyph glyph-name="uni500D" unicode="&#x500d;" 
d="M450 307v-301h256v301h-256zM889 377v-447h-506v447h506zM926 483v-63h-614v63h247l115 176h-329v46l-47 -83v-715h-82v572l-70 -123l-126 97l214 371l146 -58l-25 -43h177l-37 98l64 25l60 -110l-35 -13h253v-64h-139l69 -34l-96 -142h255zM557 506l-85 -21l-38 150
l66 18z" />
    <glyph glyph-name="uni500F" unicode="&#x500f;" 
d="M286 596v-642h-81v557l-91 -96l-91 113l270 281l117 -82zM401 179h-81v422h81v-422zM619 230h-42l-20 -46zM643 230l232 -232l-104 -81l-220 251l-97 -230h-86l125 292h-83v63h109l46 107h83l-45 -107h100l-65 48l34 45l88 -49l-30 -44h81v-63h-168zM519 619l62 -34
l92 131h-127zM650 553q150 -66 307 -90q-17 -79 -61 -135q-143 47 -288 163l-104 -151h-94l139 199l-42 39l-27 -97l-73 33l90 315l77 -12l-10 -37h154l6 9h89z" />
    <glyph glyph-name="uni5012" unicode="&#x5012;" 
d="M624 242v133l-40 -27l-22 41l-39 -5v-84h70v-63h-70v-48l81 15l17 -143l-317 -81l-29 163l107 20v74h-99v63h99v69l-83 -9l-7 87l24 2q45 79 84 169h-76v8l-65 -85v-573h-82v467l-42 -55l-119 120l230 295l145 -82l-24 -31h244v-64h-123q-47 -94 -90 -163l124 9l-35 65
l52 34l85 -136v119h81v-304h-81zM932 687v-751l-257 67l63 50v634h194z" />
    <glyph glyph-name="uni5014" unicode="&#x5014;" 
d="M843 134h81v-218h-81v25h-311v222h81v-158h42v226h-119v196h81v-133h38v176h146v-176h39v146h81v-209h-120v-226h42v129zM851 580v141h-314l-10 -141h324zM927 517h-405l-43 -583h-165l60 769l-125 -182v-587h-81v468l-29 -42l-134 120l236 340l137 -68l2 32h547v-267z
" />
    <glyph glyph-name="uni5018" unicode="&#x5018;" 
d="M593 571h63l-63 78v-78zM903 -75l-254 59l79 48v477h-306v-570h-81v632h170v45l-61 -34l-67 126l-90 -130v-638h-81v520l-78 -114l-119 107l255 369l142 -71l-11 -16l47 26l63 -90v167h82v-175l104 103l91 -74l-127 -121h242v-646zM561 353h-60v-175h60v175zM669 111
h-217v304h217v-304z" />
    <glyph glyph-name="uni5019" unicode="&#x5019;" 
d="M894 554h-483v63h291l39 126h-269v64h287l2 14l73 -26q0 6 -62 -178h122v-63zM365 784l-126 -155h82v-693h-165v590l-84 -103l-49 56l278 343zM369 532h68v-349h-68v349zM745 151q88 -79 209 -128q-39 -65 -96 -105q-98 78 -166 233h-12l-62 -206h-138l63 206h-92v64h112
l55 181h-67l-28 -164l-64 20l49 287l66 -5l-13 -75h287v-63h-95l-54 -181h234v-64h-188z" />
    <glyph glyph-name="uni501A" unicode="&#x501a;" 
d="M952 411h-104v-506l-288 54l77 49v403h-308v63h433l-159 133l-80 -121h-138l115 171h-98v56l-122 -177v-583h-82v463l-49 -71l-140 125l253 363l166 -82l-21 -31h136l75 111h133l-73 -111h238v-63h-167l151 -102l-81 -81h133v-63zM462 293h-66v-122h66v122zM599 101h-261
v257h261v-257z" />
    <glyph glyph-name="uni501C" unicode="&#x501c;" 
d="M574 441v93h-70v64h70v91h81v-91h86v-64h-86v-93h108v-63h-278v63h89zM624 288h-71v-133h71v133zM754 93h-257v252h257v-252zM923 -88l-207 66l59 43v684h-293l-18 -757h-82l17 701l-96 -101v-614h-82v527l-85 -89l-118 145l276 286l107 -76l1 41h521v-856z" />
    <glyph glyph-name="uni501F" unicode="&#x501f;" 
d="M294 647v-700h-128v591l-87 -74l-45 74l274 232l65 -56zM562 292v-75h140v75h-140zM702 5v149h-140v-149h140zM893 362v-433h-402v433h402zM625 506h63v103h-63v-103zM946 506v-64h-609v64h169v103h-136v63h136v150h119v-150h63v139h123v-139h68v-63h-68v-103h135z" />
    <glyph glyph-name="uni5021" unicode="&#x5021;" 
d="M477 748v-74h260v74h-260zM737 535v76h-260v-76h260zM294 517v-552h-81v463l-57 -63l-129 151l275 300l134 -90v82h378v-337h-378v203zM730 16v143h-318v-143h318zM412 352v-129h318v129h-318zM921 -54h-576v470h576v-470z" />
    <glyph glyph-name="uni5025" unicode="&#x5025;" 
d="M231 599v-674h-82v608l-47 -38l-76 126l269 215l107 -99l-40 -32h198l-61 113l64 36l89 -129l-37 -20h312v-236h-72l98 -76l-52 -68l-240 204l45 55l79 -61v119h-408v-168h-81v177zM682 -3h255v-63h-677v63h257v329h-114v3l-37 -60l-72 46l178 296l83 -36l-114 -185h371
v-64h-130v-329z" />
    <glyph glyph-name="uni5026" unicode="&#x5026;" 
d="M201 619h104v-684h-165v600l-62 -86l-52 54l248 340l65 -34zM724 397q-35 35 -77 85h-132l-37 -85h246zM657 153l-1 180h-78v-360h215l110 103v-137h-448v405l-40 -93h-86l101 231h-111v63h139l32 74h-63v63h90l14 31l-42 -21l-48 100l50 26l51 -79l41 93h83l-65 -150h50
l-27 32l84 90l61 -47l-73 -75h73v-63h-195l-32 -74h382v-63h-220q135 -71 273 -96q-17 -62 -65 -120q-57 24 -117 69l-1 -252l-203 46z" />
    <glyph glyph-name="uni5028" unicode="&#x5028;" 
d="M865 158h-352v-128h352v128zM447 699l-5 -195h284v195h-279zM950 225v-268h-480v268h150v61h-183l-8 -313h-75l18 693l-94 -121v-591h-82v485l-54 -70l-138 137l246 315l124 -70v12h573v-322h-506l-2 -92h181v78h82v-78h210v-63h-210v-61h248z" />
    <glyph glyph-name="uni5029" unicode="&#x5029;" 
d="M284 510v-564h-81v432l-37 -61l-150 120l246 399l175 -75zM694 121v57h-208v-57h208zM486 298v-57h208v57h-208zM896 -92l-276 47l74 44v59h-208v-83h-81v386h491v-453zM943 467v-63h-641v63h240v60h-97v64h97v63h-127v63h127v121h165v-121h132v-63h-132v-63h103v-64
h-103v-60h236z" />
    <glyph glyph-name="uni502A" unicode="&#x502a;" 
d="M965 79v-132h-370v398h-54l-73 -417h-93l74 417h-75v283l-80 -104v-574h-82v467l-53 -69l-139 138l283 363l168 -94l-40 -52h6l134 81l56 -68l-172 -96v-51h124v-64h-124v-99h294v98h-116v63h116v109h-90v63h241v-394h-119v-358h85z" />
    <glyph glyph-name="uni502C" unicode="&#x502c;" 
d="M311 584v-613h-82v517l-80 -93l-109 122l269 311l137 -87zM448 406h262v34h-262v-34zM448 538v-34h262v34h-262zM938 187h-259v-256h-161v256h-185v63h185v89h-131v261h138v221h141v-83h145v-64h-145v-74h197v-261h-184v-89h259v-63z" />
    <glyph glyph-name="uni502D" unicode="&#x502d;" 
d="M662 211h-105l-49 -77l48 -24zM768 211l-142 -135l183 -91l-47 -72l-197 106l-44 -42h-106l83 78l-104 56l32 39l39 61h-155v64h196l66 103h-16v133l-137 -127h-103l165 154h-156v32l-29 -31v-582h-81v498l-54 -57l-104 129l224 232l134 -95l-60 -63h201v52l-81 -36
l-26 76l285 132l45 -73l-95 -42v-109h146v-63h-104q73 -47 166 -84q-24 -47 -74 -87q-70 42 -134 115v-104h-106l69 -26l-49 -77h303v-64h-133z" />
    <glyph glyph-name="uni502E" unicode="&#x502e;" 
d="M264 574v-621h-81v540l-63 -63l-104 136l260 257l135 -102zM469 514h75v89h-75v-89zM469 726v-60h75v60h-75zM738 726h-52v-60h52v60zM738 514v89h-52v-89h52zM725 278q112 -122 255 -196q-43 -63 -103 -101q-114 99 -191 291v-353h-142v307l-180 -233l-66 55l174 230
h-186v64h258v104h-129v342h453v-342h-182v-104h232v-64h-193z" />
    <glyph glyph-name="uni503A" unicode="&#x503a;" 
d="M306 553v-611h-82v484l-46 -71l-142 121l233 356l167 -77zM905 467h-564v63h194v41h-68v64h68v44h-103v64h103v80h165v-80h106v-64h-106v-44h67v-64h-67v-41h205v-63zM648 219l40 -27v175h-202v-177l80 134h113l-94 -159zM787 -77l-231 192l-88 -150h-117l124 207h-70
v258h448v-264h-127l181 -124z" />
    <glyph glyph-name="uni503C" unicode="&#x503c;" 
d="M290 558v-595h-81v484l-51 -70l-132 125l246 334l159 -84zM472 -6h280v97h-280v-97zM752 489h-280v-49h280v49zM472 155h280v73h-280v-73zM752 376h-280v-85h280v85zM956 -6v-63h-646v63h80v559h87l90 130h-134v55h172l77 111l64 -26l-58 -85h244v-55h-282l-89 -130h365
v-559h30z" />
    <glyph glyph-name="uni503E" unicode="&#x503e;" 
d="M267 561v-630h-81v511l-42 -61l-135 120l236 340l160 -79zM576 130l-227 -114l-43 126l31 12v419h167v-167h59v-63h-59v-123l47 19zM769 257l27 -34v245l-80 -246zM654 331l48 146h94v106h-142v-252zM826 -64l-136 206l-60 -186h-99l89 272h-47v418h50l21 90h-103v64h396
v-64h-171l-19 -90h181v-434h-123l152 -189z" />
    <glyph glyph-name="uni5043" unicode="&#x5043;" 
d="M937 21v-63h-506v750l-129 -136v-648h-81v563l-101 -106l-108 135l298 311l121 -86v19h488v-64h-318v-675h336zM796 331h-66l-35 -72l34 -24zM879 331l-96 -136l126 -91l-54 -61l-114 92l-30 -43h-83l60 86l-48 39q-17 8 -34 17l48 97h-45v64h77l38 76l67 -17l-29 -59
h147v-64h-30zM764 522v25h-86v-25h86zM678 630v-31h86v31h-86zM901 474h-280v201h280v-201z" />
    <glyph glyph-name="uni5047" unicode="&#x5047;" 
d="M843 696h-218v64h299v-300h-292v63h211v173zM428 649v-154h91v154h-91zM428 187v-226h-146v749l-45 -66v-677h-82v558l-90 -130l-57 56l254 370l72 -36l-50 -73h317v-281h-173v-65h152v-64h-152v-52h176v-63h-176zM809 205q92 -43 188 -69q-46 -104 -133 -173
q-67 47 -128 129l-64 -99h-91l108 166q-43 69 -78 144l26 10q51 -40 105 -72l51 77h-185v67h228l18 27h89z" />
    <glyph glyph-name="uni5048" unicode="&#x5048;" 
d="M807 552v88h-330v-88h330zM477 765v-61h330v61h-330zM915 487h-486v338h486v-338zM668 149l-106 84l-54 -99l-68 50l103 189l79 -30l-25 -46l118 -77zM723 129l-1 252h-355l-9 -34h79v-218h286zM924 -92l-277 63l77 36v59h-369v267l-26 -103l-69 28v-345h-82v557l-69 -76
l-97 116l290 319l125 -83l-167 -185v-281l65 255l78 -11l-20 -79h541v-537z" />
    <glyph glyph-name="uni504C" unicode="&#x504c;" 
d="M703 239h-255v-238h255v238zM501 368l-47 -62h433v-378h-507v283l-39 -51h-80v-213h-82v503l-37 -51l-127 119l229 311l153 -80l-29 -40h64l-9 119l123 8l25 -127h83l21 127h153l-20 -127h102v-61h-112l-19 -123l-150 29l15 94h-61l17 -87l-157 -11l-7 98h-113l-62 -86
v-393l154 199h-147v61h194l92 119h86l-92 -119h388v-61h-435z" />
    <glyph glyph-name="uni504E" unicode="&#x504e;" 
d="M483 752v-56h103v56h-103zM724 752h-57v-56h57v56zM724 577v55h-57v-55h57zM483 577h103v55h-103v-55zM292 516v-591h-82v500l-70 -77l-116 136l288 315l114 -77v92h435v-305h-435v156zM813 151q79 -68 166 -118q-47 -69 -115 -107q-132 118 -236 336v-210l42 12l17 -66
l-261 -89l-19 77l29 9v361h-107v64h582v-64h-283v-11q59 -74 117 -131l136 75l53 -74z" />
    <glyph glyph-name="uni504F" unicode="&#x504f;" 
d="M455 647l-7 -132h277v132h-270zM445 452l-26 -516h-134l38 740l-68 -112v-607h-67v497l-49 -80l-108 88l219 357l127 -55l-32 -53h152l-24 107l121 31l64 -117l-92 -21h282v-259h-403zM783 207v109h-53v-109h53zM667 207v109h-34v-109h34zM571 207v109h-44v-109h44z
M922 -83l-188 46l49 32v109h-53v-125h-63v125h-34v-106h-62v106h-44v-143h-81v418h476v-462z" />
    <glyph glyph-name="uni5055" unicode="&#x5055;" 
d="M269 556v-625h-81v531l-58 -68l-109 122l289 334l109 -69h136v-172h53v-63h-53v-55l43 14l9 -63l-200 -79l-18 73l23 8v278zM738 187h-359v-53h359v53zM738 14v56h-359v-56h359zM493 254h428v-313h-609v313h59l207 125l43 -50zM932 514v-125h-306v384h144v-125l87 45
l51 -76l-138 -67v-126h73z" />
    <glyph glyph-name="uni505A" unicode="&#x505a;" 
d="M442 273h-95v-195h95v195zM386 485h-142v-531h-81v486l-39 -53l-111 106l249 339l135 -71l-153 -210v-2h142v84h81v-84h87v-64h-87v-145h128v-335h-309v335h100v145zM627 476q48 -78 103 -146l80 199h-169zM776 276q92 -104 219 -200q-83 -84 -186 -122q-53 72 -96 163
l-62 -157h-70l96 239q-42 109 -66 211l-15 -58l-55 24l86 339l58 -9l-29 -114h273v-63h-52z" />
    <glyph glyph-name="uni505C" unicode="&#x505c;" 
d="M289 587v-625h-81v506l-64 -93l-124 112l229 329l147 -73l-16 -24h164l-44 90l63 27l67 -97l-50 -20h299v-64h-509v50zM492 459h150v119h-150v-119zM429 635h374v-237h-374v237zM405 284h396v-63h-114v-283l-236 40l70 34v209h-116v63zM934 267h-81v54h-460v-95h-81v158
h622v-117z" />
    <glyph glyph-name="uni5065" unicode="&#x5065;" 
d="M229 650v-694h-81v582l-63 -86l-56 57l238 327l71 -37zM612 381h-118l-100 -213q120 -42 218 -64v69h-122v63h122v34h-111v63h111v48zM694 444h69v63h-69v-63zM694 571h69v57h-69v-57zM693 333h159v-63h-159v-34h221v-63h-221v-79h-33q130 -25 253 -29q-7 -79 -44 -145
q-237 36 -501 192l-54 -116h-78l73 153q-31 20 -65 44q6 6 19 28q22 -10 66 -28l56 117h-127l113 258h-116v63h144l6 14h76l-121 -272h55l12 26h67v45h119v63h-123v64h123v57h-129v64h128v77h81v-77h188v-121h34v-64h-34v-126h-188v-48z" />
    <glyph glyph-name="uni506C" unicode="&#x506c;" 
d="M514 716l-58 -211l67 92l-28 29l48 48l21 -20l44 62h-94zM727 716h-116l71 -39l-58 -79l22 -21l38 52l42 -23zM726 502v57l-25 -34zM357 487l90 325h93l-9 -32h381l-6 -431l-256 60l76 31v32l-41 -44l-32 33l-73 -98l-56 45l77 107l-22 23l-69 -93l-58 46l-1 -4h-94z
M551 320l115 21l73 -197l-149 -26zM287 562v-623h-81v533l-70 -77l-115 135l246 269l146 -98zM812 79l13 -150q-212 -14 -320 116q-55 68 -99 199l-9 -185l-94 16l25 269l83 -10l-4 -72l84 9q51 -146 86 -181q71 -72 186 -84zM948 60l-106 -18l-44 254l84 15z" />
    <glyph glyph-name="uni5076" unicode="&#x5076;" 
d="M771 155v183h-153v-72l22 4l-5 25l86 16zM538 546v51h-75v-51h75zM463 660h75v61h-75v-61zM691 721h-72v-61h72v61zM691 546v51h-72v-51h72zM928 -81l-218 48l61 37v121l-101 -18l-10 52l-218 -49l-19 124l113 19v85h-116v-364h-81v427h199v77h-132v243l-141 -174v-598
h-81v499l-43 -53l-126 132l238 289l153 -92v59h423v-305h-210v-77h309v-482z" />
    <glyph glyph-name="uni5077" unicode="&#x5077;" 
d="M537 186v78h-113v-78h113zM424 399v-71h113v71h-113zM622 -28l-133 45l48 25v81h-113v-111h-81v442l-18 -23l-34 36v-537h-156v676l-85 -65l-42 75l272 205l61 -59l-82 -62h32v-171l240 312l76 -43l-36 -47q172 -108 356 -144q-12 -53 -47 -104q-169 61 -328 224
l-114 -149h290v-63h-301v49l-78 -102h273v-490zM663 381h142v-254h-142v254zM941 474v-558l-134 47l50 26v485h84z" />
    <glyph glyph-name="uni507B" unicode="&#x507b;" 
d="M696 651v-35h40zM493 739l52 -49v99h151v-98l44 57l71 -43l-71 -89h67v-63h-88q80 -68 188 -116q-23 -37 -61 -65q-86 52 -150 149v-135h-151v126l-83 -97h-85l118 138h-89v63h139v43l-33 -32l-60 73zM325 545v-601h-82v475l-83 -128l-126 108l284 437l150 -70zM707 241
h-131l-51 -87l67 -36zM895 241l-176 -192l148 -80l-44 -62l-154 89l-70 -77h-193l139 149l-112 64l65 109h-141v63h179l40 67l64 -22l-26 -45h316v-63h-35z" />
    <glyph glyph-name="uni507E" unicode="&#x507e;" 
d="M301 558h2v-577h-81v498l-77 -77l-105 136l249 245l136 -101zM426 504h-98v64h99v73h105v-73h44v112h-144v63h143v70h82v-70h171v-63h-171v-112h22v74h105v-74h113v-64h-115v-61h-104v61h-147v-62h-105v62zM778 223v76h-282v-122h-81v227h444v-181h-81zM801 -63l-216 172
l-82 -125h-91l199 300h89l-70 -107l48 37l253 -162z" />
    <glyph glyph-name="uni507F" unicode="&#x507f;" 
d="M808 137l115 -173l-91 -48l-45 84l-245 -34l-1 -3l-7 1q-70 -9 -154 -21l-8 81l46 5q32 86 68 216h-167v63h510v-63h-168q-33 -96 -80 -197l170 19l-16 31zM701 463v-63h-232v63h232zM932 388h-151v169h-367v-177h-82v211l-39 -53v-582h-81v470l-44 -61l-127 120l238 324
l152 -81l-78 -108h227v55l-69 -48l-81 123l58 41l92 -113v140h142v-102l70 73l77 -61l-107 -106l-40 47v-49h210v-232z" />
    <glyph glyph-name="uni5080" unicode="&#x5080;" 
d="M482 393l31 92h-66v-92h35zM562 635h-115v-87h86zM770 635h-134l-28 -87h162v87zM770 393v92h-183l-29 -92h212zM975 66v-135h-439v394l-118 -363h-77l119 363h-70v356l-98 -121v-629h-81v529l-102 -125l-101 109l318 390l127 -76l-50 -61h35l178 119l47 -52l-103 -67
h355v-372h-230v-357h184zM846 249q-30 -64 -61 -115l45 7l-4 43l54 7l27 -136l-68 -8l-3 32l-133 -27l-9 69l17 2q33 60 67 141z" />
    <glyph glyph-name="uni5085" unicode="&#x5085;" 
d="M314 568v-642h-82v529l-85 -117l-122 116l284 386l146 -78zM589 71l-62 -62l-103 105l52 50zM790 243h135v-63h-135v-275l-206 44l67 33v198h-285v63h285v66h139v-66zM790 464v43h-109v-43h109zM599 464v43h-82v-43h82zM517 603v-33h82v33h-82zM681 603v-33h109v33h-109z
M931 313h-141v87h-109v-73h-82v73h-82v-90h-123v356h201v22h-133v64h133v50h81v-50h114l-43 57l56 33l87 -90l-69 -41l-20 26v-49h-125v-22h255v-353z" />
    <glyph glyph-name="uni5088" unicode="&#x5088;" 
d="M263 589v-647h-82v521l-46 -71l-121 103l219 336l144 -66zM802 639h-103v-117h103v117zM400 522h79v117h-79v-117zM563 698h57v45h-57v-45zM560 639v-117h58v117h-58zM888 457h-531v241h125v45h-82v63h382v-63h-81v-45h187v-241zM694 202q119 -106 266 -176
q-22 -43 -83 -90q-116 76 -211 230v-259h-81v242l-128 -197h-99l165 250h-123v136h185v100h81v-100h219v-136h-191z" />
    <glyph glyph-name="uni508D" unicode="&#x508d;" 
d="M302 582v-636h-82v501l-49 -80l-145 116l207 335l169 -72zM653 392h188v-63h-286l-2 -28h271l-1 -395l-225 51l71 28l-2 253h-117l-13 -263h-81l18 354h-20v63h129l-36 98l89 40l69 -116zM596 620l-53 -22h62l59 107h-120zM892 400h-123v135h-320v-197h-109v260h172
l-38 92l33 15h-103v64h153l-24 64l63 26l48 -76l-37 -14h270v-64h-181l57 -24l-48 -83h187v-198z" />
    <glyph glyph-name="uni50A3" unicode="&#x50a3;" 
d="M285 574v-635h-81v536l-67 -83l-111 119l278 340l138 -83zM834 117l103 -49l-31 -84l-154 87v-162l-211 44l63 34v61l-158 -81l-31 87l101 43l-67 51l46 62l98 -51l-30 -42l41 17v188h144q-60 51 -118 121h-29l-128 -246h-186l132 246h-109v63h143l23 42h-22v64h56l16 30
h-111v63h145l56 104h175l-54 -104h56v-63h-89l-15 -30h75v-64h-109l-21 -42h281v-63h-237q145 -74 289 -97q-15 -61 -61 -121q-80 32 -154 94v-163l63 -30l-53 48l55 72l82 -52z" />
    <glyph glyph-name="uni50A5" unicode="&#x50a5;" 
d="M402 687l51 36l75 -92l-62 -43zM273 550v-605h-82v505l-60 -74l-121 128l257 313l150 -90zM393 524v-159h-81v222h226v236h81v-236h42l-36 37l107 123l74 -51l-98 -109h225v-135h-81v72h-459zM486 348h225v71h-225v-71zM951 72v-126h-343v332h-45l-56 -327h-78l58 327
h-50v205h382v-205h-41v-294h79z" />
    <glyph glyph-name="uni50A7" unicode="&#x50a7;" 
d="M499 294v-122h106v122h-106zM777 447v139h-292v-129l206 98l51 -69l-243 -106v-23h300v-63h-85v-122h160v-63h-93l77 -130l-121 -56l-62 157l61 29h-246l117 -29l-55 -159l-138 47l46 141h-109v63h67v266h-42v202l-48 -79v-581h-81v449l-45 -74l-139 112l223 362l163 -70
l-67 -110h166l-32 108l116 47l70 -123l-83 -32h272v-202h-114z" />
    <glyph glyph-name="uni50A8" unicode="&#x50a8;" 
d="M301 526v-567h-81v477l-97 -107l-115 136l308 338l147 -98zM383 539l38 43l73 -59l-45 -54zM762 338h-98v-104h98v104zM762 25v146h-98v-146h98zM600 115v188l-33 -34l-47 54v-193l59 34zM734 614v-54l51 54h-51zM696 403h234v-448h-330v148l-211 -135l-31 70l33 19v304
h-85v63h214v-90l118 125h-122v64h137v91h-160v63h160v48h81v-48h73v-39l60 63l67 -51l-122 -127h77v-64h-139z" />
    <glyph glyph-name="uni50A9" unicode="&#x50a9;" 
d="M775 629l-82 111l57 45l93 -101zM226 634v-691h-81v606l-75 -79l-54 71l276 290l73 -51zM511 277v310l-97 -213zM592 707v-762h-81v275l-59 -67l-91 104l-47 -105h-85l77 168l-72 82l73 80l50 -50l44 97h-161v71h194l6 14h71v48l-69 -39l-29 72l230 128l47 -61zM949 1
v-63h-315v63h77v244h-104v64h104v93h-105v64h105v92h-104v63h310v-63h-69v-92h54v-64h-54v-93h60v-64h-60v-244h101z" />
    <glyph glyph-name="uni50AC" unicode="&#x50ac;" 
d="M515 24h114v114h-84v63h84v61h-77v64h77v53h-101v64h128l-15 59l45 15h-152l36 -24l-55 -60v-409zM473 517h-44v171l-123 -143v-213zM919 -39h-404v-38h-81v421l-97 -107l-31 39v-356h-82v529l-75 -87l-137 152l274 316l171 -109l-8 -9h61v-131h96v258h81v-258h135v176
h81v-267h-81v27h-84l38 -74h116v-64h-89v-53h73v-64h-73v-61h89v-63h-89v-114h116v-63z" />
    <glyph glyph-name="uni50B2" unicode="&#x50b2;" 
d="M249 515v-570h-81v418l-25 -47l-140 101l225 414l159 -58zM824 185q67 -69 171 -145q-73 -78 -170 -115q-32 46 -57 97l-28 -80h-92l71 200q-29 88 -47 202q14 0 26 4q24 -38 62 -89l61 174h-106l-29 -86l-51 26v-19h-169l-11 -58h184l-10 -342l-205 52l71 24l3 203h-56
l-48 -240h-102l74 361h-105v64h155v46h-91v114h91v41h-75v63h75v72h86v-72h108v-63h-108v-41h99v-114h-99v-46h97l86 251l103 -21l-35 -104h205v-111h-48z" />
    <glyph glyph-name="uni50BA" unicode="&#x50ba;" 
d="M268 587v-646h-81v528l-53 -77l-129 116l228 328l154 -76zM454 208l-45 -215l-75 23l54 208zM782 224l141 -156l-64 -54l-130 166zM805 370q-36 39 -75 94v-35h-233v39l-55 -98h363zM711 492q-51 78 -88 160q20 7 25 10l52 -55l28 44q22 34 30 48h-132l-116 -207h201z
M882 748q0 2 -130 -189q108 -96 233 -155q-41 -68 -100 -107q-34 26 -71 64v-54h-108v-381l-264 43l61 40v298h-76v36l-49 -87h-89l109 193l-35 18l21 51l45 -15l13 23l-38 21l24 55l47 -17l36 62h-69l-93 -173l-62 47l153 284l73 -27l-33 -61h70l10 17h58v28h179
q14 22 14 27z" />
    <glyph glyph-name="uni50BB" unicode="&#x50bb;" 
d="M246 644v-710h-81v593l-82 -119l-68 65l253 367l84 -42zM523 167l68 -22l55 61h-98zM451 689l-2 -2l-2 2h-29v-59l32 50l102 -58l65 67h-166zM698 689h-76l69 -54l-59 -59l66 -37v150zM698 530l-35 -62h35v62zM524 468h128l-78 50zM418 468h44l-28 34l63 65l-79 50v-149z
M690 121q116 -22 242 -19q-15 -113 -74 -203q-124 41 -245 135l-90 -101h-122l142 159q-21 18 -42 39l-30 -47h-98l143 225h97l-24 -38h115l11 12h40l-111 54l33 66h-244l85 -36l-141 -243l-92 54l127 225h-55v346h30l91 96l68 -47l-43 -49h356v-346h-170l224 -91l-38 -87
l-65 31z" />
    <glyph glyph-name="uni50CF" unicode="&#x50cf;" 
d="M504 435l83 95h-127v-95h44zM436 589h165l78 104h-149zM816 530h-109l-85 -95h194v95zM762 216q88 -83 208 -143q-23 -36 -67 -67q-94 63 -167 192l-7 -5q22 -205 -27 -279l-279 67l138 36q9 41 9 95l-148 -120l-35 55l178 148q-1 12 -3 21l-1 7l-149 -126l-37 55
l169 146q-4 16 -11 38l-117 -130l-60 62l91 103h-32v195l-21 -23l-39 48v-670h-188v632l-93 -103l-60 75l266 293l79 -52l-141 -156h122l-1 1l203 225l74 -48l-29 -32h139q16 22 16 27l78 -52q-1 -5 -123 -142h211v-218h-229q19 -43 33 -97l105 72l52 -60z" />
    <glyph glyph-name="uni50D6" unicode="&#x50d6;" 
d="M283 565v-643h-81v543l-71 -87l-106 114l279 341l111 -67h133v58h156v-58h197v-63h-197v-53h100v-63h-342v63h86v53h-153zM450 156v-166h253v166h-253zM871 208v-275h-485v275h485zM600 329l-20 -9h38l38 89h-109zM448 462h306v52h-306v-52zM947 320v-63h-655v63h212
l-34 76l27 13h-94v154h443v-154h-156l70 -23l-31 -66h218z" />
    <glyph glyph-name="uni50DA" unicode="&#x50da;" 
d="M469 218l-40 -238l-77 21l50 231zM453 350h291v48h-291v-48zM533 639l-58 -95h202q-40 38 -88 95h-56zM734 492h-281v-38h291v30zM694 294v-370l-231 44l65 37v289h-114v148l-17 -28h-90l68 111l-63 49l37 58l67 -39l28 46h-98v31l-45 -59v-666h-82v559l-90 -117
l-114 114l249 321l139 -78l-31 -41h111l79 129h87l-78 -129h307v-64h-231q42 -27 85 -50l48 50l77 -60l-34 -33q79 -33 159 -52q-19 -62 -67 -120q-47 21 -102 58v-138h-119zM781 235l145 -192l-68 -46l-133 201z" />
    <glyph glyph-name="uni50E6" unicode="&#x50e6;" 
d="M862 509l-83 99l50 49l94 -88zM233 557v-636h-82v530l-22 -29l-114 114l222 284l139 -78l-45 -58h100l-52 66l51 47l71 -66l-49 -47h156v-63h-325zM361 233l-50 -203l-72 26l60 200zM360 409h89v102h-89v-102zM502 345v-392l-185 43l56 31v318h-67v226h265v-226h-69z
M957 101v-122h-224v406h-17l-41 -418h-77l16 159l-30 -21l-72 112l54 38l54 -66l20 196h-60v63h66l18 174h76l-17 -174h185v-63h-83v-376h57z" />
    <glyph glyph-name="uni50E7" unicode="&#x50e7;" 
d="M495 238v-88h233v88h-233zM728 -1v88h-233v-88h233zM911 295v-358h-483v358h483zM766 404v101l-71 -100l-53 39v-40h124zM456 404h105v34l-39 -31l-66 90v-93zM456 596v-31l22 17l83 -94v108h-105zM766 596h-124v-116l70 104l54 -28v40zM927 656v-317h-532v297l-83 -108
v-585h-81v479l-79 -103l-105 105l260 336l128 -72l-25 -32h82l-53 136l103 40l89 -149l-75 -27h180l-94 39l65 141l120 -25l-65 -155h165z" />
    <glyph glyph-name="uni50EC" unicode="&#x50ec;" 
d="M206 609h135v-690h-188v643l-84 -76l-39 63l259 232l57 -46zM398 211l70 -10l-23 -261l-79 16zM605 662h-111v-321h111v92h-79v64h79v46h-94v63h94v56zM494 278v-50h-81v395l-51 -39l-34 63l201 151l51 -49l-30 -23h122l-51 79l54 39l69 -81l-52 -37h174v-64h-105v-56
h101v-63h-101v-46h107v-64h-107v-92h120v-63h-387zM596 196l30 -220l-87 -7l-11 222zM723 192l30 -209l-87 -7l-11 210zM940 -66l-82 -16l-57 277l66 13z" />
    <glyph glyph-name="uni50ED" unicode="&#x50ed;" 
d="M723 307h-279v-106h279v106zM723 17v120h-279v-120h279zM438 525l-52 -160h71l-24 49l13 8v103h-8zM385 588l37 114h-56v21l-33 -46h39l-6 -89h19zM484 365h407v-410h-510v403h-70l54 167h-69l5 109l-24 -33v-662h-82v549l-56 -77l-112 106l231 314q104 -55 124 -65h172
v-64h-59l-37 -114h109v-63h-37v-48l68 44l22 -56zM964 505v-112h-224v152h-15l-42 -156h-72l43 156l-76 1l14 153h71l-11 -90h19l31 115h-108v63h269v-63h-90l-31 -115h134v-64h-45v-123h62z" />
    <glyph glyph-name="uni50EE" unicode="&#x50ee;" 
d="M580 642l-24 -9h47l-23 29l65 64h-111zM304 569v37l-31 -38v-635h-81v535l-64 -79l-107 113l260 317l132 -79l-87 -107h172l-32 83l25 10h-73v64h122l-27 53l52 24l52 -71l-13 -6h196v-64h-97l38 -31l-66 -62h215v-64h-586zM439 285h81v73h-81v-73zM439 481v-60h81v60
h-81zM748 481h-77v-60h77v60zM748 285v73h-77v-73h77zM938 -6v-63h-596v63h178v126h-140v63h140v46h-129v304h465v-304h-185v-46h218v-63h-218v-126h267z" />
    <glyph glyph-name="uni50F3" unicode="&#x50f3;" 
d="M402 469h71v138h-71v-138zM555 667h84v92h-84v-92zM805 607h-85v-138h85v138zM554 607v-138h84v138h-84zM295 557v-626h-81v507l-81 -118l-119 108l255 368l142 -70l-40 -59h102v92h-50v63h387v-63h-90v-92h170v-263h-531v246zM663 258h51l-51 38v-38zM687 194
q135 -108 288 -168q-24 -53 -83 -103q-124 76 -229 229v-218h-142v165l-120 -151h-106l198 246h-124v64h152v37l-48 -33l-57 89l54 38l51 -60v62h142v-70l46 69l80 -42l-64 -90h108v-64h-146z" />
    <glyph glyph-name="uni50F5" unicode="&#x50f5;" 
d="M934 320h-596v64h596v-64zM469 241v-40h122v40h-122zM757 241h-85v-40h85v40zM757 102v45h-85v-45h85zM469 102h122v45h-122v-45zM415 286h472v-232h-472v232zM855 710h-401v64h401v-64zM449 611v-46h149v46h-149zM773 611h-93v-46h93v46zM773 464v47h-93v-47h93z
M449 464h149v47h-149v-47zM397 656h499v-240h-499v240zM299 565v-637h-81v543l-89 -104l-118 131l277 321l148 -94zM962 23v-64h-632v64h632z" />
    <glyph glyph-name="uni50FB" unicode="&#x50fb;" 
d="M282 631v-711h-81v560l-54 -101l-134 97l196 362l154 -56zM416 651l-3 -146h108v146h-105zM399 -76h-76l20 790h259v-272h-191zM472 269v-201h48v201h-48zM635 336v-341h-215v341h215zM765 477l-68 -22h111l-36 23l91 153h-166zM957 246h-109v-323h-132v323h-74v63h74v83
h-94v63h65l-52 157l55 19h-68v64h100l-41 90l62 30l63 -97l-51 -23h182v-64h-69l72 -32l-89 -144h86v-63h-89v-83h109v-63z" />
    <glyph glyph-name="uni5106" unicode="&#x5106;" 
d="M730 209q-18 47 -35 114l-12 -46l-56 25l-1 -323zM722 433l-11 -45q30 -51 59 -92l61 137h-109zM354 169h58v124h-58v-124zM823 227q79 -95 171 -163q-62 -66 -136 -95q-46 59 -87 141l-59 -133h-86v-40l-197 50l70 27l-1 437h-142l-37 -99h154v-247h-156v241l-9 -24
l-47 26v-371h-81v460l-40 -74l-134 97l190 349l153 -57l-88 -164v-208l62 164l36 -9l-5 56h-51v64h45l-7 75l67 8l15 -83h63l17 94l69 -1l-16 -93h57v-64h-69l-12 -71l-67 15l10 56h-40l9 -50l-78 -8l19 -5l-5 -14h247v-157l84 332l72 -11l-45 -182h222v-63h-45z" />
    <glyph glyph-name="uni5107" unicode="&#x5107;" 
d="M823 779h-106v-133h106v133zM406 646h87v133h-87v-133zM574 779v-133h61v133h-61zM908 587h-545v247h545v-247zM319 529h610v-63h-610v63zM203 652h81v-711h-160v614l-50 -61l-58 65l228 280l76 -44zM471 298h224v83h-224v-83zM861 108q55 -42 122 -79q-46 -65 -102 -99
q-125 108 -209 312h-33l-19 -17h52v-195l60 9l5 -75l-232 -45l-11 86l30 4v127l-103 -95h-105l217 201h-125v191h447v-191h-136q47 -53 89 -90l98 64l46 -53z" />
    <glyph glyph-name="uni510B" unicode="&#x510b;" 
d="M305 590v-665h-81v571l-88 -103l-118 132l247 285l148 -94zM647 107v-120h113v120h-113zM913 160v-230h-327v230h327zM826 265h-227v61h227v-61zM619 179v61h200v-61h-200zM622 556h-93l-2 -101zM464 620h182l91 99h-188zM928 620v-64h-121l89 -69l-46 -59l-114 106
l18 22h-98l53 -39l-93 -96h72l-24 36l49 38l55 -56l-23 -18h105v-61h-264v30l-32 -33l-29 33l-12 -440h-160l18 670h50l-26 31l167 194l63 -38l-21 -24h191l17 19l58 -47l-126 -135h184z" />
    <glyph glyph-name="uni5112" unicode="&#x5112;" 
d="M296 607v-680h-81v585l-99 -116l-105 117l280 324l131 -83l-74 -87h204v63h-95v63h318v-63h-142v-63h285v-262h-127v199h-158v-207h-81v207h-143v-191h-81v231zM783 556l-29 -57l-98 47l25 45zM663 505l102 -28l-19 -60l-100 39zM539 566l-19 -60l-87 36l17 48zM436 510
l100 -34l-22 -59l-98 46zM920 39l-219 35l62 29v104h-92v-281h-81v281h-34v-156h-76v156h-51v-127h-77v190h67l51 49h-156v63h501v-63h-251l-49 -49h405v-231z" />
    <glyph glyph-name="uni5121" unicode="&#x5121;" 
d="M732 535v89h-55v-89h55zM466 535h97v89h-97v-89zM466 779v-92h97v92h-97zM732 779h-55v-92h55v92zM817 473h-394v363h394v-363zM266 551v-626h-81v521l-70 -91l-109 110l268 346l134 -75zM349 321v-96h40v96h-40zM514 321h-30v-96h30v96zM514 2v160h-30v-160h30zM349 2
h40v160h-40v-160zM598 379v-439h-292v439h292zM868 9v147h-38v-147h38zM660 9h74v147h-74v-147zM660 336v-117h74v117h-74zM868 336h-38v-117h38v117zM953 -53h-336v446h336v-446z" />
    <glyph glyph-name="uni513F" unicode="&#x513f;" 
d="M729 70l111 114v-152h-386v724h160v-686h115zM151 21l56 730h170l-55 -730h-171z" />
    <glyph glyph-name="uni5140" unicode="&#x5140;" 
d="M941 142v-150h-438v688h-75l-36 -711h-205l36 711h-162v63h841v-63h-291v-655h211z" />
    <glyph glyph-name="uni5141" unicode="&#x5141;" 
d="M911 95v-139h-471v413l-60 -6l-80 -402h-118l80 390l-138 -13l-5 71l33 3q92 145 209 405l180 -35q-93 -177 -211 -356l295 24l-33 79l85 34l120 -230l-106 -42l-41 98l-35 -3v-391h183z" />
    <glyph glyph-name="uni5143" unicode="&#x5143;" 
d="M669 608h-387v136h387v-136zM908 154v-134h-401v347h-87l-102 -369h-178l106 369h-154v136h775v-136h-216v-311h155z" />
    <glyph glyph-name="uni5144" unicode="&#x5144;" 
d="M184 499h303v195h-303v-195zM891 119v-137h-465v432h-38l-45 -435h-180l47 435h-96v357h564v-357h-161v-401h262z" />
    <glyph glyph-name="uni5145" unicode="&#x5145;" 
d="M913 69v-141h-442v475l-56 -4l-124 -454h-89l124 448l-150 -9l-4 83l62 3q33 89 56 184h-251v63h385l-56 114l79 34l84 -121l-66 -27h442v-63h-450q-30 -90 -69 -178l213 9l-45 73l57 35l151 -216l-69 -44l-50 80l-31 -2v-447h188z" />
    <glyph glyph-name="uni5146" unicode="&#x5146;" 
d="M246 781h210l-20 -805h-210l8 324l-167 -112l-41 83l210 124l3 109l-30 -58l-160 100l41 71l150 -75zM965 141v-154h-465v776h91v-262l149 137l82 -73l-197 -175l-34 47v-74l11 17l252 -141l-50 -88l-213 136v-269h250z" />
    <glyph glyph-name="uni5148" unicode="&#x5148;" 
d="M908 71v-133h-370v404h-87l-12 -395h-181l12 395h-165v63h317v251h-134l-51 -231l-135 49l79 343l140 -13l-19 -85h120v83h81v-83h205v-63h-205v-251h348v-63h-138v-365h96z" />
    <glyph glyph-name="uni5149" unicode="&#x5149;" 
d="M922 74v-138h-450v409h-88l-72 -415h-85l73 415h-226v63h270v61l-60 -31l-133 248l64 32l129 -212v337h175v-344l129 217l89 -40l-147 -238l-71 45v-75h387v-63h-238v-367h145z" />
    <glyph glyph-name="uni514B" unicode="&#x514b;" 
d="M232 406h335v107h-335v-107zM937 72v-139h-492v398h-98l-76 -382h-86l77 382h-98v252h149v99h-251v63h251v102h184v-102h274v-63h-274v-99h254v-252h-131v-359h203z" />
    <glyph glyph-name="uni514D" unicode="&#x514d;" 
d="M427 377h180v93h-159zM341 377l21 93h-107v-93h86zM918 70v-138h-483v372h-24l-81 -360h-88l82 360h-137v233h246l123 145h-283l-156 -164l-50 66l255 268l68 -47l-57 -60h276q17 19 27 32l80 -64q0 -2 -161 -176h235v-233h-170v-331h186z" />
    <glyph glyph-name="uni5151" unicode="&#x5151;" 
d="M188 457h348v170h-348v-170zM901 89v-142h-497v432h-105l-58 -458h-91l58 458h-90v320h128l-54 109l79 33l84 -121l-52 -21h109l-17 16l108 131l98 -64l-72 -83h198v-320h-117v-389h174z" />
    <glyph glyph-name="uni5154" unicode="&#x5154;" 
d="M375 451h140v101h-107zM294 451l33 101h-72v-101h39zM200 619h209l105 89h-233zM915 85v-143h-514v436h-49l-144 -445h-85l147 445h-83v226l-43 -47l-46 59l205 227l63 -41l-28 -31h250l18 15l53 -56l-137 -111h177v-241h-149v-399h245zM660 233l133 -145l-70 -49
l-120 155z" />
    <glyph glyph-name="uni5155" unicode="&#x5155;" 
d="M204 437h425v314h-75v-178l-263 1v163h-87v-300zM910 82v-136h-431v428h-71l-97 -429h-181l101 429l-108 -1v427h250v-163h99v177h336v-440h-160v-389h155z" />
    <glyph glyph-name="uni5156" unicode="&#x5156;" 
d="M320 616l-230 -164l-51 88l184 136h-141v63h277l-40 66l65 37l71 -84l-35 -19h322v-63h-134l194 -107l-52 -93l-213 140l37 60h-308zM905 94v-144h-489v435l-60 -9l-135 -391h-99l133 377l-95 -13l-10 98l43 5q84 74 163 168l77 -51q-49 -50 -110 -103l197 22l-23 25
l60 60l172 -163l-72 -74l-51 56v-401h181z" />
    <glyph glyph-name="uni515A" unicode="&#x515a;" 
d="M154 538v-186h-81v249h184l-79 108l56 45l111 -124l-36 -29h58v210h197v-210h59l-54 33l77 119l69 -27l-77 -125h216v-122h-82v59h-618zM295 314h254v107h-254v-107zM931 83v-129h-455v284h-102l-41 -278h-76l41 278h-72v252h506v-252h-66v-243h161z" />
    <glyph glyph-name="uni515C" unicode="&#x515c;" 
d="M771 732h-144v86h314v-472l-259 -1v86h89v301zM527 408v90h-183v-90h183zM527 649h-183v-65h183v65zM673 351h-387v351h9l178 117l44 -48l-108 -69h264v-351zM277 414l-209 -115l-30 82l37 17v360h43q32 17 116 59l47 -63l-108 -49v-260l85 40zM286 336h101l-94 -416
h-102zM954 83v-135h-485v367h207v-324h168z" />
    <glyph glyph-name="uni5162" unicode="&#x5162;" 
d="M134 373h132v139h-132v-139zM444 155l13 -68l-219 -121l-27 77l17 8v254h-42l-43 -342h-76l43 342h-39v269h108v79h-123v63h123v106h81v-106h137v-63h-137v-79h167v-269h-56v-185zM536 519v-130h204v130h-204zM970 92v-127h-316v353h-45l-44 -352h-76l45 352h-63v266h143
v89h-161v64h161v84h81v-84h181v-64h-181v-89h213v-266h-110v-317h82z" />
    <glyph glyph-name="uni5165" unicode="&#x5165;" 
d="M692 -16l-251 441l-254 -490l-106 55l287 563l-135 237h237l459 -806h-237z" />
    <glyph glyph-name="uni5168" unicode="&#x5168;" 
d="M262 583h380q-114 86 -225 208zM553 522v-158h164v-61h-164v-296h236v-61h-591v61h138v296h-156v61h156v158h-97v30l-119 -160h-87l339 452h85l-25 -34q281 -163 539 -200q-18 -91 -79 -174q-102 42 -207 115v-29h-132z" />
    <glyph glyph-name="uni516B" unicode="&#x516b;" 
d="M67 85l157 482l173 -42l-166 -495zM677 4q-182 318 -250 741q30 6 24 4q167 -285 513 -594q-131 -113 -287 -151z" />
    <glyph glyph-name="uni516C" unicode="&#x516c;" 
d="M155 368l-84 42l205 424l92 -32zM669 233l133 -276l-88 -44l-40 97l-549 -53l-7 93l36 3q99 211 203 528l170 -42q-99 -257 -206 -473l320 24l-44 107zM558 835q177 -224 383 -341q-47 -70 -110 -106q-178 152 -299 437z" />
    <glyph glyph-name="uni516D" unicode="&#x516d;" 
d="M613 556l-151 -48l-75 220l119 38zM838 432h-705v63h705v-63zM157 70l132 306l180 -59l-146 -321zM862 65l-125 -99l-249 375l106 81z" />
    <glyph glyph-name="uni516E" unicode="&#x516e;" 
d="M608 519q-86 131 -157 315l13 4q11 3 12 4q180 -180 467 -315q-74 -117 -190 -185q-65 61 -124 146v-32h-117l-66 -176h302l-68 -372l-308 107l118 31l28 170l-291 1l82 239h-30l-55 -102l-158 86l182 349l175 -68l-110 -202h295z" />
    <glyph glyph-name="uni5170" unicode="&#x5170;" 
d="M697 523h-505v64h112l-86 208l89 36l120 -230l-35 -14h129l-62 26l89 222l182 -56l-83 -192h50v-64zM267 339v63h324v-63h-324zM879 150v-137h-753v137h753z" />
    <glyph glyph-name="uni5171" unicode="&#x5171;" 
d="M240 256l168 -38l-89 -283l-160 49zM635 252l122 -260l-152 -47l-91 270zM396 362h111v240h-111v-240zM951 362v-63h-900v63h190v240h-120v64h120v124h155v-124h111v155h156v-155h117v-64h-117v-240h288z" />
    <glyph glyph-name="uni5173" unicode="&#x5173;" 
d="M928 278h-399q170 -109 374 -158q-48 -117 -141 -198q-150 100 -291 356h-36l-114 -351h-84l116 351h-288v64h309l58 177h-218v136h160l-66 147l52 24l83 -152l-42 -19h103l-26 22l113 150l66 -38l-104 -134h155v-136h-195l-57 -177h472v-64z" />
    <glyph glyph-name="uni5174" unicode="&#x5174;" 
d="M276 331l181 -27l-67 -339l-178 37zM635 372l127 -321l-155 -42l-98 332zM892 460v-64h-786v64h115l-70 203l104 44l105 -220l-65 -27h129l-58 256l106 32l87 -257l-103 -31h146l-17 8l124 260l93 -33l-116 -235h206z" />
    <glyph glyph-name="uni5175" unicode="&#x5175;" 
d="M326 189l140 -87l-156 -190l-117 106zM325 274h179v140h-179v-140zM909 211h-294l244 -169l-88 -123l-236 194l75 98h-523v63h156v417h19l340 153l79 -115l-356 -144v-35h461v-136h-201v-140h324v-63z" />
    <glyph glyph-name="uni5176" unicode="&#x5176;" 
d="M397 179h159v137h-159v-137zM397 607v-76h159v76h-159zM397 379h159v89h-159v-89zM903 116h-220l85 -142l-144 -60l-58 160l94 42h-323l135 -33l-64 -180l-177 59l49 154h-155v63h117v428h-152v63h152v172h155v-172h159v171h151v-171h138v-63h-138v-428h196v-63z" />
    <glyph glyph-name="uni5177" unicode="&#x5177;" 
d="M303 168h235v104h-235v-104zM303 765v-150h235v150h-235zM303 335h235v71h-235v-71zM538 552h-235v-83h235v83zM912 104h-208l96 -114l-122 -78l-102 163l45 29h-221l84 -31l-94 -182l-154 79l63 134h-210v64h133v661h523v-661h167v-64z" />
    <glyph glyph-name="uni5178" unicode="&#x5178;" 
d="M246 253h99v138h-99v-138zM246 582v-127h99v127h-99zM740 582h-96v-127h96v127zM644 253h96v138h-96v-138zM521 455v127h-62v-127h62zM459 391v-138h62v138h-62zM913 190h-255l154 -182l-119 -86l-162 230l53 38h-234l120 -92l-183 -185l-104 124l145 153h-265v63h102
v392h178v178h118v-178h61v195h123v-195h176v-392h92v-63z" />
    <glyph glyph-name="uni5179" unicode="&#x5179;" 
d="M887 578h-832v64h238l-71 97l67 53l115 -125l-32 -25h70l-25 28l144 144l76 -55l-111 -117h361v-64zM429 197l102 -199l-86 -34l-39 95l-323 -45l-9 92l35 4q67 60 112 105l-157 -6l-2 94h30q95 105 183 234l131 -75q-72 -88 -146 -158l48 1q24 26 72 82l113 -69
q-93 -97 -204 -188l84 9l-12 30zM813 169l-10 46q-42 -34 -64 -51zM880 237l74 -249l-99 -20l-24 114l-320 -34l-7 99l37 3q101 83 193 175l-227 -7l-2 88h29q91 76 164 161l116 -82q-43 -40 -95 -78l94 1l29 31l122 -81q-73 -72 -150 -135z" />
    <glyph glyph-name="uni517B" unicode="&#x517b;" 
d="M587 446q139 -40 290 -39q-8 -78 -43 -142q-65 16 -132 47v-387h-170v455h52q-46 32 -86 66h-93l-64 -115h102l-15 -248h-139l10 173l-63 -115l-70 39l146 266h-195v63h230l22 41h-50v64h85l26 47h-190v63h120l-45 70l54 31l69 -80l-36 -21h57l-10 10l107 114l57 -39
l-76 -85h171v-63h-184l-26 -47h126v-64h-161l-23 -41h404v-63h-257z" />
    <glyph glyph-name="uni517C" unicode="&#x517c;" 
d="M502 342v77h-82v-77h82zM420 482h82v73h-82v-73zM420 619h82v46h-82v-46zM583 555v-73h59v73h-59zM642 342v77h-59v-77h59zM583 247q150 -114 342 -168q-41 -95 -117 -158q-122 83 -225 260v-242h-81v339h-82v-362h-82v275l-126 -219h-89l179 306h-161v64h197v77h-235v63
h235v73h-207v64h207v46h-204v64h187l-36 79l66 31l64 -97l-28 -13h78l-19 23l113 100l53 -48l-85 -75h207v-64h-151v-46h210v-138h85v-63h-85v-139l-210 -1v-31z" />
    <glyph glyph-name="uni517D" unicode="&#x517d;" 
d="M593 452v85h-72v-85h72zM314 452h126v85h-126v-85zM314 653v-53h126v53h-126zM593 653h-72v-53h72v53zM777 390h-530v321h128l-56 125l61 23l77 -131l-48 -17h97l-29 33l113 108l55 -43l-98 -98h230v-321zM321 172v-177h299v177h-299zM811 232v-302h-559v302h559z
M909 336v-63h-823v63h823z" />
    <glyph glyph-name="uni5180" unicode="&#x5180;" 
d="M252 596l-189 -68l-16 75l205 60v19h-164v64h164v106h170v-324h-170v68zM254 423v-49h163v49h-163zM610 423h-112v-49h112v49zM610 277v39h-112v-39h112zM254 277h163v39h-163v-39zM778 471v-245h-586v245h586zM442 101h77v29h-77v-29zM600 101h187v-64h-145l106 -66
l-52 -69l-154 115l17 20h-150l55 -26l-71 -111l-72 48l55 89h-185v64h170v29h-103v63h103v23h81v-23h77v26h81v-26h108v-63h-108v-29zM940 639v-131h-446v343h164v-158l171 95l46 -64l-217 -117v-60h179z" />
    <glyph glyph-name="uni5181" unicode="&#x5181;" 
d="M96 462h60v76h-60v-76zM96 679v-78h60v78h-60zM310 679h-40v-78h40v78zM310 462v76h-40v-76h40zM269 317h150v-136h-150v-237h-114v237h-104v136h104v86h-104v330h62l-30 72l55 25l51 -85l-29 -12h51l-17 20l87 80l50 -42l-61 -58h132v-330h-133v-86zM613 732l-3 -119
h246v119h-243zM594 -25h-160l20 820h483v-245h-328zM746 299h36v62h-36v-62zM861 98q48 -40 114 -78q-39 -55 -88 -83q-94 82 -161 233v-86l23 14l25 -53l-135 -94l-31 63l25 15v207h-22v63h54v62h-48v64h48v82h81v-82h36v74h81v-74h51v-64h-51v-62h58v-63h-193
q34 -44 74 -84l88 79l61 -55z" />
    <glyph glyph-name="uni5182" unicode="&#x5182;" 
d="M878 -24l-286 68l92 59v570h-415v-674h-151v738h760v-761z" />
    <glyph glyph-name="uni5185" unicode="&#x5185;" 
d="M711 376v240h-249l-56 -140l62 76zM923 680v-752l-304 71l92 62v290l-86 -114l-234 201l-59 -150h-84l131 328h-214v-623h-82v686h309v145h81v-145z" />
    <glyph glyph-name="uni5188" unicode="&#x5188;" 
d="M520 301l-162 -164l-69 83l145 149l-121 97l46 72l140 -103l97 100l88 -69l-96 -97l115 -85l-52 -88zM902 -78l-291 75l98 64v655h-429v-765h-179v828h801v-857z" />
    <glyph glyph-name="uni5189" unicode="&#x5189;" 
d="M750 290v138h-195v-138h195zM218 290h172v138h-172v-138zM218 618v-129h172v129h-172zM750 618h-195v-129h195v129zM932 229h-107v-319l-136 50l61 28v241h-532v-259h-82v259h-77v61h77v389h254v161h165v-161h270v-389h107v-61z" />
    <glyph glyph-name="uni518C" unicode="&#x518c;" 
d="M778 477v230h-109l-6 -230h115zM341 477v222h-100l-5 -222h105zM961 413h-72v-441l-163 58l52 33v350h-116l-11 -417h-153l11 417h-74v-421l-142 54l48 29v338h-106l-10 -396h-139l10 396h-58v64h60l7 285h330v-285h75l8 294h371v-294h72v-64z" />
    <glyph glyph-name="uni518D" unicode="&#x518d;" 
d="M696 286v123h-184v-123h184zM222 286h139v123h-139v-123zM222 559v-88h139v88h-139zM696 559h-184v-88h184v88zM954 225h-46v-327l-326 69l114 67v191h-474v-322h-81v322h-91v61h91v335h219v136h-188v61h569v-61h-230v-136h397v-335h46v-61z" />
    <glyph glyph-name="uni5192" unicode="&#x5192;" 
d="M622 626h-374v63h374v-63zM619 519h-369v64h369v-64zM330 409v-91h216v91h-216zM546 2v90h-216v-90h216zM546 254h-216v-99h216v99zM737 469v-532h-475v532h475zM859 513h-202v226h-441v-223h-81v286h724v-289z" />
    <glyph glyph-name="uni5195" unicode="&#x5195;" 
d="M222 548h-81v290h81v-1h510v-305h-174v242h-336v-226zM531 585h-292v63h292v-63zM530 679h-292v64h292v-64zM405 187h114v107h-72zM322 187l43 107h-108v-107h65zM893 55v-126h-486v201h-25l-78 -198h-84l79 198h-114v216h290q4 7 63 74h-291l-99 -84l-42 67l204 173
l61 -51l-50 -42h272q14 19 14 20l75 -53q-1 -5 -110 -104h146v-216h-141v-161h216z" />
    <glyph glyph-name="uni5196" unicode="&#x5196;" 
d="M840 313h-128v203h-460v-203h-119v266h707v-266z" />
    <glyph glyph-name="uni5197" unicode="&#x5197;" 
d="M215 672v-258h-165v319h875v-305h-169v244h-541zM944 114v-150h-480v542h-108l-28 -549h-89l31 610h359v-564h192z" />
    <glyph glyph-name="uni5199" unicode="&#x5199;" 
d="M780 -82l-266 60l75 33l-2 314h-265l-1 329h98l-1 -97h259v-110h-260v-59h363v-470zM560 161h-432v64h432v-64zM922 500h-128v189h-588v-212h-127v276h843v-253z" />
    <glyph glyph-name="uni519B" unicode="&#x519b;" 
d="M775 531v195h-298l71 -19q-70 -103 -93 -134h307v-63h-353q-52 -68 -114 -142h144v122h183v-122h228v-63h-228v-89h298v-63h-298v-225h-183v225h-337v63h337v89h-262v63h25q50 63 107 142h-152v63h196q66 100 98 153h-305v-268h-81v331h857v-258h-147z" />
    <glyph glyph-name="uni519C" unicode="&#x519c;" 
d="M782 264q91 -41 181 -66q-38 -100 -113 -170q-172 96 -344 327v-317l79 18l14 -68l-312 -81l-15 79l25 6v368l-135 -214h-95l327 511h-155v-215h-174v279h370l72 112h89l-71 -112h395v-243h-169v179h-266l-117 -185h138v-47q70 -49 110 -73l97 132l166 -98z" />
    <glyph glyph-name="uni51A0" unicode="&#x51a0;" 
d="M965 115v-135h-671v303h-33l-55 -308h-146l56 308h-53v63h423v-50l25 30l109 -79v122h-163v64h163v110h124v151h-516v-203h-179v266h860v-228h-95v-96h43v-64h-43v-336l-270 51l76 45v110l-77 -96l-101 100l33 40h-43v-267h418zM432 476v-63h-292v63h292z" />
    <glyph glyph-name="uni51A2" unicode="&#x51a2;" 
d="M239 530h-151v245h816v-259h-152v196h-513v-182zM395 281l-5 27l-88 -63l15 -23zM591 272q168 -92 351 -124q-29 -98 -94 -169q-150 74 -296 260q21 -242 -27 -310l-263 65l133 34q12 59 8 160l-42 -32l38 -58l-80 -46l-29 51l-82 -61l-40 66l82 63l-15 27l-89 -64
l-35 62l88 64l-16 28l66 37l13 -20l112 81q-6 24 -10 36l-259 -153l-40 85l271 163h-68v81h416v-81h-158l-38 -23q23 -50 38 -114l199 113l77 -105z" />
    <glyph glyph-name="uni51A4" unicode="&#x51a4;" 
d="M413 322l42 110h-108v-110h66zM321 492h202q39 55 59 81h-211zM528 432l-41 -110h83v110h-42zM921 76v-133h-473v273l-78 -211h-76l95 252h-107v172l-13 -21l-54 47l149 243h-126v-205h-151v268h831v-258h-132v195h-399l48 -21l-25 -40h218q16 21 16 23l63 -41
q-2 -7 -98 -127h129v-235h-131v-276h207zM669 225l169 -127l-54 -61l-162 140z" />
    <glyph glyph-name="uni51A5" unicode="&#x51a5;" 
d="M617 158l189 -126l-91 -109l-177 148zM328 396h209v65h-209v-65zM328 590v-65h209v65h-209zM463 227h441v-64h-509l95 -108l-212 -142l-74 132l166 118h-275v64h314l-22 87l78 20h-206v313h469v-313h-258l49 -95zM947 455h-151v250h-592v-241h-151v304h894v-313z" />
    <glyph glyph-name="uni51AB" unicode="&#x51ab;" 
d="M683 358l-252 -361l-120 103l284 358zM613 593l-112 -101l-172 208l93 83z" />
    <glyph glyph-name="uni51AC" unicode="&#x51ac;" 
d="M313 149l434 -147l-26 -70l-437 161zM671 217l-31 -62l-317 119l31 49zM330 653q84 -41 143 -65l110 97h-229zM547 559q204 -76 411 -100q-39 -151 -134 -259q-184 83 -375 273l-293 -260h-108l352 310q-62 66 -93 101l-164 -215h-88l291 376h85l-38 -49h248l20 18h106z
" />
    <glyph glyph-name="uni51AF" unicode="&#x51af;" 
d="M273 432l-239 186l72 97l249 -163zM401 317l-224 -280l-108 107l246 264zM911 424l-1 -514l-256 59l75 34l-1 117h-388v64h388l-1 176h-258l-1 324h78l-2 -261h124l-1 325h-253v63h411l-5 -387h91z" />
    <glyph glyph-name="uni51B0" unicode="&#x51b0;" 
d="M199 479l-180 197l84 83l195 -179zM317 323l-131 -286l-132 72l154 282zM746 401q111 -144 244 -228q-48 -60 -108 -91q-110 111 -186 302v-449l-260 74l66 53v291l-102 -251h-108l129 311h-112v76h193v293h194v-270l98 82l87 -84z" />
    <glyph glyph-name="uni51B1" unicode="&#x51b1;" 
d="M240 466l-223 232l96 101l240 -211zM371 342l-198 -328l-128 93l225 323zM614 350l15 136h-102l-22 -136h109zM966 37v-63h-637v63h251l27 247h-186l59 403h-133v63h446v-63h-235l-22 -138h288l-64 -512h206z" />
    <glyph glyph-name="uni51B2" unicode="&#x51b2;" 
d="M204 432l-172 198l92 86l189 -179zM270 392l92 -98l-218 -271l-116 116zM790 460h-64v-95h64v95zM428 365h114v95h-114v-95zM929 278h-204v-315h-184v315h-170v261h172v260h184v-260h202v-261z" />
    <glyph glyph-name="uni51B3" unicode="&#x51b3;" 
d="M222 475l-188 196l89 94l203 -176zM333 359l-151 -324l-141 77l174 318zM518 457h114v163h-82zM580 393q146 -144 391 -268q-74 -108 -189 -173q-151 155 -251 441h-26l-90 -450h-82l91 450h-83v64h96l34 163h-87v63h99l26 126h79l-25 -126l206 1v-227h168v-64h-357z" />
    <glyph glyph-name="uni51B5" unicode="&#x51b5;" 
d="M262 391l-244 210l81 98l255 -187zM279 384l77 -108l-202 -212l-103 128zM468 450h272v259h-272v-259zM937 100v-128h-294v402h-54l-68 -389h-77l68 389h-112v404h524v-404h-127v-365h52z" />
    <glyph glyph-name="uni51B6" unicode="&#x51b6;" 
d="M254 339l96 -87l-162 -272l-124 91zM162 688l206 -210l-108 -97l-189 228zM780 393l-393 -55l-9 81l30 4q52 170 90 389l167 -21q-46 -186 -105 -351l179 21l-49 78l75 47l149 -202l-92 -58zM461 236v-219h201v219h-201zM861 310v-374h-473v374h473z" />
    <glyph glyph-name="uni51B7" unicode="&#x51b7;" 
d="M229 485l-200 199l81 88l212 -179zM369 305l-202 -252l-113 111l227 237zM857 383l-226 -360l174 -59l-23 -60l-426 155l24 48l119 -40l152 303h-311v63h342l16 32zM657 480l-58 -43l-100 144l48 35zM600 806q170 -133 358 -199q-24 -60 -89 -121q-154 91 -287 295
l-231 -327h-94l284 397h90z" />
    <glyph glyph-name="uni51BB" unicode="&#x51bb;" 
d="M259 459l-219 172l69 93l228 -149zM509 232l-59 -202l-73 27l68 195zM741 345v-423l-264 61l62 47v315h-179l21 -28l-229 -270l-108 116l259 258l45 -60v47h24q53 121 94 234h-162v63h185l39 116l78 -16l-38 -100h323v-63h-347q-48 -119 -101 -234h96v159h202v-159h158
v-63h-158zM951 120l-50 -57l-146 147l43 46z" />
    <glyph glyph-name="uni51BC" unicode="&#x51bc;" 
d="M275 406l83 -95l-176 -238l-111 103zM968 82v-130h-391v380h-62l-19 -379h-110l19 379h-57v64h194v218h-113l-34 -201l-92 30l17 98l-75 -100l-225 195l74 91l229 -168l37 213l94 -6l-15 -89h103v133h142v-133h177v-63h-177v-218h242v-64h-247v-348h190z" />
    <glyph glyph-name="uni51BD" unicode="&#x51bd;" 
d="M253 504l-209 164l63 86l217 -143zM231 406l57 -115l-164 -155l-89 129zM573 257v329l-143 -559h-80l81 312l-75 42l37 95l68 -19l27 101h-89l-58 -210h-79l103 372h-74v64h242v-64h-90l-27 -98h88l8 30h78l-7 -28h141v-367h-151zM915 776v-808l-236 67l69 48v693h167z
" />
    <glyph glyph-name="uni51C0" unicode="&#x51c0;" 
d="M209 453l-181 174l83 97l195 -153zM270 389l106 -71l-153 -303l-129 78zM840 284v110h-78v-110h78zM762 458h78v75h-78v-75zM952 395h-31v-174h-159v-280l-258 57l83 49v174h-135v63h135v110h-197v64h197v75h-153v64h167l95 119h-230l-87 -255l-70 37l110 322l77 -16
l-8 -24h258q23 28 23 29l62 -45q0 -1 -138 -167h228v-138h31v-64z" />
    <glyph glyph-name="uni51C4" unicode="&#x51c4;" 
d="M285 463l-218 172l76 105l229 -147zM672 392v65h-60v-65h60zM612 520h60v40h-60v-40zM482 195l-34 -51l66 -27l76 78h-108zM565 317l-40 -59h342v-63h-48l-140 -147l171 -72l-50 -67l-178 80l-56 -59h-234l128 132l-128 58l19 18l39 57h-73v46l-133 -190l-120 101
l191 227l96 -90l-22 -31h104l49 71h-139v63h118v65h-133v63h133v40h-67v64h67v73h-106v63h106v78h151v-78h171v-63h-171v-73h141v-105h126v-63h-126v-127h-216z" />
    <glyph glyph-name="uni51C6" unicode="&#x51c6;" 
d="M673 671l-95 86l50 55l105 -72zM229 414l-196 205l92 97l212 -184zM278 349l81 -109l-199 -234l-113 121zM457 707v-726h-81v657l-60 -51l-42 68l205 173l60 -51zM955 26v-64h-487v64h138v237h-102v64h102v130h-88v63h88v76h-131v64h401v-64h-133v-76h126v-63h-126v-130
h117v-64h-117v-237h212z" />
    <glyph glyph-name="uni51C7" unicode="&#x51c7;" 
d="M847 442q-93 97 -138 275q15 5 24 5q84 -130 203 -207q-43 -50 -89 -73zM545 465l70 274l78 -11l-74 -293zM189 489l-153 233l85 56l172 -219zM529 281l-42 102v-402h-81v432l-50 -201l-69 29l24 95l-164 -257l-103 78l193 263l80 -59l52 205h-65v63h102v134h81v-134h77
v-63h-77v-71l21 11l94 -188zM817 203l116 -196l-79 -47l-39 79l-249 -45l-10 80l18 3q50 182 80 391l144 -16q-42 -187 -95 -356l78 11l-28 57z" />
    <glyph glyph-name="uni51C9" unicode="&#x51c9;" 
d="M869 675h-555v63h201l-30 50l61 41l64 -72l-29 -19h288v-63zM240 404l-210 208l78 85l222 -190zM273 355l76 -84l-177 -225l-97 96zM478 205l-28 -173l-78 20l38 168zM484 441h162v114h-162v-114zM694 365v-429l-237 47l71 38v344h-113v259h414v-259h-135zM939 99
l-63 -57l-146 177l53 46z" />
    <glyph glyph-name="uni51CB" unicode="&#x51cb;" 
d="M510 474v93h-86v63h86v81h81v-81h97v-63h-97v-93h131v-64h-346v64h134zM562 315h-114v-133h114v133zM714 120h-327v253h327v-253zM897 -47l-217 67l60 44v663h-370l-17 -727h-83l6 221l-147 -155l-95 119l205 173l38 -63l6 222l-82 -95l-170 171l79 88l174 -142l6 251
h607v-837z" />
    <glyph glyph-name="uni51CC" unicode="&#x51cc;" 
d="M248 424l-222 126l62 117l227 -97zM483 242q33 -20 97 -54l100 126h-160zM652 155q125 -55 260 -77q-28 -97 -89 -165q-117 54 -233 164l-116 -148h-100l161 203q-46 50 -68 77l-40 -79l-58 42l146 289l67 -24l-29 -58h179l17 22h32l-119 91l32 44h-260l70 -26l-118 -227
l-73 39l32 -51l-178 -174l-103 137l206 155l36 -56l103 203h-69v63h163v104h-117v64h117v61h179v-61h114v-64h-114v-104h218v-63h-177l208 -142l-48 -71l-62 47z" />
    <glyph glyph-name="uni51CF" unicode="&#x51cf;" 
d="M810 721l-85 68l43 55l93 -54zM465 318v-210h45v210h-45zM640 373v-324h-230v324h230zM813 133q36 -62 73 -91l57 84l12 -208q-95 9 -176 115l-32 -96l-105 36l63 190q-27 62 -47 135q-34 121 -56 351h-208l-3 -158h219v-63h-221l-12 -505h-82l7 310l-124 -192l-128 100
l152 185l101 -90l7 293l-57 -114l-229 137l63 111l223 -104l4 154h283l-6 91l84 1q1 -33 5 -92h223v-64h-218q17 -207 53 -337q2 -9 8 -27l48 145l111 -27z" />
    <glyph glyph-name="uni51D1" unicode="&#x51d1;" 
d="M253 435l-215 186l76 95l227 -164zM331 274l-190 -212l-99 113l214 197zM559 289h-101v29l-38 -70h119zM502 400l-26 -48h224q-24 23 -45 48h-153zM643 289l-19 -41h204v-136h-165l174 -118l-50 -75l-209 161l23 32h-41l-65 -139h-86l66 139h-105v72h-75l119 216h-75v63
h109l29 52h-43v136h118l26 47h-183v63h217l36 65h86l-35 -65h128v-63h-163l-25 -47h146v-136h-220l-28 -52h380v-63h-207q113 -58 246 -77q-14 -61 -50 -108q-78 28 -161 96v-22h-102z" />
    <glyph glyph-name="uni51DB" unicode="&#x51db;" 
d="M890 659h-519v64h178l-27 92l107 45l65 -111l-67 -26h263v-64zM534 436h48v71h-48v-71zM483 399v143h213v-143h-213zM737 577h-270v-207h270v207zM889 319h-482v306h482v-306zM507 233v57h268v-57h-268zM317 472l-217 136l58 99l223 -112zM376 306l-244 -289l-104 113
l272 276zM523 71l-125 -139l-59 66l132 126zM698 148v-243l-183 36l44 27v180h-244v59h587v-59h-204zM940 -7l-59 -71l-159 152l50 58z" />
    <glyph glyph-name="uni51DD" unicode="&#x51dd;" 
d="M609 519h-283v310h154v-112l94 61l59 -71l-153 -96v-56h44l85 84v-120zM206 421l-188 149l74 85l199 -128zM289 327l-100 -271l-149 67l125 270zM811 70q71 -27 155 -41q-19 -70 -62 -120q-123 50 -241 190l-13 -134h-72l3 32l-52 -45l-96 123l-33 -146h-71l44 196h-132
v64h147l31 137h-37l-30 -133l-69 26l53 233l72 -9l-12 -54h193v-63h-100l-31 -137h133v-64h-147l-8 -34l37 30l109 -119l29 301h73l-16 -162l22 -13v284h-128v63h223l-139 109l38 53l51 -34q13 23 56 86h-148v63h188q9 18 9 20l71 -40q-1 -8 -53 -74q-60 -77 -69 -91l53 -36
l-37 -56h85l9 18l68 -34l-76 -135l-75 11l40 77h-43v-126h98v-63h-98v-153h-2z" />
    <glyph glyph-name="uni51E0" unicode="&#x51e0;" 
d="M903 137v-148h-388v712h-199l-18 -712h-160l20 775l449 1v-745h185z" />
    <glyph glyph-name="uni51E1" unicode="&#x51e1;" 
d="M280 531l246 -90l-36 -89l-244 108zM944 133v-161h-374v731h-363l-18 -729h-83l20 790h656v-748h55z" />
    <glyph glyph-name="uni51E4" unicode="&#x51e4;" 
d="M835 790q2 -380 13 -513q9 -115 50 -181q13 22 35 65l16 -259q-211 29 -257 368q-13 101 -20 315l-142 -221l131 -88l-79 -116l-123 95l-54 -85h-120l96 145l-79 61l71 93l76 -51l43 67h-186v79h239l16 25h111l-3 138h-390l-20 -802h-160l21 865h715z" />
    <glyph glyph-name="uni51EB" unicode="&#x51eb;" 
d="M199 673l-38 59l187 117l50 -58l-56 -33h245v-283l-224 49l68 25l-1 145h-135l-2 -224l487 1v-348l-224 50l69 27l-2 207h-404l-1 277zM426 623l-43 -66l-84 69l37 53zM877 94v-141h-560v340h-78l-8 -350h-81l11 413l316 1v-365h280z" />
    <glyph glyph-name="uni51ED" unicode="&#x51ed;" 
d="M392 731l275 109l44 -80l-52 -20v-100h168v-61h-168v-140h116v-61h-314v61h61v140h-154v61h154v47l-105 -40zM156 472l-95 106l221 255l119 -75l-70 -82v-353h-82v258zM924 64v-136h-490v318h-169l-22 -293h-96l27 354h451v-338h188z" />
    <glyph glyph-name="uni51EF" unicode="&#x51ef;" 
d="M375 253h-138v-127l106 26l17 -141l-292 -98l-37 162l32 8v233h171v79h-169v63h310v-205zM338 729h81v-245h-81v30h-302v227h81v-163h40v243h142v-243h39v151zM975 90v-155h-319v741h-49l-18 -757h-161l21 820h398v-763h33z" />
    <glyph glyph-name="uni51F0" unicode="&#x51f0;" 
d="M525 63h163v-64h-473v64h108v132h-140v64h140v58h-95v64h419v-64h-122v-58h140v-64h-140v-132zM597 612h-355v-37h355v37zM597 476v41h-355v-41h355zM840 780q2 -355 15 -489q13 -133 53 -193q19 33 34 64q10 -148 14 -239q-190 26 -236 359q-20 151 -23 435h-368l56 -13
l-19 -43h308v-238h-473v238h88l26 56h-164l-18 -757h-69l21 820h755z" />
    <glyph glyph-name="uni51F3" unicode="&#x51f3;" 
d="M423 296l-32 -12h54l59 84h-124zM307 427h179v91h-179v-91zM246 573h411q-25 19 -71 59v-26h-292v28zM84 284h252l-28 74l24 10h-97v191l-106 -135h-90l159 200l-108 59l32 51l122 -52l59 74h-103v71h159l14 17h86l-137 -175h224q-52 51 -102 111l13 14q49 -34 104 -66
l83 119l69 -29l-84 -126l49 -23l85 131l66 -25l-84 -133q74 -27 142 -41q-16 -64 -65 -126q-69 31 -137 78v-185h-156l61 -34l-37 -50h268v-64h-737v64zM909 57v-120h-330v192h-190l-5 -185h-72l7 248h440v-216h58z" />
    <glyph glyph-name="uni51F5" unicode="&#x51f5;" 
d="M815 759v-756h-141v114h-503v640h142v-576h361v578h141z" />
    <glyph glyph-name="uni51F6" unicode="&#x51f6;" 
d="M416 497l-223 176l45 64l232 -175l165 201l163 -104l-178 -210l197 -149l-49 -80l-205 161l-161 -190l-133 128zM914 605v-609h-81v37h-747v581h81v-518h666v509h81z" />
    <glyph glyph-name="uni51F8" unicode="&#x51f8;" 
d="M730 25v423l-193 -1v300h-139v-303h-237v-419h569zM919 -39l-840 1v545l238 1v302h302v-299h300v-550z" />
    <glyph glyph-name="uni51F9" unicode="&#x51f9;" 
d="M718 70v615h-106v-273h-332v273h-129v-615h567zM916 7h-847v741h292v-273h170v273h385v-741z" />
    <glyph glyph-name="uni51FA" unicode="&#x51fa;" 
d="M884 350v-423h-179v39h-585v332h81v-268h193v390h-226v304h82v-240h144v312h188v-312h69v227h81v-304h-81v13h-69v-390h123v320h179z" />
    <glyph glyph-name="uni51FB" unicode="&#x51fb;" 
d="M602 42h115v211h165v-319h-165v45h-470v-1h-81v268h81v-204h181v276h-361v64h361v247h-200v63h200v146h174v-146h94v-63h-94v-247h292v-64h-292v-276z" />
    <glyph glyph-name="uni51FC" unicode="&#x51fc;" 
d="M777 78v220l-48 -63l-141 146v-303h189zM947 745v-796h-170v66h-715v704h81v-641h343l-173 41l81 55v274l-95 -223h-101l123 284h-132v76h205v191h194v-206l84 90l89 -66l-126 -131l142 -131v413h170z" />
    <glyph glyph-name="uni51FD" unicode="&#x51fd;" 
d="M746 42v232l-36 -63l-172 111v-261l-298 54l96 52v142l-165 -90l-30 76v-253h605zM935 551v-626h-189v54h-686v559h81v-231l130 61l-109 127l48 45l122 -121l-44 -43l48 22v192h67l156 153h-419v63h483l30 30l67 -62l-205 -184h23v-185l208 -117v263h189zM648 539l75 -49
l-104 -121l-62 61z" />
    <glyph glyph-name="uni51FF" unicode="&#x51ff;" 
d="M456 371l63 67h-111l49 -80l-41 -17h70zM391 438h-285v66h215v29l-42 -27l-111 180l57 35l96 -133v232h114v-316h49v316h142v-168l88 81l72 -64l-139 -121l-21 29v-73h249v-66h-301l23 -16l-71 -81h167v-63h-160v-60h111v-63h-111v-115h-114v115h-112v63h112v60h-131v63
h89l-31 77zM880 365v-435h-142v34h-600v395h81v-332h519v338h142z" />
    <glyph glyph-name="uni5200" unicode="&#x5200;" 
d="M900 -80l-298 78l81 46l-2 662h-268l-57 -763h-84l58 763h-247v63h818z" />
    <glyph glyph-name="uni5201" unicode="&#x5201;" 
d="M599 463l-457 -306l-36 80l468 292zM874 -84l-289 75l81 45l-2 683h-574v63h784v-866z" />
    <glyph glyph-name="uni5202" unicode="&#x5202;" 
d="M412 255h-133v335h133v-335zM502 59v737h166v-857l-238 70z" />
    <glyph glyph-name="uni5203" unicode="&#x5203;" 
d="M157 547l109 -38l-90 -323l-125 45zM896 -73l-318 81l83 48l-3 633h-220l-36 -705h-118l36 705h-170v61h746v-823z" />
    <glyph glyph-name="uni5206" unicode="&#x5206;" 
d="M736 514q-115 99 -227 252l11 7q9 6 11 8q229 -164 459 -219q-33 -96 -95 -156q-59 29 -118 75l-1 -572l-307 70l81 42l-3 430h-144l-39 -515h-90l40 515h-103v41l-88 -118h-107l331 438h102l-222 -298h509z" />
    <glyph glyph-name="uni5207" unicode="&#x5207;" 
d="M427 158l-274 -134l-50 147l42 16v292l-112 -3l-2 119l114 2v134h178v-130l112 2l1 -118l-113 -3v-227l75 29zM857 -84l-310 99l98 45l35 615h-81l-70 -709h-107l72 709h-56v63h466z" />
    <glyph glyph-name="uni5208" unicode="&#x5208;" 
d="M602 278h-81v368h81v-368zM372 458l190 -246l-126 -104l-147 208l-138 -237l-80 48l158 274l-158 223l108 84l130 -168l84 146l90 -37zM891 783v-847l-296 76l94 64v707h202z" />
    <glyph glyph-name="uni520A" unicode="&#x520a;" 
d="M337 540h164v-137h-164v-396h-81v396h-182v137h182v110h-113v63h292v-63h-98v-110zM637 269h-118v325h118v-325zM854 771v-818l-252 67l85 54v697h167z" />
    <glyph glyph-name="uni520D" unicode="&#x520d;" 
d="M309 377h207l157 190h-218zM869 -88h-193v19h-420v63h420v136h-419v63h419v120h-464v64h70l-129 127l273 351l174 -99l-97 -126h222l27 33l74 -57l-208 -229h251v-465z" />
    <glyph glyph-name="uni520E" unicode="&#x520e;" 
d="M500 -59l-269 69l80 40l-1 236l-108 -159l-75 53l149 227l33 -17l-1 260h-148l-32 -195h-90l54 324h89l-9 -55h329zM135 257l-79 49l136 229l89 -40zM629 189h-86v386h86v-386zM930 768v-828l-319 79l89 67v682h230z" />
    <glyph glyph-name="uni5211" unicode="&#x5211;" 
d="M265 532v157h-68l-4 -157h72zM425 532h89v-63h-89v-467h-160v467h-73l-9 -365h-74l9 365h-78v63h79l4 157h-80v64h464v-64h-82v-157zM703 234h-165v395h165v-395zM903 779v-827l-250 67l83 54v706h167z" />
    <glyph glyph-name="uni5212" unicode="&#x5212;" 
d="M458 647l-95 112l57 55l107 -100zM501 291l-129 -145q29 -49 60 -74q11 15 48 77l12 -198q-105 10 -182 125l-97 -110l-102 104l129 150q-13 39 -20 68q-18 66 -32 177l-98 -14l-21 129l104 15q-8 95 -10 145l92 1q4 -90 8 -133l168 25l20 -129l-175 -26q12 -103 31 -174
l1 -5l67 78zM524 542h132v-326h-132v326zM905 798v-857l-236 68l79 51v738h157z" />
    <glyph glyph-name="uni5216" unicode="&#x5216;" 
d="M413 346v128h-145l-4 -128h149zM273 686l-4 -149h144v149h-140zM534 -20l-193 57l72 40v205h-150l-8 -292h-188l19 759h448v-769zM649 252h-81v331h81v-331zM944 778v-838l-314 77l103 68v693h211z" />
    <glyph glyph-name="uni5217" unicode="&#x5217;" 
d="M394 479h86l-294 -523h-90l135 237l-107 64l41 84l122 -49l45 79h-171l-59 -126h-86l166 348h-135v136h373v-136h-155l-67 -143h179zM687 224h-193v383h193v-383zM933 780v-818l-286 72l93 61v685h193z" />
    <glyph glyph-name="uni5218" unicode="&#x5218;" 
d="M241 601h234v-63h-48l-118 -192l120 -95l-78 -117l-111 99l-103 -168l-84 53l111 183l-86 77l68 97l83 -66l78 129h-255v63h168l-66 101l54 39l85 -104zM651 284h-137v280h137v-280zM920 732v-751l-295 68l102 61v622h193z" />
    <glyph glyph-name="uni5219" unicode="&#x5219;" 
d="M344 330l11 -14v183l-69 -198zM250 545h105v139h-179v-346zM358 312l155 -199l-141 -72l-113 182l-75 -215h-126l105 295h-68v445h341v-436h-78zM611 234h-86v350h86v-350zM904 774v-809l-303 74l91 64v671h212z" />
    <glyph glyph-name="uni521A" unicode="&#x521a;" 
d="M440 370v119l-42 -80zM330 473l41 80l69 -26v201h-210v-232l33 40zM589 -75l-221 67l72 47v262l-26 -33l-58 60l-46 -87l-77 41l58 114l-61 63v-522h-165v855l524 -1v-866zM724 268h-91v305h91v-305zM916 800v-866l-221 66l73 48v752h148z" />
    <glyph glyph-name="uni521B" unicode="&#x521b;" 
d="M248 425v-213l64 23l-2 190h-62zM567 260v248l-51 -60l-222 169l-84 -129h240l-1 -324l-201 47v-222h170l100 104v-135h-372v440l-91 80l231 355l113 -53l-65 -101l233 -162v46h127v-303h-127zM877 790v-847l-206 66l58 43v738h148z" />
    <glyph glyph-name="uni521D" unicode="&#x521d;" 
d="M227 597l-135 149l89 91l151 -130zM453 193l-86 87v-336h-198v336l-82 -86l-63 82l220 231h-188v76h260l26 27l85 -59l-118 -124h58v-29l80 66l63 -62l-90 -71l87 -77zM931 -77l-230 60l77 35l-2 603h-177l-16 -660h-81l16 660h-104v64h517v-762z" />
    <glyph glyph-name="uni5220" unicode="&#x5220;" 
d="M550 431v269h-72l-6 -269h78zM279 431v261h-84l-6 -261h90zM608 431h19v-63h-19v-384l-105 49l47 22v313h-80l-9 -364h-110l9 364h-24v-373l-101 49l44 21v303h-92l-9 -358h-110l9 358h-46v63h48l8 324h249v-324h26l8 332h238v-332zM738 254h-91v332h91v-332zM934 771
v-808l-217 65l59 44v699h158z" />
    <glyph glyph-name="uni5224" unicode="&#x5224;" 
d="M348 529h94l-88 55zM334 391h203v-63h-209l-34 -344h-144l35 344h-139v63h145l8 75h-75v63h82l4 47l-84 -31l-63 165l92 35l61 -109l16 153h142l-14 -143l64 113l133 -59l-105 -173v-61h-110zM631 287h-81v322h81v-322zM891 805v-856l-302 76l99 66v714h203z" />
    <glyph glyph-name="uni5228" unicode="&#x5228;" 
d="M706 244h-99v287h99v-287zM296 453v-116h37v116h-37zM492 13l124 107v-149h-506v477l-89 43l111 320l168 -32l-33 -97h278l-10 -482l-156 44l67 21l5 354h-205l-35 -102h204v-243h-119v-261h196zM918 784v-848l-250 71l74 53v724h176z" />
    <glyph glyph-name="uni5229" unicode="&#x5229;" 
d="M300 513h157v-136h-157v-91l27 20l129 -158l-67 -49l-89 127v-301h-81v360l-96 -238l-62 37l119 293h-127v136h166v155l-128 -66l-31 75l325 171l47 -70l-132 -68v-197zM671 132h-170v431h170v-431zM915 736v-828l-285 72l91 61v695h194z" />
    <glyph glyph-name="uni522B" unicode="&#x522b;" 
d="M130 560h151v187h-151v-187zM472 -54l-236 56l74 30l2 304h-98l-10 -385h-88l10 385h-70v63h71l2 88h-66v327h394v-327h-240l-2 -88h263zM613 283h-86v291h86v-291zM915 720v-809l-329 76l108 71v662h221z" />
    <glyph glyph-name="uni522D" unicode="&#x522d;" 
d="M465 173l6 -148l-368 -54l-16 166l120 11v197h-132v63h369v-63h-96v-183zM325 630l186 -106l-73 -101l-185 131l-107 -115h-105l277 294h-259v59h314l23 24h103zM633 231h-82v300h82v-300zM886 768v-837l-269 72l85 57v708h184z" />
    <glyph glyph-name="uni522E" unicode="&#x522e;" 
d="M337 226h-174v-182h174v182zM362 434h159v-63h-159v-70h158v-339h-426v339h186v70h-232v63h232v134l-138 -68l-54 137l305 158l85 -130l-116 -57v-174zM562 525h81v-313h-81v313zM920 809v-856l-246 67l89 55v734h157z" />
    <glyph glyph-name="uni5230" unicode="&#x5230;" 
d="M292 385v-101h168v-63h-168v-69l144 33l19 -126l-370 -106l-30 145l156 36v87h-170v63h170v83l-121 -27l-14 85l25 5q67 94 128 203h-161v136h364v-136h-110q-59 -97 -125 -186l146 27l-24 48l59 29l103 -174l-73 -36l-31 63zM671 199h-170v373h170v-373zM938 754v-818
l-290 76l69 58v684h221z" />
    <glyph glyph-name="uni5233" unicode="&#x5233;" 
d="M489 -85l-235 57l75 26l3 186h-29v-1h-154l5 153h-96v63h437v-63h-182l-6 -89h193zM332 621l177 -128l-47 -65l-55 44v-42h-223v64h196l-126 102l20 25h-37l-89 -206h-84l89 206h-102v136h161l39 90h83l-39 -90h165v-136h-128zM691 205h-165v404h165v-404zM914 747v-828
l-263 71l79 55v702h184z" />
    <glyph glyph-name="uni5236" unicode="&#x5236;" 
d="M571 92l-115 38l40 22v105h-80v-308h-81v308h-62v-163h-146v227h208v49h-258v63h258v182h-69l-29 -172l-152 46l54 301l156 -5l-18 -107h58v98h81v-98h67v-63h-67v-182h134v-63h-134v-49h155v-229zM729 317h-142v309h142v-309zM878 756v-837l-162 54l68 35v748h94z" />
    <glyph glyph-name="uni5237" unicode="&#x5237;" 
d="M171 752l-3 -110h193v110h-190zM166 578l-14 -613h-76l21 850h345v-237h-276zM455 233v181h-33v-200zM539 170l-117 37v-225h-114v432h-48v-241h-81v304h129v73h113v-73h118v-307zM565 583h137v-348h-137v348zM928 782v-837l-143 53l58 31v753h85z" />
    <glyph glyph-name="uni5238" unicode="&#x5238;" 
d="M288 379h375q-43 38 -87 84h-238zM623 463q172 -72 329 -82q-13 -76 -57 -142q-58 20 -117 55v-367l-266 59l75 33l-2 296h-133l-88 -390h-79l89 390h-110v22l-80 -136h-92l156 262h-197v63h234l62 104h-119v63h157l19 33l-66 -30l-49 107l76 37l58 -83l33 56h87
l-70 -120h64l-29 52l120 82l73 -85l-76 -49h67v-63h-256l-61 -104h521v-63h-273z" />
    <glyph glyph-name="uni5239" unicode="&#x5239;" 
d="M216 212l-69 -226l-91 36l81 222zM402 294v-379l-225 52l68 40v287h-187v61h187v99l-63 -53l-99 144l134 116l-143 114l56 66l159 -118l104 91l132 -125l-89 -75l81 -60l-62 -83l-97 78l-90 -76h134v-118h98v-61h-98zM501 277l74 -193l-107 -26l-51 198zM544 559h170
v-368h-170v368zM899 707v-789l-157 54l63 33v702h94z" />
    <glyph glyph-name="uni523A" unicode="&#x523a;" 
d="M696 229h-174v350h174v-350zM364 529v-190l39 20v170h-39zM389 264l147 -119l-61 -75l-111 107v-200h-165v208l-85 -154l-75 43l160 296v159h-56v-231h-82v294h137v66h-147v63h147v105h174v-105h57v-63h-57v-66h115v-297l-123 38v-98zM953 710v-780l-279 72l67 55v653
h212z" />
    <glyph glyph-name="uni523B" unicode="&#x523b;" 
d="M669 223h-165v363h165v-363zM45 120l182 274l-149 -28l-10 69l35 5q62 110 115 230h-152v63h160l-34 68l61 32l60 -85l-30 -15h170v-63h-138q-57 -113 -118 -216l78 12l59 88l80 -40l-300 -443zM370 224l210 -149l-98 -130l-189 165l-122 -179l-69 49l280 420l80 -40z
M932 782v-866l-311 78l99 69v719h212z" />
    <glyph glyph-name="uni523D" unicode="&#x523d;" 
d="M698 235h-184v337h184v-337zM98 399h-81l245 404h78l-67 -112l237 -175l-37 -64l-232 186l-98 -164h260v-63h-269v48zM428 202l97 -200l-70 -28l-25 61l-194 -35l-1 -2l-5 1l-147 -26l-9 69l29 5q43 116 76 252h-106v63h391v-63h-113q-42 -128 -84 -227l139 21l-35 86z
M937 761v-809l-313 75l101 67v667h212z" />
    <glyph glyph-name="uni523F" unicode="&#x523f;" 
d="M172 490h-55v226h137v-153h34v277h81v-277h34v159h146v-254h-146v21h-231v1zM455 432h110l-274 -507h-115l123 223l-82 56l48 86l89 -42l49 90h-130l-99 -193h-131l172 328h127l-31 -61h133zM583 510h161v-301h-161v301zM908 751v-799l-157 54l63 33v712h94z" />
    <glyph glyph-name="uni5240" unicode="&#x5240;" 
d="M425 281h-24v-1h-143v-144l138 35l25 -139l-347 -112l-37 161l35 9v253h211v88h-201v63h343v-213zM380 770h81v-259h-81v21h-319v245h81v-182h45v240h146v-240h47v175zM672 154h-169v450h169v-450zM926 809v-915l-305 80l102 71v764h203z" />
    <glyph glyph-name="uni5241" unicode="&#x5241;" 
d="M239 411h-174l13 399l365 1v-335h129v-44h-207v317h-115zM458 223l162 -153l-71 -61l-124 136v-236h-179v264l-107 -179h-98l162 268h-112v61h155v77h179v-77h125v-61h-125v-66zM590 543h165v-378h-165v378zM904 797v-886l-144 58l50 30v798h94z" />
    <glyph glyph-name="uni5242" unicode="&#x5242;" 
d="M342 659h-163l92 -52zM344 722h161v-63h-86l40 -45l-88 -63l129 -73l-70 -97l-19 12v-452h-86v481h40l-91 58l-133 -96h104l-11 -398h-123l11 384l-27 -19l-52 88l137 101l-73 46l62 73h-101v63h160l-16 87l123 33l59 -108zM673 210h-160v318h160v-318zM922 747v-819
l-294 74l91 62v683h203z" />
    <glyph glyph-name="uni5243" unicode="&#x5243;" 
d="M129 341h98v135h-97zM309 539h88v118h-88v-118zM545 -19l-234 51l70 29l-2 217h-70v-352h-82v223l-114 -186l-60 51l161 264l-159 -1v262h172v118h-160v63h103l-27 90l61 20l48 -100l-34 -10h55l-18 13l68 92l61 -30l-52 -75h146v-244h-169v-135h237zM712 258h-142v304
h142v-304zM922 744v-828l-247 68l81 52v708h166z" />
    <glyph glyph-name="uni524A" unicode="&#x524a;" 
d="M325 276v89h-150v-89h150zM154 586h95v43zM339 641v-55h70zM175 428h150v95h-150v-95zM549 711l-91 -125h69v-636l-277 61l75 50v151h-150v-227h-109v601h72l-64 138l96 46l79 -115v154h90v-139l77 113zM690 275h-91v272h91v-272zM928 720v-799l-295 72l93 62v665h202z
" />
    <glyph glyph-name="uni524C" unicode="&#x524c;" 
d="M115 423h79v92h-79v-92zM372 515h-51v-92h51v92zM521 152v5l-56 -56l-144 157v-335h-128v294l-81 -172l-65 43l122 260h-106v236h129v60h-134v63h134v118h128v-118h98v-63h-98v-60h167v-236h-166v-35l25 24l175 -170v429h151v-444h-151zM927 725v-799l-279 73l67 55v671
h212z" />
    <glyph glyph-name="uni524D" unicode="&#x524d;" 
d="M229 290v87h-69v-87h69zM160 529v-89h69v89h-69zM423 -73l-267 62l73 50v187h-69v-188h-82v554h345v-665zM699 585h193v-683l-285 63l92 56v564zM659 150h-179v351h179v-351zM917 709v-63h-842v63h210l-49 111l112 49l92 -128l-78 -32h177l-40 25l94 145l129 -48
l-72 -122h267z" />
    <glyph glyph-name="uni5250" unicode="&#x5250;" 
d="M365 183v154h-83l-25 -72zM141 137l69 200h-69v-200zM197 544h122v207h-122v-207zM540 -82l-246 49l71 41v148l-28 -38l-100 87l-28 -82h-68v-186h-81v463h149v68h-79v353h365v-353h-205v-68h250v-482zM727 188h-132v411h132v-411zM929 764v-847l-246 67l88 54v726h158z
" />
    <glyph glyph-name="uni5251" unicode="&#x5251;" 
d="M504 163l16 -106l-449 -129l-26 124l264 64l11 40l-81 -6l-16 235l95 7l26 -147l43 156l128 -26l-64 -225zM239 129l-119 -32l-44 234l94 26zM312 723l222 -114l-63 -118l-216 133l-78 -135h255v-64h-260v56l-39 -67h-117l239 403h112zM648 153h-82v426h82v-426zM916 780
v-876l-322 79l111 74v723h211z" />
    <glyph glyph-name="uni5254" unicode="&#x5254;" 
d="M271 591v41h-121v-41h121zM150 730v-37h121v37h-121zM447 524h-364v268h364v-268zM521 -68l-247 57l74 33l-1 126l-120 -170l-80 59l166 241l34 -18l-1 139h-89l63 -31l-179 -265l-75 53l159 243h-81l-17 -105l-78 23l33 190l79 -5l-7 -40h367v-530zM646 231h-81v308h81
v-308zM886 741v-818l-261 70l76 55v693h185z" />
    <glyph glyph-name="uni5256" unicode="&#x5256;" 
d="M172 231v-220h93v220h-93zM449 303v-371h-346v371h346zM262 472l-75 -19l-40 160l59 16zM252 697h231v-63h-120l57 -15l-62 -166h123v-63h-415v63h242l-34 13l60 168h-284v63h175l-40 106l63 25l61 -110zM665 153h-165v373h165v-373zM924 685v-770l-316 73l95 65v632h221
z" />
    <glyph glyph-name="uni525C" unicode="&#x525c;" 
d="M488 262l-1 139h-27v-148zM582 205l-122 31v-112l89 29l13 -117l-230 -99l-38 133l30 10v336l-143 -481h-81l77 257l-52 39l49 86l36 -17l23 76h-55l-66 -155h-84l105 244h-75v204l174 -1l-18 145l125 23l58 -150l-109 -18h282v-164h-147v101h-283v-123l22 51h82l-41 -98
h48l6 21h67v9h258v-260zM698 253h-81v277h81v-277zM928 764v-847l-270 72l86 58v717h184z" />
    <glyph glyph-name="uni525E" unicode="&#x525e;" 
d="M427 490h127v-63h-65v-505l-266 51l73 45v409h-243v63h359l-142 108l-63 -96h-148l126 186h-101v63h144l55 81h141l-53 -81h132v-63h-126l149 -89zM162 299h-43v-99h43v99zM262 124h-191v244h191v-244zM733 205h-160v368h160v-368zM907 800v-895l-188 65l58 39v791h130z
" />
    <glyph glyph-name="uni5261" unicode="&#x5261;" 
d="M692 194h-151v331h151v-331zM126 571l-92 95l47 53l75 -61l4 126h160l-3 -96l73 66l66 -59l-108 -94l-32 44l-3 -85l30 38l159 -118l-54 -73l-136 119l-3 -95h-160l5 173zM372 166l193 -130l-53 -79l-162 125l-3 -111h-159l6 197l-20 -30l-117 94l37 53l102 -66l3 105
h159l-2 -61l95 61l55 -67l-131 -80l-20 40l-3 -78zM934 729v-799l-268 71l75 54v674h193z" />
    <glyph glyph-name="uni5265" unicode="&#x5265;" 
d="M213 296v41l-28 -59zM397 302l178 -121l-44 -66l-134 104v-274l-261 55l77 46v171l-125 -92l-33 69l120 77l-118 69l30 57l126 -58v145h-138v63h344v74h-325v63h324v63h-331v64h429l-3 -264h40v-63h-156v-152l83 107l77 -47l-98 -121l-62 54v-23zM658 240h-81v349h81
v-349zM912 765v-856l-303 76l101 67v713h202z" />
    <glyph glyph-name="uni5267" unicode="&#x5267;" 
d="M450 151h-149v-114h149v114zM248 716l-3 -155h178v155h-175zM442 216h100v-250h-286v250h104v104h-121l-9 -361h-175l21 820h428v-281h-261l-3 -115h120v78h82v-78h75v-63h-75v-104zM707 230h-161v318h161v-318zM941 715v-779l-268 70l65 53v656h203z" />
    <glyph glyph-name="uni5269" unicode="&#x5269;" 
d="M154 264l-87 -28l-15 74l102 25v43h-86v64h86v62h81v-282h-81v42zM360 214l185 -122l-65 -80l-142 112v-165h-82v131l-81 -86l-59 64l140 153v325h-175v63h175v56l-83 -50l-30 63l209 130l45 -58l-59 -36v-105h112v-63h-112v-357zM585 356h-36v43l-93 -50v-76h60z
M588 356v-112h-224v267h92v-97l62 35l31 -43v184h127v-234h-88zM905 712v-780l-257 70l64 50v660h193z" />
    <glyph glyph-name="uni526A" unicode="&#x526a;" 
d="M871 312l-50 -407l-308 100l109 32l21 211h-82l-155 -330h-208l162 330h-220v63zM387 471v21h-130v-21h130zM257 572v-24h130v24h-130zM387 393v21h-130v-65h-81v282h377v-309l-230 39zM586 598h81v-168h-81v168zM642 374l52 31v213h166v-280zM884 718v-64h-800v64h206
l-34 90l106 39l72 -100l-89 -29h184l-50 34l68 96l115 -48l-51 -82h273z" />
    <glyph glyph-name="uni526F" unicode="&#x526f;" 
d="M465 713h-369v63h369v-63zM171 521h89v103h-89v-103zM108 684h313v-227h-313v227zM142 280v-77h79v77h-79zM357 280h-55v-77h55v77zM357 68v71h-55v-71h55zM142 68h79v71h-79v-71zM495 342v-341h-410v341h410zM649 205h-114v343h114v-343zM882 794v-876l-239 70l73 51
v755h166z" />
    <glyph glyph-name="uni5272" unicode="&#x5272;" 
d="M179 465h-123v262h221l-37 82l65 31l65 -97l-35 -16h171v-118h-81v54h-246v-198zM338 182h-104v-178h104v178zM402 241h112v-301h-347v301h70v69h-160v64h160v45h-42v63h42v44h-38v63h38v48h165v-48h79v-63h-79v-44h62v-63h-62v-45h94v-64h-94v-69zM709 158h-169v373h169
v-373zM944 729v-809l-286 71l93 61v677h193z" />
    <glyph glyph-name="uni527D" unicode="&#x527d;" 
d="M660 181h-146v371h146v-371zM378 631h-35v-125h35v125zM136 506h30v125h-30v-125zM239 688h32v38h-32v-38zM238 631v-125h34v125h-34zM470 444h-380v244h77v38h-75v63h350v-63h-99v-38h127v-244zM124 332v63h273v-63h-273zM369 242v-304l-215 39l58 33v185l-54 -185
l-73 28l65 184l62 -19v39h-131v64h401v-64h-113zM442 228l86 -141l-72 -36l-72 147zM873 692v-761l-250 66l75 50v645h175z" />
    <glyph glyph-name="uni527F" unicode="&#x527f;" 
d="M365 754l25 -13l87 80l50 -42l-75 -70l96 -50l-34 -65l-179 108zM545 572h170v-431h-170v431zM237 725l65 69l52 -36l-58 -65l84 -46l-42 -61l-155 101l37 48zM136 328h106v60h-106v-60zM136 506v-54h106v54h-106zM437 506h-58v-54h58v54zM437 328v60h-58v-60h58z
M428 143l136 -90l-50 -62l-121 96v-133h-165v92l-83 -79l-54 68l119 117h-165v63h183v54h-129v291h93l-153 104l34 51l19 -12l105 134l58 -30l-106 -138l128 -78l-19 -31h241v-291h-106v-54h112v-63h-112v-50zM918 780v-856l-218 68l61 45v743h157z" />
    <glyph glyph-name="uni5281" unicode="&#x5281;" 
d="M340 651h-129v-322h129v78h-95v63h95v59h-58v63h58v59zM130 607l-55 -52l-41 62l220 208l59 -44l-70 -66h125l-28 67l58 26l49 -74l-45 -19h127v-64h-57v-59h61v-63h-61v-59h64v-63h-64v-78h62v-63h-323v-49h-81v390zM103 183l72 -9l-7 -176l-82 14zM270 199l29 -174
l-86 -7l-10 175zM374 181l34 -150l-84 -10l-15 151zM487 204l50 -183l-83 -15l-32 185zM703 260h-142v276h142v-276zM893 751v-828l-217 66l60 44v718h157z" />
    <glyph glyph-name="uni5282" unicode="&#x5282;" 
d="M157 712l-18 -756h-76l21 820h480v-64h-407zM336 269v19h-24l-23 -232h-75l24 232h-70v161h53v-97h20v118h-82v63h37l-32 97l51 24l51 -108l-30 -13h59l-24 29l72 73l54 -44l-59 -58h35v-63h-60v-118h23v105h38l36 183l58 -7l-12 -61h109l6 23l61 -24q-1 -8 -32 -76
q-31 -67 -32 -76l-54 13q0 4 27 77h-97l-19 -95l-31 11v-156h-58zM486 348q87 -121 235 -207q-57 -68 -133 -105q-79 96 -116 252l-55 -244h-63l100 445h63l-32 -141h1zM640 652h146v-408h-146v408zM919 783v-827l-130 52l54 27v748h76z" />
    <glyph glyph-name="uni5288" unicode="&#x5288;" 
d="M226 751l-5 -87h135v87h-130zM205 355h-125l24 459h333v-213h-219zM288 515v-129h53v129h-53zM447 564v-231h-209v231h209zM895 -89l-265 57l75 32l-2 244h-185l-26 -326h-186l27 326h-175v63h738zM692 700l55 33h-95l34 -46l-29 -13h48zM918 733h-127l35 -44l-27 -15h96
v-63h-105v-42h114v-63h-114v-133h-151v133h-172v63h172v42h-136v63h101l-21 47l24 12h-122v64h165l-15 32l59 25l43 -50l-17 -7h198v-64z" />
    <glyph glyph-name="uni5290" unicode="&#x5290;" 
d="M257 91l57 51h-152zM509 220l-183 -165l129 -69l-48 -71l-142 84l-92 -83h-110l135 122l-98 58l38 46h-69v59h310l21 19h109zM202 298h90v28h-75v53h75v27h-65v52h65v26h-82v24l-8 -7v-203zM406 298h121v-52h-325v-21h-81v215l-55 -42l-34 63l193 146l-69 -11l-7 101h-91
v64h86l-4 60l98 17l15 -77h73l14 81l104 -1l-13 -80h82v-64h-93l-17 -100l-102 20l14 80h-49l16 -80l-28 -5l42 -39l-47 -36h80l-21 48l52 20l42 -61l-19 -7h108v-53h-85v-26h61v-52h-61v-27h88v-53h-88v-28zM703 181h-151v412h151v-412zM931 746v-828l-241 68l75 51v709
h166z" />
    <glyph glyph-name="uni5293" unicode="&#x5293;" 
d="M342 502v18h-176v-18h176zM166 582v-21h176v21h-176zM166 641v-17h176v17h-176zM495 454h-389v232h67l-28 10l52 125l131 -22l-42 -113h209v-232zM366 289v30h-65v-30h65zM153 289h67v30h-67v-30zM153 390v-23h67v23h-67zM366 390h-65v-23h65v23zM519 241h-426v194h426
v-194zM83 223h437v-64h-61v-202h-133v202h-44l-41 -201h-139l42 201h-61v64zM661 218h-95v328h95v-328zM887 819v-886l-243 72l76 52v762h167z" />
    <glyph glyph-name="uni529B" unicode="&#x529b;" 
d="M895 -91l-327 79l83 47l-3 544h-171l-16 -639h-210l16 639h-180v64h181l5 192h210l-5 -192h417v-734z" />
    <glyph glyph-name="uni529D" unicode="&#x529d;" 
d="M296 396l153 -171l-117 -113l-102 129l-63 -144h-86l94 214l-128 161l99 92l94 -105l53 122h-240v59h266l10 23h83zM918 -43l-239 60l76 35l-2 538h-168l-15 -580h-75l15 580h-95v63h96l4 147h75l-4 -147h332v-696z" />
    <glyph glyph-name="uni529E" unicode="&#x529e;" 
d="M263 452l-54 -269l-159 45l73 256zM802 200l-58 218l-34 -457l-214 72l87 27l35 502h-117l-59 -582h-181l61 582h-164v64h170l17 159h178l-16 -159h252l-13 -180l103 36l94 -234z" />
    <glyph glyph-name="uni529F" unicode="&#x529f;" 
d="M370 280l16 -61l-297 -163l-25 71l88 44v393h-88v136h292v-136h-123v-352zM931 -36l-287 68l79 39l-2 468h-149l-13 -514h-75l13 514h-121v63h123l4 167h75l-4 -167h358z" />
    <glyph glyph-name="uni52A0" unicode="&#x52a0;" 
d="M263 70l-2 518h-55l-14 -550zM435 652l-1 -679l-242 60l-1 -46h-75l15 601h-92v63h94l3 126h75l-3 -126zM756 525h-204v-366h204v366zM939 75h-455v526h455v-526z" />
    <glyph glyph-name="uni52A1" unicode="&#x52a1;" 
d="M344 673q65 -26 111 -41l73 70h-163zM851 -89l-327 67l82 39l-2 261h-117l-24 -312h-104l24 312h-130v41l-35 -34h-123l306 295q-26 21 -76 67l-103 -141l-61 61l211 289l76 -40l-32 -44h184l16 15h121l-189 -183q158 -42 322 -45q-17 -116 -79 -207q-159 51 -323 175
l-192 -186h111l8 99h104l-8 -99h360v-430z" />
    <glyph glyph-name="uni52A2" unicode="&#x52a2;" 
d="M354 -24l-146 45l68 18l12 315h-102l-23 -301h-83l41 543h-80v136h320v-136h-157l-14 -179h184zM920 -31l-238 59l75 33l-2 467h-177l-26 -521h-90l27 521h-124v63h127l8 161h89l-8 -161h339v-622z" />
    <glyph glyph-name="uni52A3" unicode="&#x52a3;" 
d="M769 592l-146 148l45 49l155 -135zM233 524l-81 35l86 214l71 -25zM790 -58l-243 87l100 24l31 224h-139l-113 -325h-91l114 325h-191v21l-116 -61l-31 75l317 169h-43v364h165v-299l120 64l48 -71l-380 -199h133l21 59h89l-20 -59h292z" />
    <glyph glyph-name="uni52A8" unicode="&#x52a8;" 
d="M369 668h-324v63h324v-63zM386 280l84 -213l-68 -21l-17 51l-288 -53l-10 75l27 4q30 175 41 353h-89v64h337v-64h-74q-19 -145 -62 -330l98 14l-34 103zM921 17l-247 59l75 33l-2 412h-129l-11 -444h-75l11 444h-126v64h128l3 117h74l-3 -117h303z" />
    <glyph glyph-name="uni52A9" unicode="&#x52a9;" 
d="M180 146l137 21v215h-137v-236zM317 681h-137v-107h137v107zM180 445h137v66h-137v-66zM473 191l105 16l-1 -71l-531 -93l-9 81l62 10v610h23v1l351 -1v-553zM918 14l-254 78l89 32l24 441h-82l-36 -480h-75l36 480h-113v63h118l6 82h75l-6 -82h254z" />
    <glyph glyph-name="uni52AA" unicode="&#x52aa;" 
d="M429 399l122 158q-55 66 -104 137l22 13q76 -47 139 -77l72 93h-247v59h292l15 19h86l-154 -200q124 -52 255 -76q-36 -114 -114 -193q-108 57 -215 172l-81 -105h-88zM233 496l61 87h-95l-16 -52zM819 -77l-245 53l72 29l-2 217h-120l-31 -300h-209l33 300h-218v64h225
l9 84l-15 -22l-69 53l-50 -72h-83l80 114l-64 50l-28 10l25 80h-62v136h104l29 95l68 -7l-27 -88h172v-136h-37l-87 -125l71 -48l-20 -29h201l-10 -95h289z" />
    <glyph glyph-name="uni52AB" unicode="&#x52ab;" 
d="M401 255l130 -228l-109 -59l-35 76l-282 -72l-17 96l36 8q53 152 88 284h-145v61h139v180h-148v61h148v162h146v-162h102v-61h-102v-180h125v-61h-186q-43 -142 -92 -268l151 32l-37 82zM933 -72l-248 61l77 35l-2 503h-102l-13 -538h-81l13 538h-145v61h147l3 131h81
l-3 -131h274z" />
    <glyph glyph-name="uni52AC" unicode="&#x52ac;" 
d="M435 -36l-230 59l77 34l-2 586h-138l-52 -207l-68 29l81 321l72 -11l-17 -69h277v-742zM188 351h-64v-134h64v134zM242 141h-154v279h154v-279zM935 -22l-248 60l76 33l-2 439h-138l-12 -511h-75l13 511h-92v63h93l4 141h74l-3 -141h310v-595z" />
    <glyph glyph-name="uni52AD" unicode="&#x52ad;" 
d="M248 551l7 164h-43l-28 -186zM137 715h-72v63h360v-1h26l-20 -323l-249 63l-7 -46h-75zM123 310v-261h190v261h-190zM511 385v-417h-461v417h461zM920 -49l-150 47l72 19l15 487h-93l-26 -533h-163l28 533h-112v64h115l13 254h161l-13 -254h175z" />
    <glyph glyph-name="uni52B1" unicode="&#x52b1;" 
d="M531 383v-400l-134 37l60 18l-1 281h-91l-7 -288h-74l12 453h-60l-12 -519h-147l20 790l452 -1v-63h-308l-3 -144h248v-63h-117l-2 -102zM917 -80l-230 61l77 34l3 584h-98l-15 -601h-75l15 601h-83v63h85l2 81h74l-2 -81h253z" />
    <glyph glyph-name="uni52B2" unicode="&#x52b2;" 
d="M410 169l8 -103l-300 -90l-24 118l71 17v196h-89v64h278v-64h-52v-164zM254 625l176 -103l-55 -92l-176 122l-75 -100h-95l204 269h-169v60h214l9 12h93zM934 -44l-257 62l76 34l-2 429h-119l-12 -491h-74l12 491h-95v63h96l3 115h75l-3 -115h301z" />
    <glyph glyph-name="uni52B3" unicode="&#x52b3;" 
d="M285 702h-185v64h180l-6 75l112 8l19 -83h133l15 85l127 -1l-14 -84h226v-64h-236l-17 -107l-126 24l14 83h-108l17 -75l-145 -11zM800 -95l-276 60l77 35l-2 304h-180l-8 -339h-73l8 339h-179v64h181l3 116h73l-3 -116h380zM951 382h-81v140h-744v-181h-81v245h906v-204
z" />
    <glyph glyph-name="uni52BE" unicode="&#x52be;" 
d="M58 155l185 233l-166 -18l-5 59l27 2q61 94 127 221h-142v64h171l-29 87l64 23l49 -88l-64 -22h182v-64h-147q-55 -102 -131 -215l109 9l79 99l65 -40l-320 -398zM375 218l186 -151l-108 -124l-166 166l-137 -171l-54 48l321 404l64 -40zM928 -60l-247 60l75 34l-2 457
h-111l-13 -527h-68l13 527h-112v63h114l3 140h68l-3 -140h284z" />
    <glyph glyph-name="uni52BF" unicode="&#x52bf;" 
d="M251 453l-139 -15l-6 70l145 12v94h-148v136h148v85h75v-85h110v-136h-110v-88l103 8l1 -62l-104 -11v-125l-130 45l55 25v47zM715 -101l-242 81l95 25l23 210h-163l-65 -291h-96l67 291h-159v63h173l28 121h93l-27 -121h322zM899 511v-101h-204l25 244h-67l-5 -98
l52 -13l-20 -66l-36 11l-5 -96h-161l8 143l-66 20l21 53l48 -12l4 58h-49v53h52l5 99h160l-5 -99h147l-22 -254h69z" />
    <glyph glyph-name="uni52C3" unicode="&#x52c3;" 
d="M514 522v-174h-104v38l-65 -87h7v-41l140 1l-4 -68l-136 -4v-230l-165 40l44 28v158l-140 -4l-1 77l141 1v42h22q6 12 33 57h-99v63h136q10 18 10 20l77 -40v59h-247v-124h-99v187h181v92h-101v136h101v59h81v-59h106v-136h-106v-92zM911 -54l-202 61l80 26l18 474h-76
l-55 -553h-144l57 553h-73v64h79l21 203h142l-20 -203h199z" />
    <glyph glyph-name="uni52C7" unicode="&#x52c7;" 
d="M822 -84l-234 50l69 26l-1 137h-149l-7 -219h-167l7 219h-197v63h199l3 86h166l-3 -86h314v-276zM740 427v49h-217v-49h217zM442 427v49h-205v-49h205zM237 587v-47h205v47h-205zM740 587h-217v-47h217v47zM910 269h-170v95h-217v-76h-81v76h-205v-90h-165v377h375
l-75 37l37 59l98 -39l68 48h-406v63h495q20 14 33 24l56 -68q0 -2 -169 -98l24 -10l-9 -16h311v-382z" />
    <glyph glyph-name="uni52C9" unicode="&#x52c9;" 
d="M536 548h-66v63h70l6 130h82l-6 -130h252l-1 -551l-257 60l76 35l-2 393h-72l-25 -507h-82zM151 404l26 116h-57v-116h31zM114 584h73l64 101h-79zM308 520h-52l-26 -116h78v116zM968 97v-150h-750v387h-4l-86 -384h-80l87 384h-74v250h44l-60 47l123 213l78 -32l-37 -63
h81q13 21 13 23l81 -47q0 -3 -99 -141h169v-250h-55v-346h434z" />
    <glyph glyph-name="uni52CB" unicode="&#x52cb;" 
d="M266 713h-97v-116h97v116zM434 527h-330v250h330v-250zM126 183h-81v299h449v-295h-147v232h-221v-236zM357 -50l-130 151l-53 -152h-124l148 416h121l-65 -187l55 37l185 -169zM934 -66l-283 80l89 37l16 448h-49l-69 -546h-153l71 546h-74v63h82l25 196h150l-25 -196
h246z" />
    <glyph glyph-name="uni52D0" unicode="&#x52d0;" 
d="M193 556h-117v63h117v96h79l65 62h-227v63h293q29 27 29 29l78 -68q-1 -3 -151 -115v-67h136v-63h-136v-204l-224 41l58 34v129zM159 8l31 2v254h-31v-256zM300 264h-34v-248l34 3v245zM409 264h-32v-239l32 3v236zM515 36l5 -67l-479 -47l-5 76l42 3v327h412v-294z
M923 -90l-267 64l77 37l-2 471h-82l-13 -537h-82l14 537h-95v63h96l4 145h81l-4 -145h274z" />
    <glyph glyph-name="uni52D2" unicode="&#x52d2;" 
d="M200 335h36v98h-36v-98zM392 433h-38v-98h38v98zM247 699v-131h107v131h-107zM355 229h181v-63h-181v-227h-119v227h-187v63h187v56h-79v196h79v23h-70v195h-95v63h95v51h81v-51h107v56h81v-56h50v-63h-50v-195h-80v-23h121v-196h-121v-56zM903 -82l-238 59l75 34l-2 502
h-89l-28 -565h-76l29 565h-113v64h116l5 101h75l-5 -101h251v-659z" />
    <glyph glyph-name="uni52D6" unicode="&#x52d6;" 
d="M171 438v-101h81v101h-81zM252 -11v122h-81v-122h81zM171 174h81v99h-81v-99zM420 494v-565h-313v565h313zM371 680h-192v63h192v-63zM183 575v63h183v-63h-183zM442 839h32v-308h-81v245h-241v-250h-82v313h30v1h342v-1zM915 -81l-268 65l78 37l-2 480h-72l-29 -575h-90
l29 575h-68v63h71l9 182h90l-9 -182h262z" />
    </font>
</defs>
</svg>
