<?xml version="1.0" standalone="no"?>
<!DOCTYPE svg PUBLIC "-//W3C//DTD SVG 1.1//EN" "http://www.w3.org/Graphics/SVG/1.1/DTD/svg11.dtd" >
<svg xmlns="http://www.w3.org/2000/svg" xmlns:xlink="http://www.w3.org/1999/xlink" version="1.1">
<metadata>
Created by FontForge 20201107 at Sun Sep 27 02:00:32 2020
 By www-data
Copyright (c) Beijing Tsanger Character Technology Co., Ltd.. All rights reserved.
</metadata>
<defs>
<font id="TsangerYuYangT-W03" horiz-adv-x="1000" vert-adv-y="1000" >
  <font-face 
    font-family="TsangerYuYangT W03"
    font-weight="400"
    font-stretch="normal"
    units-per-em="1000"
    panose-1="2 2 4 0 0 0 0 0 0 0"
    ascent="880"
    descent="-120"
    x-height="566"
    cap-height="754"
    bbox="-5 -209 992 887"
    underline-thickness="50"
    underline-position="-100"
    unicode-range="U+0001-FFE5"
  />
<missing-glyph horiz-adv-x="500" 
 />
    <glyph glyph-name=".notdef" horiz-adv-x="500" 
 />
    <glyph glyph-name="uni0001" horiz-adv-x="250" 
 />
    <glyph glyph-name="uni0001" unicode=" " horiz-adv-x="250" 
 />
    <glyph glyph-name="uni0001" horiz-adv-x="250" 
 />
    <glyph glyph-name="uni0001" horiz-adv-x="250" 
 />
    <glyph glyph-name="uni0001" horiz-adv-x="250" 
 />
    <glyph glyph-name="uni0001" horiz-adv-x="250" 
 />
    <glyph glyph-name="uni0001" horiz-adv-x="250" 
 />
    <glyph glyph-name="uni0001" horiz-adv-x="250" 
 />
    <glyph glyph-name="uni0001" horiz-adv-x="250" 
 />
    <glyph glyph-name="uni0001" horiz-adv-x="250" 
 />
    <glyph glyph-name="uni0001" horiz-adv-x="250" 
 />
    <glyph glyph-name="uni0001" horiz-adv-x="250" 
 />
    <glyph glyph-name="uni0001" horiz-adv-x="250" 
 />
    <glyph glyph-name="uni0001" horiz-adv-x="250" 
 />
    <glyph glyph-name="uni0001" horiz-adv-x="250" 
 />
    <glyph glyph-name="uni0001" horiz-adv-x="250" 
 />
    <glyph glyph-name="uni0001" horiz-adv-x="250" 
 />
    <glyph glyph-name="uni0001" horiz-adv-x="250" 
 />
    <glyph glyph-name="uni0001" horiz-adv-x="250" 
 />
    <glyph glyph-name="uni0001" horiz-adv-x="250" 
 />
    <glyph glyph-name="uni0001" unicode="&#xd;" horiz-adv-x="250" 
 />
    <glyph glyph-name="uni0001" horiz-adv-x="250" 
 />
    <glyph glyph-name="uni0001" horiz-adv-x="250" 
 />
    <glyph glyph-name="uni0001" unicode="&#xa;" horiz-adv-x="250" 
 />
    <glyph glyph-name="uni0001" unicode="&#x9;" horiz-adv-x="250" 
 />
    <glyph glyph-name="uni0001" horiz-adv-x="250" 
 />
    <glyph glyph-name="uni0001" horiz-adv-x="250" 
 />
    <glyph glyph-name="uni0001" horiz-adv-x="250" 
 />
    <glyph glyph-name="uni0001" horiz-adv-x="250" 
 />
    <glyph glyph-name="uni0001" horiz-adv-x="250" 
 />
    <glyph glyph-name="uni0001" horiz-adv-x="250" 
 />
    <glyph glyph-name="uni0001" horiz-adv-x="250" 
 />
    <glyph glyph-name="uni0001" horiz-adv-x="250" 
 />
    <glyph glyph-name="exclam" unicode="!" horiz-adv-x="267" 
d="M147 107l-33 23l-6 -24l-12 75l11 50l3 203l40 -14l14 60l23 -72l5 -2z" />
    <glyph glyph-name="quotedbl" unicode="&#x22;" horiz-adv-x="432" 
d="M341 458h-67l-20 353h107zM152 458h-68l-20 353h108z" />
    <glyph glyph-name="numbersign" unicode="#" horiz-adv-x="596" 
d="M386 484h-160l-22 -174h160zM451 484l-22 -174h119v-63h-127l-31 -247h-65l31 247h-160l-31 -247h-66l32 247h-99v63h107l22 174h-103v63h111l28 217h65l-28 -217h160l28 217h65l-28 -217h115v-63h-123z" />
    <glyph glyph-name="dollar" unicode="$" horiz-adv-x="621" 
d="M344 74q144 13 147 129q2 103 -145 134h-2v-263zM267 671q-59 -9 -91 -45q-29 -31 -29 -73q-1 -85 120 -115v233zM344 421q18 -4 26 -5q215 -36 210 -200q-3 -89 -61 -142q-61 -58 -175 -65v-128h-77v130q-127 13 -218 118l63 44q66 -80 155 -96v273q-211 44 -209 199
q1 76 52 126q55 55 157 64v126h77v-126q133 -12 216 -93l-54 -57q-65 70 -162 83v-251z" />
    <glyph glyph-name="percent" unicode="%" horiz-adv-x="781" 
d="M509 87q26 -45 60 -45q33 0 57 44q27 47 27 121q0 69 -27 117q-25 45 -59 45q-37 0 -61 -47t-24 -116q0 -71 27 -119zM456 355q45 61 109 61q69 0 115 -63q43 -59 43 -144q0 -94 -43 -154q-44 -60 -110 -60q-67 0 -113 61q-45 61 -45 150t44 149zM193 -5h-70l463 809h69z
M140 471q26 -45 60 -45q33 0 58 43q26 47 26 121q0 70 -27 118q-25 45 -59 45q-37 0 -61 -48q-24 -47 -24 -116q0 -70 27 -118zM87 738q45 61 109 61q69 0 115 -63q43 -59 43 -144q0 -94 -43 -154q-44 -60 -110 -60q-67 0 -113 61q-45 61 -45 150t44 149z" />
    <glyph glyph-name="ampersand" unicode="&#x26;" horiz-adv-x="735" 
d="M383 690q-25 33 -75 37q-48 4 -77 -34q-27 -35 -25 -86q5 -80 52 -144q125 46 141 148q8 48 -16 79zM239 362q-43 -20 -74 -62q-31 -43 -32 -84q-4 -128 118 -150q115 -19 190 68q-116 103 -202 228zM655 -13q-75 38 -156 99q-95 -102 -255 -83q-93 11 -145 66
q-52 54 -52 138q-1 145 144 220q-61 103 -61 181q-1 73 45 122q50 54 135 48q83 -5 126 -55q40 -49 32 -122q-17 -139 -168 -200q72 -114 188 -205q67 93 105 221l78 -30q-50 -140 -123 -236q75 -56 150 -91z" />
    <glyph glyph-name="quotesingle" unicode="'" horiz-adv-x="490" 
d="M172 489h-68l-20 315h108z" />
    <glyph glyph-name="parenleft" unicode="(" horiz-adv-x="430" 
d="M394 826q-169 -215 -169 -443q0 -220 170 -447l-36 -25q-223 199 -223 472q0 263 223 469z" />
    <glyph glyph-name="parenright" unicode=")" horiz-adv-x="430" 
d="M51 -64q169 219 169 444q0 222 -171 446l37 26q222 -199 222 -472q0 -264 -222 -469z" />
    <glyph glyph-name="asterisk" unicode="*" horiz-adv-x="477" 
d="M300 509l86 -96l-78 -56l-70 119l-68 -118l-78 56l85 95l-126 27l29 91l122 -54l-13 127h96l-13 -127l123 54l29 -91z" />
    <glyph glyph-name="plus" unicode="+" horiz-adv-x="567" 
d="M21 429h222v234h79v-234h222v-59h-222v-229h-79v229h-222v59z" />
    <glyph glyph-name="comma" unicode="," horiz-adv-x="360" 
d="M28 -98q73 94 73 300l99 -1q0 -230 -131 -336z" />
    <glyph glyph-name="hyphen" unicode="-" horiz-adv-x="579" 
d="M549 363h-526v57h526v-57z" />
    <glyph glyph-name="period" unicode="." horiz-adv-x="360" 
d="M106 31v105h100v-105h-100z" />
    <glyph glyph-name="slash" unicode="/" horiz-adv-x="434" 
d="M85 -14h-69l313 804h68z" />
    <glyph glyph-name="zero" unicode="0" horiz-adv-x="593" 
d="M414 615q-43 84 -114 84t-113 -84q-42 -86 -42 -237q0 -156 44 -244q42 -83 111 -83q71 0 114 84q45 88 45 243q0 151 -45 237zM300 -8q-117 0 -181 93q-68 99 -68 293q0 192 71 291q65 90 178 90q115 0 180 -90q71 -98 71 -291q0 -386 -251 -386z" />
    <glyph glyph-name="one" unicode="1" horiz-adv-x="593" 
d="M307 662q-77 -67 -214 -89l-10 57q150 29 224 124h62q30 0 30 -33v-720h-92v661z" />
    <glyph glyph-name="two" unicode="2" horiz-adv-x="593" 
d="M61 526q14 104 71 164q62 66 164 66q109 0 174 -61q65 -60 59 -152q-6 -94 -68 -167q-40 -45 -134 -110q-137 -94 -179 -210h392l-8 -56h-437q-60 0 -28 82q57 134 213 243q74 53 104 89q47 55 52 128q5 66 -34 110q-39 46 -107 45q-129 0 -161 -186z" />
    <glyph glyph-name="three" unicode="3" horiz-adv-x="593" 
d="M112 144q65 -84 169 -84q69 0 114 38q45 39 46 103q1 69 -46 111q-52 44 -152 47q-42 1 -42 34q0 32 40 33q168 4 170 147q1 57 -37 92q-39 35 -102 35q-97 0 -149 -90l-67 30q67 118 218 118q102 0 166 -52q63 -52 63 -134q0 -63 -35 -111q-35 -47 -95 -64v-2
q72 -12 117 -61q48 -51 48 -123q0 -98 -69 -156t-181 -58q-162 0 -244 122z" />
    <glyph glyph-name="four" unicode="4" horiz-adv-x="594" 
d="M356 239v401q-85 -124 -246 -396l1 -5h245zM549 239l-8 -56h-98v-183h-87v183l-294 -1q-25 0 -32 24q-6 22 7 45q263 432 319 503h56q31 0 31 -39v-476h106z" />
    <glyph glyph-name="five" unicode="5" horiz-adv-x="594" 
d="M172 447q74 40 154 37q91 -3 153 -66q64 -66 64 -168q0 -116 -69 -186q-70 -70 -186 -70q-173 0 -245 159l61 30q57 -128 181 -128q81 0 125 54q42 52 42 141q0 74 -42 123q-42 50 -107 50q-99 0 -155 -62q-15 -20 -39 -11q-25 8 -23 39l30 365h390l-8 -57h-308l-20 -248
z" />
    <glyph glyph-name="six" unicode="6" horiz-adv-x="593" 
d="M405 103q42 55 42 146q0 79 -44 130q-43 50 -106 50q-66 0 -110 -50q-45 -50 -45 -125q0 -90 43 -147t112 -57q66 0 108 53zM138 398q54 96 176 93q99 -2 160 -63q63 -64 63 -172q0 -126 -63 -194q-62 -69 -175 -69q-257 0 -254 345q1 191 63 301q68 120 196 121
q179 0 223 -154l-71 -20q-32 110 -145 110q-77 0 -124 -78q-48 -80 -51 -218z" />
    <glyph glyph-name="seven" unicode="7" horiz-adv-x="593" 
d="M200 1q21 439 245 693h-396l-5 57h470q18 0 25 -22q7 -23 -6 -38q-90 -101 -158 -277q-81 -208 -81 -413h-94z" />
    <glyph glyph-name="eight" unicode="8" horiz-adv-x="593" 
d="M393 666q-40 43 -104 43q-61 0 -101 -43q-38 -40 -38 -95q0 -97 146 -136q131 37 133 136q1 55 -36 95zM412 314q-51 47 -133 56q-69 -9 -114 -60q-40 -46 -40 -98q0 -76 46 -119q44 -42 120 -42t122 43q46 44 46 118q0 57 -47 102zM183 405q-117 50 -117 163
q0 83 61 139q63 57 164 57q102 0 166 -59q60 -55 60 -137q0 -56 -31 -101q-32 -44 -83 -62v-2q67 -20 108 -73q42 -53 42 -118q0 -101 -72 -160q-72 -58 -190 -58t-187 60t-69 158q0 61 41 115q42 55 107 76v2z" />
    <glyph glyph-name="nine" unicode="9" horiz-adv-x="593" 
d="M181 650q-42 -54 -42 -146q0 -79 43 -131q43 -50 106 -50q66 0 110 50q45 51 45 126q0 91 -43 147q-43 57 -112 56q-66 0 -107 -52zM447 355q-53 -96 -176 -93q-99 2 -160 63q-63 64 -63 171q0 126 63 195q62 68 175 69q256 0 255 -345q-2 -191 -64 -302
q-68 -120 -196 -120q-179 0 -223 154l71 20q32 -110 145 -110q77 0 124 78q48 79 51 218z" />
    <glyph glyph-name="colon" unicode=":" horiz-adv-x="360" 
d="M125 16v99h99v-99h-99zM125 446v99h99v-99h-99z" />
    <glyph glyph-name="semicolon" unicode=";" horiz-adv-x="360" 
d="M43 -137q62 79 64 255h96q1 -107 -25 -171q-27 -65 -95 -121zM100 446v99h99v-99h-99z" />
    <glyph glyph-name="less" unicode="&#x3c;" horiz-adv-x="641" 
d="M590 563l-435 -174l435 -175v-85l-523 221v77l523 221v-85z" />
    <glyph glyph-name="equal" unicode="=" horiz-adv-x="619" 
d="M560 225h-508v71h508v-71zM560 472h-508v71h508v-71z" />
    <glyph glyph-name="greater" unicode="&#x3e;" horiz-adv-x="641" 
d="M570 424v-77l-523 -221v85l434 174l-434 172v88z" />
    <glyph glyph-name="question" unicode="?" horiz-adv-x="507" 
d="M173 12v104h98v-104h-98zM180 242q-14 102 74 210q92 114 92 165q0 138 -119 138q-117 0 -129 -176l-69 10q10 113 67 173q52 55 133 55q93 0 148 -52q56 -53 56 -143q0 -86 -94 -193q-89 -101 -78 -187h-81z" />
    <glyph glyph-name="at" unicode="@" horiz-adv-x="875" 
d="M502 328q13 65 40 172q-19 83 -94 81q-55 -1 -97 -68q-40 -63 -42 -141q-3 -128 88 -128q61 0 105 84zM638 599q-51 -168 -67 -276q-7 -58 7 -76q13 -17 55 -9q55 9 93 65q43 63 39 159q-5 121 -96 203q-91 83 -222 83q-146 0 -243 -99q-98 -99 -98 -247q0 -150 101 -247
q99 -95 250 -95q156 0 249 108l42 -40q-104 -128 -294 -128q-182 0 -298 113q-115 113 -115 291q0 165 115 283q119 121 292 121q147 0 259 -99q112 -98 118 -231q6 -136 -64 -222q-65 -79 -163 -81q-86 0 -100 74q-43 -56 -122 -56q-63 0 -101 49q-39 49 -39 130
q0 103 61 180t145 77q85 0 120 -62q9 20 22 40z" />
    <glyph glyph-name="A" unicode="A" horiz-adv-x="678" 
d="M498 318l-127 358l-148 -358h275zM517 264h-317l-109 -264h-75l309 755h77q34 0 49 -40l266 -715h-107z" />
    <glyph glyph-name="B" unicode="B" horiz-adv-x="691" 
d="M402 61q75 2 120 48q43 42 43 104t-38 105q-39 45 -101 48q-110 5 -239 0v-305h215zM187 695v-270q105 -4 203 1q59 2 93 41q31 35 31 87q0 135 -146 141h-181zM401 751q104 -2 160 -58q52 -52 52 -134q0 -122 -107 -157q70 -10 114 -60q46 -52 46 -129q0 -91 -64 -150
q-68 -62 -184 -62h-329v750h312z" />
    <glyph glyph-name="C" unicode="C" horiz-adv-x="721" 
d="M590 495q-15 89 -75 146q-61 59 -141 59q-103 0 -170 -90t-67 -230t71 -233q69 -89 168 -89q180 0 223 221l93 -18q-53 -267 -316 -267q-146 0 -240 101q-100 106 -100 285q0 175 96 279q93 102 244 102q121 0 201 -64q80 -63 107 -180z" />
    <glyph glyph-name="D" unicode="D" horiz-adv-x="677" 
d="M329 61q109 0 177 91q65 87 65 220q0 135 -64 223q-68 94 -182 94h-154v-628h158zM342 751q151 0 240 -100q91 -102 91 -279q0 -167 -88 -269q-89 -104 -237 -104h-276v752h270z" />
    <glyph glyph-name="E" unicode="E" horiz-adv-x="644" 
d="M608 55l-7 -54h-419q-61 0 -86 25q-23 23 -23 78v648h521l-7 -52h-413v-286h396l-7 -53h-389v-306h434z" />
    <glyph glyph-name="F" unicode="F" horiz-adv-x="646" 
d="M172 698v-294h384l-7 -52h-377v-352h-100v753h546l-7 -55h-439z" />
    <glyph glyph-name="G" unicode="G" horiz-adv-x="711" 
d="M654 379q47 0 44 -56q-17 -330 -316 -330q-163 0 -254 100q-92 100 -92 279q0 182 98 287q93 100 248 100q108 0 186 -56q80 -58 109 -162l-92 -25q-46 181 -209 181q-104 0 -172 -91q-68 -92 -68 -234q0 -143 63 -229q66 -90 183 -90q105 0 165 88q51 75 53 183h-227
l-8 55h289z" />
    <glyph glyph-name="H" unicode="H" horiz-adv-x="725" 
d="M641 753v-753h-100v360h-371v-360h-99v753h99v-338h371v338h100z" />
    <glyph glyph-name="I" unicode="I" horiz-adv-x="241" 
d="M72 0v754h102v-754h-102z" />
    <glyph glyph-name="J" unicode="J" horiz-adv-x="500" 
d="M98 203q6 -77 32 -112q28 -37 85 -37q114 0 114 179v521h101v-519q0 -240 -214 -240q-192 0 -202 205z" />
    <glyph glyph-name="K" unicode="K" horiz-adv-x="692" 
d="M293 409l-124 -134v-275h-98v754h98v-401l360 400h77l-250 -279l268 -474h-112z" />
    <glyph glyph-name="L" unicode="L" horiz-adv-x="554" 
d="M173 55h366l-7 -53h-352q-61 0 -85 24q-23 23 -23 78v649h101v-698z" />
    <glyph glyph-name="M" unicode="M" horiz-adv-x="875" 
d="M442 147h2l175 606h59q46 0 60 -65l128 -688h-99l-115 618h-2l-180 -582h-53q-26 0 -36 26l-177 545h-2l-127 -607h-64l153 753h52q31 0 46 -41z" />
    <glyph glyph-name="N" unicode="N" horiz-adv-x="723" 
d="M611 753v-754h-69q-35 0 -54 36l-352 615v-651h-64v754h67q33 0 52 -35l357 -611v646h63z" />
    <glyph glyph-name="O" unicode="O" horiz-adv-x="745" 
d="M540 603q-64 94 -171 94q-109 0 -172 -92q-60 -88 -60 -233q-1 -143 61 -229q63 -89 170 -89q104 0 169 87q64 88 64 231q1 141 -61 231zM613 94q-90 -102 -245 -102t-245 105q-88 103 -88 275q0 177 89 282q91 106 245 106q155 0 246 -106q89 -105 89 -282
q0 -176 -91 -278z" />
    <glyph glyph-name="P" unicode="P" horiz-adv-x="655" 
d="M357 347q70 0 117 50q45 49 45 122q0 75 -40 124q-45 54 -122 54h-184v-350h184zM399 752q98 0 161 -67q63 -66 63 -168q0 -98 -66 -161q-67 -65 -177 -65h-207v-292h-101v753h327z" />
    <glyph glyph-name="Q" unicode="Q" horiz-adv-x="703" 
d="M536 163q46 86 46 209q0 140 -56 229q-61 97 -165 97q-106 0 -166 -92q-58 -88 -58 -234q0 -142 57 -228q60 -92 167 -92q84 0 142 64l-87 104l35 30zM638 -44l-81 96q-77 -62 -196 -62q-157 0 -243 106q-82 101 -82 276q0 179 84 282q86 107 241 107t241 -106
q82 -103 82 -283q0 -176 -82 -277l91 -94z" />
    <glyph glyph-name="R" unicode="R" horiz-adv-x="644" 
d="M171 373h183q70 0 115 44t45 113q0 68 -41 116q-44 52 -119 52h-183v-325zM301 319h-130v-319h-100v751h322q98 0 161 -64q61 -62 61 -156q0 -93 -58 -148t-163 -63q14 -8 25 -23l202 -297h-121z" />
    <glyph glyph-name="S" unicode="S" horiz-adv-x="661" 
d="M83 166q106 -108 247 -108q193 0 199 135q6 122 -163 156q-30 7 -56 11q-143 24 -207 78q-60 50 -58 135t72 134q74 51 207 51q194 0 295 -115l-47 -58q-84 111 -249 111q-84 0 -130 -37q-42 -34 -43 -88q-2 -109 169 -141q34 -7 62 -11q260 -45 256 -225
q-6 -200 -304 -200q-176 0 -300 116z" />
    <glyph glyph-name="T" unicode="T" horiz-adv-x="640" 
d="M618 696h-238v-695h-101v695h-238l-8 55h593z" />
    <glyph glyph-name="U" unicode="U" horiz-adv-x="694" 
d="M71 752h99v-471q0 -102 55 -165t145 -63q91 0 143 61q53 60 53 165v473h62v-473q0 -141 -71 -214q-69 -71 -198 -71q-288 0 -288 287v471z" />
    <glyph glyph-name="V" unicode="V" horiz-adv-x="684" 
d="M7 752h104l244 -658h2l241 658h66l-281 -752h-58q-40 0 -53 39z" />
    <glyph glyph-name="W" unicode="W" horiz-adv-x="879" 
d="M217 0q-39 0 -53 57q-3 16 -153 695h101l132 -616h2l165 578h56q27 0 38 -31l164 -545h2l136 614h64l-167 -752h-53q-29 0 -40 33q-4 10 -171 577h-2l-167 -610h-54z" />
    <glyph glyph-name="X" unicode="X" horiz-adv-x="641" 
d="M513 2l-216 327l-215 -329h-63l246 378l-248 375h109l208 -308l210 308h67l-245 -356l267 -395h-120z" />
    <glyph glyph-name="Y" unicode="Y" horiz-adv-x="622" 
d="M613 753l-242 -440v-312h-99v300l-263 452h111l220 -392l209 392h64z" />
    <glyph glyph-name="Z" unicode="Z" horiz-adv-x="661" 
d="M649 57l-8 -55h-539q-53 0 -68 37q-14 35 16 77q120 165 434 581h-419l-5 55h534q29 0 38 -19q8 -19 -10 -42q-210 -273 -486 -634h513z" />
    <glyph glyph-name="bracketleft" unicode="[" horiz-adv-x="331" 
d="M291 818h-133v-890h138l-2 -52h-212v994h217z" />
    <glyph glyph-name="backslash" unicode="\" horiz-adv-x="414" 
d="M19 861h68l300 -977h-70z" />
    <glyph glyph-name="bracketright" unicode="]" horiz-adv-x="330" 
d="M169 825h-134l-7 52h216v-994h-211l-3 52h139v890z" />
    <glyph glyph-name="asciicircum" unicode="^" horiz-adv-x="541" 
d="M418 403l-156 314l-155 -313h-90l207 385h77l205 -386h-88z" />
    <glyph glyph-name="underscore" unicode="_" horiz-adv-x="583" 
d="M557 -87h-540v50h540v-50z" />
    <glyph glyph-name="grave" unicode="`" horiz-adv-x="371" 
d="M310 639l-52 -47l-187 187l71 63z" />
    <glyph glyph-name="a" unicode="a" horiz-adv-x="621" 
d="M179 122q51 -66 125 -66q80 0 127 52q29 31 29 63v235q0 36 -33 67q-42 40 -121 40q-71 0 -123 -65q-54 -66 -54 -164q0 -97 50 -162zM548 8h-72l-8 67q-55 -80 -175 -80q-115 0 -187 82q-69 80 -69 202q0 134 76 216q72 79 182 79q106 0 168 -57l9 46h76v-555z" />
    <glyph glyph-name="b" unicode="b" horiz-adv-x="642" 
d="M165 386q-11 -114 0 -223q3 -33 29 -61q46 -49 136 -49q72 1 122 66t50 160q0 96 -53 161q-51 64 -124 64q-83 0 -128 -49q-29 -33 -32 -69zM167 502q61 64 182 64q101 0 171 -76q75 -81 75 -210q0 -133 -74 -212q-69 -73 -172 -73q-125 0 -191 61h-2l-9 -52h-75v750h93
v-252h2z" />
    <glyph glyph-name="c" unicode="c" horiz-adv-x="578" 
d="M469 383q-40 132 -162 132q-77 0 -126 -62q-51 -64 -51 -168q0 -105 51 -169q48 -62 124 -62q144 0 170 163l77 -19q-40 -203 -255 -203q-110 0 -185 82q-75 83 -75 204q0 129 77 212q75 81 184 81q189 0 247 -172z" />
    <glyph glyph-name="d" unicode="d" horiz-adv-x="636" 
d="M433 101q25 25 28 61q11 104 0 214q-3 39 -31 69q-44 47 -128 47q-73 0 -124 -60q-53 -63 -53 -158t50 -157t122 -62q92 -2 136 46zM477 3l-6 51h-2q-64 -61 -187 -61q-104 0 -173 68q-76 75 -76 208q0 129 73 210q69 75 169 75q129 0 186 -62h2v249h93v-738h-79z" />
    <glyph glyph-name="e" unicode="e" horiz-adv-x="630" 
d="M505 327q-12 85 -61 136q-51 52 -128 52q-81 0 -134 -55q-50 -52 -58 -133h381zM585 172q-24 -85 -96 -132q-71 -45 -172 -45q-122 0 -206 89q-80 85 -80 201q0 123 82 208q83 84 204 84q119 0 196 -81q81 -85 81 -227h-470q1 -89 55 -151q57 -65 143 -65q151 0 191 130z
" />
    <glyph glyph-name="f" unicode="f" horiz-adv-x="417" 
d="M116 509v95q0 98 55 131q55 31 181 11l-6 -61q-77 19 -108 -1t-31 -85v-90h122l-8 -54h-114v-454h-91v454h-94l-5 54h99z" />
    <glyph glyph-name="g" unicode="g" horiz-adv-x="596" 
d="M402 462q-42 45 -122 45q-64 0 -111 -56q-48 -58 -48 -144q0 -94 48 -158q46 -63 111 -63q84 0 126 51q19 22 26 68q14 97 -1 199q-5 33 -29 58zM89 -27q76 -111 194 -111q70 0 113 42q43 43 43 116v74h-2q-56 -73 -175 -73q-99 0 -165 80q-66 81 -66 203q0 119 67 192
q64 72 165 72q119 0 174 -65h2l9 50h80v-524q0 -223 -246 -223q-150 0 -243 122z" />
    <glyph glyph-name="h" unicode="h" horiz-adv-x="538" 
d="M160 482q56 87 161 87q160 0 160 -199v-370h-59v354q0 157 -115 157q-73 0 -117 -54q-33 -42 -33 -104v-353h-91v754h91v-272h3z" />
    <glyph glyph-name="i" unicode="i" horiz-adv-x="247" 
d="M161 749v-98h-90v98h90zM71 0v567h90v-567h-90z" />
    <glyph glyph-name="j" unicode="j" horiz-adv-x="453" 
d="M222 567v-672q0 -82 -94 -82h-127l-6 42h138v712h89zM222 749v-98h-91v98h91z" />
    <glyph glyph-name="k" unicode="k" horiz-adv-x="545" 
d="M263 329l-101 -94v-235h-91v755h91v-458l279 269h74l-197 -185l217 -381h-100z" />
    <glyph glyph-name="l" unicode="l" horiz-adv-x="306" 
d="M159 48h115l-6 -47h-106q-56 0 -75 20q-19 18 -19 69v662h91v-704z" />
    <glyph glyph-name="m" unicode="m" horiz-adv-x="843" 
d="M160 492q44 80 159 80q119 0 153 -90q41 90 168 90q71 0 111 -49q42 -50 42 -142v-381h-59v371q0 145 -110 145q-74 0 -111 -59q-20 -33 -20 -85v-372h-92v380q0 63 -34 101q-32 35 -80 35q-63 0 -100 -51q-24 -36 -24 -90v-375h-91v565h80l6 -73h2z" />
    <glyph glyph-name="n" unicode="n" horiz-adv-x="575" 
d="M158 486q46 86 161 86q78 0 121 -45q45 -46 45 -133v-394h-58v375q0 139 -121 139q-75 0 -118 -58q-26 -35 -26 -96v-360h-91v558h80l4 -72h3z" />
    <glyph glyph-name="o" unicode="o" horiz-adv-x="609" 
d="M438 446q-50 66 -132 66q-84 0 -132 -64q-47 -62 -47 -165q0 -101 46 -163q49 -65 133 -65q78 0 128 63q51 63 51 165q0 99 -47 163zM500 72q-76 -78 -194 -78q-128 0 -201 82q-71 78 -71 207q0 131 73 209q74 80 199 80q123 0 198 -82q74 -80 74 -207q0 -131 -78 -211z
" />
    <glyph glyph-name="p" unicode="p" horiz-adv-x="627" 
d="M194 469q-24 -23 -27 -59q-12 -116 0 -238q3 -41 34 -67q47 -42 127 -42q75 0 123 58q52 61 52 165q0 103 -53 167q-49 59 -122 59q-88 0 -134 -43zM148 564l9 -52h2q64 61 191 61q102 0 171 -73q74 -80 74 -215q0 -130 -74 -211q-70 -77 -171 -77q-123 0 -183 65h-2
v-259h-93v761h76z" />
    <glyph glyph-name="q" unicode="q" horiz-adv-x="607" 
d="M459 168q11 135 0 241q-4 36 -28 58q-46 43 -133 43q-74 0 -123 -58q-52 -61 -52 -163q0 -105 52 -168q48 -61 123 -61q78 0 127 42q30 28 34 66zM458 59q-61 -64 -182 -64q-101 0 -171 79q-75 84 -75 214q0 133 74 211q69 72 172 72q125 0 191 -61h2l9 51h75v-753h-93
v251h-2z" />
    <glyph glyph-name="r" unicode="r" horiz-adv-x="388" 
d="M158 457q48 118 203 118l-4 -66q-115 3 -164 -78q-33 -55 -33 -152v-279h-91v565h78l9 -108h2z" />
    <glyph glyph-name="s" unicode="s" horiz-adv-x="504" 
d="M58 110q86 -56 186 -56q128 0 133 84q3 79 -116 109l-60 14q-172 35 -174 153q-1 69 51 111q56 44 159 45q115 2 209 -52l-34 -51q-81 47 -178 45q-59 -1 -91 -25q-28 -21 -29 -55q-5 -74 125 -100q39 -8 61 -14q177 -41 172 -160q-9 -164 -229 -163q-125 2 -224 72z" />
    <glyph glyph-name="t" unicode="t" horiz-adv-x="696" 
d="M233 46h146l-6 -46h-138q-56 0 -75 20q-18 18 -18 69v382h-108l-5 55h113v228h91v-228h146l-5 -55h-141v-425z" />
    <glyph glyph-name="u" unicode="u" horiz-adv-x="559" 
d="M427 79q-22 -38 -71 -63q-47 -23 -94 -23q-94 0 -139 42q-52 48 -52 159v372h91v-372q0 -77 31 -111q28 -31 91 -31q69 0 111 53q31 39 31 103v358h59v-560h-49l-5 73h-4z" />
    <glyph glyph-name="v" unicode="v" horiz-adv-x="503" 
d="M237 0q-38 0 -51 37q-9 29 -181 529h97l151 -470h2l153 470h61l-191 -566h-41z" />
    <glyph glyph-name="w" unicode="w" horiz-adv-x="737" 
d="M550 0q-37 0 -47 38q-5 21 -117 424h-2l-120 -462h-54q-38 0 -53 46l-153 520h99l119 -489h2l120 458h79q29 0 36 -29l116 -429h2l136 489h63l-164 -566h-62z" />
    <glyph glyph-name="x" unicode="x" horiz-adv-x="499" 
d="M382 0l-149 241l-151 -240h-66l185 292l-169 274h102l135 -217l136 217h68l-175 -264l188 -303h-104z" />
    <glyph glyph-name="y" unicode="y" horiz-adv-x="486" 
d="M500 567q-151 -440 -222 -631q-32 -87 -107 -112q-66 -22 -153 7l12 53q60 -22 95 -8q37 14 63 73q15 33 50 123l-209 495h60l176 -425l141 425h94z" />
    <glyph glyph-name="z" unicode="z" horiz-adv-x="487" 
d="M479 48l-7 -48h-396q-39 0 -49 27q-10 25 11 56l303 433h-305l-4 50h410q20 0 25 -14q6 -13 -6 -29q-180 -247 -344 -475h362z" />
    <glyph glyph-name="braceleft" unicode="{" horiz-adv-x="406" 
d="M325 -117q-75 0 -107 32q-35 35 -35 122l3 222q0 91 -97 92v59q95 0 95 89l-1 223q0 87 35 123q32 32 107 32h54l-9 -45q-61 0 -82 -20q-23 -21 -23 -82l-3 -222q-2 -61 -12 -87q-14 -32 -52 -41q38 -10 53 -42q12 -27 12 -86l2 -222q0 -62 22 -82q21 -20 83 -20l9 -45
h-54z" />
    <glyph glyph-name="bar" unicode="|" horiz-adv-x="230" 
d="M151 -130h-69v1017h69v-1017z" />
    <glyph glyph-name="braceright" unicode="}" horiz-adv-x="406" 
d="M92 877q75 0 107 -32q35 -35 35 -122l-3 -222q0 -91 97 -92v-59q-95 0 -95 -89l1 -223q0 -87 -35 -122q-32 -33 -107 -33h-54l8 44q61 0 83 20q23 22 23 83q0 105 3 222q1 60 12 87q14 31 52 41q-39 10 -53 42q-13 27 -13 86l-1 222q0 62 -22 82q-21 20 -84 20l-8 45h54z
" />
    <glyph glyph-name="asciitilde" unicode="~" horiz-adv-x="502" 
d="M17 358q57 94 135 94q46 0 105 -48q60 -49 87 -49q37 0 81 76l51 -40q-56 -95 -134 -95q-46 0 -105 49q-60 48 -88 48q-37 1 -84 -73z" />
    <glyph glyph-name="currency" unicode="&#xa4;" 
d="M302 165q81 -82 196 -82t197 82q81 81 81 196q0 116 -81 197t-197 81q-115 0 -196 -81q-82 -82 -82 -197t82 -196zM770 583q79 -98 79 -222q0 -121 -75 -217l140 -136l-58 -57l-133 140q-99 -81 -225 -81q-125 0 -223 79l-133 -139l-56 57l138 135q-77 96 -77 219
q0 127 81 224l-142 138l55 55l139 -142q95 76 218 76q125 0 221 -78l135 144l61 -58z" />
    <glyph glyph-name="section" unicode="&#xa7;" 
d="M461 502q-69 -8 -80 -79q-10 -72 152 -138q69 10 80 79q11 73 -152 138zM611 665q-5 22 -21 44q-32 43 -85 43q-81 0 -98 -75q-16 -79 74 -108q119 -38 169 -97q47 -55 26 -120t-84 -91q48 -26 66 -74q17 -44 3 -89q-34 -109 -168 -109q-76 0 -132 52q-27 25 -40 51
l62 31q6 -22 22 -43q32 -44 85 -44q82 0 97 75q16 80 -73 108q-120 38 -170 97q-47 55 -26 120t85 90q-49 27 -67 75q-16 44 -2 89q34 109 168 109q76 0 131 -51q28 -26 41 -52z" />
    <glyph glyph-name="dieresis" unicode="&#xa8;" 
d="M595 620v99h99v-99h-99zM298 620l1 99h98v-99h-99z" />
    <glyph glyph-name="degree" unicode="&#xb0;" 
d="M164 774q35 35 86 34q50 -1 84 -36t34 -86q-1 -51 -35 -85q-35 -35 -86 -34q-50 0 -84 36q-35 35 -34 86t35 85zM191 632q23 -24 56 -24q34 0 57 23t23 57t-23 57q-22 23 -56 23q-34 1 -56 -22q-22 -22 -23 -57q0 -34 22 -57z" />
    <glyph glyph-name="plusminus" unicode="&#xb1;" 
d="M453 447h-277v58h277v251h90v-251h279v-58h-279v-258h-90v258zM823 110v-58h-646v58h646z" />
    <glyph glyph-name="periodcentered" unicode="&#xb7;" 
d="M447 325v104h98v-104h-98z" />
    <glyph glyph-name="multiply" unicode="&#xd7;" 
d="M563 404l217 -217l-64 -63l-217 217l-217 -217l-64 63l218 218l-217 216l63 64l217 -217l217 217l64 -64z" />
    <glyph glyph-name="divide" unicode="&#xf7;" 
d="M544 183v-98h-98v98h98zM843 412v-58h-696v58h696zM544 671v-99h-98v99h98z" />
    <glyph glyph-name="caron" unicode="&#x2c7;" 
d="M496 550q-37 0 -66 29q-35 34 -206 220h103l173 -182l170 182h105l-234 -249h-45z" />
    <glyph glyph-name="uni02C9" unicode="&#x2c9;" 
d="M305 676v52h386v-52h-386z" />
    <glyph glyph-name="uni2005" unicode="&#x2005;" horiz-adv-x="250" 
 />
    <glyph glyph-name="emdash" unicode="&#x2014;" 
d="M969 361h-942v54h942v-54z" />
    <glyph glyph-name="quoteleft" unicode="&#x2018;" 
d="M818 762q-64 -81 -64 -262h-97q0 201 120 299z" />
    <glyph glyph-name="quoteright" unicode="&#x2019;" 
d="M180 537q63 81 63 262h97q0 -201 -120 -299z" />
    <glyph glyph-name="quotedblleft" unicode="&#x201c;" 
d="M861 771q-62 -81 -60 -263h-97q-3 200 117 300zM717 770q-63 -81 -61 -263h-97q-3 200 117 300z" />
    <glyph glyph-name="quotedblright" unicode="&#x201d;" 
d="M408 808q1 -201 -117 -300l-41 36q63 82 61 264h97zM261 807q3 -200 -117 -300l-40 36q62 82 60 264h97z" />
    <glyph glyph-name="ellipsis" unicode="&#x2026;" 
d="M766 335v104h99v-104h-99zM140 335l1 104h98v-104h-99zM452 335v104h99v-104h-99z" />
    <glyph glyph-name="perthousand" unicode="&#x2030;" 
d="M193 531q19 -35 45 -35t43 34q19 37 19 100q0 60 -19 98q-18 35 -45 35t-45 -37q-19 -37 -19 -97t21 -98zM149 752q35 51 87 51q54 0 89 -50q33 -49 33 -121q0 -80 -33 -130q-33 -49 -86 -49q-54 0 -89 50q-36 50 -36 126q0 73 35 123zM735 73q19 -35 45 -35t43 34
q19 37 19 99q0 60 -19 97q-19 35 -46 35t-45 -36q-18 -37 -18 -96q0 -60 21 -98zM691 293q35 50 87 50q54 0 88 -50q33 -47 33 -119q0 -80 -33 -129t-86 -49t-89 49q-35 50 -35 126q0 72 35 122zM94 4l484 793h69l-485 -793h-68zM448 73q19 -35 45 -35t43 34q19 37 19 99
q0 60 -19 97q-19 35 -46 35t-45 -36q-18 -37 -18 -96q0 -60 21 -98zM404 293q35 50 87 50q54 0 88 -50q33 -47 33 -119q0 -80 -33 -129q-32 -49 -85 -49q-54 0 -89 49q-36 50 -36 126q0 72 35 122z" />
    <glyph glyph-name="minute" unicode="&#x2032;" 
d="M262 555h-65l94 245h102z" />
    <glyph glyph-name="second" unicode="&#x2033;" 
d="M335 556h-64l93 245l103 -1zM157 556h-65l94 245l102 -1z" />
    <glyph glyph-name="uni2103" unicode="&#x2103;" 
d="M811 531q-38 147 -195 147q-96 0 -163 -87t-67 -213q0 -137 65 -225q64 -85 161 -87q86 -1 146 58q58 57 71 147l71 -17q-16 -106 -92 -174q-80 -70 -193 -69q-141 2 -223 98q-85 99 -85 274q0 146 87 247q89 104 226 104q92 0 162 -48q72 -49 95 -132zM136 654
q18 -19 43 -19q27 0 45 17q17 17 17 45t-17 46t-45 18q-25 0 -42 -17q-18 -18 -18 -45t17 -45zM108 769q28 30 71 30q44 0 74 -30t30 -72q0 -45 -31 -74q-30 -28 -73 -27q-43 0 -72 30q-28 29 -28 71q0 43 29 72z" />
    <glyph glyph-name="uni2109" unicode="&#x2109;" 
d="M341 670q16 16 16 42q0 56 -56 56q-22 0 -38 -16t-16 -41q0 -24 15 -41q16 -17 39 -17q25 0 40 17zM368 774q26 -26 26 -64q0 -39 -26 -65q-27 -26 -67 -26q-39 0 -64 26q-26 26 -26 65q0 38 26 65q26 26 65 26q40 0 66 -27zM541 666v-292h216v-53h-216v-320h-101v720
h357v-55h-256z" />
    <glyph glyph-name="uni2116" unicode="&#x2116;" 
d="M725 460q-19 -40 -19 -103q0 -64 21 -104q20 -37 46 -37q27 0 45 37q19 39 19 105q0 64 -20 103q-19 37 -46 37q-28 0 -46 -38zM681 224q-37 52 -37 133q0 77 37 130q36 53 90 53q57 0 92 -53q35 -51 35 -127q0 -84 -35 -137q-34 -52 -89 -52q-56 0 -93 53zM508 749h61
v-750h-58q-34 0 -52 41l-252 571v-612h-62v750h55q30 0 46 -37l262 -591v628zM906 78v-53h-272v53h272z" />
    <glyph glyph-name="uni2160" unicode="&#x2160;" 
d="M554 1h-106v753h106v-753z" />
    <glyph glyph-name="uni2161" unicode="&#x2161;" 
d="M700 1h-107v753h107v-753zM401 1h-106v753h106v-753z" />
    <glyph glyph-name="uni2162" unicode="&#x2162;" 
d="M851 1h-107v753h107v-753zM552 1h-106v753h106v-753zM254 1h-107v753h107v-753z" />
    <glyph glyph-name="uni2163" unicode="&#x2163;" 
d="M552 352q10 -35 33 -121q19 -74 33 -122h5q14 47 34 122q23 84 34 121l114 402h83l-227 -754h-64q-51 0 -68 60q-9 32 -211 694h122zM224 1h-106v753h106v-753z" />
    <glyph glyph-name="uni2164" unicode="&#x2164;" 
d="M470 231q19 -72 34 -122h4q15 48 35 122l33 121l115 402h85l-227 -754h-69q-31 0 -45 13q-10 9 -18 38l-213 703h122z" />
    <glyph glyph-name="uni2165" unicode="&#x2165;" 
d="M872 1h-107v753h107v-753zM329 352q11 -38 33 -121q20 -76 34 -122h5q14 47 34 122q23 84 34 121l115 402h84l-226 -754h-59q-36 0 -52 16q-12 11 -21 43q-11 38 -211 695h119z" />
    <glyph glyph-name="uni2166" unicode="&#x2166;" 
d="M939 1h-106v753h106v-753zM708 1h-106v753h106v-753zM237 352q44 -204 55 -243h4q18 65 55 243l91 402h82l-183 -754h-69q-37 0 -51 14q-10 10 -17 43q-7 32 -172 697h122z" />
    <glyph glyph-name="uni2167" unicode="&#x2167;" 
d="M915 -1h-86v755h86v-755zM748 -1h-87v755h87v-755zM580 -1h-87v755h87v-755zM241 111h4q16 91 39 247l63 396h72l-128 -754h-66q-50 0 -60 52q-5 30 -130 702h104z" />
    <glyph glyph-name="uni2168" unicode="&#x2168;" 
d="M145 754h98v-755h-98v755zM782 1l-172 317l-177 -318h-96l224 390l-209 364h117l163 -294l159 294h95l-206 -362l222 -391h-120z" />
    <glyph glyph-name="uni2169" unicode="&#x2169;" 
d="M662 2l-171 318l-178 -319h-96l224 389l-208 364h117l162 -293l159 293h95l-206 -362l222 -390h-120z" />
    <glyph glyph-name="uni216A" unicode="&#x216a;" 
d="M445 390l218 -388h-120l-170 321l-179 -322h-96l226 393l-206 360h117l163 -294l158 294h96zM858 755v-755h-106v755h106z" />
    <glyph glyph-name="uni216B" unicode="&#x216b;" 
d="M339 393l198 -393h-98l-160 330l-160 -330h-76l195 396l-180 359h95l147 -300l147 300h72zM592 755h98v-755h-98v755zM921 755v-755h-97v755h97z" />
    <glyph glyph-name="uni2170" unicode="&#x2170;" 
d="M445 646v110h104v-110h-104zM549 6h-104v551h104v-551z" />
    <glyph glyph-name="uni2171" unicode="&#x2171;" 
d="M587 646v110h103v-110h-103zM312 646v110h103v-110h-103zM691 0h-104v566h104v-566zM415 0h-104v566h104v-566z" />
    <glyph glyph-name="uni2172" unicode="&#x2172;" 
d="M724 646v110h104v-110h-104zM449 646v110h103v-110h-103zM173 646v110h104v-110h-104zM828 0h-104v566h104v-566zM552 0h-104v566h104v-566zM277 0h-104v566h104v-566z" />
    <glyph glyph-name="uni2173" unicode="&#x2173;" 
d="M368 567h113l152 -455h2l153 455h72l-196 -568h-62q-35 0 -48 36zM170 646v110h104v-110h-104zM274 0h-104v566h104v-566z" />
    <glyph glyph-name="uni2174" unicode="&#x2174;" 
d="M252 567h114l151 -455h2l153 455h72l-196 -568h-64q-33 0 -44 33z" />
    <glyph glyph-name="uni2175" unicode="&#x2175;" 
d="M383 -1q-35 0 -47 35q-6 19 -186 533h113l152 -455h2l152 455h73l-196 -568h-63zM823 0h-104v566h104v-566zM719 646v110h104v-110h-104z" />
    <glyph glyph-name="uni2176" unicode="&#x2176;" 
d="M259 -1q-32 0 -45 36q-6 20 -181 532h108l148 -455h3l149 455h69l-190 -568h-61zM814 646v110h104v-110h-104zM586 646v110h103v-110h-103zM917 0h-103v566h103v-566zM690 0h-104v566h104v-566z" />
    <glyph glyph-name="uni2177" unicode="&#x2177;" 
d="M914 0h-85v567h85v-567zM734 0h-85v567h85v-567zM555 0h-85v567h85v-567zM213 0q-33 0 -42 33l-143 534h94l111 -454h2l104 454h64l-135 -567h-55zM829 645v110h85v-110h-85zM649 645v110h85v-110h-85zM470 645v110h85v-110h-85z" />
    <glyph glyph-name="uni2178" unicode="&#x2178;" 
d="M269 645h-104l1 110h103v-110zM165 567h105v-567h-105v567zM723 1l-152 247l-150 -247h-82l192 296l-179 271h107l137 -215l132 215h84l-176 -268l197 -299h-110z" />
    <glyph glyph-name="uni2179" unicode="&#x2179;" 
d="M640 1l-152 247l-150 -247h-82l192 296l-179 271h108l136 -215l132 215h84l-176 -268l197 -299h-110z" />
    <glyph glyph-name="infinity" unicode="&#x221e;" 
d="M758 575q79 0 138 -51q66 -56 66 -146t-66 -145q-59 -50 -138 -50q-145 0 -261 134q-117 -134 -262 -134q-80 0 -139 50q-65 55 -65 145t65 146q59 51 139 51q145 0 262 -135q115 135 261 135zM129 294q45 -33 102 -33q121 0 225 128q-114 138 -223 138q-63 0 -107 -35
q-48 -39 -48 -99q0 -61 51 -99zM759 236q66 0 110 36q44 37 44 93q0 59 -46 95q-44 34 -110 34q-121 0 -226 -129q105 -129 228 -129z" />
    <glyph glyph-name="therefore" unicode="&#x2234;" 
d="M550 645v-104h-98v104h98zM807 195v-103h-99v103h99zM295 195v-103h-99v103h99z" />
    <glyph glyph-name="uni2235" unicode="&#x2235;" 
d="M526 166l24 -74l-74 29l-24 74zM806 645v-104h-99v104h99zM293 645l1 -104h-99v104h98z" />
    <glyph glyph-name="uni2236" unicode="&#x2236;" 
d="M548 203v-98h-99v98h99zM548 634v-99h-99v99h99z" />
    <glyph glyph-name="uni2460" unicode="&#x2460;" 
d="M537 721q30 0 30 -30v-669h-92v614q-76 -62 -214 -82l-11 51q152 29 225 116h62zM804 76q126 126 126 304t-127 304q-126 126 -304 126q-178 -1 -303 -126q-126 -126 -126 -304t126 -304t304 -126t304 126zM826 706q135 -135 135 -326t-135 -326t-326 -135t-326 135
t-135 326t135 326q134 135 325 135t327 -135z" />
    <glyph glyph-name="uni2461" unicode="&#x2461;" 
d="M260 517q14 96 71 152q62 61 164 61q109 0 175 -56q65 -56 59 -141q-7 -87 -69 -154q-40 -43 -134 -103q-137 -86 -179 -195h393l-8 -51h-437q-59 0 -29 75q56 123 213 226q149 97 157 201q5 61 -34 102q-40 43 -108 42q-129 0 -160 -173zM804 76q126 126 126 304
t-127 304q-126 126 -304 126q-178 -1 -303 -126q-126 -126 -126 -304t126 -304t304 -126t304 126zM826 706q135 -135 135 -326t-135 -326t-326 -135t-326 135t-135 326t135 326q134 135 325 135t327 -135z" />
    <glyph glyph-name="uni2462" unicode="&#x2462;" 
d="M579 388q71 -11 117 -56q48 -48 48 -114q0 -91 -69 -145q-68 -54 -181 -54q-162 0 -244 112l68 23q64 -77 169 -77q69 0 114 36t46 95q1 64 -47 102q-51 42 -152 45q-41 1 -41 31q0 29 39 31q169 3 171 137q0 52 -38 84q-38 33 -101 33q-97 0 -149 -82l-67 27
q66 108 218 108q102 0 166 -48q63 -48 63 -124q0 -59 -35 -103q-35 -43 -95 -59v-2zM804 76q126 126 126 304t-127 304q-126 126 -304 126q-178 -1 -303 -126q-126 -126 -126 -304t126 -304t304 -126t304 126zM826 706q135 -135 135 -326t-135 -326t-326 -135t-326 135
t-135 326t135 326q134 135 325 135t327 -135z" />
    <glyph glyph-name="uni2463" unicode="&#x2463;" 
d="M536 244v372q-89 -121 -246 -368l1 -4h245zM623 244h106l-8 -53h-98v-169h-87v169h-294q-26 0 -32 22q-6 20 8 41q212 344 318 467h56q31 0 31 -36v-441zM804 76q126 126 126 304t-127 304q-126 126 -304 126q-178 -1 -303 -126q-126 -126 -126 -304t126 -304t304 -126
t304 126zM826 706q135 -135 135 -326t-135 -326t-326 -135t-326 135t-135 326t135 326q134 135 325 135t327 -135z" />
    <glyph glyph-name="uni2464" unicode="&#x2464;" 
d="M376 436q75 37 154 34q91 -2 153 -60q64 -61 64 -156q0 -108 -69 -173q-70 -65 -186 -65q-173 0 -245 148l60 27q58 -118 182 -118q81 0 125 50q42 48 42 131q0 69 -42 114q-42 46 -107 46q-99 0 -156 -57q-14 -18 -38 -11q-25 8 -23 37l30 338h390l-8 -52h-308l-20 -232
zM804 76q126 126 126 304t-127 304q-126 126 -304 126q-178 -1 -303 -126q-126 -126 -126 -304t126 -304t304 -126t304 126zM826 706q135 -135 135 -326t-135 -326t-326 -135t-326 135t-135 326t135 326q134 135 325 135t327 -135z" />
    <glyph glyph-name="uni2465" unicode="&#x2465;" 
d="M608 117q42 50 42 136q0 73 -43 121q-43 47 -106 47q-66 -1 -110 -47q-45 -47 -45 -117q0 -84 43 -136q43 -53 112 -53q66 0 107 49zM342 390q54 90 176 87q99 -2 160 -59q63 -59 63 -158q0 -117 -63 -181q-62 -64 -175 -64q-257 0 -254 320q1 177 63 280q68 111 196 111
q179 1 223 -142l-71 -18q-32 102 -145 102q-77 0 -124 -73q-48 -74 -51 -203zM804 76q126 126 126 304t-127 304q-126 126 -304 126q-178 -1 -303 -126q-126 -126 -126 -304t126 -304t304 -126t304 126zM826 706q135 -135 135 -326t-135 -326t-326 -135t-326 135t-135 326
t135 326q134 135 325 135t327 -135z" />
    <glyph glyph-name="uni2466" unicode="&#x2466;" 
d="M719 713q18 0 25 -20q7 -21 -6 -35q-90 -95 -158 -257q-81 -194 -81 -383h-93q20 408 244 643h-393l-8 52h470zM804 76q126 126 126 304t-127 304q-126 126 -304 126q-178 -1 -303 -126q-126 -126 -126 -304t126 -304t304 -126t304 126zM826 706q135 -135 135 -326
t-135 -326t-326 -135t-326 135t-135 326t135 326q134 135 325 135t327 -135z" />
    <glyph glyph-name="uni2467" unicode="&#x2467;" 
d="M623 102q46 42 46 113q0 54 -47 97q-51 45 -133 54q-69 -9 -114 -57q-40 -44 -40 -94q0 -73 46 -114q44 -40 120 -40t122 41zM505 429q131 35 133 130q2 52 -35 90q-40 41 -104 41q-61 0 -101 -40q-38 -38 -38 -91q0 -93 145 -130zM613 397q67 -19 108 -70
q42 -50 42 -112q0 -97 -72 -154q-72 -55 -190 -55q-117 0 -187 58q-69 57 -69 151q0 58 41 110q42 53 107 72v2q-117 50 -117 157q0 79 61 133q63 55 164 55q102 0 166 -56q60 -54 60 -132q0 -54 -31 -97q-32 -43 -83 -60v-2zM804 76q126 126 126 304t-127 304
q-126 126 -304 126q-178 -1 -303 -126q-126 -126 -126 -304t126 -304t304 -126t304 126zM826 706q135 -135 135 -326t-135 -326t-326 -135t-326 135t-135 326t135 326q134 135 325 135t327 -135z" />
    <glyph glyph-name="uni2468" unicode="&#x2468;" 
d="M608 370q45 48 45 120q0 86 -43 140q-43 55 -112 55q-67 -1 -108 -51q-42 -52 -42 -140q0 -75 44 -124q43 -48 106 -48q66 0 110 48zM657 351q-53 -91 -176 -89q-100 2 -160 60q-63 61 -63 165q0 119 63 185q63 67 175 68q257 0 254 -331q-1 -183 -63 -289
q-68 -115 -196 -115q-170 0 -223 148l71 19q32 -106 145 -106q77 0 124 75q48 76 51 208zM804 76q126 126 126 304t-127 304q-126 126 -304 126q-178 -1 -303 -126q-126 -126 -126 -304t126 -304t304 -126t304 126zM826 706q135 -135 135 -326t-135 -326t-326 -135t-326 135
t-135 326t135 326q134 135 325 135t327 -135z" />
    <glyph glyph-name="uni2469" unicode="&#x2469;" 
d="M702 142q36 81 37 226q0 142 -34 221q-34 78 -93 78q-58 0 -93 -78q-37 -81 -38 -220q0 -145 36 -226q34 -77 92 -77t93 76zM767 638q61 -91 60 -270q0 -178 -61 -270q-56 -86 -156 -86q-99 0 -155 86q-61 93 -60 271q1 179 63 270q56 83 155 83q98 0 154 -84zM268 18
q106 -68 232 -68q178 0 304 126t126 304t-127 304q-126 126 -304 126q-178 -1 -303 -126q-126 -126 -126 -304q0 -232 195 -360l2 612q-42 -37 -100 -53l-10 52q62 23 111 86h53q30 0 30 -30l-2 -669h-81zM826 706q135 -135 135 -326t-135 -326t-326 -135t-326 135t-135 326
t135 326q134 135 325 135t327 -135z" />
    <glyph glyph-name="uni2474" unicode="&#x2474;" 
d="M472 662q-77 -67 -214 -89l-11 57q151 29 225 124h62q30 0 30 -33v-720h-92v661zM725 -64q174 193 174 444q0 246 -176 446l37 26q205 -208 205 -472q0 -268 -205 -469zM273 826q-174 -193 -174 -443q0 -243 176 -447l-37 -25q-205 210 -205 472q0 266 205 469z" />
    <glyph glyph-name="uni2475" unicode="&#x2475;" 
d="M261 526q14 103 70 164q62 66 164 66q109 0 175 -61q65 -60 59 -152q-6 -94 -68 -167q-40 -45 -135 -110q-139 -96 -178 -210h392l-8 -56h-437q-60 0 -28 82q57 134 213 243q74 54 104 89q47 56 52 128q5 66 -34 110q-39 46 -107 45q-129 0 -161 -186zM725 -64
q174 193 174 444q0 246 -176 446l37 26q205 -208 205 -472q0 -268 -205 -469zM273 826q-174 -193 -174 -443q0 -243 176 -447l-37 -25q-205 210 -205 472q0 266 205 469z" />
    <glyph glyph-name="uni2476" unicode="&#x2476;" 
d="M318 144q65 -84 169 -84q69 0 114 38q46 39 47 103q1 69 -47 111q-51 44 -152 47q-41 1 -41 34q0 32 39 33q170 4 170 147q1 57 -37 92t-102 35q-97 0 -148 -90l-67 30q65 118 218 118q101 0 165 -52q63 -52 63 -134q0 -64 -35 -111t-95 -64v-2q72 -12 117 -61
q48 -51 48 -123q0 -98 -69 -156q-68 -58 -180 -58q-161 0 -245 122zM725 -64q174 193 174 444q0 246 -176 446l37 26q205 -208 205 -472q0 -268 -205 -469zM273 826q-174 -193 -174 -443q0 -243 176 -447l-37 -25q-205 210 -205 472q0 266 205 469z" />
    <glyph glyph-name="uni2477" unicode="&#x2477;" 
d="M273 826q-174 -193 -174 -443q0 -243 176 -447l-37 -25q-205 210 -205 472q0 266 205 469zM545 239v401q-85 -124 -246 -396l1 -5h245zM730 183h-98v-183h-87v183l-294 -1q-26 0 -32 24q-6 22 8 45q211 369 318 503h56q31 0 31 -39v-476h106zM760 852q205 -208 205 -472
q0 -268 -205 -469l-35 25q174 193 174 444q0 246 -176 446z" />
    <glyph glyph-name="uni2478" unicode="&#x2478;" 
d="M377 447q76 40 155 37q91 -3 153 -66q64 -66 64 -168q0 -116 -70 -186t-185 -70q-174 0 -246 159l61 30q57 -128 182 -128q81 0 125 54q42 52 41 141q0 74 -42 123q-42 50 -106 50q-100 0 -156 -62q-14 -20 -39 -11q-25 8 -23 39q3 27 31 365h389l-8 -57h-308l-20 -248z
M725 -64q174 193 174 444q0 246 -176 446l37 26q205 -208 205 -472q0 -268 -205 -469zM273 826q-174 -193 -174 -443q0 -243 176 -447l-37 -25q-205 210 -205 472q0 266 205 469z" />
    <glyph glyph-name="uni2479" unicode="&#x2479;" 
d="M610 103q42 54 42 146q0 79 -43 130q-43 50 -106 50q-66 0 -110 -50q-45 -50 -45 -125q0 -90 43 -147t112 -57q66 0 107 53zM344 398q54 96 176 93q99 -2 160 -63q63 -64 63 -172q0 -126 -63 -194q-62 -69 -175 -69q-257 0 -254 345q1 191 63 301q68 120 196 121
q179 0 223 -154l-71 -20q-32 110 -145 110q-77 0 -124 -78q-48 -80 -51 -218zM725 -64q174 193 174 444q0 246 -176 446l37 26q205 -208 205 -472q0 -268 -205 -469zM273 826q-174 -193 -174 -443q0 -243 176 -447l-37 -25q-205 210 -205 472q0 266 205 469z" />
    <glyph glyph-name="uni247A" unicode="&#x247a;" 
d="M409 1q20 439 244 693h-393l-8 57h470q18 0 25 -22q7 -23 -6 -38q-90 -102 -158 -277q-81 -208 -81 -413h-93zM725 -64q174 193 174 444q0 246 -176 446l37 26q205 -208 205 -472q0 -268 -205 -469zM273 826q-174 -193 -174 -443q0 -243 176 -447l-37 -25
q-205 210 -205 472q0 266 205 469z" />
    <glyph glyph-name="uni247B" unicode="&#x247b;" 
d="M603 666q-40 43 -104 43q-61 0 -101 -43q-38 -40 -38 -95q0 -97 145 -136q131 36 133 136q2 55 -35 95zM622 314q-51 47 -133 56q-69 -9 -114 -60q-40 -46 -40 -98q0 -76 46 -119q44 -42 120 -42t122 43q46 44 46 118q0 57 -47 102zM393 405q-117 50 -117 163
q0 83 61 139q63 57 164 57q102 0 166 -59q60 -55 60 -137q0 -56 -31 -101q-32 -44 -83 -62v-2q67 -20 108 -73q42 -53 42 -118q0 -101 -72 -160q-72 -58 -190 -58t-187 60t-69 158q0 61 41 115q42 55 107 76v2zM725 -64q174 193 174 444q0 246 -176 446l37 26
q205 -208 205 -472q0 -268 -205 -469zM273 826q-174 -193 -174 -443q0 -243 176 -447l-37 -25q-205 210 -205 472q0 266 205 469z" />
    <glyph glyph-name="uni247C" unicode="&#x247c;" 
d="M390 650q-42 -55 -42 -146q0 -79 44 -131q43 -50 106 -50q66 0 110 50q45 51 45 126q0 91 -43 147q-43 57 -112 56q-67 0 -108 -52zM657 355q-53 -96 -176 -93q-100 2 -160 62q-63 63 -63 172q0 124 63 194q63 69 175 70q257 0 254 -345q-1 -191 -63 -302
q-68 -120 -196 -120q-170 0 -223 154l71 20q32 -110 145 -110q77 0 124 78q48 79 51 218zM725 -64q174 193 174 444q0 246 -176 446l37 26q205 -208 205 -472q0 -268 -205 -469zM273 826q-174 -193 -174 -443q0 -243 176 -447l-37 -25q-205 210 -205 472q0 266 205 469z" />
    <glyph glyph-name="uni247D" unicode="&#x247d;" 
d="M708 614q-34 84 -92 84t-93 -84q-37 -87 -37 -237q0 -156 36 -243q34 -83 93 -83q57 0 92 82q36 87 36 243q0 152 -35 238zM772 85q-57 -93 -156 -93t-156 92q-61 100 -61 293q0 192 62 291q56 89 155 89q98 0 154 -90q62 -99 62 -291t-60 -291zM265 662
q-43 -42 -101 -58l-10 57q62 25 111 93h54q30 0 30 -33v-720h-84v661zM737 -64q174 193 174 444q0 246 -176 446l37 26q205 -208 205 -472q0 -268 -205 -469zM262 826q-174 -191 -174 -443q0 -245 176 -447l-37 -25q-205 208 -205 472q0 268 205 469z" />
    <glyph glyph-name="uni247E" unicode="&#x247e;" 
d="M737 -64q174 193 174 444q0 246 -176 446l37 26q205 -208 205 -472q0 -268 -205 -469zM262 826q-174 -191 -174 -443q0 -245 176 -447l-37 -25q-205 208 -205 472q0 268 205 469zM642 662q-42 -43 -113 -60l-10 56q72 24 123 96h53q30 0 30 -33v-720h-83v661zM323 662
q-42 -43 -113 -60l-10 56q72 24 123 96h53q30 0 30 -33v-720h-83v661z" />
    <glyph glyph-name="uni247F" unicode="&#x247f;" 
d="M314 754q29 0 29 -33v-720h-83v661q-43 -42 -101 -58l-9 53q-62 -132 -62 -274q0 -245 176 -447l-37 -25q-205 208 -205 472q0 268 205 469l35 -26q-65 -71 -110 -164q61 25 108 92h54zM788 2h-372q-52 0 -25 82q49 133 189 243q128 104 139 217q5 65 -30 109
q-36 46 -96 46q-113 0 -141 -186l-67 15q13 104 63 164q55 66 145 66q97 0 155 -61q57 -60 52 -152q-5 -94 -61 -167q-34 -45 -118 -110q-123 -95 -160 -210h334zM772 852q205 -208 205 -472q0 -268 -205 -469l-35 25q174 193 174 444q0 246 -176 446z" />
    <glyph glyph-name="uni2480" unicode="&#x2480;" 
d="M313 754q29 0 29 -33v-720h-83v661q-43 -42 -101 -58l-9 51q-61 -132 -61 -272q0 -245 176 -447l-37 -25q-205 208 -205 472q0 268 205 469l35 -26q-67 -75 -109 -163q58 24 106 91h54zM675 395q69 -12 112 -61q46 -51 46 -123q0 -98 -66 -156q-65 -58 -172 -58
q-152 0 -233 122l64 25q62 -84 163 -84q66 0 109 38q44 39 45 103q1 69 -45 111q-49 44 -145 47q-39 1 -39 34q0 32 37 33q163 4 163 147q1 57 -36 92t-99 35q-93 0 -142 -90l-63 30q64 118 208 118q97 0 158 -52q60 -52 60 -134q0 -63 -34 -111q-34 -47 -91 -64v-2z
M772 852q205 -208 205 -472q0 -268 -205 -469l-35 25q174 193 174 444q0 246 -176 446z" />
    <glyph glyph-name="uni2481" unicode="&#x2481;" 
d="M313 754q29 0 29 -33v-720h-83v661q-43 -42 -101 -58l-9 51q-61 -132 -61 -272q0 -245 176 -447l-37 -25q-205 208 -205 472q0 268 205 469l35 -26q-67 -75 -109 -163q58 24 106 91h54zM660 239v394q-116 -193 -224 -389l1 -5h223zM660 0v183l-274 -1q-23 0 -29 24
q-6 22 7 45q207 386 296 503h52q28 0 28 -39v-476h105l-8 -56h-97v-183h-80zM772 852q205 -208 205 -472q0 -268 -205 -469l-35 25q174 193 174 444q0 246 -176 446z" />
    <glyph glyph-name="uni2482" unicode="&#x2482;" 
d="M313 754q29 0 29 -33v-720h-83v661q-43 -42 -101 -58l-9 51q-61 -132 -61 -272q0 -245 176 -447l-37 -25q-205 208 -205 472q0 268 205 469l35 -26q-67 -75 -109 -163q58 24 106 91h54zM772 852q205 -208 205 -472q0 -268 -205 -469l-35 25q174 193 174 444
q0 196 -119 372l-7 -55h-281l-19 -248l2 -2q71 40 143 37q87 -3 145 -66q60 -66 60 -168q0 -116 -65 -184q-66 -69 -176 -69q-162 0 -232 156l59 30q57 -127 173 -125q74 1 116 53q41 52 41 139q0 74 -40 123q-40 50 -101 50q-96 0 -150 -62q-14 -20 -35 -11q-23 8 -21 39
l29 365h358q-30 44 -56 72z" />
    <glyph glyph-name="uni2483" unicode="&#x2483;" 
d="M312 754q30 0 30 -33v-720h-83v661q-45 -42 -101 -58l-9 51q-61 -132 -61 -272q0 -245 176 -447l-37 -25q-205 208 -205 472q0 268 205 469l35 -26q-67 -75 -109 -163q58 24 106 91h53zM713 103q40 54 40 146q0 79 -42 130q-41 50 -101 50q-62 0 -104 -50
q-43 -50 -43 -125q0 -90 41 -147q40 -57 106 -57q63 0 103 53zM459 398q53 96 167 93q92 -2 149 -63q59 -64 59 -172q0 -126 -58 -194q-59 -69 -164 -69q-240 0 -237 345q1 191 59 301q63 120 183 121q152 0 208 -154l-64 -20q-34 110 -138 110q-73 0 -117 -78
q-46 -80 -49 -218zM772 852q205 -208 205 -472q0 -268 -205 -469l-35 25q174 193 174 444q0 246 -176 446z" />
    <glyph glyph-name="uni2484" unicode="&#x2484;" 
d="M513 1q18 471 196 693h-325l-6 57h396q14 0 20 -22q6 -23 -5 -38q-77 -93 -130 -277q-58 -200 -58 -413h-88zM264 662q-45 -42 -101 -58l-10 57q62 25 111 93h53q30 0 30 -33v-720h-83v661zM737 -64q174 193 174 444q0 246 -176 446l37 26q205 -208 205 -472
q0 -268 -205 -469zM262 826q-174 -191 -174 -443q0 -245 176 -447l-37 -25q-205 208 -205 472q0 268 205 469z" />
    <glyph glyph-name="uni2485" unicode="&#x2485;" 
d="M311 754q30 0 30 -33v-720h-83v661q-45 -42 -101 -58l-9 49q-60 -131 -60 -270q0 -245 176 -447l-37 -25q-205 208 -205 472q0 268 205 469l35 -26q-67 -75 -109 -163q57 25 105 91h53zM717 94q44 44 44 118q0 57 -44 102q-48 47 -126 56q-66 -9 -109 -60
q-38 -46 -38 -98q0 -76 43 -119q43 -42 115 -42q71 0 115 43zM605 435q126 37 126 136q2 55 -34 95q-37 43 -97 43q-58 0 -96 -43q-36 -40 -36 -95q0 -97 137 -136zM704 403q62 -20 101 -73t39 -118q0 -101 -67 -160q-65 -58 -175 -58t-174 60q-64 59 -64 158q0 61 38 115
q39 55 100 76v2q-110 50 -110 163q0 83 57 139q59 57 153 57t153 -59q56 -55 56 -137q0 -56 -29 -101q-30 -44 -78 -62v-2zM772 852q205 -208 205 -472q0 -268 -205 -469l-35 25q174 193 174 444q0 246 -176 446z" />
    <glyph glyph-name="uni2486" unicode="&#x2486;" 
d="M262 826q-174 -191 -174 -443q0 -245 176 -447l-37 -25q-205 208 -205 472q0 268 205 469zM737 -64q174 193 174 444q0 246 -176 446l37 26q205 -208 205 -472q0 -268 -205 -469zM495 650q-41 -55 -41 -146q0 -79 43 -131q41 -50 102 -50q63 1 106 51t43 125
q0 90 -41 147t-108 57q-64 -1 -104 -53zM752 355q-52 -96 -169 -93q-94 2 -152 63q-60 64 -60 171q0 126 59 195t167 69q243 0 242 -345q-2 -191 -61 -302q-64 -120 -186 -120q-170 0 -211 154l65 20q32 -110 140 -110q74 0 119 78q46 80 49 218zM274 661q-43 -42 -100 -58
l-11 56q62 26 111 94h54q30 0 30 -33v-720h-84v661z" />
    <glyph glyph-name="uni2487" unicode="&#x2487;" 
d="M262 826q-174 -191 -174 -443q0 -245 176 -447l-37 -25q-205 208 -205 472q0 268 205 469zM737 -64q174 193 174 444q0 246 -176 446l37 26q205 -208 205 -472q0 -268 -205 -469zM749 612q-25 84 -67 84t-67 -83q-27 -87 -27 -235q0 -156 26 -243q24 -82 66 -82
q41 0 66 84q27 88 27 240q0 150 -24 235zM803 85q-43 -93 -121 -93q-77 0 -121 93q-47 100 -47 293q0 192 48 290q43 89 120 89q76 0 120 -90q48 -98 48 -290q0 -193 -47 -292zM192 534q12 102 55 164q45 65 111 66q72 1 113 -61q39 -59 35 -152q-8 -153 -130 -277
q-83 -86 -112 -208h251l-5 -56h-288q-41 0 -19 81q38 138 137 242q92 96 98 217q3 66 -19 109q-22 45 -61 46q-86 1 -111 -186z" />
    <glyph glyph-name="uni2488" unicode="&#x2488;" 
d="M402 662q-77 -67 -215 -89l-10 57q151 29 225 124h62q30 0 30 -33v-720h-92v661zM699 9v74h80v-74h-80z" />
    <glyph glyph-name="uni2489" unicode="&#x2489;" 
d="M156 526q14 103 70 164q62 66 164 66q109 0 175 -61q65 -60 59 -152q-6 -94 -68 -167q-40 -45 -135 -110q-138 -96 -179 -210h393l-8 -56h-437q-59 0 -29 82q57 133 213 243q74 53 104 89q48 56 53 128q5 66 -34 110q-40 46 -108 45q-128 0 -160 -186zM699 9v74h80v-74
h-80z" />
    <glyph glyph-name="uni248A" unicode="&#x248a;" 
d="M207 144q64 -84 169 -84q69 0 113 38q46 40 47 103q1 69 -47 111q-51 44 -152 47q-41 1 -41 34q0 32 39 33q169 4 171 147q0 57 -38 92t-102 35q-96 0 -148 -90l-67 30q65 118 218 118q102 0 166 -52q63 -52 63 -134q0 -64 -35 -111q-36 -47 -96 -64v-2q72 -12 118 -61
q48 -51 48 -123q0 -97 -69 -156q-69 -58 -181 -58q-161 0 -245 122zM699 9v74h80v-74h-80z" />
    <glyph glyph-name="uni248B" unicode="&#x248b;" 
d="M450 239v400q-82 -120 -245 -395l1 -5h244zM537 239h106l-8 -56h-98v-183h-87v183l-294 -1q-25 0 -31 24q-6 22 7 45q211 369 318 503h57q30 0 30 -39v-476zM779 83v-74h-80v74h80z" />
    <glyph glyph-name="uni248C" unicode="&#x248c;" 
d="M271 447q74 40 154 37q91 -3 153 -66q64 -66 64 -168q0 -116 -69 -186q-70 -70 -186 -70q-173 0 -245 159l61 30q57 -128 182 -128q80 0 124 54q42 52 42 141q0 74 -42 123q-42 50 -106 50q-100 0 -156 -62q-15 -20 -39 -11q-25 8 -23 39q3 27 31 365h389l-8 -57h-308
l-20 -248zM699 9v74h80v-74h-80z" />
    <glyph glyph-name="uni248D" unicode="&#x248d;" 
d="M504 103q42 55 42 146q0 79 -44 130q-43 50 -106 50q-66 0 -110 -50q-45 -50 -45 -125q0 -90 43 -147t112 -57q66 0 108 53zM237 398q56 96 177 93q99 -2 159 -63q63 -64 63 -172q0 -126 -63 -194q-62 -69 -175 -69q-255 0 -254 345q1 191 63 301q68 120 197 121
q180 0 222 -154l-70 -20q-33 110 -146 110q-77 0 -124 -78q-48 -80 -51 -218zM699 9v74h80v-74h-80z" />
    <glyph glyph-name="uni248E" unicode="&#x248e;" 
d="M300 1q20 439 244 693h-393l-8 57h470q18 0 25 -22q7 -23 -6 -38q-90 -102 -158 -277q-81 -208 -81 -413h-93zM699 9v74h80v-74h-80z" />
    <glyph glyph-name="uni248F" unicode="&#x248f;" 
d="M479 666q-39 43 -103 43q-61 0 -101 -43q-38 -40 -38 -95q0 -97 145 -136q131 37 133 136q1 55 -36 95zM499 314q-51 47 -133 56q-69 -9 -114 -60q-40 -46 -40 -98q0 -76 46 -119q44 -42 120 -42t122 43q46 44 46 118q0 57 -47 102zM269 405q-117 50 -117 163
q0 83 61 139q64 57 165 57q102 0 166 -59q60 -55 60 -137q0 -56 -31 -101q-32 -44 -83 -62v-2q66 -20 108 -73q41 -54 41 -118q0 -101 -72 -160q-71 -58 -189 -58t-188 60q-68 60 -68 158q0 61 41 115q42 55 106 76v2zM699 9v74h80v-74h-80z" />
    <glyph glyph-name="uni2490" unicode="&#x2490;" 
d="M267 650q-42 -55 -42 -146q0 -79 44 -131q43 -50 106 -50q66 0 110 50q45 51 45 126q0 90 -43 147t-112 56q-67 0 -108 -52zM534 355q-55 -96 -177 -93q-99 2 -159 63q-63 64 -63 171q0 126 63 195q62 68 175 69q255 0 254 -345q-1 -191 -63 -302q-68 -120 -197 -120
q-180 0 -222 154l70 20q33 -110 146 -110q77 0 124 78q48 79 51 218zM699 9v74h80v-74h-80z" />
    <glyph glyph-name="uni2491" unicode="&#x2491;" 
d="M197 662q-51 -47 -142 -69l-11 57q93 25 153 104h62q29 0 29 -33v-720h-91v661zM727 615q-42 84 -108 84q-67 0 -107 -84q-42 -87 -42 -237q0 -155 44 -244q41 -83 105 -83q65 0 108 84q45 89 45 243q0 149 -45 237zM796 84q-63 -92 -177 -92q-110 0 -174 93
q-69 101 -69 293q0 191 72 291q64 90 171 90q109 0 174 -90q71 -100 71 -291q0 -195 -68 -294zM860 9v74h74v-74h-74z" />
    <glyph glyph-name="uni2492" unicode="&#x2492;" 
d="M606 662q-51 -47 -142 -69l-11 57q93 25 153 104h62q29 0 29 -33v-720h-91v661zM199 662q-50 -47 -142 -69l-10 57q91 25 152 104h62q30 0 30 -33v-720h-92v661zM860 9v74h74v-74h-74z" />
    <glyph glyph-name="uni2493" unicode="&#x2493;" 
d="M359 526q37 230 235 230q109 0 175 -61q64 -60 59 -152q-5 -96 -68 -168q-38 -43 -135 -109q-138 -96 -179 -210h378l-8 -56h-422q-59 0 -29 82q57 133 213 243q74 53 104 89q48 56 53 128q5 66 -34 110q-40 46 -108 45q-128 0 -160 -186zM189 662q-50 -47 -142 -69
l-10 57q91 25 152 104h62q30 0 30 -33v-720h-92v661zM860 9v74h74v-74h-74z" />
    <glyph glyph-name="uni2494" unicode="&#x2494;" 
d="M411 144q64 -84 169 -84q69 0 113 38q46 40 47 103q1 70 -47 111q-52 45 -152 47q-41 1 -41 34q0 32 39 33q169 4 171 147q0 56 -38 92q-39 35 -102 35q-93 0 -148 -90l-67 30q65 118 218 118q102 0 165 -52t63 -134q0 -64 -35 -111t-95 -64v-2q72 -12 117 -61
q48 -51 48 -123q0 -98 -69 -156q-68 -58 -180 -58q-161 0 -245 122zM189 662q-50 -47 -142 -69l-10 57q91 25 152 104h62q30 0 30 -33v-720h-92v661zM860 9v74h74v-74h-74z" />
    <glyph glyph-name="uni2495" unicode="&#x2495;" 
d="M251 754q30 0 30 -33v-720h-92v661q-50 -47 -142 -69l-10 57q91 25 152 104h62zM654 239v400q-90 -130 -246 -395l2 -5h244zM741 239h106l-8 -56h-98v-183h-87v183l-294 -1q-26 0 -32 24q-6 22 8 45q211 369 318 503h57q30 0 30 -39v-476zM934 83v-74h-74v74h74z" />
    <glyph glyph-name="uni2496" unicode="&#x2496;" 
d="M475 447q74 40 154 37q91 -3 153 -66q64 -66 64 -168q0 -116 -69 -186q-70 -70 -186 -70q-173 0 -245 159l61 30q57 -128 182 -128q80 0 124 54q42 52 42 141q0 74 -42 123q-42 50 -107 50q-99 0 -155 -62q-15 -20 -39 -11q-25 8 -23 39q3 27 30 365h390l-8 -57h-308
l-20 -248zM189 662q-50 -47 -142 -69l-10 57q91 25 152 104h62q30 0 30 -33v-720h-92v661zM860 9v74h74v-74h-74z" />
    <glyph glyph-name="uni2497" unicode="&#x2497;" 
d="M708 103q42 55 42 146q0 79 -44 130q-43 50 -106 50q-66 0 -110 -50q-45 -50 -45 -125q0 -90 43 -147t112 -57q66 0 108 53zM441 398q54 96 176 93q99 -2 160 -63q63 -64 63 -172q0 -126 -63 -194q-62 -69 -175 -69q-257 0 -254 345q1 191 63 301q68 120 196 121
q176 0 223 -154l-70 -20q-33 110 -146 110q-77 0 -124 -78q-48 -80 -51 -218zM189 662q-50 -47 -142 -69l-10 57q91 25 152 104h62q30 0 30 -33v-720h-92v661zM860 9v74h74v-74h-74z" />
    <glyph glyph-name="uni2498" unicode="&#x2498;" 
d="M504 1q20 439 244 693h-393l-8 57h470q18 0 25 -22q7 -23 -6 -38q-90 -101 -158 -277q-81 -208 -81 -413h-93zM189 662q-50 -47 -142 -69l-10 57q91 25 152 104h62q30 0 30 -33v-720h-92v661zM860 9v74h74v-74h-74z" />
    <glyph glyph-name="uni2499" unicode="&#x2499;" 
d="M695 666q-40 43 -104 43q-61 0 -101 -43q-38 -40 -38 -95q0 -97 146 -136q131 37 133 136q1 55 -36 95zM714 314q-51 47 -133 56q-69 -9 -113 -60q-40 -46 -40 -98q0 -76 45 -119q44 -42 121 -42q75 0 121 43q46 44 46 118q0 57 -47 102zM485 405q-117 50 -117 163
q0 83 61 139q64 57 165 57t165 -59q60 -55 60 -137q0 -56 -31 -101q-31 -44 -83 -62v-2q67 -20 108 -73q42 -53 42 -118q0 -101 -72 -160q-71 -58 -189 -58t-188 60q-69 60 -69 158q0 61 41 115q42 55 107 76v2zM189 662q-50 -47 -142 -69l-10 57q91 25 152 104h62
q30 0 30 -33v-720h-92v661zM860 9v74h74v-74h-74z" />
    <glyph glyph-name="uni249A" unicode="&#x249a;" 
d="M483 650q-42 -54 -42 -146q0 -79 43 -131q43 -50 106 -50q66 0 110 50q45 51 45 126q0 90 -42 147q-43 57 -112 56q-67 0 -108 -52zM749 355q-53 -96 -176 -93q-99 2 -159 63q-63 64 -63 171q0 126 62 195q62 68 175 69q256 0 255 -345q-2 -191 -64 -302
q-68 -120 -196 -120q-172 0 -223 154l71 20q32 -110 145 -110q77 0 124 78q48 79 51 218zM189 662q-50 -47 -142 -69l-10 57q91 25 152 104h62q30 0 30 -33v-720h-92v661zM860 9v74h74v-74h-74z" />
    <glyph glyph-name="uni249B" unicode="&#x249b;" 
d="M860 9v74h74v-74h-74zM782 614q-31 84 -86 84t-89 -84q-36 -88 -36 -237q0 -154 37 -243q34 -83 87 -83t85 82q34 87 34 243q0 153 -32 238zM843 84q-52 -92 -147 -92q-93 0 -147 92q-59 101 -59 293q0 193 57 290q53 90 149 90q203 0 203 -381q0 -194 -56 -292zM67 526
q36 229 208 230q96 1 150 -61q53 -59 48 -152q-9 -152 -170 -277q-124 -95 -160 -208h343l-7 -56h-381q-52 0 -25 81q48 130 189 242q122 99 130 217q4 65 -28 109q-34 45 -89 46q-112 1 -144 -186z" />
    <glyph glyph-name="uni3000" unicode="&#x3000;" horiz-adv-x="500" 
 />
    <glyph glyph-name="uni3001" unicode="&#x3001;" 
d="M194 239q101 -97 219 -234l-67 -56q-107 153 -195 255z" />
    <glyph glyph-name="uni3002" unicode="&#x3002;" 
d="M162 238q42 41 103 41q62 0 102 -42q40 -41 40 -104q0 -60 -41 -101t-103 -41q-63 0 -104 43q-40 41 -40 102t43 102zM194 67q28 -29 68 -29t68 28t28 69t-27 69t-67 28q-41 0 -69 -28q-29 -28 -29 -68q0 -41 28 -69z" />
    <glyph glyph-name="uni3005" unicode="&#x3005;" 
d="M764 560q31 0 39 -22t-10 -44q-174 -222 -254 -317q77 -55 141 -106l-54 -84q-147 136 -329 275l38 52q74 -46 141 -93q92 138 182 284h-279q-101 -128 -228 -246l-45 54q182 192 326 468l110 -37q-54 -92 -121 -184h343z" />
    <glyph glyph-name="uni3006" unicode="&#x3006;" 
d="M625 407q131 -102 185 -155l-61 -72q-60 55 -178 157l-278 -365l-78 17l-62 368l83 14l40 -274l228 297q-134 113 -199 158l44 51q62 -33 206 -143l243 317l69 -52z" />
    <glyph glyph-name="uni3007" unicode="&#x3007;" 
d="M199 672q123 124 298 124t299 -124q123 -123 123 -299t-124 -299q-123 -123 -298 -123t-298 124q-123 123 -123 298q0 176 123 299zM257 120q95 -111 240 -111q143 0 238 112q90 106 90 252q0 150 -89 255q-94 110 -239 110q-144 0 -239 -111q-91 -106 -91 -254t90 -253z
" />
    <glyph glyph-name="uni3008" unicode="&#x3008;" 
d="M485 377l238 478h72l-243 -478l243 -469h-72z" />
    <glyph glyph-name="uni3009" unicode="&#x3009;" 
d="M517 387l-238 -479h-71l242 479l-243 468h72z" />
    <glyph glyph-name="uni300A" unicode="&#x300a;" 
d="M476 381l235 481h64l-238 -481l238 -487h-64zM641 381l235 481h64l-238 -481l238 -487h-64z" />
    <glyph glyph-name="uni300B" unicode="&#x300b;" 
d="M262 862l238 -481l-235 -487h-64l238 487l-241 481h64zM102 862l238 -481l-235 -487h-64l238 487l-236 481h59z" />
    <glyph glyph-name="uni300C" unicode="&#x300c;" 
d="M788 774h-227v-835h-87v897h314v-62z" />
    <glyph glyph-name="uni300D" unicode="&#x300d;" 
d="M174 -13h227v838h87v-900h-314v62z" />
    <glyph glyph-name="uni300E" unicode="&#x300e;" 
d="M841 730v72h-302v-821h107v749h195zM503 837h374v-141h-194v-750h-180v891z" />
    <glyph glyph-name="uni300F" unicode="&#x300f;" 
d="M163 29v-72h301v803h-107v-731h-194zM500 -78h-374v141h194v732h180v-873z" />
    <glyph glyph-name="uni3010" unicode="&#x3010;" 
d="M951 837q-212 -165 -212 -453q0 -287 212 -454v-7h-324v922h324v-8z" />
    <glyph glyph-name="uni3011" unicode="&#x3011;" 
d="M43 -70q212 168 212 454q0 287 -212 453v8h324v-922h-324v7z" />
    <glyph glyph-name="uni3013" unicode="&#x3013;" 
d="M188 295h619v-227h-619v227zM188 673h619v-227h-619v227z" />
    <glyph glyph-name="uni3014" unicode="&#x3014;" 
d="M731 836l-2 -59l-146 -77v-639l153 -80v-58l-236 119v674z" />
    <glyph glyph-name="uni3015" unicode="&#x3015;" 
d="M267 -77l3 59l146 77v639l-154 81v57l237 -119v-674z" />
    <glyph glyph-name="uni3220" unicode="&#x3220;" 
d="M130 409h737l-7 -55h-725zM737 -64q174 193 174 444q0 246 -176 446l37 26q205 -208 205 -472q0 -268 -205 -469zM262 826q-174 -191 -174 -443q0 -245 176 -447l-37 -25q-205 208 -205 472q0 268 205 469z" />
    <glyph glyph-name="uni3221" unicode="&#x3221;" 
d="M737 -64q174 193 174 444q0 246 -176 446l37 26q205 -208 205 -472q0 -268 -205 -469zM262 826q-174 -191 -174 -443q0 -245 176 -447l-37 -25q-205 208 -205 472q0 268 205 469zM154 154h691l-7 -53h-680zM239 644h521l-7 -52h-509z" />
    <glyph glyph-name="uni3222" unicode="&#x3222;" 
d="M170 72q40 -75 94 -136l-37 -25q-205 208 -205 472q0 268 205 469l35 -26q-174 -191 -174 -443q0 -151 75 -298l-3 38h679l-7 -51h-662zM781 629h-566l-5 50h578zM258 361l-4 50h491l-7 -50h-480zM772 852q205 -208 205 -472q0 -268 -205 -469l-35 25q174 193 174 444
q0 246 -176 446z" />
    <glyph glyph-name="uni3223" unicode="&#x3223;" 
d="M262 826q-174 -191 -174 -443q0 -245 176 -447l-37 -25q-205 208 -205 472q0 268 205 469zM249 123h496v146h-154q-50 0 -50 56v298h-96q-10 -278 -143 -422l-44 21q102 133 105 401h-114v-500zM745 623h-124v-309h124v309zM172 677h579q40 0 56 -15q16 -14 16 -49v-544
h-651v608zM772 852q205 -208 205 -472q0 -268 -205 -469l-35 25q174 193 174 444q0 246 -176 446z" />
    <glyph glyph-name="uni3224" unicode="&#x3224;" 
d="M438 106h222l10 295h-204zM772 852q205 -208 205 -472q0 -268 -205 -469l-35 25q49 56 86 120h-644q36 -63 85 -120l-37 -25q-205 208 -205 472q0 268 205 469l35 -26q-174 -191 -174 -443q0 -155 78 -303l-3 26h185l28 295h-151l-4 50h160l18 183h-204l-5 50h606l-7 -50
h-300l-18 -183h259q35 0 32 -29l-15 -316h86l-6 -44q84 150 84 318q0 246 -176 446z" />
    <glyph glyph-name="uni3225" unicode="&#x3225;" 
d="M456 545v198h93v-198h293l-7 -52h-682l-4 52h307zM262 826q-174 -191 -174 -443q0 -245 176 -447l-37 -25q-205 208 -205 472q0 268 205 469zM165 82q108 160 179 340l92 -32q-91 -192 -216 -340zM772 852q205 -208 205 -472q0 -268 -205 -469l-35 25q63 69 105 156
l-74 -50q-135 241 -193 340l59 36q112 -156 215 -313q62 132 62 275q0 246 -176 446z" />
    <glyph glyph-name="uni3226" unicode="&#x3226;" 
d="M262 826q-174 -191 -174 -443q0 -245 176 -447l-37 -25q-205 208 -205 472q0 268 205 469zM784 46h-316q-57 0 -78 21q-20 20 -20 72v257l-228 -28l-11 55l239 29v286h94v-275l358 44l-2 -56l-356 -44v-313h326zM772 852q205 -208 205 -472q0 -268 -205 -469l-35 25
q174 193 174 444q0 246 -176 446z" />
    <glyph glyph-name="uni3227" unicode="&#x3227;" 
d="M451 718q-45 -397 -237 -660l-48 21q44 -82 98 -143l-37 -25q-205 208 -205 472q0 268 205 469l35 -26q-174 -191 -174 -443q0 -146 70 -289q153 257 189 632zM772 852q205 -208 205 -472q0 -268 -205 -469l-35 25q65 71 108 160l-94 -46q-152 264 -195 676l66 12
q60 -381 227 -633q62 135 62 275q0 246 -176 446z" />
    <glyph glyph-name="uni3228" unicode="&#x3228;" 
d="M262 826q-174 -191 -174 -443q0 -245 176 -447l-37 -25q-205 208 -205 472q0 268 205 469zM772 852q205 -208 205 -472q0 -268 -205 -469l-35 25q50 56 84 116h-169q-64 0 -61 67l9 399h-148q-35 -307 -222 -482l-48 28q151 166 176 454h-186v55h190q4 71 4 170h98
q-2 -99 -7 -170h203q37 0 36 -38l-11 -437h145l-6 -41q87 154 87 323q0 246 -176 446z" />
    <glyph glyph-name="uni3229" unicode="&#x3229;" 
d="M262 826q-174 -191 -174 -443q0 -245 176 -447l-37 -25q-205 208 -205 472q0 268 205 469zM550 400v-392h-98v392h-308l-5 50h313v291h98v-291h303l-8 -50h-295zM772 852q205 -208 205 -472q0 -268 -205 -469l-35 25q174 193 174 444q0 246 -176 446z" />
    <glyph glyph-name="uni3231" unicode="&#x3231;" 
d="M263 827q-175 -192 -175 -443q-1 -244 174 -447l-37 -26q-204 211 -203 473q1 268 206 469zM384 283q-46 74 -69 107v-381h-77v336q-38 -84 -89 -165l-30 80q71 129 102 275h-82l-3 46h102v175h77v-175h89l-5 -46h-84v-92l17 14q63 -68 107 -124zM808 117
q-88 85 -144 206v-316h-79v296q-73 -124 -183 -212l-44 43q117 108 180 252h-138l-3 46h188v124h-94q-18 -45 -42 -100l-47 23q34 107 53 225l83 -5q-12 -44 -30 -98h77v158h79v-158h153l-6 -45h-147v-124h190l-6 -46h-149q67 -126 173 -214zM773 851q205 -209 204 -472
q-1 -268 -206 -469l-35 26q175 192 175 443q1 244 -174 447z" />
    <glyph glyph-name="uni32A3" unicode="&#x32a3;" 
d="M831 157l-7 -49h-651l-4 49h117v336h80v-336h118v445h-267l-4 50h594l-7 -50h-232v-186h210l-6 -49h-204v-210h263zM804 76q126 126 126 304t-127 304q-126 126 -304 126q-178 -1 -303 -126q-126 -126 -126 -304t126 -304t304 -126t304 126zM826 706q135 -135 135 -326
t-135 -326t-326 -135t-326 135t-135 326t135 326q134 135 325 135t327 -135z" />
    <glyph glyph-name="uni338E" unicode="&#x338e;" 
d="M775 471q-38 47 -82 42q-38 -5 -67 -66t-29 -137q0 -91 30 -152q28 -58 66 -60q49 -3 85 52q13 21 20 68q12 96 0 190q-6 40 -23 63zM572 -29q42 -106 120 -106q113 0 113 166v75h-2q-53 -73 -123 -67q-68 5 -111 77q-46 74 -46 192q0 112 49 188q49 75 121 77
q69 1 110 -64h2l7 50h70v-518q0 -107 -46 -168q-50 -65 -142 -65q-115 0 -174 137zM154 486q23 82 80 82t75 -92q18 92 94 92q82 0 82 -196v-372h-60v362q0 80 -9 112q-10 33 -35 33q-34 0 -48 -64q-5 -22 -5 -80v-363h-74v371q0 134 -46 134q-27 0 -44 -53q-8 -29 -8 -86
v-366h-77v560h70l4 -74h1z" />
    <glyph glyph-name="uni338F" unicode="&#x338f;" 
d="M288 319l-81 -95v-224h-77v754h77v-459l224 272h67l-167 -197l186 -370h-78zM779 408q-6 40 -24 63q-36 47 -81 42q-38 -5 -67 -66t-29 -137q0 -91 30 -152q28 -58 66 -60q49 -3 85 52q13 21 20 68q12 96 0 190zM862 559v-518q0 -107 -46 -168q-49 -65 -141 -65
q-115 0 -174 137l52 26q42 -106 120 -106q113 0 113 166v75h-2q-53 -73 -123 -67q-68 5 -111 77q-46 74 -46 192q0 112 49 188q49 75 121 77q69 1 110 -64h2l7 50h69z" />
    <glyph glyph-name="uni339C" unicode="&#x339c;" 
d="M604 487q23 82 78 82q56 0 74 -92q16 92 91 92q82 0 82 -196v-373h-59v363q0 79 -9 112q-10 33 -34 33q-34 0 -48 -64q-5 -22 -5 -80v-364h-74v372q0 134 -42 134q-27 0 -44 -53q-8 -29 -8 -86v-367h-74v561h68l3 -74h1zM151 487q25 82 78 82q56 0 74 -92q18 92 92 92
q81 0 81 -196v-373h-58v363q0 145 -44 145q-35 0 -47 -64q-6 -26 -6 -80v-364h-74v372q0 134 -42 134q-28 0 -43 -53q-9 -28 -9 -86v-367h-74v561h68l3 -74h1z" />
    <glyph glyph-name="uni339D" unicode="&#x339d;" 
d="M580 487q23 82 78 82t74 -92q16 92 91 92q81 0 81 -196v-373h-58v363q0 80 -9 112q-10 33 -35 33q-33 0 -47 -64q-6 -26 -6 -80v-364h-74v372q0 134 -42 134q-28 0 -43 -53q-9 -28 -9 -86v-367h-73v561h67l3 -74h2zM389 384q-26 131 -97 128q-42 -2 -70 -64
q-29 -64 -29 -166q0 -99 30 -162q28 -61 71 -63q86 -2 99 149l58 -10q-21 -204 -163 -200q-78 3 -126 87q-46 80 -46 203q0 127 52 207q50 77 123 77q118 0 156 -170z" />
    <glyph glyph-name="uni339E" unicode="&#x339e;" 
d="M587 487q23 82 78 82q56 0 74 -92q16 92 91 92q81 0 81 -196v-373h-58v363q0 79 -9 112q-10 33 -34 33q-34 0 -48 -64q-5 -22 -5 -80v-364h-74v372q0 134 -42 134q-27 0 -44 -53q-8 -29 -8 -86v-367h-150l-151 319l-81 -95v-224h-77v754h77v-459l224 272h67l-167 -197
l184 -366v557h68l3 -74h1z" />
    <glyph glyph-name="uni33A1" unicode="&#x33a1;" 
d="M160 475q45 79 159 79q120 0 153 -90q40 90 168 90q71 0 111 -48q42 -50 42 -143v-363h-59v354q0 144 -110 144q-75 0 -111 -58q-20 -33 -20 -86v-354h-92v362q0 64 -34 101q-32 35 -80 35q-64 0 -100 -51q-24 -36 -24 -89v-358h-91v547h80l6 -72h2zM697 727q11 80 84 81
q40 0 63 -22q22 -22 19 -56q-3 -44 -58 -84q-43 -31 -62 -56h126l-7 -33h-165v33q21 35 82 81q39 31 39 65q1 41 -39 39q-36 0 -44 -57z" />
    <glyph glyph-name="uni33C4" unicode="&#x33c4;" 
d="M800 384q-28 131 -98 128q-41 -2 -69 -64q-29 -65 -29 -166q0 -99 30 -162q28 -61 71 -63q84 -2 99 149l58 -10q-22 -204 -163 -200q-78 3 -126 87q-46 80 -46 203q0 127 52 207q50 77 123 77q117 0 155 -170zM399 384q-28 131 -97 128q-42 -2 -70 -64q-29 -64 -29 -166
q0 -99 30 -162q28 -61 71 -63q84 -2 99 149l58 -10q-22 -204 -163 -200q-78 3 -126 87q-46 80 -46 203q0 127 52 207q50 77 123 77q117 0 155 -170z" />
    <glyph glyph-name="uni33CE" unicode="&#x33ce;" 
d="M436 753l-148 -279l131 -473h-78l-96 395l-55 -101v-295h-86v754h86v-355l187 354h59zM814 753q34 0 41 -64q3 -25 58 -688h-82l-50 617h-1l-75 -555h-59q-23 0 -28 36l-79 509h-1l-29 -607h-56l40 752h64q24 0 31 -39l86 -546h2l80 585h58z" />
    <glyph glyph-name="uni33D1" unicode="&#x33d1;" 
d="M289 48h111l-6 -47h-102q-55 0 -72 20q-16 17 -16 69v663h85v-705zM545 487q45 86 138 86q63 0 102 -45q42 -48 42 -133v-395h-60v376q0 139 -95 139q-59 0 -99 -58q-24 -35 -24 -96v-361h-82v559h72l3 -72h3z" />
    <glyph glyph-name="uni33D2" unicode="&#x33d2;" 
d="M186 48h100l-6 -47h-89q-55 0 -72 20q-16 17 -16 69v663h83v-705zM345 124q24 -62 56 -61q32 0 54 61q24 65 24 166q0 95 -24 159q-23 62 -55 61q-36 -1 -58 -66q-21 -63 -21 -158q0 -97 24 -162zM293 488q42 83 105 84q66 1 110 -84q42 -80 42 -195q0 -128 -42 -210
q-42 -81 -106 -82t-108 81t-44 203q0 120 43 203zM795 464q-29 46 -70 42q-31 -2 -53 -66q-21 -62 -21 -143q0 -98 21 -158t54 -62q44 -2 70 54q15 30 20 75q11 95 0 188q-8 49 -21 70zM629 -42q46 -108 101 -108q93 0 93 158v78h-2q-27 -41 -44 -53q-25 -19 -63 -17
q-58 3 -97 78q-40 79 -40 201q0 115 42 194q41 78 102 81q59 3 100 -67h2l7 52h65v-537q0 -227 -161 -227q-103 0 -157 142z" />
    <glyph glyph-name="uni33D5" unicode="&#x33d5;" 
d="M167 489q23 81 78 81q57 0 74 -92q16 92 91 92q81 0 81 -196v-373h-58v363q0 80 -9 112q-10 33 -35 33q-33 0 -47 -63q-5 -22 -5 -81v-364h-74v372q0 134 -42 134q-29 0 -44 -52q-8 -26 -8 -86v-368h-74v562h67l4 -74h1zM646 738v-86h-76v86h76zM570 0v566h76v-566h-76z
M813 48h101l-6 -47h-89q-55 0 -73 20q-16 17 -16 69v663h83v-705z" />
    <glyph glyph-name="uni4E00" unicode="&#x4e00;" 
d="M43 474h912l-9 -59h-898z" />
    <glyph glyph-name="uni4E01" unicode="&#x4e01;" 
d="M947 693h-373v-664q0 -97 -105 -97h-155l-7 49h165v712h-416l-5 55h905z" />
    <glyph glyph-name="uni4E03" unicode="&#x4e03;" 
d="M453 23h448l-7 -51h-431q-59 0 -84 25q-24 24 -24 78v343l-302 -55l-14 54l316 57v372h98v-354l490 89l1 -56l-491 -89v-413z" />
    <glyph glyph-name="uni4E07" unicode="&#x4e07;" 
d="M458 686q-9 -114 -25 -202h335q38 -3 38 -37v-405q0 -47 -27 -66q-23 -15 -71 -15h-221l-8 47h226v419h-283q-70 -317 -320 -516l-46 41q155 138 219 316q54 149 72 418h-275l-5 56h872l-8 -56h-473z" />
    <glyph glyph-name="uni4E08" unicode="&#x4e08;" 
d="M904 -71q-294 47 -460 187q-131 -126 -372 -196l-26 55q225 75 339 197q-120 131 -191 350l59 24q69 -197 183 -310q92 133 120 360h-489l-5 56h500q8 75 11 190h105q-5 -111 -13 -190h276l-8 -56h-275q-37 -264 -155 -416q156 -114 440 -150z" />
    <glyph glyph-name="uni4E09" unicode="&#x4e09;" 
d="M52 91h896l-9 -56h-882zM187 426h622l-7 -55h-611zM127 727h737l-8 -55h-724z" />
    <glyph glyph-name="uni4E0A" unicode="&#x4e0a;" 
d="M955 46l-9 -55h-894l-4 55h352v790h99v-327h373l-7 -54h-366v-409h456z" />
    <glyph glyph-name="uni4E0B" unicode="&#x4e0b;" 
d="M585 521q163 -129 305 -251l-65 -85q-158 161 -285 284zM953 746l-9 -55h-433v-776h-99v776h-348l-5 55h894z" />
    <glyph glyph-name="uni4E0C" unicode="&#x4e0c;" 
d="M940 665h-197v-748h-97v748h-239q-11 -275 -69 -437q-66 -182 -223 -320l-50 36q130 131 181 308q43 150 49 413h-223l-5 56h882z" />
    <glyph glyph-name="uni4E0D" unicode="&#x4e0d;" 
d="M641 691q-47 -68 -91 -123v-654h-101v538q-161 -173 -365 -304l-49 57q288 206 472 486h-413l-5 57h827l-8 -57h-267zM600 494q243 -163 368 -253l-57 -87q-188 157 -351 285z" />
    <glyph glyph-name="uni4E0E" unicode="&#x4e0e;" 
d="M681 179h-638l-4 52h649zM318 651l-27 -203h498q40 0 40 -35v-402q0 -45 -24 -63q-20 -15 -65 -15h-241l-8 45h247v418h-546l58 442h93l-18 -135h571l-7 -52h-571z" />
    <glyph glyph-name="uni4E10" unicode="&#x4e10;" 
d="M541 712v-160h327l-6 -52h-321v-172h301q41 0 41 -34v-291q0 -43 -25 -60q-21 -13 -67 -13h-223l-8 45h228v300h-657l46 327h89l-39 -274h220v384h-370l-5 53h870l-8 -53h-393z" />
    <glyph glyph-name="uni4E11" unicode="&#x4e11;" 
d="M405 59h271l10 319h-251zM440 432h248l8 260h-232zM958 59l-8 -54h-901l-5 54h262l30 319h-187l-5 54h197l24 260h-229l-4 55h638q37 -2 34 -40l-30 -648h184z" />
    <glyph glyph-name="uni4E13" unicode="&#x4e13;" 
d="M402 454l-40 -126h421q33 0 41 -26q7 -26 -16 -44q-144 -116 -246 -191q98 -36 192 -72l-42 -88q-311 138 -514 222l37 55q102 -35 249 -89q102 93 191 180h-425l57 179h-265l-5 54h287l48 152h-243l-4 53h264l42 134h96l-43 -134h378l-8 -53h-386l-49 -152h543l-8 -54
h-552z" />
    <glyph glyph-name="uni4E14" unicode="&#x4e14;" 
d="M304 34h383v194h-383v-194zM304 712v-187h383v187h-383zM304 282h383v189h-383v-189zM964 34l-9 -54h-912l-5 54h171v732h539q41 0 41 -45v-687h175z" />
    <glyph glyph-name="uni4E15" unicode="&#x4e15;" 
d="M443 486q-164 -167 -375 -283l-42 60q282 180 453 444h-376l-5 55h799l-8 -55h-264q-39 -58 -82 -109v-509h-100v397zM607 537q210 -158 347 -269l-70 -76q-211 196 -324 297zM69 41h866l-9 -55h-852z" />
    <glyph glyph-name="uni4E16" unicode="&#x4e16;" 
d="M503 494v-249h176v249h-176zM504 199q-56 0 -75 19q-18 18 -18 69v207h-136v-446h654l-8 -53h-633q-117 0 -117 112v387h-133l-5 56h138v229h104v-229h136v275h92v-275h176v288h93v-288h204l-8 -56h-196v-295h-268z" />
    <glyph glyph-name="uni4E18" unicode="&#x4e18;" 
d="M308 64h284v338h-284v-338zM963 64l-9 -56h-912l-5 56h172v621h1q322 63 552 142l45 -94q-219 -57 -499 -93v-183h592l-7 -55h-204v-338h274z" />
    <glyph glyph-name="uni4E19" unicode="&#x4e19;" 
d="M850 550q43 0 43 -38v-495q0 -83 -95 -83q-5 -1 -133 0l-8 46h138v516h-243q-28 -152 -87 -239q-64 -96 -199 -169l-35 43q104 68 152 155q41 75 62 210h-234v-581h-94v635h334v163h-328l-5 56h781l-8 -56h-340v-163h299zM717 103q-112 113 -217 208l42 46
q138 -100 234 -181z" />
    <glyph glyph-name="uni4E1A" unicode="&#x4e1a;" 
d="M931 585q-88 -201 -209 -371l-62 30q104 182 172 371zM236 222q-136 307 -164 368l63 29q100 -176 192 -353zM965 40l-9 -56h-905l-5 56h289v771h98v-771h125v789h97v-789h310z" />
    <glyph glyph-name="uni4E1B" unicode="&#x4e1b;" 
d="M379 90q220 266 248 748l107 -5q-10 -140 -40 -273q105 -266 281 -435l-91 -67q-138 156 -223 385q-72 -218 -224 -384zM436 276q-73 110 -128 190q-68 -215 -210 -377l-59 30q204 255 225 711l106 -5q-11 -153 -40 -278q110 -123 179 -214zM66 30h863l-8 -55h-850z" />
    <glyph glyph-name="uni4E1C" unicode="&#x4e1c;" 
d="M377 226q-136 -147 -262 -269l-64 73q145 123 272 244zM574 327v-319q0 -89 -105 -89h-137l-7 47h148v361h-243q-41 0 -52 25q-10 24 9 64q48 93 121 214h-232l-4 54h268q44 73 95 162l105 -19q-59 -103 -83 -143h478l-8 -54h-502q-62 -104 -153 -249h201v182h101v-182
h311l-7 -54h-304zM690 273q169 -156 264 -250l-74 -62q-175 200 -242 273z" />
    <glyph glyph-name="uni4E1D" unicode="&#x4e1d;" 
d="M567 463q-35 0 -45 21q-9 20 7 54l163 309l96 -26q-57 -108 -172 -305h136q29 37 114 149l87 -45q-105 -138 -318 -393h282l-6 -53h-324q-41 0 -50 27t17 60l156 202h-143zM149 478q-69 0 -38 70q28 60 74 146l80 152l95 -20q-91 -174 -162 -295h123q45 63 100 145
l91 -37q-99 -144 -291 -402h249l-6 -52h-289q-39 0 -49 25q-9 25 14 58q59 90 144 210h-135zM972 50l-8 -52h-926l-5 52h939z" />
    <glyph glyph-name="uni4E1E" unicode="&#x4e1e;" 
d="M370 567q23 0 31 -15t-3 -34q-120 -257 -309 -407l-52 44q171 159 248 361h-207l-6 51h298zM84 25h821l-8 -53h-809zM916 545q-85 -95 -195 -157q101 -120 256 -191l-70 -80q-257 134 -369 446l-3 -1v-388q0 -52 -26 -72q-22 -17 -69 -17h-141l-8 45h149v474h32
q84 60 173 128h-470l-4 53h585q35 0 42 -29t-19 -45l-91 -56q-56 -36 -91 -57q36 -87 84 -156q98 73 164 164z" />
    <glyph glyph-name="uni4E22" unicode="&#x4e22;" 
d="M511 296q-61 -65 -259 -268h474q-86 118 -141 190l58 36q134 -146 248 -279l-83 -59l-42 58h-569q-43 0 -54 28q-10 27 18 58l106 117q67 73 108 119h-325l-4 53h403v149h-311l-4 53h315v127q-158 -15 -289 -19l-10 63q359 29 659 107l31 -91q-142 -29 -296 -49v-138h331
l-8 -53h-323v-149h422l-8 -53h-447z" />
    <glyph glyph-name="uni4E24" unicode="&#x4e24;" 
d="M424 558h149v150h-149v-150zM666 558l188 1q40 0 40 -36v-509q0 -80 -89 -80h-143l-8 39h148v532h-137q-8 -85 -19 -149l5 4q70 -86 141 -187l-64 -47q-43 75 -97 163q-39 -151 -146 -267l-49 26q112 146 131 457h-138q-12 -92 -24 -145l8 5q64 -81 110 -148l-62 -44
q-48 88 -71 128q-41 -132 -142 -244l-50 26q112 145 134 422h-134v-586h-86v639h221v150h-254l-5 54h858l-8 -54h-258v-150z" />
    <glyph glyph-name="uni4E25" unicode="&#x4e25;" 
d="M454 413h119v319h-119v-319zM948 359h-717q-18 -296 -162 -455l-49 25q113 154 116 484h228v319h-242l-5 53h797l-8 -53h-243v-319h292zM239 463q-74 124 -109 180l58 28q89 -107 133 -164zM692 483q65 81 117 187l88 -34q-71 -104 -154 -182z" />
    <glyph glyph-name="uni4E27" unicode="&#x4e27;" 
d="M854 277q-90 -77 -200 -134q121 -87 318 -128l-45 -96q-197 48 -324 154q-127 105 -211 291h-86v-317q126 50 189 76l16 -62q-193 -97 -330 -158l-24 89l58 21v351h-177l-5 54h405v248h-333l-4 53h337v127h95v-127h348l-8 -53h-340v-248h127l-49 33q74 96 125 193l85 -43
q-65 -98 -156 -183h275l-8 -54h-467q57 -106 135 -177q109 72 191 158zM228 640q83 -103 132 -171l-80 -47l-108 188z" />
    <glyph glyph-name="uni4E28" unicode="&#x4e28;" 
d="M542 -79h-96v911h96v-911z" />
    <glyph glyph-name="uni4E2A" unicode="&#x4e2a;" 
d="M437 550h99v-633h-99v633zM591 819q-16 -25 -50 -73q165 -194 436 -302l-49 -90q-254 116 -428 340q-177 -214 -435 -339l-37 54q296 164 455 436z" />
    <glyph glyph-name="uni4E2B" unicode="&#x4e2b;" 
d="M157 834q159 -151 292 -290l-76 -72q-157 189 -269 318zM888 782q-165 -202 -351 -347v-520h-94v553h25q182 172 321 373z" />
    <glyph glyph-name="uni4E2C" unicode="&#x4e2c;" 
d="M426 471q-107 124 -171 192l52 41q134 -115 192 -169zM610 840v-925h-91v395q-107 -97 -229 -197l-54 80q136 98 283 216v431h91z" />
    <glyph glyph-name="uni4E2D" unicode="&#x4e2d;" 
d="M786 602h-250v-308h250v308zM439 294v308h-248v-308h248zM880 240h-344v-325h-97v325h-340v416h340v191h97v-191h266q78 0 78 -64v-352z" />
    <glyph glyph-name="uni4E30" unicode="&#x4e30;" 
d="M954 176h-415v-259h-94v259h-401l-5 54h406v174h-307l-5 54h312v165h-343l-5 54h348v167h94v-167h346l-8 -54h-338v-165h303l-7 -54h-296v-174h423z" />
    <glyph glyph-name="uni4E32" unicode="&#x4e32;" 
d="M793 310h-250v-171h250v171zM201 139h248v171h-248v-171zM252 519h197v156h-197v-156zM741 675h-198v-156h198v156zM890 88h-345v-176h-98v176h-341v273h341v109h-290v253h290v122h98v-122h225q68 0 68 -56v-197h-293v-109h273q72 0 72 -58v-215z" />
    <glyph glyph-name="uni4E34" unicode="&#x4e34;" 
d="M83 728h87v-654h-87v654zM264 842h90v-922h-90v922zM824 309h-120v-277h120v277zM514 32h109v277h-109v-277zM845 363q39 0 55 -14q15 -14 15 -48v-323h-490v385h420zM623 620q110 -112 179 -188l-68 -57q-120 160 -159 209zM944 684l-6 -55h-373q-62 -106 -156 -228
l-49 39q116 172 204 415l107 -17q-34 -79 -75 -154h348z" />
    <glyph glyph-name="uni4E36" unicode="&#x4e36;" 
d="M340 629q198 -163 388 -330l-76 -77q-202 203 -364 360z" />
    <glyph glyph-name="uni4E38" unicode="&#x4e38;" 
d="M961 5l-8 -52h-256q-68 0 -65 71l23 567h-191q-18 -138 -55 -247q116 -64 198 -112l-48 -86q-32 22 -181 120q-89 -197 -293 -341l-44 39q186 145 262 350l-146 93l35 54l134 -72q25 90 37 202h-261v53h266q7 83 10 200h105q-3 -93 -13 -200h252q41 0 40 -41l-26 -598
h225z" />
    <glyph glyph-name="uni4E39" unicode="&#x4e39;" 
d="M430 662q162 -129 212 -172l-64 -69q-133 137 -194 197zM689 378v353h-333q-3 -228 -20 -353h353zM961 323h-175v-287q0 -98 -95 -98h-164l-8 48h170v337h-361q-37 -228 -155 -409l-61 25q91 170 119 384h-187l-5 55h198q12 122 12 408h495q42 0 42 -41v-367h183z" />
    <glyph glyph-name="uni4E3A" unicode="&#x4e3a;" 
d="M309 595q-77 101 -133 170l50 38q96 -88 154 -148zM665 147q-127 131 -186 188l44 46q133 -103 204 -162zM842 572q37 -2 37 -35v-510q0 -83 -89 -83h-224l-8 45h229v527h-285q-75 -383 -376 -612l-44 40q259 215 321 572h-300l-4 56h313q16 109 24 275h105
q-11 -161 -29 -275h330z" />
    <glyph glyph-name="uni4E3B" unicode="&#x4e3b;" 
d="M952 49l-8 -55h-891l-5 55h403v269h-298l-4 54h302v217h-335l-5 54h340v190h100v-190h338l-8 -54h-332v-217h302l-7 -54h-295v-269h403z" />
    <glyph glyph-name="uni4E3D" unicode="&#x4e3d;" 
d="M234 424q107 -114 129 -139v273h-176v-162zM413 610q39 0 39 -35v-551q0 -80 -86 -80h-98l-8 41h103v274l-55 -37q-45 64 -121 168v-471h-84v691h310zM853 612q40 0 40 -37v-552q0 -82 -89 -82h-98l-7 42h102v270l-65 -43l-126 178l48 30q69 -72 143 -157v298h-192v-641
h-86v694h330zM964 761l-8 -52h-912l-5 52h925z" />
    <glyph glyph-name="uni4E3E" unicode="&#x4e3e;" 
d="M477 633l-75 199l62 19q77 -142 100 -188zM268 614q-55 98 -100 176l57 29q83 -104 124 -160zM544 289v-133h357l-8 -53h-349v-189h-92v189h-350l-5 53h355v133h-184l-4 52h188v140h92v-140h183q-92 86 -157 213h-142q-138 -207 -351 -328l-42 47q175 114 280 281h-238
l-5 53h540q54 90 114 236l99 -25q-62 -115 -133 -211h241l-8 -53h-281q112 -173 326 -257l-50 -85q-106 48 -189 124l-6 -47h-181z" />
    <glyph glyph-name="uni4E3F" unicode="&#x4e3f;" 
d="M619 831q-5 -368 -74 -548q-85 -218 -318 -349l-47 39q199 131 269 337q59 172 58 522z" />
    <glyph glyph-name="uni4E43" unicode="&#x4e43;" 
d="M857 442q43 0 43 -37v-366q0 -82 -98 -82h-256l-8 48h261v383h-203l66 313h-207q-15 -283 -94 -459q-83 -182 -263 -317l-45 40q154 130 220 306q60 160 70 430h-223l-5 56h627q17 0 26 -9q10 -10 6 -24l-68 -282h151z" />
    <glyph glyph-name="uni4E45" unicode="&#x4e45;" 
d="M702 667q30 0 40 -19q9 -19 -4 -46q-61 -140 -139 -257q128 -240 377 -349l-73 -86q-232 117 -352 369q-179 -235 -468 -362l-39 59q400 206 570 637h-252q-96 -159 -222 -291l-57 40q175 208 279 483l112 -16q-43 -95 -81 -162h309z" />
    <glyph glyph-name="uni4E47" unicode="&#x4e47;" 
d="M939 10l-7 -48h-408q-57 0 -80 22q-21 21 -21 73v294l-366 -35l-10 56l376 36v247q-145 -25 -288 -35l-15 67q345 45 624 153l43 -94q-126 -42 -269 -73v-256l397 38l-3 -57l-394 -38v-350h421z" />
    <glyph glyph-name="uni4E48" unicode="&#x4e48;" 
d="M549 783q-186 -269 -456 -449l-41 52q251 196 413 453zM835 -65l-39 70h-557q-52 0 -60 38q-8 37 32 79q177 183 507 552l88 -61q-208 -228 -528 -554h487q-63 111 -141 245l58 37q125 -175 238 -348z" />
    <glyph glyph-name="uni4E49" unicode="&#x4e49;" 
d="M500 562q-124 224 -144 258l61 30q110 -148 171 -240zM890 -84q-236 94 -395 241q-169 -157 -415 -246l-36 60q229 99 383 255q-169 190 -270 492l60 24q108 -280 270 -448q162 196 241 490l112 -20q-86 -327 -278 -540q156 -131 388 -214z" />
    <glyph glyph-name="uni4E4B" unicode="&#x4e4b;" 
d="M770 614q30 0 40 -22t-9 -43q-244 -266 -489 -432q131 -76 651 -39l-12 -102q-315 -13 -469 11q-145 22 -228 93q-62 -40 -142 -84l-36 59q356 213 599 508h-572l-7 51h325v205h98v-205h251z" />
    <glyph glyph-name="uni4E4C" unicode="&#x4e4c;" 
d="M749 134h-691l-4 52h702zM866 365q41 0 41 -35v-331q0 -44 -25 -61q-21 -13 -67 -13h-224l-8 45h229v344h-628l23 405h180q12 44 31 126l111 -6q-22 -49 -60 -120h284q41 0 41 -33v-182q0 -40 -25 -54q-19 -10 -67 -10h-162l-8 43h167v183h-406l-17 -301h590z" />
    <glyph glyph-name="uni4E4D" unicode="&#x4e4d;" 
d="M463 624v-169h395l-6 -54h-389v-171h435l-7 -55h-428v-262h-97v711h-25q-100 -148 -231 -270l-55 46q187 201 295 454l114 -19q-45 -89 -88 -157h557l-8 -54h-462z" />
    <glyph glyph-name="uni4E4E" unicode="&#x4e4e;" 
d="M953 297h-393v-271q0 -97 -103 -97h-160l-7 49h172v319h-407l-5 56h412v331q-157 -15 -287 -19l-12 64q342 30 624 105l33 -94q-117 -25 -260 -44v-343h402zM220 637q120 -129 180 -199l-80 -52q-89 126 -156 218zM620 419q94 119 160 249l87 -40q-83 -134 -194 -243z
" />
    <glyph glyph-name="uni4E4F" unicode="&#x4e4f;" 
d="M837 730q-331 -83 -695 -96l-12 68q370 34 669 129zM787 473q27 0 32 -21q6 -21 -17 -40q-271 -208 -460 -318q165 -75 614 -35l-11 -109q-475 -29 -669 107q-67 -37 -126 -65l-18 75q253 136 510 358h-511l-6 48h326v143h96v-143h240z" />
    <glyph glyph-name="uni4E50" unicode="&#x4e50;" 
d="M375 270q-146 -183 -249 -301l-73 66q138 141 262 278zM567 373v-360q0 -93 -105 -93h-145l-7 48h155v405h-326l51 375h84q297 37 517 90l37 -96q-251 -42 -548 -56l-36 -259h221v219h102v-219h349l-7 -54h-342zM685 312q141 -146 247 -264l-82 -61q-193 251 -222 287z
" />
    <glyph glyph-name="uni4E52" unicode="&#x4e52;" 
d="M312 270h284v222h-284v-222zM957 216h-560l60 -77q-177 -140 -356 -228l-34 59q168 106 318 246h-342l-5 54h178v453h21q317 54 547 117l47 -93q-241 -46 -519 -72v-130h578l-7 -53h-192v-222h275z" />
    <glyph glyph-name="uni4E53" unicode="&#x4e53;" 
d="M592 189q225 -119 351 -191l-57 -87q-174 120 -336 224zM304 256h287v238h-287v-238zM962 256l-8 -53h-913l-4 53h171v483h43q298 45 543 105l46 -93q-250 -44 -536 -65v-138h585l-8 -54h-196v-238h277z" />
    <glyph glyph-name="uni4E54" unicode="&#x4e54;" 
d="M920 214q-132 42 -228 125v-423h-94v447h67q-63 60 -113 146h-99q-52 -81 -127 -148h85q-11 -171 -61 -269q-55 -108 -179 -178l-37 37q93 65 133 160q36 86 42 235q-99 -84 -230 -136l-41 53q191 85 303 246h-265l-5 53h303q38 65 65 142q-132 -10 -267 -12l-9 61
q340 22 624 85l27 -89q-137 -22 -260 -35q-32 -87 -69 -152h445l-8 -53h-292q113 -147 336 -205z" />
    <glyph glyph-name="uni4E56" unicode="&#x4e56;" 
d="M278 510h87v-444h-87v122q-105 -39 -210 -73l-16 84q117 27 226 57v100h-194l-4 53h198v101zM712 117h221l-6 -45h-215q-56 0 -74 18q-18 17 -18 68v351h92v-170q92 53 167 116l52 -71q-104 -71 -219 -117v-150zM948 607l-8 -53h-402v-641h-94v641h-389l-4 53h393v104
q-129 -10 -248 -11l-9 61q309 20 581 83l29 -89q-130 -23 -259 -36v-112h410z" />
    <glyph glyph-name="uni4E58" unicode="&#x4e58;" 
d="M542 290q164 -163 431 -229l-39 -95q-231 71 -392 232v-284h-93v264q-167 -139 -393 -212l-28 56q181 73 324 190h-67v79q-126 -56 -189 -82l-19 78q89 27 208 70v71h-178l-4 51h182v64h85v-316q42 36 79 76v268h-386l-5 52h391v83q-142 -8 -270 -8l-9 60q326 19 611 75
l27 -89q-123 -18 -266 -31v-90h402l-8 -52h-394v-281zM710 542v-132q94 50 162 102l41 -72q-103 -60 -203 -96v-70h215l-6 -43h-209q-54 0 -72 17q-16 16 -16 65v229h88z" />
    <glyph glyph-name="uni4E59" unicode="&#x4e59;" 
d="M863 40l-8 -50h-653q-55 0 -68 40q-14 38 21 79q9 10 490 586h-549l-5 57h661q33 0 41 -21q9 -22 -13 -45q-255 -283 -554 -646h637z" />
    <glyph glyph-name="uni4E5C" unicode="&#x4e5c;" 
d="M946 21l-7 -49h-569q-104 0 -104 99v534h-213v53h213v170h92v-170h424q38 0 38 -40v-289q0 -90 -97 -90h-161l-7 43h168v323h-365v-584h588z" />
    <glyph glyph-name="uni4E5D" unicode="&#x4e5d;" 
d="M949 8l-8 -50h-250q-64 0 -64 69l10 524h-193q-26 -224 -105 -367q-85 -154 -259 -268l-44 36q148 110 221 255q68 136 89 344h-248l-4 56h257q8 97 8 238l101 -1q-2 -134 -10 -237h250q38 0 38 -36l-11 -563h222z" />
    <glyph glyph-name="uni4E5E" unicode="&#x4e5e;" 
d="M275 640q-78 -115 -177 -217l-58 38q144 169 236 381l108 -17q-35 -69 -73 -130h587l-8 -55h-615zM935 7l-8 -46h-728q-51 0 -62 40q-10 39 27 66q103 77 244 180l230 169h-461l-4 54h614q29 0 36 -22q6 -21 -17 -37q-277 -192 -564 -404h693z" />
    <glyph glyph-name="uni4E5F" unicode="&#x4e5f;" 
d="M925 3l-7 -47h-625q-97 0 -97 92v538h-144v53h144v88h85v-88h181v205h94v-205h246q37 0 37 -39v-306q0 -85 -94 -85h-129l-7 43h135v334h-188v-459h-94v459h-181v-583h644z" />
    <glyph glyph-name="uni4E60" unicode="&#x4e60;" 
d="M704 374q-288 -164 -588 -313l-32 93q303 134 600 283zM262 651q191 -136 289 -211l-67 -79q-153 140 -269 241zM797 767q17 0 29 -11q12 -12 12 -29v-692q0 -97 -92 -97h-266l-8 48h271v726h-593l-5 55h652z" />
    <glyph glyph-name="uni4E61" unicode="&#x4e61;" 
d="M916 447q-304 -389 -820 -534l-25 67q283 94 492 253h-283q-54 0 -62 40t36 72q65 48 179 141h-198q-45 0 -54 32q-10 31 20 61q62 64 239 265l104 -40l-265 -269h213l228 192l94 -53q-193 -152 -495 -393h304q122 104 216 231z" />
    <glyph glyph-name="uni4E66" unicode="&#x4e66;" 
d="M878 593q-128 126 -189 182l43 45q98 -72 207 -158zM464 382h185l7 225h-192v-225zM864 382q41 0 41 -34v-271q0 -42 -25 -58q-20 -12 -67 -12h-169l-8 45h174v275h-346v-412h-94v412h-301l-5 55h306v225h-220l-4 54h224v186h94v-186h256q37 0 34 -29l-13 -250h123z" />
    <glyph glyph-name="uni4E69" unicode="&#x4e69;" 
d="M413 325h-242v-287h242v287zM320 646h227l-5 -54h-222v-216h117q39 0 54 -14q15 -13 15 -48v-327h-428v389h150v462h92v-192zM953 10l-6 -50h-231q-59 0 -82 23q-21 21 -21 75v784h98v-832h242z" />
    <glyph glyph-name="uni4E70" unicode="&#x4e70;" 
d="M100 711l-5 55h778q29 0 41 -14q11 -14 2 -36q-52 -118 -108 -226l-76 16q30 89 60 205h-692zM433 469q-76 59 -202 152l34 48q131 -75 211 -124zM165 494q204 -93 239 -110l-41 -80q-113 70 -230 139zM614 201q238 -154 303 -198l-58 -84q-150 123 -289 230zM951 291
l-8 -54h-386q-108 -252 -499 -319l-17 61q318 66 410 258h-393l-4 54h419q43 124 46 366h108q-8 -238 -50 -366h374z" />
    <glyph glyph-name="uni4E71" unicode="&#x4e71;" 
d="M440 265h-245v-230h245v230zM364 536h227l-7 -55h-220v-162h100q39 0 54 -14t15 -48v-276h-431v338h166v162h-231l-4 55h235v144q-84 -9 -174 -12l-13 63q234 25 426 88l34 -93q-85 -20 -177 -34v-156zM946 8l-6 -51h-201q-61 0 -84 23q-21 22 -21 77v782h101v-831h211z
" />
    <glyph glyph-name="uni4E73" unicode="&#x4e73;" 
d="M571 745q-243 -55 -494 -71l-12 59q257 34 474 97zM398 484q62 113 98 212l81 -26q-51 -111 -126 -211zM310 486l-24 94q-15 58 -24 89l55 15q45 -108 69 -174zM159 462l-78 176l52 22q68 -110 99 -165zM592 209q-105 -22 -210 -42v-150q0 -51 -26 -70q-21 -15 -69 -15
h-148l-8 42h156v175q-148 -26 -240 -41l-8 84q197 24 248 31v87h45q58 51 103 95h-353l-4 52h457q30 0 39 -23q7 -22 -13 -38q-68 -55 -179 -132v-27q10 1 208 30zM960 -7l-6 -48h-217q-58 0 -79 22q-20 20 -20 72v786h94v-832h228z" />
    <glyph glyph-name="uni4E7E" unicode="&#x4e7e;" 
d="M874 479q19 0 25 -13q6 -12 -4 -27q-141 -214 -285 -424h331l-8 -49h-373q-38 0 -50 24q-11 23 8 54q121 193 251 382h-226l-4 53h335zM372 299v101h-202v-101h202zM170 544v-98h202v98h-202zM965 684l-6 -52h-335q-56 -98 -124 -190l-41 30v-218h-138v-101h189l-6 -50
h-183v-184h-91v184h-195l-3 50h198v101h-146v335h148v94h-176l-4 50h180v112h90v-112h172l-6 -50h-166v-94h77q34 0 47 -12t13 -42v-41q86 143 156 352l106 -15q-36 -84 -69 -147h313z" />
    <glyph glyph-name="uni4E86" unicode="&#x4e86;" 
d="M856 757q40 0 48 -32q8 -31 -22 -51q-289 -195 -309 -207v-429q0 -94 -97 -94h-194l-8 47h202v523h33l117 95q72 57 113 92h-623l-4 56h744z" />
    <glyph glyph-name="uni4E88" unicode="&#x4e88;" 
d="M893 446q29 0 39 -17q9 -17 -4 -37q-97 -146 -130 -190l-65 30q53 109 75 159h-243v-375q0 -56 -29 -77q-23 -17 -74 -17h-173l-8 46h180v423h-404l-5 55h415q-102 87 -179 148l46 50q100 -64 148 -97q142 118 215 182h-524l-4 54h640q38 0 46 -30q7 -29 -20 -48
q-226 -158 -290 -199l61 -42l-14 -18h301z" />
    <glyph glyph-name="uni4E89" unicode="&#x4e89;" 
d="M733 203v140h-191v-140h191zM542 395h191v127h-191v-127zM353 697q-62 -62 -137 -123h293q47 66 83 123h-239zM962 341h-137v-190h-283v-141q0 -82 -100 -82h-155l-7 44h166v179h-308l-5 52h313v140h-406l-5 52h411v127h-249l-3 34q-56 -42 -85 -62l-37 55
q157 127 280 302l111 -33q-30 -35 -62 -71h278q30 0 41 -19q9 -18 -7 -37q-60 -69 -105 -117h186q31 0 31 -32v-145h142z" />
    <glyph glyph-name="uni4E8B" unicode="&#x4e8b;" 
d="M532 601v-92h187v92h-187zM439 509v92h-187v-92h187zM532 353v-80h217v80h-217zM749 142v86h-217v-86h217zM532 713v-69h218q56 0 56 -48v-129h-274v-70h277q28 0 28 -28v-94h101l-5 -50h-96v-127h-305v-87q0 -92 -97 -92h-139l-7 41h150v138h-312l-4 44h316v86h-370
l-4 45h374v80h-289l-4 44h293v70h-273v177h273v69h-385l-5 47h390v85h93v-85h419l-8 -47h-411z" />
    <glyph glyph-name="uni4E8C" unicode="&#x4e8c;" 
d="M60 120h889l-9 -57h-875zM184 679h634l-8 -57h-622z" />
    <glyph glyph-name="uni4E8D" unicode="&#x4e8d;" 
d="M156 704l-5 55h686l-7 -55h-674zM936 440h-389v-434q0 -85 -103 -85h-177l-7 46h189v473h-395l-5 55h895z" />
    <glyph glyph-name="uni4E8E" unicode="&#x4e8e;" 
d="M941 377h-402v-360q0 -93 -100 -93h-160l-8 47h173v406h-401l-5 56h406v285h-296l-4 54h700l-8 -54h-297v-285h410z" />
    <glyph glyph-name="uni4E8F" unicode="&#x4e8f;" 
d="M192 700l-5 54h629l-7 -54h-617zM400 468l-48 -169h389q44 0 44 -36v-251q0 -45 -28 -62q-23 -14 -73 -14h-230l-8 48h235v261h-443l64 223h-252l-5 54h916l-8 -54h-553z" />
    <glyph glyph-name="uni4E91" unicode="&#x4e91;" 
d="M190 697l-5 55h634l-8 -55h-621zM511 427q-113 -166 -254 -359h468q-95 167 -149 258l62 31q138 -192 252 -369l-90 -52l-45 79h-543q-43 0 -54 27q-10 27 13 63l216 322h-334l-4 55h906l-8 -55h-436z" />
    <glyph glyph-name="uni4E92" unicode="&#x4e92;" 
d="M647 271l31 212h-300l-48 -212h317zM963 49l-9 -53h-902l-5 53h568l24 169h-423l110 486h-240l-4 53h837l-8 -53h-483l-38 -169h365q18 0 28 -10t6 -26l-74 -450h248z" />
    <glyph glyph-name="uni4E93" unicode="&#x4e93;" 
d="M169 698l-5 55h687l-8 -55h-674zM950 424h-209v-509h-96v509h-220q-15 -194 -79 -310q-68 -124 -214 -208l-37 42q116 79 167 194q47 104 56 282h-257l-5 56h902z" />
    <glyph glyph-name="uni4E94" unicode="&#x4e94;" 
d="M402 45h249l35 357h-226zM965 45l-8 -55h-910l-5 55h264l58 357h-201l-4 55h214l37 227h-292l-4 54h785l-8 -54h-385l-37 -227h286q38 0 33 -33l-43 -379h220z" />
    <glyph glyph-name="uni4E95" unicode="&#x4e95;" 
d="M619 355v232h-214q-10 -138 -27 -232h241zM953 300h-238v-387h-96v387h-252q-49 -216 -171 -393l-62 26q98 166 136 367h-213l-5 55h227q14 94 21 232h-170l-5 55h177q2 60 2 190h109q-2 -128 -5 -190h211v202h96v-202h179l-7 -55h-172v-232h247z" />
    <glyph glyph-name="uni4E98" unicode="&#x4e98;" 
d="M110 701l-4 53h785l-8 -53h-773zM711 203v145h-427v-145h427zM284 534v-136h427v136h-427zM732 587q79 0 79 -66v-371h-625v437h546zM954 35l-8 -55h-899l-5 55h912z" />
    <glyph glyph-name="uni4E9A" unicode="&#x4e9a;" 
d="M429 59h131v648h-131v-648zM967 59l-8 -53h-910l-5 53h293v648h-236l-4 54h819l-8 -54h-256v-648h315zM153 564q100 -179 174 -324l-88 -42q-84 197 -148 339zM656 241q97 157 164 326l92 -31q-83 -175 -199 -324z" />
    <glyph glyph-name="uni4E9B" unicode="&#x4e9b;" 
d="M534 383q-231 -77 -487 -149l-16 94l93 21v394h85v-375l97 24v435h86v-180h140l-6 -54h-134v-180q57 14 136 35zM228 160l-4 52h564l-7 -52h-553zM76 24h851l-8 -53h-838zM956 330l-6 -46h-294q-58 0 -78 20q-19 19 -19 71v470h94v-262q119 76 219 176l62 -76
q-133 -111 -281 -178v-175h303z" />
    <glyph glyph-name="uni4E9F" unicode="&#x4e9f;" 
d="M863 546q42 0 24 -43q-38 -121 -90 -207l136 -127l-52 -66l-126 133q-66 -84 -163 -143l-43 39q96 67 155 157q-40 42 -124 128l36 42l122 -109q32 63 53 149h-197l-7 47h276zM147 728l-4 50h629q34 0 41 -30q6 -29 -20 -44q-241 -129 -257 -137v-412q0 -49 -25 -68
q-20 -16 -64 -16h-122l-9 43h131v483h7q120 74 206 131h-513zM299 529h-112v-284h112v284zM374 196h-261v382h205q33 0 45 -11q11 -12 11 -42v-329zM958 27l-8 -52h-898l-5 52h911z" />
    <glyph glyph-name="uni4EA0" unicode="&#x4ea0;" 
d="M955 465l-8 -56h-896l-5 56h418v142h105v-142h386z" />
    <glyph glyph-name="uni4EA1" unicode="&#x4ea1;" 
d="M314 562v-506h584l-7 -50h-569q-60 0 -83 23q-23 22 -23 75v458h-168l-5 56h412v208h97v-208h403l-8 -56h-633z" />
    <glyph glyph-name="uni4EA2" unicode="&#x4ea2;" 
d="M57 674h397v172h103v-172h386l-8 -55h-873zM959 -5l-8 -49h-306q-65 0 -65 71l3 420h-206q-10 -211 -70 -325q-68 -130 -232 -205l-39 39q141 77 193 209q45 113 46 337h373q38 0 38 -37l-3 -460h276z" />
    <glyph glyph-name="uni4EA4" unicode="&#x4ea4;" 
d="M79 679h385v161h98v-161h366l-8 -54h-837zM855 338q-140 118 -279 229l43 50q175 -115 296 -199zM433 542q-151 -127 -318 -217l-36 55q152 105 286 239zM931 -87q-268 47 -430 177q-176 -133 -438 -183l-24 67q232 58 391 180q-91 94 -157 225l57 28q67 -123 158 -203
q99 90 171 224l87 -53q-79 -137 -180 -230q151 -96 398 -131z" />
    <glyph glyph-name="uni4EA5" unicode="&#x4ea5;" 
d="M884 382q-106 -121 -231 -212q157 -102 265 -178l-64 -78q-127 106 -261 214q-224 -146 -512 -217l-23 62q485 146 756 471zM947 697l-8 -52h-444q-102 -107 -204 -212h234q99 82 175 179l72 -62q-254 -300 -662 -420l-27 60q212 74 381 196h-225q-39 0 -48 25
q-10 24 14 50q25 29 80 89l85 95h-313l-5 52h406v148h102v-148h387z" />
    <glyph glyph-name="uni4EA6" unicode="&#x4ea6;" 
d="M683 620v-600q0 -89 -102 -89h-129l-7 47h139v642h-143q-10 -277 -79 -428q-77 -169 -265 -276l-41 37q160 105 223 265q56 141 61 402h-273l-5 54h396v156h94v-156h396l-8 -54h-257zM290 470q-104 -192 -160 -288l-76 51q81 123 174 269zM757 496q127 -175 196 -278
l-85 -49q-108 190 -170 296z" />
    <glyph glyph-name="uni4EA7" unicode="&#x4ea7;" 
d="M113 716h376v128h100v-128h337l-8 -53h-800zM927 374h-671q-24 -301 -192 -464l-48 30q133 159 139 487h195q-39 119 -69 206l64 18q54 -104 98 -200l-75 -24h206q72 120 119 235l95 -36q-55 -105 -126 -199h272z" />
    <glyph glyph-name="uni4EA8" unicode="&#x4ea8;" 
d="M819 325q36 0 43 -34t-23 -46q-146 -60 -287 -110v-132q0 -54 -28 -72q-21 -14 -72 -14h-188l-8 41h195v236h61q147 69 170 81h-572l-4 50h713zM705 575h-416v-123h416v123zM737 622q62 0 62 -53v-163h-602v216h540zM945 745l-8 -50h-882l-5 50h401v102h96v-102h398z" />
    <glyph glyph-name="uni4EA9" unicode="&#x4ea9;" 
d="M752 40v201h-205v-201h205zM245 40h206v201h-206v-201zM245 472v-178h206v178h-206zM752 472h-205v-178h205v178zM767 526q85 0 85 -70v-470h-706v540h621zM963 697l-8 -53h-912l-5 53h413v147h97v-147h415z" />
    <glyph glyph-name="uni4EAB" unicode="&#x4eab;" 
d="M79 753h378v91h94v-91h372l-8 -50h-832zM711 590h-424v-126h424v126zM740 636q61 0 61 -52v-166h-604v218h543zM967 110h-402v-109q0 -51 -26 -69q-20 -13 -68 -13h-169l-8 40h176v151h-413l-5 49h418v64h55q50 25 142 73h-521l-4 50h649q32 0 39 -29q6 -29 -20 -41
q-143 -64 -245 -104v-13h410z" />
    <glyph glyph-name="uni4EAC" unicode="&#x4eac;" 
d="M360 177q-128 -122 -251 -225l-51 81q141 103 257 197zM291 328h414v177h-414v-177zM548 275v-279q0 -45 -30 -63q-23 -13 -72 -13h-133l-7 43h143v312h-251v282h531q70 0 70 -59v-223h-251zM680 225q161 -123 242 -190l-64 -74q-105 105 -223 218zM944 708l-8 -54h-880
l-5 54h396v137h99v-137h398z" />
    <glyph glyph-name="uni4EAD" unicode="&#x4ead;" 
d="M97 752h354v94h95v-94h356l-8 -47h-793zM692 593h-385v-104h385v104zM729 637q60 0 60 -51v-141h-577v192h517zM207 216h585l-7 -47h-233v-182q0 -43 -29 -59q-22 -11 -70 -11h-149l-7 40h160v212h-246zM900 377q27 0 27 -25v-158h-89v135h-680v-138h-85v186h827z" />
    <glyph glyph-name="uni4EAE" unicode="&#x4eae;" 
d="M68 749h376v99h99v-99h376l-7 -47h-839zM820 186v143h-644v-149h-88v198h793q27 0 27 -25v-167h-88zM688 595h-390v-104h390v104zM720 640q58 0 58 -50v-144h-569v194h511zM958 -15l-7 -43h-291q-65 0 -65 71v179h-203q-17 -123 -83 -183q-75 -68 -247 -93l-17 52
q145 27 198 90q47 55 53 183h364q38 0 38 -36v-220h260z" />
    <glyph glyph-name="uni4EB2" unicode="&#x4eb2;" 
d="M365 173q-121 -116 -240 -214l-52 79q130 92 249 188zM668 224q171 -118 260 -184l-62 -75q-192 169 -242 212zM863 678h-734l-5 54h338v113h91v-113h317zM950 501l-8 -54h-391v-141h336l-7 -54h-329v-244q0 -82 -102 -82h-139l-7 44h150v282h-339l-5 54h344v141h-402
l-5 54h269q-33 68 -72 145l60 26q72 -98 105 -147l-50 -24h218q45 81 84 177l88 -34q-41 -78 -90 -143h292z" />
    <glyph glyph-name="uni4EB3" unicode="&#x4eb3;" 
d="M484 156l416 25l-5 -46l-411 -25v-125h399l-6 -45h-391q-56 0 -75 18q-18 18 -18 68v78l-311 -19l-6 46l317 19v79q-112 -6 -169 -7l-9 53q283 18 522 72l25 -74q-130 -23 -278 -37v-80zM885 420q27 0 27 -24v-141h-88v119h-638v-119h-89v165h788zM704 614h-409v-90h409
v90zM741 655q57 0 57 -48v-124h-596v172h539zM921 757l-7 -46h-828l-4 46h371v91h96v-91h372z" />
    <glyph glyph-name="uni4EB5" unicode="&#x4eb5;" 
d="M78 771h379v77h87v-77h387l-8 -49h-841zM250 409q-122 -24 -171 -32l-6 76q121 15 177 23v97h-153l-4 47h157v88h83v-88h107l-6 -47h-101v-86l52 8q35 6 52 8l-1 -55l-103 -22v-99q0 -41 -26 -56q-19 -11 -62 -11h-98l-7 37h110v112zM938 -56q-318 49 -488 265l-76 -39
v-148q87 31 164 60l12 -53q-170 -77 -291 -126l-17 74l47 15v139q-117 -51 -246 -90l-22 51q266 90 453 230l-22 15q47 41 76 95l-80 37l26 45l76 -28q11 36 19 82h-113v42h118q4 62 4 99h83q-1 -38 -7 -99h134q32 0 29 -33l-17 -234h138l-6 -39h-154q-59 0 -54 60l12 204
h-88q-11 -60 -31 -106q72 -26 107 -40l-31 -68l-108 51q-32 -46 -86 -87l76 -32q-40 -27 -76 -48q36 -42 87 -81q85 61 146 124l74 -53q-72 -58 -166 -106q124 -71 323 -93z" />
    <glyph glyph-name="uni4EBA" unicode="&#x4eba;" 
d="M579 847q-24 -184 -58 -309q164 -345 453 -540l-81 -78q-257 191 -404 514q-107 -304 -413 -521l-42 47q222 169 317 381q77 172 116 506h112z" />
    <glyph glyph-name="uni4EBB" unicode="&#x4ebb;" 
d="M668 816q-59 -107 -127 -200v-703h-93v584q-79 -94 -173 -182l-44 51q189 199 332 485z" />
    <glyph glyph-name="uni4EBF" unicode="&#x4ebf;" 
d="M949 21l-9 -52h-504q-47 0 -61 31q-14 30 9 70q138 243 351 597h-365l-3 36q-48 -77 -98 -143v-634h-91v524q-55 -61 -114 -116l-44 49q171 182 303 459l105 -33q-25 -46 -50 -88h459q25 0 33 -16q7 -16 -7 -37q-190 -307 -391 -647h477z" />
    <glyph glyph-name="uni4EC0" unicode="&#x4ec0;" 
d="M431 805q-66 -119 -151 -231v-655h-93v544q-62 -67 -118 -119l-44 54q168 178 298 444zM965 461h-272v-548h-96v548h-275l-5 56h280v328h96v-328h279z" />
    <glyph glyph-name="uni4EC1" unicode="&#x4ec1;" 
d="M424 812q-74 -142 -149 -250v-636h-93v512q-51 -62 -103 -117l-47 50q157 193 281 472zM411 675h475l-6 -56h-465zM974 147l-7 -56h-654l-5 56h666z" />
    <glyph glyph-name="uni4EC2" unicode="&#x4ec2;" 
d="M422 816q-69 -123 -142 -220v-675h-89v565q-57 -65 -117 -122l-46 49q157 174 283 435zM854 607q37 -2 37 -36v-533q0 -83 -89 -83h-177l-8 45h183v552h-167q-46 -380 -274 -630l-54 30q190 232 228 600h-186l-5 55h196q8 108 9 234h105q-3 -133 -13 -234h215z" />
    <glyph glyph-name="uni4EC3" unicode="&#x4ec3;" 
d="M387 814q-54 -109 -116 -205v-694h-90v567q-57 -71 -109 -128l-49 47q141 174 254 443zM965 691h-211v-670q0 -96 -102 -96h-150q-1 0 -8 48h162v718h-281l-5 56h602z" />
    <glyph glyph-name="uni4EC4" unicode="&#x4ec4;" 
d="M269 725q-9 -520 -178 -796l-62 23q137 264 137 826h761l-8 -53h-650zM642 678q-10 -144 -36 -260q121 -279 363 -419l-78 -73q-208 136 -316 385q-84 -241 -324 -393l-40 43q173 123 244 293q63 150 79 424h108z" />
    <glyph glyph-name="uni4EC5" unicode="&#x4ec5;" 
d="M403 814q-56 -116 -126 -225v-674h-91v547q-52 -66 -116 -135l-48 48q153 187 271 470zM859 739q43 0 32 -54q-61 -293 -205 -487q110 -125 288 -206l-73 -81q-168 86 -276 214q-110 -121 -269 -207l-40 47q153 96 256 230q-114 170 -171 446l64 19q59 -239 162 -387
q111 175 157 419h-398l-7 47h480z" />
    <glyph glyph-name="uni4EC6" unicode="&#x4ec6;" 
d="M424 825q-56 -121 -127 -236v-677h-94v540q-60 -80 -133 -161l-47 46q168 210 293 515zM666 567q151 -123 291 -245l-63 -80q-150 156 -261 265v-591h-98v934h98v-321z" />
    <glyph glyph-name="uni4EC7" unicode="&#x4ec7;" 
d="M389 821q-65 -132 -136 -238v-669h-90v546q-35 -45 -94 -109l-44 44q148 181 265 453zM961 0l-8 -49h-189q-61 0 -61 67l3 539h-157q-27 -385 -204 -640l-55 23q146 239 168 617h-130l-4 50h137q4 97 4 236h94q-2 -161 -6 -236l211 1q36 0 35 -34l-3 -574h165z" />
    <glyph glyph-name="uni4EC9" unicode="&#x4ec9;" 
d="M380 807q-59 -129 -118 -228v-662h-92v523q-37 -52 -98 -125l-49 43q141 192 248 474zM954 1l-10 -54h-195q-64 0 -64 70v692h-146q-10 -507 -179 -801l-61 23q136 279 136 833h303q47 0 47 -39v-724h169z" />
    <glyph glyph-name="uni4ECA" unicode="&#x4eca;" 
d="M786 338q30 0 38 -21t-9 -42q-175 -230 -284 -360l-58 42q105 156 208 326h-501l-4 55h270v175h99v-175h241zM591 824q-23 -34 -45 -62q163 -202 428 -312l-51 -89q-250 121 -418 349q-180 -216 -432 -352l-42 57q281 172 443 436z" />
    <glyph glyph-name="uni4ECB" unicode="&#x4ecb;" 
d="M85 -55q120 90 167 222q41 116 45 327h105q-9 -225 -65 -351q-62 -140 -210 -234zM617 498h96v-583h-96v583zM575 829q-22 -36 -40 -60q157 -198 438 -280l-46 -92q-270 96 -432 318q-167 -211 -415 -331l-42 55q276 152 425 416z" />
    <glyph glyph-name="uni4ECD" unicode="&#x4ecd;" 
d="M886 461q41 0 41 -35v-399q0 -45 -25 -62q-21 -15 -67 -15q-5 -1 -205 0l-8 45h211v415h-169l60 303h-145q-5 -291 -49 -453q-51 -189 -186 -336l-55 25q112 142 154 330q35 158 35 434h-110l-4 50q-46 -95 -105 -185v-663h-90v538q-41 -52 -93 -109l-48 44
q145 180 256 456l106 -28l-23 -48h431q37 0 30 -31l-62 -276h120z" />
    <glyph glyph-name="uni4ECE" unicode="&#x4ece;" 
d="M422 217q-56 97 -120 200q-70 -252 -212 -454l-64 27q200 314 232 836l110 -4q-12 -168 -43 -311q93 -112 173 -224zM890 -87q-155 183 -240 447q-81 -263 -268 -447l-60 31q271 295 288 904l111 -2q-4 -191 -38 -354q106 -317 302 -520z" />
    <glyph glyph-name="uni4ED1" unicode="&#x4ed1;" 
d="M917 383q-239 119 -413 325q-105 -121 -224 -216h69v-234q206 92 362 206l63 -90q-192 -119 -425 -198v-173h495l-7 -48h-482q-60 0 -82 22q-21 20 -21 74v419q-81 -61 -168 -114l-44 56q267 180 434 438l119 -29l-48 -63q166 -176 425 -286z" />
    <glyph glyph-name="uni4ED3" unicode="&#x4ed3;" 
d="M339 3h534l-6 -48h-522q-58 0 -80 21q-21 20 -21 72v426h439v-1q34 -3 34 -33v-211q0 -42 -26 -57q-20 -11 -69 -11h-152l-8 44h157v215h-280v-417zM580 822q-30 -42 -46 -63q170 -183 435 -296l-52 -89q-245 122 -424 335q-180 -208 -423 -335l-39 55q277 167 435 422z
" />
    <glyph glyph-name="uni4ED4" unicode="&#x4ed4;" 
d="M388 820q-64 -137 -137 -251v-654h-91v523q-29 -40 -89 -111l-49 45q145 192 259 476zM966 348h-264v-338q0 -92 -94 -92h-176l-8 47h183v383h-297l-4 55h301v115h23q91 132 131 194h-364l-4 53h461q30 0 39 -21q7 -20 -10 -41q-141 -167 -181 -211v-89h272z" />
    <glyph glyph-name="uni4ED5" unicode="&#x4ed5;" 
d="M454 811q-82 -137 -181 -253v-642h-92v543q-61 -59 -117 -106l-41 53q187 178 326 441zM682 463v-415h250l-7 -54h-565l-4 54h232v415h-268l-4 54h272v328h94v-328h293l-8 -54h-285z" />
    <glyph glyph-name="uni4ED6" unicode="&#x4ed6;" 
d="M374 826q-56 -116 -124 -226v-686h-89v555q-43 -58 -93 -117l-47 43q136 182 248 455zM960 -3l-7 -47h-471q-54 0 -75 22q-21 20 -21 69v496h-84l-3 47h87v139h88v-139h118v263h91v-263h175q35 0 35 -37v-334q0 -44 -24 -60q-19 -13 -64 -13h-86l-6 41h92v356h-122v-452
h-91v452h-118v-540h486z" />
    <glyph glyph-name="uni4ED7" unicode="&#x4ed7;" 
d="M409 815q-61 -120 -136 -229v-665h-91v546q-58 -69 -119 -130l-45 49q165 187 285 460zM928 -80q-221 47 -344 164q-95 -100 -246 -173l-38 42q147 81 231 189q-99 126 -147 348l62 20q46 -185 134 -293q74 134 96 344h-356l-4 54h365q8 114 8 232h101q-2 -137 -11 -232
h180l-7 -54h-178q-30 -256 -133 -406q118 -102 340 -141z" />
    <glyph glyph-name="uni4ED8" unicode="&#x4ed8;" 
d="M441 814q-68 -122 -152 -237v-661h-94v544q-53 -63 -127 -135l-45 50q175 193 312 472zM963 532h-164v-514q0 -98 -99 -98h-157l-7 48h168v564h-368l-5 56h373v253h95v-253h171zM562 166q-157 224 -174 247l50 39q93 -103 195 -224z" />
    <glyph glyph-name="uni4ED9" unicode="&#x4ed9;" 
d="M392 812q-59 -119 -136 -234h5v-662h-88v549q-44 -57 -110 -128l-44 48q156 190 270 456zM906 653v-657h-444q-54 0 -75 20q-19 19 -19 68v560h89v-602h134v799h91v-799h136v611h88z" />
    <glyph glyph-name="uni4EDD" unicode="&#x4edd;" 
d="M540 38h354l-8 -54h-779l-5 54h347v314h-221l-4 53h551l-7 -53h-228v-314zM575 826q-28 -48 -44 -71q165 -201 436 -308l-48 -87q-253 117 -425 341q-169 -227 -426 -359l-38 52q292 170 442 454z" />
    <glyph glyph-name="uni4EDE" unicode="&#x4ede;" 
d="M398 811q-67 -129 -134 -225v-669h-89v553q-55 -66 -112 -123l-45 49q157 179 275 448zM855 749q40 0 40 -38v-676q0 -91 -89 -91h-185l-9 46h192v704h-136q-13 -288 -70 -451q-65 -185 -223 -328l-50 32q133 137 186 318q46 156 52 429h-164l-4 55h460zM506 533
q-60 -152 -113 -271l-82 32q45 88 130 259z" />
    <glyph glyph-name="uni4EDF" unicode="&#x4edf;" 
d="M413 817q-69 -131 -145 -235v-668h-93v551q-54 -61 -111 -116l-45 48q165 182 288 452zM962 353h-274v-438h-96v438h-277l-5 55h282v262q-98 -16 -212 -25l-14 62q268 37 495 122l36 -91q-106 -31 -209 -51v-279h281z" />
    <glyph glyph-name="uni4EE1" unicode="&#x4ee1;" 
d="M388 815q-56 -122 -127 -232v-652h-92v522q-52 -66 -92 -110l-47 47q143 182 251 453zM522 640q-57 -92 -119 -168h454q23 0 30 -16q6 -17 -10 -32q-216 -209 -429 -412h496l-7 -46h-531q-44 0 -55 32q-11 30 16 60q129 137 361 361h-329l-3 44l-45 -54l-48 44
q121 164 210 394l111 -21q-33 -69 -69 -132h395l-6 -54h-422z" />
    <glyph glyph-name="uni4EE3" unicode="&#x4ee3;" 
d="M789 599q-98 118 -144 171l51 37q114 -102 165 -152zM397 813q-56 -116 -119 -213v-667h-93v536q-54 -69 -115 -136l-47 48q149 182 268 463zM942 -18l-7 -50h-217q-39 0 -54 13q-15 12 -22 47l-73 417l-236 -57l-17 55l243 59l-66 375h98q10 -50 62 -352l279 67l6 -57
l-275 -67l79 -450h200z" />
    <glyph glyph-name="uni4EE4" unicode="&#x4ee4;" 
d="M784 368q33 -2 39 -27t-17 -45q-29 -27 -124 -118q-76 -72 -130 -121l153 -71l-48 -86q-203 113 -429 232l38 53l214 -95q108 119 196 224h-525l-5 54h290v160h101v-160h247zM597 823q-15 -21 -54 -68q164 -173 424 -262l-47 -92q-247 102 -420 306q-182 -199 -437 -326
l-38 56q288 165 457 417z" />
    <glyph glyph-name="uni4EE5" unicode="&#x4ee5;" 
d="M500 477q-125 186 -185 271l53 42q121 -137 208 -247zM446 299q-176 -161 -321 -274l-44 87l50 36v614h92v-547q70 53 193 149zM893 -66q-64 75 -230 261q-110 -156 -314 -277l-38 45q227 147 323 349q85 178 111 510h105q-32 -361 -147 -563q171 -158 269 -255z" />
    <glyph glyph-name="uni4EE8" unicode="&#x4ee8;" 
d="M917 657h-535l-5 54h547zM406 362l-4 53h489l-7 -53h-478zM423 811q-71 -139 -149 -248v-642h-96v520q-51 -60 -108 -117l-45 48q167 189 292 470zM974 82l-8 -55h-658l-5 55h671z" />
    <glyph glyph-name="uni4EEA" unicode="&#x4eea;" 
d="M636 582l-63 117q-38 71 -61 112l59 29q76 -103 149 -211zM410 811q-64 -124 -143 -233v-663h-91v549q-51 -58 -103 -108l-45 49q161 179 277 439zM917 730q-63 -325 -227 -536q115 -128 292 -212l-74 -76q-171 92 -279 217q-120 -126 -285 -209l-45 48q164 96 274 233
q-130 188 -191 497l62 17q65 -271 184 -438q127 192 181 475z" />
    <glyph glyph-name="uni4EEB" unicode="&#x4eeb;" 
d="M427 816q-72 -134 -154 -242v-656h-91v546q-52 -58 -111 -114l-44 51q167 178 295 449zM742 803q-154 -258 -375 -455l-43 53q176 176 314 439zM893 -73l-41 77h-415q-48 0 -57 33q-9 31 23 73q278 375 374 507l92 -50q-191 -262 -393 -510h348q-61 116 -119 220l57 31
q110 -164 213 -333z" />
    <glyph glyph-name="uni4EEC" unicode="&#x4eec;" 
d="M380 823q-59 -120 -128 -218v-690h-88v573q-48 -58 -95 -106l-43 44q144 170 255 424zM353 646h88v-730h-88v730zM452 823q84 -94 139 -162l-74 -56q-76 121 -117 182zM872 766q40 0 40 -38v-721q0 -89 -86 -89h-134l-8 45h139v750h-230l-4 54h269v-1h14z" />
    <glyph glyph-name="uni4EF0" unicode="&#x4ef0;" 
d="M389 818q-68 -142 -151 -262v-638h-89v522q-52 -60 -82 -91l-46 46q149 179 262 452zM608 277v457q-68 -37 -172 -73v-429q58 39 142 99zM889 748q38 0 38 -34v-545q0 -45 -22 -63q-19 -15 -61 -15h-98l-8 41h104v563h-147v-781h-87v357q-134 -114 -258 -207l-46 79
l43 28v529h2q138 64 225 132l60 -84h255z" />
    <glyph glyph-name="uni4EF2" unicode="&#x4ef2;" 
d="M400 818q-68 -130 -145 -236v-666h-92v551q-41 -48 -93 -100l-46 45q151 174 269 434zM825 608h-151v-330h151v330zM439 278h144v330h-144v-330zM921 220h-245v-306h-94v306h-239v445h239v181h94v-181h166q44 0 62 -15q17 -16 17 -52v-378z" />
    <glyph glyph-name="uni4EF3" unicode="&#x4ef3;" 
d="M365 824q-49 -119 -104 -218v-690h-96v535q-37 -55 -88 -119l-49 41q131 190 233 474zM465 91q83 50 141 86l16 -66q-124 -95 -253 -182l-37 84l41 24v776h92v-300h153l-6 -55h-147v-367zM736 -2h206l-6 -48h-196q-57 0 -78 21q-20 20 -20 72v804h94v-372q97 73 162 165
l64 -58q-90 -110 -226 -187v-397z" />
    <glyph glyph-name="uni4EF5" unicode="&#x4ef5;" 
d="M386 813q-57 -122 -124 -227v-668h-91v540q-41 -52 -93 -109l-47 45q144 180 250 448zM965 291h-266v-378h-93v378h-284l-4 56h288v282h-92q-59 -107 -129 -196l-56 33q112 162 179 382l99 -12q-27 -76 -65 -153h396l-6 -54h-233v-282h273z" />
    <glyph glyph-name="uni4EF6" unicode="&#x4ef6;" 
d="M386 819q-59 -133 -133 -249v-652h-89v525q-39 -52 -90 -109l-48 45q147 190 254 468zM966 259h-247v-342h-95v342h-324l-4 55h328v243h-159q-41 -97 -103 -195l-59 27q88 162 135 372l97 -9q-24 -83 -47 -140h136v234h95v-234h204l-7 -55h-197v-243h254z" />
    <glyph glyph-name="uni4EF7" unicode="&#x4ef7;" 
d="M414 812q-72 -130 -152 -238v-660h-89v550q-45 -51 -94 -100l-45 48q151 174 273 430zM332 -61q122 183 125 539h101q-15 -368 -173 -563zM921 398q-70 34 -133 83v-561h-89v565h84q-105 83 -178 214q-114 -192 -291 -321l-50 42q205 168 306 431l105 -16
q-15 -34 -33 -69q108 -191 331 -283z" />
    <glyph glyph-name="uni4EFB" unicode="&#x4efb;" 
d="M407 817q-63 -127 -145 -245v-655h-90v538q-39 -47 -102 -114l-47 46q158 185 277 458zM680 352v-312h257l-7 -54h-588l-5 54h250v312h-287l-4 55h291v247q-98 -14 -216 -22l-14 64q282 38 515 121l38 -94q-121 -33 -230 -53v-263h288l-7 -55h-281z" />
    <glyph glyph-name="uni4EFD" unicode="&#x4efd;" 
d="M392 824q-59 -131 -128 -239v-670h-88v542q-42 -56 -96 -118l-48 44q146 191 253 469zM806 463q39 0 39 -33v-413q0 -43 -23 -59q-20 -14 -63 -14h-144l-8 43h149v423h-149q-17 -179 -60 -282q-49 -118 -159 -211l-42 31q146 148 164 462h-98l-4 47q-26 -36 -64 -81
l-48 40q111 150 201 399l102 -23q-78 -186 -186 -329h393zM709 845q106 -237 271 -398l-86 -60q-152 172 -247 440z" />
    <glyph glyph-name="uni4EFF" unicode="&#x4eff;" 
d="M398 820q-62 -127 -132 -232v-674h-88v552q-51 -64 -103 -120l-47 47q150 185 264 457zM607 595q-7 -107 -17 -178h236q40 0 40 -34v-370q0 -43 -24 -60q-20 -13 -65 -13h-189l-8 44h195v378h-193q-47 -270 -225 -453l-51 31q107 126 151 286q37 136 45 369h-179l-4 55
h278v189h98v-189h271l-7 -55h-352z" />
    <glyph glyph-name="uni4F01" unicode="&#x4f01;" 
d="M927 419q-255 100 -432 299q-186 -194 -435 -312l-34 54q283 152 453 394l108 -31q-24 -31 -51 -60q168 -171 433 -257zM547 40h395l-8 -53h-877l-5 53h168v385h90v-385h146v553h91v-244h282l-6 -53h-276v-256z" />
    <glyph glyph-name="uni4F09" unicode="&#x4f09;" 
d="M584 674v173h99v-173h275l-8 -55h-626l-5 55h265zM383 821q-57 -123 -122 -228v-680h-90v547q-53 -70 -99 -124l-50 46q140 189 251 468zM790 -11h161l-7 -47h-187q-63 0 -63 68l3 430h-165q-6 -185 -43 -297q-41 -127 -139 -226l-52 26q137 167 135 552h324q36 0 36 -35
z" />
    <glyph glyph-name="uni4F0A" unicode="&#x4f0a;" 
d="M373 814q-58 -129 -126 -236v-659h-92v527q-40 -52 -87 -105l-48 45q143 184 247 456zM788 327v173h-172q-11 -96 -28 -173h200zM628 719q-2 -102 -8 -167h168v167h-160zM959 502h-79v-229h-307q-60 -206 -226 -363l-50 30q133 143 184 333h-176l-4 54h193q16 77 25 173
h-227l-4 52h234q4 78 6 167h-160l-4 52h484q32 0 32 -33v-183h84z" />
    <glyph glyph-name="uni4F0D" unicode="&#x4f0d;" 
d="M392 824q-60 -127 -134 -239h2v-669h-91v547q-38 -48 -104 -120l-45 48q157 190 269 463zM557 36h187l30 357h-167zM974 36l-8 -54h-670l-4 54h173l49 357h-157l-4 54h169l35 254h-186l-4 54h567l-7 -54h-277l-36 -254h224q36 0 31 -30l-38 -381h143z" />
    <glyph glyph-name="uni4F0E" unicode="&#x4f0e;" 
d="M933 -91q-190 50 -321 155q-125 -102 -301 -153l-34 57q159 55 272 153q-92 94 -163 235l57 28q71 -127 164 -207q93 102 146 235h-404l-7 53h216v164h-236l-2 26q-31 -47 -60 -86v-656h-91v544q-51 -57 -101 -106l-45 49q163 180 284 446l105 -32q-28 -54 -74 -131h220
v162h93v-162h280l-7 -54h-273v-164h186q28 0 36 -19q7 -18 -7 -42q-80 -169 -188 -280q119 -78 299 -119z" />
    <glyph glyph-name="uni4F0F" unicode="&#x4f0f;" 
d="M811 589q-83 123 -114 167l50 31q75 -79 135 -151zM443 806q-81 -142 -176 -261v-631h-89v528q-38 -42 -103 -103l-43 48q173 182 307 449zM655 472q96 -334 330 -499l-86 -67q-213 171 -296 490q-62 -285 -266 -489l-52 32q189 210 234 533h-210l-5 54h222
q14 124 16 315h105q-5 -188 -21 -315h317l-8 -54h-280z" />
    <glyph glyph-name="uni4F10" unicode="&#x4f10;" 
d="M793 618q-86 96 -143 156l46 42q88 -69 162 -133zM416 813q-63 -117 -145 -231v-669h-92v554q-48 -55 -103 -109l-45 48q155 174 278 438zM953 -23l-7 -52h-237q-41 0 -57 14q-15 12 -22 49l-23 138q-111 -71 -251 -123l-32 58q141 62 267 155l-46 271l-217 -45l-14 51
l223 46l-52 304h104q4 -20 48 -283l287 60l3 -53l-281 -59l37 -216q93 86 164 188l78 -59q-97 -130 -225 -230l36 -214h217z" />
    <glyph glyph-name="uni4F11" unicode="&#x4f11;" 
d="M396 795q-61 -123 -132 -227v-647h-91v526q-40 -49 -98 -109l-46 48q151 179 262 441zM667 541q117 -272 310 -439l-83 -60q-152 151 -248 377v-502h-93v476q-95 -188 -256 -369l-25 95q166 193 251 422h-217l-5 55h252v249h93v-249h296l-7 -55h-268z" />
    <glyph glyph-name="uni4F17" unicode="&#x4f17;" 
d="M926 376q-251 111 -436 327q-172 -204 -416 -335l-41 54q277 170 438 430l113 -26q-34 -48 -52 -71q177 -181 441 -279zM450 108q-72 79 -135 140q-81 -186 -228 -313l-53 36q187 183 245 515l105 -9q-15 -80 -43 -161q105 -78 170 -132zM732 481q-16 -98 -40 -177
q101 -181 286 -306l-62 -85q-156 122 -255 306q-78 -189 -238 -314l-52 39q207 182 255 545z" />
    <glyph glyph-name="uni4F18" unicode="&#x4f18;" 
d="M798 594q-73 101 -121 163l48 36q85 -83 140 -142zM397 807q-64 -132 -132 -236v-654h-91v529q-55 -68 -106 -122l-45 46q156 187 271 466zM608 512q-42 -380 -272 -603l-52 29q193 213 227 574h-204l-5 55h214q7 118 7 277h102q-2 -165 -11 -277h340l-7 -55h-339z
M955 -15l-6 -45h-223q-57 0 -76 19q-18 18 -18 70v399h94v-443h229z" />
    <glyph glyph-name="uni4F19" unicode="&#x4f19;" 
d="M940 619q-84 -151 -196 -280l-54 33q96 140 161 284zM397 814q-65 -135 -136 -241v-648h-93v521q-50 -61 -98 -112l-46 48q154 187 267 463zM378 641q96 -153 157 -261l-78 -46l-134 277zM677 841q-3 -248 -26 -392q99 -308 322 -467l-86 -67q-181 149 -267 399
q-71 -243 -288 -400l-48 35q177 147 238 363q51 177 50 529h105z" />
    <glyph glyph-name="uni4F1A" unicode="&#x4f1a;" 
d="M91 305h801l-8 -53h-399q-135 -138 -224 -225h437q-68 92 -117 155l53 38q136 -143 232 -253l-77 -61l-48 64h-536q-43 0 -54 29q-9 28 18 57q70 73 179 196h-252zM706 435h-432l-4 53h442zM592 820q-29 -41 -52 -69q167 -169 430 -253l-45 -92q-252 98 -427 296
q-180 -198 -434 -310l-35 55q290 147 451 403z" />
    <glyph glyph-name="uni4F1B" unicode="&#x4f1b;" 
d="M372 806q-52 -110 -115 -206v-679h-86v559q-45 -57 -106 -123l-46 44q142 174 251 433zM965 12l-7 -47h-500q-54 0 -77 23q-21 21 -21 70v704h571l-7 -52h-475v-698h516zM466 100q109 111 193 247l-169 257l53 34q54 -72 160 -216q60 113 103 240l92 -23
q-58 -159 -142 -291q81 -112 147 -208l-76 -53l-121 187q-84 -116 -191 -209z" />
    <glyph glyph-name="uni4F1E" unicode="&#x4f1e;" 
d="M936 442q-257 86 -443 273q-190 -175 -433 -292l-32 53q282 152 460 374l106 -34q-18 -20 -57 -59q175 -155 438 -227zM584 265q93 111 157 228l81 -46q-82 -122 -189 -218zM317 234q-106 182 -133 226l55 28q89 -114 158 -211zM537 204h401l-8 -53h-393v-238h-95v238
h-387l-5 53h392v414h95v-414z" />
    <glyph glyph-name="uni4F1F" unicode="&#x4f1f;" 
d="M387 813q-57 -126 -133 -242v-654h-92v527q-33 -43 -87 -102l-46 45q147 181 255 454zM641 644v-125h250l-6 -53h-244v-136h241q40 0 40 -32v-214q0 -39 -24 -53q-19 -11 -65 -11h-126l-8 42h131v216h-189v-362h-92v362h-230l-4 52h234v136h-179l-4 53h183v125h-207
l-4 53h211v148h92v-148h302l-7 -53h-295z" />
    <glyph glyph-name="uni4F20" unicode="&#x4f20;" 
d="M385 823q-65 -148 -134 -258v-652h-86v525q-54 -72 -95 -119l-49 44q147 195 257 485zM569 468l-36 -135h307q30 0 39 -21q8 -20 -9 -40q-127 -145 -191 -212l139 -75l-53 -81q-171 111 -382 240l40 50l192 -100q86 116 133 187h-325l50 187h-183l-4 53h202l37 137h-164
l-4 52h182l36 134h96l-36 -134h272l-7 -52h-279l-37 -137h386l-8 -53h-393z" />
    <glyph glyph-name="uni4F22" unicode="&#x4f22;" 
d="M374 817q-59 -125 -120 -220v-682h-90v554q-42 -55 -96 -115l-46 45q141 178 250 446zM959 385h-167v-368q0 -92 -99 -92h-142l-7 47h153v413h-13q-120 -268 -355 -410l-45 48q198 134 290 362h-214l65 262h83l-52 -208h241v285h-303l-5 54h553l-6 -54h-144v-285h174z
" />
    <glyph glyph-name="uni4F24" unicode="&#x4f24;" 
d="M412 820q-75 -143 -155 -249v-656h-91v544q-42 -49 -103 -108l-44 49q164 182 288 453zM862 413q42 0 42 -36v-356q0 -45 -26 -63q-22 -14 -69 -14h-205l-8 46h210v369h-169q-47 -291 -278 -439l-43 35q186 140 222 404h-181l-4 54h191q6 71 9 153h104q-5 -89 -13 -153
h218zM963 685l-6 -55h-435q-70 -104 -154 -191l-46 44q122 147 210 371l101 -29q-33 -70 -75 -140h405z" />
    <glyph glyph-name="uni4F25" unicode="&#x4f25;" 
d="M891 743q-132 -124 -308 -214l-36 48q157 99 275 229zM385 825q-60 -126 -126 -228v-685h-92v555q-46 -58 -95 -113l-47 43q144 182 256 453zM673 420q108 -259 305 -408l-91 -62q-193 172 -287 470h-69v-348q63 26 146 63l19 -61q-166 -91 -299 -156l-27 88q11 5 34 14
l33 13v387h-132l-4 54h136v363h94v-363h424l-7 -54h-275z" />
    <glyph glyph-name="uni4F26" unicode="&#x4f26;" 
d="M400 822q-68 -129 -147 -239v-666h-94v547q-48 -55 -91 -99l-47 49q151 177 268 439zM917 398q-176 112 -300 304q-70 -107 -153 -193h74v-244q144 77 258 175l63 -79q-152 -110 -321 -173v-193h363l-6 -46h-354q-56 0 -76 20q-19 18 -19 69v452q-72 -70 -137 -118
l-48 47q208 175 321 426l106 -18q-11 -22 -35 -64q125 -174 322 -287z" />
    <glyph glyph-name="uni4F27" unicode="&#x4f27;" 
d="M412 818q-71 -125 -153 -233v-669h-93v556q-41 -45 -97 -101l-46 49q156 173 280 432zM915 378q-183 125 -308 321q-79 -126 -184 -229h327q39 0 39 -33v-238q0 -41 -24 -56q-19 -11 -65 -11h-107l-8 43h113v242h-201v-436h400l-7 -47h-389q-57 0 -78 21q-20 19 -20 71
v424q-48 -44 -92 -79l-49 45q204 180 314 437l106 -18q-19 -40 -39 -74q123 -178 331 -301z" />
    <glyph glyph-name="uni4F2A" unicode="&#x4f2a;" 
d="M467 609q-78 113 -101 145l48 40l119 -122zM384 824q-54 -120 -121 -228v-678h-90v546q-45 -61 -102 -127l-47 44q146 190 255 468zM880 589q41 0 41 -36v-520q0 -83 -89 -83h-197l-8 45h202v538h-194q-55 -366 -284 -621l-52 32q192 233 237 589h-227l-4 56h237
q11 106 14 256h105q-4 -139 -18 -256h237zM747 160q-91 115 -142 175l47 38q90 -82 161 -153z" />
    <glyph glyph-name="uni4F2B" unicode="&#x4f2b;" 
d="M355 628h242v183h98v-183h207q28 0 28 -26v-202h-91v175h-394v-180h-90v233zM394 817q-56 -123 -127 -235v-669h-88v544q-51 -66 -109 -130l-47 46q152 191 265 474zM973 79l-7 -54h-625l-4 54h636z" />
    <glyph glyph-name="uni4F2F" unicode="&#x4f2f;" 
d="M400 828q-60 -127 -134 -242v-669h-96v535q-56 -70 -98 -116l-48 44q151 191 268 473zM803 14v284h-319v-284h319zM484 606v-255h319v255h-319zM818 658q49 0 67 -16t18 -56v-624h-518v696h145q25 74 53 191l114 -10q-37 -89 -86 -181h207z" />
    <glyph glyph-name="uni4F30" unicode="&#x4f30;" 
d="M401 822q-64 -132 -136 -239v-664h-91v541q-49 -61 -99 -113l-48 47q150 182 265 458zM777 303h-304v-274h304v274zM673 567v-210h129q42 0 59 -15q16 -14 16 -50v-317h-502v382h201v210h-263l-4 54h267v227h97v-227h290l-7 -54h-283z" />
    <glyph glyph-name="uni4F32" unicode="&#x4f32;" 
d="M402 816q-62 -135 -132 -242v-657h-91v530q-42 -54 -100 -117l-48 44q152 188 265 469zM501 724q-4 -113 -7 -170h330v170h-323zM490 502q-28 -321 -155 -575l-60 21q124 292 126 828h481q27 0 27 -26v-248h-419zM948 -8l-7 -48h-285q-61 0 -82 21q-20 20 -20 75v418h101
v-224q132 76 231 172l59 -64q-131 -110 -290 -179v-171h293z" />
    <glyph glyph-name="uni4F34" unicode="&#x4f34;" 
d="M928 730q-84 -119 -187 -209l-48 38q89 104 155 219zM484 524q-82 140 -126 209l56 27q65 -80 149 -192zM401 813q-69 -131 -141 -237v-659h-95v528q-43 -54 -97 -116l-51 44q146 188 273 467zM962 205h-285v-291h-101v291h-282l-4 54h286v168h-244l-5 52h249v369h101
v-369h249l-7 -52h-242v-168h293z" />
    <glyph glyph-name="uni4F36" unicode="&#x4f36;" 
d="M411 820q-74 -135 -163 -246v-659h-89v556q-49 -52 -98 -97l-42 50q165 173 289 428zM840 353q30 0 38 -22q7 -21 -11 -41q-181 -193 -217 -230q75 -42 147 -84l-51 -77q-196 130 -382 247l39 48q62 -33 182 -99q96 120 157 204h-406l-4 54h222v160h94v-160h192zM691 835
q-24 -47 -48 -86q126 -165 337 -275l-54 -84q-190 114 -319 303q-126 -185 -303 -313l-48 46q212 173 329 427z" />
    <glyph glyph-name="uni4F38" unicode="&#x4f38;" 
d="M392 817q-61 -126 -139 -238v-663h-91v545q-45 -53 -89 -97l-45 45q148 173 262 437zM821 248v176h-147v-176h147zM441 248h148v176h-148v-176zM441 635v-161h148v161h-148zM821 635h-147v-161h147v161zM909 195h-232v-281h-93v281h-229v493h229v158h92v-158h160
q73 0 73 -63v-430z" />
    <glyph glyph-name="uni4F3A" unicode="&#x4f3a;" 
d="M375 812q-58 -126 -126 -233v-664h-88v538q-49 -63 -88 -107l-49 43q138 181 244 449zM775 528h-473l-4 54h484zM605 360h-138v-196h138v196zM699 112h-324v299h259q37 0 51 -13t14 -47v-239zM873 770q40 0 40 -39v-719q0 -91 -89 -91h-142l-8 46h147v749h-437l-5 54h494
z" />
    <glyph glyph-name="uni4F3C" unicode="&#x4f3c;" 
d="M630 531q-87 129 -173 251l49 37q115 -132 194 -230zM374 810q-60 -127 -132 -233v-652h-84v539q-50 -61 -89 -101l-44 44q144 172 250 431zM641 304q-161 -146 -294 -253l-44 79l49 36v533h87v-469q86 65 171 132zM904 -52q-93 154 -154 252q-90 -156 -262 -283l-38 38
q192 153 269 360q65 175 84 507h95q-27 -364 -113 -554q87 -114 194 -265z" />
    <glyph glyph-name="uni4F3D" unicode="&#x4f3d;" 
d="M337 817q-53 -122 -106 -213v-684h-83v556q-45 -63 -83 -108l-46 40q123 172 218 431zM573 629q34 -2 34 -33v-562q0 -44 -21 -61q-18 -14 -58 -14h-110l-8 39h115v578h-75q-20 -389 -147 -660l-56 17q105 257 119 643h-85l-4 53h90q2 67 2 212h88q-2 -141 -4 -212h120z
M835 639h-101v-577h101v577zM848 690q39 0 53 -13q13 -12 13 -45v-622h-256v680h190z" />
    <glyph glyph-name="uni4F43" unicode="&#x4f43;" 
d="M818 48v314h-155v-314h155zM428 48h151v314h-151v-314zM428 692v-279h151v279h-151zM818 692h-155v-279h155v279zM826 745q47 0 65 -17q17 -15 17 -54v-679h-570v746q-46 -84 -94 -157v-661h-87v543q-42 -53 -88 -103l-45 47q143 178 250 437l104 -28q-16 -34 -38 -74
h486z" />
    <glyph glyph-name="uni4F46" unicode="&#x4f46;" 
d="M786 241v212h-296v-212h296zM490 704v-198h296v198h-296zM880 185h-483v575h405q44 0 62 -16q16 -15 16 -52v-507zM383 814q-59 -119 -125 -219v-677h-89v555q-45 -57 -97 -112l-49 46q139 173 251 437zM972 44l-7 -55h-659l-5 55h671z" />
    <glyph glyph-name="uni4F4D" unicode="&#x4f4d;" 
d="M587 629v187h98v-187h255l-7 -55h-606l-4 55h264zM493 101q-87 283 -121 390l63 25q76 -188 148 -379zM408 818q-75 -150 -156 -263v-638h-91v521q-44 -51 -91 -100l-46 48q159 185 278 463zM974 65l-8 -56h-679l-4 56h338q92 225 150 461l103 -22q-70 -227 -173 -439
h273z" />
    <glyph glyph-name="uni4F4E" unicode="&#x4f4e;" 
d="M368 821q-59 -134 -128 -246v-659h-88v531q-34 -45 -82 -102l-49 44q137 180 240 459zM577 100q70 -75 124 -137l-72 -44q-111 163 -103 152zM654 458l-32 228q-64 -11 -178 -26v-202h210zM965 -20l-7 -48h-174q-35 0 -49 12q-12 11 -17 44l-57 416h-217v-282
q99 74 157 120l28 -62q-149 -137 -278 -239l-44 82l44 31v660h32q265 54 463 125l48 -94q-95 -25 -175 -41l34 -246h185l-7 -54h-171l58 -424h147z" />
    <glyph glyph-name="uni4F4F" unicode="&#x4f4f;" 
d="M400 817q-67 -130 -139 -231v-670h-89v557q-50 -58 -98 -106l-45 48q151 173 266 434zM970 47l-7 -54h-654l-4 54h279v256h-209l-5 53h214v242h-239l-5 53h244v171h94v-171h259l-7 -53h-253v-242h232l-6 -53h-226v-256h293z" />
    <glyph glyph-name="uni4F50" unicode="&#x4f50;" 
d="M978 25l-7 -53h-617l-5 53h279v308h-134l-2 30q-80 -131 -184 -238l-54 34q160 181 253 439h-190l-4 54q-28 -49 -64 -103v-633h-91v509q-40 -51 -86 -101l-47 47q157 196 270 481l106 -29q-44 -95 -88 -171h212q27 86 50 196l103 -10q-19 -89 -52 -186h334l-7 -54h-347
q-41 -109 -100 -212h418l-6 -53h-197v-308h257z" />
    <glyph glyph-name="uni4F51" unicode="&#x4f51;" 
d="M538 18h252v321h-252v-321zM626 590q-48 -106 -111 -198h299q41 0 57 -14q16 -15 16 -50v-362h-445v330q-58 -69 -119 -123l-52 37q159 156 254 380h-207l-5 52q-18 -28 -56 -80v-645h-91v533q-51 -57 -101 -106l-45 49q162 178 288 452l105 -32q-43 -83 -98 -169h231
q38 100 62 206l104 -11q-27 -102 -63 -195h314l-7 -54h-330z" />
    <glyph glyph-name="uni4F53" unicode="&#x4f53;" 
d="M393 820q-66 -128 -141 -235v-669h-93v545q-50 -61 -93 -106l-46 45q148 181 269 449zM695 570q96 -219 283 -375l-64 -82q-167 163 -262 396v-321h164l-7 -53h-152v-217h-100v217h-155l-4 53h164v287q-94 -199 -261 -384l-25 90q154 178 232 389h-191l-4 54h246v224h96
v-224h282l-7 -54h-235z" />
    <glyph glyph-name="uni4F55" unicode="&#x4f55;" 
d="M964 685h-106v-678q0 -88 -96 -88h-130l-7 46h141v720h-419l-3 27q-31 -52 -78 -120v-677h-88v566q-47 -56 -107 -114l-46 48q146 162 264 417l105 -32q-18 -34 -34 -61h612zM588 500h-133v-290h133v290zM672 159h-301v392h238q37 0 50 -12q13 -13 13 -46v-334z" />
    <glyph glyph-name="uni4F57" unicode="&#x4f57;" 
d="M393 821q-67 -132 -142 -235v-674h-91v557q-48 -55 -91 -99l-44 48q151 176 266 435zM432 644v-149h-89v202h250v149h89v-149h213q28 0 28 -26v-176h-89v149h-402zM930 -9l-7 -46h-382q-56 0 -76 20q-19 19 -19 70v487h91v-287q169 79 286 199l60 -73
q-152 -131 -346 -196v-174h393z" />
    <glyph glyph-name="uni4F58" unicode="&#x4f58;" 
d="M362 210q-124 -141 -235 -250l-64 68q117 103 246 227zM551 297v-298q0 -47 -31 -64q-24 -14 -74 -14h-138q-1 0 -8 43h149v333h-353l-5 54h815l-8 -54h-347zM733 478h-471l-4 52h482zM665 257q145 -124 254 -226l-74 -67q-164 180 -231 251zM577 826q-28 -34 -43 -51
q171 -159 437 -231l-40 -91q-257 87 -438 278q-183 -187 -428 -303l-35 56q271 147 435 374z" />
    <glyph glyph-name="uni4F59" unicode="&#x4f59;" 
d="M362 192q-120 -129 -231 -235l-56 71q124 102 239 210zM634 233q153 -109 260 -190l-61 -73q-143 131 -243 217zM709 541q-114 75 -211 183q-99 -100 -223 -183h434zM590 825q-20 -25 -48 -55q165 -165 426 -250l-43 -90q-98 38 -181 89l-4 -32h-202v-160h349l-7 -54
h-342v-268q0 -81 -100 -81h-120l-7 44h131v305h-355l-5 54h360v160h-198l-3 32q-83 -53 -186 -101l-34 54q290 151 461 384z" />
    <glyph glyph-name="uni4F5A" unicode="&#x4f5a;" 
d="M387 803q-55 -118 -129 -229v-658h-91v535q-52 -63 -98 -111l-47 45q149 178 259 446zM704 331q93 -230 279 -353l-86 -69q-172 134 -253 382q-77 -229 -291 -378l-48 36q191 152 253 382h-239l-4 53h256q18 87 26 201h-123q-38 -93 -93 -181l-50 30q64 132 102 322
l95 -11q-16 -60 -34 -108h106q4 84 4 204h105q-2 -120 -7 -204h207l-6 -52h-205q-9 -114 -29 -201h284l-7 -53h-242z" />
    <glyph glyph-name="uni4F5B" unicode="&#x4f5b;" 
d="M363 808q-61 -124 -126 -221v-667h-85v554q-42 -51 -84 -95l-47 45q134 161 237 413zM655 309v139h-93v-139h93zM384 309h97v139h-87zM561 498h94v142h-94v-142zM737 640v-142h97v142h-97zM907 309q38 0 38 -30v-197q0 -38 -23 -51q-17 -10 -60 -10h-92l-8 40h97v197
h-122v-347h-82v347h-83q-27 -138 -76 -211q-57 -84 -184 -148l-27 43q93 59 135 133q34 62 55 183h-170l15 241l156 -1v142h-134l-5 52h139v145h85v-145h94v151h82v-151h149q24 0 24 -23v-222l-173 1v-139h170z" />
    <glyph glyph-name="uni4F5C" unicode="&#x4f5c;" 
d="M395 809q-63 -121 -132 -219v-658h-91v540q-45 -53 -102 -112l-45 48q146 170 265 433zM619 616v-177h292l-5 -53h-287v-180h317l-6 -53h-311v-238h-93v676q-70 -106 -165 -213l-48 45q132 171 240 429l109 -25q-44 -88 -86 -158h385l-7 -53h-335z" />
    <glyph glyph-name="uni4F5D" unicode="&#x4f5d;" 
d="M368 816q-54 -121 -113 -221v-680h-92v540q-50 -67 -93 -118l-48 45q134 184 240 462zM483 168h145v271h-145v-271zM868 690q40 0 40 -38v-639q0 -90 -89 -90h-194l-8 46h200v667h-308q-50 -79 -104 -145h246q37 0 50 -13q14 -13 14 -47v-316h-319v364q-60 -72 -81 -94
l-47 46q130 164 238 415l106 -28q-38 -74 -70 -129h275v1h51z" />
    <glyph glyph-name="uni4F5E" unicode="&#x4f5e;" 
d="M411 720l-4 52h467l-6 -52h-457zM316 572h634l-7 -51h-622zM395 807q-63 -134 -138 -244v-643h-91v520q-42 -52 -96 -109l-46 47q152 184 266 458zM527 311q-40 -67 -70 -114q16 -6 92 -37q56 -22 92 -37q73 69 104 188h-218zM847 311q-39 -143 -122 -222
q131 -53 229 -94l-40 -79q-241 113 -257 121q-110 -69 -332 -119l-19 56q177 44 270 101q-54 24 -209 95q35 62 72 141h-147l-5 52h175q28 66 57 143l102 -15q-50 -101 -65 -128h411l-8 -52h-112z" />
    <glyph glyph-name="uni4F5F" unicode="&#x4f5f;" 
d="M412 822q-77 -145 -160 -258v-647h-89v535q-36 -43 -97 -106l-46 48q158 182 284 458zM394 120q302 -82 452 -126l-22 -89q-187 69 -449 159zM547 297q138 -75 254 -144l-49 -71q-124 90 -240 169zM536 667q-27 -41 -31 -46q58 -83 123 -138q82 79 140 184h-232zM855 718
q29 0 36 -21t-9 -42q-90 -136 -185 -224q114 -74 279 -115l-39 -98q-181 52 -306 157q-137 -103 -315 -155l-30 60q165 56 284 151q-61 64 -106 136q-49 -60 -95 -105l-50 36q136 154 213 353l97 -15q-29 -63 -61 -118h287z" />
    <glyph glyph-name="uni4F60" unicode="&#x4f60;" 
d="M293 429q140 179 212 422l103 -12q-31 -87 -72 -168h375q29 0 40 -15q11 -14 -1 -34q-64 -119 -105 -187l-74 19q36 89 60 164h-323q-68 -120 -159 -223zM372 816q-54 -117 -121 -223v-678h-91v548q-45 -59 -97 -115l-47 47q142 179 250 450zM549 379
q-101 -176 -183 -307l-77 45q89 125 198 290zM587 551h93v-548q0 -80 -97 -80h-130l-7 43h141v585zM769 403q106 -143 198 -278l-77 -46q-113 192 -176 295z" />
    <glyph glyph-name="uni4F63" unicode="&#x4f63;" 
d="M370 824q-63 -139 -135 -252v-659h-85v539q-43 -56 -86 -103l-46 44q142 180 250 458zM822 301v190h-149v-190h149zM439 491q-7 -116 -18 -190h166v190h-148zM445 719q0 -66 -4 -176h146v176h-142zM822 719h-149v-176h149v176zM872 772q39 0 39 -38v-722q0 -87 -86 -87
q-6 -1 -107 0l-8 42h112v283h-151v-253h-86v253h-172q-29 -174 -102 -334l-59 18q102 267 100 838h520z" />
    <glyph glyph-name="uni4F64" unicode="&#x4f64;" 
d="M970 -1l-8 -48h-212q-64 0 -59 66l36 489h-226l-48 -455q115 46 202 84l17 -58q-159 -84 -317 -158l-26 83l31 12l73 686h-101l-2 27q-43 -77 -81 -134v-681h-83v566q-41 -54 -101 -118l-46 46q149 182 259 447l102 -29l-35 -70h595l-7 -54h-411l-16 -148h281
q40 0 36 -40l-40 -513h187zM546 407q85 -93 145 -165l-67 -42q-91 131 -126 179z" />
    <glyph glyph-name="uni4F65" unicode="&#x4f65;" 
d="M264 509q-93 -71 -200 -129l-39 54q279 174 452 419l111 -31q-29 -37 -47 -57q166 -179 434 -271l-47 -91q-254 104 -430 314q-103 -110 -231 -206h451l-7 -52h-443zM475 105l-69 301l63 13q50 -150 94 -295zM210 374q94 -169 156 -288l-88 -31q-96 222 -130 299z
M827 372q-74 -186 -174 -345h286l-8 -54h-859l-5 54h506q94 178 158 372z" />
    <glyph glyph-name="uni4F67" unicode="&#x4f67;" 
d="M412 816q-69 -136 -147 -247v-653h-91v533q-44 -53 -99 -112l-47 49q152 185 273 461zM670 326q159 -103 270 -180l-58 -74q-145 122 -253 207zM973 454l-7 -54h-357v-486h-92v486h-214l-5 54h217v394h91v-155h291l-6 -54h-285v-185h367z" />
    <glyph glyph-name="uni4F69" unicode="&#x4f69;" 
d="M340 823q-52 -120 -111 -220v-688h-90v550q-29 -42 -74 -97l-47 40q123 174 222 438zM434 638h334l-6 -48h-124v-120h92q31 0 31 -25v-305q0 -34 -16 -45q-12 -10 -46 -10h-49l-8 35h55v303h-64v-497h-72v497h-57v-346h-64v393h113v120h-115zM975 -26l-6 -46h-91
q-33 0 -45 12q-11 12 -12 45l-28 743h-383q-5 -519 -102 -814l-58 16q73 267 73 848h524q28 0 30 -39q5 -148 30 -765h68z" />
    <glyph glyph-name="uni4F6C" unicode="&#x4f6c;" 
d="M388 820q-68 -140 -144 -251v-652h-88v534q-49 -59 -88 -101l-46 45q149 182 264 453zM584 487h26q79 81 144 169h-170v-169zM682 434q-72 -69 -148 -126v-121q156 64 285 164l52 -76q-152 -102 -337 -157v-119h375l-6 -47h-368q-60 0 -80 20q-19 18 -19 72v197
q-73 -47 -157 -88l-35 56q170 95 311 225h-284l-4 53h226v169h-139l-4 51h143v141h91v-141h177l-6 -49q44 61 88 137l86 -46q-85 -143 -195 -262h226l-7 -53h-271z" />
    <glyph glyph-name="uni4F6F" unicode="&#x4f6f;" 
d="M384 807q-62 -133 -130 -238v-649h-90v523q-48 -61 -95 -112l-45 46q150 187 257 459zM961 170h-303v-253h-91v253h-280l-5 54h285v165h-210l-4 52h214v162h-235l-4 53h177l-87 165l58 31q81 -106 112 -150l-79 -46h149q43 81 83 194l97 -27q-47 -93 -101 -167h201
l-7 -53h-273v-162h236l-6 -52h-230v-165h310z" />
    <glyph glyph-name="uni4F70" unicode="&#x4f70;" 
d="M797 491h-324v-202h324v202zM797 16v221h-324v-221h324zM696 710q-29 -96 -60 -167h178q45 0 62 -16q17 -15 17 -52v-512h-516v580h176q19 68 33 167h-246l-1 8q-34 -66 -80 -136v-660h-97v526q-41 -52 -93 -109l-49 45q146 182 258 459l111 -26l-13 -27q-8 -18 -13 -27
h608l-7 -53h-268z" />
    <glyph glyph-name="uni4F73" unicode="&#x4f73;" 
d="M580 682v163h93v-163h221l-7 -53h-214v-153h275l-7 -54h-622l-5 54h266v153h-212l-4 53h216zM397 809q-62 -121 -140 -227h4v-667h-91v559q-43 -49 -102 -107l-43 48q155 170 271 425zM970 29l-7 -55h-664l-4 55h285v179h-230l-5 53h235v122h93v-122h232l-7 -53h-225
v-179h297z" />
    <glyph glyph-name="uni4F74" unicode="&#x4f74;" 
d="M752 179v136h-247v-156zM505 715v-148h247v148h-247zM505 366h247v149h-247v-149zM971 143l-126 -10v-218h-93v210l-453 -37l-10 53l125 10v564h-60l-2 30q-51 -96 -90 -156v-669h-90v542q-43 -57 -98 -117l-48 44q143 181 254 454l106 -28l-23 -48h581l-7 -52h-92v-529
l129 11z" />
    <glyph glyph-name="uni4F76" unicode="&#x4f76;" 
d="M775 236h-288v-215h288v215zM802 289q40 0 56 -14q17 -15 17 -49v-258h-487v321h414zM683 616v-159h251l-7 -54h-592l-5 54h258v159h-276l-4 39q-28 -42 -43 -62v-675h-93v559q-47 -56 -106 -113l-47 48q155 175 279 440l109 -32q-41 -78 -88 -149h269v171h95v-171h288
l-7 -55h-281z" />
    <glyph glyph-name="uni4F7B" unicode="&#x4f7b;" 
d="M948 677q-62 -110 -153 -207l-51 30q77 111 122 212zM360 816q-49 -117 -112 -226v-672h-88v536q-43 -60 -87 -113l-50 45q129 182 227 458zM357 698q64 -86 118 -164q7 109 7 302h95q-2 -330 -37 -516q-42 -221 -155 -409l-57 20q88 168 122 371q-71 -66 -138 -122
l-46 79q101 71 199 149q6 58 8 92l-58 -30l-113 202zM738 -8h214l-6 -47h-204q-54 0 -74 21q-19 19 -19 68v808h89v-417q125 -91 222 -165l-49 -77q-148 136 -173 158v-349z" />
    <glyph glyph-name="uni4F7C" unicode="&#x4f7c;" 
d="M396 821q-68 -129 -136 -228v-679h-91v558q-44 -54 -98 -111l-48 45q148 178 266 444zM282 402q140 110 239 229h-185l-5 54h265v162h91v-162h269l-7 -54h-419l59 -62q-127 -128 -272 -216zM718 619q170 -117 262 -185l-54 -75q-163 142 -249 212zM831 396
q-59 -145 -144 -245q114 -93 288 -149l-53 -92q-175 63 -295 177q-125 -115 -302 -174l-34 55q167 67 277 182q-83 97 -148 246l58 26q62 -125 144 -210q75 98 119 220z" />
    <glyph glyph-name="uni4F7E" unicode="&#x4f7e;" 
d="M381 819q-63 -124 -140 -229v-676h-87v565q-51 -58 -91 -98l-45 46q144 163 261 422zM751 200v112h-297v-112h297zM454 478v-117h297v117h-297zM800 530q39 0 39 -34v-497q0 -45 -23 -63q-20 -15 -63 -15h-125l-8 44h131v187h-297v-238h-87v588q-26 -26 -63 -58l-42 47
q126 129 225 325l100 -33q-86 -145 -192 -253h405zM689 855q95 -194 288 -323l-65 -83q-180 144 -281 382z" />
    <glyph glyph-name="uni4F7F" unicode="&#x4f7f;" 
d="M372 810q-54 -116 -118 -218v-676h-92v547q-46 -59 -93 -110l-47 46q139 173 245 440zM442 351h146v170h-146v-170zM817 521h-143v-170h143v170zM941 -77q-222 33 -373 120q-83 -83 -249 -132l-20 54q138 49 199 123q-98 69 -183 179l55 32q73 -86 168 -145q24 52 39 146
h-224v272h231v98h-245l-4 52h249v125h92v-125h276l-7 -52h-269v-98h166q66 0 66 -58v-214h-226q-21 -117 -62 -189q141 -64 351 -85z" />
    <glyph glyph-name="uni4F83" unicode="&#x4f83;" 
d="M463 502h303v218h-303v-218zM370 768q-58 -107 -125 -198v-644h-91v533q-42 -46 -88 -91l-46 48q146 160 260 411l105 -31l-12 -22h417q70 0 70 -62v-264h-490v320zM255 -58q79 78 109 192q26 97 26 267h91q-5 -182 -40 -284q-41 -117 -142 -200zM563 399h82v-458h-82
v458zM968 -21l-6 -42h-141q-52 0 -69 17q-16 15 -16 63v386h85v-424h147z" />
    <glyph glyph-name="uni4F84" unicode="&#x4f84;" 
d="M969 29l-7 -54h-661l-5 54h283v181h-224l-4 53h228v158h-176q-38 0 -47 25q-9 23 13 52q29 37 82 102q52 64 82 102h-183l-3 40q-43 -79 -97 -156v-670h-90v554q-36 -42 -94 -102l-46 45q150 173 264 440l105 -30q-6 -13 -17 -34l-17 -33h592l-7 -54h-284
q-88 -106 -198 -228h320q-52 89 -82 138l56 29q108 -144 183 -252l-80 -47l-46 79h-139v-158h248l-7 -53h-241v-181h299z" />
    <glyph glyph-name="uni4F88" unicode="&#x4f88;" 
d="M421 817q-75 -139 -167 -256v-641h-88v535q-62 -66 -97 -100l-43 49q167 182 292 444zM909 358q28 0 34 -21q6 -19 -9 -39q-219 -327 -588 -393l-25 58q173 37 298 120q-67 69 -99 100l38 45q18 -14 65 -47q41 -30 63 -47q85 73 140 171h-190q-121 -112 -274 -184l-39 51
q180 97 295 252q-114 -74 -261 -114l-29 58q134 42 237 111q-49 57 -84 95l38 44l109 -91q75 65 128 145h-214q-75 -94 -176 -181l-43 47q119 121 217 306l99 -33q-29 -48 -58 -88h262q28 0 35 -21t-10 -40q-104 -135 -219 -217l92 -25q-34 -42 -53 -62h221z" />
    <glyph glyph-name="uni4F89" unicode="&#x4f89;" 
d="M595 665q-48 -87 -119 -158h277q-59 66 -104 158h-54zM258 429q151 86 235 236h-162l-3 39q-38 -70 -85 -144v-645h-88v521q-41 -52 -80 -97l-47 43q143 187 255 469l104 -26q-27 -60 -54 -110h186q26 57 47 133l100 -13q-20 -67 -46 -120h305l-6 -50h-195
q91 -134 247 -200l-56 -81q-83 41 -149 110l-4 -36h-288l-4 44q-72 -69 -169 -119zM300 344h623l-6 -50h-389l-25 -113h282q40 0 40 -32v-163q0 -39 -25 -53q-18 -10 -64 -10h-209l-8 42h214v167h-263v1h-64l36 161h-138z" />
    <glyph glyph-name="uni4F8B" unicode="&#x4f8b;" 
d="M349 826l-30 -65h346l-6 -53h-166q-21 -91 -47 -163h176q36 0 26 -41q-76 -372 -323 -571l-45 35q115 105 186 250q-55 48 -108 93l29 51q65 -39 111 -70q36 94 54 202h-125q-54 -134 -134 -251l-54 28q114 183 162 437h-90l-2 33q-39 -78 -88 -153h1v-668h-82v554
q-44 -56 -79 -95l-45 42q133 170 234 430zM758 127h-76v557h76v-557zM923 830v-825q0 -83 -88 -83h-113q-1 0 -7 44h125v864h83z" />
    <glyph glyph-name="uni4F8D" unicode="&#x4f8d;" 
d="M412 802q-70 -125 -145 -222v-664h-92v556q-53 -57 -108 -107l-44 49q158 162 284 421zM438 250q112 -100 160 -147l-68 -60q-85 104 -140 168zM780 317h159l-7 -53h-152v-270q0 -76 -96 -76h-115q-1 0 -7 42h126v304h-360l-4 53h364v118h92v-118zM964 512l-8 -52h-654
l-4 52h272v140h-197l-5 53h202v143h91v-143h230l-6 -53h-224v-140h303z" />
    <glyph glyph-name="uni4F8F" unicode="&#x4f8f;" 
d="M369 816q-56 -123 -122 -228v-671h-90v542q-40 -52 -86 -104l-49 43q135 174 241 444zM701 364q95 -187 270 -308l-58 -76q-145 119 -236 296v-360h-90v336q-100 -160 -253 -280l-48 51q165 145 256 341h-242l-5 53h292v188h-129q-37 -88 -83 -164l-50 30q58 128 96 314
l96 -13q-14 -50 -38 -114h108v187h90v-187h226l-6 -53h-220v-188h284l-7 -53h-253z" />
    <glyph glyph-name="uni4F91" unicode="&#x4f91;" 
d="M792 470h-276v-121h276v121zM792 182v118h-276v-118h276zM593 640q-23 -41 -73 -119h325q41 0 41 -36v-489q0 -47 -25 -66q-21 -15 -67 -15h-115l-8 45h121v173h-276v-219h-90v476q-52 -67 -114 -135l-44 45q126 156 221 340h-167l-3 44q-36 -62 -64 -105v-666h-91v539
q-37 -48 -96 -114l-49 47q147 185 259 466l110 -31q-34 -72 -65 -128h192q38 79 71 160l100 -28q-37 -80 -65 -132h351l-7 -52h-372z" />
    <glyph glyph-name="uni4F94" unicode="&#x4f94;" 
d="M419 549q-38 0 -48 24q-10 23 12 50q33 42 92 112q71 83 103 122l99 -29q-96 -112 -202 -227h326q-54 86 -93 142l53 30q108 -130 186 -234l-75 -48l-37 58h-416zM408 815q-69 -132 -153 -246v-649h-92v532q-45 -51 -86 -94l-47 47q148 174 271 438zM958 128h-263v-215
h-91v215h-304l-5 52h309v167h-160q-39 -74 -79 -134l-52 28q65 113 106 263l88 -11q-14 -41 -38 -94h135v131h91v-131h229l-7 -52h-222v-167h271z" />
    <glyph glyph-name="uni4F97" unicode="&#x4f97;" 
d="M345 823q-51 -124 -113 -228v-680h-82v554q-37 -52 -84 -109l-44 40q133 184 227 447zM783 550h-327l-4 50h336zM676 403h-113v-211h113v211zM751 142h-262v311h206q32 0 44 -11q12 -12 12 -42v-258zM877 778q38 0 38 -37v-730q0 -86 -83 -86h-108l-8 42h114v758h-411
v-806h-82v859h540z" />
    <glyph glyph-name="uni4F9B" unicode="&#x4f9b;" 
d="M370 814q-61 -131 -127 -231v-650h-92v524q-44 -54 -79 -92l-46 44q136 169 241 432zM283 -39q115 135 201 291l86 -48q-106 -159 -237 -282zM732 241q117 -141 208 -261l-82 -55l-184 282zM537 308h172v252h-172v-252zM971 308l-7 -54h-684l-5 54h174v252h-111l-5 53
h116v221h88v-221h172v232h89v-232h130l-7 -53h-123v-252h173z" />
    <glyph glyph-name="uni4F9D" unicode="&#x4f9d;" 
d="M922 494q-92 -106 -196 -184q94 -163 257 -265l-85 -68q-236 170 -324 506q-38 -46 -58 -69v-349q71 39 141 81l19 -58q-122 -88 -259 -174l-32 79l46 25v305q-62 -62 -133 -124l-39 55q167 162 294 370h-243l-3 32q-24 -39 -53 -83v-657h-91v534q-47 -58 -92 -106
l-46 47q148 182 263 457l106 -31q-39 -80 -74 -139h259v157h94v-157h277l-7 -54h-264l-52 -73q29 -102 67 -180q91 91 155 180z" />
    <glyph glyph-name="uni4FA0" unicode="&#x4fa0;" 
d="M400 817q-74 -138 -157 -246v-653h-90v544q-54 -58 -84 -87l-43 47q150 168 270 424zM665 291q106 -202 297 -307l-81 -78q-186 121 -284 363q-77 -215 -278 -364l-47 34q174 145 238 352h-224l-4 54h243q30 127 38 296h-224l-4 53h230q2 49 2 154h102q-2 -103 -4 -154
h260l-7 -53h-256q-9 -171 -42 -296h344l-8 -54h-291zM397 602q75 -124 116 -198l-80 -31l-93 209zM698 399q65 99 111 206l81 -36q-58 -106 -141 -200z" />
    <glyph glyph-name="uni4FA3" unicode="&#x4fa3;" 
d="M495 500h275v223h-275v-223zM399 774h398q39 0 55 -14q15 -13 15 -47v-264h-468v325zM408 817q-71 -126 -146 -226v-674h-91v562q-59 -67 -104 -110l-46 52q158 176 277 429zM804 295h-344v-271h344v271zM830 349q76 0 76 -66v-313h-548v379h472z" />
    <glyph glyph-name="uni4FA5" unicode="&#x4fa5;" 
d="M298 671q-34 -52 -57 -83v-673h-88v562q-45 -50 -86 -91l-46 47q142 161 250 407l106 -29q-33 -65 -78 -138l209 39l-50 133h100l43 -116l298 55l2 -51l-282 -52l41 -112q100 52 186 119l53 -75q-99 -70 -210 -123l26 -72h218l-7 -42h-252q-39 0 -52 31l-18 47
q-130 -51 -277 -81l-20 60q142 38 270 95l-51 136l-216 -40zM953 -9l-6 -45h-201q-59 0 -78 19q-17 17 -17 71v220h-95q-26 -133 -74 -203q-57 -82 -182 -140l-31 42q93 53 134 125q34 60 52 176h-162l-5 52h657l-8 -52h-188v-265h204z" />
    <glyph glyph-name="uni4FA6" unicode="&#x4fa6;" 
d="M558 845h92v-106h299l-6 -51h-293v-134h200q31 0 31 -30v-386h-89v362h-339v-365h-85v419h190v291zM416 820q-77 -146 -162 -258v-646h-91v535q-42 -48 -97 -101l-45 49q166 181 290 454zM685 431q-22 -218 -88 -324q-77 -125 -265 -198l-29 45q154 70 214 182
q52 95 67 295h101zM676 167q167 -104 283 -183l-53 -79q-172 138 -269 212z" />
    <glyph glyph-name="uni4FA7" unicode="&#x4fa7;" 
d="M285 740q-29 -64 -71 -139v-675h-82v544q-31 -45 -70 -95l-44 39q120 173 208 425l93 -21l-27 -62h312q25 0 25 -27v-542h-70v516h-205v-529h-69v566zM506 634q-3 -264 -45 -410q-49 -168 -176 -296l-43 24q106 121 146 289q34 141 34 393h84zM512 182q107 -111 157 -168
l-65 -54q-103 141 -139 188zM769 143h-73v575h73v-575zM918 836v-832q0 -80 -88 -80h-107l-6 40h118v872h83z" />
    <glyph glyph-name="uni4FA8" unicode="&#x4fa8;" 
d="M379 816q-65 -137 -139 -248v-655h-90v530q-27 -34 -83 -98l-48 46q143 182 254 453zM918 235q-72 35 -132 86v-402h-88v437h51q-65 67 -113 159h-37q-47 -91 -115 -156h70q-9 -169 -50 -265q-47 -108 -156 -183l-41 31q139 118 148 391q-61 -52 -147 -93l-44 44
q156 80 235 231h-193l-4 53h222q25 57 39 119q-80 -13 -176 -19l-14 61q247 32 453 111l34 -88q-87 -26 -191 -47q-18 -75 -45 -137h323l-7 -53h-228q91 -126 259 -195z" />
    <glyph glyph-name="uni4FA9" unicode="&#x4fa9;" 
d="M406 811q-69 -135 -153 -252v-641h-91v528q-35 -41 -94 -100l-46 46q159 180 278 449zM924 406q-190 109 -306 296q-117 -181 -288 -312l-50 44q198 167 307 414l104 -18l-36 -68q115 -171 321 -272zM443 476h355l-6 -51h-345zM309 299h626l-7 -52h-306
q-66 -91 -168 -222h305q-56 100 -90 158l55 27q85 -118 173 -248l-78 -43l-29 52h-391q-36 0 -46 22q-10 21 9 51l143 203h-192z" />
    <glyph glyph-name="uni4FAA" unicode="&#x4faa;" 
d="M286 -56q90 65 129 157q36 85 42 231h98q-12 -160 -63 -254q-53 -101 -171 -170zM440 659q76 -83 164 -138q69 60 127 138h-291zM944 283q-67 17 -146 46v-413h-89v418h77q-94 38 -173 89q-134 -90 -314 -141l-28 57q153 49 273 134q-90 71 -168 167l31 19h-78l-3 29
q-37 -63 -76 -118v-654h-91v536q-42 -49 -90 -99l-46 46q148 175 266 443l105 -29q-27 -52 -54 -102h236v129h93v-129h275l-7 -52h-79q-76 -104 -174 -184q121 -61 294 -98z" />
    <glyph glyph-name="uni4FAC" unicode="&#x4fac;" 
d="M367 823q-50 -112 -119 -222v-682h-88v555q-45 -59 -90 -110l-46 43q135 176 239 441zM925 408q-73 -85 -166 -148q88 -150 221 -257l-89 -63q-217 198 -308 539q-34 -57 -47 -75v-330q77 48 127 81l23 -59q-137 -108 -251 -186l-36 81l50 30v272q-68 -76 -146 -136
l-48 39q200 170 303 436h-136v-147h-88v201h243q26 75 46 163l100 -10q-21 -84 -46 -153h224q27 0 27 -24v-158h-89v128h-182q-11 -29 -27 -61q41 -143 98 -254q78 70 132 148z" />
    <glyph glyph-name="uni4FAE" unicode="&#x4fae;" 
d="M375 821q-62 -128 -129 -227v-674h-86v558q-40 -49 -86 -98l-45 44q139 166 247 424zM583 523q113 -70 134 -84l-46 -61q-63 56 -123 105zM661 143q-83 78 -127 116l36 39q103 -68 140 -95zM772 315h-295l-18 -180h313v180zM482 366h290v182h-272zM861 315v-180h79
l-6 -50h-73v-85q0 -84 -86 -84h-185l-8 42h190v127h-401l23 230h-107l-5 51h117l22 220q-26 -33 -83 -93l-43 41q105 127 193 316l97 -21q-28 -52 -55 -94h420l-6 -50h-448q-29 -41 -66 -88h392q39 0 39 -35v-196h107l-7 -51h-100z" />
    <glyph glyph-name="uni4FAF" unicode="&#x4faf;" 
d="M413 732l-4 49h385q27 0 37 -14q9 -13 -1 -32q-12 -23 -30 -65q-21 -46 -31 -66h159l-7 -52h-603l-4 52h373q31 114 34 128h-308zM392 812q-70 -127 -142 -229v-668h-91v549q-44 -54 -91 -106l-48 45q141 177 261 431zM955 188h-282q97 -134 279 -192l-46 -90
q-188 72 -293 255q-80 -161 -310 -253l-24 51q185 88 245 229h-235l-4 51h258q17 58 32 145h-116q-42 -63 -101 -134l-48 34q67 104 120 236l101 -14q-26 -48 -39 -70h391l-6 -52h-198q-14 -84 -35 -145h318z" />
    <glyph glyph-name="uni4FB5" unicode="&#x4fb5;" 
d="M362 779q-50 -101 -114 -198v-660h-88v541q-48 -59 -96 -110l-44 44q151 181 256 439l100 -27l-8 -17h475q29 0 29 -28v-273h-521l-4 47h436v84h-406l-3 43h409v80h-418zM943 -86q-192 31 -331 113q-127 -85 -307 -122l-24 58q151 34 266 107q-72 53 -137 129l49 28
q64 -69 145 -115q72 58 121 134h-353l-3 24h-66v154h606q27 0 27 -24v-129h-89v106h-459v-87h417q28 0 34 -21t-11 -38q-72 -92 -151 -156q121 -52 289 -71z" />
    <glyph glyph-name="uni4FBF" unicode="&#x4fbf;" 
d="M360 820q-48 -110 -108 -212v-698h-88v565q-48 -66 -94 -119l-48 42q133 175 236 446zM382 247q49 -63 108 -104q28 47 48 104h-156zM442 585v-112h142q4 38 8 112h-150zM692 585q-5 -71 -10 -112h142v112h-132zM442 295h111q14 54 26 130h-137v-130zM824 295v130h-148
q-11 -72 -28 -130h176zM944 -70q-270 10 -434 110q-63 -71 -162 -133l-43 37q88 63 146 139q-91 73 -158 186l56 26l10 -15v353h235q1 33 1 103h-235l-4 50h575l-7 -50h-227l-3 -103h151q64 0 64 -57v-329h-276q-30 -81 -74 -144q145 -70 404 -72z" />
    <glyph glyph-name="uni4FC3" unicode="&#x4fc3;" 
d="M391 814q-68 -140 -144 -251v-650h-92v528q-38 -45 -88 -98l-47 45q151 182 265 454zM490 506h304v234h-304v-234zM699 65q106 -27 276 -18l-16 -107q-360 -7 -512 212q-48 -130 -117 -232l-58 26q103 176 138 446l96 -6q-14 -85 -34 -156q53 -87 136 -131v353h-213v342
h424q40 0 56 -14t16 -49v-279h-192v-137h229l-6 -54h-223v-196z" />
    <glyph glyph-name="uni4FC4" unicode="&#x4fc4;" 
d="M865 586l-107 168l49 30q97 -115 126 -152zM967 -40l-7 -46h-168q-37 0 -50 13q-13 12 -16 47l-12 122q-56 -53 -129 -104l-38 41q79 64 159 153l-29 294h-154v-157l121 41l6 -59q-84 -36 -127 -53v-240q0 -77 -88 -77h-96l-7 42h108v242q-102 -40 -154 -59l-17 82
q84 26 171 54v184h-164l-4 52h168v135q-57 -20 -100 -31l-21 53q-33 -51 -69 -99v-665h-84v563q-48 -52 -102 -105l-40 46q153 163 272 410l96 -27q-33 -62 -72 -121q144 55 262 135l42 -76q-43 -24 -101 -50v-168h149l-30 316h86l31 -316h199l-7 -52h-187l19 -197
q58 82 93 151l74 -38q-65 -115 -157 -220l21 -216h153z" />
    <glyph glyph-name="uni4FC5" unicode="&#x4fc5;" 
d="M812 639q-90 107 -123 144l43 41q109 -93 140 -122zM386 813q-66 -129 -139 -229v-666h-90v554q-42 -48 -84 -89l-46 46q142 159 254 414zM922 493q-87 -97 -189 -173q87 -132 235 -224l-60 -83q-166 120 -259 308v-311q0 -92 -97 -92h-126l-7 44h137v300
q-124 -113 -246 -212l-49 76q152 111 295 228v230h-247l-4 53h251v208h93v-208h303l-7 -53h-296v-99q24 -63 50 -109q92 92 149 171zM364 543q104 -104 152 -156l-67 -56q-76 103 -132 175z" />
    <glyph glyph-name="uni4FCA" unicode="&#x4fca;" 
d="M409 812q-67 -132 -151 -250v-649h-91v534q-30 -36 -97 -105l-45 49q160 184 279 454zM293 378q130 79 223 181l-85 1q-36 0 -46 22t10 49l83 105q58 71 92 115l96 -29q-86 -105 -177 -208h314l-110 131l48 38q134 -129 216 -213l-68 -61l-41 50h-314l51 -54
q-116 -110 -261 -176zM693 555q216 -114 272 -145l-42 -73q-143 94 -263 170zM546 281l-10 -12q-7 -9 -11 -13q55 -78 125 -129q72 65 123 154h-227zM949 -93q-179 34 -301 122q-129 -89 -306 -128l-27 57q159 39 273 120q-56 52 -108 129q-60 -61 -127 -111l-48 42
q148 126 237 300l99 -18q-28 -49 -62 -95h272q28 0 35 -21q6 -20 -11 -38q-73 -107 -156 -181q106 -54 261 -77z" />
    <glyph glyph-name="uni4FCE" unicode="&#x4fce;" 
d="M390 453q-80 85 -140 145q-62 -114 -155 -207l-53 34q142 161 200 405l98 -11q-24 -83 -59 -158q119 -92 168 -133zM379 47q-89 101 -129 144q-61 -141 -174 -242l-52 32q156 157 195 447l97 -7q-15 -88 -39 -160q105 -89 167 -146zM557 20h230v206h-230v-206zM557 725
v-197h230v197h-230zM557 279h230v196h-230v-196zM967 20l-7 -54h-592l-5 54h103v759h376q37 0 37 -41v-718h88z" />
    <glyph glyph-name="uni4FCF" unicode="&#x4fcf;" 
d="M915 777q-61 -107 -146 -199l-52 31q71 100 117 204zM364 811q-53 -118 -113 -216v-680h-86v555q-37 -49 -96 -117l-48 43q133 172 237 441zM459 583l-103 186l54 27q94 -126 125 -171zM792 197v134h-340v-134h340zM452 513v-132h340v132h-340zM844 563q40 0 40 -36v-523
q0 -80 -89 -80h-107l-8 44h112v179h-340v-230h-88v646h217v286h90v-286h173z" />
    <glyph glyph-name="uni4FD0" unicode="&#x4fd0;" 
d="M531 384q90 -99 134 -152l-61 -52q-15 21 -44 64l-42 61v-389h-85v390q-61 -124 -162 -250l-27 89q109 147 162 318h-134l-4 53h165v158q-56 -14 -131 -26l-15 51q-36 -65 -62 -105v-675h-82v559q-40 -52 -73 -89l-45 42q125 163 222 414l99 -26q-18 -40 -56 -114
q167 43 305 110l38 -79q-76 -28 -115 -39v-181h129l-6 -53h-123v-89zM756 125h-77v557h77v-557zM919 831v-822q0 -85 -92 -85h-120l-7 42h132v865h87z" />
    <glyph glyph-name="uni4FD1" unicode="&#x4fd1;" 
d="M819 193v135h-169v-135h169zM401 193h165v135h-165v-135zM401 496v-120h165v120h-165zM819 496h-169v-120h169v120zM871 545q40 0 40 -35v-511q0 -79 -89 -79h-107l-8 44h112v180h-169v-177h-83v177h-166v-229h-85v630h268q-69 47 -151 100l36 41q46 -23 130 -67
q84 63 149 116h-415l-3 40q-44 -93 -97 -180v-677h-84v553q-37 -50 -80 -101l-46 42q133 179 228 435l101 -24l-17 -37h523q32 0 39 -26q7 -25 -16 -41q-92 -64 -211 -138l18 -10l-20 -26h203z" />
    <glyph glyph-name="uni4FD7" unicode="&#x4fd7;" 
d="M875 557q-111 123 -215 230l45 43q151 -128 234 -205zM320 568q105 106 180 260l96 -32q-97 -157 -234 -273zM403 823q-70 -139 -148 -251v-656h-90v539q-49 -58 -89 -99l-47 50q149 176 266 450zM493 9h256v238h-256v-238zM927 248q-199 84 -310 264q-81 -121 -196 -213
h353q37 0 51 -13q15 -14 15 -47v-282h-436v329q-41 -32 -82 -57l-44 46q214 149 316 385l99 -18q-18 -37 -39 -72q107 -165 321 -239z" />
    <glyph glyph-name="uni4FD8" unicode="&#x4fd8;" 
d="M348 735q277 36 526 109l33 -88q-271 -63 -546 -82zM606 485l-46 190l59 15q39 -98 70 -182zM389 815q-55 -114 -132 -228v-673h-89v555q-40 -48 -102 -113l-46 47q149 175 264 442zM958 183h-277v-176q0 -51 -26 -70q-21 -15 -68 -15h-141l-9 42h150v219h-295l-4 52h299
v87h43q50 44 115 103h-398l-4 52h94q-14 34 -37 87l-36 84l55 24q55 -89 99 -166l-61 -29h285l-19 10q63 107 105 214l82 -31q-50 -101 -120 -193h57q31 0 40 -23t-11 -39q-70 -55 -195 -139v-41h284z" />
    <glyph glyph-name="uni4FDA" unicode="&#x4fda;" 
d="M433 389h145v147h-145v-147zM433 734v-150h145v150h-145zM808 734h-143v-150h143v150zM808 389v147h-143v-147h143zM969 20l-7 -51h-677l-4 51h293v144h-233l-5 50h238v125h-228v433q-44 -90 -97 -174v-686h-87v563q-41 -52 -93 -109l-46 44q139 173 242 433l102 -27
l-15 -32h474q39 0 55 -14q15 -14 15 -47v-384h-227v-125h245l-7 -50h-238v-144h300z" />
    <glyph glyph-name="uni4FDC" unicode="&#x4fdc;" 
d="M437 703v-102h144v102h-144zM816 703h-148v-102h148v102zM816 443v112h-148v-112h148zM437 443h144v112h-144v-112zM351 743q-45 -87 -94 -159v-670h-91v546q-41 -52 -101 -115l-45 45q155 186 267 459l103 -28l-36 -73h225v99h90v-99h171q63 0 63 -55v-296h-552v346z
M534 277l-24 -107h317q41 0 41 -33v-146q0 -39 -25 -53q-19 -10 -67 -10h-199l-8 44h204v151h-363l35 154h-151l-4 49h684l-7 -49h-433z" />
    <glyph glyph-name="uni4FDD" unicode="&#x4fdd;" 
d="M478 534h298v200h-298v-200zM700 304q110 -158 276 -259l-64 -75q-146 101 -245 265v-322h-97v293q-107 -133 -282 -238l-10 80q159 109 250 256h-223l-4 52h269v126h-184v299q-57 -102 -132 -208v-656h-92v538q-52 -60 -97 -108l-46 43q150 178 283 454l105 -25l-18 -33
h413q68 0 68 -60v-244h-203v-126h278l-7 -52h-238z" />
    <glyph glyph-name="uni4FDE" unicode="&#x4fde;" 
d="M422 171v96h-198v-96h198zM224 411v-98h198v98h-198zM468 458q37 0 37 -31v-426q0 -41 -22 -57q-17 -12 -58 -12h-82l-8 36h87v156h-198v-203h-82v537h326zM759 496h86v-496q0 -44 -26 -60q-20 -13 -65 -13h-112l-6 40h123v529zM671 83h-79v353h79v-353zM673 594
q-94 60 -174 138q-77 -75 -170 -138h344zM583 823l-42 -48q172 -145 429 -212l-39 -88q-121 39 -228 101l-4 -31h-416l-1 18q-106 -65 -220 -109l-32 55q282 126 444 347z" />
    <glyph glyph-name="uni4FDF" unicode="&#x4fdf;" 
d="M424 579q-38 0 -47 24t15 50q121 133 179 201l86 -43q-67 -70 -178 -181h316q-47 72 -86 130l51 32q104 -127 181 -228l-71 -51l-43 67h-325v-1h-78zM390 817q-63 -127 -136 -236v-667h-89v546q-42 -53 -96 -112l-47 46q147 183 261 452zM688 210q93 -152 283 -211
l-47 -89q-196 73 -295 272q-76 -178 -309 -270l-29 47q192 87 250 251h-245l-4 51h265q16 67 25 154h-111q-46 -71 -105 -136l-45 40q71 96 125 239l92 -25q-17 -35 -35 -67h399l-6 -51h-210q-10 -81 -29 -154h302l-7 -51h-264z" />
    <glyph glyph-name="uni4FE1" unicode="&#x4fe1;" 
d="M784 210h-318v-190h318v190zM811 261q67 0 67 -59v-233h-505v292h438zM331 411h585l-7 -50h-574zM878 510h-510l-4 50h520zM969 714l-7 -52h-652l-1 14q-32 -51 -58 -87v-664h-90v548q-50 -58 -98 -106l-44 47q150 172 268 434l102 -30q-32 -60 -57 -104h251v132h92v-132
h294z" />
    <glyph glyph-name="uni4FE3" unicode="&#x4fe3;" 
d="M786 737h-318v-170h318v170zM873 517h-491v270h428q63 0 63 -56v-214zM380 807q-61 -128 -130 -230v-655h-86v537q-45 -57 -98 -113l-44 44q147 177 259 444zM676 200q94 -154 296 -204l-39 -81q-221 65 -320 280q-74 -185 -320 -277l-23 48q192 83 251 234h-221l-4 50
h241q14 54 25 132h-216l-4 50h562l-7 -50h-238q-13 -77 -28 -132h316l-7 -50h-264z" />
    <glyph glyph-name="uni4FE6" unicode="&#x4fe6;" 
d="M378 813q-64 -130 -136 -236v-665h-83v553q-47 -57 -88 -102l-46 45q143 176 250 433zM529 385q-20 -53 -55 -121h242v113h86v-113h150l-6 -50h-144v-225q0 -42 -26 -57q-20 -12 -65 -12h-115q-1 0 -7 39h127v255h-244l-3 39q-69 -131 -158 -237l-54 31q110 145 182 338
h-155l-4 50h176q12 35 29 99h-130l-4 50h146q9 35 20 97h-174l-4 50h187q14 105 15 117l100 -6q-9 -71 -16 -111h303l-7 -50h-306q-10 -53 -22 -97h308l-7 -50h-314q-19 -63 -32 -99h420l-7 -50h-432zM597 27l-106 136l46 33q86 -80 125 -120z" />
    <glyph glyph-name="uni4FE8" unicode="&#x4fe8;" 
d="M372 809q-64 -134 -133 -237v-653h-82v540q-39 -49 -84 -99l-47 45q134 172 240 433zM588 415h96v313h-96v-313zM953 363h-494q-20 -285 -139 -450l-51 23q90 156 95 479h144v313h-139l-5 52h569l-7 -52h-159v-240q58 81 103 181l79 -27q-62 -103 -137 -183l-45 23v-67
h193zM428 450l-104 185l51 25q57 -76 124 -171z" />
    <glyph glyph-name="uni4FE9" unicode="&#x4fe9;" 
d="M669 703h-100v-146h100v146zM837 505h-84q-7 -99 -21 -183l13 11q50 -68 92 -134v306zM558 343q32 -39 82 -109q22 101 29 271h-96q-10 -101 -23 -169zM748 703v-146h138q39 0 39 -35v-520q0 -78 -86 -78h-116l-8 38h122v194l-37 -30l-78 148q-28 -129 -99 -243l-47 19
q40 78 62 174l-48 -42q-39 74 -53 97q-30 -117 -95 -228l-48 18q81 163 96 436h-100v-587h-84v639h182v146h-173l-3 35q-41 -80 -88 -155v-669h-84v545q-34 -46 -72 -93l-47 41q127 176 233 442l101 -22l-34 -71h623l-8 -53h-188z" />
    <glyph glyph-name="uni4FEA" unicode="&#x4fea;" 
d="M423 406q45 -80 85 -155v305h-120v-166zM547 605q34 0 34 -30v-579q0 -41 -19 -56q-15 -13 -52 -13h-65l-9 35h72v265l-39 -19l-81 177v-468h-73v688h232zM886 604q35 0 35 -31v-577q0 -41 -19 -57q-17 -14 -55 -14h-73l-8 36h79v262l-48 -19l-88 187l40 15
q53 -92 96 -172v322h-136v-640h-74v688h251zM968 758l-7 -51h-658v4q-38 -68 -75 -125v-672h-82v559q-33 -41 -80 -93l-42 41q137 167 239 420l92 -24l-28 -59h641z" />
    <glyph glyph-name="uni4FED" unicode="&#x4fed;" 
d="M411 815q-71 -137 -161 -257v-646h-91v536q-39 -45 -90 -94l-44 50q161 180 281 445zM421 475q-52 -50 -103 -90l-51 48q197 177 313 412l111 -20q-21 -37 -45 -75q127 -158 326 -258l-54 -87q-183 108 -310 288q-79 -113 -172 -204h360l-6 -52h-366zM592 113l-52 260
l62 11q58 -191 76 -254zM405 340q50 -105 119 -267l-84 -24q-14 40 -48 142q-29 87 -46 134zM888 341q-57 -166 -141 -322h202l-7 -54h-636l-4 54h369q72 164 122 345z" />
    <glyph glyph-name="uni4FEE" unicode="&#x4fee;" 
d="M580 704l-19 -28q52 -63 118 -109q62 59 108 137h-207zM395 412q135 39 231 112q-55 47 -99 106q-41 -51 -86 -98l-41 41q94 113 159 278l90 -25q-31 -59 -42 -78l254 1q25 0 32 -19q6 -18 -9 -36q-66 -98 -141 -166q93 -48 229 -76l-32 -82q-149 36 -256 110
q-110 -80 -261 -120zM421 129q247 57 400 192l48 -66q-179 -139 -429 -180zM787 366q-142 -95 -327 -128l-20 51q176 45 302 141zM352 804q-58 -125 -125 -227v-661h-82v547q-32 -41 -81 -95l-43 42q136 171 235 420zM295 647h75v-556h-75v556zM377 -25q322 53 521 215
l50 -71q-233 -167 -555 -202z" />
    <glyph glyph-name="uni4FEF" unicode="&#x4fef;" 
d="M368 824q-61 -127 -134 -234v-676h-85v562q-39 -48 -84 -96l-44 44q140 168 249 427zM676 632q-49 -101 -100 -177v-541h-80v435q-19 -23 -61 -69l-30 30q-20 -210 -83 -394l-61 17q67 241 65 787h281v127h88v-127h262l-7 -52h-531q-2 -202 -12 -334q103 131 181 321z
M962 406h-92v-411q0 -75 -88 -75h-103l-6 40h114v446h-184l-4 51h188v180h83v-180h98zM716 135l-109 191l47 24q83 -114 128 -179z" />
    <glyph glyph-name="uni4FF1" unicode="&#x4ff1;" 
d="M394 815q-63 -128 -140 -242v-653h-90v533q-38 -48 -87 -100l-47 45q142 176 257 444zM717 149q142 -98 238 -172l-53 -72q-145 130 -224 198zM480 212h305v98h-305v-98zM480 737v-101h305v101h-305zM480 354h305v96h-305v-96zM480 494h305v98h-305v-98zM975 212l-7 -49
h-442l62 -62q-116 -111 -251 -192l-34 47q127 99 221 207h-221l-5 49h94v572h449q33 0 33 -36v-536h101z" />
    <glyph glyph-name="uni4FF3" unicode="&#x4ff3;" 
d="M395 820q-62 -119 -140 -228v-667h-89v554q-48 -56 -95 -103l-44 46q146 166 264 426zM479 831h88v-911h-88v246h-188l-4 53h192v176h-138l-3 52h141v155h-160l-3 53h163v176zM959 171h-202v-257h-88v930h88v-185h185l-6 -52h-179v-152h174l-6 -52h-168v-179h208z" />
    <glyph glyph-name="uni4FF8" unicode="&#x4ff8;" 
d="M387 811q-55 -109 -127 -212v-679h-87v566q-48 -57 -102 -111l-45 46q145 165 259 420zM658 127h248l-7 -48h-241v-165h-88v165h-235l-4 48h239v100h-138l-4 47h142v95h88v-95h145l-6 -47h-139v-100zM756 420q83 -96 226 -140l-40 -77q-169 63 -257 217h-146
q-86 -131 -231 -213l-44 38q111 71 182 175h-149l-4 47h182q24 45 41 90h-150l-4 46h170q15 45 23 89h-202l-4 47h215q7 38 15 112l95 -6q-6 -54 -15 -106h239l-6 -47h-242q-12 -52 -25 -89h247l-6 -46h-257q-18 -48 -42 -90h386l-7 -47h-190z" />
    <glyph glyph-name="uni4FFA" unicode="&#x4ffa;" 
d="M426 170h124v112h-124v-112zM566 664q-64 -107 -153 -190h138v99h81v-99h141q-78 79 -131 190h-76zM550 426h-124v-99h124v99zM631 327h127v99h-127v-99zM758 170v112h-127v-112h127zM641 -10h296l-6 -44h-291q-57 0 -74 17q-17 16 -17 67v93h-206v294q-31 -23 -58 -39
l-44 43q138 95 225 243h-148l-3 28q-31 -56 -74 -121v-648h-91v524q-32 -40 -77 -90l-48 44q138 176 245 439l108 -27q-19 -41 -50 -97h166q32 64 54 133l97 -15q-24 -65 -51 -118h348l-7 -52h-225q92 -144 265 -227l-50 -78q-47 26 -82 54v-290h-202v-133z" />
    <glyph glyph-name="uni4FFE" unicode="&#x4ffe;" 
d="M366 821q-52 -122 -113 -229v-671h-93v526q-40 -57 -90 -118l-49 41q139 193 241 475zM531 363q21 59 34 134h-127v-134h93zM438 683v-138h134q7 59 10 138h-144zM819 683h-135q-6 -78 -16 -138h151v138zM819 363v134h-160q-16 -77 -41 -134h201zM964 113h-217v-199h-99
v199h-372l-4 52h174l-28 19q59 64 91 130h-161v417h167q19 54 36 119l114 -6q-34 -65 -67 -113h242q69 0 69 -60v-357h-315q-44 -81 -118 -149h172v126h99v-126h225z" />
    <glyph glyph-name="uni500C" unicode="&#x500c;" 
d="M366 822q-50 -109 -112 -211v-697h-91v564q-52 -68 -92 -113l-49 45q128 170 235 441zM474 506v-123h291v123h-291zM474 165v-155h331v155h-331zM848 544v130h-426v-117h400q25 0 25 -24v-201h-373v-117h390q27 0 27 -26v-228h-504v583h-53v182h255v121h93v-121h226
q26 0 26 -24v-158h-86z" />
    <glyph glyph-name="uni500D" unicode="&#x500d;" 
d="M585 712v126h95v-126h249l-7 -52h-574l-4 52h241zM391 808q-68 -129 -147 -234v-657h-92v544q-39 -45 -90 -94l-45 48q151 168 269 425zM766 238h-285v-215h285v215zM792 289q37 0 53 -13q15 -14 15 -47v-258h-472v318h404zM972 430l-8 -52h-681l-4 52h196l-82 187l58 22
q55 -86 109 -181l-68 -28h166q58 111 95 216l88 -25q-48 -106 -106 -191h237z" />
    <glyph glyph-name="uni500F" unicode="&#x500f;" 
d="M588 704q-2 -4 -26 -38q46 -60 105 -106q59 61 104 144h-183zM400 390q127 47 216 122q-52 49 -92 106q-31 -42 -75 -89l-43 40q90 121 157 273l101 -17l-46 -77h227q25 0 32 -17q6 -17 -8 -36q-63 -102 -138 -177q98 -52 239 -78l-35 -84q-154 34 -263 110
q-100 -79 -239 -125zM821 246q-66 68 -97 98l39 38q99 -69 110 -78zM368 815q-54 -120 -124 -233v-657h-83v536q-39 -53 -91 -113l-44 43q142 183 245 449zM392 85h-79v578h79v-578zM708 161q175 -138 233 -188l-64 -62q-145 145 -214 211zM700 397q-8 -86 -22 -152h263
l-6 -49h-270q-62 -195 -292 -282l-26 43q178 78 228 239h-152l-4 49h168q13 64 19 152h94z" />
    <glyph glyph-name="uni5012" unicode="&#x5012;" 
d="M779 157h-77v534h77v-534zM504 113l159 30l4 -60q-199 -53 -416 -101l-10 87q95 14 181 30v147h-151l-4 50h155v135h82v-135h143l-6 -50h-137v-133zM557 641q39 -74 111 -222l-73 -27l-22 55h-254q-62 0 -34 62q18 39 112 196h-99l-3 34q-40 -83 -88 -158v-667h-80v554
q-25 -33 -61 -74l-46 41q122 160 214 410l98 -25q-9 -22 -29 -64h364l-6 -51h-164q-28 -48 -71 -119l-52 -87h179q-27 72 -48 125zM929 838v-833q0 -84 -89 -84h-135l-6 44h147v873h83z" />
    <glyph glyph-name="uni5014" unicode="&#x5014;" 
d="M357 814q-49 -120 -110 -223v-676h-87v544q-45 -61 -82 -104l-46 41q130 174 225 441zM455 730q-2 -84 -4 -127h362v127h-358zM448 554q-19 -345 -122 -631l-58 17q95 312 97 839h507q27 0 27 -25v-200h-451zM918 203v-239h-367q-49 0 -65 15q-15 15 -15 59v156h79v-189
h109v249h-92q-45 0 -60 15q-14 14 -14 55v140h72v-170h94v228h78v-228h84v176h75v-216h-159v-249h103v198h78z" />
    <glyph glyph-name="uni5018" unicode="&#x5018;" 
d="M899 756q-70 -108 -160 -197l-51 34q75 99 129 206zM455 557q-98 183 -104 193l56 27q77 -103 127 -177zM362 816q-53 -117 -116 -221v-678h-88v550q-51 -65 -92 -111l-46 44q139 177 240 443zM873 535q41 0 41 -36v-494q0 -80 -89 -80h-116l-8 42h121v516h-405v-567h-89
v619h240v312h93v-312h212zM667 336h-97v-180h97v180zM740 107h-241v277h188q30 0 42 -11q11 -11 11 -39v-227z" />
    <glyph glyph-name="uni5019" unicode="&#x5019;" 
d="M706 611q21 89 29 129h-268l-4 49h341q27 0 36 -13q8 -13 -1 -32l-54 -133h158l-7 -50h-514l-4 50h288zM370 817q-63 -132 -141 -246v-656h-80v550q-45 -53 -85 -96l-44 44q146 173 251 432zM378 82h-79v575h79v-575zM720 191q80 -140 247 -193l-42 -83q-165 64 -251 232
q-74 -158 -288 -240l-24 47q182 84 237 237h-193l-4 50h212q14 56 24 148h-92q-43 -71 -92 -129l-44 36q64 96 108 236l91 -20q-11 -26 -35 -74h325l-6 -49h-158q-12 -93 -27 -148h253l-6 -50h-235z" />
    <glyph glyph-name="uni501A" unicode="&#x501a;" 
d="M566 729q10 38 21 111h101q-10 -57 -24 -111h250l-7 -50h-260q-63 -156 -275 -229l-21 51q151 64 198 178h-186l-4 50h207zM380 823q-62 -132 -133 -243v-667h-88v544q-48 -61 -95 -112l-44 44q153 191 259 460zM961 396h-107v-402q0 -76 -97 -76h-134l-7 40h145v438
h-470l-4 51h556q-118 84 -235 158l34 50q140 -70 244 -130l-41 -78h123zM596 275h-151v-156h151v156zM684 72h-326v249h268q58 0 58 -53v-196z" />
    <glyph glyph-name="uni501C" unicode="&#x501c;" 
d="M350 813q-55 -122 -122 -226v-672h-82v556q-31 -42 -80 -97l-46 41q130 166 230 421zM803 390h-361l-4 48h143v117h-116l-3 46h119v101h79v-101h133l-6 -46h-127v-117h149zM687 266h-141v-153h141v153zM759 69h-283v241h234q49 0 49 -47v-194zM882 782q37 0 37 -36v-739
q0 -83 -80 -83h-127l-8 41h132v766h-406q-6 -526 -125 -821l-58 17q93 274 93 855h542z" />
    <glyph glyph-name="uni501F" unicode="&#x501f;" 
d="M392 817q-63 -124 -132 -225v-676h-87v559q-53 -65 -112 -127l-44 44q158 184 274 451zM781 2v139h-304v-139h304zM477 321v-132h304v132h-304zM805 372q40 0 56 -14t16 -49v-358h-496v421h424zM549 503h141v139h-141v-139zM965 503l-8 -53h-658l-5 53h168v139h-109
l-4 53h113v140h87v-140h141v148h88v-148h151l-7 -53h-144v-139h187z" />
    <glyph glyph-name="uni5021" unicode="&#x5021;" 
d="M764 483v108h-270v-108h270zM494 745v-109h270v109h-270zM861 437h-463v354h396q37 0 52 -13t15 -45v-296zM388 813q-61 -126 -134 -235v-663h-93v534q-48 -60 -91 -108l-48 44q142 181 256 451zM812 15v123h-363v-123h363zM449 305v-120h363v120h-363zM838 354
q71 0 71 -61v-327h-556v388h485z" />
    <glyph glyph-name="uni5025" unicode="&#x5025;" 
d="M329 712h248v132h94v-132h222q27 0 27 -25v-162h-89v135h-416v-133h-86v185zM689 604q134 -108 224 -187l-60 -69q-89 94 -207 212zM330 382q112 104 191 228l72 -53q-99 -128 -224 -218zM369 810q-56 -124 -123 -231v-654h-88v527q-40 -51 -88 -106l-48 45
q138 178 241 447zM961 27l-7 -53h-657l-4 53h284v238h-225l-4 53h553l-7 -53h-225v-238h292z" />
    <glyph glyph-name="uni5026" unicode="&#x5026;" 
d="M884 778q-60 -80 -136 -142l-44 36q65 78 107 154zM454 642l-82 147l51 28q70 -88 103 -131zM365 828q-53 -123 -119 -232v-679h-89v546q-33 -47 -87 -111l-44 42q140 187 242 457zM545 424q-37 -59 -94 -116h287q38 0 38 -30v-137q0 -37 -22 -50q-17 -9 -61 -9h-109
l-8 40h115v138h-184v-268h409l-7 -45h-400q-56 0 -75 19q-18 17 -18 68v242q-56 -46 -121 -82l-43 40q126 77 199 190h-158l-4 49h191q27 54 44 101h-188l-4 49h207q28 95 41 224l95 -6q-12 -119 -42 -218h281l-7 -49h-290q-20 -57 -44 -101h378l-7 -49h-197
q81 -91 220 -140l-45 -83q-158 69 -252 223h-125z" />
    <glyph glyph-name="uni5028" unicode="&#x5028;" 
d="M366 818q-60 -121 -120 -215v-683h-87v560q-39 -52 -90 -109l-48 45q133 174 238 430zM822 185h-250v-171h250v171zM469 731q0 -69 -3 -132h347v132h-344zM734 353v-118h115q35 0 50 -13q14 -13 14 -44v-214h-431v271h167v118h-201q-31 -228 -122 -422l-56 19
q110 273 110 830h492q26 0 26 -25v-205h-434q-2 -55 -10 -147h195v118h85v-118h228l-7 -50h-221z" />
    <glyph glyph-name="uni5029" unicode="&#x5029;" 
d="M783 125v83h-322v-83h322zM461 336v-86h322v86h-322zM832 382q39 0 39 -32v-360q0 -42 -23 -57q-19 -12 -63 -12q-5 -1 -107 0l-8 39h113v122h-322v-167h-90v467h461zM969 499l-7 -47h-670l-4 47h286v81h-206l-4 46h210v81h-229l-3 40q-42 -84 -93 -166v-668h-87v542
q-37 -49 -96 -117l-45 44q152 193 258 470l99 -26q-16 -37 -33 -72h229v93h91v-93h251l-7 -47h-244v-81h230l-7 -46h-223v-81h304z" />
    <glyph glyph-name="uni502A" unicode="&#x502a;" 
d="M386 821q-65 -124 -135 -221v-678h-85v569q-51 -59 -101 -109l-46 45q145 166 261 424zM960 -6l-6 -44h-200q-56 0 -74 18q-17 16 -17 67v278h-98q-15 -152 -64 -240q-53 -95 -169 -160l-40 32q90 61 131 149q37 82 46 219l-107 1v399h2q138 69 220 138l61 -67
q-84 -54 -197 -99v-119h163l-6 -51h-157v-151h364v150h-154l-3 51h157v151h-157l-3 51h200v-1h16q30 0 30 -31v-422h-143v-319h205z" />
    <glyph glyph-name="uni502C" unicode="&#x502c;" 
d="M402 816q-75 -134 -149 -230v-670h-88v563q-43 -49 -99 -103l-44 50q154 170 274 422zM444 287h357v122h-357v-122zM444 570v-114h357v114h-357zM954 89h-295v-180h-91v180h-277l-4 52h281v98h-213v378h192v233h89v-84h282l-6 -49h-276v-100h189q37 0 52 -13t15 -45v-320
h-233v-98h302z" />
    <glyph glyph-name="uni502D" unicode="&#x502d;" 
d="M379 819q-61 -128 -145 -246v-657h-82v552q-42 -50 -88 -97l-41 45q151 175 260 430zM265 390q148 69 241 183h-200l-4 50h264v87q-86 -11 -186 -16l-13 57q252 29 447 95l32 -82q-86 -23 -193 -41v-100h295l-7 -50h-243q98 -108 263 -152l-34 -75q-173 57 -274 193v-169
h-87v147q-111 -119 -267 -179zM616 91q69 54 100 146h-183q-28 -42 -69 -95zM815 237q-38 -113 -112 -175q113 -39 222 -78l-54 -72q-96 40 -244 99q-110 -57 -309 -95l-18 55q155 35 240 75q-77 32 -167 66l1 1h-2q36 55 74 124h-173l-5 50h204l42 87l98 -13l-46 -74h398
l-8 -50h-141z" />
    <glyph glyph-name="uni502E" unicode="&#x502e;" 
d="M453 446h126v130h-126v-130zM453 739v-118h126v118h-126zM792 739h-135v-118h135v118zM792 446v130h-135v-130h135zM698 263q102 -136 277 -214l-51 -84q-158 80 -263 239v-290h-86v276q-110 -141 -268 -230l-39 47q151 104 250 256h-221l-4 51h282v85h-209v380
q-59 -117 -118 -203v-662h-86v547q-40 -50 -89 -102l-47 45q139 170 249 432l105 -29l-10 -20h444q36 0 51 -13q14 -13 14 -45v-330h-218v-85h291l-8 -51h-246z" />
    <glyph glyph-name="uni503A" unicode="&#x503a;" 
d="M375 823q-60 -129 -130 -237v-674h-88v551q-36 -46 -94 -111l-46 45q145 181 255 453zM676 287q-17 -172 -85 -250q-80 -92 -283 -129l-17 52q162 35 223 111q53 65 64 216h98zM790 82v235h-339v-246h-86v293h486q28 0 28 -27v-255h-89zM682 108q179 -86 262 -128
l-41 -77q-138 86 -254 155zM973 489l-7 -47h-677l-4 47h292v87h-207l-4 45h211v83h-233l-4 47h237v99h90v-99h252l-7 -47h-245v-83h216l-7 -45h-209v-87h306z" />
    <glyph glyph-name="uni503C" unicode="&#x503c;" 
d="M459 25h320v91h-320v-91zM459 160h320v93h-320v-93zM779 434v91h-320v-91h320zM779 390h-320v-92h320v92zM969 25l-7 -51h-684l-4 51h97v549h33v1h138q11 57 18 112h-239l-3 38q-32 -60 -80 -131v-680h-83v566q-45 -57 -97 -112l-43 43q146 175 255 434l97 -25
q-28 -56 -43 -83h243l11 111l99 -5q-7 -39 -22 -106h292l-7 -50h-297q-16 -62 -33 -112h217v-1h8q33 0 33 -34v-515h101z" />
    <glyph glyph-name="uni503E" unicode="&#x503e;" 
d="M503 717l-4 51h442l-6 -51h-161q-19 -62 -46 -122h160q27 0 27 -28v-417h-79v395h-224v-405h-75v455h119q16 59 27 122h-180zM338 818q-47 -117 -111 -225v-675h-84v548q-30 -42 -78 -99l-46 41q126 169 220 434zM522 201q-117 -82 -222 -147l-33 81l49 25v577h80v-233
h117l-5 -51h-112v-250q36 19 108 59zM769 482q-6 -235 -65 -355q-67 -136 -238 -211l-32 34q143 73 198 199q48 113 50 333h87zM757 157q122 -104 198 -174l-57 -67q-106 117 -182 199z" />
    <glyph glyph-name="uni5043" unicode="&#x5043;" 
d="M698 184q46 36 65 102h-139q-22 -33 -43 -61zM562 448h243v74h-243v-74zM562 634v-74h243v74h-243zM848 286q-23 -80 -76 -129q46 -16 136 -50l-41 -60l-159 68q-80 -40 -241 -67l-16 47q117 20 184 51l-134 56q17 28 47 84h-114l-3 45h139l35 77h-117v266h341
q51 0 51 -46v-220h-247l62 -7q-28 -48 -42 -70h299l-6 -45h-98zM969 15l-6 -45h-541q-51 0 -72 21q-20 20 -20 66v704q-47 -96 -99 -178v-656h-83v538q-45 -59 -82 -101l-46 42q133 173 233 428l100 -24l-12 -27h602l-7 -50h-524v-718h557z" />
    <glyph glyph-name="uni5047" unicode="&#x5047;" 
d="M819 551v174h-162l-3 52h221q26 0 26 -26v-251h-253l-4 51h175zM417 727v-174h125v174h-125zM417 151v-237h-87v862q-43 -96 -91 -178v-684h-85v552q-45 -63 -89 -115l-48 41q132 183 230 454l103 -24l-19 -44h265q26 0 26 -24v-252h-205v-114h177l-5 -50h-172v-137h188
l-6 -50h-182zM897 403q41 0 25 -47q-47 -151 -120 -251q70 -79 175 -130l-61 -70q-101 57 -166 139q-82 -85 -205 -137l-39 42q123 59 201 157q-51 85 -87 216l56 18q31 -97 77 -169q47 81 73 185h-205l-7 47h283z" />
    <glyph glyph-name="uni5048" unicode="&#x5048;" 
d="M470 751v-94h326v94h-326zM470 510h326v101h-326v-101zM883 380q35 -2 35 -33v-364q0 -42 -23 -57q-19 -13 -63 -13h-153l-8 42h159v376h-354q-44 -46 -68 -67h51v-209h329l-6 -42h-323q-52 0 -69 16q-16 16 -16 63v143q-32 -27 -73 -56l-38 49q116 99 201 236h-80v330
q-58 -120 -125 -218v-668h-86v553q-49 -61 -108 -120l-44 43q151 173 265 439l98 -27v1h436q35 0 49 -12q14 -13 14 -43v-278h-373l59 -20q-22 -30 -49 -64h363zM715 303q-22 -41 -45 -74q56 -36 123 -88l-41 -65q-58 59 -114 108q-44 -56 -103 -111l-39 39q81 91 133 216z
" />
    <glyph glyph-name="uni504C" unicode="&#x504c;" 
d="M385 814q-61 -127 -134 -238v-660h-92v536q-50 -61 -89 -101l-45 46q150 181 258 447zM520 15h260v220h-260v-220zM578 393q-33 -53 -75 -106h304q67 0 67 -60v-263h-446v237q-51 -51 -113 -99l-48 42q121 104 208 249h-174l-5 52h209q31 60 49 108l-79 -12l-15 122h-121
l-4 52h118l-15 118l64 9l29 -127h203q15 71 23 128l93 -13q-13 -55 -32 -115h132l-7 -52h-142q-25 -72 -53 -135l-58 18q20 63 32 117h-180l20 -91l3 9l101 -15q-28 -65 -58 -121h361l-7 -52h-384z" />
    <glyph glyph-name="uni504E" unicode="&#x504e;" 
d="M440 746v-113h136v113h-136zM793 746h-138v-113h138v113zM793 472v118h-138v-118h138zM440 472h136v118h-136v-118zM357 794h456q64 0 64 -56v-314h-520v370zM363 810q-53 -117 -118 -222v-672h-85v548q-39 -53 -91 -113l-44 42q139 180 241 441zM625 299q35 -70 79 -120
q75 56 134 120h-213zM894 240q-67 -59 -146 -105q85 -77 229 -118l-55 -86q-262 87 -367 368h-77v-246q65 29 129 60l20 -56q-158 -91 -264 -145l-25 80l56 24v283h-116l-4 50h690l-7 -50h-117z" />
    <glyph glyph-name="uni504F" unicode="&#x504f;" 
d="M840 210v140h-84v-140h84zM686 210v140h-79v-140h79zM537 210v140h-80v-140h80zM450 672q-3 -61 -9 -119h354v119h-345zM887 399q38 0 38 -32v-379q0 -41 -22 -56q-18 -12 -61 -12h-54l-8 40h60v202h-84v-193h-70v193h-79v-202h-70v202h-80v-245h-79v342
q-39 -102 -100 -191l-39 18v-173h-88v558q-39 -49 -90 -103l-47 45q142 173 251 435l106 -29q-64 -131 -132 -229v-477q111 204 119 608h220v127h96v-127h183q27 0 27 -25v-193h-89v1h-359q-7 -55 -18 -105h469z" />
    <glyph glyph-name="uni5055" unicode="&#x5055;" 
d="M348 814q-45 -101 -103 -200v-695h-90v560q-45 -61 -82 -104l-48 43q125 167 219 421zM611 491q-134 -59 -281 -115l-19 85l43 13v360h84v-127h172l-5 -51h-167v-157q55 17 167 53zM786 2v120h-333v-120h333zM453 280v-112h333v112h-333zM810 330q38 0 54 -14
q15 -14 15 -47v-317h-518v378h154q11 40 24 98l109 -10q-22 -45 -48 -88h210zM729 447h208l-6 -43h-202q-52 0 -69 17q-16 16 -16 64v361h85v-176q95 55 171 115l52 -71q-112 -72 -223 -115v-152z" />
    <glyph glyph-name="uni505A" unicode="&#x505a;" 
d="M343 819q-51 -120 -113 -222v-675h-84v551q-25 -34 -77 -95l-45 42q125 164 221 424zM513 312h-134v-223h134v223zM405 562h-138l-4 51h142v221h84v-221h113l-6 -51h-107v-200h44q33 0 46 -12q12 -12 12 -42v-269h-289v323h103v200zM680 484q25 -139 72 -247
q42 119 56 330h-109q-18 -43 -39 -87zM890 567q-22 -269 -94 -413q69 -112 179 -188l-76 -57q-94 75 -151 167q-63 -89 -173 -167l-38 30q116 93 175 203q-54 115 -83 277l-14 -27l-51 31q77 170 124 419l97 -13q-25 -103 -65 -210h250l-6 -52h-74z" />
    <glyph glyph-name="uni505C" unicode="&#x505c;" 
d="M338 730q-37 -69 -91 -148v-668h-87v553q-42 -52 -97 -110l-43 46q154 182 266 445l99 -29q-19 -39 -39 -75h237v101h89v-101h263l-7 -48h-587zM782 586h-312v-99h312v99zM811 631q56 0 56 -49v-141h-480v190h424zM357 212h529l-6 -48h-195v-176q0 -43 -29 -59
q-21 -11 -70 -11h-128l-7 41h139v205h-229zM907 374q27 0 27 -23v-129h-89v105h-452v-107h-85v154h599z" />
    <glyph glyph-name="uni5065" unicode="&#x5065;" 
d="M815 459v90h-93v-90h93zM722 596h93v88h-93v-88zM524 731h120v109h83v-109h140q24 0 24 -24v-108h70l-5 -50h-65v-137h-164v-78h187l-6 -47h-181v-79h211l-6 -47h-205v-114h-84v114h-168l-3 47h171v79h-146l-3 47h149v78h-137l-4 47h143v90h-178l-4 47h182v88h-117z
M469 445q34 0 24 -37q-27 -147 -76 -257q156 -145 551 -123l-17 -93q-392 -12 -563 155q-50 -91 -118 -163l-47 31q70 86 114 190q-47 61 -88 155l53 22q30 -68 60 -110q27 81 41 182h-138l115 260h-110l-1 7q-18 -36 -49 -87v-648h-84v523q-42 -56 -65 -83l-48 41
q120 165 213 424l103 -24q-18 -43 -47 -103h167q14 0 21 -8t2 -19l-112 -235h99z" />
    <glyph glyph-name="uni506C" unicode="&#x506c;" 
d="M643 516q40 79 61 168h-147l61 -25q-23 -55 -54 -106zM282 549q118 124 180 304l86 -13q-23 -57 -51 -107h378q37 0 37 -31v-356q0 -40 -21 -55q-18 -12 -59 -12h-137l-8 41h143v364h-115l69 -20q-29 -102 -73 -180l73 -36l-41 -68l-73 41q-61 -83 -150 -145l-41 36
q75 59 130 144l-81 44q-76 -100 -190 -166l-38 40q96 64 163 162l-54 30l31 44l54 -25q25 45 46 99h-72q-58 -92 -140 -169zM612 282q66 -95 108 -160l-68 -39l-45 89q-27 54 -44 85zM368 822q-59 -122 -136 -233v-670h-82v563q-39 -47 -91 -101l-41 44q148 167 257 422z
M244 10q60 119 106 213l57 -24q-69 -169 -91 -221zM518 -17h304l-7 -38h-293q-52 0 -69 15t-17 60v206h82v-243zM832 241q82 -115 133 -193l-76 -35l-112 206z" />
    <glyph glyph-name="uni5076" unicode="&#x5076;" 
d="M580 470v117h-125v-117h125zM455 743v-109h125v109h-125zM790 743h-129v-109h129v109zM790 470v117h-129v-117h129zM892 330q38 0 38 -31v-310q0 -40 -23 -55q-18 -12 -60 -12h-128l-8 39h133v320h-196v-135q25 5 75 17l-26 65l44 15q42 -84 87 -182l-59 -22l-26 68
q-153 -47 -296 -84l-11 80l133 26v152h-167v-368h-84v417h262v91h-208v366q-65 -133 -134 -236v-633h-84v516q-35 -45 -87 -104l-47 44q145 184 257 459l104 -27l-7 -14h436q64 0 64 -57v-314h-213v-91h231z" />
    <glyph glyph-name="uni5077" unicode="&#x5077;" 
d="M374 814q-69 -139 -148 -246v-653h-82v549q-40 -47 -75 -83l-44 44q142 166 250 418zM521 166v108h-127v-108h127zM394 419v-99h127v99h-127zM562 467q35 0 35 -29v-454q0 -39 -20 -54q-16 -12 -54 -12h-65l-8 37h71v165h-127v-205h-74v552h242zM756 544h-297l-4 47h306z
M743 63h-72v373h72v-373zM819 485h77v-498q0 -67 -82 -67h-114l-6 37h125v528zM693 823q-28 -36 -43 -53q135 -120 327 -185l-40 -78q-184 78 -325 221q-132 -138 -309 -226l-36 48q208 119 329 300z" />
    <glyph glyph-name="uni507B" unicode="&#x507b;" 
d="M878 787q-54 -79 -131 -147l-48 32q60 73 103 153zM372 821q-62 -125 -130 -222v-687h-87v573q-49 -58 -88 -98l-40 42q145 169 252 417zM424 815q57 -57 124 -129l-67 -49q-89 127 -104 147zM540 241q-42 -62 -73 -101l158 -57q79 58 112 158h-197zM833 241
q-40 -123 -124 -188q92 -33 215 -80l-50 -70q-162 70 -241 103q-109 -54 -316 -91l-18 53q157 31 251 73q-88 38 -174 72q43 65 77 128h-178l-4 51h209q20 39 43 91l57 -11v171q-110 -124 -276 -209l-10 62q137 79 227 191h-200l-5 50h264v212h85v-212h291l-7 -50h-243
q93 -119 258 -166l-35 -75q-167 60 -264 202v-180h-64l16 -3l-44 -73h393l-7 -51h-126z" />
    <glyph glyph-name="uni507E" unicode="&#x507e;" 
d="M563 736v110h97v-110h243l-6 -48h-240v-120h-90v120h-203l-4 48h203zM402 820q-68 -128 -157 -249v-650h-93v537q-37 -41 -89 -93l-42 46q163 183 281 438zM676 291q-26 -157 -98 -236q-80 -89 -263 -139l-20 55q143 48 202 121q52 66 71 199h108zM789 91v240h-356v-250
h-91v297h511q31 0 31 -29v-258h-95zM663 136q180 -101 272 -155l-46 -75q-162 115 -261 182zM969 541l-7 -48h-145v-84h-92v84h-227v-86h-89v86h-128l-4 48h135v102h85v-102h230v104h87v-104h155z" />
    <glyph glyph-name="uni507F" unicode="&#x507f;" 
d="M889 785q-54 -87 -123 -156l-51 30q55 80 94 163zM579 846h89v-234h236q26 0 26 -24v-160h-85v134h-444v-138h-85v188h263v234zM437 393l-3 49h371l-6 -49h-362zM453 629q9 -17 -79 165l55 22q70 -102 102 -153zM361 823q-58 -120 -123 -220v-688h-89v565
q-27 -35 -83 -99l-45 43q135 170 238 423zM631 223q-74 -88 -183 -210h350q-13 23 -96 162l56 30q104 -139 178 -247l-79 -46l-29 51h-433q-37 0 -47 24q-10 22 12 50q-11 -15 151 186h-225l-4 51h679l-7 -51h-323z" />
    <glyph glyph-name="uni5080" unicode="&#x5080;" 
d="M824 291l-68 -157h82l-25 83l44 13q35 -85 65 -160l-60 -19l-11 37h-141q-42 0 -27 45q13 38 34 87l36 88zM375 820q-58 -121 -130 -232v-670h-88v548q-38 -49 -87 -103l-47 45q139 178 245 439zM538 382q12 57 22 139h-131v-139h109zM429 689v-121h136q6 56 9 121h-145z
M798 689h-134q-6 -81 -10 -121h144v121zM798 382v139h-150q-12 -82 -25 -139h175zM961 3l-6 -43h-306q-52 0 -70 17q-16 16 -16 63v168q-76 -156 -245 -279l-39 33q186 150 247 371h-180v405h159q11 33 30 111l106 -6q-24 -58 -52 -105h227q37 0 51 -13q15 -13 15 -45v-347
h-272q-7 -27 -18 -55h56v-275h313z" />
    <glyph glyph-name="uni5085" unicode="&#x5085;" 
d="M454 137q107 -82 151 -119l-69 -45l-131 134zM802 362v80h-144v-80h144zM573 362v80h-138v-80h138zM435 565v-81h138v81h-138zM802 565h-144v-81h144v81zM962 139h-142v-150q0 -43 -28 -59q-21 -11 -69 -11h-123q-1 0 -7 40h135v180h-438l-4 49h442v76h74v56h-144v-65
h-85v65h-138v-83h-85v374h222v68h-253l-2 26q-32 -56 -62 -101v-689h-88v568q-35 -44 -91 -105l-47 46q134 165 238 417l106 -29q-7 -16 -43 -84h242v118h88v-119h131l-76 88l47 28q88 -73 108 -91l-37 -25h116l-5 -46h-284v-70h199q28 0 28 -28v-332h-67v-63h149z" />
    <glyph glyph-name="uni5088" unicode="&#x5088;" 
d="M663 731h-90v-98h90v98zM834 587h-93v-156h93v156zM403 431h96v156h-96v-156zM574 587v-156h91v156h-91zM343 753q-54 -98 -108 -176v-657h-86v542q-25 -31 -77 -89l-48 43q128 165 243 422l108 -25l-17 -32h574l-7 -50h-179v-98h112q60 0 60 -52v-196h-598v248h172v98
h-147zM695 228q104 -129 289 -191l-43 -82q-168 69 -276 212v-250h-91v232q-117 -116 -278 -185l-38 55q164 80 268 209h-236l-5 52h289v93h91v-93h293l-8 -52h-255z" />
    <glyph glyph-name="uni508D" unicode="&#x508d;" 
d="M383 816q-69 -139 -140 -239v-659h-91v541q-50 -59 -89 -98l-43 46q155 177 264 438zM666 358h265l-7 -50h-351q-7 -56 -18 -107h251q42 0 42 -34v-169q0 -40 -26 -54q-20 -10 -69 -10h-199l-7 44h203v173h-210q-52 -151 -218 -237l-33 41q93 60 133 145q36 75 46 208
h-155l-4 50h266v107h91v-107zM908 553q26 0 26 -24v-131h-88v105h-445v-106h-87v156h175q-30 80 -45 116l59 19q47 -72 75 -121l-39 -14h129q31 65 55 137h-365l-4 51h234v104h89v-104h254l-6 -51h-190l77 -22q-30 -64 -67 -115h163z" />
    <glyph glyph-name="uni50A3" unicode="&#x50a3;" 
d="M254 226q97 84 166 197h-135l-4 48h166q24 47 41 90h-139l-4 47h161q15 44 27 90h-200l-3 35q-44 -79 -88 -144v-675h-86v558q-44 -54 -91 -106l-44 44q142 174 256 438l100 -25l-39 -76h206q10 43 19 103l92 -8q-5 -33 -19 -95h270l-6 -49h-276q-17 -58 -29 -90h286
l-7 -47h-297q-19 -46 -42 -90h408l-7 -48h-177q80 -99 212 -158l-45 -73q-150 82 -236 231h-183q-83 -134 -206 -232zM832 229q-53 -47 -108 -79q124 -64 203 -109l-34 -72q-121 78 -244 155v-135q0 -42 -26 -58q-20 -11 -65 -11h-112l-6 37h123v171q-131 -87 -240 -153
l-30 70q84 43 190 103q-65 62 -98 91l35 43q17 -12 56 -37q37 -23 55 -36l-39 -55q10 5 71 41v172h86v-178l29 -15l-6 8q60 52 106 109z" />
    <glyph glyph-name="uni50A5" unicode="&#x50a5;" 
d="M882 760q-57 -80 -133 -150l-44 36q63 82 104 161zM456 616q-103 171 -95 159l51 29q67 -80 116 -144zM377 820q-59 -122 -135 -234v-673h-86v557q-36 -44 -86 -99l-46 45q140 171 250 430zM477 260h268v148h-268v-148zM955 -21l-6 -42h-208q-54 0 -72 17q-16 16 -16 65
v192h-87q-27 -117 -77 -178q-56 -70 -179 -121l-23 44q89 45 130 105q36 53 55 150h-81v221h-84v176h263v239h88v-239h240q26 0 26 -24v-145h-88v120h-443v-102h379q61 0 61 -55v-191h-91v-232h213z" />
    <glyph glyph-name="uni50A7" unicode="&#x50a7;" 
d="M578 844h98v-127h229q26 0 26 -24v-149h-85v123h-443v-136h-85v186h260v127zM364 811q-60 -123 -123 -217h6v-678h-89v563q-52 -65 -95 -111l-43 44q144 175 248 425zM493 211h178v151h-178v-151zM957 162h-226q116 -103 203 -187l-70 -60q-114 134 -184 211l46 36h-215
l54 -52q-110 -113 -235 -192l-37 49q104 88 191 195h-199l-4 49h126v306q181 48 335 115l61 -67q-140 -48 -310 -79v-75h415l-6 -49h-144v-151h206z" />
    <glyph glyph-name="uni50A8" unicode="&#x50a8;" 
d="M407 557l-98 163l51 28q82 -98 119 -147zM356 822q-63 -129 -140 -237v-669h-82v563q-36 -43 -77 -86l-42 44q143 170 245 411zM409 131l80 65l31 -49q-93 -93 -190 -177l-41 68l44 34v380h-98l-4 52h152q26 0 26 -27v-346zM636 311v-123h180v123h-180zM816 -4v145h-180
v-145h180zM763 479q-62 -66 -129 -119h205q36 0 50 -13q14 -12 14 -45v-355h-354v352q-44 -29 -99 -58l-35 47q135 83 240 191h-190l-4 49h139v138h-104l-4 49h108v130h82v-130h119l-6 -49h-113v-138h19q98 111 167 248l81 -34q-60 -114 -143 -214h168l-6 -49h-205z" />
    <glyph glyph-name="uni50A9" unicode="&#x50a9;" 
d="M609 591v-518h134v142h-115l-4 50h119v138h-117l-4 50h121v137h-132l-1 8l-4 -7h3zM965 23h-356v-109h-79v555q-31 -43 -59 -80l-35 30q-9 -35 -31 -103q51 -114 94 -213l-69 -34l-60 151q-46 -115 -114 -228l-48 29q73 137 123 298q-55 139 -93 230l49 23
q59 -125 71 -152q28 117 41 229h-137l-7 44q-30 -60 -47 -88v-692h-79v569q-30 -43 -65 -87l-45 39q113 163 200 412l96 -21q-29 -72 -58 -129h204q30 0 24 -36q-18 -118 -41 -210q105 161 181 390l90 -19q-37 -94 -82 -180h109v153h80v-153h133l-6 -51h-127v-137h116
l-6 -50h-110v-138h116l-6 -50h-110v-142h149z" />
    <glyph glyph-name="uni50AC" unicode="&#x50ac;" 
d="M435 791v-141h150v194h83v-194h154v152h82v-194h-467q-51 0 -68 16q-16 14 -16 60v107h82zM358 822q-57 -125 -125 -231h3v-680h-85v564q-47 -61 -85 -104l-48 42q133 172 236 433zM445 31h195v103h-162l-4 45h166v99h-162l-4 45h166v99h-187l-8 -9v-382zM960 -18h-515
v-64h-83v403q-46 -46 -82 -77l-41 46q125 128 224 313l96 -32q-37 -58 -70 -102h157v102h89v-102h218l-6 -47h-223v-99h196l-6 -45h-190v-99h196l-6 -45h-190v-103h243z" />
    <glyph glyph-name="uni50B2" unicode="&#x50b2;" 
d="M613 29q0 -38 -22 -51q-16 -10 -58 -10h-92l-8 40h97v228h-104q-27 -194 -142 -317l-46 24q106 139 109 428h-86l-4 49h152v99h-111l-4 47h115v99h-123l-3 38q-24 -46 -64 -114v-676h-83v550q-43 -58 -70 -91l-46 38q127 177 226 441l97 -21q-27 -63 -54 -116h120v127h86
v-127h132l-5 -49h-127v-99h100l-5 -47h-95v-99h137l-6 -49h-189q-1 -44 -6 -87h145q37 0 37 -30v-225zM708 507q23 -146 67 -255q35 119 46 328h-106q-25 -48 -44 -79zM908 580q-21 -278 -89 -422q62 -111 160 -194l-78 -54q-77 74 -129 165q-59 -87 -157 -165l-40 30
q107 94 161 208q-57 128 -83 323q-8 -14 -26 -42l-47 34q84 151 141 379l93 -17q-35 -109 -74 -192h225l-6 -53h-51z" />
    <glyph glyph-name="uni50BA" unicode="&#x50ba;" 
d="M355 819q-53 -117 -118 -222v-670h-84v549q-32 -43 -84 -102l-46 42q134 171 233 429zM746 436q-69 105 -106 250q-53 -147 -135 -250h241zM702 705q28 -91 72 -168q38 108 56 168h-128zM491 420q-83 -99 -208 -164l-38 41q81 47 144 113q-22 25 -66 71l32 38
q44 -32 78 -58q26 33 50 75l-68 57l26 41l71 -41q23 52 38 102h-91q-69 -118 -165 -221l-39 39q107 133 183 328l84 -23q-21 -45 -37 -75h135q5 0 7 -1q-9 47 -14 78l57 13q2 -13 18 -81h210q23 0 32 -12q8 -12 0 -30q-11 -22 -53 -116q-33 -72 -59 -122q66 -85 164 -147
l-70 -59q-99 70 -166 170l-6 -48h-246zM520 162q-82 -99 -175 -200l-56 57q80 73 184 181zM661 230v-242q0 -43 -28 -59q-21 -11 -68 -11h-110l-6 40h120v272h-229l-4 50h557l-6 -50h-226zM743 204q104 -88 198 -177l-59 -63q-155 172 -181 200z" />
    <glyph glyph-name="uni50BB" unicode="&#x50bb;" 
d="M423 469h386v241h-82l38 -37q-35 -36 -91 -80q33 -18 97 -56l-35 -57l-115 76q-73 -47 -154 -81l-24 42q70 34 124 73l-104 66l28 38l124 -68q45 35 93 84h-285v-241zM267 293q122 55 215 130h-143v325q-43 -91 -102 -184v-649h-82v532q-39 -51 -84 -102l-47 42
q134 173 235 435l103 -25l-19 -41h153q16 34 37 97l112 -15q-22 -39 -55 -82h241q62 0 62 -55v-278h-389l37 -48q-109 -80 -251 -127zM681 418q162 -62 255 -100l-31 -65q-117 59 -249 122zM494 198q50 -58 114 -99q60 44 109 105h-217zM944 -88q-202 19 -336 104
q-132 -80 -312 -108l-20 56q158 29 272 95q-52 44 -98 103q-56 -44 -118 -82l-36 39q142 99 233 226l81 -25q-24 -30 -60 -68h248q27 0 33 -20q5 -20 -13 -36q-73 -83 -141 -133q115 -49 288 -59z" />
    <glyph glyph-name="uni50CF" unicode="&#x50cf;" 
d="M373 814q-60 -118 -131 -216v-678h-87v570q-42 -47 -95 -99l-40 44q153 163 262 407zM446 466h82q51 52 91 122h-173v-122zM505 713q-40 -47 -72 -79h219q24 40 45 79h-192zM828 588h-123q-34 -67 -80 -122h203v122zM923 340q-74 -52 -148 -89q60 -134 196 -210l-53 -70
q-133 91 -195 256l-31 -13q15 -72 12 -156q-3 -77 -30 -108q-26 -29 -90 -30h-106l-7 44h103q45 0 48 92q2 44 -1 76q-128 -109 -306 -158l-27 50q203 67 320 199q-6 24 -15 48q-123 -102 -290 -150l-26 49q175 58 285 169l-26 40q-100 -78 -233 -117l-27 48q119 42 202 110
h-115v149q-19 -16 -59 -48l-36 47q134 118 229 286l94 -27q-38 -55 -48 -67h229q25 0 34 -15q7 -15 -6 -31l-64 -80h118q58 0 58 -51v-163h-317q53 -64 81 -147q109 61 196 135z" />
    <glyph glyph-name="uni50D6" unicode="&#x50d6;" 
d="M326 722q-40 -73 -76 -128v-672h-89v551q-48 -59 -96 -110l-43 46q148 178 254 438l99 -29q-16 -34 -25 -51h226v78h90v-78h277l-7 -45h-270v-76h255l-7 -43h-575l-4 43h241v76h-250zM798 114h-340v-120h340v120zM837 157q60 0 60 -52v-154h-537v206h477zM488 361
l74 -100h121q26 47 47 100h-242zM450 402h345v105h-345v-105zM971 261l-7 -46h-679l-4 46h184l-36 79l55 21h-123v187h469q56 0 56 -49v-138h-143l71 -27q-26 -43 -50 -73h207z" />
    <glyph glyph-name="uni50DA" unicode="&#x50da;" 
d="M358 820q-57 -121 -123 -220v-687h-86v568q-33 -41 -76 -89l-45 43q128 160 230 410zM510 118q-77 -84 -174 -176l-51 67q98 78 182 154zM466 229h276v92h-276v-92zM596 683q-54 -109 -129 -187h264q-70 75 -120 187h-15zM742 454h-276v-89h276v89zM660 186v-193
q0 -43 -28 -58q-20 -10 -69 -10h-113l-7 39h124v222h-187v235q-42 -31 -85 -54l-41 41q80 49 139 113l-44 48q-30 33 -43 46l38 40l98 -76q32 45 61 104h-181l-4 50h207q24 59 38 118l92 -11q-17 -58 -37 -107h321l-7 -50h-255q33 -60 86 -114q50 51 87 100l61 -56
q-52 -50 -102 -85q72 -58 163 -95l-49 -79q-45 21 -94 55v-223h-169zM745 164q126 -91 197 -146l-54 -65q-156 146 -182 169z" />
    <glyph glyph-name="uni50E6" unicode="&#x50e6;" 
d="M867 595l-83 162l44 26q40 -57 100 -149zM406 672v161h77v-161h143l-5 -47h-354l-4 47h143zM333 825q-54 -117 -116 -216v-687h-82v570q-30 -40 -73 -90l-43 41q126 163 221 405zM386 219q-64 -132 -99 -199l-63 36q51 83 112 190zM373 345h133v157h-133v-157zM483 299
v-304q0 -40 -24 -54q-18 -10 -61 -10h-81q-1 0 -7 36h93v332h-107v249h234q31 0 42 -11q12 -11 12 -39v-199h-101zM760 513q-30 -351 -188 -602l-48 21q56 98 90 201l-49 -33q-44 76 -79 131l41 26q62 -74 91 -111q50 161 64 367h-77l-4 51h85q6 131 6 281h81
q-2 -178 -9 -281h181l-6 -51h-179zM962 -16l-6 -39h-120q-45 0 -60 15q-14 14 -14 55v416h73v-447h127z" />
    <glyph glyph-name="uni50E7" unicode="&#x50e7;" 
d="M372 822q-57 -123 -124 -226v-677h-88v552q-46 -58 -95 -113l-43 43q144 179 253 446zM782 -13v116h-307v-116h307zM475 249v-103h307v103h-307zM811 294q36 0 51 -13q14 -12 14 -43v-296h-494v352h429zM479 610q53 -85 88 -146l-60 -26l-72 154zM676 457q52 83 82 160
l62 -25q-42 -83 -102 -157zM843 642h-180v-237h180v237zM416 405h170v237h-170v-237zM865 688q62 0 62 -55v-274h-594v329h171q-11 20 -37 71q-23 45 -36 69l60 20q73 -94 103 -136l-64 -24h142q37 68 70 163l99 -23q-41 -78 -89 -140h113z" />
    <glyph glyph-name="uni50EC" unicode="&#x50ec;" 
d="M373 815q-66 -126 -136 -221h2v-678h-88v568q-36 -41 -86 -93l-46 48q138 159 248 405zM477 657l-10 -15q-7 -11 -11 -16v-383h202v101h-177l-3 47h180v100h-177l-4 47h181v111h-180zM414 135l48 -24q-59 -111 -113 -199l-69 41q91 132 123 182h-28v383q-34 -43 -86 -100
l-46 45q126 158 222 376l108 -22q-28 -54 -70 -120h158v133h81v-133h204l-6 -48h-196v-111h174l-6 -47h-168v-100h173l-6 -47h-167v-101h223l-7 -48h-504v-60h-42zM553 122q30 -94 54 -181l-78 -13l-32 185zM703 132q40 -93 72 -178l-75 -20l-51 185zM845 153
q66 -99 124 -191l-72 -36l-103 203z" />
    <glyph glyph-name="uni50ED" unicode="&#x50ed;" 
d="M328 823q-48 -120 -99 -211h1v-687h-83v555q-30 -45 -82 -109l-46 39q126 176 213 435zM467 544q-49 -144 -182 -245l-35 30q103 92 140 215h-83q-32 0 -25 39q1 3 22 116l70 -6l-27 -104h55q14 61 22 144h-108l-4 47h271l-5 -47h-71q-12 -88 -26 -144h109l-5 -45h-118z
M533 517v-92q15 9 39 25l38 26l16 -45q-86 -68 -165 -124l-25 57l26 16v137h71zM785 -6v98h-342v-98h342zM443 231v-95h342v95h-342zM810 276q62 0 62 -54v-274h-515v328h453zM972 366l-6 -40h-121q-52 0 -68 16q-15 14 -15 62v59q-53 -93 -161 -174l-33 32q112 94 154 226
h-92q-31 0 -25 38l23 116l70 -4q-20 -80 -27 -105h64q13 56 23 144h-141l-3 47h310l-6 -47h-77q-10 -79 -27 -144h134l-6 -45h-142l-7 -18q-4 -12 -7 -18h61v-145h125z" />
    <glyph glyph-name="uni50EE" unicode="&#x50ee;" 
d="M359 818q-47 -107 -116 -218v-686h-82v566q-43 -57 -93 -114l-44 41q137 178 238 435zM437 241h141v88h-141v-88zM437 454v-81h141v81h-141zM805 454h-145v-81h145v81zM805 241v88h-145v-88h145zM663 -1h300l-7 -47h-669l-4 47h290v86h-235l-3 45h238v69h-226v297h488
q61 0 61 -52v-245h-233v-69h253l-7 -45h-246v-86zM973 601l-7 -46h-683l-4 46h185l-40 92l56 20q44 -58 71 -98l-36 -14h160q35 64 54 112h-386l-4 46h236v88h87v-88h243l-7 -46h-150l65 -23q-29 -52 -58 -89h218z" />
    <glyph glyph-name="uni50F3" unicode="&#x50f3;" 
d="M676 735h-97v-89h97v89zM854 600h-101v-156h101v156zM402 444h99v156h-99v-156zM579 600v-156h98v156h-98zM333 775q-47 -99 -99 -181v-678h-83v558q-41 -53 -85 -103l-45 41q132 171 229 423l99 -25l-12 -26h596l-7 -49h-171v-89h122q59 0 59 -51v-198h-614v249h176v89
h-162zM704 182q102 -111 272 -160l-37 -77q-169 61 -275 196v-226h-86v210q-120 -117 -280 -177l-36 53q154 69 253 181h-217l-4 49h141q-36 60 -62 99l48 30q64 -68 93 -102l-39 -27h103v148h86v-148h57q50 74 81 135l70 -38q-33 -51 -75 -97h157l-7 -49h-243z" />
    <glyph glyph-name="uni50F5" unicode="&#x50f5;" 
d="M945 363h-653l-4 43h664zM813 93v71h-148v-71h148zM433 93h151v71h-151v-71zM433 273v-72h151v72h-151zM813 273h-148v-72h148v72zM843 312q55 0 55 -48v-210h-548v258h493zM806 495v65h-143v-65h143zM439 495h143v65h-143v-65zM439 659v-62h143v62h-143zM806 659h-143
v-62h143v62zM836 698q54 0 54 -47v-195h-534v242h480zM320 774q-40 -84 -90 -167v-690h-85v564q-42 -55 -79 -99l-46 41q126 170 220 421l101 -23l-13 -29h615l-7 -44h-614zM973 5l-7 -44h-683l-4 44h694z" />
    <glyph glyph-name="uni50FB" unicode="&#x50fb;" 
d="M600 709h128v131h79v-131h134l-6 -50h-331zM685 431q-16 52 -64 199l50 16q54 -117 84 -190zM508 285h-100v-223h100v223zM226 163q87 201 90 573q-45 -93 -90 -164v-409zM398 702q-3 -95 -12 -178h121v178h-109zM526 335q31 0 43 -11q11 -11 11 -41v-271h-243v276
q-26 -79 -72 -165l-39 14v-223h-80v540q-45 -58 -85 -105l-44 41q142 184 241 453l95 -24l-30 -67h236q24 0 24 -23v-255h-203q-10 -69 -29 -139h175zM808 367v-164h142l-6 -51h-136v-238h-82v238h-124l-4 51h128v164h-145l-4 50h184q46 109 78 231l79 -17
q-38 -113 -91 -214h144l-6 -50h-157z" />
    <glyph glyph-name="uni5106" unicode="&#x5106;" 
d="M721 500q20 -142 61 -251q32 121 44 340h-83q-26 -62 -41 -92zM351 127h76v174h-76v-174zM894 -89q-71 76 -116 161q-53 -83 -134 -157l-39 26q91 92 139 201q-51 125 -73 293l-18 -32l-39 25v-429q0 -40 -20 -55q-16 -12 -54 -12h-101l-8 37h107v474h-163
q-28 -45 -69 -96h135q26 0 36 -10q10 -9 10 -35v-221h-194v250q-24 -29 -49 -55l-31 32v-387h-81v555q-24 -33 -69 -90l-44 38q120 165 210 413l93 -21q-48 -113 -109 -217v-273q80 102 134 238l22 -6l-9 100h-80l-4 49h80l-9 109l55 7q4 -20 10 -58l10 -58h102q7 64 12 125
l82 -7q-7 -43 -22 -118h76l-6 -49h-82q-12 -50 -34 -119l-53 12q8 35 20 107h-87l15 -93l-68 -10l53 -15l-27 -50h176q35 0 35 -30v-12q75 165 120 391l87 -12q-26 -104 -59 -189h199l-6 -49h-49q-19 -285 -83 -432q57 -112 148 -195z" />
    <glyph glyph-name="uni5107" unicode="&#x5107;" 
d="M423 621h95v126h-95v-126zM836 747h-92v-126h92v126zM677 621v126h-92v-126h92zM346 776q-46 -94 -103 -184v-676h-88v551q-52 -66 -92 -110l-45 43q138 173 243 432l100 -25l-8 -16h507q55 0 55 -48v-166h-569v199zM281 521h685l-7 -46h-674zM449 285h355v93h-355v-93z
M937 183q-58 -46 -147 -90q83 -54 187 -84l-46 -79q-215 74 -337 268q-31 -24 -57 -41v-135l137 51l12 -49q-122 -60 -256 -115l-18 70l47 16v116q-82 -43 -181 -73l-25 47q160 55 272 157h-159v178h468q54 0 54 -47v-131h-250l5 -2l-3 -3q46 -64 101 -108q73 53 122 104z
" />
    <glyph glyph-name="uni510B" unicode="&#x510b;" 
d="M359 824q-54 -118 -126 -229h3v-682h-86v566q-35 -44 -83 -99l-43 43q136 170 239 426zM823 109h-272v-123h272v123zM853 151q54 0 54 -48v-160h-439v208h385zM440 250h491l-6 -41h-481zM889 311h-414l-4 39h424zM431 596q0 -50 -4 -138h45l-27 36q67 43 115 102h-129z
M513 734q-43 -53 -82 -92h224q21 33 57 92h-199zM967 458l-6 -43h-536q-17 -284 -109 -493l-55 16q82 226 84 623q-20 -19 -41 -35l-37 45q126 117 218 278l95 -24q-10 -15 -32 -45h214v-1h26q25 0 34 -16q8 -15 -5 -31l-37 -45q-23 -28 -38 -45h208l-6 -46h-167
q52 -36 117 -86l-46 -50q-75 73 -113 107l30 29h-189l39 -36q-61 -62 -140 -102h168v85h77v-85h247z" />
    <glyph glyph-name="uni5112" unicode="&#x5112;" 
d="M347 746l-4 46h521l-6 -46h-213v-75h255q23 0 23 -21v-153h-76v127h-204v-207h-79v207h-199v-131h-74v178h270v75h-214zM813 388q-36 16 -149 64l16 40q155 -48 150 -47zM798 496l-129 67l17 39l130 -49zM411 600l125 -45l-19 -57q3 -2 -123 63zM374 498q155 -52 156 -53
l-19 -57q-45 22 -154 71zM326 806q-46 -110 -103 -206v-681h-79v560q-38 -54 -78 -101l-45 38q120 163 208 411zM633 317q-14 -41 -34 -84h279q37 0 37 -29v-218q0 -37 -22 -49q-16 -10 -58 -10h-74l-8 36h79v224h-102v-231h-70v231h-96v-245h-68v245h-99v-270h-79v316h208
q9 34 16 84h-267l-4 46h687l-7 -46h-318z" />
    <glyph glyph-name="uni5121" unicode="&#x5121;" 
d="M442 746v-99h125v99h-125zM764 746h-124v-99h124v99zM764 501v102h-124v-102h124zM442 501h125v102h-125v-102zM356 791h433q62 0 62 -54v-281h-495v335zM361 825q-66 -141 -139 -248v-665h-82v554q-36 -43 -75 -87l-43 41q141 173 244 430zM509 12v154h-56v-154h56z
M345 12h57v154h-57v-154zM345 341v-131h57v131h-57zM509 341h-56v-131h56v131zM522 386q29 0 40 -10q10 -10 10 -37v-372h-288v419h238zM864 10v153h-68v-153h68zM677 10h65v153h-65v-153zM677 343v-136h65v136h-65zM864 343h-68v-136h68v136zM877 388q29 0 40 -10
q10 -11 10 -38v-375h-311v423h261z" />
    <glyph glyph-name="uni513F" unicode="&#x513f;" 
d="M669 13h279l-6 -49h-267q-58 0 -80 23q-21 21 -21 73v777h95v-824zM401 820q-4 -355 -60 -531q-69 -218 -263 -366l-49 35q165 144 222 354q46 169 45 508h105z" />
    <glyph glyph-name="uni5140" unicode="&#x5140;" 
d="M931 10l-6 -49h-278q-59 0 -81 22q-20 20 -20 74v607h-124q-10 -286 -75 -443q-74 -181 -256 -303l-45 40q152 117 210 289q50 146 55 417h-204l-5 57h778l-7 -57h-229v-654h287z" />
    <glyph glyph-name="uni5141" unicode="&#x5141;" 
d="M940 2l-6 -47h-309q-61 0 -82 21q-20 19 -20 74v383h-105q-21 -208 -95 -324q-81 -126 -258 -202l-30 46q145 74 207 187q57 104 71 293h-100q-42 0 -52 26q-10 25 13 59q38 57 107 155q81 113 118 167l104 -27q-114 -159 -243 -328h460q-116 186 -149 237l61 30
q143 -187 243 -329l-87 -47l-35 57h-129v-431h316z" />
    <glyph glyph-name="uni5143" unicode="&#x5143;" 
d="M167 703l-4 55h654l-7 -55h-643zM940 13l-6 -49h-286q-63 0 -85 21q-20 20 -20 78v385h-130q-20 -206 -93 -320q-80 -125 -255 -200l-34 47q143 72 203 184q54 102 67 289h-234l-5 55h836l-8 -55h-243v-435h293z" />
    <glyph glyph-name="uni5144" unicode="&#x5144;" 
d="M273 458h428v265h-428v-265zM948 9l-6 -47h-295q-59 0 -79 20q-19 18 -19 72v349h-123q-28 -196 -99 -298q-82 -115 -268 -187l-26 49q151 69 214 171q54 89 75 265h-145v375h544q77 0 77 -65v-310h-152v-394h302z" />
    <glyph glyph-name="uni5145" unicode="&#x5145;" 
d="M953 -15l-6 -48h-293q-63 0 -84 21q-20 19 -20 76v313h-104q-35 -174 -115 -268q-87 -104 -274 -172l-22 57q148 65 214 154q58 78 86 229h-115v1h-7q-42 0 -53 28q-10 26 17 55l94 100q62 65 99 106h-315l-5 54h399v153h99v-153h397l-8 -54h-431l-236 -236h451
q-72 96 -131 172l53 39q129 -135 248 -272l-77 -62l-52 69h-108v-362h299z" />
    <glyph glyph-name="uni5146" unicode="&#x5146;" 
d="M121 732q126 -109 205 -185q9 102 11 289h105q-6 -347 -60 -539q-63 -223 -228 -395l-54 29q142 169 193 392q-104 -66 -216 -131l-39 87q163 80 274 140q6 42 13 112l-64 -54q-153 174 -192 216zM937 9l-6 -48h-292q-56 0 -77 22q-20 20 -20 71v788h91v-298
q116 97 208 209l73 -57q-116 -121 -260 -213l-21 23v-91l4 6q187 -90 299 -147l-49 -84q-159 101 -254 158v-339h304z" />
    <glyph glyph-name="uni5148" unicode="&#x5148;" 
d="M644 335v-344h289l-6 -45h-282q-56 0 -74 18q-18 17 -18 68v303h-128q-31 -167 -103 -257q-80 -101 -252 -165l-26 50q139 61 200 148q54 78 77 224h-255l-5 54h410v211h-204q-44 -90 -106 -184l-52 32q70 140 124 325l107 -11q-25 -64 -46 -108h177v193h94v-193h289
l-7 -54h-282v-211h382l-8 -54h-295z" />
    <glyph glyph-name="uni5149" unicode="&#x5149;" 
d="M852 747q-82 -135 -195 -251l-53 35q96 125 161 256zM316 490q-115 183 -165 260l58 29q123 -153 189 -242zM640 1h296l-6 -45h-288q-56 0 -75 19q-18 17 -18 68v360h-127q-25 -192 -93 -295q-76 -116 -246 -191l-32 45q138 72 197 176q52 91 70 265h-259l-4 55h396v387
h93v-387h395l-9 -55h-290v-402z" />
    <glyph glyph-name="uni514B" unicode="&#x514b;" 
d="M283 314h424v192h-424v-192zM954 -17l-6 -47h-310q-62 0 -82 20q-19 19 -19 74v232h-113q-24 -150 -98 -227q-83 -85 -269 -125l-18 54q146 38 208 108q56 63 73 190h-130v296h255v115h-368l-5 54h373v118h93v-118h384l-8 -54h-376v-115h192q70 0 70 -60v-236h-162v-279
h316z" />
    <glyph glyph-name="uni514D" unicode="&#x514d;" 
d="M427 318q21 77 31 201h-202v-201h171zM352 689q-63 -70 -120 -120h279q46 70 75 120h-234zM752 519h-187q-11 -114 -34 -201h221v201zM969 -11l-7 -46h-362q-60 0 -79 19q-19 18 -19 71v199q-100 -234 -440 -315l-19 60q294 83 369 291h-248v242q-35 -28 -80 -62l-36 53
q175 146 314 354l93 -42q-19 -26 -59 -74h276q30 0 40 -18q9 -18 -7 -37q-75 -91 -96 -115h167q70 0 70 -58v-243h-330q-7 -20 -10 -25h94v-254h369z" />
    <glyph glyph-name="uni5151" unicode="&#x5151;" 
d="M275 345h441v235h-441v-235zM933 -7l-6 -48h-271q-63 0 -84 21q-19 19 -19 76v251h-122q-23 -161 -95 -241q-82 -93 -270 -137l-20 57q145 42 205 117q53 67 69 204h-141v339h168q-86 153 -106 187l61 26q92 -118 134 -177l-74 -36h188q67 109 113 216l94 -36
q-49 -92 -120 -180h103q73 0 73 -61v-278h-156v-300h276z" />
    <glyph glyph-name="uni5154" unicode="&#x5154;" 
d="M423 318q26 75 44 198h-210v-198h166zM355 693q-55 -65 -120 -127h285q36 61 72 127h-237zM765 516h-194q-19 -119 -46 -198h240v198zM505 268q-102 -240 -438 -353l-21 56q274 107 358 297h-240v233q-26 -23 -82 -67l-39 53q176 155 306 368l107 -31q-30 -42 -60 -81
h281q30 0 40 -17t-5 -36q-51 -68 -99 -124h177q69 0 69 -58v-240h-354zM694 252q117 -110 138 -131l-66 -55q-68 88 -119 151zM953 -11l-6 -45h-356q-58 0 -77 18q-18 17 -18 69v211h95v-253h362z" />
    <glyph glyph-name="uni5155" unicode="&#x5155;" 
d="M752 375v364h-122v-219h-286v218h-114v-363h522zM947 -1l-6 -46h-296q-58 0 -77 19q-18 18 -18 70v285h-129q-18 -177 -93 -266q-84 -99 -275 -140l-20 51q153 40 217 123q59 77 71 232h-86q-58 0 -79 21q-21 20 -21 72v369h293v-219h117v219l267 1q32 0 32 -33v-430
h-200v-328h303z" />
    <glyph glyph-name="uni5156" unicode="&#x5156;" 
d="M51 454q140 94 250 217h-213l-5 52h375v119h102v-119h356l-8 -52h-603l70 -61q-124 -119 -286 -205zM644 654q176 -108 277 -174l-60 -82q-156 125 -260 205zM954 -12l-6 -46h-303q-59 0 -79 19q-18 18 -18 72v224h-101q-38 -134 -117 -208q-87 -80 -271 -136l-21 55
q144 53 211 121q60 60 90 168h-93q-41 0 -50 27t19 55l249 257l84 -52q-108 -108 -243 -234h350l-110 131l50 38q121 -113 220 -215l-71 -63l-46 56h-52v-269h308z" />
    <glyph glyph-name="uni515A" unicode="&#x515a;" 
d="M165 442h-90v195h213l-90 155l58 32q80 -96 117 -143l-72 -44h145v210h97v-210h117l-50 26q49 70 89 163l101 -38q-55 -81 -128 -151h212q28 0 28 -25v-163h-91v135h-656v-142zM327 284h331v162h-331v-162zM959 -9l-6 -47h-309q-62 0 -81 20q-19 18 -19 73v196h-105
q-25 -141 -97 -207q-85 -77 -288 -114l-18 54q161 35 226 98q55 54 72 169h-99v265h450q66 0 66 -59v-206h-106v-242h314z" />
    <glyph glyph-name="uni515C" unicode="&#x515c;" 
d="M806 353v331h-127l-4 50h189q31 0 31 -31v-400h-218l-3 50h132zM578 669h-157v-131h157v131zM578 359v135h-157v-135h157zM81 323l36 14v354q104 44 184 98l60 -70l-6 -3h66q23 53 42 130l95 -19q-24 -54 -60 -111h102q34 0 47 -12q12 -12 12 -42v-349h-318v397
q-62 -30 -147 -53v-288l130 57l15 -56q-116 -66 -231 -124zM50 -35q149 48 212 121q56 66 77 198h102q-29 -155 -103 -233q-83 -88 -269 -138zM960 -4l-6 -45h-304q-57 0 -76 19q-18 17 -18 69v243h94v-286h310z" />
    </font>
</defs>
</svg>
